<?xml version="1.0" encoding="utf-8"?>
<svg version="1.1" id="Layer_1" xmlns="http://www.w3.org/2000/svg" xmlns:xlink="http://www.w3.org/1999/xlink" x="0px" y="0px"
viewBox="0 0 347.3 197.9" style="enable-background:new 0 0 347.3 197.9;" xml:space="preserve">
<style type="text/css">
.st0{fill-rule:evenodd;clip-rule:evenodd;fill:#F7F7FA;}
.st1{fill-rule:evenodd;clip-rule:evenodd;fill:#54301C;}
.st2{fill-rule:evenodd;clip-rule:evenodd;fill:#FACC63;}
.st3{fill-rule:evenodd;clip-rule:evenodd;fill:#EB851C;}
.st4{fill-rule:evenodd;clip-rule:evenodd;fill:#ED9C1C;}
.st5{fill-rule:evenodd;clip-rule:evenodd;fill:#FFFFFF;}
.st6{fill-rule:evenodd;clip-rule:evenodd;fill:#F5AB05;}
</style>
<path class="st0" d="M90.9,65.2L90.9,65.2l-0.1,0.7c-0.4,0.4-0.9,0.6-1.6,0.7c-2.5,0.5-6.3-0.9-8.7-3.1c-0.2-0.3-0.5-0.6-0.8-0.8
c-1.8-2.2-1.5-4.2,0.9-4.6c2.6-0.5,6.6,1,9,3.4c0.1,0.1,0.5,0.6,0.8,0.9C91.4,63,91.4,64,90.9,65.2L90.9,65.2z"/>
<path class="st1" d="M163.5,27.1c0,0,8.4-1.2,12.9,6.3c0,0-8,2.1-13.2-4.6L163.5,27.1L163.5,27.1z"/>
<path class="st2" d="M217.9,131.5c0-0.1,0-0.2,0-0.4c0.6-10.4,2.9-19.6,2.9-19.6l-35.3-3.5l0.4,23.5H217.9L217.9,131.5z"/>
<path class="st1" d="M217.8,131.5c0.1-0.9,0.2-1.9,0.3-2.8c0.2-1.6,0.3-3.2,0.6-4.8c0.2-1.6,0.5-3.2,0.7-4.8
c0.2-1.6,0.4-3.2,0.5-4.8l-0.5-0.1c-0.4,1.6-0.7,3.2-0.9,4.8c-0.2,1.6-0.3,3.2-0.4,4.8c-0.1,1.6-0.2,3.2-0.3,4.8
C217.8,129.6,217.8,130.6,217.8,131.5L217.8,131.5L217.8,131.5z"/>
<path class="st3" d="M252.6,61.1c0.7,0,1.4,0,2.1,0c-0.5,0.4-1.1,0.6-1.7,0.3C252.8,61.3,252.7,61.2,252.6,61.1L252.6,61.1z"/>
<path class="st3" d="M252.3,60.6c0.1,0.2,0.2,0.4,0.3,0.5c-0.2,0-0.3,0-0.5,0C252.2,60.8,252.2,60.6,252.3,60.6L252.3,60.6
L252.3,60.6z"/>
<path class="st4" d="M268.7,50.7c-2.7,0.3-4.4,3.7-4.7,5.3c-0.1,0.4-0.3,1.1-0.6,2c0-1-0.5-4.1-3.9-5.1c-0.9-0.3-1.7-0.2-2.2,0.2
l0-0.2c0,0-0.5-0.5-0.7-0.7c-0.6-0.5-2.3-1.8-3.3,0.2l-0.1,0c-1.1-3-3.3-2.3-3.3-2.3c0,0-3.6,1.6-5.8,2.6c-2.2,0.9-4.4,3.6-1.2,4.2
c0.2,0,0.5,0.1,0.7,0.1c0.1,0,0.1,0,0.2,0c3.1,0,6.7-2.6,6.7-2.6c1,0.7,1.6,2.5,1.6,2.7c-0.2,1.4-0.2,2.8,0.2,3.6
c0.1,0.2,0.2,0.4,0.3,0.5c0.7,0,1.4,0,2.1,0c-0.5,0.4-1.1,0.6-1.7,0.3c-0.1-0.1-0.3-0.2-0.4-0.3c-0.2,0-0.3,0-0.5,0
c-0.1,0.3-0.3,0.7-0.8,1.2c-1,1.2-1.6,0.8-1.6,0.8c0-0.1-0.1-0.1-0.1-0.2c-0.9-2.3-3.2-4.3-4.5-5c-0.4-0.2-0.9-0.3-1.4-0.3
c-0.1,0-0.1,0-0.2,0c-1.3,0-2.6,0.6-2.4,1.6c0.2,1.5,4.3,0.9,4.8,8.3c0.1,1.5,0.3,2.7,0.6,3.5c1.2,3.3,3.5,2.6,4,3.8
c0.6,1.6-4.7,11.5-8.2,16.2c-3,4.1-3.9,8.7-4.1,9.9c-1.6-0.6-6.2-2.5-10.5-5.4c-5.3-3.6-9.5-10.2-12.8-11.6
c-3.2-1.4-6.7-1.3-7.6-2.9c0,0-0.8,1.9,7.2,7.4c5.5,3.7,8.6,10.5,9.8,13.6c0,0-1.8,2.1-2.1,3.3l-0.2,0.1c0.2,0.5,0.4,1,0.5,1.5v0
c1.8,1.2,3,2.4,3.5,3.7c0.1,0.3,0.2,0.7,0.2,1.1l0,0.1l1.2,0.1c4.5,2.7,12.4,5.1,12.7,5.2c-0.8-2.1-0.9-5.1-0.9-5.1
c0.7,2.6,3.3,4.6,3.3,4.6s0.1-4,3.5-11.4c4.6-10,9-26.7,9-26.7c0.5-2.4,2.4-3.5,2.4-3.5c2.6-1.6,4.2-1.9,6-5.3
c0.4-0.8,0.9-2.5,1.5-4.5c0.9-2.8,2-6.1,3.3-7.8C270.7,54.6,271.4,50.4,268.7,50.7L268.7,50.7z"/>
<path class="st2" d="M227.1,57.7c0.5-1.5-0.8-3-2.9-4l0,0c-3.4-1.6-8.8-2.1-12.1,0.2c-5.4,3.8,0.2,7.4,3.2,8.9
c3,1.5,4.7,0.8,4.7,0.8s2.1-0.3,4-1.7C225.2,61.1,226.5,59.8,227.1,57.7L227.1,57.7z M225.8,52.3c3.8,2,6.1,5.5,6.1,5.5
s-2.5,6.4-8.7,11.4c-5.5,4.4-11.1,6.2-15.1,8.2l0,0c-0.1,0.1-1.5,2.2-0.6,3.8c0,0-0.8,1.9,7.2,7.4c5.5,3.7,8.6,10.5,9.8,13.6
c0,0-1.8,2.1-2.1,3.3l-0.2,0.1c-2.1-4.4-11.2-8.7-25.2-11.3c-0.7-3.3-1.9-4.1-3.8-7.4c-1.8-3.1,1.1-5.8,1.4-6.1l0,0
c0.3-0.2,0.7-0.4,1-0.6c2-1.6,0.3-4.1,0.3-4.1l0-0.1c-18.2-3.4-26.3-15.5-26.3-15.5c1.5-1.4,3.8-2.5,3.8-2.5
c-2.4-0.2-6.2,0.6-6.2,0.6c0.4-2.4,2.1-5.3,7.2-8c0.8-0.4,1.6-0.9,2.4-1.5c4-2.8,7-6.4,7-6.4c-4.2,1.4-7.5,0.5-9.1,2.8
c-1.6,2.3,2.1,3.6,2.1,3.6c-3.2,0.2-4.1-2.3-4.1-2.3c-0.8-4.8,5.9-5.4,9.7-7.8c1-0.7,2-1,3-1.3c2.5-0.6,4.4,0.1,4.4,0.1
c-1.2,0.9-2.1,2-2.6,3.1c-1.6,3.4-4.4,5.9-4.4,5.9c1.5,1.4,3.1,3.1,5.4,4.4c2,1.1,4.4,2,7.8,2.3c2.4,0.2,4.5,0.7,6.2,1.2
c2.4,0.7,3.8,1.5,3.8,1.5c0.5-5.6-0.7-15.7-4.9-19.2c0,0,4.3-1.3,7.1-0.2c0.8,0.3,1.4,0.8,1.8,1.5c0.4,0.7,0.7,1.5,1,2.3
c0.4,1.4,0.7,2.7,1,3.9c0.2,0.7,0.4,1.3,0.7,1.8c-0.4-0.3-0.5-0.9-0.5-0.9s0.2,2.5,1.9,2.2c1,0.6,2.5,1.2,4.1,2.1
c-0.1-0.5-0.1-1-0.2-1.5c0.1,0.1,2.7,1.5,5.8,3.1C224.6,51.7,225.2,52,225.8,52.3L225.8,52.3z"/>
<path class="st5" d="M228.1,14.8c10.7,5.3,8,17.5,2.1,20.5c-6,3-13.1,0.2-16.1-4.8c-0.5-0.9-1.1-1.7-1.8-2.5l-0.1,0.1
c-3.1,2.9-3.7,7-3.9,8.3c0,0.3,0,0.4,0,0.4c-2.8-1-7.1,0.2-7.1,0.2c-0.4-0.3-0.9-0.6-1.3-0.8c-0.6-0.3-1.2-0.5-1.9-0.6
c0.2,0,3.9-0.1,3.9-4.5c0,0-1.5,1.9-4.8,1.9c-3.3,0-6.9,1.8-7.2,4.8c0,0-1.9-0.7-4.4-0.1c-0.2-6.8-4.3-11.2-4.3-11.2
c-4.5,0-8.3-2.8-9.1-8.4c-0.6-4.3,1.8-8.9,6-10.6c5.3-2.2,9.2-0.7,11.4,0.8c0,0,0.8-5.1,6.5-6.6c13.1-3.4,18,10.3,18,10.3v0
C217,12,222.8,12.1,228.1,14.8L228.1,14.8z"/>
<path class="st2" d="M222.7,45.4c2.3,0.3,4.3,4.5,1.4,5.9c-3.1-1.6-5.7-3-5.8-3.1l0,0c-0.2-1.3-0.5-2.4-0.9-3.4
c-2.2-5.3-6.2-4.4-6.2-4.4c-0.2-0.8-0.6-1.6-1-2.3c-0.4-0.7-1-1.2-1.8-1.5c0,0,0-0.2,0-0.4l0.1,0c1.4,0.4,2.5,3.3,2.5,3.3
c2.9-1,3.6,0.3,5.1,1.1c0.3,0.1,0.5,0.2,0.7,0.3C216.9,41.1,218.8,44.9,222.7,45.4L222.7,45.4z"/>
<path class="st4" d="M222.7,107.3c0.3,6.2-16,8.9-36.5,7c-20.1-2-36.3-8.1-37.1-14.1c0-0.1,0-0.2,0-0.3c-0.2-4.3,6-7.3,17.9-7.9
c0.2,0.3,0.3,0.5,0.3,0.5l0,0.2c-10,0.5-16.6,2.6-16.6,5.7c0.1,4.8,15.7,10.3,34.8,12.3c19.2,2,34.6-0.3,34.5-5.1
c-0.1-3.7-9.6-7.9-22.9-10.5c0-0.3-0.1-0.5-0.1-0.7c14,2.6,23,6.9,25.2,11.3c0.2,0.5,0.4,1,0.5,1.5v0
C222.7,107.1,222.7,107.2,222.7,107.3L222.7,107.3z"/>
<path class="st2" d="M173.7,98.9c0.1-2-3.4-3.7-7.7-3.8c-4.3-0.1-7.9,1.4-7.9,3.4c0,2,3.4,3.7,7.8,3.8
C170.1,102.4,173.7,100.8,173.7,98.9L173.7,98.9z M187.3,96.7c0.1-1.2-1.8-2.3-4.3-2.7c-2.5-0.3-4.7,0.4-4.8,1.5
c-0.1,1.2,1.8,2.3,4.3,2.7C185,98.5,187.1,97.8,187.3,96.7L187.3,96.7z M192.7,105.8c0.1-1.8-2.9-3.5-6.7-3.8
c-3.9-0.3-7.1,0.9-7.3,2.6c-0.1,1.8,2.9,3.5,6.7,3.8C189.3,108.7,192.5,107.5,192.7,105.8L192.7,105.8z M199.8,98.1
c0-1-1.7-1.8-3.8-1.9c-2.1-0.1-3.9,0.6-3.9,1.6c0,1,1.7,1.8,3.8,1.9C198,99.8,199.8,99.1,199.8,98.1L199.8,98.1z M215.3,104.8
c0.2-1.8-2.9-3.5-6.7-3.8c-3.9-0.3-7.1,0.8-7.3,2.6c-0.2,1.8,2.9,3.5,6.7,3.8C211.9,107.7,215.1,106.5,215.3,104.8L215.3,104.8z
M220.1,105.5c0.1,4.8-15.4,7.1-34.5,5.1c-19.2-2-34.7-7.5-34.8-12.3c-0.1-3.1,6.6-5.2,16.6-5.7c5.2-0.3,11.4-0.1,17.9,0.6
c4.2,0.4,8.2,1,11.9,1.8C210.5,97.6,220,101.8,220.1,105.5L220.1,105.5z"/>
<path class="st5" d="M218.3,48.3c0.1,0.5,0.1,1,0.2,1.5c-1.6-0.8-3.1-1.5-4.1-2.1c1.8-0.2,1.2-2.8,1.2-2.8l-1.6-0.1
c0,0,0.7,1.6-0.3,1.8c-0.3,0.1-0.5,0-0.7-0.2c-0.3-0.5-0.5-1.1-0.7-1.8c0,0,2.1-0.4,5.2,0.4C217.7,45.8,218,47,218.3,48.3
L218.3,48.3L218.3,48.3z"/>
<path class="st5" d="M215.6,44.9c0,0,0.5,2.6-1.2,2.8c-0.2-0.1-0.3-0.2-0.5-0.3c-0.4-0.2-0.7-0.6-1-1.1c0.2,0.2,0.4,0.3,0.7,0.2
c1-0.2,0.3-1.8,0.3-1.8L215.6,44.9L215.6,44.9z"/>
<path class="st4" d="M208.6,101c3.9,0.3,6.9,2,6.7,3.8c-0.2,1.8-3.4,2.9-7.3,2.6c-3.9-0.3-6.9-2-6.7-3.8
C201.5,101.8,204.7,100.6,208.6,101L208.6,101z"/>
<path class="st2" d="M214.4,47.7c-1.8,0.2-1.9-2.2-1.9-2.2s0.1,0.6,0.5,0.9c0.3,0.5,0.6,0.8,1,1.1
C214.1,47.5,214.2,47.6,214.4,47.7L214.4,47.7z"/>
<path class="st2" d="M217.4,44.9c-3.1-0.9-5.2-0.4-5.2-0.4c-0.3-1.2-0.6-2.6-1-3.9C211.1,40.6,215.2,39.6,217.4,44.9L217.4,44.9z"
/>
<path class="st4" d="M201.3,37c4.2,3.5,5.4,13.6,4.9,19.2c0,0-1.5-0.8-3.8-1.5c0-0.3,0-4.6-0.2-6.1c-0.1-0.5-0.1-0.9-0.2-1.4
c-1.9-9.7-10.6-7.5-12.4-2.6c0,0.1-0.1,0.2-0.1,0.2c-1.2,3.4-1.2,6.3-1.2,6.3c-2.3-1.3-3.9-3-5.4-4.4c0,0,2.8-2.5,4.4-5.9
c0.5-1.1,1.4-2.1,2.6-3.1c0,0,0,0,0,0c1.8-1.4,4.4-2.5,7-2.4c0.1,0,0.2,0,0.3,0c0.3,0,0.6,0.1,0.9,0.1h0c0.6,0.1,1.3,0.3,1.9,0.6
C200.4,36.3,200.9,36.6,201.3,37L201.3,37z"/>
<path class="st5" d="M194.9,48c2-0.3,1.4-3.1,1.4-3.1l-1.8-0.1c0,0,0.8,1.7-0.4,2c-1,0.2-1.3-1.2-1.3-1.2S192.9,48.3,194.9,48
L194.9,48z M202.2,48.6c0.2,1.5,0.2,5.8,0.2,6.1c-1.7-0.5-3.8-1-6.2-1.2c-3.4-0.3-5.8-1.2-7.8-2.3c0,0,0-2.9,1.2-6.3
c8.5-1.1,12.4,2.4,12.4,2.4C202.1,47.6,202.1,48.1,202.2,48.6L202.2,48.6z"/>
<path class="st5" d="M197.1,33c3.3,0,4.8-1.9,4.8-1.9c0,4.4-3.7,4.5-3.9,4.5h0c-0.3-0.1-0.6-0.1-0.9-0.1c-0.1,0-0.2,0-0.3,0
c-2.6-0.1-5.1,0.9-7,2.4c0,0,0,0,0,0C190.3,34.8,193.8,33,197.1,33L197.1,33z"/>
<path class="st4" d="M196.1,96.1c2.1,0.1,3.8,1,3.8,1.9c0,1-1.8,1.7-3.9,1.6c-2.1-0.1-3.8-1-3.8-1.9
C192.2,96.8,193.9,96.1,196.1,96.1L196.1,96.1z"/>
<path class="st1" d="M197.2,35.4c0.3,0,0.6,0.1,0.9,0.1C197.8,35.5,197.5,35.5,197.2,35.4L197.2,35.4z"/>
<path class="st6" d="M197,94.2c0.1,0.2,0.1,0.5,0.1,0.7c-3.7-0.7-7.7-1.3-11.9-1.8c-6.6-0.7-12.7-0.9-18-0.6l0-0.2
c0,0-0.1-0.2-0.3-0.5c4.8-0.2,10.5-0.1,17.2,0.5c0.3,0,0.6,0.1,1,0.1C189.4,93,193.4,93.6,197,94.2L197,94.2z"/>
<path class="st5" d="M196.2,44.9c0,0,0.6,2.9-1.4,3.1c-2,0.3-2.2-2.5-2.2-2.5c0,0,0.3,1.4,1.3,1.2c1.2-0.2,0.4-2,0.4-2L196.2,44.9
L196.2,44.9z"/>
<path class="st2" d="M189.6,44.6c1.7-4.9,10.5-7.1,12.4,2.6c0,0-4-3.5-12.4-2.4C189.5,44.7,189.6,44.7,189.6,44.6L189.6,44.6z"/>
<path class="st4" d="M193.2,86.8c1.9,3.3,3.2,4.2,3.8,7.4c-3.7-0.7-7.7-1.3-11.9-1.7c-0.3,0-0.6-0.1-1-0.1
c-0.2-0.6-0.6-2.9-0.5-4.7c0.2-1.9,1.7-4.3,4.4-5.5c2.3-1,4.7-0.8,6.6-1.6C194.3,81,191.4,83.7,193.2,86.8L193.2,86.8z"/>
<path class="st4" d="M185.9,102c3.9,0.3,6.9,2,6.7,3.8c-0.1,1.8-3.4,3-7.3,2.6c-3.9-0.3-6.9-2-6.7-3.8
C178.8,102.9,182.1,101.7,185.9,102L185.9,102z"/>
<path class="st4" d="M183,94c2.5,0.3,4.4,1.5,4.3,2.7c-0.1,1.2-2.3,1.8-4.8,1.5c-2.5-0.3-4.4-1.5-4.3-2.7
C178.3,94.4,180.5,93.7,183,94L183,94z"/>
<path class="st4" d="M166,95.1c4.3,0.1,7.8,1.8,7.7,3.8c0,2-3.6,3.5-7.9,3.4c-4.3-0.1-7.8-1.8-7.8-3.8
C158.1,96.5,161.6,95,166,95.1L166,95.1z"/>
<polygon class="st4" points="196,131.5 195.4,123.8 191.9,121 185.8,124.3 186.3,131.5 196,131.5 	"/>
<path class="st4" d="M159.7,112.1c0.6-1.7-14.3-4.6-14.4-7.2c0-0.2,0-0.4,0-0.5h0c0.2-1.4,1-2.6,3.2-3.7l0.5-0.5c0-0.1,0-0.2,0-0.3
c-0.2-4.3,6-7.3,17.9-7.9c-1.9-2.6-10.6-14.7-11-15.2c-0.5-0.5-4.2-5.1-8.5-5.4h0c-0.1,0-3,0-3.1,3.3c-0.1,3.3-2.4,4-3.4,9.8
c-1,5.7-0.5,15.8-0.5,15.8l0,0c0.1,0.1,0.2,0.1,0.2,0.2l0.8,31.2l17.6-1.3C159.1,130.4,158.7,115.1,159.7,112.1L159.7,112.1z"/>
<path class="st2" d="M163.5,30.8c7.1,7.1,2.7,11.2,2.7,11.2c-2,1.8-5.2,0.1-5.5-0.1c1.7,0.8,3.8-0.2,4-0.5c2.4-3.5-3.6-7-6.4-8.1
c-0.1,0-0.2-0.1-0.3-0.1c-0.2-0.1-0.3-0.2-0.5-0.2c-0.2-0.1-0.4-0.3-0.6-0.4c-1.7-1.3-2.2-3-2.2-3c0,0.1,0,0.1,0,0.2
c-0.1-0.2-0.1-0.3-0.1-0.3c-0.2,0.9,0.2,2.4,1.3,3.7c0.2,0.2,0.5,0.5,0.8,0.7c1.7,1.3,3.2,3.5,3.3,3.7c-3.9-1-6.9-0.1-6.9-0.1
c3.4,1.1,5.8,2.9,7.6,4.6l0,0c0.2,0.2,0.4,0.4,0.6,0.6c1.7,1.8,2.5,3.3,2.5,3.3s-1,2.5-8.3,7.2c-2.3,1.5-4.4,2.5-6.3,3.3
c0,0-6.7,9-6.2,12.8c0,0,0.2,2,4.4,2.2c-0.1,0-3,0-3.1,3.3c-0.1,3.3-2.4,4-3.4,9.8c-1,5.8-0.5,15.8-0.5,15.8l0,0
c0.1,0.1,0.2,0.1,0.2,0.2l0.7,31.6l-13.8,0c-1-2.3-2-18.4-2.9-22c-1.4-5.6-2.7-11.6-3.2-14.4c-0.1-0.5-0.2-1-0.4-1.4
c-1.1-3.3-3.2-4.1-3.2-4.1c0.6-2,1.6-3.7,3.2-5.6c0,0,0,0,0,0c0.2-0.2,0.3-0.4,0.5-0.5c1.2-1.3,2.6-2.6,4.4-4.1
c9.2-7.4,7.4-10.1,7.4-10.6c1.7-1.6,1.4-3.7,1.4-3.7c-2.2-3.6-7.7-4.9-8.1-5c0,0,0,0,0,0c-6.4-0.9-9.7-4.3-9.9-4.5c0,0,0,0,0,0
c-8.7-1.9-11.8-7.2-11.8-7.2c2.3,0.4,4.9-0.7,7.5-3.9c3.1-4-1.9-6.4-9-5.8c-0.3,0-0.7,0.1-1,0.1c0.2-0.1,3.3-2,8.4-4.1
c0.8-0.3,1.7-0.7,2.7-1c0.3-0.1,0.6-0.2,0.9-0.4c1.3-0.5,2.3-1.1,3.2-1.7c0.1,0.1,0.2,0.1,0.3,0.2c0-0.2,0.1-0.4,0.3-0.6
c0.1-0.1,0.2-0.2,0.3-0.2c0,0,0.1,0,0.1-0.1c0.2-0.1,0.3-0.1,0.5-0.2c-0.1,0-0.1,0-0.2-0.1c0.2-0.2,0.4-0.4,0.6-0.6
c3.2-2.2,6.1-0.3,6.1-0.3l1.1,0.4c-0.8,2.6-1.4,5.7-1.6,9.3c0,0,1.1,0,3.3-0.5c0.7-0.2,1.5-0.4,2.4-0.7c3.4-1.2,7.8-1.8,11-1.8
c0.5,0,1.1,0,1.5,0c4.2,0.2,7.7-1,9.1-3.5c0,0-4.3-2.6-5.7-7.7c-0.4-1.5-1.4-3.5-3.1-4.9c0.9,0.6,1.4,1.2,1.5,1.3
c-0.2-0.7-0.5-1.3-0.8-1.8c0.3,0.1,12.1,3.5,19,10.2C163.3,30.6,163.4,30.7,163.5,30.8L163.5,30.8z"/>
<path class="st1" d="M139.2,0.9c20,0.9,24.8,17.4,24.7,21c0,0-2.7-2.8-10-5.2c0.3,0.2,10.3,6.9,9.2,13.8
c-6.9-6.7-18.7-10.1-19-10.2c0,0,0,0,0,0c-2.8-5.3-7.5-3.9-9.1-2.7c-0.3,0.2-0.5,0.4-0.7,0.6c-2.5-0.3-9.9-0.9-16.4,1.6
c-0.4,0.1-0.8,0.3-1.2,0.5C116.8,20.3,119.2-0.1,139.2,0.9L139.2,0.9z"/>
<path class="st1" d="M157.7,33c0.2,0.1,0.3,0.2,0.5,0.2C158,33.1,157.8,33,157.7,33L157.7,33z"/>
<path class="st4" d="M146.5,25.9c1.4,5.1,5.7,7.7,5.7,7.7c-1.4,2.5-4.9,3.6-9.1,3.5c-0.5,0-1,0-1.5,0c0.4-2.8,0.4-5,0.1-6.6
c-1.1-5.7-5.9-4.9-5.9-4.9c-4,0.6-5.9,3.7-6.8,6.9c-0.9,3.1-0.8,6.3-0.8,7.2c-2.2,0.6-3.3,0.5-3.3,0.5c0.2-3.7,0.8-6.7,1.6-9.3
c1.6-5.1,4.3-8.3,7.6-10.1c0.5,0.3,1.9-0.4,1.9-0.4c3.2-1.5,5.8-0.4,7.4,0.6C145.1,22.3,146.1,24.3,146.5,25.9L146.5,25.9z"/>
<path class="st1" d="M145.3,104.7c0.1,0.2,0.1,0.4,0.2,0.5C145.4,105.1,145.3,104.9,145.3,104.7L145.3,104.7z"/>
<path class="st5" d="M140.1,30.8c-0.1,0.2-0.4,1.4-1.3,1.2c-1-0.2-0.5-1.6-0.4-1.9c1,0,2.1,0.1,3.3,0.3c0.3,1.6,0.4,3.8-0.1,6.6
c-3.2,0.1-7.6,0.7-11,1.8c-0.9,0.3-1.7,0.5-2.4,0.7c0-0.8-0.1-4,0.8-7.2c0,0,2.6-1.9,7.6-2.2c0,0-0.6,2.9,1.4,3.1
C139.8,33.5,140.1,31.2,140.1,30.8L140.1,30.8z"/>
<path class="st2" d="M141.6,30.4c-1.2-0.2-2.3-0.3-3.3-0.3c0-0.1,0-0.1,0-0.1l-1.8,0.1c-5,0.3-7.6,2.2-7.6,2.2
c0.9-3.2,2.8-6.3,6.8-6.9C135.8,25.5,140.5,24.7,141.6,30.4L141.6,30.4z"/>
<path class="st5" d="M138.7,32c0.9,0.2,1.3-1,1.3-1.2c0,0.3-0.3,2.7-2.2,2.5c-2-0.3-1.4-3.1-1.4-3.1c0.6,0,1.2,0,1.8,0
C138.2,30.4,137.7,31.8,138.7,32L138.7,32z"/>
<path class="st2" d="M134,20.5c0,0.1,0.1,0.2,0.1,0.2c-3.3,1.8-6,5-7.6,10.1l-1.1-0.4c0,0-2.9-1.9-6.1,0.3c0.4-0.4,0.8-0.9,1-1.3
c0.3-0.4,0.5-0.8,0.6-1.2c0.8-2,0.3-3.9-1.2-5.1c0.1-0.3-1.4-2.6-1.6-2.5l-0.2-0.6c6.5-2.5,13.9-1.9,16.4-1.6
C133.4,19.4,134,20.5,134,20.5L134,20.5z"/>
<path class="st4" d="M133.2,69.5c0,0.4,1.9,3.1-7.4,10.6c5.2-4.2,6.2-9.5,6.3-9.8v0C132.5,70,132.9,69.8,133.2,69.5L133.2,69.5z"/>
<path class="st4" d="M133.2,69.5L133.2,69.5c-0.3,0.3-0.6,0.5-1.1,0.8v0c-0.1,0.3-1.1,5.6-6.3,9.8c-1.8,1.4-3.2,2.7-4.4,4.1
c-0.2,0.2-0.3,0.4-0.5,0.5c0.1-0.2,1.4-3.2,2.9-6.4c1.5-3.3,2.3-6.4,6.8-7.5C131.2,70.7,132.8,69.7,133.2,69.5L133.2,69.5z"/>
<path class="st2" d="M119.9,22.9c1.5,1.2,1.9,3.1,1.2,5.1h0c-0.1-2.1-1.9-2.1-1.9-2.1c-2.7-0.2-3.9,2.1-4.4,4.3
c-0.5,1.9-0.4,3.8-0.4,3.8c-0.3,0.1-0.6,0.2-0.9,0.4c-0.9,0.3-1.8,0.7-2.7,1c-3.3-0.9-3.5-4.6,0.4-6c2.7-1,4-2.6,4.5-3.2v0
C117,25.7,118.9,24.7,119.9,22.9L119.9,22.9z"/>
<path class="st4" d="M121,28L121,28c-0.2,0.4-0.4,0.8-0.6,1.2c-1,0-2,0.1-3,0.2l-0.5,0c0,0,0,0,0,0.1c-0.8,0.2-1.6,0.4-2.2,0.6
c0.5-2.2,1.8-4.5,4.4-4.3C119.2,25.9,120.9,25.9,121,28L121,28z"/>
<path class="st5" d="M117.3,29.5c0.9-0.2,2-0.3,3-0.2c-0.3,0.5-0.6,0.9-1,1.3c-0.2,0.2-0.4,0.4-0.6,0.6c-0.7-0.4-0.1-1.8-0.1-1.8
L117.3,29.5L117.3,29.5z"/>
<path class="st2" d="M118.7,31.3c0,0,0.1,0,0.2,0.1c-0.1,0.1-0.3,0.2-0.5,0.2c0,0-0.1,0-0.1,0.1C118.5,31.5,118.6,31.4,118.7,31.3
L118.7,31.3z"/>
<path class="st5" d="M118.7,31.3c-0.1,0.1-0.3,0.2-0.4,0.3c-0.1,0.1-0.2,0.2-0.3,0.2c-0.2,0.1-0.3,0.3-0.5,0.4
c-0.8-0.7-0.6-2.3-0.5-2.6c0.2,0,0.3-0.1,0.5-0.1l1.1-0.1C118.6,29.4,118,30.9,118.7,31.3L118.7,31.3z"/>
<path class="st2" d="M118,31.8c-0.1,0.2-0.2,0.4-0.3,0.6c-0.1-0.1-0.2-0.1-0.3-0.2C117.7,32.1,117.8,32,118,31.8L118,31.8z"/>
<path class="st4" d="M117,29.5l0.5,0C117.3,29.5,117.1,29.6,117,29.5C117,29.6,117,29.5,117,29.5L117,29.5z"/>
<path class="st5" d="M116.9,29.6c-0.1,0.3-0.3,1.9,0.5,2.6c-0.9,0.6-2,1.2-3.2,1.7c0,0,0-1.8,0.4-3.8
C115.4,30,116.1,29.8,116.9,29.6L116.9,29.6z"/>
<path class="st2" d="M109.7,72.8l-1.2,4.5L94.9,77c-0.8-0.3-1.8-0.5-3.1-0.2c-0.3,0-0.5,0.1-0.7,0.1l-10.8-0.3l-15.9-0.5l-1-5.7
c0,0,2.3,0.4,6.3,0.9c2.4,0.3,5.4,0.6,8.9,0.9c3.5,0.3,7.5,0.6,11.9,0.7c4.5,0.2,9.4,0.2,14.5,0.1c0.2,0,0.3,0,0.5,0h0.1
c0.3,0,0.6,0,0.8,0C107.5,72.9,108.6,72.9,109.7,72.8L109.7,72.8z"/>
<path class="st5" d="M109.8,70.3c0,0-0.3,2.3-3.4,2.6c-0.5,0-0.9,0-1.4,0c-3-0.1-5.7-1.4-7.8-3l0.7-0.1c0,0,1-3.4,7.1-2.4
C107.3,69.7,108.3,70.3,109.8,70.3L109.8,70.3z"/>
<path class="st5" d="M104.9,67.5c-6.1-1-7.1,2.4-7.1,2.4L97.2,70c-1.2-0.9-2.3-1.9-3.2-2.8l1.1-0.1c0,0,1.7-3.9,7.1-2.2
C103.3,66,104.2,66.8,104.9,67.5L104.9,67.5z"/>
<path class="st5" d="M101.4,64.1c0.3,0.3,0.6,0.6,0.8,0.8c-5.4-1.7-7.1,2.2-7.1,2.2L94,67.2c-1.8-1.9-2.8-3.6-2.8-3.6
C92.6,62.5,97.1,59.8,101.4,64.1L101.4,64.1z"/>
<path class="st0" d="M97.2,70c2.1,1.6,4.8,2.9,7.8,3c-5.1,0.1-10,0.1-14.5-0.1l0-0.2l0.4-6.9l-0.2-0.1c0.3-0.5,0.4-1.2,0.1-1.9
c0.1-0.1,0.2-0.1,0.3-0.2c0,0,1,1.7,2.8,3.6C94.9,68.1,95.9,69.1,97.2,70L97.2,70z"/>
<path class="st4" d="M124.6,110.2c-1.4-5.6-2.7-11.6-3.2-14.4c-0.1-0.5-2.2-3.9-2.4-4.4c0,0-4.5,10.5-7.5,12.4
c0,0-1.1-3.7-7.5-11.5c-6.3-7.7-6.6-12-6.6-12c0,0,0-0.4-0.3-0.9c-0.3-0.8-0.9-1.8-2.3-2.4L91,76.9c-4.5,0.7-6.1,0.1-8.3-0.1
c-0.7-0.1-1.5-0.1-2.5-0.2c-2.3-0.1-5.1,0.1-6.7,0.8c-2.2,1-2,3-1,3.2c1,0.2,3.4-0.5,6.5-0.5c3.1,0,8,1.9,9.3,2.5
c0.7,0.3,2.3,0.6,3.7,1c1.2,0.4,2.4,0.9,2.9,1.8c1.1,1.9,6.1,9.9,8.9,20.7c2.7,10.3,2.8,11,2.8,11.1c0.1-0.2,3.6-5,6.2-6.5
c0,0-1.8,2.8-2.2,5.6C110.8,116.4,117.6,115.3,124.6,110.2L124.6,110.2z"/>
<path class="st0" d="M79,62.2L79,62.2L79,62.9c-0.4,0.4-0.9,0.6-1.6,0.7c-2.5,0.5-6.3-0.9-8.7-3.1c-0.2-0.3-0.5-0.6-0.8-0.8
c-1.8-2.2-1.5-4.2,0.9-4.6c2.6-0.5,6.6,1,9,3.4c0.1,0.1,0.5,0.6,0.8,0.9C78.2,60.1,78.3,61.1,79,62.2L79,62.2z"/>
<path class="st5" d="M68.7,60.5c1.2,1.8,1.4,5.9,1,10.7c-4-0.5-6.3-0.9-6.3-0.9c0,0-6.3,0.7-5.2-3.9c1-4.4,5.3-1.7,5.3-1.7
s-1.8-4.3,2.8-5.2c0.6-0.1,1.1,0,1.6,0.2c0.1,0.2,0.3,0.3,0.5,0.5C68.5,60.4,68.6,60.4,68.7,60.5L68.7,60.5z"/>
<path class="st1" d="M191.9,120.7c-0.1,0.3-0.2,0.7-0.4,0.9c-0.2,0.3-0.5,0.5-0.8,0.7c-0.5,0.4-1.1,0.5-1.6,0.6
c-1.1,0.1-2.2,0.1-3.2,0c-1.1-0.1-2.1-0.1-3.2-0.4c-0.5-0.1-1.1-0.3-1.5-0.6c-0.2-0.2-0.5-0.4-0.6-0.6c-0.2-0.3-0.3-0.6-0.3-0.9
l0-0.1l0,0c0,0,0,0,0,0l0-0.1c0-0.1,0-0.2,0.1-0.2c0.1-0.2,0.2-0.3,0.2-0.4c0.2-0.2,0.4-0.4,0.6-0.6c0.4-0.3,0.9-0.6,1.4-0.8
c1-0.4,2.1-0.7,3.2-0.7c1.1,0,2.3,0.2,3.3,0.6c0.5,0.2,1.1,0.5,1.5,0.8c0.2,0.2,0.5,0.4,0.7,0.6c0.1,0.1,0.2,0.3,0.3,0.5
c0,0.1,0.1,0.2,0.1,0.3c0,0.1,0,0.2,0,0.3C191.9,120.6,191.9,120.6,191.9,120.7L191.9,120.7L191.9,120.7z M190.4,120.7
C190.4,120.6,190.4,120.6,190.4,120.7C190.4,120.6,190.4,120.6,190.4,120.7C190.4,120.6,190.4,120.6,190.4,120.7
c-0.1-0.1-0.1-0.2-0.2-0.2c-0.1-0.1-0.3-0.3-0.4-0.5c-0.3-0.3-0.8-0.6-1.2-0.8c-0.9-0.4-1.8-0.7-2.8-0.8c-1-0.1-2,0-3,0.3
c-0.5,0.2-1,0.4-1.4,0.6c-0.2,0.1-0.4,0.3-0.6,0.5c-0.1,0.1-0.1,0.2-0.2,0.3c0,0,0,0.1,0,0.1l0,0c0,0,0,0,0,0l0,0l0,0.1
c0,0.4,0.3,0.9,0.7,1.1c0.4,0.3,0.9,0.4,1.4,0.6c1,0.2,2.1,0.3,3.1,0.4c1,0,2.1,0.1,3.1-0.1c0.5-0.1,1-0.2,1.3-0.5
c0.2-0.2,0.2-0.4,0.2-0.6C190.5,121,190.4,120.8,190.4,120.7L190.4,120.7L190.4,120.7z"/>
<path class="st1" d="M162.7,115.3C162.7,115.3,162.7,115.3,162.7,115.3c0-0.2,0.1-0.2,0.1-0.3c0-0.1,0.1-0.2,0.1-0.2
c0.1-0.1,0.2-0.2,0.3-0.3c0.2-0.2,0.4-0.3,0.6-0.4c0.4-0.2,0.7-0.3,1.1-0.4c0.7-0.1,1.5-0.1,2.2,0.1c0.7,0.2,1.3,0.6,1.8,1.1
c0.3,0.3,0.5,0.5,0.7,0.9c0.1,0.2,0.2,0.4,0.3,0.6c0,0.1,0.1,0.2,0.1,0.4c0,0.1,0,0.2,0,0.2l0,0.1c0,0,0,0,0,0l0,0l0,0.1
c-0.1,0.3-0.2,0.5-0.4,0.6c-0.2,0.2-0.4,0.3-0.5,0.4c-0.4,0.2-0.7,0.2-1.1,0.2c-0.7,0-1.4-0.1-2-0.2c-0.7-0.1-1.3-0.2-2-0.5
c-0.3-0.1-0.7-0.4-1-0.8c-0.1-0.2-0.2-0.5-0.3-0.8C162.6,115.9,162.6,115.6,162.7,115.3L162.7,115.3L162.7,115.3z M163.7,115.6
c-0.1,0.3-0.1,0.5,0,0.7c0.1,0.2,0.3,0.4,0.6,0.6c0.5,0.3,1.1,0.5,1.8,0.7c0.6,0.2,1.3,0.3,1.9,0.3c0.3,0,0.6,0,0.9-0.2
c0.3-0.1,0.5-0.3,0.5-0.6c0.1-0.2-0.1-0.5-0.3-0.7c-0.2-0.3-0.4-0.5-0.7-0.7c-0.5-0.4-1.1-0.6-1.7-0.8c-0.6-0.1-1.2-0.1-1.8,0
c-0.3,0.1-0.6,0.2-0.9,0.3c-0.1,0.1-0.3,0.1-0.4,0.2C163.7,115.5,163.7,115.6,163.7,115.6C163.7,115.6,163.7,115.6,163.7,115.6
C163.7,115.6,163.7,115.6,163.7,115.6C163.7,115.6,163.7,115.6,163.7,115.6L163.7,115.6L163.7,115.6z"/>
<path class="st1" d="M179,118.9c-0.1,0.3-0.1,0.6-0.3,0.9c-0.1,0.3-0.4,0.5-0.6,0.6c-0.4,0.3-0.8,0.4-1.2,0.5c-0.4,0.1-0.8,0-1.2,0
c-0.4,0-0.8,0-1.2-0.1c-0.8-0.1-1.6-0.2-2.3-0.4c-0.4-0.1-0.8-0.3-1.1-0.6c-0.2-0.2-0.3-0.4-0.5-0.6c-0.1-0.3-0.2-0.5-0.2-0.9
l0-0.1l0,0c0,0,0,0,0,0l0-0.1c0-0.1,0-0.2,0.1-0.2c0.1-0.1,0.1-0.3,0.2-0.4c0.2-0.2,0.3-0.4,0.5-0.5c0.3-0.3,0.7-0.5,1.1-0.7
c0.8-0.4,1.6-0.5,2.4-0.5c0.8,0,1.6,0.3,2.4,0.7c0.4,0.2,0.7,0.5,1.1,0.8c0.2,0.2,0.3,0.4,0.5,0.6c0.1,0.1,0.2,0.3,0.2,0.4
c0,0.1,0.1,0.2,0.1,0.3c0,0.1,0,0.2,0,0.2C179,118.8,179,118.8,179,118.9L179,118.9L179,118.9z M178,118.9L178,118.9
c0-0.1,0-0.1,0-0.1C178,118.8,178,118.8,178,118.9c0-0.1,0-0.1,0-0.1c0-0.1,0-0.1-0.1-0.2c-0.1-0.1-0.2-0.3-0.3-0.4
c-0.3-0.3-0.5-0.5-0.9-0.7c-0.6-0.4-1.3-0.7-2.1-0.8c-0.7-0.1-1.5,0-2.2,0.3c-0.4,0.1-0.7,0.3-1,0.5c-0.3,0.2-0.6,0.6-0.6,0.8
c0,0.4,0.2,0.7,0.4,1c0.3,0.2,0.6,0.4,1,0.5c0.7,0.3,1.5,0.4,2.2,0.4c0.8,0.1,1.5,0.1,2.3,0c0.4-0.1,0.7-0.2,0.9-0.4
C178,119.5,178,119.2,178,118.9L178,118.9z"/>
<path class="st1" d="M149.2,86.3C149.2,86.3,149.2,86.2,149.2,86.3C149.1,86.2,149.1,86.3,149.2,86.3L149.2,86.3z"/>
<path class="st4" d="M187.5,123.2c-0.4,0-0.9,0-1.5,0c-1.8-0.1-3.2-0.3-4.1-0.7c-1.9-0.7-2.2-1.9-2.2-2.7c0.1-1.6,3.1-3.2,6.1-3.2
c0.1,0,0.2,0,0.4,0c2.5,0.1,4.6,1.3,5.5,2.3c0.4,0.5,0.6,1,0.6,1.5C192,123.2,188.8,123.2,187.5,123.2L187.5,123.2L187.5,123.2z"/>
<path class="st4" d="M167.8,119.2c-0.6,0-1.3-0.1-2.2-0.3c-1.3-0.3-3.1-0.8-3.4-2.3c-0.1-0.4-0.1-0.7,0-1.2c0.3-1.2,2-1.9,3.6-1.9
c0.4,0,0.9,0.1,1.3,0.2c2.1,0.5,3.8,2.4,3.4,3.8C170.3,118,169.7,119.2,167.8,119.2L167.8,119.2z"/>
<path class="st4" d="M176.1,121.6c-0.5,0-1,0-1.5-0.1c-3.3-0.3-4.9-1.4-4.8-3.3c0.1-1.5,2.3-2.9,4.6-2.9c0.2,0,0.3,0,0.5,0
c1.8,0.2,3.3,1.2,4,2c0.5,0.6,0.7,1.1,0.6,1.7C179.3,121.6,176.9,121.6,176.1,121.6L176.1,121.6z"/>
<path class="st1" d="M257.3,61.3C257.3,61.3,257.3,61.3,257.3,61.3C257.4,61.3,257.4,61.3,257.3,61.3
C257.3,61.3,257.3,61.3,257.3,61.3L257.3,61.3z M174.7,47.4C174.7,47.4,174.7,47.4,174.7,47.4C174.7,47.4,174.7,47.4,174.7,47.4
C174.7,47.4,174.7,47.4,174.7,47.4L174.7,47.4z M176.3,48.9c-0.4-0.2-0.7-0.5-1-0.7c-0.2-0.2-0.3-0.3-0.4-0.5
c0,0.1,0.1,0.1,0.1,0.2c0,0,0,0,0,0C175.4,48.3,175.9,48.6,176.3,48.9C176.3,48.9,176.3,48.9,176.3,48.9L176.3,48.9z M269.8,53.4
c-0.1,0.5-0.2,0.9-0.4,1.4c-0.2,0.4-0.4,0.9-0.7,1.3c-0.1,0.2-0.3,0.4-0.4,0.6c-0.1,0.2-0.3,0.4-0.5,0.6c-0.7,0.9-1.1,1.9-1.6,2.9
c-0.8,2-1.4,4-2.1,6c-0.3,1-0.6,2-1,2.9c-0.2,0.4-0.4,0.9-0.7,1.3c-0.3,0.4-0.5,0.8-0.8,1.2c-0.6,0.7-1.3,1.3-2.2,1.9l-1.3,0.9
l-0.7,0.4c-0.2,0.1-0.5,0.3-0.7,0.5c-0.8,0.7-1.5,1.7-1.8,2.7c-0.3,1-0.6,2-0.8,3c-1.2,4-2.4,8-3.7,11.9c-1.4,3.9-2.8,7.8-4.5,11.6
c-0.9,1.9-1.8,3.8-2.4,5.8c-0.4,1-0.7,2-0.9,3c-0.1,0.5-0.3,1-0.4,1.6c0,0.2-0.1,0.4-0.1,0.5c0,0-0.1-0.1-0.1-0.1
c-0.3-0.2-0.7-0.5-1-0.8c-0.4-0.4-0.8-0.9-1.1-1.4c-0.2-0.3-0.3-0.7-0.4-1.1c0,0,0,0.1,0,0.3c-0.1,0.8-0.2,1.6-0.2,2.4
c0,0.4,0,0.9,0.1,1.3c-2.3-0.9-4.5-1.7-6.7-2.7c-1.3-0.5-2.5-1.1-3.8-1.7c-1-0.5-1.9-0.9-2.8-1.4c-0.5-0.9-1.3-1.8-2.5-2.7
c0-0.1,0-0.3,0-0.4l0,0c0-0.6-0.2-1.2-0.4-1.7l0.1,0c0-0.1,0.1-0.4,0.3-0.6c0.1-0.2,0.3-0.5,0.5-0.8c0.2-0.3,0.4-0.5,0.5-0.7
c0.2-0.2,0.4-0.5,0.6-0.7v0l0.4-0.5l-0.2-0.5c-0.8-2-1.9-3.8-3.1-5.5c-1.2-1.7-2.5-3.3-3.9-4.8c-1.4-1.5-3-2.8-4.7-4
c-1.7-1.2-3.6-2.4-4.8-3.6c1.3,1.5,2.9,2.7,4.5,4c1.6,1.3,3,2.7,4.3,4.2c1.3,1.6,2.4,3.2,3.4,5c0.9,1.6,1.7,3.2,2.3,4.9
c-0.1,0.1-0.2,0.2-0.3,0.4c-0.2,0.3-0.4,0.6-0.6,0.9c-0.1,0.2-0.2,0.4-0.4,0.6c-0.4-0.5-0.8-0.9-1.3-1.3c-1.4-1.2-2.9-2.1-4.4-2.9
c-3.1-1.6-6.3-2.7-9.6-3.6c-3.2-0.9-6.3-1.6-9.6-2.1c-0.2-0.9-0.5-1.5-1-2.5c-0.7-1.2-1.5-2.3-2.2-3.4c-0.4-0.6-0.8-1.1-1-1.7
c-0.2-0.6-0.3-1.3-0.2-1.9c0.1-1,0.6-2,1.3-2.8c0.1,0,0.2-0.1,0.2-0.1c0.5-0.2,1-0.5,1.4-0.8c0.5-0.3,0.8-0.8,1.1-1.4
c0.2-0.6,0.3-1.2,0.2-1.8c0-0.2-0.1-0.4-0.1-0.6c2.2,0.3,4.3,0.3,6.5,0.1c-3.2-0.6-6.3-1.2-9.4-1.9c-3.1-0.8-6.1-1.7-9-3
c-2.9-1.3-5.6-3-8.1-5c-1.2-1-2.4-2.1-3.5-3.2c-0.5-0.6-1.1-1.2-1.5-1.8c-0.3-0.4-0.6-0.8-0.9-1.2c0.3-0.3,0.6-0.6,0.9-0.8
c0.3-0.2,0.6-0.5,0.9-0.7c0.3-0.2,0.6-0.4,0.9-0.6l1.7-1.1c0,0-1.9,0.1-1.9,0.1c-1.1,0-2.1,0.1-3.2,0.2c-0.9,0.1-1.7,0.3-2.6,0.5
c0.4-1.6,1.5-3.1,2.8-4.2c0.7-0.6,1.5-1.2,2.3-1.7c0.4-0.3,0.8-0.5,1.2-0.7l1.3-0.7c1.8-1,3.4-2.1,4.9-3.4c1.5-1.3,2.9-2.6,4.3-4.2
l1.8-2c0,0-2.6,0.8-2.6,0.8c-1.1,0.4-2.2,0.7-3.4,1c-1.2,0.2-2.4,0.4-3.6,0.9c-1.2,0.4-2.4,1.4-2.5,2.8c0,0.7,0.4,1.3,0.9,1.7
c0.3,0.3,0.7,0.5,1.1,0.6c-0.1,0-0.1,0.1-0.2,0.1c-0.6-0.1-1.1-0.3-1.5-0.6c-0.3-0.2-0.6-0.5-0.8-0.8c-0.2-0.3-0.4-0.7-0.5-1
c-0.1-0.8,0.1-1.6,0.5-2.2c0.4-0.6,1.1-1.1,1.8-1.5c1.5-0.8,3.1-1.3,4.8-2c0.8-0.3,1.7-0.7,2.5-1.2l0.6-0.3
c0.2-0.1,0.4-0.2,0.5-0.3c0.4-0.2,0.7-0.3,1.1-0.5c1.4-0.5,3-0.7,4.6-0.6c-0.1,0.2-0.2,0.4-0.3,0.7c0,0,4.1-4.3,9.8-1.9
c0,0,2,0.9,2.3,0.2c0,0,0,0,0-0.1c1.3-0.2,2.6-0.3,3.9-0.3c0.6,0,1.3,0.1,1.9,0.3c0.6,0.2,1.1,0.5,1.5,0.8c0.2,0.2,0.4,0.3,0.6,0.5
c0.2,0.2,0.3,0.4,0.4,0.7c0.3,0.5,0.5,1.1,0.8,1.7c0.5,1.2,0.8,2.5,1.2,3.7c0.2,0.6,0.5,1.3,0.8,1.9c0,0.1,0.1,0.1,0.1,0.2
c-0.6,0-1.1,0-1.6,0.1c-0.5,0.1-1.1,0.3-1.5,0.6c-0.5,0.3-0.9,0.6-1.3,1c0.4-0.3,0.9-0.6,1.4-0.8c0.5-0.2,1-0.3,1.5-0.4
c0.8-0.1,1.6,0.1,2.3,0.3c0.1,0.1,0.1,0.1,0.2,0.1c0,0,0,0,0,0c0.2,0.1,0.3,0.2,0.5,0.3c1.2,0.7,2.4,1.2,3.6,1.8
c1.6,0.8,3.1,1.7,4.5,2.8c-1.6-0.4-3.3-0.5-5-0.3c-1.9,0.2-3.8,0.7-5.4,1.9c-0.8,0.6-1.5,1.3-1.9,2.2c-0.2,0.5-0.3,1-0.2,1.5
c0.1,0.5,0.2,1,0.5,1.5c0.5,0.9,1.2,1.6,1.9,2.2c0.7,0.6,1.5,1.2,2.4,1.7c0.8,0.5,1.7,1,2.7,1.3c0.5,0.2,1,0.3,1.5,0.3
c0.3,0,0.5,0,0.8,0c0.1,0,0.3,0,0.4,0c0.1,0,0.2,0,0.3-0.1l0,0c0.6-0.1,1-0.2,1.5-0.3c0,0,0,0,0.1,0c-0.4,0.6-0.8,1.2-1.4,1.7
c-1.2,1.2-2.9,2.1-4.7,2.3c-3.6,0.5-7.3,0.1-10.8-0.8c-3.5-0.9-6.9-2.4-10.2-4.1c-1.6-0.9-3.2-1.8-4.7-2.8c-0.8-0.5-1.5-1-2.2-1.6
c-0.3-0.3-0.9-0.5-1-0.9c-0.2-0.5,0.7-0.6,1-0.8l0-0.1c-0.5-0.3-1.1-0.3-1.6-0.3c-0.1,0-0.1,0-0.2,0c0,0,0,0,0,0l0,0
c-0.5,0.1-1,0.2-1.4,0.5c-0.5,0.3-0.9,0.8-1.1,1.4c-0.2,0.6-0.2,1.2,0,1.7l0.2,0c0.2,0,0.3-0.5,0.9-0.6c1.6-0.5,1.9,0,2.5,0.3
c0.8,0.4,1.7,0.8,2.5,1.2c1.6,0.9,3.3,1.7,5,2.5c3.4,1.5,6.8,2.8,10.4,3.8c3.6,0.9,7.3,1.5,11,1.1c1.9-0.2,3.7-1,5.3-2
c1.6-1.1,3-2.6,4.2-4.2c0,0,0.2-0.4,0.4-0.6c0.7-0.7,1.4-1.6,1.8-2.6c0.2-0.5,0.4-1,0.5-1.5c0.2-0.6,0.1-1.3-0.2-1.9
c-0.5-1.1-1.4-1.8-2.3-2.3c-0.4-0.2-0.8-0.4-1.2-0.6c-0.9-0.8-2-1.5-3-2.2c-0.8-0.5-1.6-0.9-2.4-1.4c0-0.3-0.1-0.7-0.1-1
c1.9,1.2,3.8,2.4,5.7,3.6l0,0.1c0,0,0,0,0,0c0.3,0.2,0.6,0.4,0.9,0.6c1.2,0.7,2.2,1.6,3.1,2.6c0.5,0.5,0.9,1,1.3,1.5
c0.2,0.3,0.4,0.5,0.6,0.8c0,0.1,0.1,0.1,0.1,0.2c-0.2,0.5-0.5,1-0.8,1.5c-0.4,0.7-0.8,1.3-1.2,2c-0.9,1.3-1.8,2.5-2.8,3.7
c-1,1.2-2.2,2.2-3.4,3.2c-1.2,1-2.5,1.9-3.8,2.7c-2.7,1.7-5.6,3-8.5,4.5c-0.9,0.4-1.8,0.9-2.6,1.4l0,0c0,0,0,0.1,0,0.1
c-0.6,0.3-1.1,0.7-1.6,1.1c-0.7,0.5-1.3,1.1-1.8,1.8c-0.5,0.7-0.9,1.5-1.1,2.3c1-1.3,2.2-2.2,3.6-2.9c0,0.2-0.1,0.4-0.1,0.6
c0,0.6,0.1,1.2,0.4,1.7l0.1,0.1l0,0.1l0,0.1l0.1,0.1c0.1,0.2,0.2,0.3,0.3,0.4c0.2,0.2,0.5,0.4,0.7,0.5c1,0.5,1.8,0.6,2.7,0.8
c0.9,0.2,1.7,0.4,2.5,0.6c0.4,0.1,0.8,0.2,1.2,0.4l0.3,0.1l0.1,0.1l0.1,0.1c0.2,0.1,0.3,0.2,0.5,0.3c0.7,0.4,1.3,1,1.9,1.5
c1.3,1.2,2.4,2.5,3.6,3.7c1.2,1.3,2.4,2.5,3.8,3.7c0.7,0.6,1.4,1.2,2.1,1.7c0.7,0.5,1.5,1,2.2,1.5c1.5,0.9,3,1.8,4.6,2.6
c1.6,0.8,3.1,1.6,4.8,2.4l0.7-1.8c0,0,0,0-0.1,0c0.1-0.2,0.2-0.4,0.3-0.6c0.1-0.3,0.2-0.6,0.3-0.9l0.3-0.9c0.4-1.2,0.8-2.3,1.2-3.5
c0.5-1.1,1-2.2,1.7-3.3c0.7-1.1,1.4-2.2,2-3.2c1.3-2.2,2.5-4.4,3.6-6.7c0.6-1.1,1.1-2.3,1.6-3.5c0.3-0.6,0.5-1.2,0.7-1.8
c0-0.2,0.1-0.3,0.1-0.5c0-0.2,0-0.4-0.1-0.6c-0.1-0.4-0.5-0.7-0.8-0.9c-0.6-0.3-1.2-0.5-1.6-0.9c-0.4-0.3-0.8-0.8-1-1.3
c-0.5-1-0.7-2.2-0.8-3.5c-0.1-0.6-0.1-1.3-0.2-1.9c-0.1-0.7-0.2-1.3-0.4-1.9c-0.4-1.3-1.1-2.5-2.1-3.4c-0.5-0.5-1.1-0.8-1.7-1.1
c-0.3-0.1-0.5-0.3-0.6-0.5c-0.1-0.1-0.1-0.1-0.1-0.2c0-0.1,0-0.1,0-0.2c0-0.1,0-0.1,0-0.2c0.1-0.4,0.7-0.7,1.2-0.8
c0.6-0.1,1.2-0.1,1.7,0c0.5,0.1,1,0.5,1.5,0.9c0.5,0.4,0.9,0.8,1.3,1.3c0.8,0.9,1.4,2,1.6,3.1l0,0.2c0,0,0.2,0.2,0.2,0.2
c0.1,0.1,0.1,0.1,0.2,0.1c0.1,0,0.1,0,0.2,0.1c0.1,0,0.2,0,0.3,0c0.2,0,0.3,0,0.5-0.1c0.3-0.1,0.5-0.2,0.7-0.3
c0.3-0.3,0.6-0.5,0.8-0.8c0.2-0.3,0.4-0.5,0.6-0.8c0.1,0.1,0.3,0.1,0.4,0.2c0.5,0.2,1.2,0.1,1.6-0.2c0.3-0.2,0.5-0.4,0.7-0.7
c0,0,0,0,0,0c0.1,0.3,0.3,0.6,0.5,1c0.3,0.3,0.7,0.7,1.2,0.8c0.1,0,0.2,0,0.3,0c0.1,0,0.1,0,0.2,0c0.1,0,0.2,0,0.3,0
c0.2,0,0.4-0.1,0.6-0.2c0.3-0.2,0.6-0.4,0.9-0.6c0.5-0.5,0.8-1.1,1-1.7c0.4-1.2,0.3-2.5-0.3-3.5c-0.2,1.1-0.5,2.1-1,2.9
c-0.3,0.4-0.6,0.7-0.9,0.9c-0.2,0.1-0.3,0.2-0.5,0.3c-0.1,0-0.1,0-0.2,0c0,0,0,0,0,0c0,0-0.1,0-0.1-0.1c-0.1-0.1-0.2-0.3-0.2-0.5
c-0.1-0.4-0.2-0.9-0.2-1.3c0-0.3,0-0.5,0-0.8l0-0.8c0-0.5,0-1,0.1-1.5c0.1-1,0.4-1.9,0.9-2.3c0.2-0.2,0.5-0.3,0.9-0.3
c0.4,0,0.8,0.1,1.3,0.3c0.9,0.3,1.6,0.9,2.1,1.6c0.5,0.7,0.8,1.6,0.9,2.5c0,0.1-0.1,0.3-0.2,0.4c-0.4,0.9-0.8,1.9-1.4,2.7
c-0.5,0.8-1.2,1.6-2,2.2c-0.4,0.3-0.8,0.6-1.2,0.8c-0.4,0.2-1,0.4-1.5,0.6c-2,1-3.4,3-3.5,5.2c0.8-1.9,2.1-3.6,3.9-4.5
c0.2-0.1,0.4-0.2,0.7-0.3c0.2-0.1,0.5-0.2,0.8-0.3c0.5-0.2,1-0.5,1.4-0.8c0.9-0.7,1.6-1.5,2.2-2.4c0.6-0.9,1.1-1.9,1.5-2.8
c0.1-0.2,0.1-0.3,0.2-0.5l0.1,0c0-0.1,0-0.2,0-0.3c0.1-0.3,0.2-0.5,0.3-0.8c0.1-0.3,0.2-0.5,0.2-0.8c0.1-0.3,0.1-0.5,0.2-0.7
c0.3-0.9,0.7-1.8,1.3-2.6c0.6-0.8,1.3-1.4,2.2-1.7c0.2-0.1,0.4-0.1,0.6-0.1c0.2,0,0.2,0,0.3,0c0.1,0,0.2,0,0.2,0
c0.1,0,0.2,0.1,0.3,0.2c0.1,0.1,0.2,0.3,0.2,0.5C269.9,52.4,269.9,52.9,269.8,53.4L269.8,53.4z M221.2,109.1c-0.4,0.5-1,1-1.7,1.4
c-1.3,0.8-2.9,1.4-4.4,1.8c-3.2,0.9-6.5,1.3-9.8,1.6c-3.3,0.3-6.7,0.3-10.1,0.2c-3.4-0.1-6.7-0.3-10.1-0.6
c-6.7-0.7-13.4-1.9-19.8-3.9c-3.2-1-6.4-2.1-9.3-3.7c-1.5-0.8-2.9-1.6-4.1-2.7c-0.6-0.5-1.1-1.1-1.5-1.8c-0.4-0.6-0.6-1.3-0.7-2
c-0.1-0.7,0.1-1.5,0.5-2.2c0.4-0.7,0.9-0.6,0.7-0.2c-0.2,0.4-0.3,0.8-0.3,1.2c0,0.9,0.5,1.6,1,2.2c0.5,0.6,1.1,1.1,1.8,1.6
c1.3,0.9,2.7,1.6,4.1,2.3c2.9,1.3,5.8,2.2,8.9,3.1c6,1.6,12.2,2.7,18.4,3.5c6.2,0.7,12.5,1.1,18.7,0.9c3.1-0.1,6.3-0.4,9.4-1
c1.5-0.3,3.1-0.8,4.6-1.4c0.7-0.3,1.5-0.8,2.1-1.3c0.3-0.3,0.6-0.6,0.9-1.1c0.2-0.4,0.4-0.9,0.4-1.4v0c0-0.3-0.1-0.6-0.1-0.8
c0.7,0.8,1.1,1.8,1.2,2.7C221.8,108,221.6,108.6,221.2,109.1L221.2,109.1z M204.9,121.8c-0.4,0-1.3,0-1.9-0.1
c-0.5-0.1-1.1-0.7-1.1-1.2c0-0.4,0.4-1.3,1.6-1.4c0.3-0.1,2.3-0.3,3.3,0.1c0.8,0.3,0.9,0.7,1,1
C207.9,121.3,206.5,121.7,204.9,121.8L204.9,121.8z M197.7,122.9c-2.2,0-4-0.4-4-1.8c0-0.4,0.4-1.1,1.9-1.6c1.1-0.2,2.6-0.2,3.6,0
c1.3,0.3,1.8,1,1.9,1.3c0.1,0.6-0.1,1.1-0.7,1.5C199.6,122.8,198.8,122.9,197.7,122.9L197.7,122.9z M187.7,122.9
c-0.5,0-0.9,0-1.4,0c-3-0.1-5.5-0.7-5.4-2.4c0-0.5,0.9-1.3,2.1-1.8c1.1,0.1,2.2,0.2,3.3,0.3c1.3,0.1,2.7,0.2,4,0.3
c0.8,0.5,1.4,1.1,1.3,1.6C191.4,122.5,189.9,122.9,187.7,122.9L187.7,122.9z M176.3,120.8c-0.4,0-0.9,0-1.4-0.1
c-1.9-0.2-3.6-0.6-3.9-1.9c-0.2-1.4,0.7-1.7,1.1-1.8c2,0.4,4.1,0.7,6.3,1c0.3,0.4,0.4,0.7,0.4,1
C178.7,120.4,177.7,120.8,176.3,120.8L176.3,120.8L176.3,120.8z M169.1,118c-0.3,0.2-0.7,0.3-1.2,0.3c-0.6,0-1.3-0.1-2-0.3
c-1.4-0.4-2.5-0.7-2.7-1.6c-0.1-0.2-0.1-0.5,0-0.8c0-0.2,0.2-0.3,0.3-0.5c1.2,0.3,2.5,0.6,3.7,0.9c0.7,0.2,1.5,0.3,2.3,0.5
c0,0.1,0.1,0.1,0.1,0.2C169.6,117.5,169.4,117.8,169.1,118L169.1,118z M151.9,96.5c0.6-0.5,1.2-0.9,1.9-1.2c1.4-0.6,2.9-1,4.4-1.4
c3-0.6,6.1-0.9,9.2-1.1c6.2-0.3,12.4,0,18.6,0.7c6.2,0.6,12.3,1.6,18.4,3.2c1.5,0.4,3,0.8,4.5,1.3c0.5,0.2,1.1,0.4,1.6,0.6
c-0.5-0.2-1.1-0.4-1.6-0.6c-0.5-0.2-1-0.3-1.4-0.5c0.4,0.1,0.8,0.2,1.2,0.3c0.9,0.3,1.8,0.6,2.7,1c-0.2-0.1-0.5-0.2-0.7-0.3
c0.5,0.2,1,0.4,1.5,0.6c0,0,0,0,0,0c0.4,0.2,0.7,0.3,1.1,0.5c1.4,0.7,2.7,1.5,3.9,2.5c0.6,0.5,1.1,1,1.6,1.6
c0.4,0.6,0.7,1.2,0.7,1.7c0,0.6-0.3,1.1-0.8,1.5c-0.5,0.4-1.1,0.8-1.8,1.1c-1.4,0.6-2.8,1-4.3,1.3c-3,0.6-6.1,1-9.2,1.1
c-6.2,0.4-12.4,0.1-18.6-0.5c-6.2-0.6-12.3-1.6-18.3-3.2c-3-0.8-6-1.7-8.8-2.9c-1.4-0.6-2.8-1.3-4.1-2.2c-0.6-0.4-1.2-0.9-1.7-1.5
c-0.5-0.6-0.9-1.2-0.9-1.9C150.9,97.6,151.3,97,151.9,96.5L151.9,96.5L151.9,96.5z M184.2,88.1c0-0.5,0.2-0.9,0.3-1.3
c0.4-0.8,0.9-1.6,1.6-2.2c0.7-0.6,1.5-1.1,2.3-1.5c0.9-0.4,1.8-0.6,2.8-0.8c0.8-0.2,1.7-0.4,2.5-0.7c-0.6,0.8-1.1,1.6-1.2,2.6
c-0.1,0.7,0,1.4,0.2,2.1c0.1,0.3,0.3,0.6,0.5,0.9c0.2,0.3,0.3,0.6,0.5,0.9c0.7,1.2,1.5,2.2,2.1,3.4c0.4,0.9,0.7,1.5,0.9,2.2
c-3.3-0.6-6.7-1-10-1.3c-0.8-0.1-1.5-0.1-2.3-0.2c0-0.1-0.1-0.3-0.1-0.3c0.2-1.5,1.6-1.9,2.1-2c1.5-0.4,2.9-0.2,4.2-0.1
c0.1,0,0.2-0.2,0-0.2c-1.2-0.3-2.4-0.5-3.6-0.8c-0.9-0.2-2.1-0.4-3-0.2C184.2,88.4,184.2,88.2,184.2,88.1L184.2,88.1z M183.5,28.7
c-0.2-0.5-0.5-0.9-0.7-1.4c0,0,0-0.1,0-0.1c0.3-0.1,0.7-0.1,1-0.2c1.1-0.3,2.1-0.7,3-1.4c0.9-0.7,1.6-1.5,2-2.6
c-1.5,1.5-3.4,2.2-5.3,2.5c-1.9,0.2-3.9,0.1-5.6-0.6c-0.9-0.4-1.6-0.9-2.3-1.6c-0.7-0.7-1.2-1.4-1.7-2.3c-0.4-0.9-0.7-1.8-0.9-2.8
c-0.2-1-0.2-1.9-0.1-2.9c0.2-2,1.1-3.9,2.4-5.4c0.7-0.7,1.5-1.4,2.3-1.9c0.9-0.5,1.9-0.8,2.8-1.1c2-0.5,4.1-0.5,6.1,0.1
c2,0.6,3.8,1.7,5.3,3.1c-0.5-0.7-1.2-1.3-1.9-1.9c0.3-1.2,0.9-2.5,1.7-3.4c0.8-1,1.9-1.8,3.2-2.3c0.6-0.3,1.2-0.4,1.9-0.6
c0.7-0.1,1.3-0.3,2-0.3c1.3-0.1,2.7-0.1,4,0.2c2.6,0.5,4.9,1.9,6.8,3.8c0.9,0.9,1.7,2,2.5,3.1c0.6,1,1.2,2.1,1.6,3.2
c-0.5,0.1-0.9,0.2-1.4,0.3c1.5,0.1,3,0.1,4.4,0.3c1.5,0.1,2.9,0.3,4.4,0.5c1.4,0.3,2.9,0.6,4.2,1.1c1.4,0.5,2.7,1.1,3.9,1.8
c1.2,0.8,2.3,1.7,3.2,2.7c0.9,1.1,1.5,2.3,1.9,3.6c0.4,1.3,0.5,2.7,0.4,4c-0.1,1.3-0.5,2.7-1,3.9c-0.6,1.2-1.3,2.3-2.3,3.2
c-0.2,0.2-0.5,0.4-0.8,0.6c-0.1,0.1-0.3,0.2-0.4,0.2c-0.2,0.1-0.3,0.1-0.4,0.2c-0.6,0.3-1.2,0.5-1.9,0.7c-1.3,0.3-2.7,0.5-4,0.4
c-1.4-0.1-2.7-0.5-4-1.1c-1.3-0.6-2.5-1.4-3.5-2.4c-0.5-0.5-1-1-1.4-1.6c-0.4-0.6-0.8-1.3-1.3-1.8c-1-1.2-2-2.2-3.2-3.2
c-1.2-0.9-2.4-1.8-3.8-2.4c1.9,1.2,3.6,2.8,5.1,4.5c-0.6,0.6-1.1,1.3-1.5,1.9c-0.5,0.7-0.9,1.5-1.2,2.3c-0.3,0.8-0.6,1.6-0.8,2.4
c-0.1,0.4-0.2,0.8-0.3,1.3c0,0.2-0.1,0.4-0.1,0.5c-0.1,0-0.2,0-0.2,0c-0.7,0-1.4,0-2.1,0.1c-1.3,0.2-2.6,0.5-3.9,0.9
c0.2-0.3,0.6-1.5-1.2-2.8c-1.8-1.2-7.3-2.7-10.3,3.3c-1.1-0.5-2.3-0.7-3.5-0.6c-0.2-0.8-0.4-1.6-0.6-2.3c-0.1-0.5-0.3-1-0.5-1.5
c-0.2-0.5-0.3-1-0.5-1.5C184.4,30.6,183.9,29.7,183.5,28.7L183.5,28.7L183.5,28.7z M215.7,45.1C215.7,45.1,215.7,45.1,215.7,45.1
c0.5,0,0.9,0,1.3,0.1c0.2,0.5,0.4,1,0.5,1.5c0.2,0.8,0.4,1.7,0.5,2.5c-0.1,0-0.1-0.1-0.2-0.1c-1-0.5-2-1-3-1.5
C215.9,47.1,215.7,45.6,215.7,45.1L215.7,45.1z M213.7,46.6c0,0-0.1,0-0.1,0c-0.3-0.4-0.5-0.8-0.6-1.3c0.1,0,0.2,0,0.2-0.1
c0.3-0.1,0.5-0.1,0.8-0.1c0,0,0.1,0,0.1,0C214.3,45.6,214.4,46.4,213.7,46.6L213.7,46.6L213.7,46.6z M214,43.7
c-0.3,0-0.6-0.1-1-0.1c-0.2,0-0.4,0-0.6,0c-0.2-0.8-0.3-1.7-0.5-2.6c0.2,0,0.5,0,0.7,0.1c0.5,0.1,1,0.3,1.4,0.5
c0.9,0.5,1.6,1.3,2.1,2.2c0.1,0.2,0.2,0.4,0.4,0.7c-0.3-0.1-0.5-0.2-0.8-0.3C215.3,43.9,214.7,43.8,214,43.7L214,43.7z M216.1,40.7
c1.4,0.8,2.7,0.1,3.1-0.2c0,0,0,0,0,0c0,0-0.8,0.6-1.8,0.6c-0.2,0-0.4,0-0.7-0.1c0,0,0,0,0,0c0,0,0.8,1.3,2.1,2.5
c0.7,0.6,1.4,1.2,2.2,1.7c0.5,0.3,1,0.5,1.5,0.6c0.4,0.1,0.8,0.4,1.1,0.7c0.6,0.6,1,1.5,1.1,2.3c0,0.6-0.2,1-0.6,1.3
c0.3-1.2-0.1-2.7-2.3-3.4c-1.5-0.5-3.5-2.3-4.8-3.4c0,0,0-0.1-0.1-0.1c-0.6-1-1.4-1.9-2.5-2.5c-0.5-0.3-1.1-0.5-1.7-0.6
c-0.4-0.1-0.8-0.1-1.1-0.1c-0.1-0.2-0.1-0.4-0.2-0.6C214,38.8,214.7,39.9,216.1,40.7L216.1,40.7z M251.4,60.2c0,0.1,0,0.2,0.1,0.3
c0,0.1,0,0.1,0,0.2c0,0.1-0.1,0.5-0.7,1.1c-0.1,0.1-0.2,0.2-0.3,0.3c-1-2-2.8-3.7-4.2-4.6c1.7-0.5,3.2-1.3,4.1-1.9
c0.1,0.1,0.2,0.2,0.2,0.4c0.1,0.2,0.2,0.4,0.3,0.6c0.1,0.2,0.2,0.4,0.3,0.6l0,0c0,0.4,0,0.8,0,1.2C251.3,59,251.3,59.6,251.4,60.2
L251.4,60.2z M242.2,54.6c0.2-0.3,0.5-0.6,0.9-0.9c0.3-0.3,0.7-0.5,1-0.7l1.2-0.5l4.7-2.2c0.3-0.1,0.6-0.1,0.9,0
c0.3,0.1,0.6,0.3,0.8,0.5c0.2,0.2,0.4,0.5,0.5,0.8c0.1,0.2,0.1,0.4,0.1,0.6c0,0.1-0.1,0.2-0.1,0.3c-0.1,0.4-0.2,0.8-0.3,1.1
c0,0.1-0.1,0.2-0.1,0.4c-0.2-0.2-0.4-0.4-0.6-0.6l-0.6-0.4l-0.6,0.4c-1.2,1-2.7,1.9-4.3,2.5c-0.8,0.3-1.6,0.4-2.3,0.4
c-0.1,0-0.2,0-0.3,0c-0.1,0-0.2,0-0.3-0.1c-0.2,0-0.4-0.1-0.5-0.2c-0.3-0.2-0.5-0.3-0.5-0.6C241.8,55.3,242,54.9,242.2,54.6
L242.2,54.6L242.2,54.6z M252.9,58.5c0-0.7,0.1-1.4,0.3-2.1c0.1-0.7,0.3-1.4,0.5-2.1c0.1-0.3,0.2-0.7,0.3-1
c0.1-0.3,0.2-0.6,0.4-0.7c0.1-0.2,0.3-0.3,0.4-0.3c0.1,0,0.3,0,0.5,0.1c0.2,0.1,0.5,0.2,0.8,0.4c0,0,0.1,0.1,0.2,0.1
c-0.4,0.4-0.6,0.9-0.8,1.3c-0.2,0.6-0.3,1.2-0.4,1.8c-0.1,0.6-0.1,1.2-0.1,1.7c0,0.3,0,0.6,0,0.8c0,0.2,0,0.6,0,0.9
c0,0.3,0.1,0.6,0.1,0.9c0,0-0.1,0.1-0.1,0.1c-0.3,0.2-0.6,0.3-0.9,0.4c-0.3,0.1-0.4,0-0.6-0.1c-0.1-0.1-0.1-0.1-0.2-0.1
c0-0.1-0.1-0.2-0.1-0.3C252.9,59.9,252.9,59.2,252.9,58.5L252.9,58.5z M162.4,45.2L162.4,45.2L162.4,45.2L162.4,45.2L162.4,45.2z
M165.9,29.2c-0.3-0.4-0.6-0.8-0.9-1.3c0-0.3-0.1-0.5-0.2-0.7c1,0,2,0.2,2.9,0.4c1.2,0.3,2.3,0.7,3.3,1.3c1,0.6,2,1.3,2.8,2.1
c0.6,0.6,1.1,1.3,1.5,1.9c0,0,0,0,0,0c-0.3,0.1-0.6,0.1-1,0.1c-0.7,0-1.3,0-2-0.1c-1.3-0.2-2.5-0.6-3.7-1.3
C167.7,31.1,166.7,30.2,165.9,29.2L165.9,29.2L165.9,29.2z M154.2,16.8C154.2,16.8,154.2,16.8,154.2,16.8c-0.1,0-0.2-0.1-0.2-0.1
C154.1,16.7,154.1,16.7,154.2,16.8L154.2,16.8L154.2,16.8z M160.9,27.8c-2.3-1.6-4.7-3-7.2-4.2c-3.1-1.4-9.5-3.3-9.5-3.3
c-2.8-5.3-7.5-3.9-9.1-2.7c-0.1,0.1-0.2,0.2-0.3,0.3c-1.4-0.2-2.7-0.3-4.1-0.3c-1.6,0-3.2,0-4.7,0.1c-2.9,0.3-5.8,0.8-8.6,2
c0.5-2.5,1.3-5,2.5-7.3c1.3-2.5,3-4.8,5.1-6.5c2.1-1.8,4.6-3.1,7.3-3.7c2.7-0.7,5.5-0.8,8.3-0.5c2.8,0.3,5.5,0.8,8.1,1.9
c2.6,1,5,2.5,7,4.3c2,1.8,3.8,4,5,6.5c0.6,1.2,1.2,2.5,1.6,3.8c0.2,0.6,0.4,1.3,0.5,1.9c-0.2-0.1-0.5-0.3-0.7-0.4
c-0.9-0.5-1.8-0.9-2.7-1.2c-1.8-0.7-3.6-1.3-5.5-1.7c1.1,0.9,2.2,1.8,3.2,2.8c1,1,1.9,2.1,2.6,3.2c0.8,1.1,1.4,2.3,1.7,3.5
c0.1,0.4,0.2,0.8,0.2,1.1L160.9,27.8L160.9,27.8z M119.2,23.9c0.7,0.3,1.3,0.8,1.5,1.6c0.2,0.5,0.2,1,0.2,1.6
c-0.1-0.2-0.2-0.4-0.3-0.6c-0.2-0.2-0.4-0.4-0.6-0.5c-0.2-0.1-0.5-0.2-0.8-0.2l0,0c0,0,0,0,0,0c-0.9-0.1-1.9,0.1-2.6,0.7
c-0.8,0.6-1.3,1.4-1.7,2.2c-0.1,0.2-0.2,0.4-0.2,0.5c-1.5,0.9-5.7,3.7-2.6,5.3c0,0-0.1,0-0.1,0c-0.6,0.2-1.1,0.4-1.7,0.6
c-2.7-1.2-2.6-4.5,1.1-5.8c2.5-0.9,3.9-2.4,4.4-3.1C116.8,25.9,118.2,25.1,119.2,23.9L119.2,23.9L119.2,23.9z M120.4,28.7
C120.4,28.8,120.4,28.8,120.4,28.7c-1.4,0.1-2.8,0.4-4.1,0.8c-0.4,0.1-0.7,0.2-1.1,0.4c0.1-0.3,0.2-0.6,0.3-1
c0.3-0.8,0.7-1.5,1.3-2.1c0.6-0.5,1.5-0.8,2.3-0.8l0,0h0c0.2,0,0.5,0.1,0.7,0.1c0.2,0.1,0.4,0.2,0.6,0.4c0.2,0.2,0.3,0.4,0.4,0.6
C120.8,27.8,120.6,28.3,120.4,28.7L120.4,28.7z M118.6,31.1c-0.3-0.3-0.2-1-0.1-1.3c0.4,0,0.8,0,1.3,0
C119.4,30.2,119,30.7,118.6,31.1L118.6,31.1z M115.2,33.3c-0.1,0.1-0.3,0.1-0.4,0.2c0-0.7,0-1.4,0.1-2.1c0-0.4,0.1-0.8,0.2-1.1
c0.4-0.1,0.9-0.2,1.3-0.3c0.2,0,0.3,0,0.5-0.1c-0.1,0.5-0.1,1.5,0.4,2.1C116.7,32.5,116,32.9,115.2,33.3L115.2,33.3z M118.9,92.1
c0.1,0.4,1.6,1.2,2.3,5l0.6,2.7c0.7,3.1,1.4,6.3,2,9.4l0,0c-1.9,1.5-4,2.9-6.3,3.9c-1.1,0.5-2.2,1-3.4,1.4
c-0.8,0.3-1.7,0.6-2.5,0.8c0.1-0.6,0.2-1.1,0.4-1.7c0.2-0.7,0.5-1.5,0.8-2.2c0.2-0.4,0.3-0.6,0.3-0.6l0.2-0.3l-0.3,0.2
c-0.7,0.3-1.3,0.8-1.9,1.3c-0.6,0.5-1.1,1-1.7,1.5c-0.8,0.7-1.5,1.5-2.2,2.3c0-0.1,0-0.1,0-0.2l-0.3-1.3l-0.7-2.7l-1.4-5.3
c-1-3.6-2.3-7.1-3.7-10.5c-1.5-3.4-3.2-6.7-5.1-9.9l-0.3-0.6c-0.1-0.2-0.2-0.4-0.4-0.6c-0.3-0.4-0.8-0.7-1.2-0.9
c-0.9-0.5-1.8-0.7-2.7-1l-1.3-0.3c-0.4-0.1-0.9-0.2-1.2-0.4c-0.9-0.4-1.7-0.7-2.6-1c-1.8-0.6-3.5-1.2-5.4-1.5
c-0.5-0.1-1-0.1-1.4-0.1c-0.5,0-0.9,0-1.4,0c-0.9,0-1.9,0.1-2.8,0.2c-0.5,0.1-0.9,0.1-1.4,0.2c-0.2,0-0.4,0-0.6,0l-0.1,0
c0,0,0,0-0.1,0c-0.1,0,0,0-0.1,0c0,0-0.2-0.2-0.1-0.5c0-0.3,0.2-0.5,0.5-0.8c0.5-0.5,1.3-0.7,2.1-0.9c0.7-0.1,1.4-0.2,2.1-0.3
l3.2,0.1l1.8,0.1c0.3,0,0.6,0.1,0.8,0.1c0.8,0.2,1.7,0.4,2.7,0.6c0.9,0.2,1.9,0.3,2.9,0.3c1,0,1.9,0,2.9-0.2
c0.5-0.1,0.9-0.2,1.3-0.2c0.4,0,0.8,0,1.2,0c0.7,0.1,1.4,0.4,1.8,0.9c0.2,0.2,0.4,0.5,0.6,0.9c0.1,0.2,0.2,0.3,0.2,0.5
c0,0.1,0.1,0.2,0.1,0.3c0,0.1,0,0.1,0,0.2c0,0.1,0,0.1,0,0.2c0,0.1,0,0.2,0,0.3c0,0.2,0.1,0.3,0.1,0.5c0.1,0.3,0.2,0.6,0.3,0.9
c0.2,0.6,0.4,1.1,0.7,1.7c0.5,1.1,1.1,2,1.8,3c1.3,1.9,2.8,3.6,4.2,5.3c1.4,1.7,2.7,3.5,3.9,5.4c0.6,0.9,1.1,1.9,1.6,2.9
c0.2,0.5,0.5,1,0.7,1.5c0.1,0.3,0.2,0.5,0.3,0.8c0.1,0.2,0.2,0.5,0.2,0.7v0l0.2,1.8l1.2-1.3C112.9,103.7,115.9,99.6,118.9,92.1
L118.9,92.1z M64.8,75.7l-0.9-4.8c3.7,0.6,7.3,1,11,1.4c3.9,0.4,7.7,0.7,11.6,0.9c7.5,0.4,15,0.5,22.5,0.2l-1.1,3l-12.6-0.2
c-0.1,0-0.1,0-0.2,0L91.3,76c0,0,0,0,0,0c0,0-0.1,0-0.1,0c-0.1,0-0.2,0-0.3,0l-7-0.1c-0.1,0-0.2,0-0.4-0.1c-1-0.1-1.9-0.2-2.9-0.2
c-0.8,0-1.6,0-2.4,0c-0.1,0-0.2,0-0.3,0c-0.1,0-0.1,0-0.2,0c-0.1,0-0.1,0-0.2,0c-0.3,0-0.5,0-0.8,0.1L64.8,75.7L64.8,75.7z
M63.1,70.3c-1.1,0-2.2-0.1-3.2-0.5c-0.5-0.2-1-0.6-1.2-1.1c-0.3-0.5-0.3-1.1-0.2-1.6c0.1-0.6,0.3-1.1,0.5-1.6
c0.3-0.5,0.7-0.8,1.2-1c1-0.3,2.2,0.2,3.1,0.7l1.2,0.8l-0.5-1.5c-0.2-0.6-0.3-1.4-0.2-2.1c0.1-0.6,0.5-1.1,1.1-1.4
c0.1-0.1,0.3-0.1,0.4-0.2l0.1,0l0.1,0c0.1,0,0.1,0,0.2,0c0.3,0,0.6,0,0.8,0.1c0.5,0.2,0.9,0.8,1.2,1.4c0.6,1.3,0.9,2.8,1,4.3
c0.1,1.4,0,2.8-0.1,4.2C67,70.6,63.1,70.3,63.1,70.3L63.1,70.3z M69,55.2c0.3-0.1,0.7-0.1,1-0.1c2.5,0,5.9,1.4,7.9,3.5
c0.1,0.1,0.2,0.2,0.4,0.4c-0.1,0.2-0.2,0.3-0.3,0.5c-0.3,0.8-0.1,1.7,0.2,2.4c0.2,0.4,0.4,0.8,0.7,1.2c-0.3,0.3-1,0.6-1.7,0.6
c-4.7,0.2-8-1.9-9.5-4.5C66,56.3,68.1,55.4,69,55.2L69,55.2L69,55.2z M78.9,59.8c0.1-0.5,0.6-1,1.2-1.2c0.6-0.2,1.3-0.3,2-0.3
c2.7,0.2,5.4,1.4,7.4,3.4c0.5,0.5,0.9,1.1,1.1,1.7c0.2,0.6,0.3,1.3,0.1,1.7c-0.2,0.5-0.6,0.8-1.2,1.1c-0.1,0.1-0.3,0.1-0.4,0.1
c-0.2,0-0.3,0.1-0.5,0.1c-0.3,0-0.7,0-1,0c-1.3-0.1-2.6-0.6-3.8-1.2c-1.2-0.6-2.3-1.4-3.2-2.3c-0.5-0.5-0.9-0.9-1.2-1.4
C79,60.9,78.7,60.4,78.9,59.8L78.9,59.8z M91.1,66.1c0.2-0.2,0.3-0.4,0.4-0.7c0.1-0.4,0.1-0.8,0-1.2c0.7,1.1,1.5,2,2.4,3
c1,1.1,2.2,2.1,3.4,3c1.2,0.9,2.6,1.7,4.1,2.2c0.1,0,0.1,0.1,0.2,0.1c-3.6,0-7.2,0-10.8-0.1L91.1,66.1L91.1,66.1z M94.4,62.1
C95,62,95.6,62,96.2,62c1.8,0.1,3.3,1,4.5,2.3c0,0,0,0,0.1,0.1c-0.9-0.1-1.7-0.1-2.5,0.2c-1.3,0.4-2.5,1.3-3.1,2.5
c0.3-0.6,0.8-1.1,1.3-1.5c0.5-0.4,1.2-0.7,1.8-0.8c1-0.2,2-0.2,2.9,0.1c0.7,0.8,1.5,1.6,2.2,2.4c-0.8,0-1.7,0-2.5,0.3
c-0.7,0.2-1.3,0.5-1.8,0.9c-0.4,0.3-0.7,0.7-1,1.1c-0.1,0-0.1-0.1-0.2-0.1c-1.2-0.7-2.4-1.6-3.5-2.6c-1.1-0.9-2.1-2-3-3.1
C92,63.2,93.1,62.5,94.4,62.1L94.4,62.1L94.4,62.1z M104.5,68.3c0.7,0.7,1.4,1.3,2.2,1.9c0.4,0.3,0.9,0.5,1.4,0.7
c-0.2,0.1-0.3,0.2-0.5,0.2c-0.5,0.2-1.1,0.2-1.7,0.3c0,0-0.1,0-0.1,0c-0.2,0-0.4,0-0.6,0l0,0c-1.1,0-2.2-0.2-3.3-0.5
c-1.3-0.4-2.5-0.9-3.7-1.6c0.3-0.4,0.6-0.7,1-1c0.6-0.4,1.2-0.6,1.8-0.7c0.9-0.2,1.9-0.2,2.8-0.1C104.1,67.9,104.3,68.1,104.5,68.3
L104.5,68.3z M271.3,51.2c-0.4-0.8-1.2-1.3-2.1-1.3c-0.1,0-0.2,0-0.4,0c-2.7,0.3-4.4,3-5.1,4.9c-0.7-1.1-1.8-2.2-3.7-2.8
c-0.1,0-0.2,0-0.2-0.1c0,0,0,0,0,0c-0.1,0-0.3-0.1-0.5-0.1c-0.2,0-0.3,0-0.5-0.1c-0.3,0-0.6,0-0.9,0.1c-0.1-0.1-0.3-0.3-0.4-0.3
c-0.6-0.5-1.1-0.8-1.6-0.9c-0.4-0.2-0.9-0.3-1.5-0.1c-0.3,0.1-0.5,0.2-0.7,0.3c-1-1.4-2.2-1.6-2.9-1.6c-0.5,0-0.8,0.1-0.9,0.1
c0,0-0.1,0-0.1,0c0,0-3.6,1.6-5.7,2.6c-1.8,0.7-3.5,2.4-3.3,4c0,0.4,0.2,1,1,1.5c-0.3,0.1-0.5,0.3-0.6,0.5c-0.4,0.5-0.6,1-0.5,1.6
c0.1,0.9,0.8,1.3,1.5,1.7c1.3,0.8,3,1.8,3.3,6.5c0.4,5.3,2.3,6.6,4,7.3c0.3,0.1,0.6,0.2,0.6,0.3c0.1,1.5-4.4,10.3-8.1,15.3
c-0.7,1-1.3,2-1.8,2.9c0,0.1-0.1,0.1-0.1,0.2c-0.7,1.1-1.3,2.3-1.7,3.6c-0.1,0.3-0.2,0.6-0.3,0.9c-0.1,0.3-0.2,0.6-0.2,1
c0,0.2,0,0.3,0,0.5c0,0,0,0.1,0,0.1c-2-0.8-5.7-2.5-9.3-4.9c-2.6-1.7-4.9-4.3-7-6.5c-2.2-2.4-4.1-4.4-5.9-5.2
c-1.4-0.6-2.7-0.9-3.9-1.2c-1.5-0.3-2.9-0.7-3.2-1.3c-0.4-0.8,0.1-2,0.5-2.6c1-0.5,2-0.9,3.1-1.4c0.8-0.4,1.7-0.8,2.7-1.2
c0.2-0.1,0.4-0.2,0.6-0.2c1.5-0.7,3-1.4,4.5-2.2c1.5-0.8,2.9-1.8,4.2-2.8c1.4-1,2.6-2.2,3.7-3.4c1.1-1.2,2.2-2.6,3.1-4
c0.5-0.7,0.9-1.4,1.3-2.2c0.2-0.4,0.4-0.8,0.6-1.1c0.2-0.4,0.3-0.8,0.5-1.2l0.2-0.7l-0.4-0.5c-0.3-0.4-0.5-0.6-0.8-0.9
c-0.3-0.3-0.5-0.5-0.8-0.8c-0.5-0.5-0.9-0.9-1.4-1.3c-1-0.9-2.2-1.9-3.6-2.6c-0.2-0.1-0.4-0.2-0.5-0.3c0.6-0.7,0.8-1.7,0.6-2.8
c-0.3-1.7-1.7-3.7-3.6-3.9c-2-0.2-3.5-1.6-4.4-2.7c0.7-0.2,1.2-0.5,1.3-0.6c0.3-0.2,0.4-0.6,0.3-1c-0.1-0.4-0.4-0.6-0.8-0.7
c-1.4-0.2-1.8-0.6-2.6-1.4c-0.5-0.5-1.1-1.1-2.1-1.8c-1.2-0.8-2.6-1.2-4.2-1.2c-0.3,0-0.6,0-0.9,0c0.3-1.5,1-3.9,2.8-5.9
c0.4,0.5,0.7,1,1,1.6c2,3.3,5.5,5.6,9.3,6.3c0.1,0,0.3,0.1,0.4,0.1c1.6,0.3,3.2,0.2,4.8-0.1c0.8-0.2,1.6-0.4,2.3-0.8
c0.2-0.1,0.4-0.2,0.6-0.3c0.2-0.1,0.4-0.2,0.6-0.3c0.4-0.2,0.7-0.5,1-0.8c1.3-1.1,2.2-2.5,2.9-4c0.7-1.5,1-3.1,1.1-4.7
c0-0.2,0-0.4,0-0.6c0,0,0-0.1,0-0.1c0-5-2.9-9.2-7.8-11.7c-4.7-2.3-9.7-2.8-13.1-2.8c-0.3,0-0.5,0-0.8,0c-0.4-1-1.4-3-3.1-5.1
c-3.1-3.8-7.1-5.8-11.5-5.8c-1.4,0-2.8,0.2-4.3,0.6c-4.5,1.2-6.2,4.3-6.8,6.1c-1.4-0.8-3.4-1.4-5.7-1.4c-1.8,0-3.6,0.4-5.5,1.2
c-4.5,1.9-7.2,6.7-6.5,11.6c0.2,1.1,0.5,2.2,0.9,3.2c0,0.1,0.1,0.2,0.1,0.2c0,0.1,0.1,0.2,0.1,0.3c0,0,0,0,0,0.1c0.5,1,1.2,2,2,2.8
c0,0,0.1,0.1,0.1,0.1c0.1,0.1,0.3,0.2,0.4,0.4c0.1,0.1,0.3,0.2,0.4,0.3c0,0,0.1,0.1,0.1,0.1c1.5,1.1,3.3,1.7,5.4,1.8c0,0,0,0,0,0
c0.8,1,3.2,4.4,3.7,9.2c0,0.2,0,0.3,0,0.5c-0.3,0.1-0.5,0.2-0.8,0.3c-0.1,0-0.2,0.1-0.4,0.2c0,0,0,0,0,0c-0.1,0-0.2,0.1-0.3,0.1
c-0.2,0.1-0.4,0.2-0.6,0.3l-0.3,0.2l-0.3,0.2c-0.1,0.1-0.3,0.2-0.4,0.2c-0.9,0.5-2,0.9-3,1.3c-3.3,1.3-7.1,2.9-6.4,7
c0,0.1,0,0.1,0,0.2c0,0.1,0.6,1.7,2.5,2.5c-0.1,0.1-0.2,0.1-0.3,0.2c-4.6,2.4-7.1,5.3-7.7,8.6c0,0.3,0.1,0.6,0.3,0.8
c0.2,0.2,0.4,0.3,0.6,0.3c0.1,0,0.1,0,0.2,0c0,0,0.8-0.2,1.9-0.3c-0.2,0.1-0.4,0.3-0.6,0.5l-0.7,0.7l0.5,0.6
c0.6,0.7,1.1,1.3,1.7,1.9c0.3,0.3,0.6,0.6,0.8,0.9c1,1.1,2.4,2.5,4.2,3.9c3.9,3.2,10.6,7.3,19.9,9.1c0.3,0.5,0.7,1.8-0.3,2.6
c-0.2,0.2-0.5,0.3-0.8,0.5c0,0,0,0,0,0c-0.8,0.3-1.7,0.5-2.7,0.6c-1.2,0.2-2.5,0.4-3.8,1c-3.2,1.4-4.8,4.1-5,6.2
c-0.1,1.3,0.1,3,0.2,4.2c-1.1-0.1-2.3-0.2-3.4-0.2c-3.9-0.2-7.7-0.3-11.6-0.1c-0.7-0.9-1.8-2.3-2.4-3.1c-2.6-3.6-4.6-6.4-6.1-8.5
c-0.8-1.1-1.5-2.2-2.3-3.4c-0.2-0.2-0.3-0.4-0.5-0.7c-0.2-0.2-0.4-0.4-0.5-0.6c-0.4-0.4-0.7-0.8-1.1-1.2c-0.8-0.7-1.6-1.4-2.6-2
c-0.6-0.3-1.2-0.6-1.8-0.9c-1-0.5-2.1-0.8-3.2-0.8c0,0,0,0,0,0c-3.2-0.2-3.5-1.3-3.6-1.4c-0.3-2.7,4-9.3,5.9-11.9
c0.8-0.3,1.5-0.7,2.2-1c0.8-0.4,1.7-0.8,2.5-1.2c1-0.5,1.9-1.1,2.8-1.6c0.9-0.6,1.8-1.2,2.7-1.8c0.9-0.6,1.8-1.3,2.6-2.1
c0.4-0.4,0.8-0.8,1.2-1.2c0.2-0.2,0.4-0.5,0.6-0.7c0.1-0.1,0.2-0.3,0.3-0.4l0.1-0.2l0.1-0.1l0-0.1c0,0,0,0,0.1-0.1l0.3-0.7
l-0.3-0.7l0,0c-0.1-0.2-0.2-0.3-0.3-0.5l-0.3-0.4c-0.1-0.2-0.3-0.3-0.4-0.5c1.1,0,2-0.4,2.7-1c0.1-0.1,1.6-1.5,1.6-4.1
c0-0.5,0-0.9-0.1-1.4c2,2.2,4.8,2.8,4.8,2.8c-0.4-2.9-1.9-4.7-3.4-5.8c0.8,0.2,1.6,0.4,2.4,0.4c0.8,0.1,1.5,0.1,2.3,0
c0.4,0,0.7-0.1,1.1-0.2c0.4-0.1,0.7-0.2,1.1-0.3l0.9-0.3l-0.5-0.7c-0.7-1.1-1.6-2-2.6-2.8c-1-0.8-2.1-1.5-3.2-2
c-1.1-0.5-2.4-0.8-3.6-1c-1-0.1-2-0.2-3-0.1c-0.2-0.7-0.5-1.4-0.8-2c-0.8-1.4-1.8-2.6-2.8-3.6c-0.5-0.4-1-0.9-1.5-1.3
c-0.1-0.1-0.2-0.2-0.2-0.2c1.5,0.8,2.5,1.5,3.2,2c0.1,0.1,0.2,0.1,0.2,0.2c0.1,0.1,0.3,0.3,0.4,0.4l1.8,2.3l-0.1-3
c0-0.9-0.1-1.6-0.3-2.3c-0.2-0.7-0.4-1.5-0.6-2.2c0,0,0-0.1,0-0.1c-0.7-2.2-1.9-4.9-4-7.5c-3.3-4.2-9.6-9.3-20.6-9.8
c-0.4,0-0.9,0-1.3,0h-0.1c-10.1,0-15.6,5.5-18.4,10.2c-3,5-3.6,9.9-3.6,10.1c0,0.3,0.1,0.6,0.3,0.8c-0.4,0.6-0.9,1.2-1.1,2.1
c-0.9,2.8-1.5,4-2,4.3c-0.6,0.4-1.3,0.8-2.2,1.1c-2.7,1-3.6,2.8-3.5,4.3c0,1,0.5,1.9,1.3,2.5c-3.1,1.4-5.2,2.5-6.2,3.1
c-0.2,0.1-0.3,0.1-0.5,0.2C99.5,39,98,39.8,97.3,41c-0.8,1.4-0.1,2.9,0.3,3.7c0.6,1.2,2.6,3.6,5.3,4.8c0.4,0.2,0.8,0.3,1.3,0.4
c0.1,0.1,0.2,0.3,0.3,0.4c0.2,0.2,0.3,0.4,0.5,0.6c0.4,0.4,0.7,0.8,1.1,1.2c0.8,0.7,1.7,1.4,2.6,1.9c0.6,0.4,1.2,0.7,1.9,1
c1.5,0.8,3.3,1.5,5.5,2c0.3,0.3,0.6,0.5,0.9,0.8c0.4,0.3,0.7,0.5,1.1,0.8c0.8,0.5,1.6,0.9,2.4,1.3c0.1,0.1,0.3,0.1,0.4,0.2
c1.5,0.7,3.4,1.3,5.6,1.6c0,0,0,0,0,0c0.2,0.1,0.9,0.2,1.8,0.5c0.4,0.2,0.9,0.4,1.3,0.7c1,0.5,2,1.2,2.9,1.9c0.5,0.4,1,0.9,1.4,1.4
c0,0.1,0,0.2,0,0.3c0,0.1,0,0.3,0,0.4c-0.1,0.8-0.6,1.9-1.9,2.6c0,0,0,0-0.1,0c-0.4,0.2-0.8,0.3-1.2,0.4c-4.4,1-5.7,4-6.9,6.9
c-0.2,0.4-0.3,0.7-0.5,1.1c-0.6,1.3-1.1,2.5-1.6,3.5c-0.5,0.9-1,1.9-1.5,2.8l0,0c-0.1,0.1-0.2,0.2-0.2,0.3c-1.1,1.4-2,2.9-2.5,4.6
c-0.1,0.3-0.2,0.6-0.3,0.9c0,0.1-0.1,0.9-0.1,0.9s0.8,0.3,1,0.5c-1.5,3.5-3.7,8.9-5.9,11c-0.8-1.7-2.7-5.2-7.2-10.6
c-3.1-3.8-4.7-6.7-5.5-8.7c-0.1-0.3-0.2-0.6-0.2-0.8C99.1,82,99,81.8,99,81.5c0-0.1,0-0.2,0-0.3l0-0.2c0,0,0-0.1,0-0.1l0-0.1l0-0.1
c0-0.2-0.1-0.3-0.1-0.5c0-0.1-0.1-0.3-0.1-0.4c-0.1-0.3-0.2-0.5-0.3-0.8c-0.2-0.3-0.4-0.6-0.6-0.9c0,0-0.1-0.1-0.1-0.2l11.1,0.3h0
c0,0,0.1,0,0.1,0l0.6,0l0.1-0.4c0.1-0.1,0.1-0.2,0.2-0.3l1.2-4.5c0.1-0.3,0-0.6-0.2-0.8c-0.1-0.1-0.2-0.2-0.4-0.3
c0.5-0.8,0.6-1.5,0.6-1.5c0-0.1,0-0.3,0-0.4l0.1-0.8l-1.1,0c-0.8,0-1.4-0.2-2.1-0.6c-0.6-0.4-1.2-0.9-2.1-1.8
c-0.7-0.6-1.4-1.4-2.7-2.6l-0.8-0.8c-1.7-1.7-3.7-2.6-5.8-2.6c-2.1,0-3.9,0.9-5,1.6c-0.3-0.5-0.7-1-1.2-1.4
c-2.2-2.2-5.7-3.7-8.6-3.7c-0.4,0-0.8,0-1.2,0.1c-0.7,0.1-1.3,0.4-1.7,0.7C78.7,58,78.7,58,78.7,58c-2.2-2.2-5.7-3.7-8.6-3.7
c-0.4,0-0.8,0-1.2,0.1c-1.4,0.3-2.3,1-2.7,2c-0.3,0.7-0.2,1.5,0.1,2.4c-1.6,0.3-2.8,1.1-3.4,2.3c-0.4,0.8-0.5,1.6-0.5,2.3
c-0.4-0.1-0.9-0.2-1.4-0.2c-1.1,0-2.9,0.4-3.6,3.2c-0.3,1.4-0.1,2.5,0.6,3.4c1.1,1.4,3.1,1.7,4.7,1.7c0,0,0.1,0,0.1,0l0.8,4.9
c0.1,0.4,0.4,0.8,0.9,0.8l7.7,0.2c-1,0.8-1.3,1.9-1.2,2.6c0.1,0.9,0.7,1.5,1.5,1.6c0.2,0,0.3,0,0.5,0c0.5,0,1.1-0.1,1.9-0.2
c1.1-0.2,2.5-0.3,4.1-0.3l0.2,0c2.7,0,7.3,1.7,9,2.4c0.5,0.2,1.1,0.4,1.9,0.5c1.5,0.4,3.8,0.9,4.3,1.9c0.1,0.2,0.2,0.4,0.4,0.7
c1.6,2.8,5.9,10.1,8.5,19.9c2.5,9.4,2.7,10.7,2.8,10.9c0,0.4,0.3,0.7,0.6,0.8c0.1,0,0.2,0,0.3,0c0.3,0,0.6-0.1,0.7-0.4l0,0
c0.8-1.1,1.8-2.3,2.8-3.3c-0.2,0.5-0.3,1-0.4,1.5c0,0.1-0.1,0.2-0.1,0.3l0,0c0,0,0,0,0,0c0,0.3,0.1,0.6,0.3,0.8
c0.2,0.2,0.4,0.3,0.6,0.3c0,0,0.1,0,0.1,0c0.3,0,6.4-1.1,13.1-5.6c0,0,0,0.1,0,0.1c0-0.1,1.2,6,1.6,9.3c0.4,3.6,0.7,7.2,0.8,10.8
l2-0.1c-0.3-3.7-0.7-7.3-1.3-10.9c-0.6-3.6-1.3-7.2-2.1-10.7c-0.8-3.6-1.6-7.1-2.5-10.6l-0.6-2.6c-0.1-0.4-0.2-0.9-0.3-1.3
c-0.1-0.5-0.2-0.9-0.3-1.4c-0.3-0.9-0.7-1.8-1.2-2.6c-0.3-0.4-0.6-0.8-0.9-1.1c-0.2-0.2-0.4-0.3-0.6-0.5c0,0,0,0,0,0
c0.8-1.5,1.6-3,2.7-4.4c0.2-0.2,0.3-0.4,0.5-0.6l0,0c0,0,0-0.1,0.1-0.1c1-1.2,2.1-2.3,3.3-3.4c0.7-0.6,1.5-1.3,2.2-2
c0.7-0.7,1.4-1.4,2.1-2.1c0.7-0.7,1.3-1.5,1.9-2.3c0.6-0.8,1.2-1.6,1.6-2.5l-0.1-0.1c-1.2,1.6-2.6,2.9-4,4.2
c-0.7,0.6-1.5,1.3-2.2,1.9c-0.8,0.6-1.5,1.2-2.3,1.8c-0.3,0.3-0.7,0.5-1,0.8c0.2-0.6,0.5-1.3,0.7-1.9l1.1-2.9
c0.4-0.9,0.8-1.8,1.4-2.6c0.6-0.8,1.3-1.4,2.2-1.9c0.4-0.2,0.9-0.4,1.4-0.6c0.4-0.1,1-0.2,1.5-0.4c1-0.4,2-1,2.7-1.9
c0.2-0.3,0.4-0.5,0.5-0.8c0.3,0.8,0.4,1.6,0.6,2.5c0.7-1.1,0.9-2.6,0.6-4c-0.3-1.4-1.2-2.6-2.2-3.6c-0.8-0.7-1.6-1.3-2.5-1.8
c1.6-0.2,3.2-0.6,4.6-1.3c-1.8,0-3.4,0.2-5.1,0.2c-1.7,0-3.3-0.1-5-0.5c-1.6-0.3-3.2-0.9-4.6-1.6c-0.6-0.3-1.1-0.6-1.6-0.9
c0.4,0,0.8,0,1.1,0c2.1,0,4.1-0.2,6.2-0.4c4.1-0.4,8.1-1.7,11.6-3.7c1.8-1,3.5-2.2,5.1-3.5c0.8-0.7,1.5-1.4,2.4-2
c0.4-0.3,0.8-0.6,1.2-0.9c0.3-0.2,0.7-0.4,1-0.2c0.3,0.2,0.4,0.6,0.6,0.9c0.3,0.5,0.5,1.1,0.7,1.7c0.2-0.6,0.2-1.3,0.1-2
c-0.1-0.7-0.4-1.3-0.9-1.8c-0.3-0.4-0.7-0.7-1.1-1c0,0-0.4-0.2-0.5-0.3c-0.6-0.2-1.3-0.4-2-0.1c0.3,0.2,0.7,0.3,0.9,0.7
c0.4,0.7-0.4,1.7-0.8,2.3c-0.6,0.8-1.3,1.5-2,2.3c-1.4,1.4-3,2.7-4.7,3.8c-3.5,2.1-7.5,3.3-11.5,3.6c-2,0.2-4.1,0-6.1-0.3
c-1.2-0.2-2.3-0.4-3.5-0.7c0,0,0,0-0.1-0.1l0,0c-0.8-0.2-1.5-0.4-2.2-0.6c-1.9-0.6-3.6-1.5-5.3-2.5c-0.8-0.5-1.6-1.1-2.3-1.8
c-0.3-0.3-0.6-0.6-0.8-0.8c0.9-0.1,1.8-0.4,2.5-0.9c0.8-0.5,1.4-1.1,2-1.7c0.6-0.7,1.1-1.4,1.5-2.1c0.5-0.7,0.8-1.6,0.7-2.5
c-0.1-0.9-0.8-1.6-1.5-2.1c-0.7-0.5-1.5-0.9-2.4-1.1c-1.4-0.5-2.8-0.7-4.2-0.8c0.1-0.1,0.3-0.2,0.4-0.3c0.5-0.3,1-0.6,1.6-0.9
c0.5-0.3,1.1-0.5,1.6-0.8c1.1-0.5,2.2-1,3.3-1.5c0.5-0.2,1.1-0.4,1.7-0.7c0.6-0.2,1.1-0.5,1.7-0.7c0.8-0.4,1.6-0.8,2.3-1.3
c0,0,0,0,0.1,0c0,0,0-0.1,0-0.1c0.2-0.2,0.5-0.3,0.7-0.5c0.4-0.3,0.8-0.7,1.2-1.1c0.5-0.1,0.8-0.3,1.2-0.4c0.5-0.2,1-0.3,1.5-0.4
c1-0.1,2.1,0.1,3.1,0.5c-0.4-0.4-0.9-0.6-1.4-0.8c-0.5-0.2-1.1-0.3-1.7-0.3c-0.6,0-1.1,0.1-1.7,0.3c-0.1,0-0.1,0-0.1,0.1
c0.1-0.2,0.3-0.4,0.4-0.6c0.6-1.1,1.1-2.3,1-3.7c0-0.7-0.2-1.4-0.5-2.1c-1.2-2.8-2.1-2.5-3.1-2.9l-0.1-0.2c2.5-0.9,5.1-1.4,7.7-1.7
c1.5-0.1,3.1-0.2,4.7-0.1c1.2,0,2.4,0.1,3.6,0.2c-0.7,1.1-0.1,1.9-0.1,1.9c0.2,0.7,2-0.2,2-0.2c5.2-2.4,8.9,1.9,8.9,1.9
c-0.2-0.5-0.4-1-0.6-1.5c3.1,1,6.1,2.3,9,3.7c3,1.5,5.8,3.3,8.3,5.4c1.2,1.1,2.4,2.3,3.3,3.6c0.9,1.3,1.7,2.7,1.9,4.2
c0.1,0.7,0,1.5-0.2,2.1c-0.1,0.3-0.3,0.7-0.4,1c-0.1,0.2-0.3,0.4-0.4,0.6c0.2-0.4,0.3-0.8,0.3-1.2c0-0.5-0.1-1.1-0.2-1.6
c-0.2-0.5-0.4-0.9-0.7-1.3c-0.6-0.8-1.3-1.4-2-1.9c-1.5-1-3.1-1.8-4.7-2.4c-1.6-0.6-2.8-1.9-3.5-3.5c0,0,0,0,0,0v0c0,0,0,0,0,0
s0,0,0,0c0,0,0,0,0,0c0,0,0,0,0,0c-0.2,0.8-0.1,1.7,0.3,2.5c0.3,0.8,0.9,1.5,1.5,2c0.6,0.5,1.2,1.1,1.7,1.8
c0.3,0.4,0.6,0.7,0.8,1.1c-0.8-0.1-1.7-0.2-2.5-0.2c-0.6,0-1.2,0-1.8,0.1c-0.6,0.1-1.2,0.2-1.8,0.3l0,0l-0.9,0.2l0.9,0.4
c2.1,0.9,4,2.2,5.6,3.7c0.8,0.8,1.5,1.6,2.1,2.5c0.3,0.4,0.6,0.9,0.9,1.4c0.1,0.2,0.2,0.3,0.3,0.5c-0.1,0.1-0.2,0.2-0.3,0.4
c-0.3,0.4-0.6,0.7-1,1.1c-0.7,0.7-1.5,1.4-2.3,2c-1.6,1.3-3.3,2.6-5,3.7c-1.7,1.1-3.5,2.2-5.4,3.1c-1.9,0.9-3.8,1.7-5.8,2.5
c1.1,0.1,2.2-0.1,3.2-0.2c0.6-0.1,1.1-0.2,1.7-0.3c-0.6,1.1-1.3,2.2-1.9,3.3c-1,1.8-2,3.7-2.6,5.8c-0.1,0.5-0.3,1.1-0.3,1.6
c0,0.1,0,0.3,0,0.4c0,0.1,0,0.4,0.1,0.5c0.1,0.3,0.3,0.6,0.5,0.8c0.4,0.5,1,0.8,1.5,1c0.4,0.2,0.8,0.3,1.1,0.4
c-0.1,0-0.1,0.1-0.2,0.1c-0.6,0.4-1,1-1.2,1.7c-0.1,0.3-0.1,0.7-0.2,1c0,0.3-0.1,0.7-0.1,1c-0.1,0.6-0.4,1.2-0.7,1.8
c-0.7,1.2-1.4,2.4-1.9,3.7c-0.5,1.3-0.8,2.6-1,4c-0.4,2.7-0.2,5.5-0.3,8.2c0,0.7,0,1.4,0,2l0,1c0,0.3-0.2,1.7-3,0.6
c-0.8-0.4-1.7-0.8-2.5-1.1c-1.2-0.4-2.4-0.8-3.6-1.2c-1.2-0.3-2.4-0.6-3.7-0.8c1.2,0.4,2.4,0.8,3.5,1.3c1.1,0.5,2.3,0.8,3.5,1.3
c4.6,2.3,6.7,5.2,6.7,5.2c-0.1-2-0.4-5.1-0.4-5.4l-0.1-1c0-0.7,0-1.4,0-2c0-2.7,0.3-5.4,0.7-8.1c0.2-1.3,0.5-2.6,0.9-3.9
c0.2-0.6,0.5-1.2,0.8-1.8c0.3-0.6,0.6-1.2,0.9-1.8c0.3-0.6,0.6-1.3,0.7-2c0.1-0.3,0.1-0.7,0.1-1c0-0.3,0-0.7,0.1-1
c0.1-0.6,0.5-1.2,1-1.6c0.1-0.1,0.2-0.2,0.3-0.2c0.1,0,0.1,0,0.2,0c0.3,0.1,0.5,0.1,0.8,0.1c0.3,0,0.5,0.1,0.8,0.1
c0.4,0.1,0.9,0.2,1.3,0.4c0.9,0.3,1.7,0.9,2.4,1.4c0.8,0.6,1.5,1.2,2.2,1.9c0.3,0.3,0.7,0.7,1,1.1c0.3,0.4,0.6,0.7,0.9,1.1
c0.5,0.7,1.1,1.4,1.6,2.1c-0.9-0.2-1.7-0.3-2.6-0.3c-0.6,0-1.2,0.1-1.7,0.2c-0.6,0.1-1.1,0.3-1.6,0.5c-1,0.4-2,1-2.8,1.8
c1-0.4,2.1-0.7,3.1-0.9c0.5-0.1,1-0.1,1.5-0.2c0.5,0,1,0,1.5,0c1,0.1,1.9,0.4,2.8,0.8c1.6,0.7,2.7,1.7,3.8,3
c-1.1-0.4-2.2-0.6-3.4-0.6c-0.7,0-1.3,0-2,0.1c-0.6,0.1-1.3,0.2-1.9,0.4c-1.2,0.4-2.4,0.9-3.4,1.6c1.2-0.3,2.4-0.5,3.6-0.6
c0.6,0,1.2-0.1,1.8-0.1c0.6,0,1.2,0.1,1.7,0.2c1.1,0.2,2.3,0.5,3.3,1c0.5,0.2,1,0.5,1.5,0.7c0.4,0.2,0.9,0.3,1.3,0.6
c0.4,0.3,0.7,0.8,1.1,1.2c0.6,0.7,1.3,1.4,1.9,2.1c-0.1,0-0.2,0-0.3,0c-3.4,0.2-6.8,0.6-10.1,1.5c-1.6,0.5-3.3,1.1-4.7,2
c-0.7,0.5-1.4,1-2,1.7c-0.6,0.7-1.1,1.6-1.2,2.5c0,0.3,0,0.6,0,0.9c-2,1-3.2,2.2-3.4,3.6h0c0,0.2,0,0.4,0,0.5
c0.1,3.5,6.6,7.2,16.6,10.1c-0.1,0.2-0.2,0.4-0.2,0.6c-0.1,0.6-0.1,1.1,0,1.6c0.5,2.1,2.7,2.6,4.1,3c0.9,0.2,1.7,0.4,2.4,0.4
c0.6,0,1.1-0.1,1.5-0.2c0.6,1.2,2,2.3,5.3,2.6c0.5,0,1,0.1,1.6,0.1c1.3,0,2.3-0.3,2.9-0.8c0.3,0.8,1,1.6,2.5,2.1
c0.8,0.3,1.7,0.5,2.9,0.6c0.7,1.2,1.1,2.3,1.3,3.9c0.1,1,0.2,1.9,0.3,2.9c0,0.1,0,0.2,0,0.3h0.3c0-0.1,0-0.2,0-0.3c0-1,0-2,0-2.9
c0-1.7-0.1-2.2-0.2-3.7c0.5,0,1,0,1.4,0c1,0,3.6,0,4.9-1.7c0.4,0.4,0.9,0.9,1.8,1.1c0.2,0.1,0.5,0.1,0.8,0.2c0.1,0.5,0.2,1,0.3,1.5
c0.1,0.6,0.2,1.3,0.3,1.9c0.1,0.6,0.2,1.3,0.2,1.9c0.1,0.6,0.1,1.3,0.2,1.9l0.2,0c-0.1-0.6-0.1-1.3-0.2-1.9c0-0.6-0.1-1.3-0.1-1.9
c0-0.6-0.1-1.3-0.1-1.9c0-0.4,0-0.9,0-1.3c0.6,0.1,1.2,0.1,1.9,0.1c1.4,0,3.3,0,4.5-1c0.5,0.1,1,0.1,1.3,0.1c0.4,0,0.9,0,1.3-0.1
c1.2-0.1,2.1-0.3,2.8-0.7c1.3-0.6,2-1.8,1.8-3.1c0-0.3-0.1-0.6-0.2-0.8c4-0.4,7.4-1,10.2-1.8c0,0,0,0,0,0c-0.1,0.3-0.1,0.5-0.2,0.8
c4.1-1.1,7.2-2.7,7.9-5.1c0.3,0.1,0.6,0.3,0.9,0.4c0.2,0.1,0.5,0.2,0.7,0.3c4.7,2.4,11.1,4.4,11.2,4.4c0.1,0,0.2,0,0.3,0
c0.2,0,0.3-0.1,0.5-0.1l0.4,0.1c0,0-0.1-0.2-0.2-0.4c0.2-0.3,0.2-0.6,0.1-0.9c-0.1-0.2-0.1-0.3-0.2-0.5c0.7,0.7,1.2,1.1,1.2,1.1
c0.1,0.1,0.3,0.2,0.5,0.2l0,0l0,0c0,0,0,0,0,0c0.1,0,0.3,0,0.4-0.1c0.3-0.2,0.5-0.5,0.5-0.8c0,0,0.2-3.9,3.4-11
c4.5-9.9,9.1-26.6,9.1-26.8c0,0,0,0,0-0.1c0.4-2,1.9-2.9,1.9-2.9c0,0,0,0,0,0c0.5-0.3,1-0.6,1.4-0.8c1.9-1,3.3-1.9,4.9-4.9
c0.4-0.8,0.8-2.1,1.3-3.8c0.9-2.8,2-6.6,3.4-8.4C270.9,56.1,272.1,53,271.3,51.2L271.3,51.2z"/>
<path class="st1" d="M69.7,59.1c0.6,0.8,1.4,1.4,2.2,1.8c0.9,0.5,1.8,0.8,2.8,0.8c1,0.1,2-0.1,2.8-0.7L77.3,61
c-0.4,0.2-0.8,0.4-1.3,0.4c-0.4,0.1-0.9,0.1-1.4,0c-0.9-0.1-1.8-0.4-2.6-0.8c-0.8-0.4-1.6-0.9-2.2-1.6c-0.6-0.7-0.9-1.6-0.7-2.5
c-0.2,0.4-0.3,0.9-0.2,1.4C69.2,58.3,69.4,58.7,69.7,59.1L69.7,59.1z"/>
<path class="st1" d="M81.8,62.5c0.6,0.8,1.5,1.4,2.4,1.8c0.9,0.4,1.8,0.8,2.8,1c0.5,0.1,1,0.1,1.5,0c0.5-0.1,1-0.4,1.3-0.9
l-0.2-0.1c-0.2,0.4-0.7,0.6-1.1,0.6c-0.5,0.1-0.9,0-1.4-0.1c-0.9-0.2-1.8-0.6-2.7-1c-0.9-0.4-1.7-0.9-2.3-1.6
c-0.3-0.3-0.6-0.7-0.8-1.2c-0.2-0.4-0.3-0.9-0.3-1.4c-0.1,0.5,0,1,0.1,1.5C81.2,61.6,81.5,62.1,81.8,62.5L81.8,62.5z"/>
<path class="st1" d="M141.6,118.4c-0.1-2.2-0.1-4.3-0.3-6.5c-0.1-2.2-0.2-4.3-0.4-6.5c-0.1,2.2-0.1,4.3-0.1,6.5
c0,2.2,0,4.3,0.1,6.5c0,2.2,0.1,4.3,0.2,6.5c0.1,2.2,0.2,4.3,0.4,6.5l0.2,0c0.1-2.2,0.1-4.3,0.1-6.5
C141.8,122.7,141.7,120.6,141.6,118.4L141.6,118.4z"/>
<path class="st1" d="M129.1,39.3c-0.1-1.2-0.1-2.4,0-3.6c0.1-1.1,0.2-2.1,0.5-3.2c0.4-0.2,0.8-0.4,1.3-0.6c0.6-0.2,1.2-0.5,1.7-0.6
c1-0.3,2-0.5,3-0.6c-0.1,1-0.1,3.2,1.8,3.4c2.5,0.3,2.7-3.1,2.7-3.1s-0.4,1.8-1.7,1.5c-1-0.2-0.8-1.4-0.6-2c0.7,0,1.5,0,2.3,0
c0.5,0,0.9,0.1,1.4,0.1c0.1,0.8,0.2,1.6,0.2,2.4c0,1.3-0.2,2.7-0.4,4c-1.1,0-2.2,0.1-3.3,0.2c-1,0.1-1.9,0.3-2.9,0.5
c-1,0.2-1.9,0.5-2.8,0.8c-0.9,0.3-1.9,0.6-2.8,0.8C129.3,39.3,129.2,39.3,129.1,39.3L129.1,39.3z M131.6,28.3
c0.8-1,1.9-1.8,3.1-2.2c0.3-0.1,0.6-0.2,0.9-0.2c0.3-0.1,0.6-0.1,0.9-0.1c0.6,0,1.3,0.2,1.9,0.4c1.2,0.5,2.1,1.6,2.5,2.8
c0.1,0.3,0.2,0.7,0.3,1c-1.7-0.3-3.4-0.4-5.1-0.4c-1.3,0.1-2.6,0.3-3.9,0.6c-0.6,0.2-1.3,0.4-1.9,0.7c-0.2,0.1-0.3,0.1-0.5,0.2
C130.4,30.2,130.9,29.2,131.6,28.3L131.6,28.3z M132.3,38.8c0.9-0.3,1.8-0.6,2.8-0.8c1-0.2,1.9-0.4,2.9-0.5
c1.3-0.2,2.7-0.3,4.1-0.3l0.1,0c0,0,0,0,0,0c0.6,0,1.1,0,1.7,0c1,0,2,0,2.9-0.2c1-0.2,1.9-0.5,2.7-1c-0.8,0.5-1.8,0.8-2.8,0.9
c-1,0.2-1.9,0.2-2.9,0.2c-0.6,0-1.1-0.1-1.7-0.1c0.1-1.3,0.2-2.7,0.2-4c0-0.8-0.1-1.6-0.2-2.4c0.6,0.1,1.2,0.1,1.9,0.2
c-0.6-0.2-1.3-0.4-1.9-0.6c-0.1-0.5-0.2-0.9-0.4-1.4c-0.3-0.7-0.6-1.3-1.1-1.9c-0.5-0.6-1-1-1.7-1.4c-0.7-0.3-1.4-0.5-2.1-0.6
c-0.4,0-0.7,0-1.1,0c-0.4,0.1-0.7,0.1-1.1,0.2c-1.4,0.4-2.7,1.2-3.6,2.3c-1,1.1-1.7,2.4-2.2,3.7c-0.5,1.3-0.8,2.7-1,4.1
c-0.2,1.4-0.3,2.7-0.3,4.2c0,0-0.1,0-0.1,0c-0.1,0-0.2,0.1-0.4,0.1l-0.2,0.1l-0.1,0l0,0l0,0c0,0,0,0,0,0c0,0,0,0,0,0l0,0l0,0
c0.9,0,1.9-0.1,2.9-0.3C130.4,39.5,131.3,39.1,132.3,38.8L132.3,38.8z"/>
<path class="st1" d="M150.9,44.4c0.7,1,1.1,2.2,1.3,3.4c0.1-1.3-0.2-2.6-1-3.7c-0.4-0.5-0.8-1-1.4-1.4c-0.6-0.3-1.2-0.6-1.8-0.6
c0.6,0.2,1.1,0.6,1.6,0.9C150.1,43.5,150.5,43.9,150.9,44.4L150.9,44.4z"/>
<rect x="154.8" y="29.5" class="st1" width="0" height="0"/>
<path class="st1" d="M187.7,20.6c-4.9,6.3-15.2,0.7-12.7-6.8c0,0-0.1-0.1-0.1,0c-1.2,3.4,0.3,7.3,3.2,9.2c3.3,2.1,7.9,1.2,9.7-2.3
C187.9,20.6,187.8,20.5,187.7,20.6L187.7,20.6z"/>
<path class="st1" d="M183.1,54.8c-0.9,0.8-1.7,2-1.9,3.3c-0.1,0.6-0.1,1.3,0,2c0.2,0.6,0.4,1.2,0.9,1.7c-0.3-0.6-0.4-1.2-0.5-1.8
c-0.1-0.6-0.1-1.2,0-1.8C181.8,56.9,182.4,55.8,183.1,54.8L183.1,54.8z"/>
<path class="st1" d="M208.3,71c1.2,0.1,2.5,0,3.7-0.2c1.2-0.2,2.4-0.6,3.4-1.3c-0.6,0.2-1.1,0.4-1.7,0.6c-0.6,0.2-1.2,0.3-1.8,0.3
c-1.2,0.2-2.4,0.2-3.6,0.1c-1.2-0.1-2.4-0.3-3.6-0.6c-1.2-0.3-2.3-0.7-3.4-1.2c1.1,0.6,2.2,1.1,3.4,1.5
C205.9,70.7,207.1,70.9,208.3,71L208.3,71z"/>
<path class="st1" d="M189.1,47.2c0.1-0.7,0.3-1.3,0.5-1.9c0-0.1,0.1-0.3,0.1-0.4c1.8-0.1,3.6-0.1,5.4,0.2c0.2,0.6,0.6,2.1-0.6,2.3
c-1.4,0.3-1.8-1.6-1.8-1.6s0.3,3.6,2.9,3.3c1.9-0.3,2-2.3,1.9-3.4c0.4,0.1,0.7,0.2,1.1,0.4c0.6,0.2,1.1,0.5,1.6,0.8
c0.3,0.1,0.5,0.3,0.7,0.5c0.2,0.1,0.4,0.3,0.6,0.5c0,0.3,0.1,0.7,0.1,1c0,0.6,0,1.3,0,2c0,1.2-0.1,2.4-0.2,3.6
c-0.3-0.1-0.6-0.1-0.9-0.2c-1.8-0.4-3.7-0.6-5.6-0.9c-0.9-0.2-1.8-0.3-2.8-0.5c-0.9-0.2-1.8-0.6-2.6-1c-0.3-0.2-0.6-0.3-0.8-0.5
C188.7,49.8,188.9,48.5,189.1,47.2L189.1,47.2z M189.9,44.4c0.1-0.3,0.3-0.6,0.5-0.9c1.4-2.2,4.3-3.4,6.8-2.6
c1.2,0.4,2.2,1.3,2.9,2.3c0.5,0.8,0.9,1.7,1.1,2.7c-0.1-0.1-0.3-0.2-0.4-0.2c-0.6-0.3-1.2-0.5-1.8-0.7c-1.2-0.4-2.5-0.6-3.7-0.6
c-1.8-0.1-3.6,0-5.4,0.3C189.8,44.6,189.9,44.5,189.9,44.4L189.9,44.4z M187,50.5c0.3,0.2,0.6,0.4,0.9,0.6c0,0,0,0,0,0h0.1
c0.5,0.3,1,0.6,1.5,0.8c0.9,0.4,1.8,0.6,2.7,0.9c0.9,0.2,1.8,0.4,2.7,0.6l5.5,1.2c1.8,0.4,3.6,0.8,5.4,1.4l0-0.1
c-0.9-0.5-1.8-0.9-2.8-1.2l0.2,0c-0.1-1.4-0.2-2.7-0.3-4c-0.1-0.7-0.1-1.3-0.2-2.1c-0.1-0.7-0.2-1.3-0.4-1.9l0,0c0,0,0,0,0,0
c0,0,0-0.1,0-0.1c-0.4-1.3-0.9-2.7-1.7-3.8c-0.8-1.1-2-2-3.4-2.4c-1.4-0.4-2.8-0.2-4.1,0.3c-1.3,0.5-2.4,1.5-3.1,2.6
c-0.3,0.4-0.5,1-0.7,1.5c-0.5,0.1-1.1,0.2-1.6,0.3c0.5-0.1,1-0.1,1.5-0.2c0,0.1-0.1,0.2-0.1,0.3c-0.2,0.6-0.4,1.3-0.6,1.9
c-0.3,1.2-0.5,2.3-0.6,3.5c-1-0.6-2-1.3-3-2.2C185.6,49.2,186.3,49.9,187,50.5L187,50.5z"/>
<path class="st1" d="M216.2,28c0.4,0.4,0.8,0.9,1.1,1.3c0.4,0.4,0.7,0.9,1.1,1.4c0.8,0.9,1.7,1.6,2.8,2.1c1.1,0.5,2.3,0.8,3.4,0.9
c0.6,0,1.2,0,1.8-0.1c0.6-0.1,1.2-0.2,1.7-0.5c1.1-0.5,2.1-1.3,2.7-2.3c0.7-1,1.1-2.1,1.2-3.3c0.1-1.2,0-2.4-0.3-3.5
c0.2,1.1,0.3,2.3,0.1,3.4c-0.2,1.1-0.6,2.2-1.3,3.1c-0.7,0.9-1.6,1.6-2.6,2.1c-1,0.4-2.2,0.6-3.3,0.5c-1.1,0-2.3-0.3-3.3-0.7
c-1-0.5-2-1.1-2.8-2c-0.4-0.4-0.7-0.9-1.1-1.3c-0.4-0.4-0.8-0.9-1.2-1.3c-0.8-0.8-1.7-1.6-2.6-2.3l0,0
C214.6,26.4,215.4,27.1,216.2,28L216.2,28z"/>
<path class="st1" d="M191.4,104.4c0.4,0.4,0.7,0.9,0.7,1.3c0,0.2,0,0.2-0.1,0.3c0,0.1-0.1,0.2-0.2,0.3c-0.2,0.2-0.4,0.4-0.6,0.5
c-0.5,0.3-1.1,0.6-1.7,0.7c-1.3,0.4-2.6,0.5-4,0.4c-1.3-0.1-2.7-0.4-3.9-0.9c-0.6-0.3-1.2-0.6-1.7-1c-0.5-0.4-0.8-0.9-0.8-1.4
c0-0.5,0.4-1,1-1.3c0.5-0.3,1.2-0.6,1.8-0.8c1.3-0.3,2.7-0.4,4-0.3c1.4,0.1,2.7,0.5,3.9,1.1C190.4,103.6,191,104,191.4,104.4
L191.4,104.4z M181.8,102c-0.7,0.2-1.4,0.4-2.1,0.7c-0.3,0.2-0.6,0.4-0.9,0.7c-0.1,0.2-0.2,0.3-0.3,0.5c-0.1,0.2-0.2,0.4-0.2,0.6
c0,0.4,0.1,0.9,0.3,1.2c0.2,0.4,0.5,0.6,0.8,0.9c0.6,0.5,1.2,0.8,1.9,1.1c1.3,0.5,2.7,0.8,4.2,1c1.4,0.1,2.9,0.1,4.3-0.2
c0.7-0.2,1.4-0.4,2.1-0.8c0.3-0.2,0.7-0.5,0.9-0.8c0.1-0.2,0.3-0.4,0.4-0.6c0.1-0.2,0.2-0.5,0.2-0.7l0,0c0-0.5-0.1-1-0.3-1.3
c-0.2-0.4-0.5-0.7-0.8-0.9c-0.6-0.5-1.3-0.8-2-1c-1.4-0.5-2.8-0.7-4.2-0.8C184.6,101.6,183.2,101.7,181.8,102L181.8,102z"/>
<path class="st1" d="M202.6,102.1c0.6-0.3,1.2-0.5,1.9-0.7c1.3-0.3,2.7-0.3,4.1-0.1c1.3,0.2,2.7,0.5,3.9,1.1c0.6,0.3,1.2,0.6,1.6,1
c0.5,0.4,0.8,0.9,0.7,1.3c0,0.2,0,0.2-0.1,0.3c0,0.1-0.1,0.2-0.2,0.3c-0.2,0.2-0.4,0.4-0.7,0.6c-0.5,0.3-1.1,0.6-1.8,0.7
c-1.3,0.3-2.6,0.5-4,0.4c-1.4-0.1-2.7-0.3-4-0.8c-0.6-0.3-1.2-0.6-1.8-1c-0.5-0.4-0.9-1-0.9-1.7
C201.5,102.9,202.1,102.4,202.6,102.1L202.6,102.1z M202.2,105.5c0.5,0.5,1.2,0.8,1.8,1.1c1.3,0.6,2.7,0.9,4.1,1.1
c1.4,0.2,2.8,0.2,4.3-0.1c0.7-0.2,1.4-0.4,2.1-0.8c0.3-0.2,0.7-0.4,0.9-0.8c0.1-0.2,0.3-0.4,0.4-0.6c0.1-0.2,0.2-0.5,0.2-0.6l0,0
c0-0.5-0.1-0.9-0.3-1.3c-0.2-0.4-0.5-0.7-0.8-0.9c-0.6-0.5-1.3-0.8-1.9-1.1c-1.4-0.5-2.8-0.8-4.2-0.8c-1.4-0.1-2.8,0-4.2,0.4
c-0.7,0.2-1.4,0.4-2,0.8c-0.3,0.2-0.6,0.4-0.8,0.7c-0.2,0.3-0.4,0.6-0.4,1c0,0.4,0.1,0.8,0.3,1.1
C201.7,105,201.9,105.2,202.2,105.5L202.2,105.5z"/>
<path class="st1" d="M159.7,97.2c0.5-0.4,1.2-0.7,1.9-1c1.4-0.5,2.9-0.8,4.4-0.9c1.5,0,3.1,0.2,4.5,0.7c0.7,0.3,1.4,0.6,2,1.1
c0.6,0.4,1.1,1.1,1.1,1.8c0,0.7-0.6,1.3-1.2,1.7c-0.6,0.4-1.3,0.7-2.1,0.9c-1.5,0.4-3,0.5-4.5,0.4c-1.5-0.1-3-0.4-4.3-1
c-0.7-0.3-1.3-0.6-1.8-1c-0.5-0.4-0.8-0.9-0.8-1.3C158.8,98.1,159.2,97.6,159.7,97.2L159.7,97.2z M158.7,101
c0.7,0.5,1.5,0.9,2.3,1.1c1.6,0.5,3.2,0.6,4.8,0.6c1.6,0,3.2-0.2,4.7-0.7c0.8-0.3,1.5-0.6,2.2-1.1c0.3-0.2,0.6-0.5,0.9-0.9
c0.2-0.3,0.4-0.8,0.4-1.2l0,0c0-0.4-0.1-0.9-0.4-1.2c-0.2-0.3-0.5-0.6-0.8-0.9c-0.6-0.5-1.4-0.8-2.1-1.1c-1.5-0.5-3-0.8-4.6-0.9
c-1.6-0.1-3.2-0.1-4.8,0.3c-0.8,0.2-1.6,0.4-2.4,0.9c-0.4,0.2-0.7,0.5-1,0.9c-0.3,0.4-0.5,0.9-0.6,1.5c0,0.6,0.2,1.1,0.5,1.5
C158,100.4,158.4,100.7,158.7,101L158.7,101z"/>
<path class="st1" d="M179.2,94.8c0.4-0.2,0.8-0.3,1.2-0.4c0.8-0.2,1.7-0.2,2.6-0.1c0.9,0.1,1.8,0.3,2.6,0.6
c0.4,0.2,0.8,0.4,1.1,0.7c0.3,0.3,0.6,0.7,0.5,1.1c-0.1,0.4-0.4,0.7-0.8,0.9c-0.4,0.2-0.8,0.3-1.3,0.4c-0.9,0.1-1.8,0.1-2.7,0
c-0.9-0.1-1.7-0.4-2.5-0.8c-0.4-0.2-0.7-0.4-1-0.7c-0.3-0.3-0.5-0.6-0.4-0.9C178.6,95.3,178.9,95,179.2,94.8L179.2,94.8z M178.6,97
c0.4,0.3,0.8,0.6,1.2,0.8c0.9,0.4,1.8,0.6,2.7,0.7c0.9,0.1,1.9,0.1,2.8-0.1c0.5-0.1,0.9-0.2,1.3-0.5c0.4-0.2,0.8-0.6,0.9-1.1l0,0
c0.1-0.5-0.2-1-0.6-1.3c-0.3-0.3-0.7-0.6-1.2-0.8c-0.8-0.4-1.7-0.7-2.6-0.8c-0.9-0.1-1.9-0.2-2.8,0c-0.5,0.1-0.9,0.2-1.4,0.5
c-0.2,0.1-0.4,0.3-0.6,0.5c-0.1,0.1-0.2,0.2-0.2,0.4c-0.1,0.1-0.1,0.3-0.1,0.4c0,0.3,0,0.6,0.2,0.8C178.2,96.6,178.4,96.8,178.6,97
L178.6,97z"/>
<path class="st1" d="M193,97.2c0.3-0.2,0.6-0.3,0.9-0.4c0.7-0.2,1.4-0.3,2.1-0.3c0.7,0,1.5,0.1,2.2,0.3c0.3,0.1,0.7,0.3,1,0.5
c0.3,0.2,0.5,0.5,0.5,0.8c0,0.3-0.3,0.6-0.6,0.8c-0.3,0.2-0.7,0.3-1,0.4c-0.7,0.2-1.5,0.2-2.2,0.1c-0.7-0.1-1.5-0.3-2.1-0.5
c-0.3-0.1-0.6-0.3-0.9-0.5c-0.2-0.2-0.4-0.4-0.4-0.6C192.6,97.6,192.8,97.4,193,97.2L193,97.2z M192.4,99.1
c0.4,0.3,0.8,0.5,1.1,0.6c0.8,0.3,1.6,0.3,2.4,0.3c0.8,0,1.6-0.1,2.3-0.4c0.4-0.1,0.7-0.3,1.1-0.5c0.3-0.2,0.7-0.6,0.7-1v0
c0-0.5-0.3-0.8-0.6-1.1c-0.3-0.3-0.7-0.5-1-0.6c-0.7-0.3-1.5-0.5-2.3-0.6c-0.8-0.1-1.6-0.1-2.4,0.1c-0.4,0.1-0.8,0.2-1.2,0.5
c-0.2,0.1-0.4,0.3-0.5,0.5c-0.1,0.1-0.2,0.2-0.2,0.4c-0.1,0.1-0.1,0.3-0.1,0.4c0,0.3,0.1,0.6,0.2,0.8
C192,98.8,192.2,98.9,192.4,99.1L192.4,99.1z"/>
<path class="st5" d="M99.8,43.1c0.4-1.9,5.6-2.9,10-0.9c-1.8-2.6-11-3.8-11.6-1c-0.1,0.7,0.2,2.1,1.8,3.2
C99.8,43.9,99.8,43.5,99.8,43.1L99.8,43.1z"/>
<path class="st5" d="M224,55.9c-1.4-1.2-6.2-1.6-10.7,0.3c1.9-2.3,8.7-3.8,11.9-1.2c0.9,0.7,1.1,2.1-0.2,2.8
C225.2,57.4,224.8,56.6,224,55.9L224,55.9z"/>
<path class="st4" d="M204,121.8c-0.6,0-1.4-0.1-1.9-0.7c-0.1-0.2-0.2-0.4-0.3-0.7c0-0.3,0.1-0.6,0.4-0.9c0.4-0.4,1.4-0.6,2.5-0.7
c0.1,0,0.2,0,0.3,0c1.4,0,2.7,0.4,2.8,1.2c0,0.4,0,1-1,1.4c-0.5,0.2-1.1,0.3-1.9,0.4C204.6,121.8,204.3,121.8,204,121.8L204,121.8z
"/>
<path class="st4" d="M197.5,122.9c-0.9,0-3.8,0-3.8-1.9c0-1,1.8-1.7,3.7-1.7c1.5,0,2.7,0.2,3.3,0.8c0.3,0.3,0.4,0.6,0.4,0.9
c0,0.3-0.1,0.6-0.3,0.9C200.3,122.8,199,122.9,197.5,122.9L197.5,122.9z"/>
<path class="st4" d="M225.9,110.3c0.1,0.4,0.1,0.9-0.1,1.4c-0.2,0.5-0.4,0.9-0.8,1.2c-0.6,0.7-1.5,1.2-2.3,1.7
c-1.7,0.8-3.5,1.3-5.3,1.7c-3.6,0.8-7.2,1.2-10.8,1.4c-3.6,0.2-7.3,0.2-10.9,0.1c-3.6-0.1-7.2-0.3-10.9-0.7
c-7.2-0.7-14.4-1.9-21.4-3.7c-1.8-0.5-3.5-1-5.2-1.5c-1.7-0.6-3.4-1.2-5.1-1.9c-1.7-0.7-3.3-1.6-4.8-2.6c-0.7-0.5-1.5-1.1-2-1.8
c-0.6-0.7-1.1-1.6-1-2.5c0.1,0.9,0.6,1.7,1.2,2.3c0.6,0.6,1.3,1.2,2.1,1.7c1.5,0.9,3.1,1.7,4.8,2.4c3.3,1.3,6.8,2.4,10.3,3.2
c7,1.7,14.2,2.7,21.3,3.3c7.2,0.6,14.4,0.8,21.6,0.5c3.6-0.2,7.2-0.6,10.7-1.3c1.7-0.4,3.5-0.9,5.1-1.6c0.8-0.3,1.6-0.7,2.2-1.3
C225.2,111.9,225.8,111.2,225.9,110.3L225.9,110.3z"/>
<path class="st1" d="M159.6,113.6c-0.3,1.8-0.5,3.7-0.6,5.5c-0.1,1.8,0,3.7,0.2,5.5l-1.2,0.1c0-1.9,0.1-3.8,0.4-5.6
C158.7,117.2,159.1,115.3,159.6,113.6L159.6,113.6z"/>
<path class="st1" d="M291.6,192.2l4.5-40.5l50,4.5L327.7,174c-0.2,0.2-0.3,0.5-0.1,0.8l16.6,22L291.6,192.2L291.6,192.2z"/>
<path class="st5" d="M293,191.1l48.6,4.2l-14.9-19.8c-0.6-0.7-0.4-1.8,0.2-2.4l16.6-16l-46.2-4.2L293,191.1L293,191.1z
M344.1,197.9L344.1,197.9c0,0-0.1,0-0.1,0l-52.5-4.5c-0.3,0-0.6-0.2-0.8-0.4c-0.2-0.2-0.3-0.6-0.3-0.9l4.5-40.5
c0.1-0.6,0.6-1.1,1.3-1.1l50,4.5c0.5,0,0.9,0.4,1,0.8c0,0.1,0.1,0.3,0.1,0.4v0c0,0.3-0.1,0.6-0.4,0.9l-18.1,17.4l16.1,21.4
c0.2,0.2,0.3,0.5,0.3,0.8C345.3,197.4,344.8,197.9,344.1,197.9C344.1,197.9,344.1,197.9,344.1,197.9L344.1,197.9z"/>
<path class="st5" d="M292.2,180.6l-1,11.7c15.3,1.8,21.3-2.7,21.3-2.7C313,186.4,302.6,182.7,292.2,180.6L292.2,180.6z"/>
<path class="st1" d="M57.5,191.4L53,150.9l-51.8,4.5l20.2,17.8c0.2,0.2,0.3,0.5,0.1,0.8L5,196L57.5,191.4L57.5,191.4z"/>
<path class="st5" d="M4.1,156.4l18.1,16c0.7,0.6,0.8,1.6,0.2,2.4L7.5,194.6l48.6-4.2l-4.2-38.2L4.1,156.4L4.1,156.4z M5,197.2
c-0.4,0-0.8-0.2-1-0.6c-0.2-0.4-0.2-0.9,0.1-1.3l16.2-21.5L0.4,156.4c-0.3-0.2-0.4-0.5-0.4-0.9v0c0-0.1,0-0.2,0.1-0.4
c0.1-0.5,0.6-0.8,1-0.8l51.8-4.5c0.6-0.1,1.2,0.4,1.3,1.1l4.5,40.5c0,0.3-0.1,0.6-0.3,0.9c-0.2,0.2-0.5,0.4-0.8,0.4l-52.5,4.5
C5,197.2,5,197.2,5,197.2L5,197.2z"/>
<path class="st5" d="M56.9,179.9l1,11.7c-15.3,1.8-21.3-2.7-21.3-2.7C36.1,185.7,46.6,182,56.9,179.9L56.9,179.9z"/>
<path class="st1" d="M304.9,136.2c-15.6-5.3-77.2-11.2-132.7-10.8c-66.8-0.4-113.9,4.5-129.5,9.8c-12.4,4.2-12.4,9.8-12.4,9.8
l6.5,43c8.6-14.5,120.5-15.4,134.5-15.3l0,0c0,0,0.3,0,0.9,0c0.6,0,0.9,0,0.9,0v0c13.9-0.1,118.5-1.5,139.4,16.2l4.7-43
C317.3,146,317.3,140.4,304.9,136.2L304.9,136.2z"/>
<path class="st5" d="M186.4,171.5c38.9,0,105.7,2,125.2,15.3l4.5-40.8c-0.1-0.4-0.9-5-11.5-8.6c-14.9-5.1-72.1-10.7-126.5-10.7
c-2,0-3.9,0-5.8,0c-2.7,0-5.5,0-8.1,0c-63.7,0-106.7,4.9-121,9.8c-10.5,3.6-11.4,8-11.5,8.6l6.1,40.4c3.3-2.6,9.9-4.9,20.1-6.8
c10-1.9,23.6-3.4,40.2-4.6c33.5-2.4,67.2-2.5,71-2.5c1,0,1.8,0,2.4,0c0.1,0,0.1,0,0.2,0c0.2,0,0.4,0,0.7,0c0.3,0,0.6,0,0.7,0
c0.1,0,0.1,0,0.2,0l1.2,0C176.8,171.5,181,171.5,186.4,171.5L186.4,171.5z M312.6,190.1c-0.3,0-0.6-0.1-0.8-0.3
c-17-14.4-93.4-16-125.4-16c-5.3,0-9.5,0-12,0.1l-1,0c-0.1,0-0.2,0-0.2,0c0,0-0.3,0-0.9,0c-0.6,0-0.9,0-0.9,0c-0.1,0-0.2,0-0.2,0
c-0.6,0-1.3,0-2.2,0c-49.1,0-124.6,3.9-131,14.7c-0.3,0.4-0.8,0.7-1.3,0.6c-0.5-0.1-0.9-0.5-1-1l-6.5-43c0-0.1,0-0.1,0-0.2
c0-0.7,0.4-6.6,13.2-10.9c14.5-4.9,57.8-9.9,121.8-9.9c2.7,0,5.4,0,8.1,0c1.9,0,3.9,0,5.8,0c54.5,0,112.2,5.7,127.2,10.9
c12.8,4.4,13.2,10.3,13.2,10.9c0,0,0,0.1,0,0.1l-4.7,43c0,0.4-0.3,0.8-0.7,1C312.8,190.1,312.7,190.1,312.6,190.1L312.6,190.1z"/>
<path class="st5" d="M57,166.3l-0.7-5.3c1-0.1,1.9-0.2,2.9-0.4c-0.5-4.3-1-8.5-1.6-12.8c-1,0.1-1.9,0.2-2.9,0.4
c-0.2-1.8-0.4-3.5-0.7-5.3c8.1-1,16.2-1.9,24.3-2.8c0.3,3.2,0.6,6.4,1,9.6c-2,0.2-4,0.4-5.9,0.6c0-0.4-0.1-0.9-0.1-1.3
c0,0,0,0,0,0.1c-0.4-2.4-2-2.7-2.7-2.8c-1.4,0.1-2.7,0.3-4.1,0.5c0.2,1.6,0.4,3.3,0.6,4.9c0.2,0,0.3,0,0.5-0.1
c0.5-0.1,1.5-0.5,1.5-2.1c0-0.2-0.1-0.5-0.1-0.7c0.9-0.1,1.9-0.2,2.8-0.3c0.3,2.7,0.6,5.5,0.9,8.2c-0.9,0.1-1.8,0.2-2.8,0.3
l-0.2-2.1c-0.7,0.1-1.4,0.2-2.2,0.2c0.2,1.5,0.3,3,0.5,4.4c1.6-0.2,3.3-0.4,4.9-0.5c0.2,1.8,0.4,3.5,0.6,5.3
C67.9,165,62.4,165.6,57,166.3L57,166.3z"/>
<path class="st5" d="M88.6,151c-1.3,0.1-2.1,1.7-2,3.5c0.2,1.8,1.3,3.2,2.6,3.1c1.2-0.1,2.1-1.7,2-3.5
C91.1,152.3,89.9,150.9,88.6,151L88.6,151z M89.8,163.6c-5.2,0.5-9.9-3.2-10.4-8.3c-0.5-5.1,3.4-9.7,8.7-10.2
c5.3-0.5,10,3.3,10.4,8.4C98.9,158.6,95,163.1,89.8,163.6L89.8,163.6z"/>
<path class="st5" d="M109.1,149.4c-1.3,0.1-2.2,1.6-2,3.5c0.1,1.8,1.3,3.2,2.5,3.1c1.2-0.1,2.2-1.6,2-3.5
C111.5,150.7,110.3,149.3,109.1,149.4L109.1,149.4z M110,162c-5.2,0.4-9.8-3.5-10.2-8.6c-0.4-5.1,3.6-9.6,8.9-10
c5.3-0.4,9.9,3.5,10.2,8.7C119.2,157.2,115.2,161.6,110,162L110,162z"/>
<path class="st5" d="M130.4,148.1c-1.1,0.1-1.8,1.5-1.7,3.4c0.1,1.9,1,3.3,2.1,3.2c1.1,0,1.8-1.5,1.7-3.4
C132.4,149.5,131.5,148.1,130.4,148.1L130.4,148.1z M128.1,160.8c-1.3,0.1-3.3-0.1-4.9-1.6c-1.6-1.5-2.5-3.9-2.7-7.2
c-0.3-5.2,3.1-9.1,8-9.4c0.1,0,0.2,0,0.3,0c1.5-0.1,2.9,0.2,3.9,0.8c0.1,0,0.2,0.1,0.2,0.1c-0.1-1.2-0.1-2.4-0.2-3.7
c-1.2,0.1-2.4,0.1-3.5,0.2c-0.1-1.7-0.2-3.5-0.2-5.2c3.6-0.2,7.3-0.3,11-0.5c0.2,6.6,0.5,13.2,0.7,19.8c0.6,0,1.3,0,1.9-0.1
c0.1,1.8,0.1,3.6,0.2,5.4c-1.2,0-2.4,0.1-3.5,0.1c0,0-0.1,0-0.1,0c-0.6,0-1.2,0-1.7,0.1c0,0,0,0,0,0.1c-1.1,0.1-2.2,0.1-3.3,0.2
c1-1.9,0.8-5.5,0.8-5.7c0,0,0-0.1,0-0.1c-0.1,0-0.2,0-0.3,0c0,0,0,0.1-0.1,0.1c-0.1,0.6-1.2,6.2-6.3,6.6
C128.3,160.8,128.2,160.8,128.1,160.8L128.1,160.8z"/>
<path class="st5" d="M227.7,148.5c-1.1-0.1-2,1.4-2.1,3.2c-0.1,1.9,0.7,3.4,1.7,3.4c1.1,0.1,2-1.3,2.1-3.2
C229.5,150.1,228.8,148.6,227.7,148.5L227.7,148.5z M224.1,160.8c-1.3-0.1-3.2-0.5-4.7-2.1c-1.5-1.6-2.1-4.1-2-7.4
c0.3-5.2,4-8.7,9-8.6c0.1,0,0.2,0,0.3,0c1.5,0.1,2.8,0.5,3.8,1.2c0.1,0.1,0.2,0.1,0.2,0.2c0.1-1.2,0.1-2.4,0.2-3.6
c-1.2-0.1-2.4-0.1-3.5-0.2c0.1-1.7,0.2-3.5,0.3-5.2c3.6,0.2,7.3,0.4,10.9,0.6c-0.4,6.6-0.9,13.2-1.3,19.8c0.6,0,1.3,0.1,1.9,0.1
c-0.1,1.8-0.2,3.6-0.4,5.4c-1.2-0.1-2.4-0.2-3.5-0.2c-0.1,0-0.1,0-0.1,0c-0.6,0-1.2-0.1-1.7-0.1c0,0,0,0,0,0.1
c-1.1,0-2.2-0.1-3.3-0.1c1.2-1.8,1.4-5.4,1.4-5.6c0-0.1,0-0.1,0-0.1c-0.1,0-0.2,0-0.3,0c0,0,0,0.1-0.1,0.1c-0.2,0.6-1.8,6-6.9,5.9
C224.3,160.8,224.2,160.8,224.1,160.8L224.1,160.8z"/>
<path class="st5" d="M155.3,142.9c0,0.1,0,0.2,0,0.4c0,0.1,0,0.3,0,0.4c0,0.5,0,1.1,0,1.6c0.7,0,1.3,0,2,0c1.1,0,2-0.9,2-2.1
c0-1.1-1-2-2.1-2c-0.7,0-1.4,0-2,0C155.2,141.8,155.3,142.3,155.3,142.9L155.3,142.9z M155.4,150.5c0,0.1,0,0.3,0,0.5
c0,0.2,0,0.3,0.1,0.5c0,0.7,0,1.3,0,2c0.8,0,1.6,0,2.5,0c1.4,0,2.5-1.2,2.5-2.5c0-1.4-1.2-2.5-2.6-2.4c-0.8,0-1.6,0-2.5,0
C155.4,149.2,155.4,149.9,155.4,150.5L155.4,150.5z M162.9,159L162.9,159c-6.3,0.1-12.5,0.2-18.8,0.5c-0.1-1.8-0.1-3.6-0.2-5.5
c0.9,0,1.8-0.1,2.7-0.1c-0.1-4.3-0.3-8.6-0.4-12.9c-0.9,0-1.9,0.1-2.8,0.1c-0.1-1.8-0.1-3.6-0.2-5.3c0.9,0,1.9-0.1,2.8-0.1
c0,0,0,0,0,0c3.1-0.1,6.2-0.2,9.2-0.2c0.1,0,0.1,0,0.2,0c2.3,0,4.5-0.1,6.8-0.1c3,0,5.5,2.4,5.5,5.4c0,3.1-2.5,5.8-5.4,5.8
c0,0-0.2,0-0.3,0.1c0,0.1-0.1,0.1-0.1,0.2c0,0.1,0.1,0.2,0.2,0.2h0.8c3.2,0,5.8,2.8,5.9,6.1c0,3.2-2.6,5.9-5.8,5.9
C163,159,162.9,159,162.9,159L162.9,159z"/>
<path class="st5" d="M180.3,150.6c-0.5,0-1.4,0.1-2,0.7c-0.3,0.3-0.5,0.8-0.5,1.3c0,0.7,0.6,1.3,1.3,1.3c0.7,0,1.2-0.3,1.5-1
c0.2-0.5,0.2-1.9,0.1-2.1c0,0,0-0.1,0-0.1c0,0-0.1,0-0.1,0C180.6,150.6,180.5,150.6,180.3,150.6L180.3,150.6z M175.7,159.7
c-0.1,0-0.3,0-0.4,0c-2.8-0.1-4.9-2.3-5-4.9c0-2.9,2.5-4.6,4.9-5c1.3-0.2,2.5-0.3,5.2-0.4c0,0,0.1,0,0.1,0c0,0,0-0.1,0-0.1
c0.1-1.2-0.1-2.2-0.7-2.8c-0.7-0.8-1.7-0.8-2-0.8c-0.1,0-0.1,0-0.2,0c0,0-0.1,0-0.1,0c0,0,0,0.1,0,0.1c0,0.1,0,0.1,0,0.2
c0,1.7-1.4,3-3.1,3c-1.7,0-3.1-1.3-3.1-3c0-0.5,0.1-1.1,0.4-1.5c1.3-3,5.5-3,8.9-3c0.1,0,0.2,0,0.3,0c8,0.1,8,6.9,8,6.9
c0,1.6,0,3.3-0.1,4.9c0,0,0,0.3,0.1,0.4c0.1,0.1,0.2,0.1,0.3,0.1c0,0,0,0,0,0c0.3,0,0.5-0.3,0.5-0.4c0-0.7,0.1-1.4,0.1-2.1
c0.9,0,1.9,0,2.8,0c0,0.9,0,1.7,0,2.6c0,0,0.2,2.4-1.2,4c-0.8,1-2,1.5-3.6,1.5c-0.1,0-0.2,0-0.3,0h0c-4.2,0-4.5-4.9-4.4-6.4
c0,0,0-0.1,0-0.1c0-0.2,0-0.3-0.1-0.4c-0.1-0.1-0.2-0.1-0.3-0.1c-0.1,0-0.2,0-0.2,0c0,0,0,0,0,0c-0.1,0.1-0.1,0.1-0.2,0.2
c0,0,0,0,0,0.1C182.1,156,180.8,159.7,175.7,159.7L175.7,159.7z"/>
<path class="st5" d="M211.7,160.1c-1.9-0.1-5.2-0.7-5.1-4.3c0.1-3.4,0.1-4.2,0.1-4.4c0,0,0,0,0,0c0-0.7,0-1.4,0.1-2
c0-0.8-0.6-1.5-1.4-1.5c-0.7,0-1.3,0.4-1.5,1.1c0,0.5,0,1.1,0,1.6c0,0.1,0,0.1,0,0.1l-0.1,3.3c0.4,0,0.8,0,1.2,0l-0.2,5.5
c-3.6-0.1-7.3-0.2-10.9-0.3c0-1.8,0.1-3.6,0.1-5.5c0.4,0,0.9,0,1.3,0c0-2,0.1-4,0.1-6.1c-0.6,0-1.2,0-1.8,0c0-1.8,0.1-3.6,0.1-5.3
c3.2,0.1,6.3,0.1,9.5,0.2c-0.1,0.1-0.3,0.4-0.5,0.7c-0.2,0.3-0.4,0.7-0.6,1.1c-0.4,1-0.7,2-0.8,3.2c0,0.3,0,0.7,0,1
c0.1,0.3,0.3,0.5,0.5,0.5c0,0,0,0,0,0c0.6,0,0.7-0.7,0.7-0.9c0,0,0.9-5.2,5.8-5.9c0.1,0,0.1,0,0.2,0c0.3,0,0.7-0.1,1-0.1
c3,0.1,5.4,2.6,5.3,5.6c0,0.2,0,0.4-0.1,0.6c-0.1,2-0.2,4.1-0.2,6.1c0.6,0,1.2,0.1,1.8,0.1c-0.1,1.4-0.1,2.9-0.2,4.3
C215.2,159.7,213.6,160.2,211.7,160.1L211.7,160.1z"/>
<path class="st5" d="M249.9,162.1c0.1-1.8,0.3-3.6,0.4-5.4c0.4,0,0.9,0.1,1.3,0.1c0.2-2,0.3-4,0.5-6c-0.6,0-1.2-0.1-1.8-0.1
c0.1-1.8,0.3-3.5,0.4-5.3c3.2,0.2,6.3,0.5,9.5,0.8c-0.1,0.1-0.3,0.3-0.5,0.6c-0.2,0.3-0.5,0.7-0.7,1.1c-0.5,0.9-0.8,2-1,3.2
c0,0.3-0.1,0.7-0.1,1c0.1,0.3,0.2,0.5,0.5,0.5c0,0,0,0,0,0c0.6,0.1,0.7-0.6,0.8-0.9c0,0,1.2-5.2,6.2-5.6c0,0,0.1,0,0.1,0
c0.4,0,0.7,0,1,0c3,0.3,5.1,2.9,5,5.9c-0.2,2.7-1,3.6-1.2,3.7c-2.4-0.2-4.8-0.5-7.1-0.7c0.1-0.6,0.1-1.3,0.2-1.9
c0.1-0.8-0.5-1.5-1.3-1.6c-0.7-0.1-1.3,0.4-1.5,1c0,0.5-0.1,1.1-0.1,1.6c0,0,0,0.1,0,0.1c-0.1,1.1-0.2,2.2-0.3,3.3
c1,0.1,2,0.2,3.1,0.3c-0.2,1.8-0.3,3.6-0.5,5.4C258.4,162.7,254.2,162.4,249.9,162.1L249.9,162.1z"/>
<path class="st5" d="M244.3,162.1c-2.2-0.2-3.9-2-3.7-4c0.1-2.1,2.1-3.6,4.3-3.4c2.2,0.2,3.9,2,3.7,4
C248.4,160.7,246.5,162.3,244.3,162.1L244.3,162.1z"/>
<path class="st5" d="M278.6,165.2c-3-0.3-5.1-3-4.8-5.9c0-0.2,0-0.4,0.1-0.6c0.2-2,0.4-4,0.6-6.1c-0.6-0.1-1.2-0.1-1.9-0.2
c0.2-1.8,0.4-3.7,0.6-5.5c3.3,0.3,6.5,0.7,9.8,1c-0.4,3.4-0.7,6.8-1.1,10.2c-0.1,0.8,0.5,1.5,1.3,1.6c0.7,0.1,1.3-0.3,1.6-1
c0.1-0.5,0.1-1.1,0.2-1.6c0,0,0-0.1,0-0.1c0.1-1.1,0.3-2.2,0.4-3.3c-0.4,0-0.8-0.1-1.2-0.1c0.2-1.8,0.4-3.6,0.6-5.4
c3.7,0.4,7.4,0.9,11.1,1.3c-0.2,1.8-0.5,3.6-0.7,5.4c-0.4-0.1-0.9-0.1-1.3-0.2c-0.2,2-0.5,4-0.7,6c0.6,0.1,1.2,0.1,1.8,0.2
c-0.2,1.8-0.4,3.5-0.7,5.3c-3.1-0.4-6.2-0.8-9.3-1.1c0.1-0.1,0.3-0.3,0.5-0.6c0.2-0.3,0.5-0.7,0.7-1c0.5-0.9,0.9-2,1.1-3.1
c0-0.3,0.1-0.7,0.1-1c-0.1-0.3-0.2-0.5-0.5-0.5c0,0,0,0,0,0c-0.6-0.1-0.7,0.6-0.8,0.9c0,0.1-1.3,5.1-6.3,5.4c0,0-0.1,0-0.1,0
C279.3,165.3,279,165.3,278.6,165.2L278.6,165.2z"/>
<path class="st1" d="M78.5,140c-2.1,0.2-4.2,0.4-6.3,0.7c-6.1,0.7-12.2,1.4-18.3,2.1c0.2,1.9,0.5,3.7,0.7,5.6
c1-0.1,1.9-0.2,2.9-0.4c0.5,4.2,1,8.3,1.5,12.5c-1,0.1-1.9,0.2-2.9,0.4c0.2,1.9,0.5,3.7,0.7,5.6c0.9-0.1,1.9-0.2,2.8-0.4
c3-0.4,6-0.7,9-1.1c1.6-0.2,3.2-0.4,4.9-0.5c-0.2-1.9-0.4-3.7-0.6-5.6c-1.6,0.2-3.3,0.4-4.9,0.5c-0.2-1.4-0.3-2.8-0.5-4.1
c0.6-0.1,1.2-0.1,1.9-0.2c0.1,0.7,0.2,1.4,0.2,2.1c1-0.1,2-0.2,3.1-0.3c-0.3-2.8-0.6-5.7-0.9-8.5c-1,0.1-2.1,0.2-3.1,0.3
c0,0.3,0.1,0.6,0.1,0.8c0,1.4-0.9,1.8-1.3,1.9c-0.1,0-0.2,0-0.3,0c-0.2-1.5-0.3-3.1-0.5-4.6c1.3-0.1,2.6-0.3,3.9-0.4
c0.7,0,2.3,0.4,2.6,3c0,0,0,0,0,0c0,0.4,0.1,0.7,0.1,1.1c2.1-0.2,4.2-0.4,6.2-0.6c-0.1-1.4-0.3-2.9-0.4-4.3
C78.9,143.8,78.7,141.9,78.5,140L78.5,140z M78.2,140.4c0.2,1.8,0.4,3.5,0.5,5.3c0.1,1.3,0.3,2.7,0.4,4c-1.9,0.2-3.8,0.4-5.6,0.6
c0-0.3-0.1-0.5-0.1-0.8c0-0.3-0.1-0.5-0.1-0.8c0,0,0,0.1-0.1,0.1c-0.5-2.2-2.1-2.5-2.8-2.5c0,0,0,0,0,0c0,0,0,0,0,0
c-1.3,0.1-2.6,0.3-3.9,0.4c-0.1,0-0.2,0-0.3,0c0,0.1,0,0.2,0,0.3c0.2,1.5,0.3,3.1,0.5,4.6c0,0.1,0,0.2,0,0.3c0.1,0,0.2,0,0.3,0
c0.1,0,0.2,0,0.3,0c0.5-0.1,1.6-0.5,1.6-2.3c0-0.2,0-0.4-0.1-0.5c0.8-0.1,1.7-0.2,2.5-0.3c0.3,2.6,0.6,5.3,0.9,7.9
c-0.8,0.1-1.6,0.2-2.5,0.3c-0.1-0.6-0.1-1.2-0.2-1.8c0-0.1,0-0.2,0-0.3c-0.1,0-0.2,0-0.3,0c-0.6,0.1-1.2,0.1-1.8,0.2
c-0.1,0-0.2,0-0.3,0c0,0.1,0,0.2,0,0.3c0.2,1.4,0.3,2.8,0.5,4.1c0,0.1,0,0.2,0,0.3c0.1,0,0.2,0,0.3,0c1.5-0.2,3.1-0.3,4.6-0.5
c0.2,1.7,0.4,3.3,0.5,5c-1.5,0.2-3,0.3-4.6,0.5c-3,0.3-6,0.7-9,1.1c-0.8,0.1-1.7,0.2-2.5,0.3c-0.2-1.7-0.4-3.3-0.6-5
c0.9-0.1,1.7-0.2,2.6-0.3c0.1,0,0.2,0,0.3,0c0-0.1,0-0.2,0-0.3c-0.5-4.2-1-8.3-1.5-12.5c0-0.1,0-0.2,0-0.3c-0.1,0-0.2,0-0.3,0
c-0.9,0.1-1.7,0.2-2.6,0.3c-0.2-1.7-0.4-3.3-0.6-5c6-0.8,12-1.5,18-2.1C74.2,140.8,76.2,140.6,78.2,140.4L78.2,140.4z"/>
<path class="st1" d="M89.2,157.5c-1.2,0.1-2.2-1.2-2.4-3c-0.2-1.7,0.7-3.2,1.8-3.3c1.2-0.1,2.3,1.2,2.4,3
C91.2,155.9,90.4,157.4,89.2,157.5L89.2,157.5z M88.1,144.9c-5.4,0.5-9.4,5.1-8.8,10.3c0.5,5.2,5.3,9,10.5,8.5
c5.3-0.5,9.2-5,8.8-10.2C98.2,148.3,93.5,144.4,88.1,144.9L88.1,144.9z M89.3,157.8c1.3-0.1,2.3-1.8,2.1-3.7
c-0.2-1.9-1.4-3.4-2.7-3.2c-1.3,0.1-2.3,1.8-2.1,3.7C86.7,156.5,87.9,157.9,89.3,157.8L89.3,157.8z M88.1,145.2
c5.2-0.5,9.8,3.3,10.2,8.3c0.4,5-3.4,9.4-8.6,9.9c-5.1,0.5-9.7-3.2-10.2-8.2C79,150.2,82.9,145.7,88.1,145.2L88.1,145.2z"/>
<path class="st1" d="M109.5,155.8c-1.2,0.1-2.2-1.3-2.3-3c-0.1-1.7,0.7-3.2,1.9-3.3c1.2-0.1,2.2,1.3,2.3,3
C111.6,154.3,110.7,155.8,109.5,155.8L109.5,155.8z M108.7,143.3c-5.4,0.4-9.5,4.9-9,10.1c0.4,5.2,5.1,9.1,10.4,8.7
c5.3-0.4,9.3-4.8,9.1-10C118.7,146.9,114.1,142.9,108.7,143.3L108.7,143.3z M109.6,156.1c1.3-0.1,2.3-1.7,2.2-3.6
c-0.1-1.9-1.3-3.4-2.7-3.3c-1.3,0.1-2.3,1.7-2.2,3.6C107,154.8,108.2,156.2,109.6,156.1L109.6,156.1z M108.7,143.6
c5.2-0.4,9.7,3.5,10,8.5c0.3,5-3.6,9.4-8.8,9.7c-5.1,0.4-9.6-3.4-10-8.4C99.5,148.4,103.4,143.9,108.7,143.6L108.7,143.6z"/>
<path class="st1" d="M130.8,154.6c-1,0-1.8-1.3-1.9-3.1c-0.1-1.7,0.6-3.2,1.6-3.2c1,0,1.8,1.3,1.9,3.1
C132.4,153.1,131.7,154.6,130.8,154.6L130.8,154.6z M140.2,134.2c-2.1,0.1-4.1,0.2-6.2,0.2c-1.7,0.1-3.4,0.2-5.1,0.2
c0.1,1.8,0.2,3.7,0.3,5.5c1.2-0.1,2.4-0.1,3.5-0.2c0,1.1,0.1,2.1,0.1,3.2c-1.2-0.7-2.7-0.9-4-0.8c-0.1,0-0.2,0-0.3,0
c-5.1,0.4-8.4,4.4-8.2,9.6c0.4,7.7,4.7,9.1,7.7,8.9c0.1,0,0.2,0,0.3,0c5.1-0.4,6.3-5.9,6.4-6.7c0,0,0,0,0,0c0,0,0.2,4-0.9,5.8
c1.3-0.1,2.5-0.1,3.8-0.2c0,0,0,0,0-0.1c0.5,0,1,0,1.5-0.1c0,0,0,0,0,0c1.3,0,2.6-0.1,3.8-0.1l-0.2-5.7c-0.6,0-1.3,0-1.9,0.1
c-0.2-4.8-0.3-9.5-0.5-14.3C140.3,137.9,140.2,136,140.2,134.2C140.2,134.2,140.2,134.2,140.2,134.2L140.2,134.2z M130.8,154.9
c1.1-0.1,2-1.6,1.9-3.6c-0.1-1.9-1.1-3.4-2.2-3.4c-1.2,0.1-2,1.6-1.9,3.6C128.6,153.5,129.6,155,130.8,154.9L130.8,154.9z
M139.9,134.5c0.1,1.7,0.1,3.5,0.2,5.2c0.2,4.8,0.3,9.5,0.5,14.3c0,0.1,0,0.2,0,0.3c0.1,0,0.2,0,0.3,0c0.5,0,1.1,0,1.6-0.1
c0.1,1.7,0.1,3.4,0.2,5.1c-1.1,0-2.2,0.1-3.2,0.1c0,0,0,0,0,0c-0.1,0-0.2,0-0.3,0c-0.5,0-1,0-1.5,0.1c-0.2,0-0.3,0-0.5,0
c0,0,0,0,0,0.1c-0.9,0.1-1.9,0.1-2.8,0.2c0.9-2,0.7-5.4,0.7-5.5c0-0.1,0-0.2,0-0.3c-0.1,0-0.2,0-0.3,0c0,0,0,0,0,0l-0.2,0
c0,0.1,0,0.2,0,0.2c-0.1,0.6-1.2,6.1-6.1,6.5c-0.1,0-0.2,0-0.3,0c-1.3,0.1-3.2-0.1-4.7-1.5c-1.6-1.4-2.5-3.8-2.6-7.1
c-0.2-5.1,3-8.9,7.9-9.3c0.1,0,0.2,0,0.3,0c1.5-0.1,2.8,0.2,3.8,0.8c0.2,0.1,0.3,0.2,0.5,0.3c0-0.2,0-0.4,0-0.6
c0-1.1-0.1-2.2-0.1-3.2c0-0.1,0-0.2,0-0.3c-0.1,0-0.2,0-0.3,0c-1.1,0-2.1,0.1-3.2,0.1c-0.1-1.6-0.2-3.3-0.2-4.9
c1.6-0.1,3.2-0.1,4.8-0.2C136,134.6,137.9,134.6,139.9,134.5L139.9,134.5z"/>
<path class="st1" d="M227.4,155c-1-0.1-1.7-1.5-1.6-3.2c0.1-1.7,0.9-3.1,1.9-3.1c1,0.1,1.7,1.5,1.6,3.3
C229.2,153.6,228.3,155,227.4,155L227.4,155z M238.8,135.6c-2.1-0.1-4.1-0.3-6.2-0.4c-1.7-0.1-3.4-0.2-5.1-0.3
c-0.1,1.8-0.2,3.7-0.3,5.5c1.2,0.1,2.4,0.1,3.5,0.2c-0.1,1.1-0.1,2.1-0.2,3.2c-1.2-0.8-2.6-1.2-3.9-1.2c-0.1,0-0.2,0-0.3,0
c-5.1-0.1-8.8,3.5-9.1,8.7c-0.4,7.7,3.7,9.5,6.8,9.7c0.1,0,0.2,0,0.3,0c5.2,0.1,6.8-5.3,7.1-6c0,0,0,0,0,0c0,0-0.2,4-1.5,5.7
c1.3,0.1,2.5,0.1,3.8,0.2c0,0,0,0,0-0.1c0.5,0,1,0.1,1.5,0.1c0,0,0,0,0,0c1.3,0.1,2.6,0.2,3.8,0.2c0.1-1.9,0.3-3.8,0.4-5.6
c-0.6,0-1.3-0.1-1.9-0.1c0.3-4.8,0.6-9.5,0.9-14.3C238.6,139.3,238.7,137.4,238.8,135.6L238.8,135.6z M227.4,155.3
c1.1,0.1,2.1-1.4,2.2-3.3c0.1-1.9-0.7-3.5-1.9-3.6c-1.2-0.1-2.1,1.4-2.2,3.3C225.4,153.6,226.2,155.2,227.4,155.3L227.4,155.3z
M238.5,135.9c-0.1,1.7-0.2,3.5-0.3,5.2c-0.3,4.8-0.6,9.5-0.9,14.3c0,0.1,0,0.2,0,0.3l0.3,0c0.5,0,1.1,0.1,1.6,0.1
c-0.1,1.7-0.2,3.4-0.3,5.1c-1.1-0.1-2.2-0.1-3.2-0.2c0,0,0,0,0,0c-0.1,0-0.2,0-0.3,0c-0.5,0-1-0.1-1.5-0.1c-0.2,0-0.3,0-0.5,0
c0,0,0,0,0,0.1c-0.9,0-1.9-0.1-2.8-0.1c1.1-1.9,1.3-5.3,1.3-5.4c0-0.1,0-0.2,0-0.3c-0.1,0-0.2,0-0.3,0c0,0,0,0,0,0
c-0.1,0-0.2,0-0.2,0c0,0.1,0,0.2-0.1,0.2c-0.2,0.6-1.8,5.9-6.8,5.8c-0.1,0-0.2,0-0.3,0c-1.3-0.1-3.2-0.5-4.6-2
c-1.4-1.6-2.1-4.1-1.9-7.3c0.3-5.1,3.9-8.6,8.8-8.4c0.1,0,0.2,0,0.3,0c1.5,0.1,2.8,0.5,3.7,1.2c0.2,0.1,0.3,0.2,0.5,0.3
c0-0.2,0-0.4,0-0.6c0.1-1.1,0.1-2.1,0.2-3.2c0-0.1,0-0.2,0-0.3c-0.1,0-0.2,0-0.3,0c-1.1-0.1-2.1-0.1-3.2-0.2
c0.1-1.6,0.2-3.3,0.3-4.9c1.6,0.1,3.2,0.2,4.8,0.3C234.6,135.6,236.5,135.7,238.5,135.9L238.5,135.9z"/>
<path class="st1" d="M155.7,153.3c0-0.6,0-1.2,0-1.9c0-0.2-0.1-0.3-0.1-0.5c0-0.2,0-0.3,0-0.5c0-0.6,0-1.2,0-1.9c0.8,0,1.5,0,2.3,0
c1.3,0,2.4,1,2.4,2.3c0,1.3-1,2.4-2.3,2.4C157.2,153.3,156.4,153.3,155.7,153.3L155.7,153.3z M155.5,145.1c0-0.5,0-1,0-1.5
c0-0.1,0-0.2,0-0.4c0-0.1,0-0.3,0-0.4c0-0.5,0-1,0-1.5c0.6,0,1.3,0,1.9,0c1.1,0,1.9,0.8,2,1.8c0,1-0.8,1.9-1.9,1.9
C156.7,145.1,156.1,145.1,155.5,145.1L155.5,145.1z M155.4,135.3c-3.2,0.1-6.4,0.1-9.6,0.2c0,0,0,0,0,0c-0.9,0-1.9,0.1-2.8,0.1
c0.1,1.9,0.1,3.8,0.2,5.6c0.9,0,1.9-0.1,2.8-0.1c0.1,4.2,0.3,8.4,0.4,12.6c-0.9,0-1.8,0.1-2.7,0.1c0.1,1.9,0.1,3.8,0.2,5.8
c6.4-0.2,12.7-0.4,19.1-0.4l0,0c0,0,0.1,0,0.1,0h0c3.3,0,6-2.8,6-6.1c0-3.3-2.7-6.2-6-6.2c-0.3,0-0.5,0-0.8,0c0,0-0.1,0-0.1-0.1
c0-0.1,0.2-0.1,0.2-0.1c3.1,0,5.5-2.9,5.5-5.9c0-3.1-2.6-5.5-5.7-5.5C162.1,135.2,155.4,135.3,155.4,135.3
C155.4,135.3,155.4,135.3,155.4,135.3L155.4,135.3z M155.3,150.5c0,0.2,0,0.3,0,0.5c0,0.2,0,0.3,0.1,0.5c0,0.6,0,1.2,0,1.8
c0,0.1,0,0.2,0,0.3c0.1,0,0.2,0,0.3,0c0.8,0,1.5,0,2.3,0c1.5,0,2.6-1.2,2.6-2.7c0-1.5-1.2-2.6-2.7-2.6c-0.8,0-1.5,0-2.3,0
c-0.1,0-0.2,0-0.3,0c0,0.1,0,0.2,0,0.3C155.3,149.3,155.3,149.9,155.3,150.5L155.3,150.5z M155.1,142.8c0,0.1,0,0.3,0,0.4
c0,0.1,0,0.3,0,0.4c0,0.5,0,1,0,1.5c0,0.1,0,0.2,0,0.3c0.1,0,0.2,0,0.3,0c0.6,0,1.2,0,1.9,0c1.2,0,2.2-1,2.2-2.2
c0-1.2-1-2.2-2.3-2.1c-0.6,0-1.3,0-1.9,0c-0.1,0-0.2,0-0.3,0c0,0.1,0,0.2,0,0.3C155.1,141.9,155.1,142.4,155.1,142.8L155.1,142.8z
M155.1,135.6L155.1,135.6c0.1,0,0.2,0,0.3,0c2.3,0,4.5-0.1,6.8-0.1c2.9,0,5.3,2.3,5.4,5.2c0,3-2.4,5.6-5.2,5.6
c-0.1,0-0.3,0-0.4,0.2c-0.1,0.1-0.1,0.2-0.1,0.3c0,0.2,0.2,0.3,0.4,0.3c0,0,0,0,0,0h0c0.3,0,0.5,0,0.8,0c3.1,0,5.7,2.7,5.7,5.9
c0,3.1-2.5,5.7-5.7,5.8c0,0-0.1,0-0.1,0c-0.1,0-0.2,0-0.3,0v0c-6.2,0.1-12.4,0.2-18.5,0.4c-0.1-1.7-0.1-3.4-0.2-5.2
c0.8,0,1.6-0.1,2.4-0.1c0.1,0,0.2,0,0.3,0c0-0.1,0-0.2,0-0.3c-0.1-4.2-0.3-8.4-0.4-12.6c0-0.1,0-0.2,0-0.3c-0.1,0-0.2,0-0.3,0
c-0.8,0-1.6,0.1-2.5,0.1c-0.1-1.7-0.1-3.4-0.2-5c0.8,0,1.7-0.1,2.5-0.1c0.1,0,0.2,0,0.3,0c0,0,0,0,0,0
C149.1,135.7,152.1,135.7,155.1,135.6L155.1,135.6z"/>
<path class="st1" d="M179.1,153.7c-0.6,0-1.1-0.5-1.1-1.1c0-1.7,1.7-1.8,2.4-1.8c0.1,0,0.2,0,0.2,0c0,0,0.1,1.6-0.1,2
C180.2,153.3,179.7,153.7,179.1,153.7L179.1,153.7z M181.1,141.3C181.1,141.3,181,141.3,181.1,141.3c-3.5,0-8,0-9.3,3.1
c-0.3,0.5-0.4,1-0.4,1.6c0,1.8,1.5,3.2,3.2,3.2c1.8,0,3.2-1.4,3.2-3.2c0-0.1,0-0.1,0-0.2c0,0,0.1,0,0.2,0c0.7,0,2.8,0.4,2.6,3.5
c-2.7,0.1-3.9,0.2-5.3,0.4c-2.8,0.4-5.1,2.3-5,5.1c0,2.8,2.3,5,5.1,5.1c0.1,0,0.3,0,0.4,0c5.5,0,6.6-4.3,6.8-7.1
c0,0,0.1-0.1,0.1-0.1c0,0,0.1,0,0.2,0c0.1,0,0.2,0,0.2,0c0.1,0.1,0.1,0.1,0.1,0.5c0,1.6,0.3,6.5,4.6,6.6c0.1,0,0.2,0,0.4,0
c5.5-0.3,5-5.7,5-5.7c0-0.9,0-1.8,0-2.7c-1,0-2.1,0-3.1-0.1c0,0.7-0.1,1.5-0.1,2.2c0,0-0.1,0.3-0.3,0.3h0c-0.3,0-0.3-0.4-0.3-0.4
c0-1.6,0-3.3,0.1-4.9C189.2,148.4,189.3,141.4,181.1,141.3L181.1,141.3z M179.1,154c0.7,0,1.3-0.4,1.6-1.1c0.2-0.5,0.2-1.9,0.2-2.2
c0-0.1,0-0.2,0-0.3c-0.1,0-0.2,0-0.3,0c0,0-0.1,0-0.3,0c-0.5,0-1.5,0.1-2.1,0.7c-0.4,0.4-0.5,0.8-0.5,1.4
C177.7,153.3,178.3,154,179.1,154L179.1,154z M181.1,141.6L181.1,141.6c7.8,0.1,7.8,6.5,7.8,6.8c0,1.6,0,3.3-0.1,4.9
c0,0.1,0,0.3,0.2,0.5c0.1,0.1,0.2,0.2,0.4,0.2c0.4,0,0.6-0.3,0.6-0.5c0,0,0,0,0,0c0,0,0,0,0,0c0-0.6,0.1-1.3,0.1-1.9
c0.8,0,1.7,0,2.5,0c0,0.8,0,1.6,0,2.4c0,0,0,0,0,0c0,0,0,0,0,0c0,0,0.2,2.3-1.1,3.9c-0.8,0.9-2,1.4-3.5,1.5c-0.1,0-0.2,0-0.3,0
c-3.9,0-4.3-4.4-4.3-6.3c0,0,0-0.1,0-0.1c0-0.2,0-0.4-0.2-0.5c-0.1-0.1-0.2-0.1-0.4-0.1c-0.1,0-0.2,0-0.2,0c0,0-0.1,0-0.1,0
c0,0,0,0-0.1,0.1c0,0-0.1,0.1-0.1,0.1c0,0-0.1,0.1-0.1,0.1c0,0,0,0.1,0,0.1c-0.2,3.1-1.5,6.8-6.4,6.8c-0.1,0-0.3,0-0.4,0
c-2.7-0.1-4.8-2.2-4.8-4.8c0-2.8,2.4-4.5,4.8-4.8c1.3-0.2,2.5-0.3,5.2-0.4c0.1,0,0.2,0,0.3,0c0-0.1,0-0.2,0-0.3
c0.1-1.3-0.1-2.3-0.8-2.9c-0.7-0.8-1.8-0.9-2.1-0.9c-0.1,0-0.1,0-0.2,0c-0.1,0-0.2,0-0.3,0c0,0.1,0,0.2,0,0.3c0,0,0,0,0,0
c0,0,0,0.1,0,0.1c0,1.6-1.3,2.9-2.9,2.9c-1.6,0-2.9-1.3-2.9-2.9c0-0.5,0.1-1,0.4-1.4c0,0,0,0,0,0c0,0,0,0,0,0
c1.3-2.9,5.4-2.9,8.8-2.9L181.1,141.6C181,141.6,181.1,141.6,181.1,141.6L181.1,141.6z"/>
<path class="st1" d="M209.5,141.9c-0.4,0-0.7,0-1.1,0.1c0,0,0,0,0,0c0,0-0.1,0-0.1,0c-4.9,0.7-5.9,5.6-6,6.1c0,0.5-0.2,0.8-0.5,0.8
c0,0,0,0,0,0c-0.2,0-0.3-0.2-0.4-0.3c0-0.3,0-0.7,0-1c0.1-1.3,0.4-2.4,0.8-3.2c0.2-0.4,0.4-0.8,0.6-1.1c0.4-0.6,0.7-0.9,0.7-0.9
c0,0-0.1,0-0.1,0c-0.8,0-1.5,0-2.3-0.1c-0.5,0-0.9,0-1.4,0c-1.5,0-2.9-0.1-4.4-0.1c-0.6,0-1.2,0-1.8,0c0,1.9-0.1,3.8-0.1,5.6
c0.6,0,1.2,0,1.8,0c0,1.9-0.1,3.8-0.1,5.8c-0.4,0-0.9,0-1.3,0c0,1.9-0.1,3.8-0.1,5.8c0.4,0,0.9,0,1.3,0c2.1,0,4.1,0.1,6.2,0.1
c1.2,0,2.5,0.1,3.7,0.1c0.1-1.9,0.1-3.8,0.2-5.8c-0.4,0-0.8,0-1.2,0c0-1,0.1-2.1,0.1-3.1c0,0,0,0,0,0c0-0.6,0-1.2,0.1-1.7
c0.1-0.6,0.7-1,1.3-1c0.7,0,1.3,0.6,1.3,1.4c0,0,0,0,0,0c0,0.7,0,1.4-0.1,2c0,0-0.1,4.4-0.1,4.4c-0.1,3.1,2.2,4.3,5.2,4.5
c1.9,0.1,3.6-0.4,4.6-1.5c0.1-1.5,0.1-3,0.2-4.5c-0.6,0-1.2-0.1-1.8-0.1c0.1-2,0.2-3.9,0.2-5.9c0-0.2,0-0.4,0.1-0.6
C215.1,144.6,212.6,142,209.5,141.9L209.5,141.9z M209.5,142.2c3,0.1,5.3,2.6,5.1,5.5c0,0.2,0,0.4-0.1,0.6c0,0,0,0,0,0l0,0
c-0.1,2-0.2,3.9-0.2,5.9c0,0.1,0,0.2,0,0.3c0.1,0,0.2,0,0.3,0c0.5,0,1,0,1.5,0.1c-0.1,1.4-0.1,2.7-0.2,4.1
c-0.9,0.9-2.4,1.4-4.3,1.3c-1.9-0.1-5-0.7-4.9-4.1c0.1-3,0.1-4,0.1-4.4h0c0-0.7,0-1.4,0.1-2.1c0-0.9-0.7-1.6-1.6-1.7
c-0.8,0-1.4,0.5-1.6,1.2c0,0,0,0,0,0c0,0,0,0,0,0c0,0.5,0,1,0,1.4h0c0,0.1,0,0.2,0,0.3c0,1-0.1,2.1-0.1,3.1c0,0.1,0,0.2,0,0.3
l0.3,0c0.3,0,0.6,0,0.9,0c-0.1,1.7-0.1,3.4-0.2,5.2c-1.1,0-2.3-0.1-3.4-0.1c-2.1-0.1-4.1-0.1-6.2-0.1c-0.3,0-0.7,0-1,0
c0-1.7,0.1-3.4,0.1-5.2c0.3,0,0.7,0,1,0c0.1,0,0.2,0,0.3,0c0-0.1,0-0.2,0-0.3c0-1.9,0.1-3.8,0.1-5.8c0-0.1,0-0.2,0-0.3
c-0.1,0-0.2,0-0.3,0c-0.5,0-1,0-1.5,0c0-1.7,0.1-3.4,0.1-5c0.5,0,1,0,1.5,0c1.5,0,2.9,0.1,4.4,0.1c0.5,0,0.9,0,1.4,0
c0.6,0,1.2,0,1.7,0c-0.1,0.1-0.2,0.3-0.3,0.4c-0.2,0.3-0.4,0.7-0.6,1.1c-0.4,1-0.7,2.1-0.8,3.3c0,0.3,0,0.7,0,1c0,0,0,0,0,0.1
c0,0,0,0,0,0c0.1,0.3,0.3,0.5,0.7,0.5c0.7,0,0.8-0.8,0.8-1.1c0,0,0.8-5.1,5.7-5.8c0,0,0.1,0,0.1,0c0,0,0,0,0,0c0,0,0,0,0,0
c0,0,0,0,0,0C208.9,142.2,209.2,142.2,209.5,142.2L209.5,142.2z"/>
<path class="st1" d="M266.6,145.7c-0.4,0-0.7,0-1.1,0h0c0,0-0.1,0-0.1,0c-5,0.4-6.3,5.3-6.3,5.7c-0.1,0.5-0.2,0.8-0.6,0.8
c0,0,0,0,0,0c-0.2,0-0.3-0.2-0.4-0.3c0-0.3,0.1-0.7,0.1-1c0.2-1.3,0.6-2.3,1-3.1c0.2-0.4,0.4-0.8,0.6-1c0.4-0.6,0.7-0.8,0.7-0.8
c0,0-0.1,0-0.1,0c-1.2-0.1-2.4-0.2-3.6-0.3c-2.1-0.2-4.1-0.3-6.2-0.5c-0.1,1.9-0.3,3.7-0.4,5.6c0.6,0,1.2,0.1,1.8,0.1
c-0.2,1.9-0.3,3.8-0.5,5.7c-0.4,0-0.9-0.1-1.3-0.1c-0.2,1.9-0.3,3.8-0.5,5.7c4.4,0.3,8.7,0.7,13.1,1.1c0.2-1.9,0.4-3.8,0.5-5.7
c-1-0.1-2-0.2-3.1-0.3c0.1-1,0.2-2.1,0.3-3.1h0c0.1-0.6,0.1-1.1,0.2-1.7c0.2-0.6,0.7-1,1.4-0.9c0.7,0.1,1.3,0.7,1.2,1.4
c0,0,0,0,0,0c-0.1,0.7-0.1,1.4-0.2,2c2.5,0.2,4.9,0.5,7.3,0.7c0,0,1.1-0.7,1.3-3.9C271.9,148.8,269.8,146,266.6,145.7L266.6,145.7z
M266.6,146c2.9,0.3,5,2.8,4.8,5.8c-0.2,2.5-0.9,3.4-1.1,3.6c-2.3-0.2-4.6-0.4-6.9-0.7c0.1-0.6,0.1-1.2,0.2-1.7
c0.1-0.9-0.6-1.7-1.5-1.8c-0.8-0.1-1.5,0.4-1.7,1.1c0,0,0,0,0,0c0,0,0,0,0,0c0,0.5-0.1,0.9-0.1,1.4h0c0,0.1,0,0.2,0,0.3
c-0.1,1-0.2,2.1-0.3,3.1c0,0.1,0,0.2,0,0.3c0.1,0,0.2,0,0.3,0c0.9,0.1,1.8,0.2,2.8,0.3c-0.2,1.7-0.3,3.4-0.5,5.1
c-4.2-0.4-8.3-0.7-12.5-1.1c0.1-1.7,0.3-3.4,0.4-5.1c0.3,0,0.7,0.1,1,0.1c0.1,0,0.2,0,0.3,0c0-0.1,0-0.2,0-0.3
c0.2-1.9,0.3-3.8,0.5-5.7c0-0.1,0-0.2,0-0.3c-0.1,0-0.2,0-0.3,0c-0.5,0-1-0.1-1.5-0.1c0.1-1.7,0.3-3.3,0.4-5c2,0.2,3.9,0.3,5.9,0.5
c1,0.1,2.1,0.2,3.1,0.3c-0.1,0.1-0.2,0.3-0.3,0.4c-0.2,0.3-0.5,0.7-0.7,1.1c-0.5,0.9-0.8,2-1,3.2c0,0.3-0.1,0.7-0.1,1
c0,0,0,0,0,0.1c0,0,0,0,0,0.1c0.1,0.3,0.3,0.5,0.7,0.6c0.7,0.1,0.9-0.8,0.9-1c0,0,1.1-5,6.1-5.4c0,0,0.1,0,0.1,0c0,0,0,0,0,0
c0,0,0,0,0,0C266,146,266.3,146,266.6,146L266.6,146z"/>
<path class="st1" d="M244.9,154.5c-2.3-0.2-4.3,1.4-4.4,3.6c-0.1,2.1,1.6,4,3.9,4.2c2.3,0.2,4.3-1.4,4.4-3.6
C248.9,156.5,247.2,154.7,244.9,154.5L244.9,154.5z M244.9,154.8c2.1,0.2,3.7,1.9,3.6,3.9c-0.2,2-2,3.4-4.1,3.3
c-2.1-0.2-3.7-1.9-3.6-3.9C240.9,156.1,242.7,154.6,244.9,154.8L244.9,154.8z"/>
<path class="st1" d="M283.2,147.8c-3.4-0.4-6.7-0.7-10.1-1.1c0,0.4-0.1,0.9-0.1,1.3c-0.2,1.5-0.3,3-0.5,4.5
c0.6,0.1,1.2,0.1,1.9,0.2c-0.2,2-0.4,3.9-0.6,5.9c0,0.2-0.1,0.4-0.1,0.6c-0.3,3,1.9,5.8,5,6.1c0.4,0,0.7,0,1,0h0c0,0,0.1,0,0.1,0
c4.9-0.3,6.3-5.1,6.4-5.6c0.1-0.4,0.2-0.8,0.6-0.8c0,0,0,0,0,0c0.2,0,0.3,0.2,0.4,0.3c0,0.3-0.1,0.7-0.1,1
c-0.2,1.3-0.6,2.3-1.1,3.1c-0.2,0.4-0.5,0.7-0.7,1c-0.4,0.6-0.8,0.8-0.8,0.8c0,0,0.1,0,0.1,0l0,0c1.2,0.1,2.4,0.3,3.6,0.4l0,0
c2,0.2,4.1,0.5,6.1,0.7c0.2-1.9,0.5-3.7,0.7-5.6c-0.6-0.1-1.2-0.1-1.8-0.2c0.2-1.9,0.5-3.8,0.7-5.7c0.4,0.1,0.9,0.1,1.3,0.2
c0.2-1.9,0.5-3.8,0.7-5.7c-3.8-0.5-7.6-0.9-11.4-1.4c-0.2,1.9-0.4,3.8-0.7,5.7c0.4,0,0.8,0.1,1.2,0.1c-0.1,1-0.2,2.1-0.4,3.1h0
c-0.1,0.6-0.1,1.1-0.2,1.7c-0.2,0.6-0.8,1-1.4,0.9c-0.7-0.1-1.3-0.7-1.2-1.5c0,0,0,0,0,0C282.4,154.7,282.8,151.3,283.2,147.8
C283.2,147.8,283.2,147.8,283.2,147.8L283.2,147.8z M282.8,148.1c-0.4,3.4-0.7,6.7-1.1,10.1c-0.1,0.9,0.5,1.7,1.4,1.8
c0.8,0.1,1.5-0.4,1.7-1.1c0,0,0,0,0,0c0,0,0,0,0,0c0.1-0.5,0.1-0.9,0.2-1.4c0,0,0,0,0,0c0-0.1,0-0.2,0-0.3c0.1-1,0.2-2.1,0.4-3.1
c0-0.1,0-0.2,0-0.3c-0.1,0-0.2,0-0.3,0c-0.3,0-0.6-0.1-0.9-0.1c0.2-1.7,0.4-3.4,0.6-5.1c3.6,0.4,7.2,0.8,10.8,1.3
c-0.2,1.7-0.4,3.4-0.6,5.1c-0.3,0-0.7-0.1-1-0.1l-0.3,0c0,0.1,0,0.2,0,0.3c-0.2,1.9-0.5,3.8-0.7,5.7c0,0.1,0,0.2,0,0.3
c0.1,0,0.2,0,0.3,0c0.5,0.1,1,0.1,1.5,0.2c-0.2,1.7-0.4,3.3-0.6,5c-1.9-0.2-3.9-0.5-5.8-0.7c-1-0.1-2-0.2-3.1-0.4
c0.1-0.1,0.2-0.3,0.3-0.4c0.2-0.3,0.5-0.7,0.7-1.1c0.5-0.9,0.9-2,1.1-3.2c0-0.3,0.1-0.7,0.1-1c0,0,0,0,0-0.1c0,0,0,0,0-0.1
c-0.1-0.3-0.3-0.5-0.6-0.6c-0.7-0.1-0.9,0.7-0.9,1c0,0.1-1.3,5-6.1,5.3c0,0,0,0-0.1,0c0,0,0,0-0.1,0c-0.3,0-0.7,0-1,0
c-2.9-0.3-5-2.9-4.7-5.8c0-0.2,0-0.4,0.1-0.6c0,0,0,0,0,0c0,0,0,0,0,0c0.2-2,0.4-3.9,0.6-5.9c0-0.1,0-0.2,0-0.3c-0.1,0-0.2,0-0.3,0
c-0.5-0.1-1-0.1-1.6-0.2c0.1-1.4,0.3-2.8,0.4-4.2c0-0.3,0.1-0.7,0.1-1C276.5,147.4,279.7,147.8,282.8,148.1L282.8,148.1z"/>
</svg>