<?xml version="1.0" encoding="utf-8"?>
<!-- Generator: Adobe Illustrator 17.0.0, SVG Export Plug-In . SVG Version: 6.00 Build 0)  -->
<!DOCTYPE svg PUBLIC "-//W3C//DTD SVG 1.1//EN" "http://www.w3.org/Graphics/SVG/1.1/DTD/svg11.dtd">
<svg version="1.1" id="Layer_1" xmlns="http://www.w3.org/2000/svg" xmlns:xlink="http://www.w3.org/1999/xlink" x="0px" y="0px"
	 width="250px" height="250px" viewBox="-25 -25 250 250" enable-background="new -25 -25 250 250" xml:space="preserve">
<g>
	<rect x="-21.5" y="-21.5" fill="#97C35A" width="243" height="243"/>
	<path fill="#97C35A" d="M218-18v236H-18V-18H218 M225-25H-25v250h250V-25L225-25z"/>
</g>
<g transform="translate(0 1)">
	<g>
		<path fill="#FFFFFF" d="M150.868,49.788H49.132c1.356-14.582,15.6-40.694,51.207-40.694
			C134.251,9.094,149.511,35.207,150.868,49.788"/>
		<path fill="#FFFFFF" d="M22.003,137.959L22.003,137.959c-7.461,0-13.565-6.104-13.565-13.565V76.918
			c0-7.461,6.104-13.565,13.565-13.565s13.565,6.104,13.565,13.565v47.477C35.568,131.855,29.464,137.959,22.003,137.959"/>
		<path fill="#FFFFFF" d="M177.997,137.959L177.997,137.959c-7.461,0-13.565-6.104-13.565-13.565V76.918
			c0-7.461,6.104-13.565,13.565-13.565c7.461,0,13.565,6.104,13.565,13.565v47.477C191.562,131.855,185.458,137.959,177.997,137.959
			"/>
		<path fill="#FFFFFF" d="M137.303,154.915v33.912c0,5.765-4.408,10.174-10.174,10.174s-10.174-4.408-10.174-10.174v-33.912H83.044
			v33.912c0,5.765-4.748,10.174-10.174,10.174c-5.426,0-10.174-4.408-10.174-10.174v-33.912H49.132V63.353h101.735v91.562H137.303z"
			/>
	</g>
	<g>
		<path fill="#97C35A" d="M89.827,32.833c0-3.73-3.052-6.782-6.782-6.782c-3.73,0-6.782,3.052-6.782,6.782
			c0,3.73,3.052,6.782,6.782,6.782C86.775,39.615,89.827,36.563,89.827,32.833"/>
		<path fill="#97C35A" d="M123.738,32.833c0-3.73-3.052-6.782-6.782-6.782s-6.782,3.052-6.782,6.782c0,3.73,3.052,6.782,6.782,6.782
			S123.738,36.563,123.738,32.833"/>
	</g>
	<g>
		<path fill="#FFFFFF" d="M72.531,19.268c-1.356,0-2.374-0.678-3.052-2.035L63.036,3.668c-0.678-1.696,0-3.73,1.696-4.408
			c1.696-0.678,3.73,0,4.408,1.696l6.443,13.565c0.678,1.696,0,3.73-1.696,4.408C73.549,18.929,73.21,19.268,72.531,19.268z"/>
		<path fill="#FFFFFF" d="M127.129,19.268c-0.339,0-1.017,0-1.356-0.339c-1.696-0.678-2.374-2.713-1.696-4.408l6.443-13.565
			c0.678-1.696,2.713-2.374,4.408-1.696c1.696,0.678,2.374,2.713,1.696,4.408l-6.443,13.565
			C129.842,18.589,128.486,19.268,127.129,19.268z"/>
	</g>
</g>
</svg>
