<?xml version="1.0" encoding="utf-8"?>
<!-- Generator: Adobe Illustrator 17.0.0, SVG Export Plug-In . SVG Version: 6.00 Build 0)  -->
<!DOCTYPE svg PUBLIC "-//W3C//DTD SVG 1.1//EN" "http://www.w3.org/Graphics/SVG/1.1/DTD/svg11.dtd">
<svg version="1.1" id="Capa_1" xmlns="http://www.w3.org/2000/svg" xmlns:xlink="http://www.w3.org/1999/xlink" x="0px" y="0px"
	 width="250px" height="250px" viewBox="131 131 250 250" enable-background="new 131 131 250 250" xml:space="preserve">
<rect x="131" y="131" fill="#FFFFFF" width="250" height="250"/>
<g>
	<path fill="#424242" d="M310.137,262.194c-0.252-25.311,20.642-37.45,21.575-38.053c-11.74-17.179-30.028-19.533-36.545-19.805
		c-15.564-1.576-30.369,9.163-38.267,9.163c-7.879,0-20.068-8.93-32.975-8.695c-16.964,0.252-32.606,9.864-41.341,25.057
		c-17.625,30.584-4.514,75.892,12.665,100.696c8.394,12.142,18.404,25.778,31.546,25.291c12.656-0.505,17.441-8.189,32.742-8.189
		c15.3,0,19.602,8.189,32.994,7.938c13.619-0.253,22.247-12.374,30.583-24.552c9.639-14.085,13.608-27.722,13.843-28.422
		C336.654,302.484,310.4,292.426,310.137,262.194z M284.972,187.916c6.975-8.462,11.683-20.203,10.399-31.916
		c-10.047,0.409-22.226,6.693-29.435,15.136c-6.468,7.49-12.13,19.445-10.613,30.923C266.54,202.934,277.99,196.359,284.972,187.916
		z"/>
</g>
</svg>
