<?xml version="1.0" encoding="utf-8"?>
<!DOCTYPE svg PUBLIC "-//W3C//DTD SVG 1.1//EN" "http://www.w3.org/Graphics/SVG/1.1/DTD/svg11.dtd">
<svg version="1.1" id="Слой_1" xmlns="http://www.w3.org/2000/svg" xmlns:xlink="http://www.w3.org/1999/xlink" x="0px" y="0px"
width="102px" height="82px" viewBox="0 0 102 82" enable-background="new 0 0 102 82" xml:space="preserve">
<path fill="#c7a270" d="M101,82H1c-0.552,0-1-0.447-1-1V51C0,22.878,22.878,0,51,0c28.121,0,51,22.878,51,51v4.809
c0,0.553-0.447,1-1,1s-1-0.447-1-1V51c0-27.019-21.981-49-49-49S2,23.981,2,51v29h99c0.553,0,1,0.447,1,1S101.553,82,101,82z"/>
<path fill="#c7a270" d="M84.5,72c-0.313,0-0.61-0.147-0.8-0.4c-0.228-0.303-0.266-0.71-0.096-1.049
c0.014-0.027,0.028-0.054,0.044-0.08c0.26-0.504,2.22-4.637-0.044-10.227c-1.315,3.638-3.867,3.962-3.997,3.976
c-0.542,0.056-1.037-0.334-1.101-0.88c-0.006-0.051-0.521-4.189-3.312-8.848c0.028,5.967-3.825,9.544-4.024,9.725
c-0.315,0.286-0.775,0.341-1.147,0.139c-0.373-0.202-0.578-0.617-0.512-1.037c0.005-0.036,0.578-4.14-2.573-8.494
c-0.404-0.56-1.494-1.867-2.529-3.081c0.242,2.288,0.074,4.075-0.717,6.315c-1.737,4.921-8.25,4.439-8.526,4.413
c-0.343-0.028-0.646-0.23-0.805-0.535s-0.148-0.67,0.024-0.966c0.071-0.128,1.817-3.407-1.87-8.626
c-0.222-0.313-0.469-0.633-0.729-0.969c-1.795-2.322-4.192-5.423-3.443-11.979c-6.983,5.036-4.643,16.665-4.616,16.791
c0.111,0.528-0.218,1.05-0.743,1.177c-0.529,0.127-1.057-0.186-1.2-0.706c-0.042-0.145-0.946-3.151-4.495-4.766
c1.344,3.839,1.526,9.432-0.84,11.287c-1.307,1.024-2.47,0.927-3.215,0.667c-2.606-0.915-4.225-5.425-4.885-7.679
c-0.905,0.339-2.192,0.559-3.439-0.112c-1.804-0.97-2.811-3.376-3.049-7.316c-7.253,12.946-0.059,21.112,0.342,21.549
c0.033,0.033,0.064,0.069,0.093,0.108c0.317,0.422,0.252,1.021-0.15,1.363c-0.209,0.178-0.476,0.257-0.725,0.236H10.997
c-0.552,0-1-0.447-1-1v-20c0-7.018,1.813-13.948,5.243-20.042c0.271-0.482,0.881-0.654,1.362-0.381
c0.481,0.271,0.652,0.881,0.381,1.362c-3.262,5.796-4.986,12.388-4.986,19.062v19h7.521c-2.295-3.616-6.158-12.775,2.493-25.257
c0.253-0.365,0.715-0.519,1.137-0.38c0.421,0.14,0.7,0.541,0.684,0.984c-0.236,6.699,1.163,8.48,2.018,8.946
c1.125,0.615,2.559-0.372,2.573-0.382c0.272-0.189,0.623-0.233,0.931-0.115c0.31,0.119,0.542,0.381,0.619,0.704
c0.649,2.755,2.295,6.892,3.924,7.463c0.258,0.09,0.674,0.151,1.318-0.354c1.167-0.914,1.878-6.868-0.644-10.844
c-0.217-0.342-0.207-0.779,0.026-1.11c0.231-0.331,0.638-0.489,1.035-0.402c2.635,0.586,4.45,1.787,5.682,3.024
c-0.132-4.843,0.891-12.423,7.918-15.704c0.341-0.159,0.742-0.113,1.039,0.119c0.296,0.232,0.438,0.61,0.365,0.98
c-1.399,7.139,0.891,10.103,2.732,12.484c0.278,0.36,0.542,0.702,0.779,1.038c2.956,4.182,2.91,7.467,2.508,9.269
c1.641-0.129,4.317-0.708,5.149-3.066c0.913-2.584,0.931-4.379,0.087-8.727c-0.09-0.461,0.153-0.923,0.584-1.109
c0.721-0.312,0.722-0.312,3.284,2.689c0.657,0.769,2.245,2.641,2.799,3.406c1.905,2.633,2.628,5.177,2.88,7.038
c1.238-2.015,2.525-5.435,1.176-9.902c-0.138-0.454,0.063-0.942,0.48-1.168c0.417-0.228,0.936-0.128,1.241,0.234
c3.974,4.715,5.43,9.639,5.925,11.938c0.715-0.56,1.662-1.814,1.995-4.602c0.051-0.425,0.366-0.771,0.785-0.86
c0.416-0.087,0.848,0.098,1.066,0.466c3.507,5.867,2.661,10.828,1.882,13.2h4.007v-19c0-21.505-17.495-39-39-39
c-10.04,0-19.585,3.825-26.877,10.77c-0.398,0.382-1.032,0.366-1.414-0.035c-0.381-0.4-0.365-1.033,0.035-1.414
c7.666-7.301,17.701-11.322,28.256-11.322c22.607,0,41,18.393,41,41v20c0,0.553-0.447,1-1,1h-6.409C84.559,72,84.528,72,84.5,72z"
/>
<path fill="#c7a270" d="M56.788,44.33c-0.329,0-0.644-0.163-0.832-0.445c-0.114-0.171-2.762-4.235-0.258-8.27
c1.623-2.615,5.448-3.787,5.61-3.836c0.345-0.104,0.724-0.012,0.983,0.24c0.26,0.252,0.363,0.625,0.27,0.976
c-0.007,0.027-0.729,2.767-0.767,5.056c-0.066,4.022-3.146,5.847-4.766,6.25C56.95,44.32,56.869,44.33,56.788,44.33z
M60.207,34.387c-0.991,0.496-2.173,1.259-2.81,2.283c-1.321,2.13-0.646,4.325-0.147,5.414c0.947-0.466,2.505-1.604,2.545-4.066
C59.816,36.767,60.011,35.433,60.207,34.387z"/>
</svg>
