<?xml version="1.0" encoding="utf-8"?>
<!-- Generator: Adobe Illustrator 17.0.0, SVG Export Plug-In . SVG Version: 6.00 Build 0)  -->
<!DOCTYPE svg PUBLIC "-//W3C//DTD SVG 1.1//EN" "http://www.w3.org/Graphics/SVG/1.1/DTD/svg11.dtd">
<svg version="1.1" id="Слой_1" xmlns="http://www.w3.org/2000/svg" xmlns:xlink="http://www.w3.org/1999/xlink" x="0px" y="0px"
	 width="99.5px" height="100.2px" viewBox="0 0 99.5 100.2" style="enable-background:new 0 0 99.5 100.2;" xml:space="preserve">
<style type="text/css">
	.st0{fill:#C19263;}
	.st1{fill:#F5F5F5;}
	.st2{fill:#E59785;}
	.st3{fill:#D8B08D;}
	.st4{fill:#FFFFFF;}
	.st5{fill:#92B6EA;}
	.st6{fill:#D0E3FC;}
	.st7{fill:#DDDD00;}
	.st8{fill:#513015;}
	.st9{fill:#ED9823;}
	.st10{fill:#FFDFA6;}
	.st11{fill:none;stroke:#513015;stroke-width:0.75;stroke-miterlimit:10;}
	.st12{fill:none;stroke:#513015;stroke-width:0.8;stroke-miterlimit:10;}
	.st13{fill:none;stroke:#513015;stroke-miterlimit:10;}
	.st14{fill:#749E00;}
	.st15{fill:#E05A00;}
</style>
<g>
	<g>
		<g id="XMLID_2_">
			<g>
				<path class="st0" d="M44.3,56.8c0.5,0.3,1,0.7,1.5,1.1c-0.4,0.4-0.7,0.7-0.9,1.1C44.4,58.4,44.2,57.6,44.3,56.8L44.3,56.8z"/>
				<path class="st0" d="M46.2,59.8c-0.2-0.1-0.4-0.2-0.7-0.3c-0.2-0.1-0.4-0.3-0.6-0.5c0.2-0.4,0.5-0.7,0.9-1.1
					c0.6,0.5,1.2,0.9,1.7,1.2c0.3,0.1,0.6,0.2,0.9,0.2C47.8,60,47,60.1,46.2,59.8z"/>
				<path class="st1" d="M61.6,4.2c0,0.1-1.1,8.1-1.1,8.1l-0.1,0.3C48.7,8,37.6,12.9,37.6,12.9l0-0.3c0,0,0-0.3-0.2-0.8c0,0,0,0,0,0
					c-0.2-1.8-0.9-7.5-0.9-7.6c0-1.1,6.1-3.8,12.5-3.8C55.5,0.4,61.6,3.1,61.6,4.2z"/>
				<path class="st2" d="M36.1,14.2c-2.9,1-5.1-2.1-2.6-3.1C36.1,10.2,36.1,14.2,36.1,14.2z"/>
				<path class="st2" d="M65.2,11.2c2.6,1,0.3,4.1-2.6,3.1C62.6,14.3,62.6,10.2,65.2,11.2z"/>
				<path class="st3" d="M61.1,48.1L61.1,48.1c-2.4,1.6-5.9,2.8-10.5,2.9c-0.7,0-5,0-5.1,1c-2.9-0.3-5.4-1.4-7.5-2.8
					c3.2-3.7,7.1-6.2,11.6-6.2C53.7,42.9,57.6,44.8,61.1,48.1z"/>
				<path class="st3" d="M51.3,57.8c0.2-0.5,0.3-1,0.2-1.5l0.1,0c0.4-0.4,0.6-0.7,0.6-0.7c6.2,1.3,11,1,14.6,0l0,0.1
					c3.2,5.8,5.5,13.1,6.4,21.3c-3.4,0.6-5.7,1.8-5.7,3.1c0,0,0,0,0,0.1c0,0.2,0,0.4,0,0.6c0,0.5,0,1,0.1,1.4H30.9
					c0.1-0.5,0.1-1,0.1-1.5c0-0.2,0-0.4,0-0.6c0,0,0,0,0-0.1c0-1.1-1.7-2.1-4.3-2.8l0-0.2c0.8-5.9,2.9-13.7,6.3-20.4l0.1-0.4
					c2.9,0.7,6.4,0.9,10.4,0c0.3,0.1,0.6,0.2,0.9,0.4l0,0c-0.1,0.8,0.1,1.6,0.6,2.2c0.2,0.2,0.3,0.4,0.6,0.5
					c0.2,0.1,0.4,0.2,0.7,0.3c0.8,0.3,1.6,0.2,2.3-0.5C49.7,59.5,50.8,58.8,51.3,57.8z"/>
				<path class="st0" d="M78.3,49.2c2.8,10.4,3.8,20.5,3.2,27.5c-0.8-0.1-1.6-0.1-2.5-0.1c-2.1,0-4.1,0.2-5.8,0.5
					c-0.9-8.2-3.2-15.5-6.4-21.3l0-0.1c6.8-1.8,9.3-5.9,9.3-5.9L78.3,49.2z"/>
				<path class="st0" d="M49.7,29.3c4.9,0.1,5.8-4.4,5.8-4.4c-7.3-2.2-11.6,0-11.6,0s1.4,4.3,5.6,4.4C49.6,29.3,49.7,29.3,49.7,29.3
					z M51.5,56.3c0.1,0.5,0,1-0.2,1.5c-0.5,1-1.5,1.7-2.8,1.6c-0.3,0-0.6-0.1-0.9-0.2c-0.5-0.2-1.1-0.7-1.7-1.2
					c-0.5-0.4-1-0.8-1.5-1.1c-0.3-0.2-0.6-0.3-0.9-0.4c-4,0.8-7.5,0.6-10.4,0l-0.1,0.4c-3.4,6.7-5.5,14.6-6.3,20.4l0,0.2
					c-2-0.5-4.5-0.8-7.3-0.8c-1,0-1.9,0-2.9,0.1c-1.1-12.9,2.9-29.9,10.5-45c2-4,6.2-15.8,6.2-15.8c-4.4-1.8-4.5-5.2-0.2-6.6
					c3.1-1,4.1,1.3,4.5,2.6c0,0,0,0,0,0c0.1,0.5,0.2,0.8,0.2,0.8l0,0.3c0,0,11.1-4.9,22.7-0.2c0.2,0.1,0.5,0.2,0.7,0.3
					c0,0,0.4-5,4.7-3.7c4.2,1.3,4.1,4.8-0.2,6.6c0,0,4.3,11.9,6.2,15.8c2.8,5.6,5,11.6,6.5,17.5l-2.2,0.6c0,0-2.5,4.1-9.3,5.9
					c-3.6,0.9-8.4,1.2-14.6,0C52.2,55.6,52,55.9,51.5,56.3L51.5,56.3z M54.2,33.9C54.2,33.9,54.2,33.9,54.2,33.9
					c-0.7,0.2-1.5,0.4-2.2,0.5l-2.4,0.1l-0.6,0l-0.2,0c-1.9-0.2-3.3-0.6-3.3-0.6s0.3,5.7,4.1,6C54,40.1,54.2,33.9,54.2,33.9z
					 M61.1,48.2L61.1,48.2c-3.5-3.4-7.5-5.3-11.6-5.3c-4.5,0-8.4,2.5-11.6,6.2c2.1,1.5,4.6,2.6,7.5,2.8c0.1-1,4.4-1,5.1-1
					C55.2,50.9,58.6,49.7,61.1,48.2z M62.6,14.3c2.9,1,5.1-2.1,2.6-3.1C62.6,10.2,62.6,14.3,62.6,14.3z M61.5,18.9
					c0.1-0.2,0.1-0.6,0.1-0.8c-0.2-0.9-1.1-1.7-2-1.8c-0.6-0.1-1.2,0-1.6,0.4c-0.2,0.2-0.8,0.8-0.3,1c0.2,0.1,0.5,0.1,0.8,0.1
					c0.6,0,1.2,0.2,1.7,0.5c0.2,0.1,0.5,0.3,0.7,0.4c0.1,0.1,0.3,0.3,0.5,0.2C61.4,19,61.4,18.9,61.5,18.9z M55,29.9
					c0-0.2-0.2-0.3-0.3-0.3c-0.2,0-0.3,0.1-0.3,0.3s0.2,0.3,0.3,0.3C54.9,30.2,55,30.1,55,29.9z M53.1,32.7c0-0.2-0.1-0.3-0.3-0.3
					s-0.3,0.2-0.3,0.3c0,0.2,0.1,0.3,0.3,0.3S53.1,32.9,53.1,32.7z M52.3,29.9c0-0.2-0.1-0.3-0.3-0.3c-0.2,0-0.3,0.2-0.3,0.3
					c0,0.2,0.1,0.3,0.3,0.3C52.1,30.2,52.3,30.1,52.3,29.9z M46.3,30.3c0-0.2-0.2-0.3-0.3-0.3c-0.2,0-0.3,0.1-0.3,0.3
					c0,0.2,0.2,0.3,0.3,0.3C46.2,30.6,46.3,30.5,46.3,30.3z M44.9,31.6c0-0.2-0.1-0.3-0.3-0.3c-0.2,0-0.3,0.2-0.3,0.3
					c0,0.2,0.2,0.3,0.3,0.3C44.8,31.9,44.9,31.8,44.9,31.6z M44.2,29.3c0-0.2-0.2-0.3-0.3-0.3c-0.2,0-0.3,0.2-0.3,0.3
					c0,0.2,0.1,0.3,0.3,0.3C44,29.7,44.2,29.5,44.2,29.3z M42.5,17.7c0.5-0.3,0-0.8-0.3-1c-0.5-0.3-1.1-0.4-1.6-0.4
					c-0.9,0.1-1.9,0.8-2,1.8c0,0.2,0,0.7,0.1,0.8c0,0.1,0.1,0.1,0.1,0.1c0.2,0,0.4-0.1,0.5-0.2c0.2-0.2,0.5-0.3,0.7-0.4
					c0.5-0.3,1.1-0.5,1.7-0.5C42,17.8,42.3,17.8,42.5,17.7z M33.6,11.2c-2.6,1-0.3,4.1,2.6,3.1C36.1,14.2,36.1,10.2,33.6,11.2z"/>
				<path class="st4" d="M90.6,80.3c0,0.2,0,0.4,0,0.6c0,0.5,0,1-0.1,1.4h-2.1c0.8-0.3,1.4-0.7,1.7-1.1
					C90.5,80.8,90.6,80.6,90.6,80.3z"/>
				<path class="st5" d="M90.7,80.2C90.7,80.2,90.7,80.2,90.7,80.2C90.6,80.3,90.6,80.2,90.7,80.2l-1.7,0c-0.9-0.4-2.1-0.8-3.6-1
					c-1.2-0.2-2.8-0.2-4-0.4c0.1-0.7,0.2-1.4,0.2-2.1C86.8,77.1,90.7,78.5,90.7,80.2z"/>
				<path class="st5" d="M90.6,80.2C90.6,80.2,90.6,80.3,90.6,80.2c0,0.3-0.1,0.6-0.4,0.9l0,0c-0.2-0.2-0.6-0.6-1.3-0.9H90.6z"/>
				<path class="st6" d="M88.5,82.3h2.1c-0.4,3.8-2.6,7.1-5.7,9c0,0-1.6,1-5.8,1c-4.1,0-5.8-1-5.8-1c-0.2-0.2-0.5-0.3-0.7-0.5
					c0.1-0.7,0.2-1.4,0.2-2.1c0-0.2,0-0.4,0-0.6c0,0,0,0,0-0.1c0-1.1-1.7-2.2-4.5-2.8c-0.3-0.9-0.6-1.9-0.7-2.9h2.1
					c2.1,0.9,5.5,1.5,9.4,1.5C83,83.8,86.4,83.2,88.5,82.3z"/>
				<path class="st1" d="M90.3,81.1L90.3,81.1c-0.4,0.4-1,0.8-1.7,1.2h-8c0.2-0.6,0.4-1.3,0.5-2h7.9C89.6,80.5,90.1,80.9,90.3,81.1z
					"/>
				<path class="st1" d="M88.9,80.2h-7.9c0.1-0.5,0.2-0.9,0.3-1.4c1.2,0.3,2.7,0.3,4,0.4C86.8,79.4,88.1,79.8,88.9,80.2z"/>
				<path class="st1" d="M80.5,82.3h8c-2.1,0.9-5.5,1.5-9.4,1.5c-3.9,0-7.3-0.6-9.4-1.5H80.5z"/>
				<path class="st5" d="M73.3,77.1c1.7-0.3,3.7-0.5,5.8-0.5c0.8,0,1.7,0,2.5,0.1c-0.1,0.7-0.1,1.4-0.2,2.1
					c-0.8-0.2-1.4-0.5-1.8-1.1c-0.8,0.6-1.5,0.8-2.7,1.1c-1.1,0.2-3.6,0.1-6.1,1.4h-3.2c0,0,0,0,0,0c0,0,0,0,0-0.1
					C67.5,78.9,69.8,77.7,73.3,77.1z"/>
				<path class="st1" d="M81.3,78.8c-0.1,0.5-0.2,1-0.3,1.4H70.8c2.5-1.4,5-1.2,6.1-1.4c1.2-0.3,1.9-0.4,2.7-1.1
					C79.9,78.3,80.6,78.6,81.3,78.8z"/>
				<path class="st1" d="M70.8,80.2h10.3c-0.2,0.7-0.3,1.4-0.5,2H69.7c-0.4-0.2-0.7-0.3-0.9-0.5l0,0C69.4,81.1,70.1,80.6,70.8,80.2z
					"/>
				<path class="st6" d="M72,89.2c0.4-0.4,0.7-0.8,0.7-1.2c0,0.2,0,0.4,0,0.6c0,0.7-0.1,1.4-0.2,2.1c-0.4-0.3-0.9-0.7-1.3-1
					C71.6,89.5,71.8,89.4,72,89.2z"/>
				<path class="st5" d="M72.8,88C72.8,88,72.8,88,72.8,88C72.7,88,72.7,88,72.8,88l-2.6,0c-0.2-0.1-0.3-0.1-0.5-0.2
					c-0.6-0.8-1.1-1.7-1.4-2.7C71,85.8,72.8,86.8,72.8,88z"/>
				<path class="st5" d="M72.7,88C72.7,88,72.7,88,72.7,88c0,0.4-0.3,0.8-0.7,1.2c-0.4-0.5-1.1-0.9-1.6-1.1c-0.1,0-0.2-0.1-0.3-0.1
					H72.7z"/>
				<path class="st6" d="M51.2,89.7c2,1.1,5.7,1.8,10,1.8c4.3,0,8.1-0.7,10.1-1.8c0.4,0.4,0.8,0.7,1.3,1C72,94.3,69.9,97.2,67,99
					c0,0-1.6,1-5.8,1c-4.1,0-5.8-1-5.8-1c-3.5-2.1-5.8-5.9-5.8-10.4c0-0.2,0-0.4,0-0.6C49.7,88.6,50.2,89.2,51.2,89.7z"/>
				<path class="st7" d="M72,89.2c-0.2,0.2-0.4,0.3-0.7,0.5c-0.6-0.5-1.1-1.1-1.5-1.7h0.4c0.1,0,0.2,0.1,0.3,0.1
					C71,88.3,71.7,88.7,72,89.2z"/>
				<path class="st5" d="M67.5,80.2h3.2c-0.7,0.4-1.4,0.9-2,1.5l0,0C68,81.3,67.6,80.8,67.5,80.2C67.5,80.3,67.5,80.2,67.5,80.2z"/>
				<path class="st4" d="M70.2,88h-0.4c0-0.1-0.1-0.1-0.1-0.2C69.9,87.9,70,87.9,70.2,88z"/>
				<path class="st7" d="M69.8,88c0.4,0.6,0.9,1.2,1.5,1.7c-2,1.1-5.8,1.8-10.1,1.8c-4.3,0-8-0.7-10-1.8c0.3-0.8,0.8-1.4,1.5-1.7
					H69.8z"/>
				<path class="st7" d="M69.7,87.8c0,0.1,0.1,0.1,0.1,0.2H52.7c1.6-1,4-1,5.6-1.3c1.5-0.3,2.5-0.7,4,0c1.1,0.5,2.2,0.6,3.3,0.6
					C67,87.4,68.4,87.4,69.7,87.8z"/>
				<path class="st6" d="M69.7,82.3h-2.1c-0.1-0.5-0.1-0.9-0.1-1.4c0-0.2,0-0.4,0-0.6c0,0.5,0.5,1.1,1.2,1.5
					C69,81.9,69.3,82.1,69.7,82.3z"/>
				<path class="st5" d="M68.3,85.1c0.4,1,0.8,1.9,1.4,2.7c-1.3-0.4-2.7-0.4-4.1-0.6c-1.2-0.1-2.3-0.2-3.3-0.6c-1.5-0.7-2.5-0.3-4,0
					C56.6,87,54.3,87,52.7,88h-3c0,0,0,0,0,0c0,0,0,0,0-0.1c0-2,5.2-3.6,11.6-3.6C63.9,84.4,66.3,84.7,68.3,85.1z"/>
				<path class="st8" d="M61.5,18.1c0,0.2,0,0.7-0.1,0.8c0,0.1-0.1,0.1-0.1,0.1c-0.2,0-0.4-0.1-0.5-0.2c-0.2-0.2-0.5-0.3-0.7-0.4
					c-0.5-0.3-1.1-0.5-1.7-0.5c-0.2,0-0.5,0-0.8-0.1c-0.5-0.3,0-0.8,0.3-1c0.5-0.3,1.1-0.4,1.6-0.4C60.4,16.4,61.4,17.1,61.5,18.1z"
					/>
				<path class="st8" d="M54.7,29.6c0.2,0,0.3,0.1,0.3,0.3s-0.2,0.3-0.3,0.3c-0.2,0-0.3-0.1-0.3-0.3S54.5,29.6,54.7,29.6z"/>
				<path class="st8" d="M49.9,38h1.3c0.8-1.1,0.8-3.2,0.8-3.6c0.7-0.1,1.4-0.3,2.2-0.5c0,0,0,0,0,0c0,0-0.3,6.3-4.5,5.9
					c-3.8-0.3-4.1-6-4.1-6s1.4,0.5,3.3,0.6l-1.4,0.1c0,0,0.1,2.3,1.1,3.5H49.9z"/>
				<path class="st8" d="M52.8,32.4c0.2,0,0.3,0.2,0.3,0.3c0,0.2-0.1,0.3-0.3,0.3s-0.3-0.2-0.3-0.3C52.5,32.5,52.6,32.4,52.8,32.4z"
					/>
				<path class="st5" d="M49.6,88h3c-0.6,0.4-1.2,0.9-1.5,1.7C50.2,89.2,49.7,88.6,49.6,88C49.6,88,49.6,88,49.6,88z"/>
				<path class="st1" d="M49.9,38h-1.3c-1.1-1.2-1.1-3.5-1.1-3.5l1.4-0.1c1,0.1,2.1,0.1,3.2-0.1c0,0.4,0,2.5-0.8,3.6H49.9z"/>
				<path class="st4" d="M49.7,34.5c0.8,0,1.6,0,2.4-0.1c0,0,0,0,0,0.1c-1.1,0.2-2.2,0.2-3.2,0.1l0.2,0
					C49.3,34.5,49.5,34.5,49.7,34.5z"/>
				<path class="st4" d="M49.7,34.4l2.4-0.1C51.3,34.5,50.5,34.5,49.7,34.4L49.7,34.4z"/>
				<path class="st8" d="M51.9,29.6c0.2,0,0.3,0.2,0.3,0.3c0,0.2-0.1,0.3-0.3,0.3c-0.2,0-0.3-0.1-0.3-0.3
					C51.6,29.7,51.8,29.6,51.9,29.6z"/>
				<path class="st8" d="M49.7,29.3c-0.1,0-0.1,0-0.2,0c-4.3-0.2-5.6-4.4-5.6-4.4s4.3-2.2,11.6,0C55.5,24.8,54.6,29.4,49.7,29.3z"/>
				<path class="st4" d="M49.7,34.4L49.7,34.4c-0.2,0-0.4,0-0.6,0L49.7,34.4z"/>
				<path class="st6" d="M46,88.5c0.5-0.4,0.9-0.8,0.9-1.3c0,0.2,0,0.4,0,0.6c0,4.4-2.3,8.3-5.8,10.4c0,0-1.6,1-5.8,1
					c-4.1,0-5.8-1-5.8-1c-2.4-1.5-4.3-3.8-5.2-6.7c0.6-0.2,0.9-0.4,0.9-0.4c0.7-0.4,1.3-0.9,1.9-1.5c2.1,0.7,5,1.1,8.2,1.1
					C40.1,90.7,44.2,89.8,46,88.5z"/>
				<path class="st5" d="M46.8,87.2C46.8,87.2,46.8,87.2,46.8,87.2C46.8,87.2,46.8,87.2,46.8,87.2l-3.3,0c-1.4-0.4-2.8-0.4-4.3-0.5
					c-1.1-0.1-3.6-0.1-4.5-1.5c-0.8,0.6-1.5,0.8-2.7,1.1c-0.9,0.2-1.7,0.2-2.6,0.3c0.4-0.8,0.8-1.7,1-2.7c1.4-0.2,3.1-0.3,4.7-0.3
					C41.7,83.6,46.8,85.2,46.8,87.2z"/>
				<path class="st5" d="M46.8,87.2C46.8,87.2,46.8,87.2,46.8,87.2c0,0.5-0.3,0.9-0.9,1.3c-0.5-0.5-1.5-1-1.9-1.2
					c-0.2-0.1-0.3-0.1-0.5-0.1H46.8z"/>
				<path class="st8" d="M46,30c0.2,0,0.3,0.1,0.3,0.3c0,0.2-0.2,0.3-0.3,0.3c-0.2,0-0.3-0.1-0.3-0.3C45.6,30.1,45.8,30,46,30z"/>
				<path class="st9" d="M44,87.3c0.5,0.2,1.5,0.7,1.9,1.2c-1.7,1.3-5.9,2.2-10.7,2.2c-3.2,0-6.1-0.4-8.2-1.1c0.8-0.7,1.5-1.6,2-2.5
					h14.4C43.7,87.2,43.9,87.3,44,87.3z"/>
				<path class="st8" d="M44.6,31.2c0.2,0,0.3,0.2,0.3,0.3c0,0.2-0.1,0.3-0.3,0.3c-0.2,0-0.3-0.2-0.3-0.3
					C44.3,31.4,44.4,31.2,44.6,31.2z"/>
				<path class="st8" d="M43.8,29c0.2,0,0.3,0.2,0.3,0.3c0,0.2-0.2,0.3-0.3,0.3c-0.2,0-0.3-0.2-0.3-0.3C43.5,29.2,43.7,29,43.8,29z"
					/>
				<path class="st9" d="M43.6,87.2H29.1c0.1-0.2,0.2-0.4,0.4-0.6c0.9-0.1,1.7-0.2,2.6-0.3c1.2-0.3,1.9-0.4,2.7-1.1
					c0.9,1.4,3.3,1.4,4.5,1.5C40.7,86.8,42.2,86.8,43.6,87.2z"/>
				<path class="st8" d="M42.2,16.7c0.2,0.2,0.8,0.8,0.3,1c-0.2,0.1-0.5,0.1-0.8,0.1c-0.6,0-1.2,0.2-1.7,0.5
					c-0.2,0.1-0.5,0.3-0.7,0.4C39.2,18.9,39,19,38.8,19c0,0-0.1,0-0.1-0.1c-0.1-0.2-0.1-0.6-0.1-0.8c0.2-0.9,1.1-1.7,2-1.8
					C41.2,16.2,41.7,16.3,42.2,16.7z"/>
				<path class="st6" d="M29.9,81.6c0.6-0.4,1-0.9,1-1.4c0,0.2,0,0.4,0,0.6c0,0.5,0,1-0.1,1.5h-2.2C29.1,82.1,29.5,81.8,29.9,81.6z"
					/>
				<path class="st5" d="M30.9,80.1C30.9,80.1,30.9,80.2,30.9,80.1C30.9,80.2,30.9,80.2,30.9,80.1l-2.2,0c-1.7-1.3-4.4-1.3-6.1-1.6
					c-1.5-0.3-2.5-0.6-4,0.1c-0.6,0.3-1.2,0.4-1.8,0.6c-0.1-0.8-0.2-1.7-0.3-2.5c0.9-0.1,1.9-0.1,2.9-0.1c2.7,0,5.3,0.3,7.3,0.8
					C29.3,78,30.9,79,30.9,80.1z"/>
				<path class="st5" d="M30.9,80.2C30.9,80.2,30.9,80.2,30.9,80.2c0,0.5-0.4,1-1,1.4c-0.3-0.6-0.7-1.1-1.2-1.4H30.9z"/>
				<path class="st6" d="M28.6,82.3h2.2c-0.1,0.6-0.2,1.1-0.3,1.7c-4,0.6-6.8,1.8-6.8,3.2c0,0,0,0,0,0.1c0,0.2,0,0.4,0,0.6
					c0,1.3,0.2,2.5,0.6,3.7c-0.9,0.3-2.4,0.6-4.9,0.6c-4.1,0-5.8-1-5.8-1c-3.1-1.8-5.2-5.1-5.7-8.9h2.2c2.1,0.9,5.5,1.4,9.3,1.4
					C23.2,83.7,26.5,83.1,28.6,82.3z"/>
				<path class="st5" d="M30.5,83.9c-0.2,0.9-0.6,1.8-1,2.7c-0.6,0.1-1.1,0.2-1.7,0.4c-0.1,0.1-0.3,0.1-0.4,0.2h-3.7c0,0,0,0,0,0
					c0,0,0,0,0-0.1C23.7,85.7,26.5,84.5,30.5,83.9z"/>
				<path class="st9" d="M29.5,86.6c-0.1,0.2-0.2,0.4-0.4,0.6h-1.7c0.1-0.1,0.3-0.1,0.4-0.2C28.4,86.8,28.9,86.6,29.5,86.6z"/>
				<path class="st9" d="M27.4,87.2h1.7c-0.6,0.9-1.3,1.8-2,2.5c-0.7-0.2-1.3-0.5-1.8-0.7C25.7,88.2,26.6,87.6,27.4,87.2z"/>
				<path class="st10" d="M29.9,81.6c-0.3,0.2-0.8,0.5-1.2,0.7H17.4c-0.2-0.7-0.3-1.4-0.4-2.1h11.8C29.2,80.5,29.6,81,29.9,81.6z"/>
				<path class="st10" d="M28.7,80.2H16.9c-0.1-0.3-0.1-0.6-0.1-0.9c0.6-0.1,1.2-0.3,1.8-0.6c1.5-0.7,2.5-0.4,4-0.1
					C24.4,78.9,27.1,78.9,28.7,80.2z"/>
				<path class="st10" d="M17.4,82.3h11.3c-2.1,0.9-5.5,1.4-9.3,1.4c-3.8,0-7.2-0.6-9.3-1.4H17.4z"/>
				<path class="st5" d="M23.7,87.2h3.7c-0.8,0.4-1.7,1-2.1,1.8C24.3,88.5,23.8,87.9,23.7,87.2C23.7,87.2,23.7,87.2,23.7,87.2z"/>
				<path class="st6" d="M25.3,89c0.5,0.3,1.1,0.5,1.8,0.7c-0.6,0.6-1.2,1-1.9,1.5c0,0-0.3,0.2-0.9,0.4c-0.4-1.2-0.6-2.4-0.6-3.7
					c0-0.2,0-0.4,0-0.6C23.8,87.9,24.3,88.5,25.3,89z"/>
				<path class="st10" d="M17.4,82.3h-7.2c-0.5-0.2-0.9-0.4-1.3-0.7c0.4-0.6,1.1-1,1.6-1.2c0.2-0.1,0.4-0.2,0.5-0.2h6
					C17.1,80.9,17.2,81.6,17.4,82.3z"/>
				<path class="st10" d="M16.9,80.2h-6c1.4-0.5,2.8-0.6,4.3-0.8c0.5-0.1,1-0.1,1.5-0.2C16.8,79.5,16.9,79.8,16.9,80.2z"/>
				<path class="st5" d="M16.5,76.7c0.1,0.9,0.2,1.7,0.3,2.5c-0.5,0.1-1,0.1-1.5,0.2c-1.5,0.2-2.9,0.3-4.3,0.8H7.8c0,0,0,0,0,0
					c0,0,0,0,0-0.1C7.8,78.5,11.5,77.1,16.5,76.7z"/>
				<path class="st5" d="M11,80.2c-0.2,0.1-0.4,0.1-0.5,0.2c-0.5,0.2-1.2,0.6-1.6,1.2c-0.6-0.4-1-0.9-1-1.4c0,0,0,0,0,0H11z"/>
				<path class="st6" d="M8.8,81.6c0.3,0.2,0.8,0.5,1.3,0.7H7.9c-0.1-0.5-0.1-1-0.1-1.5c0-0.2,0-0.4,0-0.6
					C7.9,80.7,8.2,81.2,8.8,81.6z"/>
			</g>
		</g>
		<path class="st8" d="M54.3,33.7c0,0-0.3,6.3-4.5,5.9c-3.8-0.3-4.1-6-4.1-6S50.2,35.2,54.3,33.7z"/>
		<path class="st4" d="M51.3,37.8c0.9-1.2,0.8-3.6,0.8-3.6l-4.6,0.2c0,0,0.1,2.3,1.1,3.5H51.3z"/>
		<polygon class="st8" points="50,38.3 49.4,34.6 50.4,34.6 		"/>
		<path class="st8" d="M43.9,24.7c0,0,4.3-2.2,11.6,0c0,0-0.9,4.6-6,4.4C45.3,28.9,43.9,24.7,43.9,24.7z"/>
		<path class="st8" d="M42.1,21.6c-0.8-0.1-1.5,0-2.1,0.4c-0.6,0.3-0.9,0.9-1.4,1.5l0,0c-0.2,0.2-0.5,0.2-0.7,0
			c-0.1-0.1-0.2-0.3-0.2-0.5c0.2-0.9,0.9-1.7,1.8-2.1c0.9-0.4,1.9-0.2,2.7,0.1c0.1,0.1,0.2,0.2,0.1,0.3
			C42.3,21.6,42.2,21.6,42.1,21.6z"/>
		<path class="st11" d="M40.7,31.2c0,0,8.6,7,18.4,0.1"/>
		<path class="st8" d="M50.1,28.8C50,29.7,50,30.6,50,31.5c0,0.9,0,1.8,0.2,2.8h-0.8c0.1-0.9,0.1-1.8,0.2-2.8c0-0.9,0-1.8-0.2-2.8
			H50.1z"/>
		<path class="st8" d="M38.8,18.8c0.2,0,0.4-0.1,0.5-0.2c0.2-0.2,0.5-0.3,0.7-0.5c0.5-0.3,1.1-0.5,1.7-0.5c0.2,0,0.5,0,0.8-0.1
			c0.5-0.2,0-0.8-0.3-1c-0.5-0.3-1-0.4-1.6-0.4c-0.9,0.1-1.9,0.8-2,1.8c0,0.2,0,0.7,0.1,0.8C38.7,18.8,38.8,18.8,38.8,18.8z"/>
		<path class="st8" d="M57.6,21.4c0.7-0.4,1.7-0.6,2.7-0.3c0.9,0.3,1.7,1.1,1.9,2c0.1,0.3-0.1,0.5-0.4,0.6c-0.2,0-0.4,0-0.5-0.1l0,0
			c-0.5-0.6-0.9-1.1-1.5-1.4c-0.6-0.3-1.3-0.4-2.1-0.3c-0.1,0-0.3-0.1-0.3-0.2C57.5,21.6,57.5,21.5,57.6,21.4z"/>
		<path class="st8" d="M61.3,18.8c-0.2,0-0.4-0.1-0.5-0.2c-0.2-0.2-0.5-0.3-0.7-0.5c-0.5-0.3-1.1-0.5-1.7-0.5c-0.2,0-0.5,0-0.8-0.1
			c-0.5-0.2,0-0.8,0.3-1c0.5-0.3,1-0.4,1.6-0.4c0.9,0.1,1.9,0.8,2,1.8c0,0.2,0,0.7-0.1,0.8C61.4,18.8,61.4,18.8,61.3,18.8z"/>
		<g>
			<path class="st8" d="M62.3,14.1c0.1-1,0.3-2,0.9-2.9c0.3-0.4,0.9-0.7,1.5-0.6c0.5,0.1,1,0.3,1.4,0.6c0.4,0.4,0.6,1,0.4,1.5
				c-0.2,0.5-0.5,0.9-1,1.2c-0.9,0.6-2,0.7-3,0.5l-0.3-0.1L62.3,14.1z M63,13.8c0.7,0.3,1.6,0.2,2.3-0.2c0.4-0.2,0.7-0.6,0.8-1
				c0.1-0.4,0-0.8-0.3-1.1c-0.3-0.3-0.8-0.5-1.2-0.5c-0.4,0-0.8,0.1-1,0.5C63.2,12.2,63,13,63,13.8z"/>
		</g>
		<path class="st8" d="M16,76.5c-0.5-5.3-0.1-10.7,0.8-16c0.9-5.3,2.2-10.5,3.9-15.5c1.7-5,3.9-10,6.2-14.7c2.1-4.8,4-9.8,5.8-14.8
			l0.3,0.6l0,0c-0.7-0.3-1.3-0.7-1.9-1.2c-0.6-0.5-1.1-1.1-1.4-1.8c-0.3-0.7-0.2-1.6,0.2-2.3c0.4-0.7,1-1.1,1.7-1.5
			C32.3,9,33,8.7,33.7,8.6c0.7-0.1,1.5-0.1,2.3,0.3c0.7,0.4,1.2,1,1.6,1.7c0.4,0.7,0.6,1.4,0.7,2.1l-0.7-0.4h0
			c2-0.7,3.9-1.1,5.9-1.5c2-0.3,4-0.5,6-0.5c2,0,4,0.1,6,0.5c2,0.3,4,0.9,5.9,1.6l-0.7,0.4c0.1-0.8,0.4-1.5,0.7-2.1
			c0.3-0.7,0.9-1.3,1.6-1.7c0.7-0.4,1.5-0.4,2.2-0.3c0.7,0.1,1.4,0.4,2.1,0.8c0.6,0.3,1.3,0.8,1.7,1.5c0.4,0.7,0.5,1.6,0.2,2.3
			c-0.3,0.7-0.8,1.3-1.4,1.8c-0.6,0.5-1.2,0.8-1.9,1.2l0,0l0.3-0.6c1.8,4.9,3.7,9.9,5.8,14.7c2.4,4.7,4.4,9.7,6,14.8
			c1.6,5.1,2.8,10.3,3.5,15.5c0.8,5.3,1.2,10.6,0.7,15.9l-1-0.1c0.3-5.2-0.1-10.5-0.9-15.7c-0.8-5.2-2-10.3-3.5-15.4
			c-1.5-5-3.5-9.9-5.9-14.6c-2.1-4.9-3.9-9.9-5.7-14.9L65,15.4l0.4-0.2l0,0c1.2-0.4,2.5-1.1,3-2.3c0.3-0.6,0.2-1.2-0.1-1.8
			c-0.3-0.5-0.8-1-1.4-1.3c-1.2-0.6-2.6-1-3.7-0.4c-1.1,0.6-1.5,2.1-1.6,3.3l0,0.7l-0.7-0.3c-1.8-0.9-3.7-1.5-5.6-1.9
			c-1.9-0.4-3.9-0.6-5.9-0.6c-2,0-4,0.2-5.9,0.6c-1.9,0.4-3.9,1-5.6,1.8l0,0l-0.7,0.2l0-0.6c0-1.3-0.5-2.7-1.6-3.3
			c-1.1-0.6-2.6-0.2-3.7,0.4c-0.6,0.3-1.1,0.8-1.4,1.3c-0.3,0.5-0.3,1.2-0.1,1.8c0.5,1.1,1.8,1.9,3,2.3l0,0l0.4,0.2l-0.2,0.4
			c-1.8,5-3.6,10-5.7,14.9c-2.4,4.8-4.4,9.6-6.1,14.6c-1.7,5-3,10.1-3.9,15.3c-0.9,5.2-1.3,10.5-0.9,15.7L16,76.5z"/>
		<g>
			<path class="st8" d="M35.8,13.8c0-0.8-0.1-1.7-0.6-2.3c-0.2-0.3-0.6-0.5-1-0.5c-0.4,0-0.9,0.2-1.2,0.5c-0.3,0.3-0.4,0.7-0.3,1.1
				c0.1,0.4,0.4,0.7,0.8,1C34.2,14.1,35.1,14.1,35.8,13.8z M36.3,14.4c-1,0.2-2.1,0.1-3-0.5c-0.4-0.3-0.8-0.7-1-1.2
				c-0.2-0.5,0-1.2,0.4-1.5c0.4-0.4,0.9-0.6,1.4-0.6c0.5-0.1,1.1,0.2,1.5,0.6c0.7,0.9,0.8,1.9,0.9,2.9l0,0.3L36.3,14.4z"/>
		</g>
		<path class="st8" d="M58.3,30.3c0.6-0.1,1,0.3,1.2,0.8c0.1,0.2,0.2,0.5,0.1,0.7c0,0.2-0.1,0.5-0.2,0.7c-0.3-0.4-0.4-0.8-0.6-1.1
			C58.7,31.1,58.6,30.8,58.3,30.3z"/>
		<path class="st8" d="M41.4,30.3c-0.3,0.5-0.4,0.8-0.5,1.1c-0.2,0.3-0.3,0.7-0.6,1.1c-0.1-0.2-0.2-0.5-0.2-0.7c0-0.2,0-0.5,0.1-0.7
			C40.4,30.7,40.9,30.3,41.4,30.3z"/>
		<circle class="st8" cx="52" cy="29.7" r="0.3"/>
		<circle class="st8" cx="52.8" cy="32.5" r="0.3"/>
		<circle class="st8" cx="44.6" cy="31.4" r="0.3"/>
		<circle class="st8" cx="46" cy="30.1" r="0.3"/>
		<circle class="st8" cx="43.9" cy="29.2" r="0.3"/>
		<circle class="st8" cx="54.7" cy="29.7" r="0.3"/>
		<path class="st8" d="M60,12.1l0.8-5.3l0.4-2.7c0,0,0-0.1,0-0.1c0,0,0,0.1,0,0.1l0,0l0,0l0,0c0-0.1,0,0,0,0c0-0.1-0.1-0.1-0.2-0.2
			c-0.1-0.1-0.3-0.3-0.5-0.4c-0.4-0.2-0.7-0.4-1.1-0.6c-3.2-1.5-6.8-2.2-10.4-2.2c-3.5,0-7.1,0.8-10.4,2.2C38.4,3,38,3.2,37.6,3.4
			c-0.2,0.1-0.3,0.2-0.5,0.4C37,3.9,36.9,4,37,4.1l0.3,2.7l0.7,5.3l-1,0.1l-0.5-5.4l-0.3-2.7c0,0,0-0.1,0-0.1c0-0.1,0-0.1,0-0.2
			c0-0.1,0.1-0.2,0.1-0.2c0.1-0.1,0.2-0.2,0.3-0.3c0.2-0.2,0.4-0.3,0.6-0.4c0.4-0.3,0.8-0.5,1.2-0.7c3.4-1.5,7-2.2,10.6-2.2
			c3.6,0,7.3,0.7,10.6,2.2c0.4,0.2,0.8,0.4,1.2,0.7c0.2,0.1,0.4,0.3,0.6,0.4c0.1,0.1,0.2,0.2,0.3,0.3c0,0.1,0.1,0.2,0.1,0.3l0,0l0,0
			l0,0c0,0,0,0.1,0,0.1l0,0.1l-0.3,2.7L61,12.2L60,12.1z"/>
		<path class="st8" d="M54.3,33.7"/>
		<path class="st8" d="M54.3,33.7"/>
		<path class="st8" d="M67.4,40.5c-0.6,2.6-2.3,5-4.3,6.7c-2.1,1.8-4.7,3-7.3,3.5c-1.3,0.3-2.7,0.5-4,0.5c-1.4,0.1-2.7,0-4,0.2
			c-0.6,0.1-1.3,0.2-1.7,0.4c-0.1,0-0.1,0.1,0,0c0,0,0-0.1,0,0l0,0c0-0.1,0,0,0,0l0.1,0.1c0.1,0.1,0.3,0.3,0.5,0.4
			c1.1,0.3,2.4,0.2,3.8,0.3c-0.6,0.3-1.3,0.5-1.9,0.7c-0.7,0.1-1.4,0.2-2.2,0c-0.4-0.1-0.8-0.3-1.1-0.7c-0.1-0.1-0.3-0.4-0.3-0.8
			c0.1-0.4,0.4-0.7,0.6-0.8c0.8-0.4,1.5-0.5,2.2-0.6c1.4-0.2,2.7-0.1,4-0.1c1.3-0.1,2.6-0.2,3.9-0.5c2.5-0.6,5-1.6,7-3.2
			C64.6,45,66.3,42.9,67.4,40.5z"/>
		<path class="st8" d="M76.2,49.6c-0.9,2.1-2.7,3.6-4.6,4.6c-1.9,1.1-4.1,1.8-6.3,2.2c-2.2,0.4-4.4,0.5-6.6,0.4
			c-2.2-0.1-4.4-0.4-6.5-0.9l0.5-0.2l0,0c-0.1,0.1-0.2,0.3-0.3,0.4c-0.1,0.1-0.2,0.2-0.3,0.3l-0.7-0.7l0.3-0.3
			c0.1-0.1,0.2-0.2,0.3-0.3l0,0l0.2-0.2l0.3,0.1c4.2,0.7,8.5,1.1,12.7,0.3c2.1-0.4,4.1-1,6-2C72.9,52.3,74.6,51.1,76.2,49.6z"/>
		<path class="st8" d="M30.3,39.5c0.8,1.5,1.8,2.9,2.8,4.3c1.1,1.3,2.2,2.6,3.5,3.6c2.6,2.2,5.7,3.6,9,3.9l-0.1,1
			c-1.8-0.1-3.5-0.6-5.1-1.4c-1.6-0.7-3.1-1.8-4.3-2.9c-1.3-1.2-2.4-2.5-3.4-3.9C31.8,42.7,30.9,41.1,30.3,39.5z"/>
		<polygon class="st8" points="90.7,81.7 99.5,82.1 90.7,82.5 		"/>
		<path class="st11" d="M31,82.1c11.7,0,24.9,0,36.7,0"/>
		<polygon class="st8" points="0,82.1 7.7,81.7 7.7,82.5 		"/>
		<g>
			<path class="st8" d="M46.8,2.9c0.3,3.4,0.5,4.1,0.5,5c-0.7,0.1-3.5,0.6-3.9,0.7c-0.3-1.5-0.8-3.5-1.1-5c0.1,0,0.3,0,0.4,0
				c0.4,1.3,0.8,3,1.2,4.4C44.2,8,44.6,7.9,45,7.8c-0.2-1.4-0.4-3.1-0.6-4.5c0.1,0,0.3,0,0.4,0c0.3,1.3,0.6,3,0.9,4.4
				c0.4-0.1,0.7-0.1,1.1-0.2c-0.1-1.4-0.2-3.1-0.3-4.5C46.5,2.9,46.6,2.9,46.8,2.9z"/>
			<path class="st8" d="M50.7,7.8c-0.5-0.1-2.3,0.1-2.7,0c0-1.6-0.2-3.7-0.1-5c0.7,0,2.5-0.1,3.1,0.1C51,3,51,3.1,51,3.2
				c-0.6,0.1-2,0.1-2.7,0.2c0.1,0.5,0.1,0.9,0.1,1.5c0.5,0,1.4,0.1,1.9,0.1c0,0.1,0,0.2,0.1,0.3c-0.5,0-1.4,0.1-1.9,0.2
				c0,0.5,0,1.3,0.1,1.8c0.6,0,1.4,0.1,2.1,0.2C50.7,7.6,50.7,7.7,50.7,7.8z"/>
			<path class="st8" d="M54.4,3.6C55.8,3.7,57,4.8,56.7,6c-0.3,0.9-0.7,1.8-1.8,2c-0.3,0-0.7-0.1-1-0.1c0,0.1,0,0.3-0.1,0.3
				c-0.2,0.4-0.6,0.1-0.6-0.2c0-0.1,0-0.1,0-0.2c-0.3,0-0.7,0-1-0.2c-1-0.5-1.1-1.5-1.1-2.4c0-1.2,1.5-2,2.8-1.6C54,3.4,54,3.1,54,3
				c0.1,0,0.2,0.1,0.4,0.1C54.4,3.3,54.4,3.4,54.4,3.6z M53.9,3.9c-0.7,0-1-0.1-1.6,0.4c-0.8,0.6-0.9,1.9-0.2,2.6
				c0.2,0.2,1,0.5,1.3,0.5C53.5,6.2,53.7,4.9,53.9,3.9z M53.9,7.4c1,0.2,1.2,0,1.4-0.1c0.9-0.5,1.2-1.7,0.6-2.5
				c-0.4-0.6-0.8-0.6-1.5-0.8C54.2,5,54.1,6.3,53.9,7.4z"/>
		</g>
		<path class="st8" d="M72.8,90.2c0.2,0.2,0.4,0.3,0.7,0.4c0.2,0.1,0.4,0.2,0.7,0.3c0.5,0.2,1,0.3,1.5,0.4c1,0.2,2.1,0.3,3.1,0.3
			c1.1,0,2.1,0,3.1-0.2c1-0.1,2.1-0.3,2.9-0.8c1.8-1,3.4-2.6,4.3-4.5c1-1.9,1.4-4,1.2-6.1l0.8-0.1c0,2.2-0.6,4.4-1.6,6.3
			c-1,1.9-2.5,3.6-4.4,4.8c-2.1,1.1-4.3,1.2-6.5,1.2c-1.1,0-2.2-0.1-3.3-0.3c-0.5-0.1-1.1-0.2-1.6-0.5c-0.3-0.1-0.5-0.2-0.8-0.4
			c-0.2-0.2-0.5-0.3-0.7-0.5L72.8,90.2z"/>
		<path class="st12" d="M67.6,80.1c0,0.2,0,0.4,0,0.6c0,1.5,0.3,2.9,0.8,4.3"/>
		<g>
			<path class="st8" d="M91.1,80.1c0,0.1,0,0.1,0,0.2c0,0.1,0,0.2-0.1,0.3c-0.1,0.2-0.1,0.3-0.2,0.4c-0.2,0.3-0.4,0.5-0.6,0.7
				c-0.5,0.4-1,0.6-1.5,0.8c-1,0.4-2.1,0.7-3.1,0.9c-2.1,0.4-4.3,0.6-6.4,0.6c-2.1,0-4.3-0.1-6.4-0.6c-1.1-0.2-2.1-0.5-3.1-0.9
				c-0.5-0.2-1-0.5-1.5-0.8c-0.4-0.3-1-0.9-1-1.7c0-0.8,0.5-1.3,1-1.7c0.5-0.4,1-0.6,1.5-0.8c1-0.4,2.1-0.7,3.1-0.9
				c2.1-0.4,4.3-0.6,6.4-0.6c2.1,0,4.3,0.2,6.4,0.6c1.1,0.2,2.1,0.5,3.1,0.9c0.5,0.2,1,0.5,1.5,0.8C90.6,78.7,91.1,79.2,91.1,80.1
				L91.1,80.1z M90.3,80c0-0.3-0.3-0.7-0.6-1c-0.4-0.3-0.8-0.5-1.3-0.7c-0.9-0.4-1.9-0.7-3-0.9c-2-0.4-4.1-0.6-6.2-0.6
				c-2.1,0-4.2,0.2-6.2,0.6c-1,0.2-2,0.5-3,0.9c-0.5,0.2-0.9,0.4-1.3,0.7c-0.4,0.3-0.6,0.6-0.6,1c0,0.3,0.3,0.7,0.6,1
				c0.4,0.3,0.8,0.5,1.3,0.7c0.9,0.4,1.9,0.7,3,0.9c2,0.4,4.1,0.6,6.3,0.6c2.1,0,4.2-0.2,6.2-0.6c1-0.2,2-0.5,3-0.9
				c0.5-0.2,0.9-0.4,1.3-0.7C90,80.7,90.3,80.4,90.3,80L90.3,80z"/>
		</g>
		<path class="st8" d="M50.1,87.9c-0.1,3,0.9,6.1,3,8.4c0.5,0.6,1.1,1.1,1.7,1.5c0.3,0.2,0.6,0.4,0.9,0.6c0.3,0.2,0.7,0.3,1,0.4
			c1.4,0.4,3,0.6,4.6,0.6c1.6,0,3.1-0.1,4.6-0.5c0.4-0.1,0.7-0.2,1-0.4c0.3-0.2,0.7-0.4,1-0.6c0.6-0.5,1.2-1,1.7-1.6
			c2.1-2.3,3.1-5.5,2.8-8.5l0.8,0c0.1,3.3-1.1,6.5-3.3,8.9c-0.5,0.6-1.1,1.1-1.8,1.6c-0.3,0.2-0.7,0.5-1,0.7
			c-0.4,0.2-0.8,0.4-1.1,0.5c-1.5,0.5-3.2,0.6-4.8,0.7c-1.6,0-3.2-0.1-4.8-0.5c-0.4-0.1-0.8-0.2-1.2-0.5c-0.4-0.2-0.7-0.4-1-0.7
			c-0.7-0.5-1.3-1-1.8-1.6c-2.2-2.4-3.4-5.7-3.2-9L50.1,87.9z"/>
		<g>
			<path class="st8" d="M73.3,87.8c0,0.1-0.1,0.1-0.1,0.2c0,0.1,0,0.2-0.1,0.3c-0.1,0.2-0.1,0.3-0.2,0.5c-0.2,0.3-0.4,0.5-0.6,0.7
				c-0.5,0.4-1,0.6-1.5,0.8c-1,0.4-2.1,0.7-3.1,0.9c-2.1,0.4-4.3,0.6-6.4,0.6c-2.1,0-4.3-0.1-6.4-0.6c-1.1-0.2-2.1-0.5-3.1-0.9
				c-0.5-0.2-1-0.5-1.5-0.8c-0.4-0.4-1-0.8-1-1.7c0-0.1,0-0.1,0-0.2c0-0.1,0-0.2,0.1-0.3c0.1-0.2,0.1-0.3,0.2-0.5
				c0.2-0.3,0.4-0.5,0.6-0.7c0.5-0.4,1-0.6,1.5-0.8c1-0.4,2.1-0.7,3.1-0.9c2.1-0.4,4.3-0.6,6.4-0.6c2.1,0,4.3,0.1,6.4,0.6
				c1.1,0.2,2.1,0.5,3.1,0.9c0.5,0.2,1,0.5,1.5,0.8C72.7,86.5,73.2,87,73.3,87.8L73.3,87.8z M72.3,87.8c0-0.3-0.2-0.7-0.6-1
				c-0.4-0.3-0.8-0.5-1.3-0.7c-0.9-0.4-1.9-0.7-3-0.9c-2-0.4-4.1-0.6-6.2-0.6c-2.1,0-4.2,0.2-6.2,0.6c-1,0.2-2,0.5-3,0.9
				c-0.5,0.2-0.9,0.4-1.3,0.7c-0.4,0.3-0.6,0.6-0.6,1c0,0.2,0.3,0.7,0.6,0.9c0.4,0.3,0.8,0.5,1.3,0.7c0.9,0.4,1.9,0.7,3,0.9
				c2,0.4,4.1,0.6,6.3,0.6c2.1,0,4.2-0.2,6.2-0.6c1-0.2,2-0.5,3-0.9c0.5-0.2,0.9-0.4,1.3-0.7C72.1,88.5,72.4,88.1,72.3,87.8
				L72.3,87.8z"/>
		</g>
		<path class="st8" d="M8.3,80c-0.1,1.9,0.3,3.8,1.1,5.6c0.8,1.7,2,3.3,3.5,4.5c0.4,0.3,0.8,0.6,1.2,0.8c0.4,0.2,0.9,0.4,1.4,0.5
			c0.9,0.2,1.9,0.4,2.9,0.4c2,0.1,4-0.1,5.8-0.7l0.2,0.8c-2,0.5-4,0.5-6,0.4c-1-0.1-2-0.2-3-0.4c-0.5-0.1-1-0.2-1.5-0.4
			c-0.5-0.2-0.9-0.5-1.3-0.8c-3.4-2.3-5.3-6.6-5-10.6L8.3,80z"/>
		<path class="st12" d="M30.6,83.6c0.2-1,0.4-2,0.4-3c0-0.2,0-0.4,0-0.6"/>
		<g>
			<path class="st8" d="M31.4,80c0,0.1,0,0.1,0,0.2c0,0.1,0,0.2-0.1,0.3c-0.1,0.2-0.1,0.3-0.2,0.4c-0.2,0.3-0.4,0.5-0.6,0.7
				c-0.5,0.4-1,0.6-1.5,0.8c-1,0.4-2.1,0.7-3.1,0.9c-2.1,0.4-4.3,0.6-6.4,0.6c-2.1,0-4.3-0.1-6.4-0.6c-1.1-0.2-2.1-0.5-3.1-0.9
				c-0.5-0.2-1-0.5-1.5-0.8c-0.4-0.3-1-0.9-1-1.6c0-0.8,0.5-1.3,1-1.7c0.5-0.4,1-0.6,1.5-0.8c1-0.4,2.1-0.7,3.1-0.9
				c2.1-0.4,4.3-0.6,6.4-0.6c2.1,0,4.3,0.2,6.4,0.6c1.1,0.2,2.1,0.5,3.1,0.9c0.5,0.2,1,0.5,1.5,0.8C30.9,78.7,31.4,79.2,31.4,80
				L31.4,80z M30.6,80c0-0.3-0.3-0.7-0.6-1c-0.4-0.3-0.8-0.5-1.3-0.7c-0.9-0.4-1.9-0.7-3-0.9c-2-0.4-4.1-0.6-6.2-0.6
				c-2.1,0-4.2,0.2-6.2,0.6c-1,0.2-2,0.5-3,0.9c-0.5,0.2-0.9,0.4-1.3,0.7c-0.4,0.3-0.6,0.6-0.6,1c0,0.3,0.3,0.7,0.6,1
				c0.4,0.3,0.8,0.5,1.3,0.7c0.9,0.4,1.9,0.7,3,0.9c2,0.4,4.1,0.6,6.3,0.6c2.1,0,4.2-0.2,6.2-0.6c1-0.2,2-0.5,3-0.9
				C29.5,81.3,30.5,80.7,30.6,80L30.6,80z"/>
		</g>
		<path class="st8" d="M24.2,87.1c-0.2,3,0.9,6.1,2.9,8.4c0.5,0.6,1.1,1.1,1.7,1.5c0.3,0.2,0.6,0.4,0.9,0.6c0.3,0.2,0.7,0.3,1,0.4
			c1.4,0.5,3,0.6,4.6,0.6c1.6,0,3.1-0.1,4.6-0.5c0.4-0.1,0.7-0.2,1-0.4c0.3-0.2,0.7-0.4,1-0.6c0.6-0.5,1.2-1,1.7-1.6
			c2.1-2.3,3.1-5.5,2.8-8.5l0.8,0c0.1,3.3-1.1,6.5-3.3,8.9c-0.5,0.6-1.1,1.1-1.8,1.6c-0.3,0.2-0.7,0.5-1,0.7
			c-0.4,0.2-0.8,0.4-1.1,0.5c-1.6,0.5-3.2,0.6-4.8,0.7c-1.6,0-3.2-0.1-4.8-0.5c-0.4-0.1-0.8-0.2-1.2-0.5c-0.4-0.2-0.7-0.4-1-0.7
			c-0.7-0.5-1.3-1-1.8-1.7c-2.2-2.4-3.4-5.7-3.1-9L24.2,87.1z"/>
		<g>
			<path class="st8" d="M47.3,87l0,0.2c0,0.1,0,0.2-0.1,0.3c-0.1,0.2-0.1,0.3-0.2,0.4c-0.2,0.3-0.4,0.5-0.6,0.7
				c-0.5,0.4-1,0.6-1.5,0.8c-1,0.4-2.1,0.7-3.1,0.9c-2.1,0.4-4.3,0.6-6.4,0.6c-2.1,0-4.3-0.1-6.4-0.6c-1.1-0.2-2.1-0.5-3.1-0.9
				c-0.5-0.2-1-0.5-1.5-0.8c-0.4-0.3-1-0.9-1-1.6c0-0.8,0.5-1.3,1-1.7c0.5-0.4,1-0.6,1.5-0.8c1-0.4,2.1-0.7,3.1-0.9
				c2.1-0.4,4.3-0.6,6.4-0.6c2.1,0,4.3,0.2,6.4,0.6c1.1,0.2,2.1,0.5,3.1,0.9c0.5,0.2,1,0.5,1.5,0.8C46.8,85.7,47.3,86.2,47.3,87
				L47.3,87z M46.5,87c0-0.3-0.3-0.7-0.6-1c-0.4-0.3-0.8-0.5-1.3-0.7c-0.9-0.4-1.9-0.7-3-0.9c-2-0.4-4.1-0.6-6.2-0.6
				c-2.1,0-4.2,0.2-6.2,0.6c-1,0.2-2,0.5-3,0.9c-0.5,0.2-0.9,0.4-1.3,0.7c-0.4,0.3-0.6,0.6-0.6,1c0,0.3,0.3,0.7,0.6,1
				c0.4,0.3,0.8,0.5,1.3,0.7c0.9,0.4,1.9,0.7,3,0.9c2,0.4,4.1,0.6,6.3,0.6c2.1,0,4.2-0.2,6.2-0.6c1-0.2,2-0.5,3-0.9
				c0.5-0.2,0.9-0.4,1.3-0.7C46.2,87.7,46.5,87.4,46.5,87L46.5,87z"/>
		</g>
		<path class="st8" d="M24.9,88.8c0.5-0.9,1.3-1.4,2.1-1.9c0.8-0.4,1.7-0.7,2.6-0.8c0.9-0.1,1.8-0.2,2.6-0.4
			c0.9-0.2,1.7-0.5,2.3-1.1l0,0l0.4-0.2l0.1,0.3c0.3,0.8,1.3,1.2,2.2,1.3c0.9,0.2,1.9,0.2,2.9,0.2c1,0.1,2,0.1,3,0.3
			c0.5,0.1,1,0.2,1.5,0.4c0.5,0.2,1,0.5,1.3,0.9l-0.6,0.4c-0.2-0.3-0.6-0.6-1-0.8c-0.4-0.2-0.9-0.4-1.3-0.5
			c-0.9-0.2-1.9-0.3-2.9-0.4c-1-0.1-1.9-0.1-2.9-0.2c-1-0.2-2.1-0.4-2.8-1.4l0.5,0.1h0c-0.8,0.5-1.8,0.8-2.6,0.9
			c-0.9,0.2-1.8,0.2-2.7,0.4c-0.9,0.1-1.7,0.3-2.4,0.8c-0.7,0.4-1.4,1-1.7,1.7L24.9,88.8z"/>
		<path class="st8" d="M68.5,81.3c0.7-0.7,1.6-1.2,2.5-1.7c0.9-0.4,1.9-0.7,2.9-0.9c1-0.2,2-0.2,2.9-0.4c1-0.2,1.9-0.5,2.5-1.1
			l0.2-0.2l0.3,0.3l0,0c0.3,0.7,1.3,1,2.2,1.2c0.9,0.1,1.9,0.2,2.9,0.3c1,0.1,1.9,0.3,2.9,0.5c0.5,0.1,0.9,0.3,1.4,0.5
			c0.5,0.2,0.9,0.4,1.4,0.9L90,81.2c-0.2-0.3-0.6-0.5-1-0.8c-0.4-0.2-0.8-0.4-1.3-0.6c-0.9-0.3-1.8-0.5-2.8-0.6
			C84,79.1,83,79.1,82.1,79c-0.5-0.1-1-0.1-1.5-0.3c-0.5-0.2-1-0.4-1.3-0.9v0l0.5,0.1c-0.9,0.6-1.9,0.8-2.9,1c-1,0.2-2,0.1-2.9,0.3
			c-0.9,0.2-1.9,0.5-2.7,0.9c-0.9,0.4-1.6,1-2.2,1.7L68.5,81.3z"/>
		<path class="st8" d="M50.9,89.4c0.4-0.9,1.3-1.7,2.2-2.1c0.9-0.4,1.9-0.6,2.8-0.7c0.9-0.1,1.9-0.2,2.8-0.5
			c0.9-0.3,1.9-0.5,2.9-0.3c0.5,0.1,0.9,0.4,1.4,0.6c0.4,0.2,0.9,0.3,1.3,0.4c0.9,0.2,1.9,0.2,2.8,0.2c0.9,0.1,1.9,0.2,2.9,0.4
			c0.9,0.3,1.9,0.6,2.6,1.5l-0.6,0.4c-0.2-0.3-0.5-0.6-0.9-0.8c-0.4-0.2-0.8-0.4-1.2-0.6c-0.9-0.3-1.8-0.4-2.7-0.5l-2.8-0.3
			c-0.5-0.1-1-0.1-1.5-0.2c-0.5-0.1-0.9-0.3-1.3-0.4c-0.8-0.2-1.7,0-2.7,0.1c-0.9,0.2-1.9,0.2-2.8,0.4c-0.9,0.2-1.8,0.3-2.6,0.7
			c-0.8,0.4-1.4,1.1-1.7,1.9L50.9,89.4z"/>
		<path class="st8" d="M29.5,81.4c-0.3-0.8-0.9-1.5-1.7-1.9c-0.8-0.4-1.7-0.5-2.7-0.7c-0.9-0.1-1.9-0.1-2.8-0.3
			c-0.9-0.1-1.8-0.3-2.7-0.1c-0.4,0.1-0.8,0.3-1.3,0.4c-0.5,0.2-1,0.2-1.4,0.3L14,79.6c-0.9,0.1-1.9,0.3-2.7,0.6
			c-0.4,0.2-0.9,0.3-1.2,0.6c-0.4,0.2-0.7,0.5-0.9,0.9l-0.6-0.4c0.7-0.9,1.7-1.3,2.6-1.6c0.9-0.3,1.9-0.4,2.8-0.5
			c0.9-0.1,1.9-0.2,2.8-0.3c0.5-0.1,0.9-0.2,1.3-0.4c0.4-0.2,0.8-0.4,1.3-0.6c1-0.3,2.1,0,3,0.2c0.9,0.3,1.8,0.3,2.8,0.4
			c0.9,0.1,1.9,0.3,2.8,0.6c0.9,0.4,1.8,1.1,2.2,2L29.5,81.4z"/>
		<path class="st8" d="M48.9,52.5c0.6,0.3,1.1,0.6,1.7,1.1c0.5,0.4,1,1,1.3,1.7c0.6,1.5-0.1,3.2-1.4,4c-0.6,0.4-1.4,0.5-2.2,0.4
			c-0.7-0.1-1.4-0.5-1.9-0.9c-0.5-0.4-1-0.8-1.5-1.2c-0.5-0.4-1-0.7-1.5-0.9l0,0l0.2,0c-3.3,0.8-6.8,0.8-10.1,0.1
			c-1.7-0.4-3.3-0.9-4.8-1.6c-1.5-0.7-3-1.5-4.2-2.8c1.6,0.5,3.1,1.3,4.6,2c1.5,0.6,3.1,1.1,4.7,1.4c1.6,0.3,3.2,0.5,4.9,0.4
			c1.6,0,3.3-0.2,4.9-0.5l0.1,0l0.1,0l0,0c0.8,0.2,1.3,0.6,1.8,1l1.5,1.2c0.5,0.4,1,0.6,1.5,0.7c0.5,0.1,1.1,0,1.5-0.3
			c0.9-0.5,1.4-1.8,1-2.7c-0.4-1-1.5-1.8-2.5-2.4L48.9,52.5z"/>
		<path class="st8" d="M47.6,54.1c1.7,0.6,3.2,1.7,4.3,3.4l-0.9,0.5C50.3,56.4,49.1,55,47.6,54.1z"/>
		<path class="st8" d="M46.5,55.5c0.8,0.3,1.5,0.7,2.3,1.1c0.7,0.5,1.4,1,1.9,1.8l-0.8,0.5c-0.3-0.7-0.8-1.3-1.4-1.9
			C47.9,56.5,47.2,55.9,46.5,55.5z"/>
		<path class="st8" d="M47.2,58.8c-0.3,0.4-0.5,0.8-0.7,1.2l-0.6-0.4c0.3-0.4,0.7-0.7,1.1-1L47.2,58.8z"/>
		<path class="st8" d="M46,57.8c-0.3,0.4-0.6,0.9-0.8,1.4l-0.6-0.4c0.4-0.5,0.8-0.8,1.3-1.2L46,57.8z"/>
		<path class="st13" d="M44.4,56.7c-0.1,1,0.3,2.2,1.2,2.7c1,0.6,2.1,0.7,3-0.2"/>
		<path class="st8" d="M67.2,55.5c0.9,1.6,1.7,3.4,2.4,5.1c0.7,1.8,1.3,3.5,1.8,5.4c0.5,1.8,1,3.6,1.3,5.5c0.4,1.9,0.7,3.7,0.9,5.6
			L73,77.1c-0.2-1.9-0.4-3.7-0.8-5.5c-0.3-1.8-0.8-3.7-1.3-5.5c-0.5-1.8-1.1-3.6-1.9-5.3c-0.7-1.7-1.5-3.4-2.5-5L67.2,55.5z"/>
		<path class="st8" d="M37.6,48.7c1.5-1.7,3.2-3.2,5.2-4.3c1.9-1.1,4.2-1.8,6.4-1.9c2.3-0.1,4.5,0.4,6.6,1.4c2,1,3.9,2.3,5.6,3.8
			l-0.5,0.5c-1.5-1.6-3.3-2.9-5.3-3.8c-2-0.9-4.1-1.5-6.3-1.4c-2.2,0.1-4.3,0.8-6.2,1.9c-1.9,1.1-3.5,2.7-4.9,4.4L37.6,48.7z"/>
		<path class="st8" d="M26.3,77c0.3-1.8,0.6-3.5,1-5.3c0.4-1.8,0.9-3.5,1.4-5.2c1-3.4,2.3-6.8,3.9-10.1l0.7,0.3
			c-1.7,3.1-3,6.5-4,9.9c-0.5,1.7-1,3.4-1.3,5.2c-0.4,1.7-0.7,3.5-0.9,5.3L26.3,77z"/>
		<g>
			<path class="st14" d="M83.9,80.6c0,0.1,0,0.2,0.1,0.3c0.1,0.1,0.5-0.1,0.5-0.1c-0.1-0.1-0.1-0.2-0.1-0.3
				C84.3,80.4,83.9,80.5,83.9,80.6L83.9,80.6z"/>
		</g>
		<g>
			<path class="st14" d="M82.5,80.7c0.1-0.1,0.1-0.2,0.2-0.3c0.1-0.2-0.4-0.2-0.5,0c-0.1,0.1-0.1,0.2-0.2,0.3
				C81.9,80.8,82.4,80.8,82.5,80.7L82.5,80.7z"/>
		</g>
		<g>
			<path class="st14" d="M77.9,82.3c0.1,0.1,0.2,0.2,0.3,0.3c0.1,0,0.5-0.1,0.4-0.2c-0.1,0-0.2-0.1-0.3-0.2
				C78.3,82,77.8,82.2,77.9,82.3L77.9,82.3z"/>
		</g>
		<g>
			<path class="st14" d="M78.9,80.5c-0.1-0.1-0.2-0.1-0.3-0.2c-0.1-0.1-0.6,0.1-0.4,0.2c0.1,0.1,0.2,0.2,0.4,0.3
				C78.7,80.8,79.1,80.6,78.9,80.5L78.9,80.5z"/>
		</g>
		<g>
			<path class="st14" d="M79.5,79.1c0,0.1-0.1,0.2-0.1,0.3c-0.1,0.2,0.4,0.1,0.4,0c0.1-0.1,0.1-0.2,0.2-0.4
				C80,78.9,79.6,78.9,79.5,79.1L79.5,79.1z"/>
		</g>
		<g>
			<path class="st14" d="M73.5,80.7c0.1,0.2,0.2,0.3,0.3,0.4c0.2,0.1,0.6-0.1,0.4-0.3c-0.1-0.1-0.2-0.2-0.3-0.3
				C73.9,80.3,73.4,80.4,73.5,80.7L73.5,80.7z"/>
		</g>
		<g>
			<path class="st14" d="M75.3,80.4c0,0.2,0.1,0.3,0.1,0.4c0.1,0.1,0.5-0.1,0.5-0.2c-0.1-0.1-0.1-0.2-0.1-0.3
				C75.8,80.2,75.4,80.3,75.3,80.4L75.3,80.4z"/>
		</g>
		<g>
			<path class="st14" d="M82.5,81.9c0,0.1-0.1,0.1-0.2,0.2c-0.3,0.2,0.1,0.3,0.3,0.2c0.1-0.1,0.2-0.2,0.3-0.3
				C83.1,81.7,82.6,81.7,82.5,81.9L82.5,81.9z"/>
		</g>
		<g>
			<path class="st14" d="M79.9,81.4c0,0.1,0,0.2-0.1,0.3c0,0.1,0.4,0,0.5-0.1c0-0.1,0-0.2,0.1-0.3C80.4,81.2,80,81.2,79.9,81.4
				L79.9,81.4z"/>
		</g>
		<g>
			<path class="st14" d="M85.9,80.4c0.2,0.1,0.4,0.3,0.6,0.4c0.2,0.1,0.6-0.1,0.4-0.3c-0.2-0.2-0.5-0.4-0.7-0.5
				C86,80,85.6,80.3,85.9,80.4L85.9,80.4z"/>
		</g>
		<g>
			<path class="st14" d="M74.9,82.5c0.1,0,0.2,0.1,0.2,0.1c0.1,0,0.6-0.1,0.4-0.2c-0.1,0-0.2-0.1-0.2-0.1
				C75.1,82.2,74.7,82.4,74.9,82.5L74.9,82.5z"/>
		</g>
		<g>
			<path class="st15" d="M32.2,87c0,0.1,0.1,0.2,0.2,0.3c0.1,0.1,0.5-0.1,0.5-0.2c-0.1-0.1-0.1-0.1-0.1-0.2
				C32.7,86.8,32.2,86.9,32.2,87L32.2,87z"/>
		</g>
		<g>
			<path class="st15" d="M33.7,87.1c-0.1,0.1-0.1,0.3-0.1,0.5c0,0.1,0.5,0,0.5-0.1c0-0.1,0-0.3,0-0.4C34.3,86.9,33.8,87,33.7,87.1
				L33.7,87.1z"/>
		</g>
		<g>
			<path class="st15" d="M36.7,87.5c-0.1,0.2-0.2,0.3-0.3,0.5c-0.1,0.3,0.4,0.3,0.5,0.1c0.1-0.1,0.1-0.3,0.2-0.4
				C37.3,87.4,36.9,87.3,36.7,87.5L36.7,87.5z"/>
		</g>
		<g>
			<path class="st15" d="M39.3,88.1c0,0.2,0.1,0.3,0.3,0.4c0.1,0.1,0.6-0.1,0.4-0.2c-0.1-0.1-0.2-0.1-0.2-0.3
				C39.8,87.8,39.3,87.9,39.3,88.1L39.3,88.1z"/>
		</g>
		<g>
			<path class="st15" d="M36.1,89.3c0,0,0.1,0,0.1,0c0.1,0.1,0.5-0.1,0.5-0.2c-0.1-0.1-0.1-0.1-0.2-0.1
				C36.3,89.1,35.8,89.3,36.1,89.3L36.1,89.3z"/>
		</g>
		<g>
			<path class="st15" d="M30.8,89.2c0.1,0.1,0.1,0.1,0.2,0.2c0.1,0.1,0.5-0.1,0.5-0.2c0-0.1-0.1-0.1-0.1-0.2
				C31.2,88.9,30.7,89.1,30.8,89.2L30.8,89.2z"/>
		</g>
		<g>
			<path class="st15" d="M29.7,87.7c0,0.2,0,0.3-0.1,0.4c-0.1,0.2,0.4,0.2,0.5,0c0.1-0.2,0.1-0.4,0.1-0.6
				C30.2,87.4,29.7,87.5,29.7,87.7L29.7,87.7z"/>
		</g>
		<g>
			<path class="st15" d="M27.8,88.6c0.1,0.1,0.1,0.3,0.3,0.3c0.1,0,0.6-0.1,0.4-0.2c-0.1-0.1-0.2-0.2-0.2-0.3
				C28.2,88.4,27.8,88.5,27.8,88.6L27.8,88.6z"/>
		</g>
		<g>
			<path class="st15" d="M33.5,88.8c-0.1,0-0.3-0.1-0.4-0.1c-0.1,0-0.6,0.2-0.4,0.2c0.1,0,0.3,0.1,0.4,0.1
				C33.2,89,33.6,88.8,33.5,88.8L33.5,88.8z"/>
		</g>
		<g>
			<path class="st15" d="M37.7,86.9c0,0.1,0,0.2,0,0.4c0.1,0.1,0.5,0,0.5-0.1c-0.1-0.1-0.1-0.2,0-0.3C38.2,86.7,37.7,86.8,37.7,86.9
				L37.7,86.9z"/>
		</g>
		<g>
			<path class="st15" d="M34.9,86.8c0.1,0.2,0.1,0.4,0.2,0.5c0.1,0.1,0.6,0,0.4-0.2c-0.1-0.2-0.1-0.4-0.2-0.5
				C35.3,86.5,34.8,86.7,34.9,86.8L34.9,86.8z"/>
		</g>
		<g>
			<path class="st15" d="M37.6,89.4c0.1,0.1,0.1,0.1,0.2,0.2c0.2,0.1,0.6-0.1,0.4-0.3c-0.1,0-0.1-0.1-0.2-0.1
				C37.9,89,37.5,89.2,37.6,89.4L37.6,89.4z"/>
		</g>
		<g>
			<path class="st15" d="M41.8,88.2c0.1,0,0.1,0.1,0.1,0.2c0,0.2,0.5,0.1,0.5-0.1c0-0.2,0-0.2-0.2-0.3
				C42.1,87.9,41.6,88.1,41.8,88.2L41.8,88.2z"/>
		</g>
		<g>
			<path class="st15" d="M43.2,88.2c0,0.1,0,0.2,0,0.3c0,0.1,0.5,0,0.5-0.1c0-0.2,0-0.2,0-0.3C43.7,88,43.2,88.1,43.2,88.2
				L43.2,88.2z"/>
		</g>
		<g>
			<path class="st15" d="M40.5,88.8c0,0.1,0,0.3-0.1,0.4c-0.2,0.2,0.3,0.3,0.4,0.1C41,89.1,41,89,41,88.7
				C41,88.5,40.5,88.6,40.5,88.8L40.5,88.8z"/>
		</g>
		<g>
			<path class="st14" d="M71,81c0,0.1,0,0.3,0.1,0.4c0,0.1,0.5,0,0.5-0.1c-0.1-0.1-0.1-0.3-0.1-0.4C71.5,80.8,71,80.9,71,81L71,81z"
				/>
		</g>
		<g>
			<path class="st14" d="M77.5,79c-0.1,0.2-0.1,0.2-0.1,0.3c0,0.2,0.5,0.2,0.5,0c0-0.1,0-0.2,0-0.2C78.1,78.8,77.6,78.8,77.5,79
				L77.5,79z"/>
		</g>
		<g>
			<path class="st14" d="M85.4,81.6c0,0.1,0,0.2-0.1,0.3c0,0.1,0.4,0,0.5-0.1c0.1-0.1,0.1-0.2,0.1-0.3
				C85.8,81.4,85.3,81.5,85.4,81.6L85.4,81.6z"/>
		</g>
	</g>
	<path class="st4" d="M45.9,25.2c1-0.6,2.1-0.8,3.2-0.9c1.1,0,2.2,0.2,3.3,0.6c-1.1,0.1-2.2,0.1-3.3,0.2L45.9,25.2z"/>
</g>
</svg>
