<?xml version="1.0" encoding="utf-8"?>
<!-- Generator: Adobe Illustrator 17.0.0, SVG Export Plug-In . SVG Version: 6.00 Build 0)  -->
<!DOCTYPE svg PUBLIC "-//W3C//DTD SVG 1.1//EN" "http://www.w3.org/Graphics/SVG/1.1/DTD/svg11.dtd">
<svg version="1.1" id="Слой_1" xmlns="http://www.w3.org/2000/svg" xmlns:xlink="http://www.w3.org/1999/xlink" x="0px" y="0px"
width="102px" height="84.548px" viewBox="0 0 102 84.548" enable-background="new 0 0 102 84.548" xml:space="preserve">
<path fill="#c7a270" d="M65.172,78.388c-4.454,0-8.685-1.27-11.961-3.582c-7.725,0.269-14.326-1.027-17.955-3.427
c-3.439-2.272-4.454-3.479-6.477-5.88c-0.312-0.372-0.651-0.775-1.029-1.218l-0.142-0.199c-0.592-0.831-1.589-1.345-2.647-1.345
c-0.861,0-1.673,0.333-2.286,0.938L11.929,74.287c-1.313,1.31-3.066,2.033-4.933,2.033c-2.275,0-4.413-1.101-5.719-2.943
C0.094,71.705-0.29,69.6,0.224,67.602c0.518-2.014,1.882-3.688,3.744-4.594l13.561-6.588c0.865-0.421,1.498-1.195,1.736-2.125
c0.238-0.929,0.058-1.91-0.497-2.692c-0.232-0.328-0.416-0.659-0.56-1.01l-0.074-0.204c-0.188-0.529-0.284-1.084-0.284-1.652
c0-1.605,0.785-3.121,2.1-4.055l47.358-33.541c0.846-0.597,1.836-0.911,2.866-0.911c1.607,0,3.123,0.782,4.055,2.092l0.063,0.095
c0.616,0.826,1.559,1.298,2.6,1.298c0.861,0,1.675-0.334,2.29-0.94L90.06,2.028C91.385,0.72,93.141,0,95.003,0
c2.275,0,4.413,1.102,5.719,2.947c1.185,1.671,1.569,3.778,1.055,5.78c-0.518,2.012-1.881,3.682-3.74,4.581L84.306,20.01
c-0.859,0.421-1.488,1.196-1.726,2.128c-0.235,0.928-0.054,1.904,0.499,2.682l0.102,0.156c1.258,1.772,1.152,4.194-0.161,5.877
c2.519,3.026,3.652,5.75,3.456,8.297c0.89,1.876,5.483,12.536-1.28,19.795c0.387,4.989-1.059,9.445-4.196,12.911
C77.297,75.946,71.381,78.387,65.172,78.388L65.172,78.388z M53.826,72.779l0.284,0.21c2.972,2.191,6.9,3.399,11.062,3.399
c0,0,0,0,0.001,0c5.652-0.001,11.015-2.196,14.343-5.873c2.845-3.143,4.106-7.235,3.647-11.835l-0.047-0.471l0.334-0.335
c6.765-6.788,1.169-17.972,1.111-18.084l-0.139-0.271l0.036-0.302c0.266-2.227-0.891-4.756-3.537-7.734l-0.683-0.77l0.788-0.661
c1.161-0.973,1.378-2.711,0.495-3.957l-0.102-0.155c-0.866-1.217-1.16-2.796-0.78-4.293c0.382-1.502,1.397-2.753,2.786-3.433
L97.16,11.51c1.332-0.645,2.307-1.84,2.678-3.281c0.367-1.431,0.095-2.935-0.75-4.126C98.158,2.785,96.631,2,95.003,2
c-1.333,0-2.59,0.515-3.538,1.451L80.587,14.198c-0.992,0.979-2.305,1.517-3.695,1.517c-1.705,0-3.309-0.83-4.288-2.22
l-0.061-0.089c-0.929-1.227-2.813-1.525-4.08-0.631L21.106,46.314c-0.787,0.558-1.257,1.464-1.257,2.423
c0,0.379,0.071,0.748,0.212,1.096l0.044,0.109c0.078,0.17,0.175,0.336,0.294,0.505c0.895,1.263,1.188,2.847,0.803,4.345
c-0.385,1.501-1.405,2.75-2.8,3.428l-13.56,6.587C3.509,65.455,2.531,66.656,2.16,68.1c-0.366,1.428-0.094,2.931,0.749,4.122
c0.932,1.313,2.459,2.099,4.087,2.099c1.333,0,2.585-0.517,3.524-1.453l10.75-10.615c0.989-0.977,2.3-1.515,3.69-1.515
c1.705,0,3.312,0.828,4.298,2.215l0.05,0.075c0.366,0.43,0.696,0.82,1.001,1.184c1.958,2.325,2.851,3.386,6.05,5.5
c3.335,2.205,9.669,3.405,17.113,3.083L53.826,72.779z"/>
<path fill="#c7a270" d="M52.316,30.503c-0.313,0-0.622-0.146-0.817-0.422c-0.319-0.451-0.212-1.075,0.238-1.395l8.702-6.163
c0.45-0.318,1.074-0.213,1.395,0.238c0.319,0.451,0.212,1.075-0.238,1.395l-8.702,6.163C52.718,30.444,52.517,30.503,52.316,30.503
z"/>
<path fill="#c7a270" d="M26.932,48.482c-0.313,0-0.622-0.146-0.817-0.422c-0.319-0.451-0.212-1.075,0.238-1.395l20.81-14.738
c0.452-0.318,1.075-0.212,1.395,0.238c0.319,0.451,0.212,1.075-0.238,1.395L27.51,48.298
C27.333,48.422,27.131,48.482,26.932,48.482z"/>
<path fill="#c7a270" d="M35.383,64.623c-0.313,0-0.622-0.146-0.817-0.422c-0.319-0.451-0.212-1.075,0.238-1.395l46.013-32.588
c0.068-0.049,0.144-0.111,0.22-0.174c0.426-0.352,1.058-0.287,1.407,0.14c0.351,0.428,0.287,1.058-0.14,1.407
c-0.107,0.088-0.216,0.176-0.323,0.254L35.96,64.44C35.784,64.564,35.582,64.623,35.383,64.623z"/>
<path fill="#c7a270" d="M65.174,73.378c-1.148,0-2.286-0.106-3.382-0.317c-0.001-0.001-0.002-0.001-0.003-0.001
c-2.225-0.429-4.262-1.291-5.893-2.494c-0.444-0.328-0.539-0.954-0.211-1.398c0.328-0.443,0.954-0.539,1.398-0.211
c1.393,1.027,3.15,1.768,5.085,2.14l0,0c3.604,0.693,7.693,0.055,10.722-1.653c0.482-0.273,1.092-0.101,1.362,0.38
c0.271,0.48,0.102,1.091-0.38,1.362C71.331,72.619,68.323,73.377,65.174,73.378z M49.228,69.784c-0.015,0-0.028,0-0.043-0.001
c-2.445-0.103-4.67-0.385-6.611-0.838c-0.538-0.125-0.872-0.663-0.746-1.201c0.125-0.537,0.655-0.871,1.201-0.746
c1.819,0.425,3.919,0.689,6.24,0.787c0.552,0.023,0.98,0.489,0.957,1.041C50.203,69.363,49.76,69.784,49.228,69.784z
M77.267,67.933c-0.203,0-0.409-0.062-0.587-0.19c-0.446-0.325-0.546-0.95-0.222-1.397c1.421-1.956,2-4.368,1.72-7.169
l-0.281-2.826l2.006-2.012c4.138-4.153,0.234-12.195,0.194-12.276c-0.243-0.493-0.045-1.092,0.446-1.339
c0.491-0.244,1.089-0.054,1.339,0.437c0.047,0.093,4.596,9.414-0.563,14.591l-1.338,1.342l0.188,1.886
c0.33,3.303-0.373,6.178-2.091,8.543C77.881,67.79,77.576,67.933,77.267,67.933z"/>
<path fill="#c7a270" d="M11.303,44.744c-0.307,0-0.608-0.14-0.805-0.405c-5.199-7.021-6.784-15.901-4.239-23.754
c2.665-8.224,9.49-14.449,19.219-17.528c7.553-2.269,16.505,1.113,20.18,5.647c8.707,0.208,14.956,2.976,18.688,5.284
c0.47,0.291,0.614,0.907,0.324,1.377c-0.291,0.47-0.907,0.615-1.377,0.324c-3.585-2.219-9.645-4.886-18.147-4.994l-0.5-0.007
l-0.295-0.403c-3.062-4.193-11.327-7.411-18.283-5.317C16.986,7.843,10.622,13.61,8.162,21.201
c-2.346,7.24-0.872,15.445,3.944,21.948c0.328,0.443,0.235,1.069-0.209,1.398C11.718,44.68,11.51,44.744,11.303,44.744z"/>
<path fill="#c7a270" d="M59.293,19.044c-0.153,0-0.309-0.035-0.454-0.109c-4.07-2.083-8.7-3.17-13.759-3.23
c-0.553-0.007-0.995-0.46-0.988-1.012c0.007-0.553,0.419-0.968,1.012-0.988c5.371,0.064,10.299,1.226,14.646,3.449
c0.492,0.252,0.687,0.854,0.436,1.346C60.007,18.846,59.656,19.044,59.293,19.044z"/>
<path fill="#c7a270" d="M16.025,16.58c-0.243,0-0.485-0.088-0.678-0.265c-0.406-0.375-0.432-1.008-0.058-1.413
c1.761-1.909,3.929-3.555,6.444-4.891c0.487-0.262,1.092-0.075,1.352,0.414c0.26,0.487,0.074,1.093-0.414,1.352
c-2.314,1.23-4.304,2.737-5.911,4.48C16.563,16.472,16.295,16.58,16.025,16.58z"/>
<path fill="#c7a270" d="M41.114,13.65c-0.309,0-0.612-0.142-0.809-0.41c-1.381-1.891-5.591-3.915-9.657-3.915
c-1.111,0-2.167,0.148-3.139,0.44c-0.533,0.155-1.086-0.143-1.246-0.67c-0.158-0.529,0.142-1.087,0.67-1.246
c1.158-0.348,2.408-0.524,3.715-0.524c4.891,0,9.572,2.407,11.272,4.735c0.325,0.446,0.229,1.071-0.218,1.397
C41.525,13.587,41.318,13.65,41.114,13.65z"/>
<circle fill="#c7a270" cx="61.818" cy="7.389" r="1.25"/>
<circle fill="#c7a270" cx="53.99" cy="2.379" r="1.25"/>
<circle fill="#c7a270" cx="67.384" cy="1.335" r="1.25"/>
<circle fill="#c7a270" cx="29.818" cy="73.833" r="1.25"/>
<circle fill="#c7a270" cx="46.862" cy="81.698" r="1.25"/>
<circle fill="#c7a270" cx="39.661" cy="83.298" r="1.25"/>
</svg>
