<?xml version="1.0" encoding="utf-8"?>
<!-- Generator: Adobe Illustrator 17.0.0, SVG Export Plug-In . SVG Version: 6.00 Build 0)  -->
<!DOCTYPE svg PUBLIC "-//W3C//DTD SVG 1.1//EN" "http://www.w3.org/Graphics/SVG/1.1/DTD/svg11.dtd">
<svg version="1.1" id="Слой_1" xmlns="http://www.w3.org/2000/svg" xmlns:xlink="http://www.w3.org/1999/xlink" x="0px" y="0px"
	 width="76.7px" height="106.9px" viewBox="0.3 -0.6 76.7 106.9" style="enable-background:new 0.3 -0.6 76.7 106.9;"
	 xml:space="preserve">
<style type="text/css">
	.st0{fill:#ED9823;}
	.st1{fill:#F9C866;}
	.st2{fill:#513015;}
	.st3{fill:#F4F5F5;}
	.st4{fill:#FFFFFF;}
	.st5{fill:#231F20;}
	.st6{fill:#596B7F;}
	.st7{fill:#92B6EA;}
	.st8{fill:#D0E3FC;}
	.st9{fill:#774638;}
	.st10{fill:#A53F2B;}
	.st11{fill:#914D3D;}
	.st12{fill:#EAA4A4;}
	.st13{fill:#FFEBCC;}
	.st14{fill:#FF6022;}
	.st15{fill:#FF3C00;}
	.st16{fill:#DDDD00;}
	.st17{fill:#81AA00;}
	.st18{opacity:0.5;}
</style>
<g>
	<g>
		<path class="st0" d="M38.6,70.6c0.1-7.3-1.1-10.8-1.8-12.2v-0.2c0,0-0.2-0.2-0.3-0.3c0,0,0-0.1-0.1-0.1l0,0
			c-0.1-0.1-0.1-0.1-0.1-0.1c-2.7-4-6.1-2.8-8.1-3.5c0,0,0.1,0.6,1.9,2.2c1.8,1.6,4,4.2,4,4.2c0.8,1,1.5,2.3,2.2,3.8l0.1-1v0.9
			c0.3,0.6,0.5,1.2,0.7,1.6l0,0c0.3,0.5,0.5,1,0.7,1.4l-1.4,5.5c-0.6,2.6-1.7,22-2,25.1c1.4,0.4,2.3-0.3,3.7,0
			C38.2,97.8,38.5,80.6,38.6,70.6z"/>
		<path class="st1" d="M27.6,50.5c2.7-1.3,6.3-2.5,10-5.4c4.1-3.3,5.8-7.6,5.8-7.6s-1.5-2.4-4-3.7c-0.4-0.2-0.8-0.4-1.2-0.6
			c-2-1.1-3.8-2-3.8-2c0.1,0.3,0.1,0.6,0.1,1c-1-0.6-2-1-2.7-1.4c-1.2,0.2-1.3-1.5-1.3-1.5s0.1,0.4,0.3,0.6
			c-0.2-0.3-0.4-0.8-0.5-1.2c-0.2-0.8-0.4-1.7-0.7-2.6c-0.2-0.5-0.4-1.1-0.6-1.5c-0.3-0.5-0.7-0.8-1.2-1c-1.8-0.7-4.7,0.1-4.7,0.1
			c2.8,2.3,3.6,9,3.2,12.7c0,0-1-0.5-2.5-1c-1.1-0.3-2.5-0.7-4.1-0.8c-2.2-0.2-3.9-0.8-5.2-1.5c-1.5-0.9-2.6-2-3.6-2.9
			c0,0,1.8-1.7,2.9-3.9c0.3-0.7,0.9-1.4,1.7-2c0,0-1.2-0.5-2.9-0.1c-0.6,0.1-1.3,0.4-2,0.8c-2.5,1.6-7,2-6.5,5.2
			c0,0,0.6,1.7,2.7,1.6c0,0-2.5-0.8-1.4-2.4c1.1-1.5,3.3-1,6.1-1.9c0,0-2,2.4-4.7,4.2c-0.5,0.4-1.1,0.7-1.6,1
			c-3.4,1.8-4.5,3.7-4.8,5.3c0,0,2.5-0.5,4.1-0.4c0,0-1.5,0.7-2.5,1.6c0,0,5.4,8,17.4,10.3l0,0c0,0,1.1,1.7-0.2,2.7
			c-0.2,0.2-0.4,0.3-0.7,0.4l0,0c0,0-0.2,0.2-0.3,0.3c-0.2,0-0.4,0.1-0.6,0.1v0.3c0,0-0.2,0.3-0.2,0.8c-0.3,0.7-0.4,1.6,0.2,2.5
			c0.5,0.9,1,1.6,1.4,2.1c3,4.7,1,20.1,1.3,22.5v16.3h14.3l0.5-9.8c0-4.9,1.4-11.1,2.4-15c0.6-2.2,1.1-3.7,1.1-3.7
			c-0.2-0.7-0.4-1.3-0.6-1.9c0-0.1,0.1-0.1,0.1-0.1c-0.7-1.8-2.4-5.7-5.3-8.3c-0.6-0.7-1.3-1.4-1.9-2C29,54.9,29,54.3,29,54.3
			c-0.4-0.2-0.8-0.4-1.1-0.9c-1-1.5-0.4-2.5,0.3-3.1L27.6,50.5L27.6,50.5L27.6,50.5z M30.2,35c2.2-1.6,5.8-1.2,8.1-0.2l0,0
			c1.4,0.7,2.2,1.6,1.9,2.6c-0.4,1.3-1.2,2.2-2.1,2.8c-1.3,0.9-2.7,1.1-2.7,1.1s-1.1,0.5-3.1-0.5C30.3,39.9,26.6,37.5,30.2,35z"/>
		<path class="st2" d="M31.9,57.9c1.7,1.4,3.1,3.2,4.3,5c1.2,1.9,2.1,3.9,2.8,6.1l0,0v0.1v0.2c-1,3-1.8,6.1-2.4,9.2
			c-0.6,3.1-1.1,6.3-1,9.4h-1c-0.1-3.3,0.4-6.5,1-9.6C36.2,75.1,37,72,38,69v0.3l0,0c-0.4-2.1-1.2-4.1-2.2-6.1
			C34.7,61.3,33.5,59.5,31.9,57.9z"/>
		<path class="st0" d="M14.1,86.2c1.8,0.9,4,1.9,6.5,2.7l-0.3,8.8h-6.2C14.2,96.3,14,86.2,14.1,86.2L14.1,86.2z"/>
		
			<ellipse transform="matrix(6.027495e-02 -0.9982 0.9982 6.027495e-02 -60.6932 134.3337)" class="st3" cx="41" cy="99.4" rx="0.8" ry="0.6"/>
		<path class="st0" d="M20.3,81.4C20,79,22.1,63.3,19,58.8c-2.3-3.4-1.2-5.3-1.2-5.3v-0.3c-0.3,0-0.6,0.1-0.9,0.1
			c-1.1,0-2.1,0.1-3.1,0.3V86c0.1,0,0.2,0.1,0.3,0.1c1.7,0.7,3.9,1.5,6.3,2.2v-6.9C20.3,81.5,20.3,81.5,20.3,81.4L20.3,81.4z"/>
		<g id="XMLID_10_">
			<g>
				<path class="st0" d="M36,87.3c-1,2.8-3.4,2.3-5.4,1.3l0,0c0,0,3.1,3.5,4.7,3.5c1.1,0-1.1,2.7-4.1,1.7v0.1
					c-1.2,1.2-3.5,0.6-3.5,0.6s-1.9,1.2-4.1-0.5c-2.3-1.8-2.9-5.5-2.9-5.5c-11-3.1-17-8.1-17-8.1c-0.6,0.7-0.9,1.2-0.9,1.2
					c-1.2-1.6-1-3.2-1-3.2c-0.7,0.7-1.1,1.8-1.1,1.8c-0.9-3,7.3-19.9,8.1-21.5c2.3-4.8,4.9-5.4,8.1-5.5c0.3,0,0.6,0,0.9-0.1v0.3
					c0,0-1.1,1.9,1.2,5.3c0.2,0.3,0.4,0.6,0.5,0.9c0,0-7.5,12.8-10.9,16.7l-0.1,0.1c0.9,0.8,1.9,1.8,2.9,3.1c3.6,4.9,11,5.9,11.8,6
					c0,0,1.1-1.7,3.6-2.4c2.1-0.6,3.9,1.1,6.1,2.6C34.3,86.7,36,87.3,36,87.3z"/>
			</g>
		</g>
		<g>
			<g>
				<path class="st4" d="M23.6,31.4c0.1,1,0.1,3.8,0.1,4.1c-1.1-0.3-2.5-0.7-4.1-0.8c-2.2-0.2-3.9-0.8-5.2-1.5c0,0,0-1.9,0.8-4.2
					c5.6-0.8,8.3,1.6,8.3,1.6C23.6,30.8,23.6,31.1,23.6,31.4z M18.8,31.1c1.3-0.2,0.9-2.1,0.9-2.1l-1.2-0.1c0,0,0.5,1.2-0.2,1.3
					c-0.7,0.1-0.9-0.8-0.9-0.8S17.5,31.2,18.8,31.1z"/>
			</g>
		</g>
		<path class="st2" d="M20.2,31.2c-0.8,0-1.4,0.6-1.6,1.5c0.1-0.3,0.4-0.5,0.7-0.5c0.5,0,0.8,0.4,0.8,1c0,0.5-0.4,1-0.8,1
			s-0.7-0.4-0.8-0.9l0,0c0,1.1,0.8,2.1,1.7,2.1c0.9,0,1.7-0.9,1.7-2.1C21.9,32.2,21.1,31.2,20.2,31.2z"/>
		<g>
			<g>
				<path class="st4" d="M40.9,9c7.1,3.5,5.3,11.6,1.4,13.6c-4,2-8.7,0.2-10.7-3.2c-0.4-0.6-0.8-1.2-1.2-1.6h-0.1
					c-2.1,2-2.5,4.6-2.6,5.5c0,0.2,0,0.3,0,0.3c-1.8-0.7-4.7,0.1-4.7,0.1c-0.3-0.2-0.6-0.4-0.9-0.6c-0.4-0.2-0.8-0.3-1.2-0.4
					c0.1,0,2.6-0.1,2.6-3c0,0-1,1.3-3.2,1.3s-4.6,1.2-4.8,3.2c0,0-1.2-0.5-2.9-0.1c-0.1-4.5-2.8-7.5-2.8-7.5c-3,0-5.5-1.9-6.1-5.5
					c-0.4-2.8,1.2-5.9,4-7c3.5-1.5,6.1-0.4,7.6,0.6c0,0,0.5-3.4,4.3-4.4c8.7-2.2,11.9,6.8,11.9,6.8l0,0C33.5,7.1,37.3,7.2,40.9,9z"
					/>
			</g>
		</g>
		<g>
			<g>
				<path class="st1" d="M37.2,29.3c1.6,0.2,2.8,3,0.9,3.9c-2-1.1-3.8-2-3.8-2l0,0c-0.2-0.9-0.4-1.6-0.6-2.2
					c-1.4-3.5-4.1-2.9-4.1-2.9c-0.2-0.5-0.4-1.1-0.6-1.5c-0.3-0.5-0.7-0.8-1.2-1c0,0,0-0.1,0-0.3h0.1c1,0.3,1.6,2.2,1.6,2.2
					c2-0.6,2.4,0.2,3.4,0.7c0.2,0.1,0.3,0.2,0.5,0.2C33.4,26.5,34.7,29,37.2,29.3z"/>
			</g>
		</g>
		<g>
			<g>
				<path class="st4" d="M34.3,31.2c0.1,0.3,0.1,0.6,0.1,1c-1-0.6-2-1-2.7-1.4c1.2-0.2,0.8-1.9,0.8-1.9l-1.1-0.1c0,0,0.5,1-0.2,1.2
					c-0.2,0-0.4,0-0.5-0.1c-0.2-0.3-0.4-0.8-0.5-1.2c0,0,1.4-0.3,3.4,0.3C34,29.6,34.2,30.3,34.3,31.2L34.3,31.2z"/>
			</g>
		</g>
		<g>
			<g>
				<path class="st4" d="M32.5,29c0,0,0.4,1.7-0.8,1.9c-0.1-0.1-0.2-0.1-0.3-0.2c-0.3-0.2-0.5-0.4-0.7-0.7c0.1,0.1,0.3,0.2,0.5,0.1
					c0.7-0.1,0.2-1.2,0.2-1.2L32.5,29z"/>
			</g>
		</g>
		<g>
			<g>
				<path class="st1" d="M31.7,30.8c-1.2,0.2-1.3-1.5-1.3-1.5s0.1,0.4,0.3,0.6c0.2,0.3,0.4,0.5,0.7,0.7
					C31.5,30.7,31.6,30.8,31.7,30.8z"/>
			</g>
		</g>
		<path class="st2" d="M33.4,29.1c-0.5,0-0.9,0.4-1,0.9c0.1-0.2,0.3-0.3,0.4-0.3c0.3,0,0.5,0.3,0.5,0.6c0,0.3-0.2,0.6-0.5,0.6
			s-0.5-0.2-0.5-0.5l0,0c0,0.7,0.5,1.3,1.1,1.3s1.1-0.6,1.1-1.3C34.5,29.7,34,29.1,33.4,29.1z"/>
		<g>
			<g>
				<path class="st1" d="M34.1,30.4c-2-0.6-3,0.1-3,0.1c-0.2-0.8-1.2-3.5-1.5-4.4C29.6,26.1,33.1,25.5,34.1,30.4z"/>
			</g>
		</g>
		<g>
			<g>
				<path class="st0" d="M23.1,23.7c2.8,2.3,3.6,9,3.2,12.7c0,0-1-0.5-2.5-1c0-0.2,0-3.1-0.1-4.1c0-0.3-0.1-0.6-0.1-0.9
					c-1.3-6.4-7.1-5-8.2-1.7c0,0.1,0,0.1-0.1,0.2c-0.8,2.3-0.8,4.2-0.8,4.2c-1.5-0.9-2.6-2-3.6-2.9c0,0,1.8-1.7,2.9-3.9
					c0.3-0.7,0.9-1.4,1.7-2l0,0c1.2-1,2.9-1.6,4.6-1.6c0.1,0,0.1,0,0.2,0c0.2,0,0.4,0,0.6,0.1l0,0c0.4,0.1,0.8,0.2,1.2,0.4
					C22.5,23.3,22.8,23.5,23.1,23.7z"/>
			</g>
		</g>
		<g>
			<g>
				<path class="st4" d="M20.3,21.1c2.2,0,3.2-1.3,3.2-1.3c0,2.9-2.4,3-2.6,3l0,0c-0.2,0-0.4-0.1-0.6-0.1c-0.1,0-0.1,0-0.2,0
					c-1.7-0.1-3.4,0.6-4.6,1.6l0,0C15.7,22.3,18.1,21.1,20.3,21.1z"/>
			</g>
		</g>
		<g>
			<g>
				<path class="st5" d="M20.3,22.7c0.2,0,0.4,0,0.6,0.1C20.7,22.8,20.5,22.7,20.3,22.7z"/>
			</g>
		</g>
		<g>
			<g>
				<path class="st4" d="M19.7,29c0,0,0.4,1.9-0.9,2.1s-1.4-1.7-1.4-1.7s0.2,1,0.9,0.8c0.8-0.2,0.2-1.3,0.2-1.3L19.7,29z"/>
			</g>
		</g>
		<g>
			<g>
				<path class="st1" d="M15.3,28.8c1.1-3.2,7-4.7,8.2,1.7c0,0-2.6-2.3-8.3-1.6C15.3,28.9,15.3,28.8,15.3,28.8z"/>
			</g>
		</g>
		<path class="st1" d="M23.4,32.3c0,0,1.1-5.7-4.2-6.5c0,0-4.3,0-4.7,6.4C14.5,32.2,20,31.1,23.4,32.3z"/>
		<g>
			<g>
				<path class="st0" d="M17.7,56.8c1.3,2.2,2.1,2.8,2.5,4.9c-2.4-0.5-5.1-0.8-7.9-1.1c-0.2,0-0.4,0-0.6-0.1
					c-0.1-0.4-0.4-1.9-0.3-3.1c0.1-1.3,1.1-2.8,2.9-3.6c1.5-0.7,3.1-0.5,4.3-1.1C18.4,52.9,16.5,54.7,17.7,56.8z"/>
			</g>
		</g>
		<path class="st2" d="M41.3,8.5c-3.1-1.6-6.5-1.9-8.7-1.9c-0.2,0-0.4,0-0.5,0c-0.3-0.7-0.9-2-2-3.4c-2-2.5-4.7-3.8-7.6-3.8
			c-0.9,0-1.9,0.1-2.8,0.4c-3,0.8-4.1,2.8-4.5,4c-0.9-0.5-2.2-1-3.8-1c-1.2,0-2.4,0.3-3.7,0.8c-3,1.2-4.8,4.5-4.3,7.7
			c0.1,0.8,0.3,1.5,0.6,2.1c0,0.1,0,0.1,0.1,0.2c0,0.1,0.1,0.1,0.1,0.2l0,0c0.3,0.7,0.8,1.3,1.3,1.8l0.1,0.1
			c0.1,0.1,0.2,0.2,0.3,0.2C6,16,6.1,16,6.2,16.1c0,0,0.1,0,0.1,0.1c1,0.7,2.2,1.1,3.6,1.2l0,0c0.5,0.6,2.1,2.9,2.5,6.1
			c0,0.1,0,0.2,0,0.3c-0.2,0.1-0.4,0.1-0.5,0.2c-0.1,0-0.2,0.1-0.2,0.1l0,0c-0.1,0-0.1,0.1-0.2,0.1c-0.1,0.1-0.3,0.1-0.4,0.2
			l-0.2,0.1l-0.2,0.1c-0.1,0.1-0.2,0.1-0.3,0.2c-0.6,0.3-1.3,0.6-2,0.9c-2.2,0.9-4.7,1.9-4.3,4.6v0.1c0,0.1,0.4,1.1,1.6,1.7
			c-0.1,0-0.2,0.1-0.2,0.1c-3,1.6-4.7,3.5-5.1,5.7c0,0.2,0,0.4,0.2,0.5c0.1,0.1,0.3,0.2,0.4,0.2h0.1c0,0,0.6-0.1,1.3-0.2
			c-0.1,0.1-0.3,0.2-0.4,0.3l-0.4,0.5l0.3,0.4c0.4,0.5,0.7,0.9,1.1,1.3c0.2,0.2,0.4,0.4,0.6,0.6c0.7,0.7,1.6,1.7,2.8,2.6
			c2.6,2.1,7,4.8,13.1,6l0,0c0,0,0,0,0.1,0c0.3,0,0.6,0,1,0l0,0c0,0,0,0,0-0.1c1.4,0.2,2.9,0.2,4.3,0c-2.1-0.4-4.2-0.8-6.3-1.3
			c-2-0.5-4.1-1.1-6-2s-3.7-2-5.4-3.3c-0.8-0.7-1.6-1.4-2.3-2.2c-0.4-0.4-0.7-0.8-1-1.2c-0.2-0.3-0.4-0.5-0.6-0.8
			c0.2-0.2,0.4-0.4,0.6-0.5c0.2-0.2,0.4-0.3,0.6-0.4c0.2-0.1,0.4-0.3,0.6-0.4l1.1-0.7l-1.3,0.1c-0.7,0-1.4,0.1-2.1,0.2
			c-0.6,0.1-1.1,0.2-1.7,0.3c0.3-1.1,1-2.1,1.8-2.8c0.5-0.4,1-0.8,1.5-1.1c0.3-0.2,0.5-0.3,0.8-0.5l0.9-0.5c1.2-0.6,2.2-1.4,3.3-2.3
			c1-0.9,2-1.8,2.9-2.8l1.2-1.3L11.8,27c-0.7,0.3-1.5,0.5-2.3,0.6c-0.8,0.2-1.6,0.3-2.4,0.6c-0.8,0.3-1.6,1-1.6,1.9
			c0,0.5,0.3,0.9,0.6,1.1c0.2,0.2,0.5,0.3,0.7,0.4l-0.1,0.1c-0.4-0.1-0.7-0.2-1-0.4c-0.7-0.1-0.8-0.3-1-0.5
			c-0.1-0.2-0.3-0.4-0.3-0.6c-0.1-0.5,0-1.1,0.3-1.5s0.7-0.8,1.2-1c1-0.5,2.1-0.9,3.2-1.3c0.6-0.2,1.1-0.5,1.7-0.8l0.4-0.2
			c0.1-0.1,0.2-0.1,0.4-0.2s0.5-0.2,0.7-0.3c0.9-0.4,2-0.5,3-0.4c-0.1,0.1-0.1,0.3-0.2,0.4c0,0,2.7-2.8,6.5-1.3c0,0,1.4,0.6,1.5,0.1
			l0,0c0.9-0.2,1.7-0.2,2.6-0.2c0.4,0,0.9,0.1,1.3,0.2s0.7,0.3,1,0.5c0.1,0.1,0.3,0.2,0.4,0.3c0.1,0.1,0.2,0.2,0.3,0.4
			c0.2,0.4,0.4,0.7,0.5,1.1c0.3,0.8,0.5,1.6,0.8,2.5c0.1,0.4,0.3,0.9,0.5,1.3l0.1,0.1c-0.4,0-0.7,0-1.1,0.1s-0.7,0.2-1,0.4
			c-0.3,0.2-0.6,0.4-0.9,0.7c0.3-0.2,0.6-0.4,0.9-0.5s0.7-0.2,1-0.2c0.5,0,1,0,1.5,0.2l0.1,0.1l0,0c0.1,0.1,0.2,0.1,0.3,0.2
			c0.8,0.4,1.6,0.8,2.4,1.2c1,0.5,2.1,1.1,3,1.9c-1.1-0.2-2.2-0.3-3.3-0.2c-1.3,0.1-2.5,0.5-3.6,1.3c-0.5,0.4-1,0.8-1.3,1.5
			c-0.1,0.3-0.2,0.7-0.1,1c0,0.3,0.2,0.7,0.3,1c0.3,0.6,0.8,1.1,1.3,1.5s1,0.8,1.6,1.1c0.5,0.3,1.1,0.6,1.8,0.8
			c0.3,0.1,0.7,0.2,1,0.2c0.2,0,0.4,0,0.5,0s0.2,0,0.3,0s0.1,0,0.2,0l0,0c0.4,0,0.7-0.1,1-0.2l0,0c-0.3,0.4-0.6,0.8-0.9,1.1
			c-0.8,0.8-1.9,1.4-3.1,1.6c-2.4,0.3-4.8,0.1-7.2-0.6c-2.3-0.6-4.6-1.6-6.7-2.7c-1.1-0.6-2.1-1.2-3.1-1.8c-0.5-0.3-1-0.7-1.5-1.1
			c-0.2-0.2-0.6-0.3-0.7-0.6c-0.1-0.4,0.4-0.4,0.7-0.5v-0.1c-0.3-0.2-0.7-0.2-1.1-0.2h-0.1l0,0l0,0c-0.3,0.1-0.6,0.2-0.9,0.4
			c-0.3,0.2-0.6,0.5-0.8,0.9c-0.1,0.4-0.1,0.8,0,1.1h0.1c0.1,0,0.2-0.3,0.6-0.4c1.1-0.4,1.3,0,1.7,0.2c0.6,0.2,1.1,0.5,1.7,0.8
			c1.1,0.6,2.2,1.1,3.3,1.6c2.2,1,4.5,1.9,6.9,2.5s4.8,1,7.3,0.7c1.3-0.1,2.5-0.6,3.5-1.4c1.1-0.7,2-1.7,2.8-2.8
			c0,0,0.2-0.3,0.3-0.4c0.5-0.5,0.9-1.1,1.2-1.7c0.1-0.3,0.3-0.6,0.3-1c0.1-0.4,0.1-0.9-0.1-1.3c-0.3-0.7-0.9-1.2-1.5-1.5
			c-0.3-0.1-0.5-0.3-0.8-0.4c-0.6-0.6-1.3-1-2-1.5c-0.5-0.3-1.1-0.6-1.6-0.9c0-0.2-0.1-0.5-0.1-0.7c1.3,0.8,2.5,1.6,3.8,2.4l0,0l0,0
			c0.2,0.1,0.4,0.3,0.6,0.4c0.8,0.5,1.4,1,2,1.7c0.3,0.3,0.6,0.7,0.9,1c0.1,0.2,0.3,0.4,0.4,0.5l0.1,0.1c-0.2,0.3-0.3,0.7-0.5,1
			c-0.3,0.4-0.5,0.9-0.8,1.3c-0.6,0.9-1.2,1.7-1.9,2.5s-1.4,1.5-2.2,2.1c-0.8,0.7-1.7,1.3-2.5,1.8c-1.8,1.1-3.7,2-5.7,3
			c-0.6,0.3-1.2,0.6-1.7,0.9l0,0l0,0c-0.4,0.2-0.7,0.5-1.1,0.7c-0.4,0.3-0.9,0.7-1.2,1.2c-0.3,0.4-0.5,0.9-0.7,1.3h0.1
			c0.6-0.8,1.4-1.3,2.2-1.8l0,0c0.5-0.3,1.1-0.6,1.7-0.7l0,0c0.6-0.3,1.3-0.6,2.1-0.9c0.6-0.2,1.2-0.5,1.8-0.8
			c0.1-0.1,0.3-0.1,0.4-0.2c1-0.4,2-0.9,3-1.5c1-0.5,1.9-1.2,2.8-1.8c0.9-0.7,1.7-1.5,2.5-2.3s1.4-1.7,2.1-2.7
			c0.3-0.5,0.6-1,0.9-1.4c0.1-0.2,0.3-0.5,0.4-0.8c0.1-0.3,0.2-0.5,0.3-0.8l0.2-0.5l-0.2-0.3c-0.2-0.2-0.3-0.4-0.5-0.6
			c-0.2-0.2-0.3-0.4-0.5-0.5c-0.3-0.3-0.6-0.6-1-0.9c-0.7-0.6-1.5-1.2-2.4-1.7c-0.1-0.1-0.2-0.1-0.4-0.2c0.4-0.5,0.5-1.1,0.4-1.9
			c-0.2-1.1-1.1-2.4-2.4-2.6c-1.3-0.2-2.3-1.1-3-1.8c0.5-0.1,0.8-0.4,0.8-0.4c0.2-0.1,0.3-0.4,0.2-0.6s-0.3-0.4-0.5-0.5
			c-0.9-0.1-1.2-0.4-1.7-0.9c-0.3-0.3-0.7-0.7-1.4-1.2c-0.8-0.5-1.7-0.8-2.8-0.8c-0.2,0-0.4,0-0.6,0c0.2-1,0.7-2.6,1.8-3.9
			c0.2,0.3,0.5,0.7,0.7,1c1.3,2.2,3.6,3.7,6.2,4.2c0.1,0,0.2,0,0.3,0.1c1,0.2,2.1,0.2,3.2-0.1c0.5-0.1,1-0.3,1.5-0.5
			c0.1-0.1,0.2-0.1,0.4-0.2c0.1-0.1,0.3-0.1,0.4-0.2c0.2-0.2,0.5-0.3,0.7-0.5c0.9-0.7,1.5-1.7,1.9-2.6c0.4-1,0.7-2.1,0.7-3.1
			c0-0.1,0-0.3,0-0.4c0,0,0,0,0-0.1C46.4,12.9,44.5,10.1,41.3,8.5z M5.8,31.2C5.7,31.1,5.7,31,5.6,31c0.2,0.3,0.6,0.5,0.8,0.6l0,0
			C6.2,31.5,6,31.3,5.8,31.2z M34,31.7c-0.6-0.3-1.2-0.6-1.8-0.9l0,0c0,0-0.9-0.2-1.3-1.1l0,0c-0.1-0.2-0.2-0.3-0.2-0.5l0,0
			c-0.1-0.4-0.2-0.9-0.3-1.2l0,0c-0.1-0.6-0.2-1.1-0.3-1.7c0.2,0,0.3,0,0.5,0c0.3,0.1,0.6,0.2,0.9,0.3c0.5,0.3,0.9,0.7,1.2,1.1l0,0
			c0,0,0.1,0.1,0.1,0.2c0,0,0,0,0.1,0.1c0,0.1,0.1,0.1,0.1,0.2s0.1,0.1,0.1,0.2l0,0l0,0c0.2,0.4,0.4,0.9,0.6,1.5c0,0,0,0,0,0.1l0,0
			v0.1C33.8,30.6,33.9,31.1,34,31.7C34.1,31.8,34.1,31.8,34,31.7z M32.9,26.2c0.2,0.1,0.4,0.2,0.7,0.2c-0.1,0-0.2,0-0.2,0l0,0
			c0,0,0.5,0.9,1.4,1.7c0.4,0.4,0.9,0.8,1.5,1.1c0.3,0.2,0.7,0.3,1,0.4s0.5,0.3,0.7,0.5c0.4,0.4,0.7,1,0.7,1.6
			c0,0.4-0.1,0.7-0.4,0.8c0.2-0.8-0.1-1.8-1.5-2.3c-1-0.3-2.3-1.5-3.2-2.3v-0.1c-0.4-0.7-0.9-1.3-1.6-1.7c-0.3-0.2-0.7-0.3-1.1-0.4
			c-0.3,0-0.5-0.1-0.8-0.1c0-0.1-0.1-0.3-0.1-0.4C31.5,25,31.9,25.7,32.9,26.2z M45,16.6c-0.1,0.9-0.3,1.8-0.7,2.6
			c-0.4,0.8-0.9,1.5-1.5,2.1c-0.2,0.1-0.3,0.3-0.5,0.4c-0.1,0.1-0.2,0.1-0.3,0.2s-0.2,0.1-0.3,0.2c-0.4,0.2-0.8,0.4-1.2,0.5
			c-0.9,0.2-1.8,0.3-2.7,0.2c-0.9-0.1-1.8-0.3-2.6-0.7c-0.8-0.4-1.6-0.9-2.3-1.6c-0.3-0.3-0.6-0.7-0.9-1.1c-0.3-0.4-0.6-0.8-0.9-1.2
			c-0.6-0.8-1.3-1.5-2.1-2.1c-0.8-0.6-1.6-1.2-2.5-1.6c1.3,0.8,2.4,1.8,3.4,3c-0.4,0.4-0.7,0.8-1,1.3s-0.6,1-0.8,1.5
			c-0.2,0.5-0.4,1.1-0.6,1.6c-0.1,0.3-0.1,0.6-0.2,0.8c0,0.1,0,0.2-0.1,0.4c-0.1,0-0.1,0-0.2,0c-0.5,0-0.9,0-1.4,0.1
			c-0.9,0.1-1.7,0.3-2.6,0.6c0.1-0.2,0.4-1-0.8-1.8c-1.2-0.8-4.9-1.8-6.8,2.2c-0.7-0.3-1.5-0.5-2.3-0.4c-0.1-0.5-0.2-1-0.4-1.5
			c-0.1-0.3-0.2-0.7-0.3-1s-0.2-0.7-0.4-1c-0.3-0.6-0.5-1.3-0.8-1.9c-0.1-0.3-0.3-0.6-0.5-0.9c0,0,0,0,0-0.1c0.2,0,0.4-0.1,0.7-0.1
			c0.7-0.2,1.4-0.5,2-0.9s1.1-1,1.3-1.7c-1,1-2.3,1.5-3.5,1.7c-1.3,0.2-2.6,0.1-3.7-0.4c-0.6-0.3-1.1-0.6-1.5-1s-0.8-0.9-1.1-1.5
			c-0.3-0.6-0.5-1.2-0.6-1.8C4.1,10.7,4,10,4.1,9.4c0.1-1.3,0.7-2.6,1.6-3.6c0.4-0.5,1-0.9,1.6-1.2C7.9,4.3,8.5,4,9.2,3.9
			c1.3-0.3,2.7-0.3,4,0c1.3,0.4,2.5,1.1,3.5,2c-0.4-0.5-0.8-0.9-1.3-1.2c0.2-0.8,0.6-1.6,1.1-2.3c0.6-0.7,1.3-1.2,2.1-1.5
			c0.4-0.2,0.8-0.3,1.3-0.4c0.4-0.1,0.9-0.2,1.3-0.2c0.9-0.1,1.8-0.1,2.6,0.1c1.7,0.3,3.3,1.3,4.5,2.5C29,3.5,29.5,4.2,30,5
			c0.4,0.7,0.8,1.4,1.1,2.1c-0.3,0.1-0.6,0.1-0.9,0.2c1,0,2,0.1,2.9,0.2c1,0.1,1.9,0.2,2.9,0.3c1,0.2,1.9,0.4,2.8,0.7
			c0.9,0.3,1.8,0.7,2.6,1.2s1.5,1.1,2.1,1.8s1,1.5,1.3,2.4C45,14.8,45.1,15.7,45,16.6z"/>
		<path class="st2" d="M34.9,26.1c0,0-0.2,0.1-0.5,0.2C34.6,26.3,34.8,26.2,34.9,26.1L34.9,26.1z"/>
		<path class="st2" d="M34.4,26.4c-0.1,0-0.1,0-0.2,0.1C34.2,26.4,34.3,26.4,34.4,26.4z"/>
		<path class="st2" d="M33.8,26.5L33.8,26.5c-0.1,0-0.2,0-0.2,0C33.7,26.5,33.7,26.5,33.8,26.5z"/>
		<path class="st2" d="M5.4,30.6L5.4,30.6L5.4,30.6L5.4,30.6z"/>
		<g>
			<g>
				<path class="st2" d="M14,12.9c-3.2,4.2-10,0.4-8.4-4.6l0,0c-0.8,2.2,0.2,4.9,2.1,6.1c2.2,1.4,5.2,0.8,6.4-1.5
					C14.2,12.8,14.1,12.8,14,12.9z"/>
			</g>
		</g>
		<g>
			<g>
				<path class="st2" d="M11,35.5c-0.6,0.6-1.1,1.3-1.3,2.2c-0.1,0.4-0.1,0.9,0,1.3c0.1,0.4,0.3,0.8,0.6,1.1
					c-0.2-0.4-0.3-0.8-0.3-1.2c-0.1-0.4-0.1-0.8,0-1.2C10.1,37,10.5,36.2,11,35.5z"/>
			</g>
		</g>
		<g>
			<g>
				<path class="st2" d="M27.7,46.3c0.8,0.1,1.6,0,2.4-0.1c0.8-0.2,1.6-0.4,2.3-0.8c-0.4,0.2-0.8,0.3-1.1,0.4
					c-0.4,0.1-0.8,0.2-1.2,0.2c-0.8,0.1-1.6,0.1-2.4,0.1c-0.8-0.1-1.6-0.2-2.4-0.4s-1.5-0.5-2.3-0.8c0.7,0.4,1.5,0.7,2.2,1
					C26.1,46.1,26.9,46.2,27.7,46.3z"/>
			</g>
		</g>
		<g>
			<g>
				<path class="st2" d="M24.2,35.5h0.2c-0.1-0.9-0.1-1.8-0.2-2.7c0-0.5-0.1-0.9-0.1-1.4c-0.1-0.4-0.2-0.9-0.3-1.3l0,0l0,0l0,0
					c-0.2-0.9-0.6-1.8-1.2-2.5c-0.5-0.8-1.3-1.4-2.3-1.6c-0.9-0.3-1.9-0.1-2.7,0.2c-0.8,0.4-1.6,1-2.1,1.7c-0.2,0.3-0.3,0.6-0.5,1
					l0,0V29l0,0c0,0.1,0,0.1-0.1,0.2c-0.1,0.4-0.3,0.9-0.4,1.3c-0.2,0.8-0.3,1.5-0.4,2.3c-0.7-0.4-1.4-0.9-2-1.4
					c0.4,0.5,0.8,0.9,1.3,1.3c0.2,0.2,0.4,0.3,0.6,0.4l0,0l0,0c0.3,0.2,0.6,0.4,1,0.5c0.6,0.2,1.2,0.4,1.8,0.6
					c0.6,0.2,1.2,0.3,1.8,0.4l3.6,0.8c1.2,0.3,2.4,0.5,3.6,0.9l0,0C25.5,35.9,24.9,35.7,24.2,35.5z M23.2,32.8
					c0,0.8-0.1,1.6-0.1,2.4c-0.2,0-0.4-0.1-0.6-0.1c-1.2-0.2-2.5-0.4-3.7-0.6c-0.6-0.1-1.2-0.2-1.8-0.4c-0.6-0.1-1.2-0.4-1.7-0.7
					c-0.2-0.1-0.4-0.2-0.6-0.3c0-0.8,0.1-1.7,0.2-2.6c0.1-0.4,0.2-0.9,0.3-1.3c0-0.1,0.1-0.2,0.1-0.3l0,0l0,0v-0.1l0,0l0,0
					c0-0.1,0-0.1,0.1-0.2c0.1-0.2,0.2-0.4,0.3-0.6c0.9-1.5,2.9-2.3,4.5-1.7c0.8,0.3,1.5,0.8,1.9,1.5c0.3,0.5,0.6,1.1,0.7,1.8l0,0
					c0.1,0.4,0.2,0.8,0.2,1.2l0,0c0,0.2,0.1,0.5,0.1,0.7C23.3,31.9,23.3,32.4,23.2,32.8z"/>
			</g>
		</g>
		<g>
			<g>
				<path class="st2" d="M32.9,17.8c0.3,0.3,0.5,0.6,0.8,0.9c0.2,0.3,0.5,0.6,0.7,0.9c0.5,0.6,1.1,1.1,1.9,1.4
					c0.7,0.3,1.5,0.5,2.3,0.6c0.4,0,0.8,0,1.2-0.1s0.8-0.2,1.2-0.3c0.7-0.3,1.4-0.9,1.8-1.5c0.5-0.7,0.7-1.4,0.8-2.2
					c0.1-0.8,0-1.6-0.2-2.3c0.1,0.8,0.2,1.5,0,2.3c-0.1,0.8-0.4,1.5-0.9,2.1c-0.4,0.6-1,1.1-1.7,1.4s-1.4,0.4-2.2,0.4
					c-0.7,0-1.5-0.2-2.2-0.5s-1.3-0.7-1.8-1.3c-0.3-0.3-0.5-0.6-0.7-0.9C33.5,18.3,33.3,18,32.9,17.8c-0.5-0.6-1.1-1.1-1.7-1.6l0,0
					C31.9,16.7,32.4,17.2,32.9,17.8z"/>
			</g>
		</g>
		<g>
			<g>
				<path class="st4" d="M38.1,36.3c-0.9-0.8-4.1-1-7.1,0.2c1.3-1.6,5.8-2.5,7.9-0.8c0.6,0.5,0.7,1.4-0.1,1.9
					C38.9,37.3,38.6,36.8,38.1,36.3z"/>
			</g>
		</g>
		<path class="st2" d="M14.6,97.7h-1c0.1-2.3-0.1-11.3-0.1-11.4h1C14.5,86.6,14.6,95.4,14.6,97.7z"/>
		<path class="st2" d="M13.9,32.2c3.2-0.6,6.4-0.7,9.7-0.4l-0.2,1C20.4,32.2,17.2,32,13.9,32.2z"/>
		<path class="st2" d="M30.9,29.8c0.7,0.1,1.4,0.2,2.1,0.4c0.7,0.2,1.4,0.4,2,0.7c-0.7-0.1-1.4-0.2-2.1-0.2c-0.7,0-1.4,0-2,0.1
			L30.9,29.8z"/>
		<path class="st2" d="M17.7,53.5c-0.4,1.3,0,2.6,0.6,3.8c0.3,0.6,0.7,1.1,1,1.7c0.3,0.6,0.6,1.3,0.7,1.9c0.7,2.6,0.8,5.3,0.9,8
			s0,5.4-0.1,8c-0.1,2.7-0.3,5.4-0.3,8l0,0c0,0.1-0.1,0.3-0.2,0.3S20.1,85.1,20,85c-0.1-1.4,0-2.7,0-4.1l0.2-4
			c0.1-2.7,0.2-5.3,0.1-8s-0.2-5.3-0.8-7.9c-0.2-0.6-0.4-1.3-0.7-1.8c-0.3-0.5-0.7-1.1-1-1.8c-0.3-0.6-0.5-1.3-0.6-2
			C17.3,54.8,17.4,54.1,17.7,53.5z"/>
		<path class="st2" d="M13.2,61.4c-0.7-0.6-1.5-0.9-2.3-1.1c-0.8-0.2-1.7-0.1-2.4,0L8.3,59C10.3,59.1,12.2,60,13.2,61.4z"/>
		<path class="st2" d="M13.4,63.9c-1-0.5-2.1-0.8-3.1-0.9c-1.1-0.1-2.2,0-3.2,0.2l-0.2-1.4c1.2,0,2.4,0.1,3.5,0.5
			S12.5,63.2,13.4,63.9z"/>
		<path class="st2" d="M31.5,94.2c-0.1,0.1-0.3,0.3-0.4,0.4c-0.2,0.1-0.3,0.2-0.5,0.3c-0.3,0.1-0.7,0.2-1,0.3c-0.3,0-0.7,0.1-1,0
			c-0.3,0-0.7-0.1-1-0.1L28,95c-1,0.5-2,0.6-3,0.3c-0.5-0.1-1-0.4-1.4-0.6c-0.2-0.1-0.4-0.3-0.6-0.4c-0.2-0.2-0.4-0.3-0.5-0.5
			c-0.7-0.7-1.1-1.6-1.5-2.4c-0.4-0.9-0.6-1.7-0.8-2.7l0.4,0.4c-3.1-0.9-6.1-2-8.9-3.3c-1.4-0.7-2.9-1.4-4.2-2.2
			c-1.4-0.8-2.7-1.7-4-2.7L4,80.7c-0.3,0.4-0.8,0.7-1,1.1l-0.3,0.4l-0.3-0.4c-0.3-0.5-0.7-1-0.9-1.6c-0.1-0.3-0.2-0.6-0.3-0.9
			s-0.1-0.6-0.1-1l0.8,0.4c-0.2,0.2-0.4,0.4-0.6,0.7c0,0.3-0.2,0.6-0.3,0.9l-0.4,1.1l-0.2-1.1c-0.2-1,0-1.8,0.2-2.6
			c0.2-0.8,0.4-1.6,0.7-2.4c0.5-1.6,1.1-3.1,1.7-4.6c1.2-3.1,2.5-6.1,3.8-9.1l1-2.3c0.3-0.7,0.7-1.5,1.1-2.3c0.8-1.5,2-2.9,3.7-3.7
			c0.8-0.4,1.7-0.6,2.6-0.7c0.9-0.1,1.8-0.1,2.4-0.2c0.7-0.1,1.3-0.3,1.7-0.7c0.4-0.4,0.5-1,0.4-1.6l1.3-0.4c0.2,0.5,0.2,1,0.1,1.5
			s-0.3,1.1-0.6,1.5c-0.7,0.9-1.8,1.2-2.7,1.3c-1,0.1-1.7,0.1-2.5,0.1c-0.8,0.1-1.5,0.2-2.2,0.5c-1.3,0.6-2.4,1.7-3.2,3
			c-0.4,0.7-0.8,1.4-1.1,2.1L7.7,62c-1.4,2.9-2.9,5.9-4.2,8.9c-0.6,1.5-1.2,3-1.8,4.6c-0.3,0.8-0.5,1.6-0.7,2.3c0,0.8-0.2,1.7,0,2.3
			H0.3c0.1-0.4,0.2-0.7,0.4-1.1c0.2-0.3,0.4-0.7,0.7-0.9l1-0.9l-0.1,1.3c0,0.2,0,0.5,0,0.7c0,0.3,0.1,0.5,0.1,0.8
			c0.1,0.5,0.3,1,0.6,1.5H2.4c0.3-0.5,0.5-1,0.8-1.4l0.3-0.4L4,80c1.2,0.9,2.5,1.8,3.9,2.6c1.3,0.8,2.7,1.5,4.2,2.2
			c2.8,1.3,5.8,2.4,8.8,3.2l0.3,0.1l0.1,0.3c0.1,0.8,0.4,1.7,0.7,2.4c0.3,0.8,0.8,1.5,1.3,2.1s1.2,1.1,2,1.3
			c0.7,0.2,1.6,0.1,2.2-0.2l0.2-0.1h0.2c0.2,0.1,0.5,0.1,0.8,0.1s0.6,0,0.8,0c0.3,0,0.5-0.1,0.8-0.2c0.2-0.1,0.4-0.2,0.6-0.4
			L31.5,94.2z"/>
		<path class="st6" d="M35,88.8l4.1,0.8c0,0-0.7,1.4-0.2,2.9c0,0-1.6,0.1-2.6-0.7c-1-0.8-3.3-0.9-3.3-0.9l-1.5-1.7
			C31.5,89.1,33.9,89.6,35,88.8z"/>
		<path class="st2" d="M27.8,86.7c1.4,0.8,2.9,1.6,4.4,2c0.7,0.2,1.5,0.2,2.1-0.1c0.6-0.3,1-0.9,1.3-1.6l0,0l0.3,0.5
			c-1.2-0.4-2.4-1-3.4-1.7s-2-1.5-3-2c-0.5-0.3-1.1-0.5-1.6-0.5s-1,0.1-1.6,0.3c-1.1,0.4-2.1,1.2-2.7,2l0,0L23.4,86h-0.3
			c-1.8-0.2-3.4-0.6-5-1.1c-1.6-0.6-3.2-1.3-4.6-2.4c-0.7-0.5-1.3-1.1-1.9-1.7c-0.6-0.7-1-1.4-1.6-2c-1-1.3-2.1-2.5-3.4-3.6
			c1.6,0.6,3,1.7,4.1,2.9c0.6,0.6,1.1,1.3,1.6,1.9s1.2,1.1,1.8,1.6c1.3,0.9,2.8,1.7,4.3,2.2c1.5,0.6,3.1,1,4.7,1.2l-0.4,0.2l0,0
			c0.8-1.1,2-1.9,3.2-2.4c0.6-0.2,1.3-0.4,2-0.4c0.7,0.1,1.4,0.3,1.9,0.6c1.2,0.6,2.1,1.4,3.1,2.1c1,0.7,2.1,1.2,3.2,1.6l0.4,0.1
			l-0.1,0.4l0,0c-0.2,0.8-0.8,1.8-1.7,2.2c-0.9,0.4-1.9,0.3-2.8,0c-0.8-0.3-1.6-0.7-2.3-1.2C29,87.9,28.4,87.4,27.8,86.7z"/>
		<path class="st2" d="M38.9,93.2L38.2,93l-0.4-0.1h-0.1h-0.1l-0.2-0.1c-0.3-0.1-0.5-0.2-0.8-0.3c-0.1-0.1-0.2-0.1-0.3-0.2L36,92.2
			c-0.9-0.3-2-0.6-3-0.8l0.2-1c1.1,0.2,2.1,0.4,3.2,0.7c0.1,0,0.3,0.1,0.4,0.2c0.1,0.1,0.3,0.1,0.4,0.2c0.2,0.1,0.4,0.2,0.7,0.2h0.2
			c0,0,0.1,0,0,0h0.1l0.4,0.1l0.8,0.1L38.9,93.2z"/>
		<polygon class="st2" points="39.7,90.1 34.7,89.6 34.8,88.3 39.8,89.2 		"/>
		<path class="st2" d="M30.9,88.4c1,0.9,2,1.7,3,2.4c0.5,0.3,1.1,0.7,1.5,0.6c0.2,0,0.5,0.1,0.7,0.4s0.1,0.6,0.1,0.7
			c-0.1,0.3-0.2,0.5-0.4,0.6c-0.3,0.3-0.6,0.5-0.9,0.7c-1.3,0.8-3,0.7-4.3,0s-2.2-1.8-2.7-3c1,0.9,2,1.8,3.1,2.2
			c1.1,0.5,2.3,0.4,3.3-0.2c0.2-0.1,0.5-0.3,0.6-0.5c0.1-0.1,0.1-0.2,0.1-0.2s0,0.1,0,0.2c0.1,0.2,0.2,0.2,0.2,0.2
			c-0.9-0.1-1.5-0.5-2.1-0.9c-1.1-0.8-2-1.8-2.8-2.9L30.9,88.4z"/>
		<g>
			<path class="st7" d="M57.7,92.8L57.7,92.8L57.7,92.8h-0.2l0,0l-18.6-1.4c1.5,10.6,11.8,13.8,18.3,14.3s17-1.1,19.1-11.5
				L57.7,92.8z"/>
			<path class="st2" d="M59.3,106.3c-0.7,0-1.4,0-2.1-0.1C41.5,105,38.8,94.6,38.4,91.5l-0.1-0.6l19.5,1.4L77,93.8l-0.1,0.6
				C74.6,105.1,63.8,106.3,59.3,106.3z M39.5,92c2,11.2,14.1,12.9,17.8,13.2c0.7,0,1.3,0.1,2,0.1c4.2,0,14.1-1,16.4-10.6l-18.3-1.4
				L39.5,92z"/>
		</g>
		<g>
			<path class="st8" d="M76.4,93.8c-0.1,3.5-8.7,5.7-19.1,4.9c-10.4-0.9-18.8-4.4-18.6-8c0.1-3.5,8.7-5.7,19.1-4.9
				C68.2,86.7,76.6,90.3,76.4,93.8z"/>
			<path class="st2" d="M76.8,94.8c-0.1,0.2-0.2,0.4-0.3,0.6c-0.3,0.4-0.7,0.8-1,1.1c-0.8,0.6-1.6,1-2.5,1.3c-1.7,0.6-3.5,1-5.3,1.2
				c-3.5,0.5-7.1,0.4-10.7,0.1c-3.5-0.3-7.1-0.9-10.5-2c-1.7-0.5-3.4-1.2-4.9-2.1c-0.8-0.5-1.5-1-2.2-1.7c-0.6-0.7-1.2-1.5-1.2-2.7
				c0-0.5,0.2-1,0.5-1.4s0.6-0.8,1-1.1c0.8-0.6,1.6-1,2.4-1.3c1.7-0.7,3.5-1,5.2-1.3C50.8,85,54.4,85,58,85.3
				c3.5,0.3,7.1,0.9,10.5,1.9c1.7,0.5,3.4,1.2,4.9,2.2c0.8,0.5,1.5,1,2.2,1.7c0.6,0.7,1.2,1.6,1.2,2.7L76.8,94.8z M75.9,93
				c-0.2-0.4-0.5-0.9-0.9-1.2c-0.6-0.6-1.3-1-2-1.4c-1.5-0.8-3.1-1.4-4.8-2c-3.3-1.1-6.8-1.7-10.2-2c-3.5-0.3-7-0.3-10.4,0.1
				c-1.7,0.2-3.4,0.6-5,1.2c-0.8,0.3-1.6,0.7-2.2,1.2c-0.6,0.5-1.1,1.1-1.2,1.9c0,0.7,0.4,1.4,1,2s1.3,1.1,2,1.5
				c1.5,0.9,3.1,1.5,4.8,2c3.3,1,6.8,1.6,10.3,1.9s7,0.3,10.4-0.2c1.7-0.3,3.4-0.6,5-1.2c0.8-0.3,1.5-0.7,2.2-1.2
				c0.6-0.5,1.1-1.1,1.1-1.8L75.9,93z"/>
		</g>
		<path class="st7" d="M58.3,98.2c3.2,0.2,6.2,0.1,8.8-0.2c0-0.1,0-0.2,0-0.2c0-2-4.6-3.8-10.4-4.2c-5.3-0.3-9.7,0.7-10.4,2.4
			C49.6,97.2,53.7,98,58.3,98.2z"/>
		<g>
			<path class="st9" d="M51.1,97.6c0,0-1.8-1.9,0-5.6c1.2-2.5,0.1-4.2,0.1-4.2l2.9-1.2c0,0,1.1,3.3-0.9,6.2S52.6,98,52.6,98
				L51.1,97.6z"/>
			<path class="st2" d="M50.9,97.8c-0.6-0.8-0.8-1.7-0.8-2.6s0.2-1.8,0.5-2.6c0.4-0.8,0.7-1.5,0.8-2.4c0.1-0.8,0-1.7-0.4-2.4l0,0
				v-0.2l0.2-0.1l2.9-1.2l0,0h0.1v0.1l0,0c0.3,1,0.4,2,0.3,3c-0.1,1-0.4,2-0.9,2.9c-0.6,0.9-1,1.7-1.2,2.7c-0.2,0.9,0,2,0.4,2.7l0,0
				l0.3,0.5l-0.5-0.1L50.9,97.8L50.9,97.8z M51.2,97.4l1.4,0.3L52.4,98l0,0c-0.5-1-0.6-2.1-0.4-3.1c0.2-1,0.8-2,1.3-2.8
				c1-1.7,1.2-3.8,0.7-5.7l0,0l0.1,0.1l0,0l-2.8,1.3l0.1-0.2l0,0c0.5,0.8,0.6,1.7,0.4,2.6c-0.1,0.9-0.5,1.7-0.8,2.5
				s-0.5,1.6-0.5,2.4C50.5,96,50.7,96.8,51.2,97.4z"/>
		</g>
		<g>
			<path class="st10" d="M47.5,91.9c-1.4,0.2-2.5,0.9-3.3,1.6l1.8,2.1c0.5-0.6,1.2-1.3,2.5-1.7c1.8-0.6,2.8-1.5,3.3-2.3l-1.1-1.3
				C50.1,90.9,49.1,91.6,47.5,91.9z"/>
			<path class="st2" d="M47.6,92.1c-0.6,0.1-1.2,0.3-1.7,0.5c-0.5,0.3-1.1,0.6-1.5,1v-0.3l1.7,2.1h-0.3c0.4-0.5,0.9-0.9,1.4-1.2
				c0.5-0.3,1.1-0.5,1.7-0.7c1.1-0.5,2.1-1.1,2.7-2.1v0.2l-1.1-1.3h0.3C50,91.3,48.8,91.9,47.6,92.1L47.6,92.1z M47.5,91.6
				c1.1-0.2,2.2-0.7,3-1.5l0.2-0.2l0.1,0.2l1.1,1.4l0.1,0.1l-0.1,0.1c-0.8,1-1.8,1.6-2.9,2.1c-0.6,0.2-1.1,0.4-1.6,0.7
				c-0.5,0.3-0.9,0.7-1.3,1.2L46,95.8l-0.1-0.2l-1.8-2.1L44,93.4l0.2-0.1c0.5-0.4,1-0.8,1.6-1.1C46.2,92,46.9,91.7,47.5,91.6
				L47.5,91.6z"/>
		</g>
		<g>
			<path class="st9" d="M64.5,80.9c0,0,0.5,2.5-3,4.8C59,87.2,59,89.2,59,89.2l-3-0.5c0,0,0.9-3.4,4.1-4.8c3.2-1.4,3.2-4.1,3.2-4.1
				L64.5,80.9z"/>
			<path class="st2" d="M64.7,80.9c0.1,1-0.2,1.9-0.7,2.6c-0.5,0.8-1.1,1.4-1.8,1.9s-1.5,0.9-2,1.6c-0.5,0.6-0.9,1.4-1,2.2l0,0v0.2
				H59l-3-0.6l0,0h-0.1v-0.1l0,0c0.3-1,0.8-1.9,1.4-2.7c0.6-0.8,1.4-1.5,2.3-2c0.9-0.4,1.8-0.9,2.4-1.6c0.6-0.7,1.1-1.6,1.1-2.6l0,0
				v-0.6l0.4,0.4L64.7,80.9L64.7,80.9z M64.2,81l-1-1l0.4-0.2l0,0c-0.1,1.1-0.6,2.1-1.3,2.8c-0.7,0.8-1.7,1.3-2.6,1.6
				c-1.8,0.9-3.1,2.6-3.7,4.4l0,0v0l0,0l3.1,0.4l-0.2,0.2l0,0c0.1-0.9,0.5-1.8,1-2.5s1.4-1.2,2-1.7c0.7-0.5,1.3-1.1,1.7-1.8
				C64,82.6,64.3,81.8,64.2,81z"/>
		</g>
		<g>
			<path class="st11" d="M63.4,98.1c0,0-2.4-1-2.3-5.2c0.1-2.8-1.6-3.9-1.6-3.9l2.1-2.3c0,0,2.3,2.6,1.7,6.1c-0.7,3.4,1.6,5,1.6,5
				L63.4,98.1z"/>
			<path class="st2" d="M63.3,98.3c-0.9-0.4-1.4-1.2-1.8-2c-0.4-0.8-0.5-1.7-0.6-2.6c0-0.9,0.1-1.7-0.2-2.5
				c-0.2-0.8-0.7-1.6-1.3-2.1l0,0L59.3,89l0.1-0.1l2.2-2.2l0,0l0.1-0.1l0.1,0.1l0,0c0.7,0.8,1.1,1.7,1.5,2.6c0.3,1,0.5,2,0.4,3
				c-0.2,1-0.3,2,0,2.9c0.2,0.9,0.8,1.8,1.5,2.3l0,0l0.5,0.3L64.9,98L63.3,98.3L63.3,98.3z M63.4,97.8l1.4-0.3L64.7,98l0,0
				c-0.9-0.7-1.4-1.6-1.6-2.6c-0.3-1-0.1-2.1,0.1-3c0.3-1.9-0.4-4-1.6-5.5l0,0h0.1l0,0l-2.1,2.3V89l0,0c0.7,0.6,1.2,1.4,1.5,2.2
				c0.3,0.8,0.2,1.8,0.3,2.6c0,0.8,0.2,1.7,0.6,2.4C62.2,96.8,62.8,97.5,63.4,97.8z"/>
		</g>
		<g>
			<path class="st11" d="M48.8,86.1c0,0-1.1-2.4,1.8-5.3c2-2,1.5-4,1.5-4l3.1-0.2c0,0-0.1,3.5-2.9,5.6c-2.8,2.1-2.2,4.7-2.2,4.7
				L48.8,86.1z"/>
			<path class="st2" d="M48.6,86.2c-0.3-0.9-0.2-1.9,0-2.7c0.3-0.9,0.8-1.6,1.3-2.3c0.6-0.7,1.2-1.2,1.6-2c0.4-0.7,0.6-1.6,0.4-2.4
				l0,0v-0.2h0.2l3.1-0.2l0,0h0.1v0.1l0,0c0,1-0.3,2-0.7,2.9s-1,1.8-1.8,2.5c-0.8,0.6-1.5,1.3-2,2.1c-0.5,0.8-0.6,1.8-0.5,2.7l0,0
				l0.1,0.6L50,87.1L48.6,86.2L48.6,86.2z M49,86l1.2,0.7L49.9,87l0,0c-0.2-1.1,0.1-2.1,0.6-3.1c0.5-0.9,1.4-1.6,2.1-2.2
				c1.5-1.2,2.4-3.2,2.5-5.1l0,0l0.1,0.1l0,0l-3,0.3l0.1-0.2l0,0c0.2,0.9,0,1.8-0.4,2.6c-0.4,0.8-1,1.5-1.6,2.1
				c-0.5,0.6-1,1.4-1.2,2.2C48.8,84.4,48.8,85.3,49,86z"/>
		</g>
		<g>
			<path class="st12" d="M54.5,94.3c0,0-3-2.7,0-12l1.2,1.7c0,0-1.3,7.3,1.7,10L54.5,94.3z"/>
			<path class="st2" d="M54.2,94.6c-0.8-0.9-1.1-2-1.3-3c-0.2-1.1-0.2-2.1-0.1-3.2c0.2-2.1,0.7-4.2,1.3-6.2l0,0l0.3-0.7l0.3,0.6
				l1,1.8l0,0l0,0V84c-0.2,1.7-0.3,3.5-0.1,5.2c0.1,0.9,0.3,1.7,0.6,2.5s0.7,1.5,1.3,2l0,0l0.6,0.6l-0.8,0.1l-3,0.4L54.2,94.6z
				 M54.7,93.9l2.6-0.3l-0.2,0.7l0,0c-0.7-0.7-1.1-1.5-1.4-2.4c-0.3-0.9-0.4-1.8-0.5-2.6c-0.1-1.8,0-3.5,0.3-5.3v0.1l0,0l-1.4-1.5
				l0.7-0.1l0,0c-0.6,2-1.1,4-1.3,6c-0.1,1-0.1,2,0.1,3C53.8,92.4,54.1,93.3,54.7,93.9z"/>
		</g>
		<g>
			<path class="st13" d="M62.1,80.4c0,0-1.4,3.8-11.2,4.4l1.1-1.7c0,0,7.3-1.4,8.7-5.2L62.1,80.4z"/>
			<path class="st2" d="M62.4,80.5c-0.6,1.1-1.4,1.7-2.4,2.3c-0.9,0.6-1.9,1-2.9,1.3c-2,0.6-4.1,0.9-6.2,1l0,0h-0.8l0.5-0.5l1.3-1.6
				l0,0l0,0H52c1.7-0.4,3.3-1,4.9-1.8c0.8-0.4,1.5-0.9,2.1-1.4c0.6-0.6,1.1-1.2,1.4-2l0,0l0.3-0.8l0.4,0.7l1.4,2.7L62.4,80.5z
				 M61.6,80.4l-1.2-2.3h0.7l0,0c-0.4,0.9-1,1.6-1.7,2.2s-1.5,1-2.3,1.4c-1.6,0.8-3.3,1.3-5,1.6l0.1-0.1l0,0l-1,1.8l-0.3-0.6l0,0
				c2-0.1,4.1-0.4,6-1c1-0.3,1.9-0.7,2.8-1.2C60.4,81.8,61.2,81.1,61.6,80.4z"/>
		</g>
		<g>
			<path class="st14" d="M69.2,76.7C65,74.8,59,81,59,81c-1,2.3-0.2,6.7,5.5,5.3C70.2,85,73.3,78.5,69.2,76.7z M63.7,84.7
				c-4,0.4-4.4-2.1-3.5-3.3c0,0,4.5-3,7.3-1.7S67.7,84.3,63.7,84.7z"/>
			<g>
				<path class="st2" d="M69,77.1c-0.8-0.4-1.7-0.4-2.6-0.2c-0.9,0.2-1.7,0.6-2.6,1c-0.8,0.4-1.6,1-2.4,1.5
					c-0.8,0.6-1.5,1.2-2.2,1.8l0.1-0.1l0,0c-0.7,1.6-0.4,3.9,1.3,4.8c0.8,0.4,1.8,0.5,2.7,0.4c1-0.1,1.9-0.4,2.8-0.8
					c1.7-0.8,3.2-2.2,4-3.9c0.4-0.8,0.6-1.8,0.4-2.6C70.4,78.1,69.8,77.5,69,77.1L69,77.1z M69.4,76.2c1,0.4,1.9,1.4,2.1,2.5
					s-0.1,2.2-0.6,3.1c-1,1.8-2.6,3.2-4.5,4.1c-0.9,0.4-1.9,0.7-2.9,0.8c-1,0.1-2.1,0.1-3.1-0.4s-1.7-1.4-2-2.5
					c-0.3-1-0.2-2.1,0.2-3.1l0,0v-0.1l0.1-0.1c1.4-1.4,2.9-2.7,4.6-3.7c0.9-0.5,1.8-0.9,2.8-1.1C67.2,75.7,68.4,75.8,69.4,76.2
					L69.4,76.2z"/>
				<path class="st2" d="M63.8,85.2L63.8,85.2c-0.5,0-1.1,0.1-1.7,0c-0.6-0.1-1.2-0.2-1.7-0.6s-0.9-1-1-1.6s0.1-1.3,0.5-1.8l0,0
					v-0.1H60c1.2-0.7,2.5-1.3,3.8-1.7c1.3-0.3,2.9-0.5,4.2,0.3c0.3,0.2,0.6,0.5,0.8,0.8c0.2,0.4,0.2,0.8,0.1,1.2
					c-0.2,0.8-0.7,1.4-1.2,1.9C66.6,84.5,65.2,85,63.8,85.2z M63.7,84.2c1.3-0.1,2.5-0.5,3.5-1.2c0.5-0.4,0.9-0.9,1.1-1.4
					c0.2-0.6-0.1-1.1-0.6-1.4c-1.1-0.7-2.5-0.5-3.7-0.1c-1.3,0.4-2.5,1-3.6,1.7l0.1-0.1l0,0c-0.2,0.4-0.3,0.8-0.2,1.2
					c0.1,0.4,0.3,0.7,0.7,0.9c0.4,0.2,0.8,0.4,1.3,0.4C62.7,84.2,63.2,84.2,63.7,84.2z"/>
			</g>
		</g>
		<g>
			<path class="st15" d="M54.8,79.8c3.8,0,6.2-6.7,6.2-6.7c0-2.1-2.1-5.1-5.9-2.2C51.3,73.8,51.1,79.8,54.8,79.8z M56.3,71.9
				c2.9-1.6,4,0.1,3.8,1.3c0,0-2.4,3.8-4.9,3.7C52.6,76.9,53.4,73.6,56.3,71.9z"/>
			<g>
				<path class="st2" d="M54.8,79.4c0.8,0,1.4-0.3,2-0.7c0.6-0.4,1.1-1,1.6-1.6c1-1.2,1.7-2.6,2.4-4.1v0.1l0,0c0-1.5-1-3.1-2.6-3.2
					c-0.8,0-1.5,0.3-2.2,0.7c-0.7,0.4-1.3,0.9-1.8,1.5c-1,1.2-1.7,2.8-1.7,4.3c0,0.8,0.2,1.6,0.6,2.1C53.4,79.2,54.1,79.4,54.8,79.4
					L54.8,79.4z M54.8,80.2c-0.9,0-1.9-0.4-2.4-1.2c-0.5-0.8-0.6-1.7-0.6-2.5c0.1-1.7,0.9-3.3,2-4.6c0.5-0.6,1.2-1.2,1.9-1.6
					s1.5-0.8,2.4-0.7c0.9,0,1.8,0.5,2.3,1.2s0.8,1.5,0.9,2.4l0,0l0,0v0.1c-0.6,1.5-1.3,3-2.3,4.3c-0.5,0.7-1.1,1.3-1.8,1.8
					C56.6,79.8,55.7,80.2,54.8,80.2L54.8,80.2z"/>
				<path class="st2" d="M56.1,71.6c0.4-0.2,0.8-0.4,1.3-0.5c0.4-0.1,0.9-0.2,1.5-0.1c0.5,0.1,1,0.4,1.3,0.9s0.3,1,0.2,1.5l0,0v0.1
					l0,0c-0.7,1-1.4,1.8-2.3,2.5c-0.9,0.7-2,1.4-3.2,1.2c-0.3,0-0.6-0.1-0.9-0.4c-0.3-0.2-0.4-0.5-0.5-0.8c-0.1-0.6,0-1.2,0.3-1.8
					C54.2,73.1,55.1,72.2,56.1,71.6L56.1,71.6z M56.5,72.3c-0.9,0.5-1.8,1.2-2.3,2.1c-0.2,0.5-0.4,1-0.3,1.5c0.1,0.5,0.5,0.8,1,0.9
					c1.1,0.1,2.1-0.4,2.9-1.2c0.8-0.7,1.5-1.6,2.1-2.5v0.1l0,0c0.1-0.7-0.4-1.5-1.1-1.5c-0.3,0-0.7,0-1.1,0.1
					C57.2,71.9,56.8,72.1,56.5,72.3L56.5,72.3z"/>
			</g>
		</g>
		<g>
			<path class="st14" d="M59.6,65.6c0,0.3-0.5,0.5-0.4,0.9c0.1,0.3,0.5,0.3,0.7,0.6c0.3,0.6-0.5,0.6-0.5,1c0,0.3,0.4,0.4,0.5,0.6
				c0.2,0.4-0.5,1-0.8,1.3c-0.5,0.5-0.9,1-1.6,1.2c-0.7,0.2-1.2,0-1.9-0.3c-0.4-0.2-1.2-0.1-1.4-0.6c-0.1-0.3,0.1-0.5-0.2-0.8
				c-0.3-0.2-0.8-0.2-0.9-0.5c-0.1-0.3,0.3-0.5,0.3-0.8c0-0.5-0.7-0.4-0.9-0.7c-0.2-0.3,0.2-0.6,0.3-0.9c0.2-0.5,0-0.4-0.3-0.6
				c-0.3-0.3,0.1-0.7,0.2-1c0-0.4,0-0.7,0.2-1c0.4-0.9,1-1.7,2-2c0.6-0.2,1.2-0.1,1.8,0.2c0.3,0.1,1.1,0.2,1.2,0.7
				c0,0.4-0.5,0.6,0.2,0.8c0.3,0.1,0.9,0.1,1,0.4c0.1,0.3-0.2,0.5-0.2,0.8C58.9,65.3,59.4,65.3,59.6,65.6
				C59.6,65.5,59.6,65.6,59.6,65.6z"/>
			<path class="st2" d="M60,65.6L60,65.6c0,0.1,0,0.2,0,0.3c0,0.1-0.1,0.2-0.1,0.2c-0.1,0.1-0.1,0.2-0.2,0.2
				c-0.1,0.1-0.1,0.2-0.1,0.1l0,0v-0.1l0,0l0,0v0.1l0,0l0,0l0,0c0,0,0,0,0.1,0c0.1,0.1,0.3,0.1,0.5,0.4l0.1,0.1c0,0,0,0,0,0.1l0,0
				c0,0,0,0,0.1,0.2s0,0.4,0,0.5C60.2,68,60,68.1,60,68.2c-0.1,0.1,0,0,0-0.1c0,0.1,0,0,0-0.1l0,0l0.2,0.1c0.1,0.1,0.2,0.1,0.3,0.3
				c0.1,0.1,0.1,0.1,0.1,0.3v0.1c0,0.1,0,0.1,0,0.2c0,0.4-0.1,0.5-0.2,0.7c-0.2,0.3-0.5,0.5-0.7,0.7c-0.4,0.4-0.9,1-1.6,1.3
				l-0.3,0.1h-0.2c-0.2,0-0.4,0.1-0.6,0c-0.4,0-0.8-0.1-1.1-0.3c-0.4-0.2-0.4-0.2-0.7-0.3c-0.2,0-0.3-0.1-0.5-0.1
				c-0.2-0.1-0.5-0.3-0.6-0.5S54,70,54,69.9s0,0,0,0l0,0c-0.1-0.1-0.5-0.1-0.9-0.5C53,69.3,53,69.2,52.9,69c0-0.2,0-0.3,0.1-0.4
				c0.1-0.2,0.2-0.3,0.2-0.4l0,0c0,0,0-0.1,0,0l0,0c0,0-0.2-0.1-0.3-0.2c-0.1,0-0.2-0.1-0.3-0.1s-0.2-0.2-0.3-0.3
				c-0.2-0.4,0-0.6,0.1-0.8c0.1-0.1,0.2-0.2,0.2-0.3c0-0.1,0.1-0.1,0.1-0.1s0.1,0.2,0,0.1s-0.3-0.2-0.4-0.4c-0.1-0.3,0-0.5,0-0.7
				c0.2-0.3,0.2-0.4,0.2-0.8c0.1-0.7,0.4-1.3,0.8-1.8c0.4-0.5,1-0.9,1.6-1.1c0.7-0.1,1.3,0,1.9,0.2c0.3,0.1,0.6,0.1,0.9,0.4
				c0.1,0.1,0.2,0.1,0.2,0.2c0.1,0.1,0.1,0.3,0.1,0.3c0,0.3-0.1,0.5-0.2,0.5c0,0,0,0,0-0.1s0-0.1,0-0.1h0.1l0.5,0.1
				c0.2,0,0.4,0.1,0.6,0.2c0.1,0.1,0.2,0.2,0.3,0.3l0,0v0.1l0,0v0.1c0,0.1,0,0.2,0,0.2c-0.1,0.2-0.2,0.4-0.2,0.5c0,0,0,0.1,0,0v0.1
				l0,0l0,0c0,0,0.1,0.1,0.3,0.1c0.1,0,0.2,0.1,0.3,0.2s0.1,0.1,0.1,0.2v0.1C60,65.4,60,65.5,60,65.6L60,65.6z M59.1,65.6
				C59.1,65.6,59.1,65.7,59.1,65.6C59.2,65.7,59.1,65.6,59.1,65.6C59.2,65.7,59.1,65.6,59.1,65.6C59.2,65.6,59.1,65.6,59.1,65.6
				c-0.1-0.1-0.3-0.2-0.5-0.4c0-0.1-0.1-0.1-0.1-0.2v-0.1v-0.1c0-0.2,0-0.3,0.1-0.4c0.1-0.2,0.2-0.3,0.2-0.4l0,0v-0.1l0,0
				c0,0,0-0.1,0,0l0,0l0,0c0,0-0.1-0.1-0.3-0.1l-0.5,0c-0.1,0-0.2,0-0.3-0.1c-0.1,0-0.1-0.1-0.2-0.2c-0.1-0.1,0-0.3,0-0.3
				c0.1-0.2,0.2-0.3,0.2-0.3c0-0.1,0-0.1-0.1-0.2c-0.2-0.2-0.5-0.2-0.8-0.3c-0.6-0.2-1.1-0.4-1.7-0.2c-1.1,0.3-1.9,1.4-2,2.5
				c0,0.2,0,0.3-0.1,0.5s-0.1,0.3-0.2,0.5c-0.1,0.1,0,0.2,0,0.2s0,0.1,0.1,0.1l0.2,0.1c0,0,0.1,0.1,0.2,0.2c0,0.1,0,0.2,0,0.3
				c0,0.1-0.1,0.2-0.1,0.3c-0.1,0.2-0.2,0.3-0.3,0.4s0,0.2-0.1,0.1c0,0,0.1,0,0.2,0.1c0.1,0.1,0.3,0.1,0.5,0.2
				c0.1,0.1,0.2,0.2,0.3,0.4c0,0.1,0,0.1,0,0.2s0,0.2,0,0.3c-0.1,0.3-0.2,0.4-0.2,0.4l0,0c0-0.1,0,0.1,0,0l0,0c0,0,0.3,0.1,0.7,0.3
				c0.1,0.1,0.2,0.2,0.3,0.3c0.1,0.2,0.1,0.3,0.1,0.4c0,0.2,0,0.2,0,0.2s0.2,0.1,0.5,0.1c0.2,0,0.3,0,0.5,0.1s0.3,0.2,0.4,0.2
				c0.5,0.2,0.9,0.2,1.4,0.1c0.4-0.2,0.8-0.6,1.2-1c0.2-0.2,0.4-0.4,0.6-0.6c0.1-0.1,0.1-0.2,0.1-0.1l0,0v-0.1c0,0,0,0,0,0.1
				c0,0,0,0-0.1-0.1l-0.2-0.2c-0.1-0.1-0.1-0.1-0.2-0.2c-0.1-0.1-0.1-0.3-0.1-0.3c-0.1-0.4,0.2-0.8,0.3-0.9c0.2-0.1,0.2-0.2,0.2-0.2
				v0.1c0,0,0,0,0-0.1l0,0c0,0.1,0,0,0,0l0,0c0,0-0.1-0.1-0.3-0.2c0,0-0.1,0-0.1-0.1L59,67l-0.1-0.1l-0.1-0.1v-0.1l0,0l0,0
				c-0.1-0.2,0-0.1,0-0.1l0,0v-0.1c0-0.4,0.3-0.6,0.3-0.7C59.1,65.6,59.1,65.6,59.1,65.6L59.1,65.6L59.1,65.6L59.1,65.6L59.1,65.6z"
				/>
		</g>
		<g>
			<path class="st14" d="M52.4,88.3c0.2,0.2-0.1,0.5,0.1,0.7c0.2,0.2,0.5,0.1,0.7,0.2c0.4,0.3,0,0.6,0.2,0.8
				c0.1,0.2,0.4,0.1,0.6,0.3c0.3,0.2,0.1,0.8,0.1,1.1c-0.1,0.5-0.1,0.9-0.4,1.3C53.3,93,53,93.1,52.4,93c-0.3,0-0.8,0.3-1.1,0
				c-0.2-0.2-0.2-0.4-0.5-0.5s-0.6,0.1-0.8-0.1s-0.1-0.5-0.2-0.7c-0.2-0.3-0.6-0.1-0.8-0.2c-0.3-0.1-0.2-0.4-0.2-0.7
				c-0.1-0.4-0.2-0.3-0.4-0.4c-0.3-0.1-0.2-0.5-0.3-0.8s-0.3-0.5-0.3-0.7c-0.2-0.7-0.2-1.5,0.3-2c0.3-0.3,0.7-0.4,1.1-0.4
				c0.2,0,0.8-0.2,1,0.1c0.2,0.3,0,0.6,0.4,0.5c0.2,0,0.6-0.2,0.8,0s0.1,0.4,0.2,0.6C51.8,88.2,52.1,88.1,52.4,88.3L52.4,88.3z"/>
			<path class="st2" d="M52.8,88.1L52.8,88.1c0,0,0,0,0.1,0.2c0,0.1,0,0.1,0,0.2s0,0.2,0,0.3c0,0.1,0,0.1,0,0l0,0h-0.1l0,0
				c0,0,0.1,0.1,0,0c-0.1,0-0.1,0,0,0s0.2,0,0.4,0.1c0.1,0,0.3,0.1,0.3,0.2c0.1,0,0.2,0.2,0.2,0.3c0.1,0.3,0,0.6,0,0.7s0,0,0-0.1
				v-0.1l0,0l0,0l0,0l-0.1-0.1c0,0,0,0,0.1,0s0.3,0,0.6,0.3c0,0,0.2,0.2,0.2,0.3c0,0.1,0.1,0.2,0.1,0.3c0,0.4,0,0.6-0.1,0.8
				c-0.1,0.4-0.1,1-0.5,1.5c0,0,0,0.1-0.1,0.1s-0.1,0.1-0.1,0.1c-0.2,0.1-0.3,0.2-0.5,0.2c-0.3,0.1-0.6,0.1-0.9,0.1h-0.2
				c0,0,0,0-0.1,0l-0.3,0.1c-0.1,0-0.3,0-0.6,0c-0.1,0-0.2-0.1-0.3-0.1c0,0-0.1,0-0.1-0.1l-0.1-0.1c-0.2-0.2-0.2-0.3-0.2-0.3l0,0
				l0,0l0,0l0,0h-0.1c0,0-0.5,0.1-0.9-0.2c-0.6-1.1,0.1-0.7-0.5-0.8c-0.1,0-0.1,0-0.2,0c-0.1,0-0.1,0-0.2-0.1l-0.1-0.1
				c-0.3-0.2-0.2-0.5-0.2-0.6s0-0.2,0-0.3c0-0.1,0-0.1,0-0.1l0.1,0.1c-0.1,0-0.2,0-0.4-0.2l-0.2-0.2c0-0.1-0.1-0.2-0.1-0.2l0.1-0.3
				c0-0.1-0.1-0.2-0.1-0.3c-0.2-0.4-0.3-0.9-0.3-1.4s0.1-1,0.6-1.4c0.4-0.4,1-0.4,1.4-0.4c0.2,0,0.5-0.1,0.8,0
				c0.1,0,0.2,0.1,0.2,0.2c0.1,0.1,0,0.1,0.1,0.1l0.1,0.1c0,0.1,0.1,0.4,0,0.2c-0.2-0.1,0,0,0.1-0.1c0.1,0,0.2-0.1,0.4-0.1
				c0.1,0,0.3,0,0.5,0.1l0.1,0.1l0.1,0.1c0.1,0.1,0.1,0.2,0.1,0.3c0,0.2,0.1,0.3,0.1,0.3l0,0l0,0h0.3C52.4,87.8,52.6,87.9,52.8,88.1
				L52.8,88.1z M52.1,88.6L52.1,88.6c-0.1,0-0.2,0-0.4-0.1c-0.5-0.2-0.5-0.7-0.5-0.9l0,0c0,0-0.1-0.1,0,0l0,0c0,0,0,0-0.1,0
				s-0.2,0-0.3,0s-0.1,0-0.2,0c-0.1,0-0.2,0-0.4-0.1C50,87.3,50,87.2,50,87.1s0-0.1,0-0.1l0,0c0,0,0-0.1,0,0l0,0
				c-0.1-0.1-0.3-0.1-0.5,0c-0.5,0-0.9,0.1-1.2,0.3c-0.6,0.5-0.4,1.6,0,2.3c0.1,0.1,0.1,0.2,0.2,0.4l0.1,0.3v0.1c0,0-0.1,0,0,0
				c0,0,0.1,0,0.2,0.1c0.1,0,0.3,0.1,0.3,0.3c0.1,0.1,0.1,0.2,0.1,0.2c0,0.2,0,0.3,0,0.4s0.1,0.1,0,0h0.1c-0.1,0,0,0,0,0s0,0,0.1,0
				s0.2,0,0.4,0c0.1,0,0.2,0.1,0.3,0.1l0.1,0.1c0,0,0,0,0.1,0.1c0.1,0.2,0.1,0.4,0.1,0.5s0,0,0,0s0,0,0.5,0H51l0,0c0.1,0,0,0,0.1,0
				h0.1c0.1,0,0.2,0.1,0.3,0.2c0.2,0.2,0.2,0.3,0.2,0.3c0.1,0.1,0,0.1,0.2,0l0.3-0.1c0.1,0,0.2,0,0.3,0h0.2c0.2,0,0.4,0,0.5,0
				s0.1-0.1,0.1-0.1l0.1-0.1c0,0,0,0,0.1-0.1c0.2-0.2,0.2-0.5,0.3-1.1c0-0.2,0.1-0.4,0.1-0.5l0,0c0,0,0.1,0.1,0,0c0.1,0.1,0,0-0.1,0
				s-0.1,0-0.2-0.1c-0.1,0-0.2-0.1-0.2-0.2l0,0l0,0l0,0l-0.1-0.1l0,0c-0.2-0.3-0.1-0.6-0.1-0.7s0-0.1,0,0l0,0c-0.1-0.1,0,0,0,0
				s-0.1,0-0.2,0c-0.1,0-0.2,0-0.3-0.1s-0.1,0-0.1-0.1l0,0l-0.1-0.1l0,0l0,0c0,0,0,0-0.1-0.1C52,89,52,88.7,52.1,88.6
				C52,88.6,52,88.5,52.1,88.6L52.1,88.6L52.1,88.6z"/>
		</g>
		<g>
			<path class="st16" d="M50.9,82.3c0,0,4.8-6.8,0.2-11s-3.7,9.3-3.7,9.3s0.7-3.7,3.7-6.3c0,0,0.6,4.3-2.2,7.4L50.9,82.3z"/>
			<path class="st2" d="M50.8,81.9c1-1.6,1.8-3.4,2-5.3c0.1-1,0-2-0.4-2.9s-1-1.7-1.8-2.3c-0.4-0.3-0.8-0.5-1.2-0.5
				s-0.7,0.4-0.9,0.8c-0.4,0.9-0.6,1.9-0.7,2.9c-0.2,2-0.2,4.1,0,6.1l0,0h-0.7c0.1-0.7,0.3-1.3,0.5-1.9s0.5-1.2,0.8-1.8
				c0.6-1.1,1.4-2.2,2.3-3.1l0,0c0.2-0.2,0.6-0.2,0.8,0c0.1,0.1,0.1,0.2,0.2,0.3c0.1,0.7,0,1.4,0,2.1c-0.1,0.7-0.2,1.4-0.4,2
				c-0.4,1.3-1.1,2.6-2.1,3.6l0,0L49,81.4L50.8,81.9z M50.8,82.7l-2-0.6c-0.2-0.1-0.3-0.3-0.3-0.5c0-0.1,0-0.1,0.1-0.1l0,0l0,0
				c0.8-1,1.4-2.1,1.7-3.3c0.2-0.6,0.2-1.2,0.3-1.9c0-0.6,0-1.3-0.1-1.9l1,0.4c-0.9,0.8-1.7,1.7-2.3,2.7c-0.3,0.5-0.6,1-0.8,1.6
				c-0.2,0.5-0.4,1.1-0.6,1.7l0,0c0,0.2-0.2,0.3-0.4,0.3s-0.3-0.2-0.3-0.3l0,0c-0.1-2.1-0.1-4.2,0.1-6.3c0.1-1,0.3-2.1,0.8-3.1
				c0.2-0.5,0.7-1,1.4-1.1c0.7,0,1.2,0.3,1.6,0.6c0.8,0.7,1.5,1.5,2,2.5c0.4,1,0.5,2.1,0.5,3.2c-0.2,2.1-1,4.1-2.2,5.9
				C51.1,82.7,51,82.8,50.8,82.7L50.8,82.7z"/>
		</g>
		<g>
			<path class="st16" d="M61.2,66.9c0,0,3-5.6,1.2-9.5l2.9,2.4C65.4,59.8,66.2,64.7,61.2,66.9z"/>
			<path class="st2" d="M61.1,66.8c0.7-1.5,1.2-3,1.5-4.6s0.2-3.3-0.4-4.7l0,0l-0.6-1.4l1.1,1l2.9,2.4l0.1,0.1v0.1l0,0
				c0.1,0.8,0,1.6-0.1,2.3c-0.2,0.8-0.4,1.5-0.8,2.1c-0.8,1.3-2.1,2.3-3.4,2.9l-0.5,0.2L61.1,66.8z M61.7,66.4
				c1.1-0.6,2-1.4,2.6-2.5c0.3-0.6,0.6-1.3,0.7-2s0.2-1.4,0.1-2.1l0,0l0.1,0.2l-2.9-2.4l0.6-0.4l0,0c0.7,1.6,0.6,3.4,0.3,5.1
				C62.8,63.7,62.3,65.1,61.7,66.4z"/>
		</g>
		<g>
			<path class="st16" d="M56.3,97.8c0,0,5.3-3.8,3.5-11l4.2,2.5C64,89.3,64.7,96.4,56.3,97.8z"/>
			<path class="st2" d="M56.1,97.5c0.7-0.6,1.4-1.3,2-2.1c0.6-0.8,1-1.7,1.3-2.6c0.6-1.9,0.6-3.9,0.1-5.8l0,0l-0.2-1l0.7,0.5l4,2.7
				l0,0l0,0l0,0c0.1,1.1-0.1,2.1-0.4,3.2c-0.3,1-0.9,2-1.6,2.8c-1.5,1.6-3.6,2.5-5.7,2.9l-1.5,0.3L56.1,97.5z M57.6,97.1
				c1.6-0.4,3.1-1.1,4.2-2.2c1.4-1.5,2.2-3.6,2.2-5.6l0,0v0.1l-4.3-2.2l0.6-0.4l0,0c0.5,2,0.6,4.2-0.1,6.2c-0.3,1-0.8,2-1.4,2.8
				C58.4,96.2,58,96.7,57.6,97.1z"/>
		</g>
		<g>
			<path class="st12" d="M64.5,80c0,0-1.7-3.2,3.8-11.2l2,2.8c0,0-4.8,6.2-5.8,9"/>
			<path class="st2" d="M64.2,80.2C63.7,79,63.8,78,64,76.9c0.2-1,0.5-2,0.9-3c0.8-1.9,1.8-3.7,2.9-5.5l0,0l0.7-0.8l0.5,0.8l1.7,3
				l0,0l0.2,0.2l-0.2,0.2c-1.1,1.4-2.1,2.9-3.2,4.3c-0.5,0.7-1,1.5-1.4,2.2c-0.4,0.8-0.9,1.5-1.2,2.3l-0.7-0.2
				c0.3-0.9,0.8-1.7,1.2-2.5c0.5-0.8,1-1.5,1.5-2.3c1-1.5,2.1-2.9,3.2-4.4v0.4l0,0L67.8,69H69l0,0c-1.2,1.6-2.2,3.3-3.1,5.1
				c-0.4,0.9-0.7,1.8-1,2.8c-0.2,0.9-0.3,2,0,2.7L64.2,80.2z"/>
		</g>
		<g>
			<g>
				<path class="st16" d="M65.2,81.6c0,0,3.5,2.3,3.3,12l-3.2-1.3C65.2,92.3,65.9,84.5,65.2,81.6z"/>
				<path class="st2" d="M65.4,81.3c1,0.7,1.6,1.7,2.1,2.7s0.8,2.1,1.1,3.1c0.3,1.1,0.4,2.2,0.5,3.2c0.1,1.1,0.1,2.2,0.1,3.3v1
					l-0.9-0.4c-0.5-0.2-1-0.5-1.5-0.8s-1-0.5-1.6-0.8l-0.3-0.1v-0.3c0.2-1.8,0.3-3.6,0.3-5.3c0-0.9,0-1.8,0-2.7
					c-0.1-0.9-0.1-1.8-0.4-2.6l-0.3-1L65.4,81.3z M65.7,82.9c0,0.5,0.1,0.9,0.1,1.4c0,0.9,0,1.8,0,2.7c0,1.8-0.1,3.6-0.2,5.4
					L65.4,92c0.5,0.2,1.1,0.4,1.7,0.5s1.1,0.3,1.7,0.5l-1,0.6c0-1,0-2.1-0.1-3.1s-0.2-2.1-0.4-3.1c-0.2-1-0.4-2-0.8-3
					C66.3,83.9,66,83.3,65.7,82.9z"/>
			</g>
		</g>
		<g>
			<path class="st17" d="M48.7,84.2c0,0-2.5-1.4-3.3-4.4l-2.6,3c0,0,0.9,2.2,4.1,2.8L48.7,84.2z"/>
			<path class="st2" d="M48.1,84.2c-0.2-0.2-0.5-0.4-0.7-0.6c-0.4-0.3-0.7-0.7-1-1.1c-0.6-0.8-1-1.7-1.3-2.6l0.5,0.1L43,83.1
				l0.1-0.4c0.2,0.3,0.4,0.7,0.7,0.9c0.3,0.3,0.6,0.6,0.9,0.8c0.7,0.4,1.5,0.7,2.3,0.7l0,0l-0.4,0.1C47.1,84.9,47.6,84.5,48.1,84.2z
				 M49,84.5c-0.6,0.4-1.2,1-1.8,1.5c-0.1,0.1-0.2,0.1-0.3,0.1h-0.1l0,0c-0.9-0.3-1.7-0.6-2.5-1.1c-0.4-0.2-0.8-0.5-1.1-0.8
				s-0.6-0.7-0.8-1.2c-0.1-0.1,0-0.3,0.1-0.4l2.7-2.9c0.1-0.1,0.3-0.1,0.4,0l0.1,0.1c0.2,0.9,0.7,1.7,1.2,2.4c0.3,0.4,0.6,0.7,0.9,1
				c0.3,0.3,0.7,0.6,1.1,0.8l0,0C49.1,84.1,49.1,84.3,49,84.5C49.1,84.4,49,84.5,49,84.5z"/>
		</g>
		<g>
			<path class="st17" d="M66,66.5c0,0-1.8,2.2-4.9,2.4l2.5,3.1c0,0,2.3-0.5,3.5-3.5L66,66.5z"/>
			<path class="st2" d="M65.9,67.1c-0.2,0.2-0.5,0.4-0.7,0.6c-0.4,0.3-0.8,0.5-1.3,0.8c-0.9,0.4-1.8,0.7-2.8,0.8l0.2-0.5l2.5,3.1
				l-0.4-0.1c0.3-0.1,0.7-0.3,1-0.5s0.7-0.4,1-0.7c0.6-0.6,1-1.3,1.1-2.1l0,0v0.4C66.3,68.2,66.1,67.6,65.9,67.1z M66.3,66.3
				c0.3,0.7,0.7,1.3,1.1,2c0.1,0.1,0.1,0.2,0,0.3v0.1l0,0c-0.5,0.8-0.9,1.6-1.6,2.2c-0.3,0.3-0.6,0.6-1,0.9s-0.8,0.5-1.3,0.6
				c-0.1,0-0.3,0-0.4-0.1l-2.4-3.2c-0.1-0.1-0.1-0.3,0.1-0.4l0.1-0.1c0.9-0.1,1.8-0.3,2.6-0.8c0.4-0.2,0.8-0.4,1.1-0.7
				c0.3-0.3,0.7-0.6,0.9-0.9l0,0c0.1-0.2,0.4-0.2,0.5-0.1C66.3,66.2,66.3,66.3,66.3,66.3z"/>
		</g>
		<g class="st18">
			<path class="st7" d="M55,59.1c0.7-0.8,1.3-1.6,1.6-2.4c0.3-0.8,0.3-1.6,0.2-2.4c-0.3-1.6-1.3-3-2.4-4.8c-0.5-0.9-1-1.9-1.4-3
				s-0.7-2.5-0.4-3.9c0.1-0.7,0.5-1.4,0.9-1.9c0.2-0.3,0.4-0.5,0.7-0.8c0.2-0.2,0.1-0.1,0.3-0.3s0.3-0.3,0.5-0.4
				c0.6-0.4,1.3-0.5,1.9-0.5c0.6,0,1.3,0.1,1.8,0.5c-2,1.3-2.1,2.9-2.2,4c-0.1,1.1,0.5,2.8,1.3,4.6c0.4,0.9,0.8,1.9,1.2,2.9
				c0.2,0.5,0.3,1.1,0.4,1.7c0,0.3,0.1,0.6,0.1,0.9c0,0.2,0,0.3,0,0.4v0.5c-0.1,1.2-0.7,2.4-1.5,3.3C57,58.4,56,58.9,55,59.1z"/>
		</g>
		<g class="st18">
			<path class="st7" d="M50.1,68.3c-1.2-0.8-2.1-2.2-2.2-3.8c-0.1-1.6,0.3-3.1,0.9-4.5c0.6-1.4,1.4-2.7,2.2-3.8
				c0.2-0.3,0.4-0.8,0.4-1.2s0-0.8-0.1-1c-0.1-0.3-0.3-0.4-0.6-0.6c0,0-0.1,0-0.1-0.1h-0.1l0,0l0,0c-0.1,0,0.1,0.1,0.1,0l0,0h-0.1
				l-0.2-0.1c0,0,0,0-0.1,0s-0.3-0.1-0.4,0c-0.7,0-1.4,0.4-1.8,1c-0.1,0.1-0.3,0.5-0.3,0.7s-0.1,0.4,0,0.7c0.1,0.2,0.3,0.5,0.8,0.4
				c0.4,0,1-0.4,1.3-1.1c0.5,0.6,0.4,1.8-0.3,2.5c-0.7,0.8-2,1.1-3.1,0.6c-1.1-0.4-2-1.5-2.2-2.7c-0.1-0.6-0.1-1.1,0-1.7
				c0.1-0.5,0.3-1.1,0.6-1.6c1.1-1.8,3.1-2.8,5.2-2.8c0.5,0,1,0.1,1.6,0.3c0.1,0.1,0.3,0.1,0.4,0.2l0.2,0.1h0.1l0.1,0.1l0,0l0.2,0.1
				c0.1,0.1,0.2,0.1,0.3,0.2c0.9,0.6,1.6,1.5,2,2.6c0.4,1,0.3,2.1,0.1,3.1s-0.7,1.8-1.3,2.5c-1,1-1.8,1.9-2.6,3
				c-0.7,1-1.4,2.1-1.6,3.3C49.1,65.8,49.3,67.1,50.1,68.3z"/>
		</g>
		<g class="st18">
			<path class="st7" d="M69.3,64.8c0.5-1,0.2-2.1-0.1-3.1c-0.1-0.2-0.1-0.5-0.2-0.7s-0.2-0.4-0.3-0.6c-0.2-0.4-0.5-0.7-0.9-1.1
				c-0.7-0.7-1.6-1.6-2.2-3c-0.1-0.4-0.3-0.8-0.3-1.2c0-0.3,0-0.3,0-0.6c0-0.2,0-0.4,0-0.6c0-0.7,0.2-1.5,0.5-2.2s0.7-1.4,1.4-2
				c0.7-0.6,1.6-1,2.5-1.1c0.5,0,0.9,0,1.4,0l0.3,0.1c0.1,0,0.3,0.1,0.4,0.1c0.2,0.1,0.4,0.2,0.7,0.3c0.8,0.4,1.5,1.1,1.9,1.8
				c0.4,0.8,0.7,1.7,0.5,2.7c-0.1,1-0.7,1.9-1.4,2.4c-0.7,0.5-1.4,0.7-2.3,0.7c-0.4,0-0.9-0.2-1.2-0.6c-0.3-0.3-0.3-0.7-0.3-1
				c0.3,0.2,0.6,0.3,0.8,0.2c0.2-0.1,0.3-0.2,0.4-0.3c0.2-0.3,0.4-0.6,0.5-0.9c0-0.3,0-0.4-0.1-0.6c-0.1-0.1-0.2-0.3-0.3-0.4
				c-0.1-0.2-0.3-0.3-0.5-0.4h-0.1l0,0c0,0-0.2,0-0.1,0c-0.1,0-0.2,0-0.3,0c-0.1,0-0.3,0-0.4,0.1c-0.2,0.1-0.4,0.3-0.5,0.6
				c-0.3,0.6-0.5,1.4-0.4,1.9c0.1,0.6,0.6,1.5,1.2,2.6c0.3,0.5,0.6,1.1,0.7,1.8c0.1,0.3,0.1,0.7,0.1,1s0,0.6-0.1,0.9
				c-0.1,0.6-0.2,1.2-0.4,1.8C70.1,63.9,69.8,64.5,69.3,64.8z"/>
		</g>
		<polygon class="st2" points="13.5,82.1 13.1,69.4 13.8,69.4 14.5,82.1 		"/>
		<path class="st2" d="M16.9,63.9c-1.1,2.3-2.4,4.4-3.7,6.6c-1.4,2.1-2.7,4.2-4.4,6.1l-0.6-0.5c0.8-0.9,1.5-1.9,2.2-3l2.1-3.1
			C14,68,15.4,65.9,16.9,63.9z"/>
		<path class="st2" d="M38.3,92.4c0.1,0.4,0,0.9,0,1.3V95v2.7h-0.8V95v-1.3c0-0.4,0-0.9,0.1-1.3H38.3z"/>
		<path class="st2" d="M28.1,50.7c-0.3,0.3-0.5,0.6-0.6,1c-0.1,0.3,0,0.6,0.2,0.9c0.4,0.6,1.3,0.8,2.2,1c0.9,0.2,1.9,0.3,2.8,0.6
			c1,0.3,1.9,0.8,2.6,1.5c1.5,1.4,2.3,3.3,2.9,5.1c0.5,1.9,0.8,3.8,0.9,5.7c0.1,1.9,0.1,3.8,0.1,5.7c0,1.9-0.1,3.8-0.2,5.7
			c-0.2,3.8-0.5,7.6-0.7,11.4h-0.7c0.1-3.8,0.4-7.6,0.6-11.4c0.1-1.9,0.2-3.8,0.2-5.7c0-1.9,0-3.8-0.2-5.7c-0.1-1.9-0.4-3.7-0.9-5.5
			s-1.3-3.5-2.7-4.7c-0.7-0.6-1.4-1-2.3-1.3c-0.9-0.3-1.8-0.4-2.7-0.6c-0.5-0.1-1-0.2-1.5-0.4c-0.2-0.1-0.5-0.2-0.7-0.4
			c-0.1-0.1-0.2-0.2-0.3-0.3C27,53.2,27,53.2,27,53.2s0,0-0.1-0.1L26.8,53c-0.3-0.5-0.5-1.2-0.3-1.8s0.5-1,0.9-1.4L28.1,50.7z"/>
		<path class="st2" d="M20.3,88.3c0.2,0.8,0.3,1.6,0.3,2.3l0.1,2.3c0,1.6,0,3.1-0.1,4.7c0,0.1-0.1,0.2-0.3,0.2
			c-0.1,0-0.2-0.1-0.2-0.3c0.1-1.5,0.1-3.1,0.1-4.7v-2.3C20.1,89.9,20.1,89.1,20.3,88.3z"/>
		<path class="st2" d="M3.2,97.9c3.1-0.3,6.3-0.3,9.4-0.4l9.4-0.1h9.4c3.1,0,6.3,0,9.4,0.1v0.8c-3.1,0-6.3,0.1-9.4,0.1H22l-9.4-0.1
			C9.5,98.2,6.4,98.1,3.2,97.9z"/>
		
			<rect x="34.2" y="93.3" transform="matrix(-0.9994 -3.516822e-02 3.516822e-02 -0.9994 66.0225 192.268)" class="st2" width="1" height="4.5"/>
	</g>
</g>
</svg>
