<?xml version="1.0" encoding="utf-8"?>
<!-- Generator: Adobe Illustrator 17.0.0, SVG Export Plug-In . SVG Version: 6.00 Build 0)  -->
<!DOCTYPE svg PUBLIC "-//W3C//DTD SVG 1.1//EN" "http://www.w3.org/Graphics/SVG/1.1/DTD/svg11.dtd">
<svg version="1.1" id="Слой_1" xmlns="http://www.w3.org/2000/svg" xmlns:xlink="http://www.w3.org/1999/xlink" x="0px" y="0px"
	 width="108.2px" height="116.3px" viewBox="0 0 108.2 116.3" style="enable-background:new 0 0 108.2 116.3;" xml:space="preserve"
	>
<style type="text/css">
	.st0{fill:#ED9823;}
	.st1{fill:#EDCD9A;}
	.st2{fill:#513015;}
	.st3{fill:#FFFFFF;}
	.st4{fill:#F9C866;}
	.st5{clip-path:url(#SVGID_2_);fill:#513015;}
	.st6{clip-path:url(#SVGID_4_);fill:#513015;}
	.st7{fill:#FFDFA6;}
	.st8{fill:none;stroke:#513015;stroke-miterlimit:10;}
	.st9{fill:#92B6EA;}
</style>
<g>
	<g>
		<g>
			<g>
				<path class="st0" d="M95.7,81.9c-2.5-1.5-6.4-1.5-7.3-2.1c-0.8-0.4-4-2-8.3-6.1c-1.1-1-2.9-1.8-2.9-1.8s-3.1-3.6-7-8.7
					c-1.1-1.5-2.1-2.8-3-3.8c-0.6-0.8-1.1-1.4-1.6-2c-2.8-3.1-4.3-3.7-8-4.1c-0.4,0-0.8-0.1-1.1-0.2v0.1l0,0c0,0-0.6,2,1.6,4.8l0,0
					c1.4,1.3,4.4,4.6,5.7,9.3c0,0,0,0.1-0.1,0.2c0.1,0.2,0.2,0.5,0.2,0.8l8.1,7.4c0,0.6,0.4,2,1.2,3.2c0.5-0.5,0.9-0.8,0.9-0.8
					c0.3,1.1,1.3,1.7,1.3,1.7c0-0.8,0.4-1.5,0.4-1.5l9.3,3.5c-0.7,1-0.9,2.8,2.5,4.6c0,0,0.2,0.4,0.4,0.8c0.1,0.2,0.2,0.3,0.3,0.5
					c0.2,0.2,0.3,0.4,0.5,0.5c-0.3,0.1-0.7,0.2-1,0.3C88,89,88,89.2,88,89.2c-0.6,0.6-0.3,1.2,0,1.5c0.1,0.1,0.2,0.2,0.2,0.2
					c-0.2,0.5,0.1,0.9,0.6,1.3c0.2,0.1,0.4,0.2,0.6,0.3c0.7,0.3,1.5,0.6,2.1,0.7c1.5,0.3,1.6-0.6,1.6-0.6c0.4,0,0.7-0.1,0.9-0.2
					c0.7-0.4,0.7-1.2,0.7-1.2c0.1,0,0.2-0.1,0.3-0.1c1.1-0.6,0.7-2.2,0.7-2.2c0.2-0.1,0.3-0.1,0.4-0.2c0.4-0.3,0.7-0.7,0.9-1.3
					c0.2-0.6,0.2-1.3,0.2-2C97.1,83.9,96.6,82.4,95.7,81.9z M93.3,85.8c-1,0.4-1.6,0.9-1.8,1l0,0c-0.1-0.1-0.2-0.2-0.3-0.3
					c-0.1-0.1-0.2-0.2-0.3-0.3C91.1,86,92.1,85.8,93.3,85.8z"/>
				<path class="st0" d="M45.6,53.4c-0.3,0.1-0.7,0.2-1,0.3c-3.7,0.7-6.1,2-8,4.3c-0.7,0.8-1.3,1.7-1.9,2.8
					c-2.4,4.3-8.5,16.4-8.9,16.4c-0.3,0-4,0.3-7.1,0.8l-0.4,0.1c-0.4-0.8-1.4-0.2-1.4-0.2s0-0.1,0-0.2c0.5-3.5-2.5-1.7-2.7-1.6
					c0,0,0-0.1,0.1-0.2c0.2-0.5,0.5-1.7-0.3-2.1c-1.9-0.9-3.4,1.7-3.7,2.3v0.1c0.2-0.3,1.2-2.8-1.1-2.5C7.9,74.1,6.8,75,6,76.2
					c0,0-3-0.2-4.2-0.4c-1.2-0.2-1.9,3.8,2.7,4.3c-0.1,0.6-0.2,1.2-0.1,1.6c0.3,1.6,7.6,4,7.6,4c3.4,1,4.8-0.2,5.5-2
					c0,0,0.1,0.1,0.4,0.3h1.6l7.3,0.2c0,0,0.4,0.6,0.4,1.5c0,0,0.9-0.7,1.2-1.7c0,0,0.5,0.3,0.9,0.8c0.8-1.2,1.2-2.6,1.3-3.2l8-9.8
					l0,0c0-0.2-0.1-0.3-0.1-0.5c-0.5-1.5-0.8-2.2-0.8-2.2c0.3-1.1,0.6-2.1,1-3c0.5-1.3,1.2-2.4,1.8-3.4c0.1-0.2,0.2-0.3,0.3-0.4
					c0.1-0.2,0.2-0.3,0.3-0.5c1.1-1.6,2.2-2.8,2.9-3.5l0,0c1.6-2.1,1.5-4.4,1.5-4.4L45.6,53.4z"/>
			</g>
			<g>
				<path class="st1" d="M0.3,112.3c0,1.1,0,1.8,0,1.8c0.1,1.2,1.2,2,3,2l101.6,0.1c1.8,0,2.8-0.8,3-1.9c0,0,0-0.3,0-1.3"/>
				<path class="st2" d="M0.6,112.3c0.1,0.6,0.1,1.2,0.1,1.7s0.3,0.9,0.7,1.2c0.4,0.3,0.9,0.4,1.4,0.5s1.1,0,1.7,0h7h13.9l27.8,0.1
					H81h13.9h7c1.2,0,2.3,0,3.5,0c1.1,0,2.2-0.6,2.3-1.6l0,0v-1.3h0.6v1.3l0,0l0,0c-0.1,0.7-0.5,1.3-1.1,1.6
					c-0.6,0.3-1.2,0.5-1.8,0.5c-1.2,0-2.3,0-3.5,0h-7H81H53.2H25.4H11.5h-7c-0.6,0-1.1,0-1.8,0c-0.6-0.1-1.3-0.2-1.8-0.7
					c-0.5-0.4-0.9-1.1-0.9-1.8c0-0.6,0-1.2,0.1-1.7h0.5V112.3z"/>
			</g>
			<g>
				<g>
					<path class="st3" d="M68.6,6.9C65,5.7,61.3,6,59.4,6.4l0,0c0,0-4.2-8.3-12.2-5.1C43.7,2.7,43.6,6,43.6,6
						c-1.6-0.8-4.2-1.4-7.3,0.4c-2.5,1.5-3.7,4.6-2.9,7.2c1,3.4,3.6,4.9,6.5,4.6c0,0,2.3,3,3.3,6.8h14.7c0.1-2.1,0.5-6.6,1.9-8.3
						v-0.1c0.5,0.4,0.9,0.9,1.3,1.4c2.3,3,7.1,4.1,10.6,1.8C75.2,17.4,75.9,9.4,68.6,6.9z"/>
				</g>
			</g>
			<path class="st2" d="M74.9,13.6c0-0.1,0-0.3,0-0.4c0,0,0,0,0-0.1C74.4,10,72.3,7.6,69,6.4c-3.2-1.1-6.4-1-8.6-0.7
				c-0.2,0-0.3,0-0.5,0.1c-0.4-0.6-1.1-1.8-2.4-3c-2.3-2.1-4.9-3.1-7.7-2.7c-0.9,0.1-1.8,0.3-2.7,0.7c-2.7,1.1-3.6,3.2-3.8,4.4
				c-1-0.4-2.3-0.6-3.8-0.5c-1.1,0.1-2.3,0.5-3.4,1.2c-2.7,1.6-4,4.9-3.2,7.9c0.2,0.7,0.5,1.4,0.8,1.9c0,0,0,0.1,0.1,0.1
				c0,0.1,0.1,0.1,0.1,0.1l0,0c0.4,0.6,0.9,1.2,1.5,1.6c0,0,0.1,0,0.1,0.1c0.1,0.1,0.2,0.1,0.3,0.2s0.2,0.1,0.3,0.2h0.1
				c1,0.6,2.2,0.8,3.5,0.7l0,0c2,2.5,2.9,5,3.1,6.1h1.3l-0.3-0.6c-0.2-0.5-0.3-0.9-0.5-1.4c-0.1-0.3-0.3-0.6-0.4-0.9
				c-0.2-0.3-0.3-0.6-0.5-0.9c-0.3-0.6-0.7-1.2-1-1.7c-0.2-0.3-0.4-0.6-0.6-0.8c0,0,0,0,0-0.1c0.2-0.1,0.4-0.1,0.6-0.2
				c0.7-0.3,1.3-0.6,1.8-1.1s0.9-1.1,1.1-1.8c-0.8,1.1-2,1.7-3.2,2s-2.5,0.4-3.6,0.1c-0.6-0.2-1.1-0.4-1.6-0.8s-0.9-0.8-1.2-1.3
				s-0.6-1.1-0.8-1.7c-0.2-0.6-0.3-1.2-0.3-1.8c0-1.3,0.4-2.5,1.1-3.6c0.4-0.5,0.8-1,1.3-1.4s1.1-0.7,1.7-0.9
				c1.2-0.5,2.6-0.7,3.8-0.5c1.3,0.2,2.5,0.8,3.6,1.5c-0.4-0.4-0.9-0.8-1.4-1c0.1-0.8,0.4-1.6,0.8-2.3c0.5-0.7,1.1-1.3,1.8-1.7
				c0.4-0.2,0.8-0.4,1.2-0.5C48,1.2,48.4,1.1,48.8,1c0.8-0.2,1.7-0.3,2.5-0.2c1.7,0.1,3.3,0.8,4.6,1.9c0.7,0.5,1.3,1.1,1.8,1.8
				c0.5,0.5,1,1.2,1.3,1.8c-0.3,0.1-0.6,0.2-0.9,0.3c1-0.1,1.9-0.1,2.8-0.2c0.9-0.1,1.9-0.1,2.8,0c0.9,0,1.9,0.1,2.8,0.3
				c0.9,0.2,1.8,0.4,2.6,0.8c0.9,0.5,1.7,1,2.3,1.6s1.2,1.3,1.5,2.1s0.5,1.7,0.6,2.5c0,0.9-0.1,1.7-0.3,2.5
				c-0.3,0.8-0.7,1.6-1.2,2.2c-0.1,0.2-0.3,0.3-0.4,0.4s-0.2,0.1-0.2,0.2c-0.1,0.1-0.2,0.1-0.3,0.2c-0.4,0.2-0.7,0.4-1.1,0.6
				c-0.8,0.3-1.6,0.5-2.5,0.6c-0.9,0-1.8-0.1-2.6-0.3c-0.9-0.3-1.7-0.7-2.4-1.2c-0.4-0.3-0.7-0.6-1-0.9c-0.3-0.4-0.6-0.7-1-1.1
				c-0.7-0.7-1.5-1.3-2.3-1.8s-1.7-0.9-2.6-1.2c1.3,0.6,2.5,1.5,3.6,2.4c-0.3,0.4-0.6,0.9-0.8,1.4s-0.4,1-0.6,1.6
				c-0.5,1.8-0.7,4.7-0.7,5.7h1c0.1-1.4,0.4-5.5,1.9-7.5c0.3,0.3,0.5,0.6,0.8,0.9c1.5,1.9,3.9,3.1,6.4,3.2c0.1,0,0.2,0,0.3,0
				c1,0,2.1-0.1,3-0.5c0.5-0.2,1-0.4,1.4-0.7c0.1-0.1,0.2-0.1,0.3-0.2c0.1-0.1,0.2-0.2,0.3-0.3c0.2-0.2,0.4-0.4,0.6-0.6
				c0.7-0.8,1.2-1.8,1.5-2.8C74.9,15.7,75,14.7,74.9,13.6z"/>
			<g>
				<g>
					<path class="st2" d="M43.5,13.9c-2.6,4.4-9.6,1.7-8.6-3.3l0,0c-0.5,2.2,0.8,4.6,2.8,5.6c2.2,1.1,5.1,0.1,5.9-2.2
						C43.6,13.9,43.5,13.9,43.5,13.9z"/>
				</g>
			</g>
			<g>
				<g>
					<path class="st2" d="M62.1,16.3c0.3,0.2,0.6,0.5,0.8,0.7c0.3,0.3,0.5,0.5,0.8,0.8c0.6,0.5,1.2,0.9,2,1.1
						c0.7,0.2,1.5,0.3,2.3,0.3c0.4,0,0.8-0.1,1.1-0.2c0.4-0.1,0.7-0.2,1.1-0.5c0.7-0.4,1.2-1,1.6-1.7s0.5-1.4,0.5-2.2
						s-0.2-1.5-0.5-2.2c0.2,0.7,0.3,1.4,0.3,2.2c0,0.7-0.2,1.5-0.6,2.1c-0.3,0.6-0.9,1.2-1.5,1.5c-0.6,0.4-1.3,0.5-2.1,0.6
						c-0.7,0.1-1.5,0-2.1-0.2c-0.7-0.2-1.4-0.6-1.9-1c-0.3-0.2-0.5-0.5-0.8-0.7C62.8,16.7,62.5,16.4,62.1,16.3
						c-0.5-0.5-1.1-1-1.8-1.3l0,0C61,15.4,61.6,15.8,62.1,16.3z"/>
				</g>
			</g>
			<path class="st4" d="M41.3,99.7h20.3c-0.2-11.7,0.3-24,0.9-26.5c0.8-3.1,1.6-4.3,1.6-4.3c-0.4-1.5-0.9-2.9-1.5-4.1
				c-1.5-3.2-3.4-5.4-4.4-6.4c-2.4-2.9-1.8-5-1.8-5l0,0c-2.7-0.8-2.3-3-2.1-3.6c-3.4,0.5-5.9,0.1-5.9,0.1c0.1,1.2,0.2,3.3-2.9,3.7
				c0,0,0.1,2.6-1.8,4.8c-1.3,1.3-3.5,3.9-5,7.5c-0.4,0.9-0.8,1.9-1,3C37.7,68.9,42.6,80.6,41.3,99.7z"/>
			<path class="st4" d="M60.9,25.1c0,0,1.7,0.4,3.3,1.3c1.6,0.9,5.6,1.7,5.7,3.3c0.1,1.5,0.6,2.1-1.9,3.3c0,0,5.3,2,5.3,5.9
				c0,0-1.5-0.5-3-0.3l1.5,1.4c0,0-5.1,8.2-19.2,10.1c0,0-13.7,1.3-22.8-10.2l1.5-1.7l-2.8,0.5c0,0,0.1-2.7,2.6-4.2
				c2.6-1.5,2.6-1.5,2.6-1.5s-2.4-1.1-2-2.9c0.4-1.8,3.3-2.7,5.2-3.7c1.8-1,4-1.7,5.4-1.2s3.3-0.6,3.3-0.6s7.8-1.9,10.8,0.1
				L60.9,25.1z"/>
			<path class="st2" d="M56.2,24.5c-1.6-0.3-3.3-0.4-4.9-0.4c-1.6,0.1-3.3,0.3-4.8,0.8l-0.2-0.7c1.7-0.4,3.4-0.6,5-0.5
				c1.7,0,3.3,0.3,5,0.7L56.2,24.5z"/>
			<g>
				<g>
					<path class="st0" d="M55.6,26.2c-2.6,1.9-2.9,7.2-2.9,10.6c0,0,0.9-0.4,2.3-0.7c0-0.2,0.3-2.8,0.4-3.7c0.1-0.3,0.1-0.6,0.2-0.8
						c1.7-5.7,6.6-3.9,7.3-0.8c0,0.1,0,0.1,0,0.2c0.5,2.1,0.3,3.9,0.3,3.9c1.4-0.7,2.4-1.5,3.4-2.3c0,0-1.6-1.8-4.2-5
						C60.5,25.2,57.8,24.6,55.6,26.2z"/>
				</g>
			</g>
			<path class="st2" d="M69.5,31.5L69.5,31.5C69.6,31.5,69.6,31.5,69.5,31.5L69.5,31.5z"/>
			<path class="st2" d="M39.3,47.2c-1.8-0.8-3.5-1.9-5-3.2c-0.8-0.6-1.5-1.3-2.1-2.1c-0.3-0.4-0.7-0.7-1-1.1
				c-0.2-0.2-0.4-0.5-0.5-0.8c0.2-0.2,0.4-0.4,0.6-0.5s0.4-0.3,0.5-0.4c0.2-0.1,0.4-0.3,0.6-0.4l1.1-0.7l-1.2,0.1
				c-0.7,0-1.3,0.1-2,0.1c-0.5,0.1-1.1,0.2-1.6,0.3c0.3-1.1,0.9-2,1.7-2.7c0.4-0.4,0.9-0.8,1.4-1.1c0.2-0.2,0.5-0.3,0.8-0.5l0.8-0.4
				c1.1-0.6,2.1-1.4,3-2.2s1.8-1.7,2.7-2.7l1.1-1.3l-1.6,0.5c-0.7,0.3-1.4,0.5-2.1,0.6c-0.7,0.2-1.5,0.3-2.2,0.5
				c-0.7,0.3-1.5,0.9-1.5,1.8c0,0.4,0.3,0.8,0.6,1.1c0.2,0.2,0.4,0.3,0.7,0.4L34,32.6c-0.3-0.1-0.7-0.2-0.9-0.4
				c-0.2-0.1-0.4-0.3-0.5-0.5s-0.2-0.4-0.3-0.6c-0.1-0.5,0-1,0.3-1.4s0.7-0.7,1.1-1c0.9-0.5,1.9-0.8,3-1.3c0.5-0.2,1-0.5,1.5-0.8
				l0.3-0.2c0.1-0.1,0.2-0.1,0.3-0.2c0.2-0.1,0.5-0.2,0.7-0.3c0.8-0.3,1.7-0.4,2.6-0.4V25c-0.6-0.2-1.2-0.3-1.8-0.2l0,0
				c-0.1,0-0.1,0-0.2,0c-0.3,0-0.6,0.1-0.8,0.1l0,0C39.1,25,39,25,38.8,25.1c-0.1,0-0.1,0.1-0.2,0.1l0,0c-0.1,0-0.1,0.1-0.2,0.1
				c-0.1,0.1-0.3,0.1-0.4,0.2l-0.2,0.1l-0.2,0.1c-0.1,0.1-0.2,0.1-0.3,0.2c-0.6,0.3-1.2,0.6-1.9,0.9c-2.1,0.9-4.4,1.8-4,4.5v0.1
				c0,0.1,0.4,1.1,1.5,1.6c-0.1,0-0.1,0.1-0.2,0.1c-2.8,1.5-4.4,3.4-4.8,5.5c0,0.2,0,0.4,0.2,0.5c0.1,0.1,0.2,0.2,0.4,0.2h0.1
				c0,0,0.5-0.1,1.2-0.2c-0.1,0.1-0.3,0.2-0.4,0.3L29,39.8l0.3,0.4c0.3,0.5,0.7,0.8,1,1.2c0.2,0.2,0.3,0.4,0.5,0.5
				c0.6,0.7,1.5,1.6,2.6,2.5c7.5,5.9,14.5,5.6,17.2,5.7c-2-0.4-3.9-0.7-5.8-1.2C43,48.6,41.1,48,39.3,47.2z"/>
			<path class="st2" d="M56.9,49.1c-1.9,0.5-3.8,0.8-5.8,1.2c2.2,0,9.7,0.2,17.2-5.7c1.1-0.9,2-1.8,2.6-2.5c0.2-0.2,0.4-0.4,0.5-0.5
				c0.4-0.4,0.7-0.8,1-1.2l0.3-0.4l-0.4-0.4c-0.1-0.1-0.3-0.2-0.4-0.3c0.7,0.1,1.2,0.2,1.2,0.2h0.1c0.1,0,0.3-0.1,0.4-0.2
				c0.1-0.1,0.2-0.3,0.2-0.5c-0.3-2.1-1.9-4-4.8-5.5c-0.1,0-0.1-0.1-0.2-0.1c1.1-0.5,1.5-1.6,1.5-1.6v-0.1c0.4-2.6-1.9-3.6-4-4.5
				c-0.6-0.3-1.3-0.5-1.9-0.9c-0.1-0.1-0.2-0.1-0.3-0.2l-0.2-0.1l0.1-0.2c-0.1-0.1-0.3-0.1-0.4-0.2c-0.1,0-0.1-0.1-0.2-0.1l0,0
				c-0.1,0-0.1-0.1-0.2-0.1c-1.8-0.6-2.8-0.3-3.3-0.1v0.5c0.9-0.1,1.8,0.1,2.6,0.4c0.2,0.1,0.5,0.2,0.7,0.3c0.1,0.1,0.2,0.1,0.3,0.2
				l0.3,0.2c0.5,0.3,1,0.5,1.5,0.8c1,0.4,2.1,0.8,3,1.3c0.4,0.3,0.9,0.6,1.1,1c0.3,0.4,0.4,0.9,0.3,1.4c0,0.2-0.2,0.4-0.3,0.6
				c-0.1,0.2-0.3,0.4-0.5,0.5c-0.3,0.2-0.6,0.3-0.9,0.4l-0.1-0.1c0.2-0.1,0.5-0.2,0.7-0.4c0.3-0.2,0.6-0.6,0.6-1.1
				c-0.1-0.9-0.8-1.5-1.5-1.8c-0.8-0.3-1.5-0.4-2.2-0.5c-0.7-0.2-3-1.3-3-1.3s2.1,3.3,3,4.1c0.9,0.8,1.9,1.6,3,2.2l0.8,0.4
				c0.3,0.1,0.5,0.3,0.8,0.5c0.5,0.3,1,0.7,1.4,1.1c0.8,0.7,1.4,1.7,1.7,2.7c-0.5-0.1-1.1-0.2-1.6-0.3c-0.6-0.1-1.3-0.2-2-0.1
				L68.4,38l1.1,0.7c0.2,0.1,0.4,0.3,0.6,0.4c0.2,0.1,0.4,0.3,0.5,0.4c0.2,0.2,0.4,0.3,0.6,0.5c-0.2,0.3-0.4,0.5-0.5,0.8
				c-0.3,0.4-0.6,0.8-1,1.1c-0.7,0.7-1.4,1.4-2.1,2.1c-1.5,1.3-3.2,2.4-5,3.2C60.7,48,58.8,48.6,56.9,49.1z"/>
			<path class="st2" d="M33,31.5L33,31.5L33,31.5L33,31.5z"/>
			<g>
				<g>
					<path class="st2" d="M51.5,47.4c0.8,0,1.6,0,2.4-0.2c0.8-0.2,1.5-0.4,2.2-0.9c-0.4,0.2-0.7,0.3-1.1,0.4
						c-0.4,0.1-0.8,0.2-1.1,0.3c-0.8,0.1-1.5,0.2-2.3,0.1c-0.8,0-1.5-0.1-2.3-0.3s-1.5-0.4-2.2-0.7c0.7,0.4,1.4,0.7,2.2,0.9
						C49.9,47.2,50.7,47.3,51.5,47.4z"/>
				</g>
			</g>
			<path class="st2" d="M57.4,57.6c1.6,1.2,3,2.7,4.2,4.4c1.2,1.6,2.2,3.5,2.8,5.4l0,0v0.1v0.2c-0.6,2.6-1,5.2-1.3,7.9
				c-0.3,2.6-0.6,5.3-0.7,8c-0.3,5.3-0.4,10.7-0.2,16h-1C61,94.2,61,88.8,61.4,83.5c0.2-2.7,0.4-5.4,0.7-8c0.3-2.7,0.7-5.3,1.4-8
				v0.3l0,0c-0.4-1.9-1.2-3.7-2.2-5.4C60.1,60.6,58.9,59,57.4,57.6z"/>
			<g>
				<g>
					<path class="st3" d="M55.3,32.9C55.2,34,55,36,55,36.2c1-0.2,2.3-0.4,3.7-0.4c2,0,3.4-0.4,4.7-0.9c0,0,0.1-0.8,0-2
						C63.4,32.9,55.3,32.9,55.3,32.9z"/>
				</g>
			</g>
			<g>
				<g>
					<defs>
						<path id="SVGID_1_" d="M55.3,32.9C55.2,34,55,36,55,36.2c1-0.2,2.3-0.4,3.7-0.4c2,0,3.4-0.4,4.7-0.9c0,0,0.1-0.8,0-2
							C63.4,32.9,55.3,32.9,55.3,32.9z"/>
					</defs>
					<clipPath id="SVGID_2_">
						<use xlink:href="#SVGID_1_"  style="overflow:visible;"/>
					</clipPath>
					<ellipse class="st5" cx="59.2" cy="35.1" rx="1.5" ry="1.9"/>
				</g>
			</g>
			<g>
				<g>
					<path class="st3" d="M59.4,30.7c0,0-0.5,1.7,0.6,2s1.4-1.4,1.4-1.4s-0.3,0.8-0.9,0.7c-0.7-0.2-0.1-1.2-0.1-1.2L59.4,30.7z"/>
				</g>
			</g>
			<path class="st4" d="M55.5,33.3c0,0-0.4-5.3,4.2-5.5c0,0,3.7,0.8,3.6,5.2C63.3,33,58.7,34,55.5,33.3z"/>
			<g>
				<g>
					<path class="st2" d="M52.9,36.7L52.9,36.7c1.1-0.2,2.2-0.3,3.2-0.5l3.3-0.4c0.5-0.1,1.1-0.1,1.6-0.2c0.5-0.1,1.1-0.2,1.6-0.4
						c0.3-0.1,0.6-0.2,0.9-0.4l0,0l0,0c0.2-0.1,0.4-0.2,0.6-0.3c0.5-0.3,0.9-0.7,1.3-1.1c-0.6,0.4-1.2,0.8-1.9,1.1
						c0-0.7-0.1-1.4-0.2-2.1c-0.1-0.4-0.1-0.8-0.2-1.2c0-0.1,0-0.2,0-0.2s-0.2-0.7-0.4-1c-0.4-0.7-1-1.4-1.7-1.8s-1.5-0.6-2.4-0.5
						c-0.8,0.1-1.6,0.6-2.1,1.2c-0.6,0.6-0.9,1.4-1.2,2.2l0,0l0,0l0,0c-0.1,0.4-0.2,0.7-0.3,1.1c-0.1,0.4-0.2,0.8-0.2,1.2
						c-0.1,0.8-0.3,1.6-0.4,2.4h0.1C53.9,36.3,53.4,36.4,52.9,36.7z M55.7,32.6c0-0.2,0.1-0.4,0.1-0.6l0,0c0.1-0.4,0.2-0.7,0.3-1
						l0,0c0.2-0.6,0.5-1.1,0.8-1.5c0.5-0.6,1.1-1.1,1.8-1.2c1.5-0.3,3.1,0.6,3.8,2c0.1,0.2,0.2,0.4,0.2,0.5s0.1,0.5,0.1,0.6
						c0.1,0.4,0.1,0.8,0.2,1.2c0.1,0.8,0.1,1.6,0,2.3c-0.2,0.1-0.3,0.2-0.5,0.2c-0.5,0.2-1,0.4-1.6,0.5c-0.5,0.1-1.1,0.1-1.6,0.2
						c-1.1,0.1-2.2,0.1-3.3,0.2c-0.2,0-0.3,0-0.5,0.1c0-0.7,0.1-1.4,0.1-2.1C55.7,33.4,55.7,33,55.7,32.6z"/>
				</g>
			</g>
			<path class="st2" d="M63.8,32.9c-2.7,0.8-5.6,1.2-8.5,1.2l0.1-1C58.2,33.4,61,33.4,63.8,32.9z"/>
			<path class="st2" d="M56.2,23.7c0.9-0.4,2.1-0.4,3-0.2c1.5,0.4,2.6,1.7,3.1,3.2c0,0.1,0.1,0.3,0.1,0.4c0,0.3-0.5-0.2-0.7-0.3
				c-0.3-0.2-0.5-0.4-0.8-0.6c-0.8-0.5-1.7-0.7-2.6-0.8c-0.6-0.1-1.1-0.1-1.7,0c-1.5,0.2-1.5-0.2-1.5-0.2
				C55.1,25.3,54.7,24.4,56.2,23.7z"/>
			<g>
				<g>
					<path class="st0" d="M46.8,26.2c2.6,1.9,2.9,7.2,2.9,10.6c0,0-0.9-0.4-2.3-0.7c0-0.2-0.3-2.8-0.4-3.7c-0.1-0.3-0.1-0.6-0.2-0.8
						c-1.7-5.7-6.6-3.9-7.3-0.8c0,0.1,0,0.1,0,0.2c-0.5,2.1-0.3,3.9-0.3,3.9c-1.4-0.7-2.6-1.7-3.6-2.5c0,0,2.6-2.4,4.4-4.8
						C41.8,25.2,44.5,24.6,46.8,26.2z"/>
				</g>
			</g>
			<g>
				<g>
					<path class="st3" d="M47,32.9c0.2,1.1,0.4,3.1,0.4,3.3c-1-0.2-2.3-0.4-3.7-0.4c-2,0-3.4-0.4-4.7-0.9c0,0-0.1-0.8,0-2
						C39,32.9,47,32.9,47,32.9z"/>
				</g>
			</g>
			<g>
				<g>
					<defs>
						<path id="SVGID_3_" d="M47,32.9c0.2,1.1,0.4,3.1,0.4,3.3c-1-0.2-2.3-0.4-3.7-0.4c-2,0-3.4-0.4-4.7-0.9c0,0-0.1-0.8,0-2
							C39,32.9,47,32.9,47,32.9z"/>
					</defs>
					<clipPath id="SVGID_4_">
						<use xlink:href="#SVGID_3_"  style="overflow:visible;"/>
					</clipPath>
					<ellipse class="st6" cx="43.4" cy="35.1" rx="1.5" ry="1.9"/>
				</g>
			</g>
			<g>
				<g>
					<path class="st3" d="M43.3,30.7c0,0,0.5,1.7-0.6,2s-1.4-1.4-1.4-1.4s0.3,0.8,0.9,0.7c0.7-0.2,0.1-1.2,0.1-1.2L43.3,30.7z"/>
				</g>
			</g>
			<g>
				<g>
					<path class="st4" d="M39.4,30.8c0.7-3,5.7-4.9,7.3,0.8c0,0-2.5-1.9-7.4-0.7C39.4,30.9,39.4,30.9,39.4,30.8z"/>
				</g>
			</g>
			<path class="st4" d="M46.8,33.2c0,0,0.4-5.1-4.2-5.4c0,0-3.7,0.8-3.6,5C39.1,32.9,43.7,33.9,46.8,33.2z"/>
			<g>
				<g>
					<path class="st2" d="M47.8,36.1L47.8,36.1c0-0.8-0.2-1.6-0.3-2.4c-0.1-0.4-0.1-0.8-0.2-1.2c-0.1-0.4-0.2-0.8-0.3-1.1l0,0l0,0
						l0,0c-0.3-0.8-0.7-1.5-1.2-2.2c-0.5-0.6-1.3-1.1-2.1-1.2s-1.7,0-2.4,0.5c-0.7,0.4-1.3,1-1.7,1.8c-0.1,0.3-0.2,0.6-0.3,0.9l0,0
						v0.1l0,0c0,0.1,0,0.1,0,0.2c-0.1,0.4-0.2,0.8-0.2,1.2c-0.1,0.7-0.2,1.4-0.2,2.1c-0.6-0.3-1.3-0.7-1.9-1.1
						c0.4,0.4,0.8,0.8,1.3,1.1c0.2,0.1,0.4,0.2,0.6,0.3l0,0l0,0c0.3,0.1,0.6,0.3,0.9,0.4c0.5,0.2,1.1,0.3,1.6,0.4
						c0.5,0.1,1.1,0.2,1.6,0.2l3.3,0.4c1.1,0.1,2.2,0.3,3.2,0.5l0,0C49,36.4,48.4,36.3,47.8,36.1z M46.7,33.8c0,0.7,0.1,1.4,0.1,2.1
						c-0.2,0-0.4,0-0.5-0.1c-1.1-0.1-2.2-0.1-3.3-0.2c-0.5,0-1.1-0.1-1.6-0.2c-0.5-0.1-1.1-0.3-1.6-0.5c-0.2-0.1-0.3-0.2-0.5-0.2
						c-0.1-0.8-0.1-1.6,0-2.3c0-0.4,0.1-0.8,0.2-1.2c0-0.1,0-0.2,0.1-0.3l0,0l0,0v-0.1l0,0l0,0c0-0.1,0-0.1,0-0.2
						c0.1-0.2,0.1-0.4,0.2-0.5c0.7-1.4,2.3-2.3,3.8-2c0.7,0.2,1.4,0.6,1.8,1.2c0.4,0.5,0.6,1,0.8,1.5l0,0c0.1,0.4,0.2,0.7,0.3,1l0,0
						c0,0.2,0.1,0.4,0.1,0.6C46.7,33,46.7,33.4,46.7,33.8z"/>
				</g>
			</g>
			<path class="st2" d="M38.5,32.7c2.8,0.5,5.6,0.5,8.4,0.2l0.1,1C44.1,33.9,41.3,33.5,38.5,32.7z"/>
			<path class="st2" d="M46.5,24.2c-0.9-0.5-2-0.6-3-0.5c-1.6,0.3-2.8,1.4-3.4,2.9C40,26.8,40,27,40,27.1c0,0.3,0.6-0.1,0.7-0.2
				c0.3-0.2,0.6-0.4,0.9-0.5c0.8-0.4,1.7-0.6,2.6-0.6c0.6,0,1.1,0.1,1.7,0.2c1.5,0.3,1.5-0.1,1.5-0.1S48,25.1,46.5,24.2z"/>
			<path class="st2" d="M40.7,39.8c0.5,0.9,1.2,1.7,2,2.4s1.7,1.3,2.7,1.8c2,1,4.2,1.4,6.4,1.5c2.2,0,4.4-0.5,6.3-1.5
				c0.9-0.5,1.8-1.2,2.6-2c0.7-0.8,1.4-1.7,1.8-2.6l1.2,0.7c-0.7,1-1.5,1.8-2.5,2.6c-0.9,0.7-1.9,1.4-2.9,1.8
				c-2.1,1-4.3,1.4-6.6,1.4c-2.2,0-4.5-0.4-6.6-1.3c-1.1-0.4-2.1-1-3-1.6c-1-0.7-1.8-1.4-2.6-2.4L40.7,39.8z"/>
			<path class="st2" d="M55.7,36.1c-1.1-0.4-2.2-0.6-3.3-0.6l0,0c-0.1,0-0.2,0-0.3,0s-0.2,0-0.3,0l0,0c-1.1,0-2.3,0.2-3.3,0.6
				c-3.8,1.5-2.7,3.8,0,5.8c1.8,1.3,2.8,1.6,3.6,1.6s1.8-0.3,3.6-1.6C58.4,39.9,59.5,37.6,55.7,36.1z"/>
			<g>
				<g>
					<path class="st3" d="M55.8,38.3c-0.7-0.9-3.7-1.5-6.6-0.8c1.4-1.3,5.7-1.7,7.4,0.3c0.5,0.5,0.5,1.4-0.3,1.8
						C56.4,39.3,56.2,38.8,55.8,38.3z"/>
				</g>
			</g>
			<path class="st2" d="M42.4,39.8c-0.8,0.4-1.3,0.7-1.8,0.9c-0.5,0.3-0.9,0.6-1.7,1.1c-0.3-0.9,0.2-1.8,1-2.3
				c0.4-0.2,0.9-0.3,1.3-0.3C41.7,39.3,42.1,39.4,42.4,39.8z"/>
			<path class="st2" d="M61.3,39.8c0.3-0.4,0.7-0.5,1.2-0.5c0.4,0,0.9,0.1,1.3,0.3c0.8,0.5,1.3,1.4,1,2.3c-0.8-0.5-1.2-0.8-1.7-1.1
				C62.7,40.4,62.1,40.2,61.3,39.8z"/>
			<path class="st2" d="M45,57.2c-1.6,1.6-3,3.4-4.1,5.4c-1.1,1.9-2,4-2.4,6.2l0,0v-0.3c0.7,2.6,1.2,5.1,1.7,7.7s0.8,5.2,1.1,7.8
				c0.6,5.2,0.8,10.5,0.6,15.7h-1c0.2-5.2,0-10.4-0.6-15.5c-0.3-2.6-0.7-5.2-1.2-7.7c-0.5-2.6-1-5.1-1.7-7.6v-0.1v-0.1l0,0
				c0.7-2.2,1.7-4.3,3-6.2C41.7,60.4,43.2,58.7,45,57.2z"/>
			<path class="st2" d="M62.3,61.1c0.3-1.7,1.5-3.3,3.2-4.2l0.5,1.3c-0.8,0.2-1.5,0.5-2.1,1C63.2,59.6,62.7,60.3,62.3,61.1z"/>
			<path class="st2" d="M64.4,62.5c0.5-1.4,1.5-2.7,2.7-3.7l0.7,1.2C66.6,60.5,65.3,61.3,64.4,62.5z"/>
			<path class="st2" d="M40.5,61c-0.5-0.7-1.2-1.2-1.9-1.6c-0.7-0.4-1.5-0.6-2.3-0.6l0.3-1.3C38.4,58,39.9,59.4,40.5,61z"/>
			<path class="st2" d="M38.9,63.4c-0.5-0.7-1.2-1.2-1.9-1.6c-0.7-0.4-1.5-0.6-2.3-0.6l0.3-1.3C36.9,60.5,38.3,61.8,38.9,63.4z"/>
			<path class="st2" d="M85.1,82.6l-8.9-3.3c-0.1,0.2-0.2,0.5-0.2,0.9V81l-0.7-0.5c0,0-0.7-0.5-1.2-1.4c-0.1,0.1-0.2,0.2-0.3,0.3
				L73.3,80l-0.4-0.5c-0.8-1.1-1.2-2.5-1.3-3.2l-8.5-7.8l0.7-0.7l8.8,8.1v0.2c0,0.3,0.3,1.4,0.8,2.4c0.3-0.3,0.6-0.4,0.6-0.4
				l0.5-0.3l0.2,0.6c0.1,0.3,0.3,0.6,0.5,0.9c0.1-0.4,0.3-0.7,0.3-0.7l0.2-0.4l9.7,3.6L85.1,82.6z"/>
			<path class="st2" d="M26.7,86.5l-0.1-0.9c0-0.4-0.2-0.8-0.2-1l-8.9-0.2v-1l9.5,0.2l0.1,0.2c0,0,0.2,0.3,0.3,0.7
				c0.2-0.2,0.4-0.5,0.5-0.9l0.2-0.6l0.5,0.3c0,0,0.3,0.2,0.6,0.4c0.6-1,0.8-2.1,0.8-2.4v-0.2l8.1-9.9L39,72l-7.9,9.7
				c-0.1,0.8-0.5,2.1-1.3,3.3l-0.4,0.5L29,85c-0.1-0.1-0.2-0.2-0.3-0.3c-0.5,0.8-1.1,1.3-1.2,1.4L26.7,86.5z"/>
			<g>
				<path class="st7" d="M107.4,111.1c1.1,1.9,0,3.4-2.5,3.4L3.3,114.4c-2.5,0-3.6-1.6-2.6-3.4l4.9-8.8c0.7-1.3,2.9-2.4,4.9-2.4H97
					c2,0,4.3,1.1,5.1,2.4L107.4,111.1z"/>
				<path class="st2" d="M107.8,110.9c0.3,0.5,0.6,1.2,0.4,2c-0.1,0.7-0.7,1.3-1.3,1.6c-0.6,0.3-1.3,0.4-1.9,0.4h-1.8H96H81.6
					l-28.9-0.1l-28.9-0.1H9.4H5.8H4c-0.6,0-1.2,0-1.9-0.2c-0.6-0.2-1.2-0.5-1.6-1.1s-0.4-1.3-0.2-2c0.2-0.6,0.6-1.1,0.8-1.6l0.9-1.6
					l3.5-6.3c0.7-1.1,1.9-1.7,3.1-2.1c0.6-0.2,1.2-0.3,1.8-0.3h1.8h14.4h28.9h28.9h7.2h3.6H97c0.6,0,1.3,0.1,1.9,0.3
					c1.2,0.3,2.4,0.9,3.2,1.9c0.2,0.3,0.4,0.5,0.5,0.8l0.5,0.8l0.9,1.5L107.8,110.9L107.8,110.9z M107.1,111.3l-3.7-6.2l-0.9-1.6
					l-0.5-0.8c-0.2-0.3-0.3-0.5-0.5-0.7c-0.7-0.8-1.8-1.4-2.9-1.7c-0.6-0.2-1.1-0.2-1.7-0.2h-1.8h-3.6h-7.2H55.4H26.5H12.1
					c-1.2,0-2.4-0.1-3.5,0.3s-2.2,0.9-2.8,1.9l-3.5,6.3l-0.9,1.6c-0.3,0.5-0.6,1.1-0.8,1.6s-0.1,1.1,0.1,1.5
					c0.3,0.4,0.8,0.7,1.3,0.9c0.5,0.2,1.1,0.1,1.7,0.1h1.8h3.6h14.4h28.9h28.9h14.4h7.2h1.8c0.6,0,1.1-0.1,1.6-0.3
					c0.5-0.2,0.8-0.6,0.9-1.1C107.6,112.3,107.4,111.7,107.1,111.3L107.1,111.3z"/>
			</g>
			<path class="st2" d="M48.8,49.9c0.1,1.1-0.4,2.2-1.1,3C46.9,53.6,46,54,45,54.2c-1.8,0.4-3.5,0.8-5.1,1.7
				c-1.5,0.9-2.8,2.1-3.8,3.6s-1.8,3.1-2.7,4.8c-1.7,3.3-3.4,6.6-5.2,9.8c-0.4,0.8-0.9,1.6-1.4,2.4c-0.1,0.2-0.2,0.4-0.4,0.6
				c-0.1,0.1-0.1,0.2-0.2,0.3l-0.1,0.1L26,77.6c-0.1,0.1-0.4,0.1-0.3,0.1h-0.1l-1.4,0.1c-1.8,0.2-3.7,0.4-5.5,0.6l-0.2-1
				c1.8-0.3,3.7-0.5,5.5-0.7l1.4-0.1h0.2c0.1,0-0.2,0-0.2,0.1c0,0,0,0-0.1,0l0,0c0-0.1,0.1-0.1,0.2-0.2l0.3-0.6
				c0.5-0.8,0.9-1.6,1.3-2.4c1.7-3.3,3.4-6.5,5.2-9.8c0.9-1.6,1.7-3.3,2.8-4.9c1.1-1.6,2.5-3,4.2-4s3.6-1.5,5.4-1.8
				c0.8-0.2,1.6-0.5,2.2-1.1c0.6-0.5,0.9-1.3,0.9-2L48.8,49.9z"/>
			<path class="st2" d="M11,76c-0.5,0.8-1,1.6-1.4,2.4c-0.5,0.8-0.9,1.7-1.3,2.5C8.5,80,8.8,79,9.1,78.1s0.6-1.8,1-2.7L11,76z"/>
			<path class="st2" d="M14.6,76.4c-0.7,0.7-1.4,1.6-2,2.5s-1.1,1.8-1.5,2.8c0.3-1,0.6-2.1,1.1-3.1s1-2,1.6-2.9L14.6,76.4z"/>
			<path class="st2" d="M17.4,78c-1.1,1.6-2,3.4-2.9,5.1c0.5-1.9,1.2-3.8,2-5.6L17.4,78z"/>
			<path class="st2" d="M6,76.7c-0.9-0.2-1.8-0.3-2.8-0.4c-0.5-0.1-0.9-0.1-1.4-0.2H1.7H1.6l0,0c0,0-0.1,0-0.1,0.1
				c-0.1,0.1-0.2,0.3-0.2,0.5c-0.1,0.7,0.2,1.6,0.9,2c0.6,0.5,1.5,0.6,2.3,0.6l-0.1,1.5c-1-0.2-2-0.5-2.8-1.3c-0.8-0.7-1.3-1.9-1-3
				c0-0.2,0.1-0.5,0.4-0.7c0.1-0.1,0.3-0.2,0.4-0.3c0.1,0,0.2-0.1,0.3-0.1h0.1c0.1,0,0.1,0,0.1,0c0.4,0.1,0.9,0.1,1.4,0.2
				c0.9,0.1,1.8,0.1,2.8,0.1L6,76.7z"/>
			<path class="st2" d="M11.8,86.1C10,85.5,8.3,84.8,6.6,84c-0.8-0.5-1.7-0.8-2.4-1.7C4.1,82.1,4.1,82,4,81.8s0-0.2-0.1-0.4
				c0-0.3,0-0.5,0-0.8c0-0.5,0.2-1,0.3-1.4c0.5-1.8,1.4-3.6,3-4.9c0.4-0.3,0.9-0.5,1.3-0.7c0.2-0.1,0.5-0.1,0.7-0.1
				c0.3,0,0.5,0,0.8,0.1s0.6,0.4,0.7,0.7c0.1,0.3,0.1,0.6,0.1,0.9c-0.1,0.5-0.2,1-0.4,1.5l-0.8-0.4l0,0c0.4-0.6,0.8-1.1,1.2-1.6
				c0.5-0.5,1-0.9,1.7-1.1c0.4-0.1,0.7-0.1,1.1,0c0.2,0.1,0.3,0.1,0.5,0.3c0.2,0.1,0.3,0.3,0.4,0.5c0.2,0.8,0,1.4-0.1,2.1l0,0
				l-0.7-0.6c0.4-0.2,0.8-0.4,1.2-0.6c0.4-0.1,1-0.2,1.5,0c0.3,0.1,0.5,0.4,0.6,0.7c0.1,0.3,0.2,0.5,0.2,0.7c0,0.5,0,0.9-0.1,1.3
				l0,0l-0.8-0.5c0.3-0.2,0.6-0.3,1.1-0.3c0.2,0,0.5,0.1,0.7,0.3c0.2,0.2,0.3,0.4,0.4,0.6c0.2,0.7,0.1,1.4,0.1,1.9
				c-0.2,1.1-0.3,2.3-0.7,3.5c-0.2,0.6-0.5,1.2-0.9,1.7s-1,0.9-1.7,1.1C14.2,86.7,13,86.4,11.8,86.1L11.8,86.1L11.8,86.1z
				 M12.1,85.1c1.1,0.3,2.2,0.4,3.1,0.1c0.9-0.3,1.5-1,1.9-2s0.5-2.1,0.7-3.2c0.1-0.5,0.1-1.1,0-1.4c-0.1-0.2-0.1-0.2-0.1-0.2
				c-0.1,0-0.3,0.1-0.5,0.2l-1,0.4l0.2-1.1l0,0c0.1-0.4,0.1-0.7,0.1-1s-0.1-0.6-0.3-0.6c-0.1-0.1-0.5-0.1-0.8,0s-0.7,0.3-0.9,0.4
				l-1.4,0.8l0.6-1.5l0,0c0.3-0.5,0.5-1.1,0.4-1.5c0-0.4-0.7-0.6-1.2-0.4c-0.5,0.1-1,0.5-1.4,0.9s-0.7,1-0.9,1.5l0,0l-0.8-0.4
				c0.4-0.7,0.6-1.8,0.1-1.9c-0.3-0.1-0.7-0.1-1.1,0.1C8.4,74.5,8,74.7,7.7,75c-1.4,1-2.2,2.7-2.7,4.4c-0.1,0.4-0.2,0.9-0.2,1.3
				s0,0.9,0.1,1c0.5,0.6,1.3,1,2.1,1.4C8.7,83.9,10.4,84.6,12.1,85.1z"/>
			<path class="st2" d="M17.8,83.3c2.3,1.9,5.1,3.5,7.8,4.8c2.8,1.3,5.7,2.4,8.6,3.3c5.9,1.8,12.1,2.7,18.3,2.9
				c6.2,0.2,12.4-0.4,18.5-1.4c6.1-1.1,12.1-2.7,17.9-4.8l0.2,0.7c-5.9,2-11.9,3.6-18.1,4.6c-6,1.1-12.3,1.6-18.5,1.4
				c-6.2-0.1-12.5-1-18.4-2.8c-3-0.9-5.9-2-8.8-3.3c-2.8-1.3-5.6-2.9-8-4.8L17.8,83.3z"/>
			<path class="st4" d="M89,88.1c-5.9,2-11.9,3.7-18,4.7c-6.1,1.1-12.3,1.6-18.5,1.4s-12.4-1.1-18.3-2.9c-3-0.9-5.9-2-8.7-3.3
				c-2.6-1.3-5.1-2.7-7.4-4.5C18,83.7,18,83.8,17.9,84c2.3,1.8,4.8,3.2,7.4,4.4c2.8,1.3,5.7,2.4,8.7,3.3c6,1.8,12.2,2.6,18.4,2.8
				c6.2,0.2,12.5-0.3,18.6-1.4s12.2-2.7,18.1-4.7L89,88.1z"/>
			<path class="st2" d="M17.5,84.1c5.2,3.2,10.9,5.4,16.8,7s12,2.5,18.1,2.7s12.2-0.3,18.2-1.4c3-0.6,6-1.3,8.9-2.1
				c2.9-0.9,5.8-1.9,8.6-3l0.3,0.7c-2.9,1.1-5.8,2-8.7,2.8c-2.9,0.8-5.9,1.5-9,2.1c-6,1.1-12.2,1.5-18.3,1.3s-12.2-1-18.2-2.6
				c-3-0.8-5.9-1.7-8.7-2.8c-2.9-1.1-5.7-2.3-8.3-3.9L17.5,84.1z"/>
			<path class="st2" d="M18.1,83.1c2.7,1.4,5.4,2.7,8.1,3.8c2.7,1.2,5.6,2.2,8.4,3.1c5.7,1.8,11.6,2.9,17.6,3.4
				c1.5,0.1,3,0.2,4.5,0.2s3,0,4.5-0.1c3-0.1,6-0.4,9-0.9c5.9-0.9,11.7-2.6,17.5-4.4c-5.5,2.4-11.4,3.9-17.4,4.8c-3,0.5-6,0.7-9,0.9
				c-1.5,0.1-3,0.1-4.5,0.1s-3,0-4.5-0.1c-6-0.3-12-1.4-17.8-3.1C28.7,89,23,86.7,18.1,83.1z"/>
			<path class="st2" d="M4.8,81.7c0,0.2,0.2,0.6,0.5,0.9s0.6,0.6,1,0.9C7,84,7.8,84.5,8.5,85c1.6,0.9,3.2,1.7,4.9,2.5
				c3.3,1.5,6.8,2.6,10.3,3.7c7,2,14.2,3.4,21.5,4.1s14.6,0.8,21.9,0.2c7.3-0.5,14.5-1.7,21.6-3.5l0.2,0.7
				c-7.2,1.7-14.4,2.8-21.7,3.3s-14.7,0.4-22-0.4c-7.3-0.7-14.5-2-21.6-4c-3.5-1-7-2.2-10.4-3.6c-1.7-0.7-3.4-1.5-5-2.4
				c-0.8-0.5-1.6-0.9-2.3-1.5c-0.4-0.3-0.7-0.6-1.1-0.9C4.4,82.7,4,82.3,4,81.6L4.8,81.7z"/>
			<path class="st2" d="M5.3,82.3c1.2,1.3,2.7,2.4,4.1,3.4c1.5,1,3.1,1.9,4.7,2.7c3.3,1.6,6.7,2.8,10.2,3.8c7,2,14.3,3.2,21.5,3.8
				c7.3,0.6,14.6,0.7,21.9,0.2c7.3-0.5,14.5-1.7,21.4-4l0.2,0.7c-3.5,1.1-7.1,1.9-10.7,2.5s-7.3,1-10.9,1.2
				c-7.3,0.5-14.6,0.2-21.9-0.4s-14.6-1.7-21.6-3.7c-3.5-1-7-2.2-10.3-3.8c-1.7-0.8-3.3-1.6-4.9-2.6s-3.1-2-4.4-3.5L5.3,82.3z"/>
			<path class="st7" d="M88.1,87.1c-5.7,2.3-11.5,4-17.5,5.1s-12.1,1.6-18.2,1.4s-12.2-1.1-18.1-2.7c-5.7-1.5-11.4-3.7-16.5-6.7
				c-0.1,0.1-0.2,0.3-0.3,0.4c2.5,1.5,5.2,2.7,7.9,3.7c2.9,1.1,5.8,2.1,8.7,2.8c5.9,1.5,12,2.4,18.1,2.6s12.3-0.2,18.3-1.3
				c6-1.1,11.9-2.8,17.7-5L88.1,87.1z"/>
			<path class="st7" d="M70.2,92.6c-5.9,0.9-12,1.2-18,0.7s-11.9-1.6-17.6-3.4c-2.9-0.9-5.7-1.9-8.4-3.1c-2.7-1.1-5.3-2.4-7.9-3.8
				l0,0c4.9,3.4,10.5,5.7,16.1,7.4c5.8,1.7,11.8,2.8,17.8,3.2c6,0.3,12.1,0.2,18-0.8c6-0.9,11.8-2.4,17.4-4.7
				C82,90.1,76.2,91.7,70.2,92.6z"/>
			<path class="st4" d="M88.4,92.4L88.4,92.4L88.4,92.4c-0.1-0.1-0.1-0.1-0.1-0.2s-0.1-0.1-0.1-0.2c-6.9,1.7-14,2.8-21.1,3.3
				c-7.3,0.5-14.6,0.5-21.9-0.3c-7.3-0.7-14.5-2.1-21.5-4.1c-3.5-1-7-2.2-10.3-3.7c-1.7-0.7-3.3-1.5-4.9-2.4c-0.5-0.3-1.1-0.7-1.6-1
				c0,0,0,0-0.1,0c-0.2-0.1-0.5-0.2-0.8-0.4c-0.2-0.1-0.4-0.2-0.6-0.4c-0.1,0-0.1-0.1-0.2-0.1c-0.1-0.1-0.3-0.1-0.4-0.2l0,0
				c0.3,0.3,0.7,0.7,1.1,0.9c0.7,0.6,1.5,1.1,2.3,1.5c1.6,0.9,3.3,1.7,5,2.4c3.4,1.4,6.9,2.6,10.4,3.6c7.1,2,14.3,3.3,21.6,4
				s14.6,0.8,22,0.3C74.3,95.2,81.4,94.1,88.4,92.4C88.4,92.5,88.4,92.5,88.4,92.4z"/>
			<path class="st7" d="M88.4,92.4c-6.6,2.1-13.6,3.2-20.6,3.7c-7.3,0.5-14.6,0.3-21.9-0.3C38.6,95.2,31.4,94,24.4,92
				c-3.5-1-7-2.2-10.2-3.8c-1.6-0.8-3.2-1.7-4.8-2.7C8.7,85,8,84.5,7.3,84c-0.1,0-0.3,0-0.4-0.1l0,0H6.8c-0.2-0.1-0.5-0.2-0.8-0.4
				c-0.2-0.1-0.3-0.2-0.5-0.3c1.1,1.1,2.4,1.9,3.6,2.7c1.6,1,3.2,1.8,4.8,2.6c3.3,1.6,6.8,2.8,10.3,3.8c7.1,2,14.3,3.1,21.6,3.7
				s14.6,0.8,21.9,0.4c3.7-0.2,7.3-0.6,10.9-1.2c3.4-0.6,6.8-1.3,10-2.3C88.7,92.7,88.5,92.6,88.4,92.4z"/>
			<path class="st2" d="M93.9,92.9c-1.1-0.2-2.1-0.4-3.1-0.7c-1-0.3-2-0.6-3-1.2l0.3-0.5c0.9,0.5,1.9,0.7,2.9,1c1,0.2,2,0.4,3.1,0.5
				L93.9,92.9z"/>
			<path class="st2" d="M92,93.8c-0.2,0-0.4,0-0.6-0.1c-1.1-0.2-3.1-0.8-3.6-1.9c-0.1-0.2-0.2-0.5-0.1-0.8c-0.2-0.2-0.4-0.5-0.5-0.9
				c0-0.3,0-0.6,0.3-1.1c0-0.4,0.1-1,0.7-1.4c0.2-0.1,0.5-0.1,0.7,0.2c0.1,0.2,0.1,0.5-0.2,0.7c-0.3,0.2-0.2,0.6-0.2,0.6
				c0,0.2,0,0.3-0.1,0.4c-0.2,0.2-0.2,0.4-0.2,0.4c0,0.2,0.3,0.4,0.3,0.5c0.2,0.1,0.3,0.4,0.2,0.6c0,0.1,0,0.1,0,0.3
				c0.3,0.5,1.6,1.1,2.9,1.4c0.4,0.1,0.8,0.1,0.9-0.1c0.1-0.1,0.1-0.1,0.1-0.1c0-0.3,0.3-0.5,0.5-0.5c0.4,0,0.6-0.1,0.8-0.2
				c0.3-0.3,0.3-0.7,0.3-0.7c0-0.2,0.1-0.4,0.4-0.5s0.5-0.2,0.6-0.4c0.2-0.4,0-0.9,0-0.9c-0.1-0.3,0-0.5,0.3-0.6s0.5,0,0.6,0.3
				c0,0.1,0.4,0.9,0,1.7c-0.1,0.3-0.4,0.6-0.9,0.8c-0.1,0.3-0.2,0.7-0.5,1S94,93,93.5,93c-0.1,0.1-0.2,0.3-0.3,0.4
				C92.8,93.7,92.5,93.8,92,93.8z"/>
			<path class="st2" d="M91.3,87.5c-0.1-0.4-0.2-0.6-0.6-1c-0.3-0.4-0.6-0.8-0.9-1.3s-0.4-1.1-0.1-1.6c0.2-0.5,0.6-0.8,1.1-1.1
				c-0.3,0.4-0.6,0.8-0.7,1.2c-0.1,0.4,0.1,0.8,0.3,1.2c0.3,0.4,0.6,0.7,1,1c0.3,0.3,0.9,0.8,1,1.4L91.3,87.5z"/>
			<path class="st2" d="M86.4,81.1c-0.5,0.3-0.9,0.9-1.1,1.4s-0.1,1.1,0.1,1.5c0.2,0.5,0.6,0.9,1.1,1.2c0.4,0.4,0.9,0.7,1.5,1
				l0.1,0.1l0.1,0.2c0.3,0.5,0.6,1.1,1,1.5c0.1,0.1,0.2,0.2,0.3,0.3c0.1,0.1,0.3,0.2,0.4,0.3c0.2,0.2,0.4,0.4,0.8,0.6
				c-0.3,0.3-0.8,0.2-1.1,0.1c-0.2-0.1-0.3-0.1-0.5-0.2s-0.4-0.2-0.5-0.3c-0.3-0.3-0.5-0.5-0.7-0.8s-0.4-0.6-0.5-0.9l0.2,0.2
				c-0.6-0.3-1.1-0.7-1.7-1.1c-0.5-0.4-1-1-1.3-1.7s-0.2-1.6,0.2-2.1C85.2,81.7,85.8,81.2,86.4,81.1z"/>
			<path class="st2" d="M55,50c-0.2,0.6-0.2,1.3,0,1.8c0.2,0.6,0.8,0.9,1.4,1.1c0.6,0.2,1.3,0.2,2,0.3s1.4,0.2,2.1,0.3
				c1.4,0.3,2.7,1.1,3.8,2c1.1,1,2,2,2.9,3.1c1.8,2.2,3.4,4.4,5.1,6.6c1.7,2.2,3.5,4.3,5.3,6.4l-0.2-0.1c1.1,0.5,2.1,1,3.1,1.9
				c0.8,0.8,1.7,1.5,2.6,2.2c1.8,1.4,3.6,2.8,5.6,3.7l0,0l0,0c0.2,0.1,0.8,0.3,1.3,0.4l1.6,0.3c1.1,0.2,2.1,0.4,3.2,0.9
				c0.5,0.2,1,0.4,1.6,0.9c0.5,0.5,0.7,1.1,0.9,1.6c0.3,1.1,0.4,2.3,0.2,3.4c-0.1,0.6-0.3,1.2-0.7,1.7c-0.1,0.1-0.2,0.3-0.4,0.4
				c-0.1,0.1-0.1,0.1-0.2,0.2c0,0-0.1,0.1-0.2,0.1c-0.3,0.1-0.5,0.2-0.8,0.3c-1,0.4-2.1,0.7-3.2,0.8c-0.3,0-0.6,0-0.9-0.1
				c-0.2,0-0.4-0.1-0.5-0.2c-0.2-0.2-0.3-0.4-0.3-0.7c0-0.1,0-0.3,0-0.5s0.1-0.3,0.1-0.5c0.1-0.3,0.3-0.6,0.6-0.8
				c1-0.7,2.2-0.8,3.2-0.7c-1,0.2-2.1,0.5-2.8,1.2c-0.3,0.4-0.4,0.7-0.4,1.2c0,0,0,0,0.2,0.1c0.2,0,0.4,0,0.7,0c1-0.1,2-0.4,3-0.8
				c0.2-0.1,0.5-0.2,0.7-0.3c0,0,0.1,0,0.1-0.1c0,0,0.1,0,0.1-0.1c0.1-0.1,0.1-0.1,0.2-0.2c0.2-0.3,0.4-0.8,0.5-1.3
				c0.2-1,0.1-2-0.2-2.9c-0.1-0.5-0.4-0.9-0.6-1.2c-0.2-0.3-0.8-0.5-1.2-0.7c-0.9-0.4-2-0.6-3-0.8l-1.6-0.3c-0.3,0-0.5-0.1-0.8-0.2
				s-0.6-0.1-0.9-0.4h0.1c-2.1-1.1-4-2.4-5.8-3.9c-0.9-0.7-1.8-1.5-2.6-2.3C79,73.5,78,73,77,72.5l0,0c-0.1,0-0.1-0.1-0.2-0.1
				c-1.8-2.1-3.5-4.3-5.2-6.5c-1.7-2.2-3.3-4.4-5.1-6.6c-1.7-2.1-3.5-4.4-6.1-5c-0.6-0.2-1.3-0.3-2-0.4c-0.7-0.1-1.4-0.1-2.1-0.4
				c-0.7-0.2-1.4-0.8-1.7-1.5s-0.2-1.5,0-2.2c0-0.1,0.2-0.2,0.3-0.2C55,49.7,55.1,49.8,55,50L55,50z"/>
			<path class="st2" d="M95,91.6c-1.3-0.1-2.5-0.3-3.7-0.6c-1.2-0.4-2.4-0.9-3.4-1.5l0.3-0.4c1.1,0.6,2.2,1,3.4,1.2
				c1.2,0.3,2.4,0.4,3.5,0.4L95,91.6z"/>
			<path class="st2" d="M90.8,85.6c0.9-0.2,1.8-0.3,2.8-0.3c0.9,0,1.9,0,2.9,0.6c0.5,0.3,0.9,0.8,0.9,1.4c0,0.5,0,0.9,0,1.4l0.1,2.7
				c0.1,3.6,0.2,7.1,0.2,10.7c0,0.9,0,1.7-0.1,2.7c-0.2,1.1-0.9,1.9-1.7,2.4c-1.7,1-3.6,1.2-5.4,1.2c-0.9,0-1.8-0.1-2.7-0.2
				c-0.9-0.2-1.8-0.4-2.7-0.9c-0.2-0.2-0.4-0.3-0.6-0.6c-0.2-0.3-0.2-0.7,0-1c0.1-0.2,0.3-0.5,0.4-0.6c0.2-0.2,0.4-0.3,0.6-0.5
				c0.9-0.5,1.9-0.5,2.8-0.4s1.8,0.2,2.7,0.5c0.4,0.1,0.9,0.2,1.3,0.4c0.2,0.1,0.4,0.2,0.7,0.3c0.2,0.1,0.4,0.2,0.6,0.3
				c1.6,0.6,3.3,1.1,5,1.1c0.8,0,1.7-0.2,2.2-0.8c0.3-0.3,0.5-0.6,0.4-0.8c-0.1-0.2-0.5-0.4-0.8-0.6c-1.6-0.5-3.4-0.5-5.1-0.1
				s-3.3,1.2-5,1.8c-1.7,0.7-3.4,1.3-5.2,1.6c-0.9,0.2-1.8,0.2-2.7,0.2c-0.9,0-1.8-0.1-2.7-0.6c-0.4-0.2-0.9-0.6-1.1-1.1
				c-0.2-0.6,0.1-1.1,0.4-1.5c0.6-0.8,1.6-1.2,2.5-1.3c0.5,0,1,0,1.4,0.2c0.4,0.1,0.9,0.3,1.3,0.4c0.8,0.3,1.6,0.7,2.5,1.1
				c1.6,0.8,3.2,1.5,4.9,2.1c1.7,0.6,3.4,1,5.1,0.9c0.9-0.1,1.7-0.2,2.6-0.5c0.4-0.1,0.8-0.3,1.1-0.6c0.3-0.2,0.5-0.6,0.5-0.9
				c-0.1-0.3-0.4-0.6-0.8-0.7c-0.4-0.2-0.8-0.3-1.2-0.4c-0.9-0.2-1.7-0.2-2.6,0c-1.7,0.3-3.3,1.1-5,1.8c-1.6,0.7-3.3,1.4-5.1,1.7
				c-0.9,0.2-1.8,0.3-2.8,0.1c-0.5-0.1-0.9-0.3-1.3-0.6c-0.4-0.3-0.7-0.8-0.8-1.3c-0.1-1.1,0.6-2,1.3-2.5c0.8-0.6,1.6-0.9,2.5-1.2
				c1.8-0.5,3.6-0.7,5.4-0.5c1.8,0.1,3.6,0.6,5.2,1.5c0.8,0.5,1.5,1.1,1.9,2c0.2,0.5,0.2,1,0,1.5s-0.6,0.8-1,1.1
				c-0.8,0.5-1.7,0.8-2.6,1s-1.8,0.3-2.7,0.4c-1.8,0.1-3.6,0.2-5.4,0.1s-3.6-0.2-5.3-0.2c-1.8,0-3.5,0.3-5.3,0.6l-0.1-0.6
				c1.8-0.4,3.6-0.6,5.4-0.6c1.8-0.1,3.6,0.1,5.4,0.2s3.5,0.1,5.3-0.1c0.9-0.1,1.8-0.2,2.6-0.4c0.8-0.2,1.7-0.5,2.4-0.9
				c0.7-0.5,1.1-1.2,0.8-2c-0.3-0.7-1-1.3-1.7-1.8c-1.5-0.9-3.2-1.3-5-1.5c-1.7-0.1-3.5,0-5.2,0.5c-0.8,0.2-1.6,0.6-2.3,1.1
				c-0.7,0.5-1.2,1.2-1.1,2s0.9,1.3,1.7,1.4c0.8,0.2,1.7,0.1,2.6-0.1c1.7-0.3,3.4-1,5-1.7s3.3-1.5,5.1-1.8c0.9-0.2,1.9-0.1,2.8,0
				c0.5,0.1,0.9,0.2,1.3,0.4c0.4,0.2,0.9,0.5,1.1,1.1c0.1,0.6-0.3,1.1-0.6,1.4c-0.4,0.3-0.8,0.5-1.3,0.7c-0.9,0.3-1.8,0.4-2.7,0.5
				c-1.8,0.1-3.6-0.3-5.3-0.9c-1.7-0.6-3.3-1.3-5-2.1c-0.8-0.4-1.6-0.7-2.4-1.1c-0.8-0.3-1.6-0.6-2.5-0.6c-0.8,0.1-1.6,0.5-2.1,1.1
				c-0.2,0.3-0.4,0.7-0.3,1s0.4,0.6,0.7,0.7c0.7,0.3,1.6,0.4,2.5,0.5c0.9,0,1.7-0.1,2.6-0.2c1.7-0.3,3.4-0.9,5-1.6
				c1.7-0.7,3.3-1.5,5.1-1.9c0.9-0.2,1.8-0.3,2.7-0.3c0.9,0,1.8,0.1,2.8,0.4c0.4,0.2,1,0.4,1.3,1c0.1,0.3,0.1,0.7-0.1,0.9
				c-0.1,0.3-0.3,0.5-0.5,0.6c-0.8,0.7-1.8,0.9-2.7,1c-1.9,0-3.7-0.4-5.4-1.1c-0.2-0.1-0.4-0.2-0.6-0.3c-0.2-0.1-0.4-0.2-0.6-0.2
				c-0.4-0.1-0.8-0.3-1.2-0.4c-0.8-0.2-1.7-0.4-2.6-0.4c-0.8,0-1.7,0-2.4,0.4c-0.2,0.1-0.3,0.2-0.4,0.3c-0.1,0.1-0.2,0.2-0.3,0.4
				c-0.1,0.1,0,0.4,0.4,0.6c0.6,0.4,1.5,0.6,2.4,0.8c0.9,0.1,1.7,0.2,2.6,0.2c1.7,0,3.5-0.3,4.9-1.1c0.7-0.4,1.2-1,1.3-1.8
				c0.1-0.8,0-1.7,0-2.6c0-3.6-0.1-7.1-0.2-10.7l-0.1-2.7l-0.1-1.3c0-0.3-0.2-0.5-0.5-0.7c-0.6-0.3-1.5-0.4-2.3-0.4
				c-0.9,0-1.7,0.1-2.6,0.3L90.8,85.6z"/>
			<path class="st4" d="M84,103.7c2.9-1.5,6.4-1.6,9.6-0.7c0.8,0.2,1.6,0.6,2.3,1c0.7,0.5,1.4,1,1.8,1.8c0.2,0.4,0.3,0.9,0.2,1.3
				c-0.1,0.5-0.4,0.8-0.7,1.1c-0.7,0.6-1.5,0.9-2.3,1.1c-1.6,0.4-3.2,0.5-4.8,0.6c-1.6,0.1-3.2,0-4.9-0.1c-1.6-0.1-3.2-0.2-4.8-0.1
				c-1.6,0.1-3.2,0.3-4.8,0.5c1.6-0.4,3.2-0.7,4.8-0.8c1.6-0.1,3.3,0,4.9,0.1s3.2,0.1,4.8,0.1c1.6-0.1,3.2-0.2,4.8-0.6
				c0.8-0.2,1.5-0.6,2.1-1.1s0.7-1.3,0.4-1.9c-0.3-0.7-1-1.2-1.6-1.6c-0.7-0.4-1.4-0.7-2.2-0.9c-1.5-0.5-3.1-0.7-4.7-0.6
				C87.1,103,85.5,103.2,84,103.7z"/>
			<path class="st4" d="M91.1,107.1c1.4,0.3,2.9,0.7,4.3,0.8c1.4,0.1,2.9-0.1,4.2-0.6c0.6-0.2,1.3-0.7,1.3-1.2s-0.8-0.9-1.4-1.1
				c-1.4-0.4-2.8-0.4-4.2,0c-1.4,0.4-2.8,1-4.1,1.6c-1.3,0.6-2.7,1.1-4.2,1.5c-1.4,0.3-3,0.6-4.4-0.1c-0.7-0.3-1.2-1.2-1-1.9
				c0.2-0.8,0.7-1.4,1.4-1.7c-0.6,0.5-1,1.1-1.1,1.8c-0.1,0.7,0.3,1.3,1,1.7c1.3,0.7,2.8,0.4,4.2,0.1c2.9-0.7,5.4-2.2,8.3-3.1
				c1.4-0.4,3-0.6,4.5-0.2c0.4,0.1,0.7,0.2,1.1,0.5c0.3,0.2,0.7,0.6,0.7,1.1s-0.3,0.9-0.6,1.2c-0.3,0.3-0.7,0.5-1,0.6
				c-1.5,0.5-3,0.7-4.5,0.6C93.8,108.3,92.4,107.8,91.1,107.1z"/>
			<path class="st4" d="M81.5,107.4c-0.7,0.1-1.4,0-2-0.4c-0.3-0.2-0.6-0.5-0.8-0.9c-0.1-0.4-0.1-0.8,0.1-1.2
				c0.8-1.3,2.4-1.9,3.7-1.5c1.3,0.4,2.5,0.9,3.7,1.4c1.2,0.6,2.4,1.1,3.6,1.8c-1.3-0.3-2.5-0.9-3.7-1.5c-0.6-0.3-1.2-0.6-1.8-0.8
				c-0.6-0.3-1.2-0.5-1.9-0.6c-0.7-0.1-1.3,0-1.8,0.3c-0.6,0.2-1.1,0.7-1.3,1.2c-0.3,0.5-0.1,1,0.4,1.4
				C80.2,106.9,80.9,107.1,81.5,107.4z"/>
			<path class="st4" d="M88,106.5c-0.8,0.5-1.7,0.8-2.6,1s-1.9,0.2-2.8,0l2.7-0.5C86.2,106.8,87.1,106.6,88,106.5z"/>
			<path class="st4" d="M96.7,103.6c-0.6,0.2-1.3,0.3-1.9,0.5s-1.2,0.4-1.8,0.7c-1.2,0.5-2.4,1-3.7,1.2c1.2-0.7,2.3-1.2,3.6-1.7
				C94.1,103.8,95.4,103.5,96.7,103.6z"/>
			<path class="st4" d="M101.3,105.7c0.2-0.4,0.3-0.8,0-1.1c-0.3-0.2-0.7-0.4-1.1-0.5c-0.8-0.2-1.7-0.4-2.6-0.6
				c0.4-0.1,0.9-0.1,1.3-0.1c0.5,0,0.9,0.1,1.4,0.2c0.4,0.1,0.9,0.3,1.2,0.8c0.2,0.2,0.2,0.5,0.1,0.8
				C101.6,105.4,101.5,105.6,101.3,105.7z"/>
			<path class="st4" d="M86.2,104.4c1.2-0.4,2.5-0.4,3.7-0.2c1.2,0.2,2.5,0.5,3.6,1.1c1.1,0.5,2.3,0.8,3.5,1s2.5,0.3,3.6-0.2
				c-1.1,0.7-2.4,0.7-3.7,0.6c-1.3-0.1-2.5-0.5-3.6-1c-1.1-0.6-2.3-0.9-3.5-1.2C88.7,104.4,87.4,104.2,86.2,104.4z"/>
			<path class="st4" d="M95.6,106.6c-0.9,0.6-1.9,1-3,1.2s-2.1,0.3-3.2,0.2c-1.1-0.1-2.1-0.2-3.2-0.6c-0.5-0.2-1-0.4-1.4-0.8
				c-0.2-0.2-0.3-0.5-0.3-0.8c0.1-0.3,0.2-0.5,0.4-0.7c-0.1,0.2-0.3,0.5-0.3,0.7s0.1,0.5,0.3,0.6c0.4,0.3,0.9,0.5,1.4,0.6
				c1,0.3,2,0.4,3.1,0.5c1,0.1,2.1,0,3.1-0.1C93.6,107.3,94.7,107.1,95.6,106.6z"/>
			<path class="st4" d="M97.1,104.9c0.1,0.2,0.1,0.3,0,0.5c0,0.2-0.1,0.3-0.2,0.4s-0.2,0.2-0.3,0.3c-0.1,0.1-0.3,0.1-0.4,0.2
				c0.1-0.3,0.2-0.5,0.3-0.8C96.7,105.3,96.8,105.1,97.1,104.9z"/>
			<path class="st2" d="M91.5,86.8c0.7-0.8,1.7-1.3,2.7-1.6c1-0.3,2.2-0.3,3.2,0.3C95.3,85.2,93.5,86,91.5,86.8z"/>
			<path class="st4" d="M90.9,85.9c0.9-0.4,2-0.5,3-0.5c0.5,0,1,0,1.5,0.1s1.1,0.3,1.4,0.8c0.2,0.2,0.3,0.5,0.3,0.8v0.8v1.5
				c0,1,0,2,0,3c0,2,0.1,4,0.1,6s0.1,4-0.2,6c-0.1-2-0.1-4-0.1-6s0-4-0.1-6c-0.1-1-0.1-2-0.2-3l-0.1-1.5v-0.7c0-0.2-0.1-0.4-0.2-0.5
				c-0.2-0.3-0.7-0.5-1.1-0.6c-0.5-0.1-0.9-0.2-1.4-0.2C92.9,85.8,91.9,85.9,90.9,85.9z"/>
			<path class="st2" d="M18,82.1c5.1,3.1,10.9,5.2,16.6,6.8c5.8,1.6,11.8,2.5,17.8,2.9c12,0.7,24.2-1.2,35.6-5l0.1,0.3
				c-5.7,1.9-11.6,3.3-17.6,4.1c-6,0.9-12,1.1-18.1,0.8c-6-0.3-12-1.2-17.9-2.8c-5.8-1.6-11.6-3.7-16.8-6.8L18,82.1z"/>
			<path class="st4" d="M87.8,92.3C74.6,95,61,96.1,47.6,95c-6.7-0.6-13.4-1.6-20-3.3c-3.3-0.8-6.5-1.8-9.7-3s-6.3-2.5-9.2-4.2
				l0.2-0.2c2.9,1.7,6,3,9.2,4.2s6.4,2.2,9.6,3c6.5,1.7,13.2,2.8,19.9,3.3c13.4,1,27-0.2,40.1-3L87.8,92.3z"/>
			<path class="st8" d="M17.1,85"/>
			<path class="st2" d="M53.9,92.2c-24,0-36.7-6.9-36.9-7l0.2-0.4c0.2,0.1,25.2,13.6,71.6,2.5l0.1,0.5C75.4,91,63.7,92.2,53.9,92.2z
				"/>
			<path class="st2" d="M4.7,82.1c3.1,1.8,6.5,3.3,9.9,4.7c3.4,1.3,6.8,2.5,10.4,3.5c7,2,14.2,3.4,21.4,4.2
				c14.5,1.6,29.2,0.9,43.6-1.8V93c-14.4,2.7-29.1,3.4-43.7,1.8C39,94,31.8,92.6,24.8,90.7c-3.5-1-7-2.1-10.4-3.5
				c-3.4-1.3-6.8-2.8-10-4.6L4.7,82.1z"/>
		</g>
		<g>
			<path class="st9" d="M35,103.8c-0.4-1.3-2.3-1.6-2.3-1.6l-28.2,8.9c0,0,10,1.8,25.2-4l-1.6-1.2L35,103.8z"/>
			<path class="st2" d="M34.4,103.6c0-0.1-0.1-0.1-0.1-0.2c-0.1-0.2-0.3-0.3-0.5-0.4c-0.4-0.2-0.8-0.4-1.3-0.5l0,0h0.2l-28.3,8.7
				v-0.3l0,0c2.1,0.3,4.3,0.3,6.4,0.1c2.1-0.1,4.3-0.4,6.4-0.8c4.2-0.8,8.3-2,12.3-3.6l0,0l-0.1,0.6l-1.6-1.2l-0.6-0.4l0.7-0.2
				L34.4,103.6z M35.4,104.1l-7.4,2.1l0.1-0.6l1.6,1.2l0.5,0.4l-0.6,0.2l0,0c-4,1.5-8.2,2.7-12.4,3.4c-2.1,0.4-4.3,0.6-6.4,0.7
				c-2.2,0.1-4.3,0.1-6.5-0.2l0,0l-0.5-0.1l0.5-0.2l28.2-9.1h0.1h0.1l0,0c0.6,0.1,1,0.3,1.5,0.6c0.2,0.1,0.5,0.3,0.7,0.5
				s0.4,0.5,0.4,0.8L35.4,104.1z"/>
		</g>
		<path class="st8" d="M118.6,45.1"/>
	</g>
</g>
</svg>
