<?xml version="1.0" encoding="utf-8"?>
<!DOCTYPE svg PUBLIC "-//W3C//DTD SVG 1.1//EN" "http://www.w3.org/Graphics/SVG/1.1/DTD/svg11.dtd">
<svg version="1.1" id="Layer_1" xmlns="http://www.w3.org/2000/svg" xmlns:xlink="http://www.w3.org/1999/xlink" x="0px" y="0px"
width="83.405px" height="81.98px" viewBox="0 0 83.405 81.98" enable-background="new 0 0 83.405 81.98" xml:space="preserve">
<path fill="#c7a270" d="M0.108,68.812c0.04,0.117,0.089,0.232,0.149,0.349C0.196,69.044,0.148,68.929,0.108,68.812z"/>
<path fill="#c7a270" d="M29.891,79.323c-0.003-0.017-0.004-0.059-0.008-0.053c-0.007,0.013-0.001,0.044-0.005,0.041
c-0.004-0.001-0.01-0.009-0.018-0.024c-0.016-0.027-0.047-0.072-0.08-0.121c-0.069-0.099-0.168-0.206-0.281-0.303
c-0.225-0.195-0.494-0.37-0.778-0.515c-0.571-0.291-1.218-0.475-1.864-0.529c-0.659-0.055-1.328,0.018-1.967,0.218
c-0.318,0.102-0.63,0.231-0.908,0.406c-0.138,0.093-0.266,0.193-0.367,0.307c-0.051,0.055-0.098,0.117-0.129,0.176
c-0.013,0.031-0.026,0.058-0.031,0.085l-0.002,0.02c0,0.001-0.002,0.013-0.002,0.004l0.002,0.015v0.065
c0.002,0.295,0.183,0.563,0.45,0.739c0.266,0.178,0.587,0.289,0.913,0.376c0.66,0.159,1.353,0.224,2.045,0.251
c0.691,0.018,1.395,0.044,2.053-0.079c0.324-0.067,0.642-0.165,0.857-0.353c0.103-0.103,0.153-0.237,0.153-0.37
c0.003-0.137-0.018-0.262-0.031-0.395L29.891,79.323z M30.845,79.361c-0.041,0.217-0.143,0.436-0.289,0.618
c-0.146,0.183-0.328,0.321-0.5,0.435c-0.344,0.234-0.723,0.324-1.084,0.369c-0.725,0.077-1.426,0.039-2.127,0.004
c-0.701-0.034-1.406-0.09-2.104-0.265c-0.346-0.088-0.695-0.208-1.011-0.417c-0.156-0.107-0.303-0.246-0.411-0.414
c-0.106-0.171-0.168-0.368-0.172-0.575v-0.064l-0.001-0.018c0.001-0.02,0.002-0.02,0.003-0.03l0.004-0.044
c0.012-0.059,0.027-0.112,0.049-0.162c0.045-0.101,0.101-0.187,0.162-0.26c0.123-0.151,0.265-0.275,0.414-0.386
c0.295-0.221,0.617-0.397,0.954-0.537c0.669-0.285,1.404-0.436,2.14-0.443c0.748-0.008,1.488,0.128,2.191,0.404
c0.354,0.139,0.695,0.311,1.022,0.541c0.161,0.119,0.319,0.248,0.472,0.423c0.076,0.087,0.144,0.187,0.205,0.315
c0.031,0.064,0.055,0.139,0.072,0.219c0.01,0.04,0.016,0.117,0.018,0.172c0,0.051-0.004,0.053-0.006,0.077L30.845,79.361z"/>
<path fill="#c7a270" d="M12.253,75.964c-0.047,0.191-0.047,0.326,0.011,0.457c0.064,0.135,0.21,0.264,0.376,0.369
c0.343,0.216,0.758,0.354,1.168,0.482c0.409,0.131,0.833,0.221,1.252,0.225c0.208,0.003,0.418-0.027,0.601-0.104
c0.183-0.075,0.314-0.222,0.361-0.399c0.053-0.109-0.053-0.321-0.172-0.486c-0.123-0.168-0.274-0.316-0.438-0.443
c-0.331-0.254-0.705-0.424-1.101-0.498c-0.382-0.078-0.797-0.07-1.188,0.027c-0.197,0.053-0.388,0.117-0.562,0.197
c-0.087,0.045-0.169,0.09-0.234,0.135c-0.03,0.022-0.059,0.046-0.072,0.064c-0.006,0.006-0.01,0.011-0.01,0.01
c-0.004,0.001,0.01-0.025,0.01-0.039c0-0.006-0.01,0.026-0.013,0.039L12.253,75.964z M11.61,75.806
c0.006-0.023,0.004-0.023,0.016-0.059c0.015-0.043,0.038-0.1,0.053-0.125c0.031-0.061,0.063-0.11,0.095-0.152
c0.062-0.088,0.126-0.148,0.19-0.205c0.124-0.108,0.246-0.189,0.369-0.254c0.245-0.129,0.491-0.203,0.736-0.242
c0.493-0.078,0.972-0.047,1.432,0.094c0.449,0.145,0.866,0.402,1.214,0.737c0.178,0.171,0.341,0.36,0.475,0.59
c0.068,0.111,0.128,0.233,0.172,0.379c0.023,0.074,0.04,0.152,0.046,0.247c0.004,0.049,0.004,0.099-0.006,0.154l-0.008,0.043
c-0.003,0.012-0.001,0.006-0.007,0.031l-0.004,0.01l-0.013,0.048c-0.057,0.171-0.146,0.312-0.259,0.429
c-0.113,0.112-0.238,0.188-0.362,0.236c-0.248,0.101-0.486,0.115-0.717,0.121c-0.46,0-0.898-0.084-1.335-0.158
c-0.432-0.09-0.866-0.162-1.31-0.348c-0.219-0.1-0.451-0.238-0.632-0.516c-0.088-0.139-0.152-0.314-0.172-0.5
c-0.023-0.184-0.009-0.363,0.022-0.529L11.61,75.806z"/>
<path fill="#c7a270" d="M21.694,78.144l-0.004-0.023c-0.001-0.015,0-0.051-0.002-0.047c-0.006,0.01,0,0.035,0,0.031
c0-0.004-0.004-0.017-0.006-0.033c-0.008-0.033-0.031-0.079-0.057-0.123c-0.051-0.096-0.124-0.197-0.206-0.289
c-0.165-0.182-0.362-0.344-0.571-0.48c-0.418-0.273-0.889-0.449-1.362-0.507c-0.482-0.06-0.972,0.003-1.44,0.175
c-0.232,0.087-0.459,0.202-0.658,0.362c-0.196,0.15-0.399,0.366-0.377,0.555c-0.003,0.241,0.104,0.472,0.289,0.632
c0.179,0.164,0.408,0.275,0.644,0.361c0.472,0.168,0.977,0.246,1.48,0.289c0.507,0.045,1.021,0.08,1.501-0.004
c0.234-0.047,0.477-0.117,0.622-0.297C21.681,78.573,21.695,78.365,21.694,78.144z M22.353,78.182
c-0.035,0.19-0.098,0.391-0.197,0.563c-0.1,0.174-0.234,0.309-0.369,0.408c-0.275,0.19-0.551,0.276-0.819,0.309
c-0.27,0.036-0.532,0.031-0.793,0.018c-0.259-0.015-0.518-0.032-0.773-0.056c-0.515-0.051-1.032-0.114-1.546-0.289
c-0.254-0.094-0.511-0.211-0.747-0.416c-0.116-0.103-0.226-0.238-0.304-0.402c-0.081-0.17-0.124-0.361-0.122-0.563l0.002-0.06
v-0.013c0.002-0.026,0.002-0.022,0.003-0.034l0.006-0.045c0.01-0.062,0.027-0.119,0.046-0.164
c0.039-0.096,0.087-0.174,0.136-0.242c0.101-0.137,0.21-0.246,0.324-0.342c0.229-0.189,0.474-0.336,0.727-0.456
c0.504-0.229,1.051-0.34,1.588-0.317c0.547,0.025,1.084,0.174,1.588,0.451c0.251,0.138,0.494,0.307,0.72,0.528
c0.114,0.111,0.228,0.235,0.329,0.396c0.051,0.078,0.1,0.166,0.143,0.277c0.021,0.058,0.041,0.12,0.053,0.196
c0.008,0.031,0.012,0.097,0.014,0.146c-0.002,0.042-0.004,0.048-0.006,0.071L22.353,78.182z"/>
<path fill="#c7a270" d="M83.21,33.48c-0.26-0.55-0.76-0.85-1.41-0.85c-0.07,0-0.16,0.01-0.24,0.02c-1.8,0.2-2.93,1.97-3.39,3.24
c-0.44-0.74-1.18-1.46-2.43-1.81c-0.05-0.02-0.11-0.02-0.16-0.04c0,0-0.01,0-0.02,0c-0.07-0.03-0.22-0.06-0.32-0.08
c-0.11-0.02-0.22-0.03-0.34-0.04c-0.19-0.01-0.4,0.01-0.61,0.07c-0.09-0.09-0.19-0.18-0.25-0.23c-0.36-0.31-0.71-0.52-1.04-0.62
c-0.28-0.11-0.63-0.18-0.99-0.1c-0.18,0.04-0.33,0.11-0.47,0.2c-0.63-0.89-1.42-1.05-1.9-1.05c-0.33,0-0.55,0.07-0.6,0.08
c-0.01,0.01-0.03,0.02-0.05,0.02c-0.03,0.02-2.36,1.09-3.79,1.7c-1.16,0.49-2.32,1.57-2.21,2.6c0.03,0.27,0.16,0.68,0.65,0.99
c-0.16,0.09-0.31,0.21-0.42,0.34c-0.26,0.3-0.37,0.68-0.31,1.07c0.09,0.59,0.55,0.87,1,1.15c0.82,0.5,1.95,1.2,2.17,4.28
c0.25,3.52,1.49,4.32,2.64,4.8c0.19,0.08,0.37,0.16,0.43,0.22c0.07,0.99-2.91,6.82-5.35,10.1c-0.47,0.64-0.86,1.29-1.19,1.94
c-0.03,0.04-0.06,0.08-0.09,0.13c-0.45,0.73-0.84,1.52-1.1,2.34c-0.07,0.21-0.12,0.42-0.18,0.63c-0.05,0.21-0.1,0.42-0.11,0.64
c-0.01,0.1,0,0.2,0,0.31c0,0.02-0.01,0.05-0.02,0.07c-1.3-0.53-3.77-1.66-6.11-3.24c-1.7-1.14-3.26-2.82-4.64-4.3
c-1.45-1.56-2.71-2.91-3.88-3.41c-0.9-0.38-1.81-0.6-2.61-0.79c-0.96-0.23-1.87-0.44-2.11-0.85c-0.3-0.52,0.08-1.32,0.32-1.71
c0.63-0.32,1.32-0.62,2.05-0.94c0.56-0.25,1.15-0.51,1.77-0.8c0.12-0.06,0.25-0.11,0.38-0.16c0.99-0.44,1.98-0.93,2.93-1.48
c0.96-0.54,1.89-1.16,2.76-1.83c0.9-0.69,1.72-1.45,2.47-2.28c0.76-0.82,1.44-1.71,2.05-2.65c0.3-0.46,0.59-0.94,0.85-1.44
c0.14-0.24,0.26-0.49,0.38-0.75c0.12-0.26,0.23-0.5,0.35-0.8l0.16-0.45l-0.24-0.31c-0.17-0.23-0.32-0.4-0.49-0.59
s-0.34-0.36-0.51-0.54c-0.31-0.29-0.62-0.58-0.95-0.84c-0.65-0.6-1.45-1.22-2.39-1.71c-0.12-0.06-0.24-0.12-0.35-0.18
c0.38-0.49,0.54-1.13,0.42-1.84c-0.19-1.14-1.13-2.42-2.37-2.57c-1.3-0.15-2.33-1.07-2.94-1.78c0.48-0.13,0.79-0.35,0.83-0.38
c0.2-0.15,0.3-0.4,0.24-0.64c-0.07-0.24-0.27-0.42-0.51-0.45c-0.92-0.13-1.18-0.39-1.7-0.91c-0.32-0.32-0.72-0.73-1.35-1.17
C45.16,23.28,44.21,23,43.18,23c-0.22,0-0.42,0.01-0.59,0.03c0.19-1,0.66-2.58,1.83-3.89c0.25,0.33,0.48,0.67,0.69,1.03
c1.29,2.19,3.61,3.72,6.16,4.16c0.1,0.02,0.2,0.04,0.29,0.06c1.04,0.16,2.13,0.16,3.18-0.09c0.52-0.12,1.03-0.29,1.52-0.51
c0.12-0.05,0.25-0.11,0.37-0.18c0.14-0.07,0.25-0.13,0.38-0.21c0.23-0.15,0.46-0.32,0.67-0.5c0.86-0.72,1.48-1.64,1.92-2.62
c0.44-0.99,0.67-2.05,0.7-3.12c0.01-0.14,0.01-0.27,0-0.41c0-0.02,0.01-0.04,0.01-0.06c-0.02-3.28-1.89-6.08-5.15-7.69
c-3.13-1.54-6.43-1.86-8.65-1.86c-0.18,0-0.36,0-0.54,0.01c-0.28-0.66-0.93-2-2.03-3.35C41.9,1.31,39.29,0,36.38,0
c-0.9,0-1.85,0.13-2.81,0.37c-2.95,0.76-4.09,2.82-4.51,4c-0.94-0.5-2.22-0.96-3.79-0.96c-1.18,0-2.4,0.26-3.63,0.78
c-2.95,1.23-4.76,4.45-4.29,7.64c0.11,0.76,0.31,1.45,0.59,2.09c0.02,0.05,0.03,0.1,0.06,0.15c0.02,0.06,0.05,0.11,0.08,0.17
c0,0.01,0.01,0.02,0.01,0.03c0.33,0.68,0.78,1.31,1.34,1.83c0.02,0.03,0.05,0.05,0.08,0.08c0.08,0.08,0.18,0.16,0.27,0.24
c0.09,0.07,0.19,0.14,0.28,0.21c0.03,0.02,0.06,0.05,0.09,0.06c0.99,0.7,2.19,1.12,3.53,1.17c0.26,0.32,0.79,1.04,1.3,2.07
c0.51,1.04,0.99,2.39,1.14,3.97c-0.01,0.11-0.01,0.22-0.03,0.33c-0.17,0.06-0.35,0.13-0.52,0.2c-0.08,0.03-0.16,0.07-0.24,0.1
c-0.01,0-0.01,0.01-0.02,0.01c-0.07,0.03-0.14,0.06-0.21,0.1c-0.14,0.06-0.28,0.14-0.42,0.22l-0.19,0.12l-0.18,0.12
c-0.09,0.05-0.18,0.11-0.28,0.16c-0.61,0.33-1.3,0.61-1.99,0.88c-2.19,0.89-4.67,1.89-4.24,4.61c0.01,0.04,0.02,0.07,0.03,0.11
c0.02,0.06,0.42,1.14,1.63,1.67c-0.08,0.04-0.15,0.08-0.23,0.12c-3.01,1.59-4.71,3.51-5.07,5.7c-0.03,0.2,0.04,0.4,0.19,0.53
c0.11,0.11,0.26,0.17,0.41,0.17c0.05,0,0.09,0,0.13-0.01c0.01,0,0.55-0.12,1.28-0.23c-0.14,0.1-0.29,0.19-0.43,0.3l-0.43,0.45
l0.34,0.43c0.37,0.47,0.72,0.86,1.11,1.27c0.18,0.19,0.37,0.37,0.55,0.55c0.69,0.74,1.61,1.64,2.8,2.6
c2.59,2.08,6.97,4.8,13.12,6.01c0.18,0.36,0.48,1.18-0.19,1.74c-0.16,0.12-0.32,0.23-0.52,0.32c-0.01,0-0.02,0.01-0.03,0.02
c-0.51,0.22-1.13,0.32-1.78,0.42c-0.77,0.12-1.65,0.25-2.5,0.63c-2.09,0.94-3.16,2.74-3.28,4.1c-0.08,0.86,0.04,1.99,0.15,2.78
c-0.75-0.07-1.501-0.103-2.25-0.15c-2.884-0.182-8.7-0.02-8.77-0.01c-2.23,0.14-4.46,0.41-6.63,1c-1.08,0.3-2.15,0.69-3.11,1.31
c-0.47,0.31-0.92,0.67-1.31,1.12c-0.4,0.44-0.7,1.02-0.77,1.66c-0.02,0.2-0.02,0.41,0.01,0.61c-1.31,0.67-2.09,1.46-2.23,2.35
C0,68.43,0,68.55,0,68.68c0.08,2.32,4.37,4.76,10.92,6.64c-0.07,0.13-0.12,0.26-0.15,0.4c-0.08,0.38-0.08,0.74,0.01,1.07
c0.32,1.37,1.8,1.74,2.68,1.96c0.63,0.16,1.15,0.24,1.61,0.24c0.38,0,0.69-0.06,0.96-0.15c0.37,0.8,1.33,1.52,3.5,1.71
c0.32,0.03,0.69,0.05,1.05,0.05c0.89,0,1.5-0.21,1.93-0.52c0.22,0.5,0.68,1.05,1.64,1.41c0.51,0.19,3.67,0.49,3.92,0.49
c0.67,0,2.39,0,3.25-1.1c0.25,0.29,0.62,0.56,1.19,0.75c0.15,0.05,1.84,0.28,2.31,0.28c0.94,0,2.17-0.01,2.99-0.63
c0.35,0.08,0.67,0.08,0.83,0.08c0.29,0,0.59-0.02,0.84-0.05c0.79-0.07,1.37-0.21,1.84-0.44c0.85-0.41,1.29-1.15,1.21-2.02
c-0.01-0.19-0.07-0.38-0.15-0.55c2.62-0.25,4.9-0.65,6.71-1.19c0,0.01,0,0.01,0,0.01c-0.04,0.18-0.08,0.34-0.12,0.51
c2.68-0.71,4.74-1.76,5.23-3.33c0.2,0.09,0.41,0.17,0.61,0.26c0.15,0.06,0.3,0.12,0.46,0.19c3.09,1.57,7.35,2.88,7.4,2.89
c0.05,0.02,0.11,0.03,0.17,0.03c0.11,0,0.23-0.04,0.32-0.1l0.28,0.09c0,0-0.04-0.12-0.1-0.27c0.11-0.16,0.14-0.37,0.06-0.56
c-0.04-0.11-0.09-0.23-0.12-0.35c0.43,0.45,0.79,0.71,0.82,0.74c0.1,0.07,0.22,0.11,0.33,0.11l0.01,0.01v-0.01
c0.01,0,0.01,0.01,0.02,0.01c0.09,0,0.18-0.02,0.27-0.07c0.2-0.1,0.33-0.3,0.34-0.53c0-0.02,0.1-2.59,2.23-7.26
c3-6.56,5.98-17.57,6.01-17.68v-0.04c0.26-1.29,1.28-1.88,1.29-1.89c0.01,0,0.02-0.01,0.02-0.01c0.34-0.21,0.64-0.38,0.94-0.54
c1.23-0.69,2.2-1.23,3.22-3.2c0.26-0.51,0.54-1.4,0.89-2.53c0.57-1.85,1.35-4.37,2.26-5.52C82.99,36.75,83.79,34.69,83.21,33.48z
M48.86,26.48c0.01,0,0.02,0,0.03,0.01c0,0-0.14,0.09-0.36,0.18C48.67,26.6,48.79,26.53,48.86,26.48z M71.28,36.95
c0.09-0.47,0.19-0.93,0.32-1.38c0.06-0.22,0.13-0.46,0.21-0.66c0.06-0.19,0.15-0.37,0.24-0.5s0.17-0.17,0.24-0.19
c0.06-0.03,0.18-0.02,0.34,0.04c0.15,0.06,0.32,0.17,0.49,0.3c0.03,0.02,0.07,0.05,0.1,0.08c-0.23,0.27-0.39,0.58-0.5,0.87
c-0.15,0.4-0.23,0.79-0.28,1.18s-0.07,0.77-0.08,1.15c-0.01,0.19,0,0.37,0.01,0.55c0,0.16,0,0.38,0.02,0.57
c0.02,0.2,0.04,0.4,0.08,0.61c-0.03,0.01-0.06,0.03-0.08,0.05c-0.2,0.12-0.4,0.21-0.57,0.25s-0.29,0.02-0.4-0.04
c-0.08-0.04-0.07-0.04-0.11-0.08c-0.03-0.04-0.06-0.1-0.09-0.18c-0.12-0.32-0.13-0.79-0.11-1.24
C71.13,37.87,71.19,37.41,71.28,36.95z M64.05,35.77c0.15-0.21,0.35-0.4,0.56-0.57c0.22-0.16,0.45-0.31,0.69-0.43l0.78-0.36
l3.13-1.43c0.18-0.05,0.42-0.05,0.61,0.01c0.21,0.06,0.39,0.18,0.53,0.33s0.25,0.34,0.31,0.55c0.04,0.13,0.06,0.26,0.08,0.4
c-0.04,0.08-0.07,0.15-0.1,0.23c-0.09,0.26-0.15,0.5-0.22,0.75c-0.02,0.08-0.04,0.16-0.06,0.24c-0.11-0.15-0.25-0.29-0.42-0.42
l-0.36-0.3l-0.41,0.28c-0.82,0.68-1.81,1.28-2.82,1.64c-0.51,0.17-1.04,0.28-1.55,0.25c-0.06-0.01-0.13-0.02-0.19-0.02
c-0.07-0.01-0.13-0.02-0.19-0.04c-0.12-0.03-0.24-0.06-0.34-0.11c-0.2-0.11-0.3-0.22-0.3-0.38C63.78,36.2,63.9,35.97,64.05,35.77
z M70.14,39.47c0.01,0.06,0.02,0.13,0.03,0.19v0.11c-0.01,0.07-0.08,0.35-0.44,0.76c-0.08,0.09-0.15,0.16-0.21,0.21
c-0.64-1.31-1.85-2.45-2.75-3.02c1.1-0.32,2.12-0.89,2.71-1.26c0.05,0.08,0.11,0.16,0.15,0.25c0.08,0.13,0.15,0.27,0.21,0.41
c0.07,0.14,0.13,0.3,0.18,0.42h0.01C70.01,37.79,70,38.05,70,38.31C70.01,38.68,70.04,39.07,70.14,39.47z M47.76,26.85
c-0.02,0-0.05,0.01-0.08,0.01c-0.04,0-0.1-0.02-0.15-0.02C47.61,26.85,47.69,26.85,47.76,26.85z M46.84,26.62
c0.22,0.12,0.44,0.19,0.65,0.21c-0.08,0-0.15,0-0.23-0.02c-0.01,0-0.01,0-0.01,0c0,0.02,0.52,0.88,1.42,1.67
c0.43,0.42,0.92,0.79,1.46,1.09c0.31,0.17,0.65,0.31,0.98,0.41c0.28,0.1,0.52,0.27,0.73,0.48c0.41,0.43,0.68,1.02,0.69,1.55
c0,0.38-0.13,0.65-0.37,0.83c0.22-0.76-0.05-1.77-1.52-2.26c-0.97-0.32-2.33-1.48-3.14-2.24c-0.01-0.03-0.03-0.06-0.04-0.09
c-0.39-0.65-0.93-1.25-1.62-1.65c-0.35-0.19-0.73-0.33-1.12-0.41c-0.25-0.04-0.5-0.06-0.75-0.05c-0.04-0.13-0.08-0.25-0.12-0.38
C45.46,25.35,45.89,26.08,46.84,26.62z M45.46,28.54c-0.21-0.03-0.42-0.06-0.63-0.07c-0.13-0.01-0.25-0.02-0.39-0.02
c-0.1-0.55-0.2-1.11-0.32-1.68c0.16,0,0.33,0.01,0.49,0.04c0.32,0.06,0.64,0.17,0.92,0.33c0.59,0.32,1.06,0.83,1.42,1.42
c0.08,0.14,0.16,0.29,0.24,0.43c-0.17-0.06-0.34-0.11-0.51-0.17C46.28,28.7,45.88,28.61,45.46,28.54z M45.22,30.44
c-0.03,0.01-0.05,0.01-0.08,0.01c-0.18-0.24-0.31-0.52-0.41-0.82c0.05-0.01,0.1-0.03,0.15-0.04c0.18-0.03,0.37-0.06,0.55-0.08
c0.03-0.01,0.06-0.01,0.1-0.01C45.62,29.81,45.71,30.35,45.22,30.44z M46.55,29.46c0,0,0.01,0,0.02,0
c0.29,0.01,0.57,0.03,0.86,0.06c0.12,0.32,0.23,0.64,0.32,0.97c0.15,0.54,0.26,1.1,0.34,1.66c-0.04-0.02-0.08-0.04-0.13-0.06
c-0.65-0.33-1.31-0.65-1.95-0.99C46.68,30.78,46.59,29.79,46.55,29.46z M25.32,18.69c-0.15-0.32-0.31-0.63-0.46-0.94
c-0.02-0.02-0.02-0.04-0.03-0.06c0.22-0.04,0.44-0.08,0.66-0.13c0.72-0.19,1.41-0.49,1.99-0.94c0.58-0.44,1.08-1.02,1.32-1.69
c-0.99,1.01-2.24,1.48-3.5,1.65c-1.28,0.14-2.59,0.08-3.72-0.42c-0.56-0.26-1.08-0.6-1.52-1.03s-0.82-0.94-1.1-1.51
c-0.28-0.56-0.49-1.18-0.62-1.82c-0.13-0.63-0.16-1.27-0.09-1.91c0.15-1.29,0.7-2.55,1.59-3.54c0.44-0.49,0.96-0.91,1.54-1.24
c0.59-0.32,1.23-0.55,1.88-0.72c1.3-0.35,2.7-0.34,3.99,0.04c1.3,0.38,2.48,1.11,3.49,2.03c-0.35-0.48-0.78-0.88-1.26-1.24
c0.18-0.82,0.59-1.61,1.14-2.26c0.55-0.67,1.28-1.19,2.08-1.52c0.4-0.17,0.81-0.29,1.24-0.39c0.43-0.09,0.87-0.16,1.3-0.2
c0.88-0.09,1.76-0.06,2.61,0.11c1.71,0.33,3.26,1.26,4.48,2.5c0.61,0.62,1.15,1.32,1.62,2.05c0.41,0.67,0.78,1.38,1.07,2.09
c-0.32,0.06-0.62,0.13-0.93,0.23c0.99,0.05,1.96,0.09,2.92,0.16c0.97,0.06,1.92,0.19,2.87,0.35c0.95,0.17,1.88,0.39,2.79,0.7
c0.9,0.32,1.79,0.69,2.58,1.19c0.8,0.5,1.52,1.11,2.1,1.82c0.58,0.71,1.01,1.52,1.26,2.38s0.34,1.76,0.26,2.65
c-0.09,0.89-0.32,1.76-0.69,2.56s-0.88,1.52-1.51,2.08c-0.16,0.14-0.33,0.26-0.5,0.38c-0.08,0.06-0.18,0.11-0.26,0.15
c-0.1,0.06-0.19,0.1-0.29,0.15c-0.4,0.2-0.81,0.35-1.24,0.47c-0.85,0.22-1.75,0.32-2.65,0.23c-0.9-0.08-1.79-0.32-2.63-0.7
c-0.84-0.38-1.62-0.9-2.29-1.55c-0.33-0.32-0.63-0.68-0.89-1.06c-0.27-0.41-0.56-0.83-0.87-1.22c-0.63-0.78-1.35-1.47-2.12-2.1
c-0.76-0.62-1.59-1.17-2.48-1.59c1.26,0.82,2.4,1.82,3.35,2.96c-0.37,0.41-0.7,0.83-0.99,1.29c-0.31,0.48-0.59,0.99-0.81,1.51
c-0.22,0.53-0.41,1.07-0.56,1.62c-0.07,0.27-0.14,0.55-0.19,0.83c-0.03,0.12-0.05,0.24-0.07,0.36c-0.05,0-0.1,0-0.15-0.01
c-0.47-0.02-0.93,0-1.37,0.05c-0.88,0.12-1.73,0.35-2.55,0.63c0.12-0.2,0.43-0.98-0.8-1.82c-1.2-0.82-4.83-1.76-6.79,2.15
c-0.73-0.33-1.52-0.44-2.32-0.38c-0.11-0.52-0.24-1.03-0.38-1.53c-0.1-0.34-0.2-0.67-0.31-0.99c-0.11-0.33-0.22-0.65-0.35-0.97
C25.9,19.94,25.62,19.31,25.32,18.69z M25.81,57.82c0.03-0.31,0.11-0.58,0.23-0.86c0.24-0.55,0.61-1.06,1.06-1.47
c0.45-0.43,0.97-0.76,1.54-1c0.56-0.24,1.18-0.4,1.83-0.55c0.53-0.13,1.1-0.25,1.65-0.43c-0.39,0.5-0.7,1.08-0.8,1.72
c-0.07,0.45-0.03,0.93,0.14,1.36c0.07,0.21,0.19,0.42,0.3,0.61c0.11,0.19,0.23,0.38,0.35,0.57c0.46,0.76,1,1.48,1.4,2.26
c0.29,0.56,0.46,0.96,0.58,1.47c-2.2-0.38-4.41-0.65-6.63-0.87c-0.49-0.05-1-0.09-1.5-0.13c-0.02-0.1-0.05-0.19-0.05-0.23
c0.15-1.02,1.07-1.24,1.41-1.32c1-0.24,1.92-0.12,2.78-0.05c0.09,0.01,0.1-0.13,0.02-0.15c-0.78-0.18-1.56-0.36-2.35-0.51
c-0.6-0.12-1.36-0.27-1.98-0.1C25.8,58.03,25.8,57.93,25.81,57.82z M4.49,63.37c0.37-0.33,0.81-0.58,1.27-0.79
c0.92-0.41,1.91-0.68,2.91-0.9c1.99-0.41,4.04-0.61,6.08-0.71c4.1-0.2,8.21,0.01,12.28,0.43c4.08,0.42,8.14,1.09,12.12,2.11
c0.99,0.26,1.98,0.55,2.95,0.88c0.34,0.11,0.68,0.23,1.01,0.34c-0.33-0.12-0.67-0.24-1.01-0.35c-0.31-0.11-0.63-0.21-0.94-0.31
c0.25,0.07,0.51,0.15,0.77,0.22c0.39,0.14,0.79,0.29,1.18,0.44c0.01,0.01,0.01,0.01,0.02,0.01c0.04,0.02,0.09,0.03,0.13,0.05
c0.34,0.12,0.67,0.25,1,0.39l0.01,0.01c0.23,0.1,0.47,0.21,0.69,0.32c0.93,0.45,1.8,1.01,2.57,1.65
c0.39,0.32,0.75,0.66,1.04,1.03c0.28,0.37,0.49,0.77,0.48,1.14c0.01,0.38-0.2,0.72-0.53,1.02c-0.34,0.29-0.76,0.53-1.2,0.73
c-0.89,0.4-1.87,0.66-2.85,0.87c-1.98,0.42-4.01,0.62-6.04,0.74c-4.08,0.23-8.18,0.07-12.25-0.34
c-4.07-0.43-8.13-1.09-12.09-2.12c-1.97-0.52-3.93-1.13-5.81-1.94c-0.93-0.41-1.85-0.86-2.68-1.44c-0.41-0.28-0.81-0.6-1.14-0.97
c-0.32-0.37-0.58-0.81-0.59-1.28C3.85,64.13,4.12,63.7,4.49,63.37z M15.85,77.6c-0.21,0.12-0.47,0.17-0.78,0.17
c-0.39,0-0.84-0.08-1.31-0.19c-0.94-0.24-1.67-0.49-1.81-1.08c-0.04-0.15-0.03-0.32,0.01-0.52c0.02-0.1,0.1-0.21,0.23-0.31
c0.79,0.21,1.61,0.41,2.46,0.6c0.49,0.12,0.99,0.22,1.5,0.33c0.02,0.05,0.04,0.1,0.06,0.14C16.15,77.27,16.06,77.41,15.85,77.6z
M20.58,79.39c-0.29,0-0.61-0.02-0.94-0.05c-1.28-0.11-2.39-0.42-2.57-1.25c-0.13-0.9,0.49-1.11,0.72-1.17
c1.34,0.26,2.73,0.48,4.16,0.68c0.19,0.24,0.29,0.46,0.27,0.64C22.13,79.16,21.51,79.39,20.58,79.39z M28.07,80.77
c-0.3,0-0.61-0.01-0.95-0.02c-1.95-0.08-3.64-0.44-3.59-1.61c0.01-0.34,0.57-0.83,1.4-1.16c0.72,0.08,1.45,0.15,2.18,0.22
c0.89,0.08,1.76,0.15,2.63,0.2c0.55,0.36,0.89,0.76,0.86,1.03C30.51,80.54,29.52,80.77,28.07,80.77z M36.44,80.4
c-0.46,0.31-1.01,0.37-1.73,0.37c-1.47,0-2.65-0.3-2.65-1.18c0-0.3,0.27-0.74,1.27-1.03c0.75-0.14,1.74-0.12,2.36,0.02
c0.86,0.19,1.2,0.63,1.22,0.84C36.96,79.79,36.82,80.14,36.44,80.4z M39.42,80.08c-0.27,0.02-0.88,0.02-1.28-0.07
c-0.3-0.09-0.7-0.44-0.73-0.81c-0.02-0.27,0.3-0.88,1.08-0.94c0.21-0.05,1.54-0.2,2.21,0.04c0.55,0.21,0.61,0.5,0.63,0.66
C41.4,79.73,40.51,79.98,39.42,80.08z M50.17,71.69c-0.28,0.36-0.67,0.66-1.1,0.93c-0.88,0.54-1.9,0.9-2.94,1.2
c-2.09,0.58-4.29,0.88-6.49,1.06c-2.21,0.17-4.43,0.21-6.64,0.16c-2.22-0.06-4.45-0.18-6.65-0.42
c-4.42-0.46-8.81-1.27-13.05-2.54c-2.12-0.65-4.2-1.42-6.14-2.41c-0.97-0.51-1.9-1.08-2.69-1.78c-0.4-0.35-0.76-0.74-1.02-1.16
c-0.26-0.43-0.41-0.87-0.44-1.35c-0.03-0.48,0.06-0.99,0.33-1.45c0.25-0.46,0.58-0.38,0.45-0.13c-0.13,0.24-0.21,0.53-0.21,0.8
c0.01,0.58,0.32,1.07,0.66,1.48c0.34,0.4,0.75,0.73,1.18,1.03c0.85,0.6,1.78,1.07,2.72,1.5c1.89,0.83,3.86,1.48,5.84,2.03
c3.98,1.08,8.04,1.8,12.14,2.28c4.09,0.47,8.21,0.71,12.34,0.57c2.07-0.09,4.14-0.27,6.19-0.69c1.02-0.22,2.04-0.5,3.02-0.94
c0.49-0.23,0.97-0.5,1.41-0.89c0.21-0.2,0.42-0.43,0.57-0.71c0.15-0.27,0.24-0.62,0.23-0.93v-0.01c-0.01-0.19-0.04-0.37-0.1-0.54
c0.45,0.55,0.75,1.16,0.79,1.77C50.58,70.97,50.44,71.34,50.17,71.69z M82.24,34.94c-0.07,0.31-0.17,0.61-0.29,0.91
c-0.13,0.3-0.28,0.59-0.44,0.86c-0.09,0.14-0.18,0.27-0.27,0.4c-0.09,0.14-0.2,0.26-0.31,0.41c-0.45,0.61-0.75,1.25-1.03,1.9
c-0.55,1.3-0.95,2.62-1.36,3.94c-0.2,0.66-0.4,1.32-0.64,1.93c-0.11,0.28-0.27,0.57-0.44,0.85c-0.17,0.28-0.35,0.55-0.56,0.79
c-0.4,0.49-0.88,0.89-1.44,1.27l-0.87,0.57l-0.43,0.29c-0.14,0.1-0.3,0.21-0.43,0.33c-0.54,0.49-0.97,1.1-1.19,1.79
c-0.17,0.68-0.36,1.33-0.55,1.99c-0.77,2.64-1.59,5.27-2.47,7.87c-0.9,2.6-1.86,5.18-3,7.67c-0.58,1.24-1.15,2.52-1.61,3.83
c-0.23,0.66-0.44,1.33-0.61,2.01c-0.09,0.34-0.17,0.68-0.24,1.03c-0.03,0.12-0.05,0.24-0.07,0.36c-0.03-0.02-0.06-0.04-0.09-0.06
c-0.23-0.16-0.45-0.34-0.65-0.54c-0.27-0.27-0.52-0.57-0.72-0.92c-0.11-0.22-0.2-0.46-0.26-0.7c0,0,0,0.08,0,0.22
c-0.08,0.51-0.12,1.04-0.11,1.58c0,0.28,0.02,0.57,0.06,0.86c-1.49-0.56-2.98-1.14-4.44-1.77c-0.84-0.36-1.67-0.72-2.49-1.11
c-0.63-0.31-1.25-0.62-1.84-0.96c-0.31-0.6-0.87-1.2-1.66-1.79c0.01-0.08,0.01-0.17,0-0.24v-0.02c-0.01-0.39-0.11-0.77-0.24-1.12
l0.08,0.01c0.01-0.1,0.08-0.27,0.17-0.43c0.08-0.16,0.19-0.33,0.3-0.49c0.11-0.17,0.23-0.33,0.36-0.5
c0.12-0.16,0.25-0.32,0.38-0.47l0.26-0.34l-0.14-0.31c-0.55-1.31-1.25-2.48-2.02-3.62c-0.77-1.13-1.62-2.21-2.57-3.2
c-0.94-0.98-2-1.87-3.12-2.62c-1.13-0.77-2.37-1.58-3.17-2.38c0.87,1.01,1.93,1.8,2.98,2.64c1.04,0.83,1.99,1.76,2.83,2.79
c0.84,1.03,1.58,2.13,2.23,3.28c0.59,1.03,1.11,2.12,1.51,3.21c-0.07,0.08-0.13,0.16-0.2,0.24c-0.14,0.18-0.27,0.37-0.4,0.56
c-0.09,0.12-0.16,0.25-0.24,0.38c-0.26-0.32-0.54-0.61-0.83-0.86c-0.89-0.79-1.89-1.4-2.91-1.92c-2.03-1.04-4.18-1.78-6.35-2.38
c-2.08-0.58-4.18-1.04-6.3-1.41c-0.14-0.58-0.33-1.01-0.67-1.64c-0.43-0.8-0.98-1.5-1.46-2.25c-0.23-0.37-0.49-0.74-0.65-1.13
c-0.16-0.41-0.21-0.85-0.15-1.28c0.09-0.67,0.42-1.29,0.86-1.82c0.05-0.01,0.1-0.03,0.15-0.05c0.34-0.14,0.67-0.31,0.96-0.55
c0.3-0.22,0.56-0.54,0.71-0.92c0.14-0.38,0.17-0.78,0.12-1.17c-0.01-0.14-0.04-0.27-0.06-0.39c1.42,0.16,2.85,0.19,4.27,0.03
c-2.11-0.41-4.18-0.77-6.22-1.29c-2.03-0.51-4.04-1.14-5.96-1.99c-1.92-0.86-3.71-1.99-5.33-3.32c-0.81-0.66-1.58-1.38-2.29-2.14
c-0.36-0.38-0.7-0.77-1.02-1.18c-0.2-0.25-0.4-0.52-0.58-0.78c0.19-0.19,0.39-0.37,0.6-0.55c0.19-0.15,0.38-0.29,0.58-0.44
c0.2-0.14,0.4-0.28,0.6-0.4L20,37.58c0,0-1.25,0.06-1.26,0.06c-0.72-0.03-1.41,0.05-2.09,0.15c-0.57,0.08-1.14,0.19-1.7,0.32
c0.28-1.09,0.98-2.04,1.82-2.8c0.47-0.42,0.97-0.79,1.51-1.13c0.26-0.17,0.54-0.33,0.81-0.48l0.86-0.45
c1.16-0.64,2.23-1.41,3.23-2.26c1.01-0.85,1.95-1.75,2.84-2.74l1.18-1.32l-1.72,0.52c-0.72,0.28-1.47,0.47-2.25,0.63
c-0.77,0.16-1.58,0.26-2.39,0.56c-0.79,0.29-1.56,0.95-1.62,1.87c-0.01,0.46,0.28,0.84,0.59,1.09c0.22,0.18,0.46,0.31,0.71,0.43
c-0.05,0.02-0.09,0.06-0.13,0.09c-0.37-0.07-0.72-0.19-1.01-0.4c-0.21-0.14-0.39-0.32-0.54-0.52c-0.14-0.2-0.25-0.43-0.3-0.64
c-0.06-0.54,0.04-1.06,0.32-1.47c0.28-0.43,0.71-0.75,1.19-1.01c0.95-0.54,2.07-0.86,3.16-1.31c0.55-0.23,1.1-0.47,1.64-0.79
l0.36-0.21c0.12-0.07,0.24-0.13,0.36-0.2c0.24-0.12,0.48-0.22,0.73-0.31c0.94-0.36,1.99-0.49,3.03-0.4
c-0.07,0.14-0.12,0.29-0.18,0.45c0,0,2.67-2.83,6.45-1.25c0,0,1.34,0.61,1.48,0.11c0,0,0.02-0.01,0.03-0.04
c0.85-0.17,1.72-0.22,2.56-0.18c0.43,0.02,0.85,0.07,1.25,0.18c0.39,0.11,0.74,0.33,1.01,0.53c0.14,0.1,0.26,0.2,0.37,0.32
c0.11,0.11,0.19,0.23,0.29,0.43c0.19,0.35,0.36,0.73,0.51,1.12c0.31,0.78,0.53,1.62,0.81,2.47c0.15,0.42,0.3,0.85,0.53,1.26
c0.02,0.04,0.05,0.08,0.07,0.12c-0.36-0.03-0.73,0-1.08,0.08c-0.37,0.08-0.71,0.22-1.03,0.4c-0.31,0.18-0.6,0.4-0.84,0.66
c0.27-0.23,0.59-0.4,0.91-0.52c0.32-0.13,0.66-0.21,1-0.24c0.52-0.04,1.04,0.05,1.51,0.23c0.04,0.03,0.08,0.06,0.13,0.09
c0,0,0.01,0,0.01,0.01c0.1,0.07,0.22,0.13,0.3,0.18c0.79,0.44,1.58,0.79,2.35,1.19c1.05,0.54,2.08,1.14,2.98,1.86
c-1.09-0.24-2.2-0.32-3.3-0.22c-1.26,0.11-2.53,0.47-3.55,1.25c-0.51,0.38-0.99,0.84-1.26,1.46c-0.13,0.31-0.19,0.67-0.15,1.01
c0.04,0.34,0.16,0.67,0.33,0.96c0.33,0.58,0.79,1.05,1.28,1.46c0.49,0.42,1.02,0.78,1.56,1.11c0.53,0.33,1.14,0.64,1.78,0.83
c0.33,0.1,0.66,0.17,1.02,0.2c0.18,0.01,0.36,0.02,0.54,0.01c0.09-0.01,0.19-0.02,0.29-0.04c0.06,0,0.11-0.02,0.17-0.04h0.01
c0.38-0.05,0.69-0.12,1.02-0.21c0.01,0,0.03-0.01,0.04-0.01c-0.25,0.41-0.55,0.79-0.9,1.13c-0.82,0.8-1.9,1.4-3.07,1.55
c-2.37,0.34-4.82,0.06-7.15-0.56c-2.33-0.63-4.57-1.58-6.7-2.71c-1.07-0.57-2.11-1.18-3.13-1.82c-0.51-0.33-0.99-0.69-1.45-1.09
c-0.19-0.17-0.58-0.3-0.66-0.56c-0.11-0.36,0.44-0.43,0.66-0.54v-0.08c-0.35-0.17-0.72-0.21-1.09-0.18
c-0.04,0.01-0.09,0.02-0.13,0.03c0-0.01,0-0.01-0.01-0.02l-0.01,0.02c-0.32,0.05-0.64,0.16-0.93,0.35
c-0.33,0.22-0.61,0.55-0.75,0.93s-0.14,0.79,0.02,1.14l0.11,0.01c0.1,0,0.22-0.31,0.57-0.42c1.07-0.36,1.26,0.01,1.67,0.2
c0.56,0.24,1.11,0.51,1.65,0.8c1.07,0.59,2.16,1.14,3.27,1.64c2.22,1.01,4.5,1.88,6.85,2.51c2.35,0.61,4.8,1,7.26,0.72
c1.25-0.11,2.44-0.63,3.49-1.35c1.06-0.72,1.95-1.69,2.74-2.77c0,0,0.16-0.3,0.29-0.43c0.49-0.48,0.89-1.06,1.18-1.69
c0.14-0.31,0.26-0.63,0.34-0.97c0.11-0.42,0.05-0.88-0.11-1.25c-0.35-0.74-0.94-1.17-1.51-1.5c-0.25-0.15-0.51-0.27-0.77-0.38
c-0.62-0.55-1.29-1.02-1.98-1.44c-0.52-0.33-1.06-0.62-1.6-0.9c-0.02-0.23-0.05-0.45-0.08-0.67c1.24,0.79,2.49,1.58,3.75,2.36
l0.02,0.05c0.01-0.01,0.02-0.02,0.03-0.02c0.2,0.13,0.4,0.25,0.61,0.38c0.76,0.46,1.43,1.04,2.03,1.68
c0.3,0.32,0.58,0.66,0.85,1.01c0.13,0.18,0.25,0.36,0.37,0.54c0.03,0.04,0.06,0.08,0.08,0.13c-0.15,0.32-0.33,0.66-0.51,0.98
c-0.25,0.44-0.52,0.88-0.8,1.31c-0.56,0.86-1.2,1.67-1.87,2.44c-0.69,0.76-1.43,1.47-2.22,2.12c-0.81,0.65-1.65,1.25-2.53,1.81
c-1.77,1.11-3.67,2.01-5.62,2.94c-0.58,0.27-1.16,0.56-1.73,0.9l-0.02-0.02c-0.02,0.02-0.03,0.03-0.03,0.05
c-0.37,0.21-0.73,0.45-1.07,0.72c-0.44,0.34-0.86,0.73-1.2,1.19s-0.6,0.97-0.72,1.51c0.66-0.88,1.48-1.46,2.39-1.93
c-0.03,0.13-0.04,0.26-0.05,0.4c-0.02,0.37,0.05,0.78,0.24,1.14l0.05,0.09l0.03,0.04l0.04,0.05l0.05,0.07
c0.08,0.1,0.15,0.17,0.23,0.23c0.15,0.14,0.3,0.24,0.46,0.32c0.63,0.32,1.22,0.42,1.79,0.55s1.12,0.25,1.66,0.4
c0.26,0.07,0.53,0.16,0.78,0.25l0.19,0.07l0.09,0.04l0.1,0.04c0.1,0.05,0.22,0.11,0.33,0.18c0.44,0.28,0.87,0.64,1.28,1.02
c0.83,0.77,1.6,1.63,2.4,2.46c0.8,0.84,1.62,1.68,2.5,2.46c0.44,0.39,0.89,0.76,1.37,1.11c0.49,0.34,0.98,0.66,1.47,0.97
c1,0.62,2.01,1.19,3.04,1.74c1.04,0.55,2.07,1.07,3.16,1.57l0.44-1.21c-0.02-0.01-0.03-0.01-0.05-0.02
c0.09-0.14,0.16-0.28,0.23-0.42c0.08-0.19,0.14-0.38,0.2-0.57l0.19-0.57c0.26-0.76,0.5-1.53,0.8-2.28
c0.3-0.76,0.67-1.48,1.15-2.15c0.48-0.71,0.92-1.42,1.35-2.15c0.84-1.45,1.63-2.93,2.4-4.42c0.37-0.75,0.74-1.5,1.07-2.29
c0.16-0.39,0.32-0.78,0.43-1.21c0.02-0.11,0.05-0.22,0.06-0.34c0.01-0.12,0.02-0.25-0.04-0.43c-0.09-0.28-0.34-0.47-0.55-0.57
c-0.41-0.22-0.77-0.35-1.05-0.58c-0.28-0.22-0.5-0.52-0.66-0.86c-0.32-0.68-0.46-1.48-0.54-2.28c-0.04-0.39-0.06-0.83-0.12-1.26
c-0.06-0.43-0.15-0.86-0.28-1.28c-0.25-0.85-0.71-1.68-1.41-2.27c-0.34-0.3-0.73-0.52-1.09-0.72c-0.18-0.1-0.35-0.21-0.43-0.31
c-0.04-0.05-0.06-0.1-0.07-0.16s0-0.08,0-0.11s0-0.06,0.01-0.09c0.08-0.27,0.45-0.47,0.82-0.55c0.37-0.08,0.78-0.07,1.14,0.02
c0.35,0.09,0.69,0.34,1.01,0.59s0.6,0.54,0.87,0.84c0.52,0.61,0.95,1.34,1.08,2.07l0.02,0.11c0,0,0.14,0.12,0.15,0.12
c0.08,0.06,0.09,0.06,0.14,0.08c0.03,0.02,0.07,0.03,0.1,0.04c0.07,0.02,0.13,0.03,0.19,0.03c0.12,0,0.22-0.02,0.31-0.04
c0.18-0.05,0.32-0.13,0.43-0.22c0.23-0.16,0.4-0.34,0.55-0.53c0.14-0.16,0.27-0.35,0.38-0.55c0.09,0.06,0.18,0.1,0.26,0.12
c0.35,0.12,0.77,0.05,1.04-0.13c0.2-0.12,0.36-0.27,0.48-0.44c0,0.01,0.01,0.02,0.01,0.03c0.08,0.21,0.18,0.42,0.35,0.64
c0.17,0.21,0.44,0.43,0.76,0.5c0.06,0.01,0.13,0.03,0.17,0.03h0.13c0.08,0,0.16-0.01,0.23-0.03c0.14-0.03,0.27-0.07,0.38-0.13
c0.23-0.11,0.42-0.25,0.58-0.41c0.33-0.31,0.54-0.69,0.68-1.08c0.26-0.8,0.16-1.63-0.18-2.29c-0.11,0.74-0.3,1.4-0.64,1.91
c-0.17,0.25-0.37,0.47-0.59,0.62c-0.11,0.08-0.22,0.14-0.32,0.17c-0.05,0.02-0.09,0.03-0.12,0.03h-0.02
c-0.02-0.01-0.05-0.03-0.09-0.08c-0.05-0.07-0.11-0.18-0.15-0.3c-0.09-0.26-0.14-0.57-0.16-0.89c-0.01-0.17-0.01-0.3-0.01-0.5
v-0.52c0-0.34,0.02-0.67,0.06-0.99c0.08-0.64,0.28-1.27,0.59-1.55c0.15-0.13,0.33-0.2,0.58-0.2c0.24,0,0.55,0.07,0.84,0.18
c0.57,0.2,1.06,0.57,1.42,1.08c0.31,0.46,0.52,1.05,0.6,1.62c-0.03,0.09-0.06,0.19-0.1,0.27c-0.24,0.63-0.54,1.23-0.9,1.78
c-0.37,0.56-0.79,1.07-1.3,1.48c-0.26,0.2-0.53,0.37-0.82,0.51c-0.28,0.12-0.65,0.23-0.97,0.4c-1.3,0.65-2.25,2-2.31,3.4
c0.53-1.28,1.37-2.36,2.54-2.94c0.15-0.07,0.3-0.14,0.45-0.2c0.15-0.05,0.33-0.1,0.5-0.18c0.34-0.15,0.65-0.34,0.94-0.56
c0.58-0.44,1.06-0.99,1.46-1.57c0.4-0.59,0.73-1.22,1-1.88c0.05-0.1,0.09-0.21,0.13-0.32l0.06,0.01v-0.17
c0.06-0.17,0.12-0.34,0.18-0.51c0.05-0.17,0.1-0.34,0.14-0.52c0.05-0.19,0.07-0.35,0.12-0.49c0.18-0.61,0.49-1.21,0.87-1.71
c0.39-0.51,0.87-0.94,1.43-1.12c0.13-0.04,0.29-0.07,0.42-0.08c0.1-0.01,0.12-0.01,0.19,0c0.06,0,0.12,0.01,0.17,0.03
c0.09,0.03,0.16,0.08,0.21,0.15c0.06,0.07,0.1,0.18,0.13,0.31C82.32,34.33,82.3,34.64,82.24,34.94z M20.55,32
c-0.24-0.14-0.46-0.3-0.65-0.49c-0.06-0.05-0.1-0.12-0.14-0.18c0.23,0.28,0.56,0.49,0.83,0.64C20.58,31.98,20.57,31.99,20.55,32z
"/>
<path fill="#c7a270" d="M19.548,31.009c-0.006-0.01-0.01-0.023-0.016-0.036c0.002,0.004,0.002,0.007,0.002,0.008
C19.54,30.992,19.544,30.999,19.548,31.009z"/>
<path fill="#c7a270" d="M74.026,40.14c-0.002,0,0.009,0,0.02,0.004c-0.004,0-0.009,0-0.013,0
C74.03,40.144,74.03,40.14,74.026,40.14z"/>
<path fill="#c7a270" d="M28.099,13.331c-3.198,4.188-9.996,0.443-8.346-4.51c0.01-0.031-0.036-0.041-0.047-0.014
c-0.799,2.209,0.167,4.825,2.131,6.086c2.145,1.38,5.202,0.773,6.373-1.496C28.249,13.322,28.148,13.267,28.099,13.331z"/>
<path fill="#c7a270" d="M25.081,35.871c-0.62,0.557-1.106,1.311-1.267,2.165c-0.081,0.427-0.08,0.871,0.021,1.29
c0.1,0.418,0.287,0.82,0.573,1.132c-0.165-0.386-0.264-0.784-0.317-1.179c-0.054-0.398-0.053-0.797,0.014-1.189
C24.232,37.295,24.612,36.562,25.081,35.871z"/>
<path fill="#c7a270" d="M41.712,46.574c0.811,0.065,1.633,0.033,2.434-0.117c0.795-0.159,1.586-0.4,2.271-0.83
c-0.369,0.156-0.752,0.273-1.139,0.368c-0.387,0.101-0.778,0.175-1.172,0.22c-0.785,0.104-1.581,0.119-2.371,0.062
c-0.791-0.059-1.574-0.199-2.348-0.394c-0.77-0.2-1.527-0.462-2.274-0.763c0.699,0.399,1.442,0.727,2.214,0.975
C40.097,46.347,40.901,46.505,41.712,46.574z"/>
<path fill="#c7a270" d="M38.26,35.82h0.16c-0.07-0.89-0.11-1.78-0.19-2.67c-0.04-0.45-0.08-0.88-0.14-1.35
c-0.06-0.43-0.15-0.85-0.26-1.27l0.01-0.01c-0.01-0.01-0.01-0.01-0.02-0.01c0-0.02-0.01-0.04-0.01-0.05
c-0.24-0.89-0.6-1.76-1.15-2.51c-0.54-0.75-1.34-1.35-2.24-1.59c-0.9-0.25-1.86-0.12-2.7,0.23c-0.83,0.36-1.56,0.96-2.06,1.72
c-0.2,0.3-0.34,0.63-0.46,0.96c-0.35,0.06-0.69,0.14-1.04,0.23c0.34-0.06,0.67-0.1,1-0.13c-0.01,0.06-0.03,0.12-0.05,0.18
c-0.14,0.42-0.27,0.85-0.38,1.28c-0.18,0.76-0.33,1.52-0.42,2.31c-0.69-0.42-1.35-0.89-1.98-1.42c0.37,0.5,0.83,0.93,1.33,1.32
c0.19,0.15,0.4,0.3,0.61,0.43c0,0,0,0.01,0,0.02h0.04c0.3,0.19,0.62,0.36,0.96,0.5c0.58,0.25,1.18,0.42,1.78,0.57
c0.6,0.16,1.21,0.29,1.81,0.42l3.63,0.77c1.2,0.26,2.39,0.53,3.56,0.92l0.02-0.04C39.51,36.27,38.89,36.02,38.26,35.82z
M29.56,29c0.08-0.19,0.18-0.38,0.29-0.56c0.92-1.45,2.85-2.24,4.47-1.72c0.8,0.25,1.46,0.83,1.91,1.53
c0.35,0.53,0.58,1.13,0.75,1.76c-0.1-0.05-0.2-0.11-0.3-0.15c-0.39-0.18-0.78-0.32-1.19-0.44c-0.81-0.23-1.63-0.36-2.46-0.42
c-1.19-0.07-2.38,0.02-3.55,0.22C29.51,29.15,29.53,29.08,29.56,29z M37.26,33.18c-0.02,0.78-0.06,1.56-0.12,2.34
c-0.19-0.04-0.38-0.09-0.58-0.13c-1.22-0.24-2.45-0.39-3.67-0.58c-0.6-0.11-1.21-0.22-1.81-0.36c-0.6-0.15-1.16-0.4-1.7-0.68
c-0.19-0.11-0.37-0.21-0.56-0.32c-0.04-0.84,0.05-1.71,0.22-2.55c0.08-0.43,0.18-0.85,0.31-1.28c0.03-0.09,0.06-0.18,0.09-0.27
c1.18-0.09,2.37-0.07,3.53,0.11c0.14,0.41,0.4,1.39-0.4,1.55c-0.79,0.16-1.09-0.8-1.15-1.02c0.03,0.35,0.31,2.33,1.88,2.12
c1.26-0.17,1.31-1.55,1.25-2.27c0.24,0.07,0.48,0.15,0.72,0.25c0.36,0.14,0.71,0.31,1.05,0.5c0.17,0.09,0.33,0.19,0.48,0.3
c0.14,0.09,0.29,0.21,0.4,0.3c0.03,0.23,0.05,0.47,0.06,0.7C37.28,32.3,37.28,32.74,37.26,33.18z"/>
<path fill="#c7a270" d="M46.89,18.207c0.258,0.281,0.508,0.57,0.748,0.869c0.244,0.293,0.459,0.605,0.715,0.901
c0.512,0.588,1.14,1.078,1.851,1.418c0.706,0.339,1.487,0.523,2.272,0.561c0.395,0.016,0.787-0.006,1.178-0.064
c0.389-0.057,0.779-0.157,1.143-0.324c0.728-0.324,1.359-0.851,1.81-1.498c0.456-0.648,0.715-1.415,0.801-2.187
c0.085-0.774-0.006-1.556-0.209-2.296c0.134,0.757,0.166,1.527,0.041,2.273c-0.117,0.744-0.411,1.456-0.854,2.049
c-0.438,0.599-1.041,1.075-1.718,1.358c-0.679,0.277-1.438,0.375-2.181,0.35c-0.744-0.017-1.486-0.171-2.173-0.467
c-0.687-0.299-1.308-0.745-1.823-1.296c-0.258-0.274-0.49-0.585-0.742-0.872c-0.254-0.289-0.516-0.57-0.787-0.844
c-0.541-0.546-1.117-1.054-1.742-1.503l-0.014,0.02C45.814,17.122,46.37,17.647,46.89,18.207z"/>
<path fill="#c7a270" d="M31.56,68.66c-0.15-0.25-0.34-0.44-0.54-0.61c-0.4-0.31-0.85-0.52-1.29-0.68
c-0.91-0.33-1.84-0.46-2.76-0.53c-0.93-0.06-1.87-0.04-2.79,0.15c-0.46,0.11-0.93,0.25-1.36,0.5c-0.21,0.12-0.41,0.28-0.59,0.48
c-0.08,0.11-0.16,0.22-0.22,0.35c-0.06,0.12-0.1,0.29-0.11,0.42c-0.03,0.29,0.06,0.58,0.19,0.81c0.14,0.24,0.31,0.43,0.5,0.59
c0.38,0.33,0.81,0.55,1.25,0.74c0.88,0.36,1.81,0.55,2.75,0.64c0.93,0.09,1.88,0.08,2.83-0.11c0.47-0.1,0.94-0.25,1.39-0.51
c0.22-0.14,0.44-0.3,0.62-0.53c0.09-0.11,0.18-0.23,0.24-0.38c0.06-0.12,0.11-0.35,0.11-0.43v-0.03
C31.81,69.21,31.71,68.9,31.56,68.66z M30.94,69.68c-0.03,0.06-0.07,0.13-0.12,0.19c-0.11,0.14-0.25,0.26-0.42,0.36
c-0.33,0.22-0.73,0.38-1.15,0.49c-0.83,0.24-1.73,0.31-2.62,0.25s-1.77-0.24-2.58-0.59c-0.4-0.17-0.78-0.39-1.09-0.66
c-0.32-0.26-0.55-0.61-0.52-0.94c0.01-0.33,0.29-0.65,0.64-0.87c0.36-0.23,0.77-0.4,1.19-0.51c0.86-0.23,1.77-0.29,2.66-0.21
c0.9,0.08,1.78,0.32,2.57,0.7c0.39,0.2,0.76,0.43,1.05,0.71c0.29,0.27,0.48,0.6,0.45,0.86C30.98,69.59,30.97,69.59,30.94,69.68z"
/>
<path fill="#c7a270" d="M46.48,68.01c-0.15-0.24-0.33-0.44-0.52-0.61c-0.39-0.33-0.83-0.55-1.28-0.73
c-0.89-0.35-1.83-0.5-2.76-0.56c-0.94-0.04-1.88,0.03-2.78,0.28c-0.45,0.11-0.89,0.28-1.29,0.53c-0.2,0.12-0.39,0.28-0.54,0.46
s-0.26,0.42-0.28,0.67c-0.03,0.25,0.04,0.49,0.16,0.71c0.12,0.2,0.28,0.38,0.46,0.54c0.35,0.31,0.76,0.55,1.18,0.75
c0.85,0.39,1.76,0.62,2.69,0.74c0.92,0.11,1.87,0.11,2.82-0.08c0.46-0.1,0.93-0.25,1.38-0.51c0.22-0.13,0.43-0.29,0.61-0.51
c0.09-0.11,0.17-0.23,0.24-0.37c0.06-0.12,0.11-0.34,0.11-0.42l0.01-0.02C46.71,68.56,46.62,68.25,46.48,68.01z M45.91,69.03
c-0.03,0.07-0.07,0.14-0.13,0.21c-0.11,0.13-0.26,0.26-0.43,0.36c-0.34,0.22-0.75,0.37-1.16,0.48c-0.84,0.23-1.74,0.31-2.64,0.27
c-0.89-0.05-1.79-0.2-2.63-0.52c-0.41-0.17-0.82-0.38-1.16-0.66c-0.32-0.29-0.61-0.68-0.57-1.11s0.38-0.76,0.75-0.99
c0.39-0.22,0.82-0.35,1.26-0.45c0.88-0.18,1.79-0.17,2.68-0.07c0.89,0.12,1.76,0.34,2.55,0.71c0.39,0.18,0.76,0.4,1.06,0.67
c0.3,0.26,0.51,0.59,0.47,0.88C45.95,68.93,45.94,68.94,45.91,69.03z"/>
<path fill="#c7a270" d="M18.78,64.15c-0.15-0.23-0.35-0.42-0.56-0.58c-0.42-0.32-0.9-0.54-1.39-0.72
c-0.98-0.34-2.01-0.51-3.05-0.57c-1.03-0.05-2.08-0.05-3.14,0.18c-0.52,0.12-1.05,0.29-1.55,0.6c-0.24,0.16-0.49,0.35-0.69,0.62
c-0.2,0.26-0.36,0.61-0.37,0.99s0.12,0.75,0.31,1.02c0.18,0.28,0.41,0.5,0.65,0.67c0.48,0.36,0.99,0.57,1.51,0.74
c1.05,0.3,2.11,0.41,3.16,0.4s2.1-0.14,3.1-0.48c0.5-0.17,0.99-0.38,1.42-0.71c0.22-0.16,0.42-0.34,0.57-0.57
c0.16-0.23,0.26-0.51,0.27-0.79v-0.01C19.03,64.66,18.93,64.38,18.78,64.15z M17.98,66.04c-0.4,0.26-0.87,0.44-1.35,0.56
c-0.96,0.26-1.97,0.33-2.96,0.27c-0.99-0.07-1.97-0.26-2.86-0.64c-0.44-0.18-0.86-0.4-1.19-0.68c-0.34-0.27-0.56-0.59-0.55-0.85
c-0.01-0.26,0.22-0.59,0.57-0.86c0.34-0.27,0.77-0.5,1.22-0.68c0.9-0.35,1.91-0.55,2.92-0.56c1,0,2.02,0.13,2.97,0.47
c0.47,0.17,0.93,0.39,1.32,0.7c0.38,0.29,0.71,0.7,0.7,1.16C18.75,65.41,18.38,65.78,17.98,66.04z"/>
<path fill="#c7a270" d="M27.54,62.67c-0.22-0.21-0.49-0.38-0.76-0.51c-0.54-0.28-1.14-0.45-1.74-0.55
c-0.6-0.09-1.22-0.11-1.84-0.01c-0.31,0.06-0.61,0.14-0.91,0.3c-0.14,0.08-0.28,0.18-0.41,0.31c-0.06,0.07-0.11,0.15-0.16,0.23
c-0.04,0.09-0.07,0.2-0.08,0.28c-0.03,0.2,0.02,0.4,0.11,0.56c0.08,0.16,0.19,0.29,0.32,0.41c0.24,0.22,0.52,0.38,0.8,0.51
c0.57,0.26,1.18,0.39,1.79,0.45c0.6,0.06,1.22,0.04,1.82-0.09c0.29-0.06,0.59-0.16,0.86-0.31c0.26-0.15,0.54-0.39,0.58-0.72
v-0.01C27.96,63.18,27.76,62.88,27.54,62.67z M27.26,64.12c-0.25,0.13-0.53,0.21-0.82,0.27c-0.58,0.09-1.17,0.07-1.75-0.02
c-0.57-0.09-1.14-0.26-1.65-0.52c-0.26-0.13-0.5-0.28-0.69-0.47c-0.19-0.18-0.32-0.4-0.29-0.6c0.02-0.2,0.2-0.39,0.44-0.52
c0.23-0.13,0.5-0.22,0.77-0.28c0.56-0.12,1.16-0.14,1.73-0.08c0.59,0.05,1.17,0.18,1.7,0.42c0.27,0.12,0.53,0.27,0.74,0.46
c0.2,0.2,0.37,0.45,0.34,0.72C27.74,63.78,27.51,63.98,27.26,64.12z"/>
<path fill="#c7a270" d="M35.83,63.73c-0.21-0.17-0.44-0.3-0.68-0.4c-0.47-0.2-0.99-0.32-1.51-0.38
c-0.52-0.05-1.05-0.04-1.58,0.08c-0.27,0.07-0.54,0.16-0.79,0.32c-0.13,0.08-0.25,0.19-0.36,0.33c-0.05,0.07-0.1,0.14-0.13,0.23
c-0.04,0.08-0.07,0.22-0.07,0.29c-0.01,0.2,0.06,0.39,0.16,0.54c0.09,0.14,0.21,0.26,0.32,0.35c0.24,0.19,0.5,0.3,0.76,0.39
c0.52,0.17,1.05,0.22,1.57,0.22c0.52-0.01,1.04-0.08,1.54-0.24c0.25-0.08,0.49-0.19,0.71-0.34c0.21-0.14,0.43-0.38,0.44-0.67
v-0.01C36.23,64.14,36.03,63.9,35.83,63.73z M35.66,64.96c-0.2,0.13-0.43,0.21-0.67,0.27c-0.47,0.11-0.97,0.11-1.45,0.06
c-0.49-0.05-0.96-0.16-1.39-0.35c-0.21-0.09-0.41-0.2-0.56-0.34c-0.16-0.13-0.25-0.28-0.23-0.37c-0.01-0.1,0.09-0.24,0.26-0.36
c0.16-0.11,0.37-0.21,0.59-0.28c0.44-0.15,0.93-0.22,1.41-0.23c0.49,0,0.98,0.04,1.45,0.2c0.23,0.08,0.45,0.18,0.64,0.32
s0.34,0.34,0.33,0.55C36.03,64.66,35.86,64.84,35.66,64.96z"/>
</svg>
