<?xml version="1.0" encoding="utf-8"?>
<!DOCTYPE svg PUBLIC "-//W3C//DTD SVG 1.1//EN" "http://www.w3.org/Graphics/SVG/1.1/DTD/svg11.dtd">
<svg version="1.1" id="Слой_1" xmlns="http://www.w3.org/2000/svg" xmlns:xlink="http://www.w3.org/1999/xlink" x="0px" y="0px"
width="175.202px" height="100.287px" viewBox="0 0 175.202 100.287" enable-background="new 0 0 175.202 100.287"
xml:space="preserve">
<g>
<path fill="#FFFFFF" d="M32.61,100.287c-2.589-18.706-4.815-22.177-7.165-25.516c-1.42-2.019-4.624-3.273-6.974-3.959h0.005
l3.219-7.416l-3,0.062l-0.5-1.312c0,0-3.438-0.375-6.438,1.312l3.44,7.196l0.012,0.001c-2.37,0.64-5.998,1.926-7.539,4.115
c-2.349,3.339-4.577,6.81-7.165,25.516H32.61z"/>
<path fill="#FFFFFF" d="M32.244,100.287h15.844c-2.58-18.581-4.803-22.044-7.146-25.374c-1.42-2.019-4.624-3.273-6.969-3.959
l3.219-7.416l-3,0.062l-0.5-1.312c0,0-3.437-0.375-6.437,1.312c0,0,3.439,7.196,3.451,7.197c-1.786,0.482-4.288,1.332-6.071,2.658
L32.244,100.287z"/>
<path fill="#FFFFFF" d="M174.698,100.158c-2.587-18.688-4.813-22.158-7.162-25.495c-1.42-2.019-4.625-3.273-6.975-3.959h0.006
l3.219-7.416l-3,0.062l-0.5-1.312c0,0-3.438-0.375-6.438,1.312l3.439,7.196l0.012,0.001c-2.371,0.64-5.998,1.926-7.539,4.115
c-2.349,3.337-4.575,6.807-7.162,25.495H174.698z"/>
<g>
<path fill="#483525" d="M1.009,100.287c2.62-18.902,4.881-22.118,7.07-25.228c1.482-2.106,5.186-3.36,7.261-3.921
c0.234-0.062,0.384-0.286,0.362-0.528c-0.007-0.082-0.035-0.158-0.078-0.224l-3.207-6.71c2.234-1.099,4.613-1.093,5.426-1.054
l0.386,1.014c0.076,0.198,0.276,0.344,0.477,0.322l2.221-0.046l-2.882,6.641c-0.034,0.056-0.058,0.119-0.067,0.188
c-0.035,0.246,0.116,0.48,0.355,0.551c2.328,0.679,5.38,1.884,6.706,3.767c2.188,3.109,4.449,6.325,7.069,25.228h1.009
c-2.662-19.257-5-22.589-7.261-25.804c-1.384-1.967-4.301-3.234-6.696-3.985l2.996-6.902c0.067-0.156,0.051-0.336-0.044-0.478
c-0.095-0.142-0.249-0.203-0.425-0.222l-2.648,0.056l-0.375-0.983c-0.066-0.176-0.227-0.299-0.413-0.319
c0,0-0.346-0.038-0.918-0.038c-1.236,0-3.635,0.184-5.819,1.412c-0.23,0.129-0.319,0.414-0.206,0.651l3.185,6.663
c-2.602,0.758-5.763,2.061-7.23,4.146C4.999,77.698,2.662,81.03,0,100.287H1.009z"/>
</g>
<polygon fill="#483525" points="17.758,67.646 17.697,62.106 18.693,62.186 	"/>
<path fill="#483525" d="M11.362,76.397c0.286-1.243,0.838-2.437,1.607-3.496c0.77-1.059,1.811-1.961,3.039-2.551l0.377,0.926
C14.103,72.006,12.259,74.026,11.362,76.397z"/>
<path fill="#483525" d="M22.154,77.313c-0.152-1.341-0.646-2.632-1.415-3.684c-0.768-1.058-1.862-1.806-3.06-2.183l0.365-0.932
c1.316,0.601,2.44,1.613,3.115,2.845C21.841,74.585,22.166,75.962,22.154,77.313z"/>
<path fill="none" stroke="#483525" stroke-miterlimit="10" d="M15.209,70.656c0,0,0.86,0.783,3.444,0.241"/>
<g>
<path fill="#483525" d="M24.934,73.857c1.715-1.275,4.156-2.105,5.902-2.577c0.234-0.063,0.391-0.286,0.368-0.527
c-0.007-0.072-0.028-0.14-0.062-0.2c-0.128-0.251-1.922-3.998-3.229-6.734c2.212-1.089,4.602-1.092,5.425-1.053l0.386,1.013
c0.076,0.197,0.262,0.322,0.479,0.322l2.221-0.046l-2.908,6.7c-0.058,0.132-0.056,0.281,0.006,0.411
c0.061,0.13,0.174,0.228,0.312,0.268c2.326,0.681,5.377,1.886,6.699,3.768c2.184,3.102,4.438,6.312,7.051,25.086h1.009
c-2.653-19.13-4.985-22.455-7.241-25.662c-1.383-1.966-4.301-3.235-6.695-3.986l2.994-6.901c0.068-0.156,0.053-0.336-0.043-0.478
c-0.095-0.142-0.26-0.199-0.426-0.222l-2.647,0.056L34.16,62.11c-0.067-0.176-0.227-0.299-0.414-0.319
c-0.146-0.018-3.633-0.373-6.736,1.374c-0.229,0.129-0.319,0.414-0.206,0.651c1.866,3.904,2.755,5.764,3.222,6.653
c-1.771,0.514-4.026,1.349-5.689,2.585c-0.222,0.165-0.268,0.479-0.102,0.7C24.398,73.976,24.713,74.022,24.934,73.857z"/>
</g>
<polygon fill="#483525" points="31.9,67.573 30.381,62.246 31.363,62.06 	"/>
<polygon fill="#483525" points="33.156,70.572 33.562,63.275 34.555,63.398 	"/>
<path fill="#483525" d="M26.859,76.539c0.286-1.243,0.838-2.437,1.607-3.496c0.77-1.06,1.811-1.961,3.038-2.551l0.377,0.926
C29.601,72.147,27.756,74.168,26.859,76.539z"/>
<path fill="#483525" d="M37.651,77.455c-0.153-1.341-0.646-2.632-1.415-3.684c-0.768-1.059-1.861-1.805-3.06-2.184l0.365-0.932
c1.317,0.602,2.439,1.613,3.114,2.845C37.338,74.726,37.663,76.103,37.651,77.455z"/>
<path fill="none" stroke="#483525" stroke-miterlimit="10" d="M30.706,70.798c0,0,0.86,0.783,3.444,0.241"/>
<g>

<line fill="none" stroke="#483525" stroke-width="0.3" stroke-linecap="round" stroke-linejoin="round" x1="28.577" y1="80.706" x2="28.086" y2="80.8"/>

<line fill="none" stroke="#483525" stroke-width="0.3" stroke-linecap="round" stroke-linejoin="round" stroke-dasharray="1.0232,1.0232" x1="27.082" y1="80.995" x2="9.501" y2="84.392"/>
<polyline fill="none" stroke="#483525" stroke-width="0.3" stroke-linecap="round" stroke-linejoin="round" points="8.998,84.489 
8.508,84.584 8.639,85.066 		"/>

<line fill="none" stroke="#483525" stroke-width="0.3" stroke-linecap="round" stroke-linejoin="round" stroke-dasharray="1.0506,1.0506" x1="8.914" y1="86.08" x2="10.427" y2="91.657"/>
<polyline fill="none" stroke="#483525" stroke-width="0.3" stroke-linecap="round" stroke-linejoin="round" points="
10.564,92.164 10.695,92.646 11.184,92.541 		"/>

<line fill="none" stroke="#483525" stroke-width="0.3" stroke-linecap="round" stroke-linejoin="round" stroke-dasharray="1.0042,1.0042" x1="12.165" y1="92.328" x2="29.341" y2="88.608"/>

<line fill="none" stroke="#483525" stroke-width="0.3" stroke-linecap="round" stroke-linejoin="round" x1="29.832" y1="88.502" x2="30.32" y2="88.396"/>
</g>
<g>

<path fill="#483525" stroke="#483525" stroke-width="0.25" stroke-linecap="round" stroke-linejoin="round" stroke-miterlimit="10" d="
M17.314,89.009c-0.397-1.067-0.771-1.979-1.243-2.947c-0.158,0.775-0.143,1.547-0.237,2.226c-0.125,0.043-0.41,0.057-0.527,0.08
c-0.067-0.276-0.769-1.448-1.003-1.981c0.069,0.783-0.056,2.56-0.106,3.213l-0.333,0.033c-0.097-1.283,0.108-2.543-0.04-3.804
c0.201-0.075,0.423-0.07,0.539-0.076c0.165-0.006,0.925,1.726,1.095,1.996c0.134-0.714,0.115-1.763,0.204-2.318
c0.188-0.026,0.309-0.034,0.53-0.058c0.541,1.116,1.013,2.357,1.509,3.521L17.314,89.009z"/>

<path fill="#483525" stroke="#483525" stroke-width="0.25" stroke-linecap="round" stroke-linejoin="round" stroke-miterlimit="10" d="
M17.873,84.901c0.553,0.594,1.015,1.376,1.533,2.024c0.126-0.724,0.257-1.525,0.354-2.287c0.094-0.303,0.391-0.151,0.455,0.091
c-0.372,1.532-0.595,2.791-1.036,4.037l-0.348,0.004c0.212-0.812,0.252-0.943,0.404-1.455c-0.333-0.548-1.091-1.481-1.582-2.104
L17.873,84.901z"/>

<path fill="#483525" stroke="#483525" stroke-width="0.25" stroke-linecap="round" stroke-linejoin="round" stroke-miterlimit="10" d="
M24.083,87.696c-0.255,0.134-0.625,0.253-0.881,0.193c-0.622-0.146-0.966-1.107-1.469-1.322c0.104,0.434,0.237,0.983,0.34,1.411
c-0.031,0.316-0.395,0.218-0.489-0.007c-0.051-0.338-0.596-3.231-0.655-3.69l0.245,0.005c0.089,0.388,0.246,0.976,0.334,1.357
c0.424-0.263,0.501-1.204,0.789-1.589c0.179-0.241,0.751-0.234,1-0.234l-0.012,0.218c-0.253,0.012-0.381-0.018-0.547,0.089
c-0.525,0.332-0.32,1.244-0.92,1.869c0.633,0.394,1.193,1.527,1.498,1.638c0.21,0.074,0.495-0.027,0.712-0.132L24.083,87.696z"/>

<path fill="#483525" stroke="#483525" stroke-width="0.25" stroke-linecap="round" stroke-linejoin="round" stroke-miterlimit="10" d="
M25.777,83.371c0.531,1.184,1.359,2.18,1.915,3.343c0.1,0.361-0.24,0.459-0.366,0.168c-0.141-0.315-0.329-0.594-0.494-0.854
c-0.578,0.038-0.813,0.053-1.374,0.104c-0.058,0.372-0.038,0.883-0.084,1.26c-0.141,0.26-0.469,0.099-0.49-0.151
c0.084-1.259,0.393-2.506,0.494-3.818L25.777,83.371z M25.456,85.872c0.438-0.082,0.843-0.186,1.25-0.224
c-0.38-0.516-0.804-1.134-1.042-1.735C25.682,84.493,25.556,85.293,25.456,85.872z"/>
</g>
<g>
<path fill="none" stroke="#483525" stroke-width="0.3" stroke-linecap="round" stroke-linejoin="round" d="M43.588,80.829
c-0.16,0.031-0.324,0.062-0.488,0.095"/>

<path fill="none" stroke="#483525" stroke-width="0.3" stroke-linecap="round" stroke-linejoin="round" stroke-dasharray="0.9282,0.9282" d="
M42.191,81.098c-3.927,0.759-8.541,1.65-10.489,2.026"/>
<path fill="none" stroke="#483525" stroke-width="0.3" stroke-linecap="round" stroke-linejoin="round" d="M31.245,83.214
c-0.314,0.061-0.486,0.094-0.486,0.094l0.131,0.482"/>

<line fill="none" stroke="#483525" stroke-width="0.3" stroke-linecap="round" stroke-linejoin="round" stroke-dasharray="0.9229,0.9229" x1="31.131" y1="84.68" x2="32.46" y2="89.58"/>
<path fill="none" stroke="#483525" stroke-width="0.3" stroke-linecap="round" stroke-linejoin="round" d="M32.581,90.025
l0.131,0.482c0,0,0.173-0.037,0.483-0.104"/>

<path fill="none" stroke="#483525" stroke-width="0.3" stroke-linecap="round" stroke-linejoin="round" stroke-dasharray="0.9486,0.9486" d="
M34.119,90.203c2.291-0.496,6.939-1.503,10.658-2.308"/>
<path fill="none" stroke="#483525" stroke-width="0.3" stroke-linecap="round" stroke-linejoin="round" d="M45.254,87.792
c0.165-0.036,0.327-0.071,0.487-0.105"/>
</g>
<g>

<path fill="#483525" stroke="#483525" stroke-width="0.25" stroke-linecap="round" stroke-linejoin="round" stroke-miterlimit="10" d="
M38.624,87.259c-0.355-0.953-0.688-1.767-1.109-2.632c-0.142,0.691-0.128,1.382-0.213,1.988c-0.112,0.036-0.366,0.049-0.472,0.07
c-0.059-0.246-0.686-1.292-0.895-1.771c0.061,0.701-0.05,2.287-0.096,2.871l-0.296,0.028c-0.087-1.145,0.097-2.271-0.035-3.396
c0.18-0.067,0.378-0.062,0.481-0.067c0.147-0.006,0.826,1.541,0.978,1.782c0.119-0.638,0.104-1.575,0.182-2.071
c0.168-0.023,0.276-0.03,0.475-0.051c0.483,0.997,0.904,2.104,1.346,3.145L38.624,87.259z"/>

<path fill="#483525" stroke="#483525" stroke-width="0.25" stroke-linecap="round" stroke-linejoin="round" stroke-miterlimit="10" d="
M39.121,83.591c0.493,0.528,0.906,1.227,1.37,1.808c0.112-0.646,0.229-1.363,0.315-2.043c0.084-0.27,0.35-0.135,0.407,0.081
c-0.333,1.369-0.531,2.493-0.927,3.607l-0.31,0.003c0.189-0.726,0.225-0.843,0.361-1.301c-0.296-0.489-0.975-1.323-1.413-1.878
L39.121,83.591z"/>

<path fill="#483525" stroke="#483525" stroke-width="0.25" stroke-linecap="round" stroke-linejoin="round" stroke-miterlimit="10" d="
M44.668,86.087c-0.229,0.12-0.559,0.227-0.787,0.173c-0.556-0.13-0.862-0.989-1.312-1.181c0.094,0.387,0.212,0.878,0.304,1.26
c-0.027,0.283-0.352,0.195-0.437-0.006c-0.046-0.302-0.532-2.887-0.585-3.297l0.219,0.005c0.079,0.346,0.22,0.872,0.298,1.213
c0.379-0.235,0.447-1.076,0.705-1.42c0.159-0.216,0.67-0.209,0.892-0.21l-0.01,0.196c-0.226,0.01-0.34-0.016-0.489,0.078
c-0.47,0.298-0.285,1.111-0.821,1.67c0.565,0.352,1.066,1.365,1.339,1.463c0.187,0.066,0.44-0.024,0.635-0.117L44.668,86.087z"/>
</g>
<g>
<path fill="#483525" d="M143.102,100.158c2.619-18.884,4.88-22.1,7.067-25.207c1.482-2.107,5.186-3.36,7.26-3.921
c0.234-0.062,0.384-0.286,0.362-0.528c-0.008-0.082-0.035-0.158-0.078-0.224l-3.207-6.71c2.234-1.099,4.613-1.093,5.426-1.054
l0.387,1.014c0.073,0.194,0.26,0.322,0.467,0.322h0.011l2.22-0.046l-2.88,6.635c-0.035,0.058-0.06,0.123-0.07,0.194
c-0.035,0.246,0.116,0.48,0.355,0.551c2.328,0.679,5.381,1.884,6.705,3.767c2.188,3.107,4.448,6.323,7.067,25.207h1.008
c-2.659-19.238-4.995-22.57-7.257-25.783c-1.384-1.966-4.301-3.234-6.696-3.985l2.996-6.902c0.067-0.156,0.051-0.336-0.044-0.478
c-0.095-0.142-0.25-0.208-0.426-0.222l-2.647,0.056l-0.375-0.983c-0.066-0.176-0.227-0.299-0.412-0.319
c0,0-0.347-0.038-0.918-0.038c-1.235,0-3.635,0.184-5.819,1.412c-0.23,0.129-0.319,0.414-0.206,0.651l3.185,6.663
c-2.601,0.758-5.762,2.06-7.23,4.146c-2.262,3.213-4.598,6.545-7.257,25.783H143.102z"/>
</g>
<polygon fill="#483525" points="159.515,66.808 159.454,61.268 160.45,61.348 	"/>
<path fill="#483525" d="M153.118,75.559c0.287-1.243,0.838-2.437,1.607-3.496c0.77-1.06,1.811-1.961,3.039-2.551l0.377,0.926
C155.86,71.168,154.015,73.188,153.118,75.559z"/>
<path fill="#483525" d="M164.245,77.205c-0.153-1.341-0.646-2.632-1.415-3.684c-0.769-1.059-1.862-1.805-3.061-2.184l0.365-0.932
c1.316,0.602,2.439,1.613,3.115,2.845C163.931,74.476,164.257,75.853,164.245,77.205z"/>
<path fill="none" stroke="#483525" stroke-miterlimit="10" d="M157.3,70.548c0,0,0.859,0.783,3.443,0.241"/>
<g>
<polyline fill="none" stroke="#483525" stroke-width="0.3" stroke-linecap="round" stroke-linejoin="round" points="
167.801,89.175 167.911,89.663 167.423,89.768 		"/>

<line fill="none" stroke="#483525" stroke-width="0.3" stroke-linecap="round" stroke-linejoin="round" stroke-dasharray="1.0042,1.0042" x1="166.441" y1="89.981" x2="149.266" y2="93.701"/>
<polyline fill="none" stroke="#483525" stroke-width="0.3" stroke-linecap="round" stroke-linejoin="round" points="
148.774,93.807 148.286,93.913 148.155,93.43 		"/>

<line fill="none" stroke="#483525" stroke-width="0.3" stroke-linecap="round" stroke-linejoin="round" stroke-dasharray="1.0506,1.0506" x1="147.88" y1="92.417" x2="146.367" y2="86.84"/>
<polyline fill="none" stroke="#483525" stroke-width="0.3" stroke-linecap="round" stroke-linejoin="round" points="
146.229,86.333 146.099,85.85 146.59,85.756 		"/>

<line fill="none" stroke="#483525" stroke-width="0.3" stroke-linecap="round" stroke-linejoin="round" stroke-dasharray="1.0231,1.0231" x1="147.594" y1="85.561" x2="165.174" y2="82.164"/>
<polyline fill="none" stroke="#483525" stroke-width="0.3" stroke-linecap="round" stroke-linejoin="round" points="
165.676,82.067 166.167,81.972 166.277,82.46 		"/>

<line fill="none" stroke="#483525" stroke-width="0.3" stroke-linecap="round" stroke-linejoin="round" stroke-dasharray="0.9837,0.9837" x1="166.495" y1="83.42" x2="167.691" y2="88.695"/>
</g>
<g>

<path fill="#483525" stroke="#483525" stroke-width="0.25" stroke-linecap="round" stroke-linejoin="round" stroke-miterlimit="10" d="
M154.905,90.276c-0.398-1.067-0.771-1.979-1.243-2.947c-0.158,0.775-0.143,1.547-0.237,2.226c-0.125,0.043-0.41,0.057-0.527,0.08
c-0.067-0.276-0.769-1.448-1.003-1.981c0.069,0.783-0.056,2.56-0.105,3.213l-0.333,0.033c-0.097-1.283,0.108-2.543-0.04-3.804
c0.201-0.075,0.423-0.07,0.539-0.076c0.165-0.006,0.925,1.726,1.095,1.996c0.134-0.714,0.115-1.763,0.204-2.318
c0.188-0.026,0.309-0.034,0.53-0.058c0.541,1.116,1.013,2.357,1.509,3.521L154.905,90.276z"/>

<path fill="#483525" stroke="#483525" stroke-width="0.25" stroke-linecap="round" stroke-linejoin="round" stroke-miterlimit="10" d="
M155.464,86.168c0.553,0.594,1.015,1.376,1.533,2.024c0.126-0.724,0.257-1.525,0.354-2.287c0.094-0.303,0.391-0.151,0.455,0.091
c-0.372,1.532-0.595,2.791-1.036,4.037l-0.348,0.004c0.212-0.812,0.252-0.943,0.404-1.455c-0.333-0.548-1.091-1.481-1.582-2.104
L155.464,86.168z"/>

<path fill="#483525" stroke="#483525" stroke-width="0.25" stroke-linecap="round" stroke-linejoin="round" stroke-miterlimit="10" d="
M161.674,88.963c-0.255,0.134-0.625,0.253-0.881,0.193c-0.622-0.146-0.966-1.107-1.469-1.322c0.104,0.434,0.237,0.983,0.34,1.411
c-0.031,0.316-0.395,0.218-0.489-0.007c-0.051-0.338-0.596-3.231-0.655-3.69l0.245,0.005c0.089,0.388,0.246,0.976,0.334,1.357
c0.424-0.263,0.501-1.204,0.789-1.589c0.179-0.241,0.751-0.234,1-0.234l-0.012,0.218c-0.253,0.012-0.381-0.018-0.547,0.089
c-0.525,0.332-0.32,1.244-0.92,1.869c0.633,0.394,1.193,1.527,1.498,1.638c0.21,0.074,0.495-0.027,0.712-0.132L161.674,88.963z"/>

<path fill="#483525" stroke="#483525" stroke-width="0.25" stroke-linecap="round" stroke-linejoin="round" stroke-miterlimit="10" d="
M163.368,84.637c0.531,1.184,1.359,2.18,1.915,3.343c0.1,0.361-0.24,0.459-0.366,0.168c-0.141-0.315-0.329-0.594-0.494-0.854
c-0.578,0.038-0.813,0.053-1.374,0.104c-0.058,0.372-0.038,0.883-0.084,1.26c-0.141,0.26-0.469,0.099-0.49-0.151
c0.084-1.259,0.393-2.506,0.494-3.818L163.368,84.637z M163.047,87.138c0.438-0.082,0.843-0.186,1.25-0.224
c-0.38-0.516-0.804-1.134-1.042-1.735C163.272,85.759,163.146,86.559,163.047,87.138z"/>
</g>
<path fill="#9CB2DE" d="M103.771,89.54c0.59-5.75,4.83-14.159,4.83-14.159l20.88,0.94l-0.25,14.37c0,0-7.94,0.63-13.5,0.31
C109.741,90.671,103.771,89.54,103.771,89.54z"/>
<path fill="#9CB2DE" d="M152.081,100.24h-57.77c-0.34-1.89-0.43-3.72-0.32-5.49l0.32,0.021c0,0,21.49,8.25,53.77-0.65l0.33-0.5
C149.642,95,151.271,97.27,152.081,100.24z"/>
<path fill="#9CB2DE" d="M94.562,92.32c0,0,17.229,6.62,44,1.61l0.11-0.2c2.1,1.17,5.02,1.15,7.63-1.08
c0.21-0.18,0.399-0.37,0.55-0.56c0.1,0.09,0.74,0.609,1.56,1.529l-0.33,0.5c-32.279,8.9-53.77,0.65-53.77,0.65l-0.32-0.021
c0.04-0.84,0.13-1.67,0.271-2.479L94.562,92.32z"/>
<path fill="#9CB2DE" d="M108.411,70.52c-0.71,0-1.37,0.49-1.699,1.189l-0.811-0.31c0.38-0.78,0.63-1.6,0.79-2.32
c0-0.02,0.01-0.029,0.01-0.05c0.101-0.47,0.17-0.89,0.21-1.24c0.011-0.02,0.011-0.029,0.011-0.05
c1.97-10.59,5.399-14.72,5.399-14.72c0.76,0.13,1.47,0.2,2.09,0.229v0.011c-3.449,6.75-4.689,14.69-5.05,17.6
C109.102,70.65,108.781,70.52,108.411,70.52z"/>
<path fill="#9CB2DE" d="M109.361,70.86c0.36-2.91,1.601-10.85,5.05-17.6V53.25c0.431,0.03,0.811,0.04,1.15,0.04v0.23
c-1.21,2.25-3.97,8.29-5.01,17.89c0,0,15.58,1.261,19.97,0.75c1.3-9.45,4.65-17.069,4.65-17.069c0.5,0.06,1.01,0.109,1.51,0.149
c0,0-3.13,5.54-4.91,17.25c-0.41,0.25-0.74,0.67-0.9,1.17l-0.26-0.1c-3.53-0.021-16.07-0.19-20.64-1.34
C109.962,71.66,109.731,71.171,109.361,70.86z"/>
<path fill="#9CB2DE" d="M106.501,72.47c-0.109,1.069,0.58,1.939,1.54,1.939c0.95,0,1.811-0.87,1.921-1.939
c0.01-0.08,0.01-0.17,0.01-0.25c4.569,1.149,17.109,1.319,20.64,1.34l0.26,0.1c-0.06,0.16-0.1,0.33-0.12,0.511
c-0.1,1.069,0.591,1.939,1.54,1.939c0.96,0,1.82-0.87,1.921-1.939c0.1-1.08-0.591-1.95-1.54-1.95c-0.32,0-0.631,0.1-0.9,0.27
c1.78-11.71,4.91-17.25,4.91-17.25c1.16,0.08,2.26,0.101,3.13,0c0.17-0.019,0.34-0.04,0.5-0.069c0,0-0.12,0.149-0.32,0.46
c-1.04,1.59-4.27,7.439-4.609,19.3c0,0,0.869,5.81,5.42,5.42c0.21,0.31,0.43,0.609,0.689,0.88c-0.42,0.53-0.87,1.11-1.33,1.72
c0,0-4.609,2.01-4.42,6.29c0.08,1.891,1.24,3.57,2.931,4.49l-0.11,0.2c-26.77,5.01-44-1.61-44-1.61l-0.3-0.05
c0.59-3.8,2.01-7.25,3.62-10.14c2.56-4.61,5.609-7.801,6.619-8.761c0.601-0.56,1.051-1.25,1.4-1.97l0.811,0.31
C106.602,71.94,106.521,72.2,106.501,72.47z M108.602,75.381c0,0-4.24,8.409-4.83,14.159c0,0,5.97,1.131,11.96,1.46
c5.56,0.32,13.5-0.31,13.5-0.31l0.25-14.37L108.602,75.381z"/>
<path fill="#ED9C1C" d="M109.312,72.49c0.01-0.21-0.12-0.39-0.29-0.399c-0.17,0-0.32,0.149-0.34,0.35c0,0.01,0,0.01,0,0.02
c-0.01,0.211,0.12,0.381,0.29,0.391C109.142,72.86,109.291,72.7,109.312,72.49z M106.712,71.71
c0.329-0.699,0.989-1.189,1.699-1.189c0.37,0,0.691,0.13,0.95,0.34c0.37,0.311,0.601,0.8,0.61,1.36c0,0.08,0,0.17-0.01,0.25
c-0.11,1.069-0.971,1.939-1.921,1.939c-0.96,0-1.649-0.87-1.54-1.939C106.521,72.2,106.602,71.94,106.712,71.71z M107.321,72.57
c0.16,0.01,0.3-0.13,0.33-0.31c0.01-0.021,0.01-0.03,0.01-0.051c0.011-0.21-0.12-0.39-0.29-0.399c-0.17,0-0.319,0.16-0.33,0.37
C107.021,72.39,107.151,72.56,107.321,72.57z"/>
<path fill="#ED9C1C" d="M133.512,74.21c0.02-0.21-0.11-0.38-0.29-0.39c-0.16-0.01-0.3,0.14-0.32,0.33
c-0.01,0.01-0.01,0.021-0.01,0.03c-0.01,0.21,0.12,0.39,0.29,0.399C133.352,74.58,133.501,74.421,133.512,74.21z M132.291,76.11
c-0.949,0-1.64-0.87-1.54-1.939c0.021-0.181,0.061-0.351,0.12-0.511c0.16-0.5,0.49-0.92,0.9-1.17c0.27-0.17,0.58-0.27,0.9-0.27
c0.949,0,1.64,0.87,1.54,1.95C134.111,75.24,133.251,76.11,132.291,76.11z M131.871,73.93c0.011-0.21-0.12-0.38-0.29-0.391
c-0.17-0.01-0.319,0.15-0.34,0.36c-0.01,0.21,0.12,0.39,0.29,0.4c0.17,0,0.311-0.141,0.33-0.33
C131.871,73.96,131.871,73.94,131.871,73.93z"/>
<path fill="#F5F5F5" d="M118.291,50.2l-0.489-4.029c1.64-0.881,2.58-2.021,2.58-2.021l-0.07,6.12v0.01L118.291,50.2z"/>
<path fill="#F5F5F5" d="M120.312,50.27l0.07-6.12c0.859,1.17,1.779,2.03,2.72,2.64l-0.57,3.58l-2.22-0.09V50.27z"/>
<path fill="#9A6444" d="M116.182,23.71c-3.08-2.55-3.32-7.3,0.35-7.819c3.74-0.53,4.34,4.05,4.4,4.729
c-0.061,0.011-0.13,0.04-0.19,0.06c-0.41,0.149-0.79,0.3-1.14,0.46C117.991,21.881,117.012,22.74,116.182,23.71z"/>
<path fill="#FACC63" d="M62.481,90.02c0.29,0.06,0.59,0.11,0.89,0.16c0,0-0.83,6.729-0.489,10.06h-14.44
c0.98-4.439,1-13.89,1-13.89C52.001,87.341,56.741,88.98,62.481,90.02z"/>
<path fill="#ED9C1C" d="M44.401,85.631c0,0,0.33-1.051,1.05-1.78c0,0-0.13,1.62,1.061,3.2c0,0,0.06-0.67,0.85-1.561
c0,0,0.75,0.34,2.08,0.86c0,0-0.02,9.45-1,13.89h-8.04c1.811-12.74-1.01-27.069-1.14-27.74C41.142,77.23,43.691,83.5,44.401,85.631
z"/>
<path fill="#ED9C1C" d="M67.531,90.74l0.28,9.5h-4.93c-0.341-3.33,0.489-10.06,0.489-10.06C64.712,90.41,66.102,90.6,67.531,90.74z
"/>
<path fill="#ED9C1C" d="M63.021,84.16c0.3-3.319,0.96-6.779,1.56-9.51l1.471-5.85c-0.17-0.36-0.42-0.87-0.721-1.45
c0.011-0.01,0.011-0.01,0.011-0.01c-0.181-0.45-0.431-1.04-0.761-1.7v-6.97c0.431,0.659,2.4,4.22,2.25,13.739
c-0.159,10.66,0.7,12.87,0.7,12.87v0.01C66.092,84.97,64.481,84.591,63.021,84.16z"/>
<path fill="#ED9C1C" d="M70.621,90.96c-1.04-0.039-2.08-0.119-3.09-0.22c-1.43-0.14-2.819-0.33-4.16-0.56
c-0.3-0.05-0.6-0.101-0.89-0.16l0.35-1.87l0.021-0.05c-0.021-1.25,0.05-2.58,0.17-3.94c1.46,0.431,3.07,0.811,4.51,1.13
c1.61,0.351,3.021,0.61,3.83,0.75c0,0,2.77-3.17,4.83-3.92c1.7-0.62,4.37-1.18,5.13,0c0.17,0.25,0.25,0.58,0.21,1.011v0.01
c-4.81,1.16-6.53,4.58-5.22,5.54c1.38,1,4.189-0.63,4.939-1.94c0.271-0.47,0.74-0.88,1.23-1.22c0,0,0,0,0.01-0.01
c0.23-0.09,3.17-1.271,3.95,0.359c0.29,0.61-0.07,1.2-0.729,1.721c0,0,0.93,0.279,1.289,1.109c0.171,0.38,0.221,0.891,0,1.54
c-0.149,0.47-0.529,0.851-1.02,1.16c0,0,0.9,1.97-1.35,3.03c-0.37,0.18-0.881,0.359-1.49,0.529c-1.01,0.271-2.28,0.471-3.68,0.45
c-1.171-0.02-2.431-0.2-3.69-0.64c-1.16-0.41-2.33-1.03-3.41-1.96c-0.61-0.51-1.189-1.12-1.74-1.84V90.96z"/>
<path fill="#ED9C1C" d="M37.481,67.93c-2.8-7.681-0.65-10.851,2.55-12.48c-0.97,0.84-1.5,1.92-1.569,2.84
c-0.07,1.16,0.279,2.681,0.399,3.08c0.21,0.011,0.43,0.03,0.65,0.051c2.79,0.21,5.399,0.51,7.79,0.89
c0.37,1.53,0.58,3.37,0.689,5.31c0.021,0.08,0.03,0.16,0.05,0.25c0.32,5.91-0.26,12.62-0.029,14.12l-0.05,0.08
c2.479,1.4,5.68,2.97,10.109,4.49c1.13,0.38,2.78,0.76,4.76,1.59l-0.35,1.87c-5.74-1.04-10.48-2.68-13.04-3.67
c-1.33-0.521-2.08-0.86-2.08-0.86c-0.79,0.891-0.85,1.561-0.85,1.561c-1.19-1.58-1.061-3.2-1.061-3.2
c-0.72,0.729-1.05,1.78-1.05,1.78c-0.71-2.131-3.26-8.4-5.14-13.131c-0.011-0.02-0.011-0.029-0.011-0.029
C38.501,70.591,37.861,68.95,37.481,67.93z"/>
<path fill="#9A6444" d="M72.361,92.81c1.08,0.93,2.25,1.55,3.41,1.96c0,0-0.03,0.07-0.07,0.18h-0.069c0,0-2.091,1.75-3.301,0.54
C71.121,94.28,72.361,92.81,72.361,92.81z"/>
<path fill="#9A6444" d="M75.771,94.77c1.26,0.439,2.52,0.62,3.69,0.64c0,0-0.021,0.16-0.11,0.38V95.8
c-0.21,0.52-0.8,1.39-2.351,1.27c-1.819-0.13-1.479-1.61-1.3-2.12C75.741,94.841,75.771,94.77,75.771,94.77z"/>
<path fill="#9A6444" d="M79.462,95.41c1.399,0.021,2.67-0.18,3.68-0.45c-2.29,3.921-3.79,0.841-3.79,0.841V95.79
C79.441,95.57,79.462,95.41,79.462,95.41z"/>
<path fill="#AD7448" d="M106.922,67.74c0,0.021,0,0.03-0.011,0.05c-0.069,0.4-0.14,0.82-0.21,1.24c0,0.021-0.01,0.03-0.01,0.05
c-0.16,0.721-0.41,1.54-0.79,2.32c-0.35,0.72-0.8,1.41-1.4,1.97c-1.01,0.96-4.06,4.15-6.619,8.761c0,0-5.381,2.029-7.301,2.859
c-1.909,0.83-3.58,3.71-3.58,3.71c-0.359-0.83-1.289-1.109-1.289-1.109c0.659-0.521,1.02-1.11,0.729-1.721
c-0.78-1.63-3.72-0.449-3.95-0.359c-0.01,0.01-0.01,0.01-0.01,0.01c-0.49,0.34-0.96,0.75-1.23,1.22
c-0.75,1.311-3.56,2.94-4.939,1.94c-1.311-0.96,0.41-4.38,5.22-5.54v-0.01c0.04-0.431-0.04-0.761-0.21-1.011l0.02-0.01
c7.47-0.62,12.659-6.37,12.659-6.37c3.131-3.87,8.131-11.62,10.631-16.62s7.35-6.16,7.35-6.16c0.11,0.021,0.23,0.04,0.34,0.061
C112.321,53.02,108.892,57.15,106.922,67.74z"/>
<path fill="#AD7448" d="M115.672,53.2c1.239,1.08,3.199,2.21,6.04,2.42c3.239,0.24,5.81-0.449,7.71-1.46
c0.77,0.16,3.23,0.65,5.75,0.931c0,0-3.351,7.619-4.65,17.069c-4.39,0.511-19.97-0.75-19.97-0.75c1.04-9.6,3.8-15.64,5.01-17.89
v-0.23c0.01,0,0.02,0,0.03,0L115.672,53.2z"/>
<path fill="#AD7448" d="M141.491,81.23c5.771-7.29,7.9-7.67,7.9-7.67l0.01-0.01c-0.54-0.591-1.66-1.181-3.95-1.341
c-2.939-0.199-4.68-1.319-5.6-2.189c0,0-1.61,6.41,0.95,10.33c-4.551,0.39-5.42-5.42-5.42-5.42c0.34-11.86,3.569-17.71,4.609-19.3
c0.69,0.659,3.08,2.84,5.99,4.21c3.74,1.77,14.19,7.359,10.93,18.239c0,0-0.37-1.52-0.88-2.109c0,0-0.97,8.14-11.76,11
c1.35-0.41,4.64,2.569,2.58,5.12c-0.15,0.189-0.34,0.38-0.55,0.56c-2.61,2.23-5.53,2.25-7.63,1.08c-1.69-0.92-2.851-2.6-2.931-4.49
c-0.189-4.28,4.42-6.29,4.42-6.29C140.621,82.341,141.071,81.76,141.491,81.23z"/>
<path fill="#AD7448" d="M132.501,26.4c-1.84,0.25-1.659,2.25,0.961,2.4c2.01,0.12,2.51,0.909,2.51,0.39
C135.962,28.22,134.422,26.14,132.501,26.4z M132.222,31.65c-3.05,0.07-2.75,3.12-2.75,3.12s1.99-3.61,6.72-0.84
C136.191,33.93,134.722,31.58,132.222,31.65z M115.151,28.19c0,0.51,0.5-0.269,2.51-0.39c2.62-0.15,2.811-2.15,0.96-2.4
C116.701,25.131,115.161,27.21,115.151,28.19z M116.401,30.96c-2.12-0.059-3.37,2.28-3.37,2.28c4.021-2.769,5.71,0.851,5.71,0.851
S118.991,31.04,116.401,30.96z M120.382,44.15c0,0-0.94,1.14-2.58,2.021l0.489,4.029l2.021,0.08l2.22,0.09l0.57-3.58
C122.161,46.18,121.241,45.32,120.382,44.15z M117.231,40.82c2.67,4.8,5.4,2.73,7-0.04c1.03-1.77-4.44-1.79-5.83-1.479
C116.422,39.75,117.231,40.82,117.231,40.82z M112.321,53.02c-0.109-0.021-0.23-0.04-0.34-0.061c-3.13-0.59-6.95-2.119-8.93-5.779
c-3.38-6.23-0.21-12.04,5.66-15.86c4.659-3.02,5.71-5.57,7.47-7.61c0.83-0.97,1.81-1.829,3.42-2.569
c0.35-0.16,0.729-0.311,1.14-0.46c0.061-0.021,0.13-0.05,0.19-0.06c3.62-1.27,9.52-1.93,14.37,0.61c1.93-2.07,5.31-4.79,8.58-3.11
c4.25,2.181,0.02,8.31-2.011,10.42c1.32,2.061,3.391,4.46,6.69,8.391c5.92,7.02,3.49,16.6-8.25,18.24
c-0.16,0.029-0.33,0.05-0.5,0.069c-0.87,0.101-1.97,0.08-3.13,0c-0.5-0.04-1.01-0.09-1.51-0.149c-2.52-0.28-4.98-0.771-5.75-0.931
c-1.9,1.011-4.471,1.7-7.71,1.46c-2.841-0.21-4.801-1.34-6.04-2.42l-0.08,0.09c-0.011,0-0.02,0-0.03,0c-0.34,0-0.72-0.01-1.15-0.04
C113.791,53.22,113.081,53.15,112.321,53.02z"/>
<path fill="#483525" d="M135.972,29.19c0,0.52-0.5-0.269-2.51-0.39c-2.62-0.15-2.801-2.15-0.961-2.4
C134.422,26.14,135.962,28.22,135.972,29.19z"/>
<path fill="#483525" d="M136.191,33.93c-4.729-2.771-6.72,0.84-6.72,0.84s-0.3-3.05,2.75-3.12
C134.722,31.58,136.191,33.93,136.191,33.93z"/>
<path fill="#483525" d="M133.222,73.82c0.18,0.01,0.31,0.18,0.29,0.39c-0.011,0.211-0.16,0.37-0.33,0.37
c-0.17-0.01-0.3-0.189-0.29-0.399c0-0.01,0-0.021,0.01-0.03C132.922,73.96,133.061,73.81,133.222,73.82z"/>
<path fill="#483525" d="M131.581,73.54c0.17,0.011,0.301,0.181,0.29,0.391c0,0.01,0,0.029-0.01,0.04
c-0.02,0.189-0.16,0.33-0.33,0.33c-0.17-0.011-0.3-0.19-0.29-0.4C131.262,73.69,131.411,73.53,131.581,73.54z"/>
<path fill="#483525" d="M118.621,25.4c1.851,0.25,1.66,2.25-0.96,2.4c-2.01,0.12-2.51,0.899-2.51,0.39
C115.161,27.21,116.701,25.131,118.621,25.4z"/>
<path fill="#483525" d="M116.401,30.96c2.59,0.08,2.34,3.131,2.34,3.131s-1.689-3.62-5.71-0.851
C113.031,33.24,114.281,30.9,116.401,30.96z"/>
<path fill="#483525" d="M118.401,39.3c1.39-0.311,6.86-0.29,5.83,1.479c-1.6,2.771-4.33,4.84-7,0.04
C117.231,40.82,116.422,39.75,118.401,39.3z"/>
<path fill="#483525" d="M109.021,72.091c0.17,0.01,0.3,0.189,0.29,0.399c-0.021,0.21-0.17,0.37-0.34,0.36
c-0.17-0.01-0.3-0.18-0.29-0.391c0-0.01,0-0.01,0-0.02C108.701,72.24,108.852,72.091,109.021,72.091z"/>
<path fill="#483525" d="M107.321,72.57c-0.17-0.01-0.3-0.18-0.28-0.39c0.011-0.21,0.16-0.37,0.33-0.37
c0.17,0.01,0.301,0.189,0.29,0.399c0,0.021,0,0.03-0.01,0.051C107.621,72.44,107.481,72.58,107.321,72.57z"/>
<path fill="#FACC63" d="M65.331,67.35c-0.15-0.311-0.33-0.641-0.51-0.99c-0.08-0.189-0.16-0.37-0.24-0.55v-0.17
c0.33,0.66,0.58,1.25,0.761,1.7C65.342,67.341,65.342,67.341,65.331,67.35z"/>
<path fill="#FACC63" d="M64.821,66.36c0.18,0.35,0.36,0.68,0.51,0.99c-0.01,0.02-0.029,0.06-0.06,0.109
C65.132,67.08,64.981,66.71,64.821,66.36z"/>
<path fill="#ED9C1C" d="M64.501,58.55c-0.109-0.16-0.21-0.311-0.319-0.46C64.291,58.23,64.401,58.39,64.501,58.55z"/>
<path fill="#FACC63" d="M63.132,63.14c0.17,0.27,0.34,0.55,0.5,0.84C63.472,63.69,63.302,63.41,63.132,63.14z"/>
<path fill="#FACC63" d="M61.451,60.78c1.391,1.601,2.431,3.41,3.13,4.86v0.17c-0.3-0.65-0.619-1.26-0.949-1.83
c-0.16-0.29-0.33-0.57-0.5-0.84c-0.25-0.391-0.5-0.771-0.75-1.12c-0.051-0.08-0.11-0.16-0.17-0.24
C61.962,61.421,61.701,61.091,61.451,60.78z"/>
<path fill="#FACC63" d="M64.821,66.36c-0.85-1.63-1.87-3.479-2.44-4.34c0.25,0.35,0.5,0.729,0.75,1.12
c0.17,0.27,0.34,0.55,0.5,0.84c0.33,0.57,0.649,1.18,0.949,1.83C64.661,65.99,64.741,66.171,64.821,66.36z"/>
<path fill="#FACC63" d="M61.451,60.78c0.25,0.311,0.511,0.641,0.761,1c0,0-1.04-1.22-2.28-2.54
C60.481,59.71,60.981,60.23,61.451,60.78z"/>
<path fill="#ED9C1C" d="M64.581,65.64c-0.699-1.45-1.739-3.26-3.13-4.86c-0.47-0.55-0.97-1.07-1.52-1.54
c-0.01-0.01-0.021-0.019-0.04-0.03c-0.63-0.67-1.32-1.369-1.96-1.939c-1.9-1.72-1.99-2.4-1.99-2.4c1.8,0.641,4.64-0.21,7.21,2.09
c0.1,0.08,0.19,0.171,0.28,0.271c0.1,0.1,0.189,0.191,0.28,0.3c0.159,0.18,0.319,0.36,0.47,0.561c0.109,0.149,0.21,0.3,0.319,0.46
c0,0,0.03,0.04,0.08,0.12V65.64z"/>
<path fill="#FACC63" d="M54.451,53.44c0.08,0.18,0.19,0.36,0.32,0.56C54.632,53.81,54.531,53.62,54.451,53.44z"/>
<path fill="#FACC63" d="M54.432,53.4c0.01,0.01,0.01,0.021,0.02,0.04C54.441,53.43,54.432,53.421,54.432,53.4z"/>
<path fill="#ED9C1C" d="M51.142,80.02c0,0,4.03,0.6,8.51,2.89c0.87,0.44,2.061,0.87,3.37,1.25c-0.12,1.36-0.19,2.69-0.17,3.94
l-0.021,0.05c-1.979-0.83-3.63-1.21-4.76-1.59c-4.43-1.521-7.63-3.09-10.109-4.49l0.05-0.08c-0.23-1.5,0.35-8.21,0.029-14.12
C48.672,71.58,50.111,76.08,51.142,80.02z"/>
<path fill="#FACC63" d="M47.462,62.341c9.3,1.51,15.38,4.199,16.859,7.09l0.13-0.07c0.11-0.68,0.63-1.59,0.82-1.9
c0.03-0.05,0.05-0.09,0.06-0.109c0.301,0.58,0.551,1.09,0.721,1.45l-1.471,5.85c-0.6,2.73-1.26,6.19-1.56,9.51
c-1.31-0.38-2.5-0.81-3.37-1.25c-4.479-2.29-8.51-2.89-8.51-2.89c-1.03-3.94-2.47-8.44-3.101-12.15
c-0.109-2.029-0.329-3.96-0.72-5.55C47.371,62.32,47.411,62.33,47.462,62.341z"/>
<path fill="#ED9C1C" d="M47.462,62.341c-0.051-0.011-0.091-0.021-0.141-0.021c-0.21-0.84-0.46-1.59-0.79-2.21
c-0.04-0.11-0.1-0.21-0.17-0.31c-0.01-0.021-0.02-0.04-0.03-0.061C46.831,60.48,47.191,61.171,47.462,62.341z"/>
<path fill="#ED9C1C" d="M47.321,62.32c0,0-0.01,0-0.02-0.01c-0.21-0.84-0.46-1.58-0.771-2.2
C46.861,60.73,47.111,61.48,47.321,62.32z"/>
<path fill="#ED9C1C" d="M46.531,60.11c-0.05-0.11-0.109-0.21-0.17-0.31C46.432,59.9,46.491,60,46.531,60.11z"/>
<path fill="#FACC63" d="M45.352,58.18c0.149,0.29,0.32,0.58,0.53,0.89c-0.31-0.439-0.67-0.939-1.07-1.59
c-0.53-0.85-0.5-1.68-0.271-2.36c-0.04,0.58,0.051,1.431,0.54,2.5c0.03,0.101,0.08,0.19,0.131,0.28
C45.251,57.99,45.291,58.091,45.352,58.18z"/>
<path fill="#FACC63" d="M45.212,57.9c0.039,0.09,0.09,0.19,0.14,0.28C45.291,58.091,45.251,57.99,45.212,57.9z"/>
<path fill="#ED9C1C" d="M41.321,54.591c1.351-0.65,2.8-0.601,3.97-1.04c-0.409,0.22-0.899,0.409-1.489,0.569
c-1.271,0.34-2.59,0.73-3.771,1.33C40.401,55.12,40.831,54.83,41.321,54.591z"/>
<path fill="#ED9C1C" d="M45.302,53.77c-0.221,0.28-0.521,0.7-0.71,1.21c0.06-0.521,0.21-0.79,0.21-0.79l-0.051-0.3
C44.951,53.86,45.132,53.82,45.302,53.77z"/>
<path fill="#ED9C1C" d="M40.031,55.45c1.181-0.6,2.5-0.99,3.771-1.33c0.59-0.16,1.08-0.35,1.489-0.569
c0.12-0.04,0.24-0.091,0.351-0.141c-0.04,0.04-0.17,0.17-0.34,0.36c-0.17,0.05-0.351,0.09-0.551,0.12l0.051,0.3
c0,0-0.15,0.269-0.21,0.79c-0.02,0.05-0.04,0.09-0.051,0.14c-0.229,0.681-0.26,1.511,0.271,2.36c0.4,0.65,0.76,1.15,1.07,1.59
c0.069,0.11,0.149,0.22,0.23,0.33c0.08,0.11,0.15,0.22,0.22,0.34c0.011,0.021,0.021,0.04,0.03,0.061
c0.061,0.1,0.12,0.199,0.17,0.31c0.311,0.62,0.561,1.36,0.771,2.2c-2.391-0.38-5-0.68-7.79-0.89c-0.221-0.021-0.44-0.04-0.65-0.051
c-0.12-0.399-0.47-1.92-0.399-3.08C38.531,57.37,39.062,56.29,40.031,55.45z"/>
<path fill="#FACC63" d="M44.592,54.98c-0.07,0.57-0.03,1.47,0.489,2.64c-0.489-1.069-0.58-1.92-0.54-2.5
C44.552,55.07,44.571,55.03,44.592,54.98z"/>
<path fill="#ED9C1C" d="M64.506,58.649c-0.017-0.026-0.032-0.049-0.049-0.074c-2.862-4.313-6.462-2.97-8.601-3.729
c0,0,0.096,0.678,1.997,2.394c1.901,1.716,4.276,4.511,4.276,4.511c0.801,1.096,1.638,2.453,2.376,4.043V58.649z"/>
<g>
<g>
<path fill="#FFFFFF" d="M50.087,31.927c0.136,0.993,0.19,3.824,0.196,4.055c-1.119-0.312-2.542-0.607-4.139-0.704
c-2.232-0.137-3.879-0.684-5.196-1.405c-0.001-0.03-0.044-1.931,0.683-4.229c5.592-0.883,8.294,1.38,8.294,1.38
C49.99,31.309,50.043,31.612,50.087,31.927z M45.223,31.703c1.314-0.2,0.863-2.099,0.863-2.099l-1.219-0.048
c0,0,0.551,1.144-0.219,1.318c-0.681,0.151-0.913-0.796-0.913-0.796S43.912,31.906,45.223,31.703z"/>
</g>
</g>
<path fill="#483525" d="M47.445,29.213c-0.763,0.018-1.386,0.646-1.58,1.488c0.131-0.319,0.391-0.548,0.707-0.556
c0.453-0.01,0.832,0.427,0.846,0.976c0.013,0.548-0.346,1.002-0.799,1.013c-0.417,0.01-0.755-0.362-0.822-0.846
c0,0.006,0,0.011,0,0.016c0.026,1.133,0.807,2.034,1.744,2.012c0.938-0.021,1.677-0.958,1.65-2.091
C49.164,30.092,48.383,29.191,47.445,29.213z"/>
<g>
<g>
<path fill="#FACC63" d="M65.835,34.03c2.548,1.238,4.13,3.568,4.13,3.568s-1.571,4.311-5.622,7.688
c-3.61,3.01-7.261,4.271-9.897,5.668c0,0,0,0-0.002,0c-0.057,0.084-1.421,2.014,1.329,4.086
c6.083,4.583,8.674,10.233,9.485,12.276c0,0-0.226,2.133-0.36,2.974l-1.125-0.084c-1.482-2.887-7.093-6.382-16.394-7.892
c-0.488-2.153-1.306-2.692-2.648-4.865c-1.251-2.02,0.63-3.877,0.827-4.066c0.004-0.004,0.004-0.004,0.004-0.004
c0.226-0.112,0.441-0.248,0.641-0.418c1.27-1.098,0.163-2.727,0.163-2.727l0.006-0.039c-12.122-1.965-17.68-9.876-17.68-9.876
c0.969-0.982,2.481-1.703,2.481-1.703c-1.606-0.075-4.073,0.519-4.073,0.519c0.219-1.584,1.343-3.543,4.657-5.405
c0.543-0.307,1.075-0.654,1.583-1.027c2.581-1.893,4.552-4.358,4.552-4.358c-2.777,0.983-4.975,0.474-6.01,2.024
c-1.031,1.551,1.458,2.334,1.458,2.334c-2.134,0.155-2.761-1.49-2.761-1.49c-0.582-3.19,3.834-3.652,6.338-5.338
c0.674-0.451,1.339-0.728,1.946-0.881C40.517,24.569,41.77,25,41.77,25c-0.769,0.633-1.351,1.367-1.672,2.076
c-1.015,2.261-2.806,3.981-2.806,3.981c1.032,0.911,2.118,1.979,3.656,2.816c1.317,0.722,2.964,1.269,5.196,1.405
c1.597,0.098,3.02,0.392,4.139,0.704c1.588,0.44,2.565,0.919,2.565,0.919c0.235-3.708-0.689-10.385-3.529-12.642
c0,0,2.843-0.903,4.688-0.253c0.519,0.181,0.955,0.483,1.232,0.96c0.277,0.478,0.493,0.998,0.667,1.52
c0.303,0.892,0.502,1.811,0.752,2.597c0.144,0.459,0.305,0.874,0.518,1.213c-0.244-0.21-0.336-0.586-0.336-0.586
s0.158,1.627,1.328,1.447c0.694,0.366,1.691,0.789,2.749,1.317c-0.043-0.341-0.098-0.666-0.155-0.972
c0.064,0.035,1.828,0.936,3.878,1.943C65.029,33.636,65.431,33.834,65.835,34.03z M66.758,37.642
c0.289-1.017-0.595-1.96-1.992-2.603h-0.003c-2.263-1.035-5.878-1.26-8.057,0.349c-3.527,2.603,0.267,4.877,2.274,5.826
c2.006,0.945,3.14,0.46,3.14,0.46s1.362-0.205,2.648-1.156C65.586,39.911,66.378,38.998,66.758,37.642z"/>
</g>
</g>
<g>
<g>
<path fill="#FFFFFF" d="M66.778,9.123c7.186,3.331,5.612,11.472,1.69,13.548c-3.921,2.077-8.694,0.355-10.756-2.954
c-0.374-0.599-0.782-1.141-1.201-1.621l-0.057,0.048c-2.036,2-2.376,4.698-2.435,5.572c-0.011,0.187-0.013,0.29-0.013,0.29
c-1.846-0.65-4.688,0.253-4.688,0.253c-0.281-0.229-0.581-0.405-0.901-0.536c-0.416-0.171-0.834-0.286-1.252-0.351
c0.131-0.003,2.565-0.116,2.497-3.037c0,0-0.989,1.295-3.175,1.346c-2.187,0.052-4.523,1.331-4.719,3.319
c0,0-1.253-0.431-2.907-0.005c-0.217-4.527-3.004-7.389-3.004-7.389c-2.957,0.068-5.565-1.752-6.184-5.402
C29.198,9.395,30.711,6.3,33.46,5.07c3.452-1.54,6.092-0.586,7.61,0.374c0,0,0.429-3.393,4.217-4.459
C53.933-1.463,57.36,7.548,57.36,7.548v0.004C59.346,7.416,63.173,7.451,66.778,9.123z"/>
</g>
</g>
<g>
<g>
<path fill="#FACC63" d="M63.618,29.525c1.559,0.155,2.917,2.953,1.021,3.92c-2.05-1.007-3.813-1.908-3.878-1.943
c-0.004,0-0.004,0-0.004,0c-0.172-0.881-0.396-1.612-0.66-2.216c-1.513-3.515-4.191-2.801-4.191-2.801
c-0.174-0.521-0.39-1.042-0.667-1.52c-0.276-0.477-0.713-0.779-1.232-0.96c0,0,0.002-0.104,0.013-0.29l0.062,0.007
c0.966,0.247,1.689,2.138,1.689,2.138c1.934-0.682,2.37,0.118,3.419,0.669c0.17,0.093,0.338,0.148,0.495,0.181
C59.729,26.787,61.069,29.278,63.618,29.525z"/>
</g>
</g>
<g>
<g>
<path fill="#FFFFFF" d="M60.762,31.502c0.058,0.306,0.112,0.631,0.155,0.972c-1.058-0.528-2.055-0.951-2.749-1.317
c1.169-0.179,0.767-1.872,0.767-1.872l-1.086-0.041c0,0,0.488,1.023-0.197,1.175c-0.201,0.044-0.357-0.02-0.477-0.123
c-0.213-0.339-0.374-0.754-0.518-1.213c0,0,1.378-0.322,3.439,0.204c0.264,0.603,0.488,1.335,0.66,2.216
C60.758,31.502,60.758,31.502,60.762,31.502z"/>
</g>
</g>
<g>
<g>
<path fill="#FFFFFF" d="M58.935,29.284c0,0,0.401,1.693-0.767,1.872c-0.116-0.062-0.221-0.116-0.316-0.17
c-0.276-0.162-0.494-0.399-0.676-0.691c0.119,0.104,0.275,0.167,0.477,0.123c0.686-0.152,0.197-1.175,0.197-1.175L58.935,29.284z
"/>
</g>
</g>
<g>
<g>
<path fill="#FACC63" d="M58.168,31.156c-1.17,0.18-1.328-1.447-1.328-1.447s0.092,0.376,0.336,0.586
c0.182,0.292,0.399,0.529,0.676,0.691C57.947,31.04,58.052,31.094,58.168,31.156z"/>
</g>
</g>
<path fill="#483525" d="M59.362,28.49c-0.477,0.011-0.866,0.402-0.985,0.929c0.08-0.199,0.243-0.342,0.44-0.347
c0.283-0.007,0.519,0.267,0.526,0.609c0.009,0.341-0.215,0.624-0.498,0.631c-0.26,0.006-0.471-0.226-0.512-0.526
c0,0.003-0.001,0.006-0.001,0.009c0.017,0.707,0.503,1.269,1.089,1.255c0.584-0.014,1.045-0.598,1.028-1.305
C60.434,29.038,59.946,28.476,59.362,28.49z"/>
<g>
<g>
<path fill="#FACC63" d="M59.837,28.938c-1.9,0.415-3.017,0.349-3.017,0.349c-0.25-0.785-0.611-1.91-0.914-2.802
C55.906,26.485,58.602,25.759,59.837,28.938z"/>
</g>
</g>
<g>
<g>
<path fill="#ED9C1C" d="M49.319,24.259c2.84,2.258,3.765,8.934,3.529,12.642c0,0-0.978-0.479-2.565-0.919
c-0.006-0.23-0.061-3.062-0.196-4.055c-0.044-0.315-0.097-0.618-0.162-0.903c-1.401-6.412-7.171-4.802-8.243-1.545
c-0.017,0.057-0.033,0.108-0.051,0.165c-0.727,2.298-0.684,4.198-0.683,4.229c-1.538-0.838-2.624-1.905-3.656-2.816
c0,0,1.791-1.72,2.806-3.981c0.321-0.709,0.903-1.443,1.672-2.076c0,0,0.006-0.006,0.018-0.021
c1.204-0.983,2.848-1.714,4.581-1.678c0.07,0.002,0.139,0.005,0.211,0.005c0.188,0.014,0.382,0.039,0.582,0.065
c0,0,0.004,0,0.005,0c0.418,0.065,0.836,0.18,1.252,0.351C48.738,23.853,49.038,24.03,49.319,24.259z"/>
</g>
</g>
<g>
<g>
<path fill="#FFFFFF" d="M46.488,21.68c2.185-0.051,3.175-1.346,3.175-1.346c0.068,2.921-2.366,3.034-2.497,3.037
c-0.001,0-0.005,0-0.005,0c-0.198-0.034-0.389-0.055-0.582-0.065c-0.072,0-0.141-0.003-0.211-0.005
c-1.733-0.036-3.377,0.694-4.581,1.678C41.775,24.994,41.77,25,41.77,25C41.966,23.011,44.302,21.732,46.488,21.68z"/>
</g>
</g>
<g>
<g>
<path fill="#242122" d="M46.579,23.306c0.193,0.011,0.384,0.031,0.582,0.065C46.961,23.345,46.768,23.32,46.579,23.306z"/>
</g>
</g>
<g>
<g>
<path fill="#FFFFFF" d="M46.086,29.604c0,0,0.451,1.898-0.863,2.099c-1.311,0.203-1.487-1.624-1.487-1.624
s0.232,0.947,0.913,0.796c0.77-0.175,0.219-1.318,0.219-1.318L46.086,29.604z"/>
</g>
</g>
<path fill="#FACC63" d="M49.566,29.659c0,0-0.528-2.425-4.087-2.999c0,0-3.72,0.665-3.895,3.455
C41.585,30.115,45.63,30.511,49.566,29.659z"/>
<g>
<g>
<path fill="#ED9C1C" d="M44.73,57.45c1.343,2.173,2.16,2.712,2.648,4.865c-2.438-0.396-5.098-0.711-7.952-0.924
c-0.217-0.017-0.433-0.032-0.646-0.048c-0.12-0.4-0.473-1.916-0.396-3.083c0.087-1.262,1.077-2.85,2.853-3.695
c1.496-0.708,3.097-0.581,4.319-1.181C45.36,53.573,43.479,55.43,44.73,57.45z"/>
</g>
</g>
<g>
<g>
<path fill="none" d="M52.746,36.856c0,0-2.842-1.389-6.704-1.623c-4.841-0.294-6.929-2.535-8.853-4.221
c0,0,1.791-1.723,2.809-3.984c1.015-2.264,4.773-4.794,8.319-3.35C51.861,25.122,53.008,32.779,52.746,36.856z"/>
</g>
</g>
<path fill="#483525" d="M67.161,8.62c-3.184-1.478-6.511-1.724-8.744-1.672c-0.18,0.005-0.358,0.011-0.537,0.019
c-0.298-0.654-0.982-1.986-2.125-3.317c-2.106-2.451-4.768-3.716-7.692-3.648c-0.908,0.021-1.856,0.172-2.816,0.445
c-2.95,0.831-4.054,2.934-4.446,4.125c-0.956-0.481-2.257-0.909-3.83-0.872c-1.19,0.028-2.411,0.318-3.631,0.863
c-2.941,1.313-4.684,4.59-4.142,7.791c0.128,0.758,0.349,1.452,0.641,2.086c0.022,0.052,0.04,0.104,0.064,0.152
c0.026,0.059,0.058,0.11,0.085,0.164c0.005,0.014,0.012,0.025,0.019,0.037c0.341,0.676,0.812,1.292,1.382,1.808
c0.025,0.023,0.054,0.05,0.081,0.07c0.092,0.082,0.186,0.161,0.284,0.236c0.093,0.071,0.188,0.142,0.285,0.21
c0.031,0.02,0.06,0.041,0.091,0.061c1.015,0.681,2.229,1.069,3.581,1.088h0.001c0.538,0.634,2.213,2.845,2.596,6.02
c-0.005,0.112-0.011,0.224-0.021,0.336c-0.178,0.062-0.352,0.134-0.525,0.212c-0.078,0.032-0.155,0.072-0.232,0.105
c-0.009,0.004-0.018,0.01-0.027,0.014c-0.069,0.033-0.139,0.063-0.207,0.097c-0.14,0.075-0.275,0.153-0.41,0.235l-0.198,0.128
l-0.177,0.122c-0.087,0.059-0.18,0.111-0.268,0.167c-0.607,0.344-1.302,0.644-1.983,0.938c-2.18,0.942-4.652,2.008-4.154,4.734
c0.007,0.037,0.017,0.073,0.03,0.11c0.023,0.057,0.449,1.13,1.675,1.635c-0.074,0.044-0.148,0.085-0.226,0.13
c-2.987,1.676-4.658,3.645-4.964,5.854c-0.026,0.199,0.047,0.398,0.196,0.533c0.117,0.107,0.27,0.163,0.424,0.159
c0.043-0.001,0.086-0.008,0.128-0.017c0.01-0.002,0.552-0.131,1.28-0.259c-0.142,0.099-0.283,0.201-0.421,0.315l-0.424,0.46
l0.347,0.422c0.386,0.464,0.753,0.851,1.146,1.249c0.189,0.187,0.38,0.368,0.574,0.547c0.706,0.728,1.657,1.614,2.87,2.543
c2.645,2.023,7.073,4.636,13.237,5.72c0.013-0.003,0.023-0.011,0.036-0.012c0.021-0.002,0.042,0,0.062-0.002
c0.318-0.019,0.637-0.018,0.957-0.022c0.018,0,0.025,0.012,0.041,0.014c-0.005-0.019-0.007-0.037-0.012-0.056
c1.435,0.132,2.875,0.126,4.3-0.066c-2.135-0.359-4.224-0.676-6.285-1.147c-2.056-0.471-4.091-1.051-6.041-1.869
c-1.952-0.811-3.778-1.913-5.441-3.21c-0.834-0.643-1.618-1.351-2.353-2.098c-0.369-0.372-0.721-0.759-1.051-1.164
c-0.209-0.248-0.417-0.513-0.606-0.772c0.183-0.195,0.384-0.384,0.595-0.563c0.182-0.156,0.372-0.308,0.567-0.456
c0.196-0.146,0.399-0.29,0.597-0.42l1.13-0.737c0,0-1.263,0.084-1.265,0.084c-0.726-0.011-1.418,0.086-2.104,0.202
c-0.572,0.101-1.136,0.225-1.7,0.366c0.258-1.101,0.937-2.074,1.768-2.859c0.455-0.433,0.96-0.821,1.486-1.174
c0.264-0.174,0.536-0.342,0.812-0.5l0.851-0.475c1.154-0.668,2.208-1.476,3.199-2.349c0.991-0.878,1.916-1.805,2.792-2.823
l1.156-1.354c0,0-1.723,0.559-1.725,0.559c-0.711,0.296-1.463,0.509-2.241,0.684c-0.777,0.184-1.591,0.301-2.392,0.621
c-0.79,0.315-1.546,0.996-1.594,1.921c0.006,0.466,0.306,0.844,0.628,1.088c0.221,0.171,0.464,0.301,0.716,0.408
c-0.041,0.03-0.082,0.064-0.124,0.095c-0.37-0.061-0.727-0.175-1.026-0.372c-0.217-0.141-0.404-0.313-0.555-0.52
c-0.145-0.188-0.263-0.426-0.321-0.631c-0.07-0.541,0.021-1.067,0.293-1.49c0.266-0.432,0.693-0.768,1.168-1.042
c0.95-0.562,2.061-0.917,3.147-1.395c0.549-0.241,1.096-0.493,1.637-0.824l0.36-0.228c0.115-0.071,0.232-0.136,0.351-0.201
c0.237-0.127,0.479-0.24,0.729-0.338c0.937-0.377,1.988-0.536,3.037-0.466c-0.06,0.143-0.116,0.296-0.171,0.45
c0,0,2.624-2.909,6.459-1.406c0,0,1.369,0.58,1.498,0.08c0,0,0.012-0.017,0.028-0.048c0.851-0.183,1.721-0.264,2.572-0.241
c0.43,0.014,0.854,0.055,1.255,0.153c0.4,0.102,0.75,0.316,1.029,0.509c0.141,0.101,0.271,0.198,0.384,0.312
c0.115,0.115,0.19,0.233,0.3,0.427c0.203,0.349,0.375,0.725,0.537,1.113c0.328,0.781,0.57,1.625,0.877,2.466
c0.157,0.424,0.319,0.85,0.555,1.257c0.027,0.041,0.057,0.082,0.083,0.122c-0.369-0.017-0.738,0.015-1.091,0.104
c-0.363,0.092-0.706,0.237-1.02,0.425c-0.312,0.188-0.601,0.415-0.836,0.688c0.271-0.235,0.584-0.414,0.905-0.551
c0.323-0.137,0.663-0.226,1.002-0.26c0.522-0.056,1.04,0.022,1.522,0.19c0.041,0.031,0.083,0.061,0.13,0.087
c0.005,0.005,0.011,0.009,0.015,0.016c0.103,0.072,0.219,0.13,0.309,0.179c0.798,0.423,1.605,0.75,2.392,1.141
c1.061,0.516,2.113,1.09,3.038,1.801c-1.101-0.222-2.223-0.271-3.33-0.15c-1.258,0.14-2.533,0.531-3.541,1.341
c-0.5,0.393-0.971,0.869-1.229,1.504c-0.126,0.312-0.174,0.673-0.123,1.016c0.047,0.344,0.178,0.668,0.349,0.956
c0.352,0.574,0.825,1.036,1.325,1.442c0.506,0.408,1.044,0.759,1.597,1.077c0.541,0.318,1.157,0.622,1.81,0.799
c0.329,0.094,0.672,0.155,1.029,0.175c0.178,0.01,0.358,0.01,0.545-0.007c0.092-0.008,0.187-0.021,0.284-0.039
c0.062-0.012,0.113-0.029,0.176-0.047l0.014-0.001c0.381-0.058,0.685-0.137,1.017-0.239c0.013-0.003,0.025-0.01,0.04-0.014
c-0.245,0.42-0.537,0.81-0.881,1.16c-0.807,0.833-1.879,1.457-3.055,1.628c-2.376,0.4-4.847,0.18-7.202-0.392
c-2.363-0.572-4.638-1.479-6.807-2.57c-1.084-0.547-2.149-1.129-3.187-1.754c-0.519-0.315-1.016-0.667-1.482-1.059
c-0.2-0.167-0.594-0.295-0.683-0.555c-0.117-0.355,0.439-0.438,0.649-0.558l-0.001-0.081c-0.353-0.159-0.728-0.186-1.099-0.149
c-0.042,0.007-0.085,0.018-0.129,0.026c-0.001-0.005-0.005-0.011-0.008-0.016l-0.011,0.018c-0.321,0.06-0.642,0.178-0.927,0.376
c-0.33,0.228-0.606,0.563-0.734,0.955c-0.13,0.385-0.12,0.798,0.043,1.145l0.113,0.006c0.105,0.004,0.22-0.316,0.562-0.436
c1.067-0.386,1.273-0.013,1.69,0.16c0.569,0.235,1.13,0.495,1.676,0.773c1.094,0.562,2.202,1.09,3.33,1.571
c2.256,0.958,4.569,1.786,6.951,2.358c2.376,0.558,4.852,0.894,7.312,0.555c1.257-0.141,2.439-0.691,3.483-1.433
c1.043-0.76,1.919-1.756,2.691-2.86c0,0,0.149-0.298,0.277-0.433c0.482-0.501,0.877-1.093,1.151-1.728
c0.131-0.313,0.241-0.646,0.318-0.991c0.098-0.422,0.032-0.887-0.145-1.25c-0.366-0.735-0.966-1.149-1.546-1.477
c-0.258-0.14-0.522-0.256-0.788-0.361c-0.636-0.54-1.321-0.999-2.024-1.405c-0.532-0.312-1.078-0.594-1.629-0.863
c-0.03-0.228-0.064-0.45-0.104-0.676c1.271,0.771,2.551,1.536,3.834,2.29l0.022,0.044c0.008-0.007,0.016-0.012,0.022-0.017
c0.207,0.123,0.415,0.245,0.623,0.365c0.774,0.446,1.465,1.011,2.084,1.648c0.31,0.316,0.603,0.649,0.875,0.996
c0.135,0.174,0.266,0.351,0.392,0.529c0.028,0.042,0.057,0.082,0.085,0.128c-0.149,0.327-0.322,0.673-0.493,0.997
c-0.241,0.455-0.504,0.9-0.777,1.339c-0.546,0.876-1.161,1.711-1.827,2.498c-0.67,0.783-1.398,1.518-2.177,2.185
c-0.799,0.679-1.633,1.298-2.506,1.882c-1.747,1.16-3.645,2.104-5.581,3.087c-0.576,0.292-1.155,0.597-1.719,0.945l-0.024-0.015
c-0.012,0.016-0.021,0.031-0.031,0.05c-0.361,0.226-0.716,0.474-1.057,0.745c-0.435,0.36-0.85,0.763-1.179,1.229
c-0.295,0.416-0.508,0.879-0.627,1.361l0.09-0.002c0.616-0.796,1.371-1.363,2.205-1.818c-0.003,0.015-0.002,0.03-0.005,0.045
c0.497-0.322,1.084-0.594,1.647-0.692c0.009-0.014,0.016-0.029,0.023-0.042c0.627-0.327,1.318-0.652,2.048-0.994
c0.555-0.262,1.144-0.538,1.756-0.842c0.126-0.059,0.251-0.111,0.378-0.172c0.99-0.464,1.967-0.984,2.919-1.557
c0.949-0.568,1.868-1.213,2.73-1.909c0.886-0.71,1.695-1.496,2.434-2.345c0.742-0.849,1.402-1.759,1.998-2.714
c0.293-0.475,0.567-0.967,0.823-1.469c0.127-0.248,0.248-0.504,0.363-0.767c0.116-0.265,0.22-0.508,0.33-0.814l0.149-0.457
l-0.243-0.304c-0.182-0.231-0.34-0.398-0.512-0.584c-0.175-0.181-0.349-0.356-0.528-0.523c-0.31-0.293-0.637-0.569-0.973-0.829
c-0.668-0.588-1.489-1.194-2.445-1.658c-0.121-0.058-0.239-0.116-0.36-0.178c0.381-0.499,0.519-1.149,0.385-1.86
c-0.215-1.145-1.189-2.402-2.446-2.524c-1.311-0.129-2.365-1.032-2.993-1.726c0.472-0.145,0.779-0.37,0.825-0.406
c0.199-0.153,0.285-0.411,0.22-0.651c-0.069-0.238-0.275-0.416-0.524-0.44c-0.924-0.101-1.191-0.358-1.725-0.872
c-0.33-0.317-0.74-0.713-1.392-1.145c-0.777-0.518-1.735-0.774-2.774-0.75c-0.215,0.005-0.416,0.021-0.593,0.043
c0.168-1.006,0.608-2.607,1.756-3.959c0.255,0.329,0.494,0.672,0.717,1.025c1.349,2.168,3.718,3.654,6.292,4.042
c0.099,0.013,0.198,0.033,0.296,0.047c1.051,0.141,2.145,0.111,3.19-0.163c0.524-0.13,1.036-0.313,1.524-0.546
c0.118-0.056,0.248-0.121,0.363-0.187c0.137-0.076,0.251-0.146,0.372-0.226c0.236-0.158,0.461-0.331,0.672-0.517
c0.84-0.748,1.449-1.688,1.867-2.685c0.412-1.002,0.629-2.073,0.631-3.152c0.001-0.137-0.002-0.277-0.007-0.414
c-0.001-0.018,0.001-0.035,0-0.057C72.434,12.936,70.481,10.159,67.161,8.62z M32.225,32.093c-0.059-0.054-0.097-0.121-0.146-0.183
c0.243,0.273,0.574,0.483,0.854,0.624c-0.011,0.01-0.025,0.021-0.04,0.033C32.65,32.434,32.423,32.276,32.225,32.093z
M60.471,32.01c-0.601-0.281-1.203-0.56-1.789-0.855l-0.007,0.003c0,0-0.932-0.223-1.283-1.024
c-0.004-0.009-0.009-0.021-0.013-0.03c-0.086-0.155-0.161-0.319-0.224-0.492c0.012-0.002,0.022-0.006,0.034-0.008
c-0.146-0.433-0.266-0.876-0.337-1.17c-0.003,0-0.005,0-0.008,0c-0.118-0.551-0.229-1.117-0.369-1.687
c0.165-0.004,0.336,0.01,0.494,0.034c0.328,0.05,0.646,0.156,0.94,0.311c0.491,0.256,0.906,0.651,1.248,1.11l0.008-0.001
c0,0,0.059,0.08,0.144,0.212c0.018,0.025,0.036,0.048,0.053,0.073c0.045,0.069,0.083,0.142,0.124,0.213
c0.033,0.055,0.065,0.106,0.1,0.17c0.009,0.016,0.02,0.03,0.027,0.047c-0.001,0-0.002-0.001-0.003-0.001
c0.22,0.398,0.467,0.926,0.606,1.495c0.007,0.022,0.011,0.045,0.018,0.066l0.003-0.001c0,0,0.015,0.062,0.033,0.139
c0.135,0.479,0.243,0.964,0.325,1.459C60.555,32.052,60.512,32.031,60.471,32.01z M59.212,26.533
c0.23,0.121,0.452,0.183,0.66,0.205c-0.078-0.006-0.155-0.004-0.238-0.021c-0.003-0.003-0.003-0.003-0.003-0.003
c-0.01,0,0.527,0.869,1.461,1.65c0.447,0.416,0.944,0.774,1.495,1.06c0.316,0.164,0.664,0.302,1.001,0.398
c0.279,0.084,0.525,0.254,0.737,0.463c0.426,0.416,0.714,1.007,0.735,1.536c0.014,0.385-0.111,0.658-0.348,0.852
c0.195-0.778-0.098-1.781-1.583-2.239c-0.986-0.303-2.378-1.44-3.213-2.181c-0.016-0.026-0.03-0.059-0.049-0.087
c-0.407-0.649-0.961-1.244-1.667-1.622c-0.35-0.187-0.734-0.319-1.13-0.384c-0.257-0.041-0.505-0.054-0.764-0.042
c-0.038-0.125-0.084-0.249-0.128-0.373C57.793,25.298,58.24,26.018,59.212,26.533z M71.085,16.659
c-0.067,0.893-0.275,1.773-0.631,2.585c-0.351,0.813-0.851,1.558-1.475,2.132c-0.154,0.144-0.319,0.274-0.488,0.394
c-0.083,0.059-0.18,0.118-0.257,0.162c-0.1,0.058-0.188,0.103-0.289,0.157c-0.396,0.201-0.808,0.371-1.234,0.494
c-0.854,0.25-1.759,0.366-2.665,0.3c-0.905-0.063-1.809-0.282-2.663-0.64c-0.851-0.361-1.651-0.867-2.335-1.508
c-0.339-0.317-0.655-0.676-0.925-1.049c-0.275-0.404-0.584-0.82-0.907-1.204c-0.649-0.768-1.384-1.453-2.172-2.061
c-0.788-0.607-1.631-1.145-2.535-1.541c1.288,0.795,2.452,1.775,3.435,2.9c-0.36,0.415-0.686,0.851-0.966,1.314
c-0.301,0.497-0.568,1.01-0.772,1.547c-0.215,0.534-0.386,1.082-0.524,1.636c-0.071,0.28-0.131,0.56-0.178,0.846
c-0.021,0.121-0.041,0.242-0.06,0.363c-0.052-0.003-0.104-0.005-0.155-0.008c-0.471-0.015-0.93,0.018-1.375,0.085
c-0.884,0.137-1.728,0.382-2.543,0.688c0.108-0.208,0.4-1.001-0.855-1.814c-1.225-0.798-4.895-1.655-6.779,2.33
c-0.736-0.316-1.541-0.414-2.339-0.337c-0.129-0.517-0.262-1.027-0.416-1.526c-0.108-0.335-0.218-0.665-0.334-0.991
c-0.125-0.324-0.246-0.649-0.383-0.969c-0.275-0.635-0.569-1.261-0.887-1.879c-0.154-0.316-0.322-0.623-0.488-0.937
c-0.013-0.019-0.021-0.039-0.032-0.059c0.222-0.039,0.444-0.087,0.666-0.146c0.715-0.202,1.405-0.523,1.98-0.991
c0.575-0.458,1.062-1.048,1.283-1.728c-0.964,1.033-2.218,1.535-3.481,1.735c-1.279,0.18-2.601,0.15-3.749-0.333
c-0.572-0.24-1.104-0.572-1.559-0.998c-0.451-0.426-0.84-0.929-1.137-1.492c-0.295-0.56-0.523-1.172-0.662-1.811
c-0.149-0.635-0.195-1.278-0.137-1.929c0.114-1.3,0.645-2.58,1.509-3.591c0.432-0.507,0.95-0.943,1.526-1.284
c0.58-0.338,1.22-0.58,1.871-0.774c1.304-0.378,2.705-0.405,4.018-0.051c1.313,0.349,2.517,1.055,3.559,1.963
c-0.364-0.473-0.808-0.872-1.296-1.217c0.162-0.826,0.555-1.639,1.089-2.308c0.542-0.684,1.26-1.219,2.056-1.575
c0.397-0.181,0.816-0.312,1.246-0.415c0.43-0.107,0.864-0.189,1.303-0.24c0.875-0.111,1.763-0.099,2.623,0.053
c1.729,0.295,3.312,1.19,4.566,2.412c0.627,0.608,1.185,1.295,1.672,2.026c0.434,0.657,0.824,1.363,1.128,2.075
c-0.313,0.065-0.622,0.146-0.927,0.248c0.998,0.025,1.971,0.052,2.944,0.099c0.97,0.034,1.937,0.139,2.893,0.279
c0.957,0.146,1.901,0.35,2.82,0.637c0.911,0.303,1.818,0.657,2.627,1.141c0.814,0.485,1.551,1.076,2.151,1.776
c0.601,0.7,1.05,1.509,1.323,2.368C71.033,14.859,71.146,15.763,71.085,16.659z"/>
<path fill="#483525" d="M61.267,26.354c0,0-0.202,0.141-0.511,0.256c0.217-0.085,0.386-0.19,0.479-0.26
C61.246,26.35,61.256,26.352,61.267,26.354z"/>
<path fill="#483525" d="M60.686,26.635c-0.06,0.021-0.114,0.039-0.183,0.057C60.568,26.675,60.628,26.656,60.686,26.635z"/>
<path fill="#483525" d="M60.144,26.744c-0.028,0.001-0.049,0.011-0.078,0.011c-0.049,0.002-0.104-0.011-0.155-0.014
C59.991,26.748,60.069,26.747,60.144,26.744z"/>
<path fill="#483525" d="M31.861,31.593c-0.007-0.01-0.012-0.023-0.017-0.034c0,0.003,0.001,0.006,0.002,0.006
C31.852,31.576,31.856,31.585,31.861,31.593z"/>
<g>
<g>
<path fill="#483525" d="M40.046,13.611c-3.119,4.286-10.045,0.681-8.5-4.341c0.008-0.031-0.038-0.042-0.047-0.012
c-0.753,2.24,0.28,4.849,2.285,6.071c2.189,1.337,5.251,0.655,6.376-1.655C40.196,13.597,40.094,13.545,40.046,13.611z"/>
</g>
</g>
<g>
<g>
<path fill="#483525" d="M37.541,36.354c-0.61,0.573-1.082,1.345-1.223,2.207c-0.071,0.432-0.06,0.879,0.052,1.297
c0.109,0.419,0.308,0.818,0.603,1.125c-0.175-0.385-0.284-0.783-0.348-1.179c-0.062-0.399-0.07-0.799-0.015-1.197
C36.721,37.807,37.086,37.061,37.541,36.354z"/>
</g>
</g>
<g>
<g>
<path fill="#483525" d="M54.521,46.729c0.818,0.046,1.643-0.006,2.446-0.176c0.796-0.179,1.586-0.441,2.266-0.889
c-0.368,0.167-0.75,0.293-1.137,0.397c-0.388,0.11-0.779,0.194-1.174,0.248c-0.788,0.122-1.589,0.156-2.385,0.118
c-0.797-0.04-1.588-0.164-2.37-0.339c-0.779-0.184-1.547-0.429-2.306-0.714c0.712,0.385,1.47,0.697,2.251,0.928
C52.892,46.538,53.705,46.679,54.521,46.729z"/>
</g>
</g>
<g>
<g>
<path fill="#483525" d="M50.793,35.993l0.16-0.003c-0.084-0.894-0.153-1.786-0.248-2.681c-0.052-0.448-0.099-0.89-0.173-1.359
c-0.076-0.432-0.176-0.851-0.297-1.271l0.012-0.01c-0.006-0.003-0.013-0.006-0.017-0.013c-0.005-0.016-0.008-0.035-0.015-0.05
c-0.257-0.884-0.64-1.748-1.213-2.491c-0.564-0.741-1.376-1.326-2.29-1.545c-0.914-0.231-1.88-0.085-2.709,0.295
c-0.833,0.378-1.553,0.999-2.037,1.778c-0.191,0.301-0.325,0.636-0.435,0.973c-0.006,0.001-0.012,0.003-0.019,0.005l-0.031,0.104
c0.005-0.001,0.008-0.002,0.014-0.002c-0.019,0.058-0.037,0.118-0.055,0.175c-0.131,0.428-0.246,0.863-0.346,1.3
c-0.171,0.768-0.3,1.536-0.372,2.338c-0.7-0.414-1.38-0.864-2.02-1.387c0.382,0.498,0.854,0.921,1.36,1.296
c0.202,0.149,0.413,0.287,0.627,0.415c0.001,0.008,0.001,0.017,0,0.023l0.04-0.001c0.312,0.187,0.638,0.351,0.98,0.481
c0.585,0.234,1.195,0.391,1.804,0.534c0.607,0.146,1.222,0.261,1.833,0.374l3.662,0.689c1.217,0.24,2.416,0.485,3.606,0.846
l0.021-0.041C52.06,36.419,51.435,36.176,50.793,35.993z M49.731,33.36c-0.007,0.782-0.026,1.571-0.064,2.359
c-0.198-0.042-0.395-0.079-0.589-0.115c-1.231-0.219-2.471-0.337-3.703-0.505c-0.614-0.09-1.227-0.188-1.835-0.315
c-0.603-0.134-1.179-0.372-1.725-0.648c-0.192-0.098-0.381-0.202-0.569-0.306c-0.056-0.841,0.014-1.722,0.155-2.568
c0.073-0.438,0.171-0.865,0.288-1.291c0.026-0.094,0.053-0.188,0.081-0.278c0.008-0.001,0.016-0.001,0.023-0.001
c0.001-0.003,0.002-0.005,0.002-0.008c0.007-0.037,0.022-0.074,0.038-0.11c0.002-0.007,0.008-0.012,0.011-0.019
c-0.011,0.002-0.021,0.003-0.032,0.005c0.021-0.073,0.043-0.146,0.07-0.218c0.077-0.199,0.173-0.392,0.284-0.577
c0.892-1.482,2.815-2.317,4.448-1.831c0.815,0.232,1.494,0.801,1.965,1.494c0.361,0.525,0.612,1.126,0.789,1.747
c-0.013-0.007,0.292,0.842,0.334,1.883C49.72,32.472,49.734,32.921,49.731,33.36z"/>
</g>
</g>
<g>
<g>
<path fill="#483525" d="M59.062,18.073c0.268,0.277,0.524,0.562,0.773,0.856c0.252,0.29,0.476,0.6,0.741,0.89
c0.528,0.58,1.171,1.059,1.893,1.383c0.721,0.324,1.511,0.491,2.301,0.512c0.396,0.006,0.792-0.025,1.183-0.094
c0.39-0.065,0.779-0.177,1.143-0.353c0.725-0.344,1.347-0.889,1.785-1.55c0.443-0.662,0.685-1.439,0.755-2.218
c0.067-0.781-0.043-1.564-0.265-2.304c0.152,0.757,0.203,1.531,0.094,2.284c-0.1,0.752-0.378,1.476-0.81,2.082
c-0.426,0.613-1.02,1.106-1.696,1.406c-0.675,0.294-1.437,0.411-2.185,0.403c-0.748,0-1.498-0.139-2.196-0.42
c-0.698-0.284-1.333-0.719-1.864-1.261c-0.266-0.27-0.506-0.576-0.768-0.858c-0.263-0.286-0.531-0.562-0.811-0.832
c-0.558-0.535-1.149-1.032-1.788-1.469l-0.014,0.018C57.955,17.007,58.527,17.521,59.062,18.073z"/>
</g>
</g>
<g>
<g>
<path fill="#FFFFFF" d="M64.676,36.491c-0.918-0.75-4.15-0.934-7.083,0.342c1.227-1.581,5.73-2.679,7.869-0.973
c0.592,0.472,0.758,1.395-0.071,1.871C65.522,37.424,65.219,36.933,64.676,36.491z"/>
</g>
</g>
<path fill="#483525" d="M47.624,50.186c0.188,0.996-0.138,2.153-0.856,2.934c-0.717,0.786-1.647,1.23-2.557,1.531
c-1.754,0.477-3.39,0.97-4.786,1.86c-1.394,0.87-2.332,2.256-2.591,3.89c-0.276,1.628-0.035,3.372,0.389,5.051
c0.414,1.688,1.066,3.34,1.694,5.012l1.92,4.997c1.266,3.342,2.571,6.658,3.715,10.064v0.001l-0.457,0.004
c0.211-0.709,0.523-1.367,1.033-1.949V83.58l0.602-0.671l-0.014,0.94c-0.003,0.229,0.026,0.514,0.076,0.769
c0.05,0.261,0.118,0.519,0.211,0.767c0.181,0.499,0.445,0.962,0.77,1.376l0.001,0.001l-0.774,0.22
c0.029-0.248,0.078-0.384,0.138-0.559c0.06-0.163,0.132-0.317,0.211-0.467c0.159-0.296,0.349-0.568,0.557-0.82l0.001-0.002
l0.24-0.276l0.343,0.154c1.835,0.827,3.763,1.542,5.693,2.188c1.937,0.643,3.9,1.208,5.884,1.689
c3.967,0.96,8.021,1.592,12.1,1.758l-0.021,0.641c-4.131-0.107-8.24-0.687-12.266-1.6c-2.014-0.457-4.007-1-5.977-1.622
c-1.972-0.628-3.909-1.312-5.831-2.146l0.583-0.122l-0.001,0.001c-0.188,0.195-0.357,0.404-0.499,0.624
c-0.069,0.109-0.133,0.223-0.186,0.336c-0.05,0.103-0.098,0.253-0.109,0.301l-0.259,1.01l-0.516-0.79v-0.001
c-0.357-0.504-0.637-1.062-0.816-1.649c-0.092-0.292-0.155-0.593-0.198-0.896c-0.041-0.309-0.063-0.598-0.039-0.939l0.587,0.27l0,0
c-0.455,0.418-0.821,1.01-1.063,1.608l-0.271,0.667l-0.187-0.663l0,0c-1.246-3.323-2.689-6.602-4.054-9.897l-2.046-4.953
c-0.662-1.655-1.378-3.312-1.875-5.082c-0.477-1.76-0.799-3.628-0.52-5.545c0.146-0.95,0.469-1.905,1.008-2.742
c0.533-0.839,1.265-1.537,2.064-2.075c1.603-1.087,3.468-1.571,5.146-2.021c1.593-0.401,2.93-1.471,2.81-3.073L47.624,50.186z"/>
<path fill="#483525" d="M58.995,58.238c1.706,1.387,3.159,3.083,4.402,4.918c1.239,1.842,2.232,3.865,2.931,6.002l0,0l0.044,0.149
l-0.048,0.157c-0.71,2.372-1.313,4.804-1.821,7.238c-0.502,2.438-0.905,4.898-1.112,7.367l-0.996-0.078
c0.196-2.527,0.592-5.025,1.086-7.497c0.501-2.475,1.091-4.915,1.805-7.349l-0.004,0.306l0,0c-0.495-2.086-1.287-4.115-2.348-6.011
C61.87,61.55,60.579,59.759,58.995,58.238z"/>
<path fill="#483525" d="M51.45,29.455c-1.611,0.437-3.265,0.74-4.934,0.916c-1.668,0.168-3.357,0.301-5.039,0.072l0.078-0.998
c1.633,0.017,3.273,0.159,4.924,0.171C48.129,29.629,49.786,29.587,51.45,29.455z"/>
<path fill="#483525" d="M56.833,28.787c0.64,0.089,1.34,0.111,2.021,0.09c0.685-0.023,1.374-0.101,2.057-0.248
c-0.629,0.305-1.295,0.55-1.979,0.742c-0.689,0.19-1.376,0.338-2.123,0.416L56.833,28.787z"/>
<path fill="#483525" d="M44.694,54.128c-0.377,1.177,0,2.398,0.508,3.448c0.266,0.53,0.576,1.04,0.927,1.523
c0.366,0.484,0.683,1.076,0.902,1.651c0.886,2.346,1.076,4.828,1.165,7.263c0.005,0.138-0.104,0.254-0.241,0.259
c-0.135,0.005-0.249-0.1-0.259-0.233c-0.088-1.209-0.212-2.412-0.374-3.605c-0.178-1.189-0.395-2.377-0.788-3.494
c-0.203-0.566-0.447-1.065-0.799-1.566c-0.348-0.512-0.66-1.054-0.902-1.63C44.371,56.617,44.101,55.24,44.694,54.128z"/>
<path fill="#483525" d="M113.839,51.133c1.211,1.25,2.616,2.143,4.094,2.72c0.743,0.281,1.505,0.483,2.277,0.617
c0.771,0.126,1.563,0.161,2.37,0.174c1.606,0.005,3.2-0.132,4.757-0.525c1.56-0.391,3.076-0.994,4.585-1.902
c-0.878,1.547-2.392,2.715-4.054,3.441c-1.676,0.725-3.523,1.041-5.33,0.972c-1.789-0.056-3.699-0.479-5.264-1.457
C115.71,54.216,114.409,52.805,113.839,51.133z"/>
<path fill="#483525" d="M141.842,27.973c0.437,0.021,0.434,0.321,0.594,0.499l0.403,0.607c0.281,0.401,0.566,0.801,0.865,1.194
l1.808,2.366c1.228,1.579,2.477,3.108,3.757,4.687c1.227,1.625,2.223,3.483,2.62,5.539c0.421,2.035,0.271,4.253-0.616,6.221
c-0.868,1.973-2.411,3.63-4.229,4.749c-1.813,1.132-3.846,1.876-5.913,2.165c-0.522,0.075-1.021,0.13-1.565,0.162
c-0.558,0.028-1.077,0.014-1.6-0.016c-1.039-0.071-2.054-0.152-3.06-0.294c-2.011-0.284-3.971-0.762-5.896-1.4l0.158-0.736
l5.922,0.545c0.978,0.086,1.954,0.182,2.912,0.154c0.476-0.01,0.955-0.037,1.393-0.095c0.449-0.064,0.939-0.156,1.4-0.249
c1.861-0.389,3.7-0.877,5.326-1.787c1.614-0.904,3.042-2.164,3.923-3.8c0.885-1.622,1.218-3.566,0.934-5.459
c-0.293-1.888-1.091-3.723-2.266-5.277c-1.221-1.535-2.609-3.008-3.917-4.515c-0.658-0.755-1.329-1.503-1.946-2.302
c-0.313-0.395-0.618-0.801-0.918-1.211l-0.44-0.631c-0.12-0.235-0.384-0.36-0.213-0.763L141.842,27.973z"/>
<path fill="#483525" d="M115.508,53.836c-2.77-0.039-5.547-0.575-8.072-1.805c-1.257-0.616-2.44-1.431-3.423-2.466
c-0.998-1.042-1.722-2.265-2.274-3.581c-1.126-2.606-1.16-5.77,0.017-8.432c0.572-1.332,1.373-2.548,2.301-3.632
c0.947-1.067,2.014-2.012,3.151-2.841c0.57-0.429,1.169-0.795,1.68-1.143c0.535-0.366,1.053-0.753,1.55-1.16
c0.987-0.824,1.908-1.703,2.737-2.703c0.837-0.989,1.599-2.119,2.603-3.165c0.998-1.049,2.248-1.885,3.551-2.426
c2.605-1.091,5.363-1.581,8.138-1.605c2.766-0.018,5.594,0.49,8.122,1.775l-0.615,1.164c-2.253-1.244-4.887-1.766-7.498-1.745
c-2.605,0.049-5.265,0.536-7.602,1.615c-1.159,0.552-2.184,1.27-2.984,2.235c-0.812,0.954-1.488,2.121-2.33,3.24
c-0.832,1.124-1.792,2.195-2.873,3.101c-0.537,0.458-1.092,0.89-1.661,1.296c-0.591,0.43-1.146,0.764-1.665,1.129
c-1.058,0.734-2.036,1.57-2.9,2.499c-0.876,0.917-1.629,1.941-2.185,3.061c-0.561,1.115-0.901,2.332-0.971,3.577
c-0.068,1.245,0.149,2.51,0.597,3.705c0.836,2.447,2.69,4.388,5.015,5.541c2.322,1.149,4.983,1.657,7.592,1.621L115.508,53.836z"/>
<path fill="#483525" d="M133.589,23.175c0.893-1.945,2.246-3.688,4.049-5.017c0.905-0.652,1.967-1.188,3.173-1.385
c1.195-0.209,2.534,0.029,3.587,0.623c0.574,0.326,1.084,0.76,1.467,1.341c0.381,0.574,0.583,1.251,0.632,1.891
c0.079,1.294-0.3,2.425-0.75,3.448c-0.477,1.017-1.057,1.951-1.73,2.807c-0.678,0.854-1.372,1.67-2.258,2.37l-0.672-0.74
c1.292-1.492,2.415-3.286,3.138-5.085c0.354-0.896,0.59-1.84,0.505-2.649c-0.064-0.807-0.488-1.41-1.193-1.807
c-1.515-0.938-3.395-0.528-5.09,0.447C136.735,20.386,135.16,21.744,133.589,23.175z"/>
<path fill="#483525" d="M143.797,20.037c-0.909-0.174-1.648-0.092-2.354,0.149c-0.711,0.233-1.368,0.701-1.956,1.268
c-1.179,1.147-2.098,2.615-3.061,4.074c0.45-1.69,1.185-3.337,2.4-4.712c0.609-0.673,1.379-1.29,2.335-1.565
C142.104,18.98,143.258,19.24,143.797,20.037z"/>
<path fill="#483525" d="M120.007,20.736c-0.087-1.269-0.476-2.705-1.295-3.544c-0.409-0.419-0.928-0.67-1.533-0.72
c-0.151-0.007-0.304-0.018-0.462-0.003c-0.071,0.006-0.175,0.007-0.219,0.016l-0.273,0.042c-0.263,0.053-0.571,0.156-0.821,0.303
c-1.056,0.569-1.391,2.04-1.075,3.354c0.29,1.334,1.098,2.575,2.188,3.464l-0.355,0.469c-1.247-0.894-2.235-2.191-2.674-3.719
c-0.221-0.76-0.294-1.59-0.116-2.415c0.169-0.821,0.672-1.637,1.42-2.124c0.373-0.246,0.76-0.413,1.213-0.529l0.271-0.059
c0.135-0.031,0.217-0.032,0.328-0.05c0.208-0.031,0.425-0.033,0.641-0.034c0.87,0.003,1.792,0.362,2.447,0.965
c0.664,0.597,1.098,1.345,1.409,2.097c0.307,0.768,0.505,1.515,0.609,2.36L120.007,20.736z"/>
<path fill="#483525" d="M115.027,18.56c0.058-0.618,0.591-1.136,1.211-1.325c0.65-0.196,1.37,0.071,1.871,0.482
c0.516,0.407,0.917,0.936,1.228,1.504c0.309,0.579,0.535,1.161,0.679,1.839l-0.992,0.123c-0.042-0.523-0.181-1.111-0.384-1.633
c-0.207-0.528-0.498-1.026-0.89-1.43c-0.376-0.408-0.894-0.696-1.455-0.62C115.757,17.577,115.172,17.966,115.027,18.56z"/>
<path fill="#483525" d="M135.891,29.169c-0.005-0.979-1.545-3.058-3.469-2.797c-1.844,0.25-1.656,2.25,0.959,2.406
C135.395,28.898,135.893,29.681,135.891,29.169z"/>
<path fill="#483525" d="M115.076,28.167c0.005-0.979,1.545-3.058,3.469-2.797c1.844,0.25,1.656,2.25-0.959,2.406
C115.572,27.896,115.074,28.679,115.076,28.167z"/>
<path fill="#483525" d="M136.109,33.903c0,0-1.469-2.344-3.969-2.281c-3.046,0.076-2.75,3.125-2.75,3.125
S131.38,31.133,136.109,33.903z"/>
<path fill="#483525" d="M112.949,33.217c0,0,1.249-2.344,3.374-2.281c2.59,0.076,2.338,3.125,2.338,3.125
S116.97,30.446,112.949,33.217z"/>
<path fill="#483525" d="M117.152,40.8c0,0-0.811-1.078,1.167-1.521c1.395-0.312,6.861-0.297,5.833,1.479
C122.547,43.528,119.819,45.592,117.152,40.8z"/>
<path fill="#FFFFFF" d="M121.508,40.126c-0.363,0.051-0.718,0.095-1.065,0.126c-0.348,0.025-0.689,0.094-1.014,0.147
c-0.316,0.066-0.638,0.15-0.829,0.292c-0.167,0.15-0.264,0.176-0.518,0.633c-0.22-0.123-0.327-0.352-0.312-0.615
c0.021-0.265,0.206-0.506,0.406-0.628c0.399-0.259,0.798-0.314,1.176-0.339c0.38-0.027,0.748,0.033,1.107,0.083
C120.817,39.884,121.168,39.99,121.508,40.126z"/>
<path fill="#483525" d="M132.547,46.934c-0.968,0.639-2.078,1.056-3.226,1.314c-1.152,0.223-2.366,0.292-3.546,0.052
c-1.177-0.23-2.322-0.698-3.298-1.405c-0.989-0.688-1.806-1.585-2.483-2.552l0.592,0.018c-0.717,0.817-1.541,1.449-2.463,1.959
c-0.915,0.507-1.916,0.871-2.953,1.03c-1.039,0.146-2.099,0.069-3.096-0.188c-1.002-0.248-1.936-0.697-2.777-1.26
c0.914,0.434,1.869,0.768,2.846,0.938c0.979,0.166,1.976,0.14,2.927-0.064c0.956-0.186,1.87-0.56,2.703-1.063
c0.82-0.508,1.608-1.138,2.235-1.83l0.313-0.345L120.6,43.9c1.357,1.765,3.166,3.184,5.329,3.675
c1.071,0.236,2.195,0.31,3.312,0.169C130.359,47.629,131.474,47.354,132.547,46.934z"/>
<path fill="#483525" d="M126.684,41.839c2.192-0.835,4.437-1.544,6.752-1.848c-2.282,0.466-4.459,1.332-6.549,2.305L126.684,41.839
z"/>
<path fill="#483525" d="M136.123,42.637c-2.963,0.017-5.943,0.321-8.771,1.117l-0.125-0.484
C130.162,42.62,133.16,42.489,136.123,42.637z"/>
<path fill="#483525" d="M115.477,41.505c-2.09-0.973-4.267-1.839-6.549-2.305c2.315,0.304,4.56,1.013,6.752,1.848L115.477,41.505z"
/>
<path fill="#483525" d="M106.631,41.782c2.963-0.148,5.961-0.018,8.896,0.633l-0.125,0.484
C112.574,42.103,109.594,41.799,106.631,41.782z"/>
<polygon fill="#483525" points="123.389,46.819 122.675,50.38 122.635,50.578 122.444,50.568 118.203,50.367 118.047,50.359 
118.02,50.197 117.342,46.074 118.086,45.984 118.401,50.151 118.219,49.982 122.462,50.121 122.231,50.309 122.648,46.702 	"/>
<polygon fill="#483525" points="120.672,44.126 120.234,50.248 119.922,44.118 	"/>
<path fill="#483525" d="M138.892,68.933c0.877,0.736,1.739,1.291,2.68,1.746c0.947,0.433,1.967,0.686,3.006,0.817
c0.514,0.083,1.039,0.082,1.638,0.178c0.577,0.091,1.15,0.218,1.716,0.426c0.559,0.214,1.12,0.53,1.532,1.032
c0.414,0.482,0.614,1.218,0.336,1.757c-0.292-1.145-1.263-1.475-2.209-1.764c-0.997-0.301-1.985-0.278-3.183-0.43
c-1.148-0.175-2.283-0.553-3.293-1.154C140.116,70.957,139.183,70.086,138.892,68.933z"/>
<path fill="#483525" d="M149.49,74.453c0.101-0.025,0.005-0.005-0.015,0.005l-0.132,0.053c-0.096,0.042-0.199,0.095-0.303,0.152
c-0.208,0.115-0.422,0.251-0.633,0.396c-0.423,0.291-0.84,0.619-1.248,0.964c-0.817,0.691-1.601,1.447-2.363,2.228
c-1.524,1.563-2.965,3.232-4.362,4.938l-0.085,0.103l-0.09,0.034l-0.003,0.002c-2.068,1.038-3.923,2.971-4.05,5.242
c-0.23,2.273,1.468,4.396,3.621,5.064c2.171,0.744,4.638-0.058,6.303-1.683c0.754-0.731,1.003-1.812,0.507-2.79
c-0.23-0.482-0.561-0.952-0.987-1.317c-0.409-0.354-0.943-0.689-1.385-0.648l-0.15-0.502c0.395-0.143,0.781-0.076,1.113,0.028
c0.338,0.107,0.649,0.264,0.93,0.463c0.556,0.396,1.049,0.897,1.38,1.524c0.33,0.619,0.513,1.377,0.388,2.126
c-0.118,0.761-0.519,1.394-1.033,1.921c-0.953,0.914-2.112,1.632-3.411,2.009c-1.293,0.38-2.712,0.373-4.005-0.047
c-1.295-0.413-2.456-1.241-3.257-2.351c-0.809-1.087-1.22-2.542-1.083-3.881c0.098-1.372,0.736-2.66,1.615-3.645
c0.887-0.996,1.942-1.755,3.15-2.318l0.007-0.003l-0.175,0.137c1.277-1.818,2.602-3.609,4.045-5.329
c0.722-0.858,1.473-1.699,2.288-2.502c0.409-0.401,0.834-0.792,1.296-1.165c0.231-0.186,0.473-0.367,0.735-0.541
c0.133-0.086,0.27-0.171,0.421-0.253l0.244-0.121c0.108-0.043,0.143-0.072,0.378-0.129L149.49,74.453z"/>
<path fill="none" stroke="#483525" stroke-miterlimit="10" d="M81.262,82.085c7.473-0.619,12.66-6.369,12.66-6.369
c3.125-3.875,8.125-11.625,10.625-16.625s7.358-6.157,7.358-6.157"/>
<path fill="#483525" d="M95.194,100.165c-0.29-1.45-0.446-2.928-0.438-4.414c0.005-3.478,0.826-6.95,2.188-10.199
c1.364-3.252,3.245-6.306,5.464-9.078c0.556-0.691,1.135-1.366,1.738-2.013l0.949-0.977c0.333-0.368,0.619-0.771,0.863-1.189
c0.962-1.698,1.358-3.548,1.463-5.438l-1-0.033c-0.129,1.695-0.565,3.466-1.432,4.891c-0.22,0.355-0.468,0.686-0.746,0.979
l-0.96,0.941c-0.645,0.657-1.258,1.338-1.849,2.039c-2.355,2.804-4.375,5.905-5.886,9.274c-1.505,3.363-2.476,7.026-2.571,10.776
c-0.045,1.483,0.062,2.972,0.297,4.44H95.194z"/>
<path fill="#483525" d="M140.386,70.146c-0.17,0.902-0.27,1.87-0.307,2.808c-0.035,0.943-0.008,1.885,0.11,2.801
c0.229,1.821,0.847,3.585,2.015,4.714l-1.584,1.479c-0.762-0.869-1.279-1.893-1.605-2.924c-0.329-1.035-0.482-2.085-0.536-3.119
c-0.053-1.036-0.004-2.059,0.112-3.066c0.12-1.014,0.293-1.99,0.565-2.996L140.386,70.146z"/>
<path fill="#483525" d="M148.591,95.382c0.698,0.972,1.292,2.012,1.752,3.101c0.234,0.55,0.432,1.112,0.591,1.683h2.098
c-0.23-0.852-0.525-1.683-0.893-2.476c-0.559-1.217-1.259-2.357-2.063-3.409c-0.819-1.057-1.686-2.008-2.77-2.892l-1.078,1.357
C147.075,93.481,147.9,94.423,148.591,95.382z"/>
<path fill="#483525" d="M140.625,55.461c-0.964,1.269-1.717,2.852-2.343,4.409c-0.614,1.581-1.091,3.22-1.477,4.88
c-0.767,3.325-1.11,6.744-1.232,10.161l-0.003-0.049c0.111,0.659,0.332,1.331,0.599,1.955c0.276,0.624,0.611,1.225,1.056,1.724
c0.445,0.495,0.978,0.897,1.576,1.121c0.6,0.223,1.25,0.264,1.883,0.164l0.086,0.996c-0.773,0.007-1.568-0.104-2.27-0.45
c-0.71-0.319-1.303-0.837-1.765-1.42c-0.93-1.182-1.44-2.566-1.71-4.008l-0.004-0.02l0.001-0.029
c0.084-3.448,0.44-6.896,1.14-10.286c0.351-1.695,0.803-3.373,1.386-5.014c0.594-1.646,1.243-3.24,2.297-4.76L140.625,55.461z"/>
<path fill="#483525" d="M115.927,53.734c-1.485,2.677-2.573,5.594-3.437,8.561c-0.856,2.975-1.458,6.026-1.852,9.106l0,0
l-0.158-0.19c3.377,0.236,6.759,0.435,10.14,0.578c1.69,0.07,3.381,0.127,5.07,0.147c1.68,0.006,3.397,0.038,5.013-0.187
l0.109,0.682c-1.748,0.212-3.432,0.142-5.135,0.109c-1.697-0.05-3.392-0.135-5.084-0.234c-3.385-0.201-6.764-0.457-10.141-0.752
l-0.18-0.016l0.021-0.175v-0.001c0.287-3.107,0.785-6.203,1.545-9.243c0.772-3.035,1.765-6.03,3.204-8.856L115.927,53.734z"/>
<path fill="none" stroke="#483525" stroke-miterlimit="10" d="M112.237,52.99c0,0-3.715,4.484-5.631,16.068"/>
<path fill="#483525" d="M47.922,64.609c0.103,1.469,0.396,2.907,0.724,4.35c0.32,1.442,0.73,2.869,1.122,4.303l1.182,4.314
c0.399,1.438,0.773,2.902,0.622,4.474c-0.825-1.337-1.236-2.753-1.636-4.191c-0.419-1.431-0.834-2.866-1.214-4.315
c-0.382-1.448-0.709-2.916-0.987-4.398c-0.262-1.481-0.445-3.006-0.365-4.525L47.922,64.609z"/>
<path fill="#483525" d="M51.136,79.496c1.856,0.344,3.611,0.887,5.343,1.55c0.861,0.335,1.709,0.704,2.539,1.112
c0.839,0.434,1.589,0.812,2.452,1.112c1.691,0.612,3.452,1.078,5.217,1.504c1.769,0.42,3.553,0.793,5.34,1.116l-0.078,0.484
c-1.811-0.284-3.606-0.616-5.397-0.998c-1.79-0.388-3.573-0.814-5.329-1.403c-0.87-0.276-1.764-0.698-2.553-1.085
c-0.816-0.379-1.65-0.719-2.497-1.026c-1.688-0.604-3.447-1.098-5.187-1.378L51.136,79.496z"/>
<path fill="#483525" d="M71.11,85.863c0.702-0.817,1.443-1.589,2.245-2.313c0.809-0.708,1.654-1.421,2.735-1.836
c1.025-0.377,2.079-0.679,3.221-0.74c0.567-0.016,1.185,0.003,1.799,0.353c0.302,0.18,0.569,0.483,0.703,0.826
c0.136,0.343,0.153,0.689,0.133,1.003l-0.996-0.092c0.05-0.442-0.043-0.752-0.336-0.949c-0.307-0.204-0.798-0.281-1.283-0.279
c-0.987,0.007-2.019,0.244-2.998,0.561c-0.932,0.305-1.788,0.943-2.597,1.597c-0.806,0.667-1.574,1.4-2.29,2.166L71.11,85.863z"/>
<path fill="#483525" d="M84.234,84.528c-0.688,0.409-1.337,0.87-1.904,1.376c-0.278,0.256-0.528,0.537-0.696,0.833
c-0.076,0.137-0.156,0.321-0.303,0.53c-0.127,0.188-0.268,0.359-0.416,0.519c-0.603,0.63-1.313,1.122-2.13,1.459
c-0.409,0.165-0.847,0.295-1.332,0.331c-0.476,0.039-1.039-0.032-1.523-0.353c-0.227-0.166-0.148-0.094-0.343-0.293
c-0.143-0.157-0.208-0.276-0.277-0.43c-0.131-0.294-0.168-0.597-0.159-0.871c0.022-0.55,0.214-1.009,0.44-1.411
c0.459-0.808,1.1-1.425,1.802-1.912c1.39-0.985,3.054-1.558,4.717-1.341c-1.442,0.816-2.84,1.363-3.993,2.299
c-0.559,0.466-1.064,1.001-1.377,1.586c-0.155,0.289-0.249,0.593-0.272,0.838c-0.006,0.121,0.01,0.222,0.037,0.292
c0.006,0.028,0.045,0.084,0.036,0.072c-0.072-0.044,0.164,0.154,0.103,0.098c0.35,0.264,1.074,0.242,1.732,0.006
c0.664-0.231,1.326-0.598,1.874-1.061c0.139-0.114,0.267-0.236,0.38-0.363c0.104-0.102,0.198-0.276,0.355-0.461
c0.298-0.349,0.642-0.607,0.993-0.831C82.684,84.995,83.453,84.714,84.234,84.528z"/>
<path fill="#483525" d="M82.205,85.036c0.903-0.422,1.841-0.704,2.956-0.603c0.54,0.063,1.206,0.343,1.557,0.915
c0.047,0.066,0.078,0.139,0.115,0.208c0.074,0.153,0.054,0.136,0.085,0.213c0.054,0.149,0.089,0.395,0.078,0.552
c-0.019,0.364-0.18,0.669-0.351,0.901c-0.355,0.466-0.784,0.738-1.208,0.986c-0.426,0.242-0.868,0.428-1.32,0.572
c-0.896,0.296-1.823,0.504-2.758,0.497c0.888-0.26,1.721-0.641,2.513-1.062c0.757-0.438,1.588-0.928,1.949-1.547
c0.084-0.146,0.111-0.282,0.107-0.38c-0.013-0.072-0.007-0.058-0.029-0.125c-0.015-0.028-0.064-0.159-0.05-0.104
c-0.02-0.028-0.035-0.063-0.059-0.088c-0.162-0.21-0.415-0.335-0.779-0.378c-0.724-0.091-1.62,0.129-2.418,0.363L82.205,85.036z"/>
<path fill="#483525" d="M85.775,87.088c0.495,0.176,0.896,0.426,1.235,0.825c0.332,0.391,0.525,0.93,0.51,1.432
c-0.016,0.487-0.145,0.972-0.395,1.381c-0.283,0.437-0.66,0.705-1.041,0.927c-0.771,0.427-1.585,0.643-2.396,0.808
c-0.812,0.164-1.635,0.237-2.454,0.256c0.805-0.149,1.595-0.36,2.364-0.604c0.763-0.252,1.517-0.565,2.129-1.014
c0.301-0.22,0.563-0.497,0.697-0.767c0.152-0.301,0.201-0.645,0.188-0.97c-0.02-0.62-0.529-1.107-1.13-1.317L85.775,87.088z"/>
<path fill="none" stroke="#483525" stroke-miterlimit="10" d="M85.901,91.372c0,0,0.896,1.969-1.354,3.031
s-9.404,2.561-14.002-3.461"/>
<path fill="none" stroke="#483525" stroke-miterlimit="10" d="M72.277,92.78c0,0-1.231,1.478-0.022,2.686s3.292-0.542,3.292-0.542"
/>
<path fill="none" stroke="#483525" stroke-miterlimit="10" d="M75.692,94.741c0,0-0.979,2.141,1.229,2.308s2.458-1.668,2.458-1.668
"/>
<path fill="none" stroke="#483525" stroke-miterlimit="10" d="M79.269,95.762c0,0,1.506,3.091,3.788-0.832"/>
<path fill="#483525" d="M86.489,88.425c0.627-0.957,1.298-1.839,2.119-2.641c0.414-0.395,0.866-0.764,1.397-1.05
c0.557-0.276,1.024-0.454,1.542-0.673l6.078-2.427l0.354,0.936c-2.052,0.723-4.085,1.506-6.105,2.298
c-0.487,0.202-1.045,0.399-1.457,0.621c-0.425,0.238-0.82,0.568-1.187,0.933c-0.729,0.729-1.373,1.604-1.878,2.507L86.489,88.425z"
/>
<path fill="#483525" d="M39.609,100.198h1.424c0.596-4.552,0.639-9.135,0.39-13.681c-0.278-4.76-0.843-9.48-1.761-14.168
l-0.98,0.199c0.836,4.618,1.331,9.33,1.536,14.027C40.4,91.135,40.279,95.714,39.609,100.198z"/>
<path fill="none" stroke="#483525" stroke-miterlimit="10" d="M63.294,90.157c0,0-0.829,6.725-0.496,10.059"/>
<path fill="#483525" d="M48.81,100.198c0.163-0.942,0.281-1.876,0.371-2.81c0.126-1.229,0.203-2.459,0.286-3.687
c0.162-2.457,0.26-4.909,0.393-7.374l-1-0.002c0.099,2.44,0.047,4.894-0.086,7.333c-0.069,1.221-0.184,2.438-0.333,3.646
c-0.139,0.978-0.299,1.963-0.56,2.894H48.81z"/>
<path fill="#483525" d="M67.956,90.702c0.049,3.168,0.12,6.335,0.278,9.499l-1,0.029c-0.027-3.168-0.142-6.334-0.278-9.499
L67.956,90.702z"/>
<path fill="#483525" d="M141.77,87.462c1.539-0.608,3.084-0.995,4.563-1.601c1.476-0.602,2.873-1.38,4.113-2.349
c1.243-0.959,2.34-2.103,3.187-3.409c0.839-1.287,1.521-2.776,1.763-4.221l0.212-1.258l0.768,0.957l0,0
c0.309,0.436,0.419,0.821,0.541,1.214c0.113,0.393,0.195,0.773,0.264,1.173v0.001l-0.691-0.018c0.603-2.22,0.695-4.569,0.06-6.728
l0.048-0.013c-0.525-1.849-1.542-3.523-2.831-4.948c-1.29-1.43-2.837-2.627-4.49-3.646c-0.828-0.51-1.686-0.974-2.564-1.399
c-0.443-0.216-0.872-0.409-1.343-0.62c-0.466-0.21-0.957-0.46-1.408-0.71c-1.841-1.034-3.489-2.242-5.065-3.704l1.607-1.576
c1.293,1.332,2.834,2.6,4.44,3.605c0.413,0.257,0.805,0.483,1.24,0.709c0.434,0.221,0.906,0.465,1.352,0.711
c0.9,0.497,1.78,1.034,2.63,1.621c1.696,1.171,3.285,2.536,4.601,4.156c1.313,1.612,2.335,3.508,2.8,5.552l0.048-0.012
c0.569,2.411,0.315,4.932-0.439,7.206l-0.414,1.253l-0.276-1.271l0,0c-0.123-0.341-0.267-0.693-0.427-1.016
c-0.154-0.317-0.351-0.647-0.528-0.807l0,0l0.979-0.302c-0.304,1.762-1.007,3.292-1.953,4.705c-0.958,1.394-2.162,2.607-3.525,3.58
c-1.367,0.97-2.871,1.714-4.429,2.266C145.048,87.116,143.432,87.537,141.77,87.462z"/>
<path fill="#483525" d="M135.545,55.266c-1.156,2.685-2.109,5.501-2.916,8.335c-0.801,2.842-1.439,5.73-1.864,8.652l-0.662-0.09
c0.375-2.962,0.966-5.894,1.722-8.781c0.766-2.889,1.664-5.728,2.805-8.519L135.545,55.266z"/>
<path fill="#483525" d="M56.138,50.935c-0.477,0.16-0.996,0.516-1.257,0.916c-0.27,0.406-0.286,0.896-0.063,1.412
c0.251,0.537,0.58,0.924,1.113,1.123c0.524,0.212,1.165,0.265,1.812,0.309c1.295,0.077,2.718,0.196,3.986,0.826
c1.274,0.609,2.28,1.647,3.027,2.779l-0.019-0.026c0.708,1.074,1.03,2.148,1.354,3.268c0.301,1.113,0.512,2.242,0.668,3.375
c0.309,2.268,0.407,4.549,0.392,6.823c-0.035,2.266-0.061,4.516,0.03,6.769c0.042,1.124,0.101,2.248,0.197,3.364
c0.102,1.089,0.221,2.288,0.486,3.222l-0.832,0.324c-0.342-1.247-0.395-2.32-0.498-3.479c-0.083-1.138-0.127-2.273-0.153-3.408
c-0.044-2.268-0.038-4.542-0.009-6.797c0.01-2.246-0.094-4.494-0.402-6.709c-0.155-1.105-0.364-2.203-0.656-3.272
c-0.292-1.045-0.675-2.159-1.218-2.977l1.998,3.008l-2.018-3.034c-0.697-1.05-1.597-1.96-2.707-2.487
c-1.109-0.547-2.372-0.661-3.684-0.735c-0.658-0.053-1.348-0.081-2.063-0.325c-0.354-0.125-0.708-0.326-0.995-0.604
c-0.311-0.31-0.474-0.579-0.661-0.927c-0.376-0.646-0.476-1.624-0.057-2.365c0.396-0.745,0.97-1.229,1.667-1.637L56.138,50.935z"/>
<path fill="#483525" d="M134.378,74.179c-0.101,1.03-0.929,2.066-2.064,2.132c-0.539,0.039-1.128-0.229-1.446-0.67
c-0.334-0.441-0.453-0.987-0.397-1.525c0.102-1.021,0.913-2.016,2.02-2.113c0.531-0.05,1.122,0.202,1.453,0.638
c0.346,0.433,0.478,0.996,0.436,1.528L134.378,74.179z M133.882,74.12c0.049-0.425-0.044-0.867-0.294-1.201
c-0.253-0.339-0.642-0.531-1.075-0.513c-0.874,0.024-1.571,0.887-1.638,1.767c-0.036,0.418,0.071,0.879,0.333,1.204
c0.265,0.334,0.656,0.511,1.081,0.481c0.847-0.059,1.528-0.878,1.595-1.749L133.882,74.12z"/>
<path fill="#483525" d="M110.124,72.477c-0.101,1.03-0.929,2.066-2.064,2.132c-0.539,0.039-1.128-0.229-1.446-0.67
c-0.334-0.441-0.453-0.987-0.398-1.525c0.103-1.021,0.913-2.016,2.021-2.113c0.531-0.05,1.122,0.202,1.453,0.638
c0.346,0.433,0.479,0.996,0.436,1.528L110.124,72.477z M109.628,72.418c0.049-0.425-0.044-0.867-0.294-1.201
c-0.253-0.339-0.642-0.531-1.075-0.514c-0.874,0.025-1.571,0.888-1.638,1.768c-0.036,0.418,0.071,0.879,0.333,1.204
c0.265,0.334,0.656,0.511,1.081,0.481c0.847-0.059,1.528-0.878,1.595-1.749L109.628,72.418z"/>
<g>
<path fill="none" stroke="#483525" stroke-width="0.3" stroke-linecap="round" stroke-linejoin="round" d="M109.269,70.897
c0.018-0.15,0.039-0.315,0.062-0.493"/>

<path fill="none" stroke="#483525" stroke-width="0.3" stroke-linecap="round" stroke-linejoin="round" stroke-dasharray="1.027,1.027" d="
M109.476,69.389c0.512-3.409,1.739-9.631,4.408-15.241"/>
<path fill="none" stroke="#483525" stroke-width="0.3" stroke-linecap="round" stroke-linejoin="round" d="M114.11,53.68
c0.074-0.149,0.148-0.299,0.225-0.447"/>
</g>
<g>
<path fill="none" stroke="#483525" stroke-width="0.3" stroke-linecap="round" stroke-linejoin="round" d="M130.53,73.536
c-0.15-0.001-0.316-0.002-0.498-0.004"/>

<path fill="none" stroke="#483525" stroke-width="0.3" stroke-linecap="round" stroke-linejoin="round" stroke-dasharray="1.0418,1.0418" d="
M128.992,73.521c-4.427-0.057-13.667-0.274-18.189-1.127"/>
<path fill="none" stroke="#483525" stroke-width="0.3" stroke-linecap="round" stroke-linejoin="round" d="M110.292,72.291
c-0.17-0.037-0.331-0.076-0.483-0.115"/>
</g>
<g>
<path fill="none" stroke="#483525" stroke-width="0.3" stroke-linecap="round" stroke-linejoin="round" d="M136.604,55.212
c0,0-0.082,0.146-0.228,0.44"/>

<path fill="none" stroke="#483525" stroke-width="0.3" stroke-linecap="round" stroke-linejoin="round" stroke-dasharray="1.0093,1.0093" d="
M135.952,56.563c-0.979,2.211-2.85,7.16-4.128,15.05"/>
<path fill="none" stroke="#483525" stroke-width="0.3" stroke-linecap="round" stroke-linejoin="round" d="M131.743,72.121
c-0.025,0.164-0.051,0.33-0.076,0.497"/>
</g>
<path fill="#483525" d="M133.435,74.185c-0.013,0.21-0.162,0.372-0.334,0.365c-0.173-0.008-0.302-0.183-0.29-0.393
c0.013-0.208,0.162-0.372,0.335-0.364C133.317,73.801,133.447,73.977,133.435,74.185z"/>
<path fill="#483525" d="M131.789,73.906c-0.013,0.208-0.162,0.372-0.335,0.364c-0.172-0.008-0.302-0.184-0.289-0.392
c0.013-0.21,0.162-0.372,0.334-0.365C131.672,73.521,131.801,73.696,131.789,73.906z"/>
<path fill="#483525" d="M109.227,72.461c-0.013,0.21-0.162,0.372-0.334,0.365c-0.173-0.008-0.302-0.183-0.29-0.393
c0.013-0.208,0.162-0.372,0.335-0.364C109.109,72.077,109.239,72.253,109.227,72.461z"/>
<path fill="#483525" d="M107.581,72.181c-0.013,0.208-0.162,0.372-0.335,0.364c-0.172-0.008-0.302-0.184-0.289-0.392
c0.013-0.21,0.162-0.372,0.334-0.365C107.464,71.797,107.593,71.971,107.581,72.181z"/>
<path fill="#483525" d="M108.616,75.499c-1.069,2.223-2.03,4.505-2.861,6.826c-0.824,2.351-1.559,4.761-1.812,7.218v0.001
l-0.203-0.271c4.18,0.737,8.413,1.286,12.65,1.49c4.239,0.147,8.503-0.051,12.741-0.347h0.001l-0.23,0.244l0.361-14.372l0,0
l0.133,0.141L108.616,75.499z M108.44,75.206l20.967,0.945l0.135,0.007l-0.002,0.135l0,0l-0.139,14.376l-0.002,0.226l-0.229,0.02
h-0.001c-4.259,0.298-8.522,0.497-12.801,0.349c-4.276-0.206-8.512-0.756-12.722-1.498l-0.229-0.041l0.025-0.23v-0.001
c0.301-2.531,1.078-4.943,1.941-7.301c0.881-2.354,1.889-4.655,3.014-6.903L108.44,75.206z"/>
<g>
<path fill="none" stroke="#483525" stroke-width="0.3" stroke-linecap="round" stroke-linejoin="round" d="M109.396,75.682
c-0.029,0.061-0.103,0.215-0.211,0.448"/>

<path fill="none" stroke="#483525" stroke-width="0.3" stroke-linecap="round" stroke-linejoin="round" stroke-dasharray="0.9862,0.9862" d="
M108.779,77.027c-1.009,2.271-2.933,6.937-3.54,10.744"/>
<path fill="none" stroke="#483525" stroke-width="0.3" stroke-linecap="round" stroke-linejoin="round" d="M105.167,88.271
c-0.021,0.168-0.041,0.333-0.057,0.496c0,0,0.173,0.034,0.487,0.091"/>

<path fill="none" stroke="#483525" stroke-width="0.3" stroke-linecap="round" stroke-linejoin="round" stroke-dasharray="1.0358,1.0358" d="
M106.614,89.036c1.953,0.33,5.539,0.871,9.136,1.082c3.808,0.223,8.865-0.069,10.996-0.216"/>
<path fill="none" stroke="#483525" stroke-width="0.3" stroke-linecap="round" stroke-linejoin="round" d="M127.267,89.866
c0.318-0.023,0.495-0.038,0.495-0.038s0.003-0.18,0.009-0.497"/>

<path fill="none" stroke="#483525" stroke-width="0.3" stroke-linecap="round" stroke-linejoin="round" stroke-dasharray="0.9344,0.9344" d="
M127.785,88.399c0.045-2.662,0.14-8.334,0.18-10.75"/>
<path fill="none" stroke="#483525" stroke-width="0.3" stroke-linecap="round" stroke-linejoin="round" d="M127.973,77.179
c0.004-0.216,0.007-0.385,0.009-0.497"/>
</g>

<path fill="none" stroke="#483525" stroke-width="0.3" stroke-linecap="round" stroke-linejoin="round" stroke-miterlimit="10" stroke-dasharray="1" d="
M94.482,92.298c0,0,17.229,6.616,44.001,1.611"/>

<path fill="none" stroke="#483525" stroke-width="0.3" stroke-linecap="round" stroke-linejoin="round" stroke-miterlimit="10" stroke-dasharray="1" d="
M94.233,94.744c0,0,21.492,8.253,53.768-0.648"/>
<path fill="#483525" d="M131.52,73.646c0.253,0.169,0.523,0.236,0.795,0.303c0.138,0.019,0.273,0.055,0.413,0.059
c0.134,0.014,0.29,0.011,0.412-0.008l-0.033,0.344c-0.153-0.059-0.271-0.109-0.412-0.142c-0.134-0.042-0.273-0.054-0.409-0.082
c-0.278-0.028-0.556-0.055-0.852,0.019L131.52,73.646z"/>
<path fill="#483525" d="M107.29,71.937c0.253,0.169,0.523,0.236,0.795,0.303c0.138,0.019,0.272,0.055,0.413,0.059
c0.134,0.014,0.29,0.011,0.412-0.008l-0.033,0.344c-0.153-0.059-0.271-0.109-0.412-0.142c-0.134-0.042-0.273-0.054-0.409-0.082
c-0.278-0.028-0.556-0.055-0.852,0.019L107.29,71.937z"/>
</g>
<g>
<path fill="#483525" d="M41.561,63.675c0,0-0.326-0.084-0.817-0.103c-0.121-0.014-0.256,0.003-0.395,0.004
c-0.14,0.01-0.284-0.003-0.435,0.029c-0.299,0.05-0.614,0.076-0.915,0.186c-0.305,0.08-0.598,0.179-0.857,0.321
c-0.13,0.061-0.256,0.121-0.375,0.177c-0.122,0.045-0.218,0.139-0.315,0.198c-0.374,0.257-0.624,0.428-0.624,0.428l-0.709-1.185
c0,0,0.343-0.123,0.858-0.307c0.13-0.038,0.258-0.107,0.415-0.126c0.152-0.028,0.313-0.058,0.479-0.089
c0.325-0.077,0.681-0.101,1.035-0.101c0.35-0.029,0.7,0.03,1.02,0.062c0.16,0.009,0.313,0.062,0.456,0.089
c0.143,0.037,0.279,0.055,0.399,0.102C41.27,63.51,41.561,63.675,41.561,63.675z"/>
</g>
<g>
<path fill="#483525" d="M43.882,66.362c0,0-0.422-0.022-1.041,0.052c-0.155,0.008-0.321,0.051-0.496,0.077
c-0.174,0.037-0.36,0.05-0.545,0.109c-0.372,0.108-0.77,0.188-1.144,0.356c-0.38,0.142-0.753,0.29-1.078,0.486
c-0.329,0.181-0.643,0.326-0.876,0.519c-0.478,0.345-0.797,0.576-0.797,0.576l-0.762-1.152c0,0,0.408-0.183,1.019-0.457
c0.294-0.153,0.677-0.246,1.07-0.365c0.389-0.134,0.821-0.211,1.251-0.276c0.424-0.091,0.862-0.09,1.261-0.12
c0.199-0.02,0.396,0.005,0.579,0.005c0.184,0.01,0.355,0.002,0.515,0.026C43.475,66.254,43.882,66.362,43.882,66.362z"/>
</g>
</svg>
