<?xml version="1.0" encoding="utf-8"?>
<!-- Generator: Adobe Illustrator 17.0.0, SVG Export Plug-In . SVG Version: 6.00 Build 0)  -->
<!DOCTYPE svg PUBLIC "-//W3C//DTD SVG 1.1//EN" "http://www.w3.org/Graphics/SVG/1.1/DTD/svg11.dtd">
<svg version="1.1" id="Слой_1" xmlns="http://www.w3.org/2000/svg" xmlns:xlink="http://www.w3.org/1999/xlink" x="0px" y="0px"
	 width="105.041px" height="104.124px" viewBox="0 0 105.041 104.124" enable-background="new 0 0 105.041 104.124"
	 xml:space="preserve">
<g>
	<g>
		<g>
			<path fill="#F5F6F5" d="M44.086,100.203c0.479-0.42,0.399-1.939,0.1-2.43c-0.319-0.51-1.13-1.34-1.72-0.85
				c-0.34,0.279-0.41,0.59-0.471,1.029c-0.109,0.83-0.09,2.171,0.871,2.53C43.306,100.653,43.726,100.514,44.086,100.203z
				 M45.586,103.163l-4.83-2.38c0-0.029-0.011-0.06-0.011-0.08v-4.229c0-1.36,0.711-2.14,1.65-1.96c0.15,0.03,0.311,0.08,0.471,0.16
				l0.619,0.31c1.16,0.57,2.11,2.311,2.11,3.87v4.23C45.596,103.113,45.586,103.134,45.586,103.163z"/>
			<path fill="#93B3E0" d="M7.537,82.584l26.75,20.77c0,0-10.061-0.52-25.24-13.79l2.39-0.7l-7.35-5.359
				C5.176,82.113,7.537,82.584,7.537,82.584z"/>
			<path fill="#93B3E0" d="M104.476,85.773c-0.229,0.13-0.529,0.26-0.898,0.38l-1.271,0.41l-0.08-0.26
				c0-0.75-0.969-1.351-2.16-1.351c-0.469,0-0.898,0.101-1.26,0.261c-0.19-0.78-1.27-1.38-2.58-1.38c-0.969,0-1.68,0.22-2.27,0.829
				c-0.301-0.96-1.08-1.649-2.359-1.649c-1.09,0-2.01,0.54-2.281,1.27c-0.639-0.449-1.549-0.51-2.5-0.51c-1.54,0-2.87,0.5-3.5,1.23
				c-0.229-0.221-0.549-0.36-0.92-0.36c-0.68,0-1.24,0.47-1.24,1.05c0,0.07,0.012,0.13,0.031,0.19l-0.041,0.149l-1.789-0.51
				c-0.15-0.04-0.291-0.09-0.41-0.14c-1.08-0.46-0.77-1.181,0.83-1.69l7.161-2.29c1.779-0.56,4.469-0.67,6.01-0.229l11.051,3.16
				C105.216,84.684,105.357,85.264,104.476,85.773z"/>
			<path fill="#93B3E0" d="M104.476,85.773l-0.32,4.7c0.182,0.38-0.27,0.81-1.328,1.15l-6.711,2.149
				c-1.66,0.53-4.18,0.62-5.631,0.21l-10.35-2.95c-0.699-0.199-1.02-0.489-0.969-0.79l-0.221-4.859c0.119,0.05,0.26,0.1,0.41,0.14
				l1.789,0.51l9.26,2.641c1.541,0.439,4.23,0.34,6.012-0.23l5.889-1.88l1.271-0.41C103.947,86.033,104.248,85.903,104.476,85.773z"
				/>
			<path fill="#F5F6F5" d="M100.066,84.953c1.191,0,2.16,0.601,2.16,1.351l0.08,0.26l-5.889,1.88c-1.781,0.57-4.471,0.67-6.012,0.23
				l-9.26-2.641l0.041-0.149c-0.02-0.061-0.031-0.12-0.031-0.19c0-0.58,0.561-1.05,1.24-1.05c0.371,0,0.691,0.14,0.92,0.36
				c0.631-0.73,1.961-1.23,3.5-1.23c0.951,0,1.861,0.061,2.5,0.51c0.271-0.729,1.191-1.27,2.281-1.27
				c1.279,0,2.059,0.689,2.359,1.649c0.59-0.609,1.301-0.829,2.27-0.829c1.311,0,2.391,0.6,2.58,1.38
				C99.167,85.054,99.597,84.953,100.066,84.953z"/>
			<path fill="#D24B43" d="M42.396,94.483c0,0,24.451,0,28.541,0c0.57-0.04,1.09-0.02,1.51,0.19l0.619,0.31
				c1.17,0.57,2.121,2.311,2.121,3.87v4.23c0,0.01,0,0.199,0,0.399l-29.31-0.12l-0.29-0.2c0-0.029,0.01-0.05,0.01-0.079v-4.23
				c0-1.56-0.95-3.3-2.11-3.87l-0.619-0.31c-0.16-0.08-0.32-0.13-0.471-0.16C42.396,94.493,42.396,94.483,42.396,94.483z"/>
			<path fill="#F8DCA8" d="M35.697,91.304c-0.19,0.25-0.42,0.46-0.69,0.609h-0.011c-0.34,0.211-0.739,0.32-1.189,0.32
				c-2.04,0-4.311-2.21-5.08-4.939c-0.769-2.73,0.26-4.94,2.301-4.94c0.229,0,0.459,0.03,0.69,0.09c0,0,0.01,0,0.019,0
				c1.83,0.431,3.69,2.431,4.37,4.851C36.566,88.943,36.367,90.403,35.697,91.304z"/>
			<path fill="#F8DCA8" d="M69.347,92.224l-34.34-0.311c0.27-0.149,0.5-0.359,0.69-0.609c0.67-0.9,0.869-2.36,0.409-4.01
				c-0.68-2.42-2.54-4.42-4.37-4.851c0.18,0,1.53-0.01,3.61-0.01l0.03-0.01c0.22,0.51,0.46,1.08,0.72,1.72
				c1.28,3.16,3.03,4.81,4.09,5.19c1.04,0.359,1.63,0.029,1.78-0.881c0.01,0.011,0.01,0.011,0.02,0.021c1,1.16,2.881,0.74,2.77-0.63
				c0.021,0.03,0.05,0.06,0.069,0.09c0.011,0,0,0.01,0,0.01c0.75,0.91,1.301,0.58,1.601,0.41c0.521-0.29,0.63-1.28,0.271-2.51
				c0,0,2.81,1.26,2.149-1.53c-0.2-0.83-0.76-1.36-1.55-1.87c2.47-0.01,5.63-0.05,7.97-0.06c0.7,1.01,1.3,2.83,2,3.51
				c0.649,0.64,2.25,1.03,2.36-0.53c0.01-0.21,0-0.43-0.04-0.66c0.31,1.07,1.42,4.24,3.229,2.53c0,0,1.721,1.97,2.75-0.53
				c0,0,1.56,1.23,1.72-1.399c0.051-0.811,0.051-1.79-0.32-2.82l0.131-0.04c1.84,0.431,3.699,2.44,4.369,4.851
				C72.216,89.943,71.267,92.104,69.347,92.224z"/>
			<path fill="#E49944" d="M19.617,75.144c3.199,1,7.449,2.32,11.129,3.46c-3.909,0-7.619,0-11.02,0
				c0.18-1.27-0.109-3.45-0.109-3.45V75.144z"/>
			<path fill="#E49944" d="M34.766,43.724c2.649,1.229,5.36-0.23,7.35,10.06c-0.461-0.87-0.951-1.64-1.42-2.319
				c0,0-0.07-0.08-0.19-0.23c-0.011-0.01-0.021-0.03-0.04-0.04c-0.62-0.76-2.43-2.91-3.94-4.34c-1.861-1.76-1.94-2.44-1.94-2.44
				c-0.45-0.17-0.83-0.43-1.12-0.859c-0.301-0.44-0.45-0.84-0.49-1.19C33.207,42.764,33.707,43.233,34.766,43.724z"/>
			<path fill="#E49944" d="M59.576,84.674c-0.01-0.09-0.039-0.181-0.069-0.271C59.516,84.453,59.546,84.544,59.576,84.674z
				 M59.626,85.363c-0.11,1.561-1.711,1.17-2.36,0.53c-0.7-0.68-1.3-2.5-2-3.51c-0.13-0.2-0.271-0.37-0.42-0.49
				c-0.87-0.73-0.95-1.78-0.83-2.59c0,0-0.739-0.28-1.87-0.74c-2.949-1.17-8.56-3.479-10.97-4.92l-0.16-0.02
				c0.46-3.9,1.399-7.961,2.149-10.78c0.041-0.141,0.07-0.28,0.111-0.41c0.139-0.51,0.27-0.981,0.379-1.38
				c0.01-0.04,0.021-0.08,0.03-0.11c0.059-0.2,0.11-0.38,0.16-0.54c0-0.01,0.01-0.01,0.01-0.02l0.681,6.34
				c0.72,0.439,1.52,1.38,2.81,2.5c5.56,4.84,11.19,7.61,11.19,7.61c1.959,0.52,3.49,1.13,4.68,1.77c2.26,1.22,3.3,2.59,3.749,3.88
				c0.371,1.03,0.371,2.01,0.32,2.82c-0.16,2.63-1.72,1.399-1.72,1.399c-1.029,2.5-2.75,0.53-2.75,0.53
				c-1.81,1.71-2.92-1.46-3.229-2.53C59.626,84.934,59.636,85.153,59.626,85.363z"/>
			<path fill="#E49944" d="M41.986,88.474c-0.01-0.01-0.01-0.01-0.02-0.021c-0.15,0.91-0.74,1.24-1.78,0.881
				c-1.06-0.381-2.81-2.03-4.09-5.19c-0.26-0.64-0.5-1.21-0.72-1.72c-0.59-1.34-1.04-2.23-1.35-2.811
				c-1-0.31-2.111-0.649-3.281-1.01c-3.68-1.14-7.93-2.46-11.129-3.46c-2.91-0.9-4.961-1.54-4.961-1.54
				c-0.81,0.87-0.89,1.53-0.89,1.53c-1.15-1.601-0.98-3.221-0.98-3.221c-0.74,0.711-1.09,1.75-1.09,1.75
				c-0.92-3.01,1.01-12.18,1.219-15.989c0.051-1.03,0.131-1.981,0.221-2.87c0.141-1.32,0.33-2.48,0.55-3.51
				c1.601-7.42,5.17-7.881,8.851-8.101c0.33-0.019,0.629-0.05,0.91-0.1l0.01,0.069c-0.01,0.011-0.021,0.011-0.03,0.011l0.04,0.3
				c0,0-0.721,1.2,0.199,3.45c0.08,0.189,0.171,0.39,0.281,0.59c0.129,0.28,0.299,0.57,0.5,0.88c0.069,0.1,0.14,0.21,0.209,0.32
				c0.09,0.13,0.17,0.26,0.25,0.4c0.311,0.57,0.561,1.271,0.771,2.061c1.58,6.149,0.09,18.1,0.351,20.17l-0.051,0.08
				c2.45,1.45,5.61,3.1,10,4.72c1.12,0.41,2.76,0.83,4.721,1.7l0.02-0.05c0.01-1.011,0.07-2.061,0.18-3.141
				c-0.109,1.23-0.17,2.44-0.14,3.59c0.23,0.11,0.48,0.23,0.73,0.36c0.2,0.1,0.4,0.2,0.61,0.32c0.399,0.22,0.77,0.45,1.09,0.68
				c1.5,1.46,3.021,2.14,4.11,2.84c0.79,0.51,1.35,1.04,1.55,1.87c0.66,2.79-2.149,1.53-2.149,1.53
				c0.359,1.229,0.25,2.22-0.271,2.51c-0.3,0.17-0.851,0.5-1.601-0.41c0,0,0.011-0.01,0-0.01c-0.019-0.03-0.049-0.06-0.069-0.09
				C44.867,89.214,42.986,89.634,41.986,88.474z"/>
			<path fill="#F3C66E" d="M44.186,59.254c-0.51-2.011-1.239-3.79-2.03-5.29c-0.01-0.06-0.02-0.12-0.039-0.181
				c0.819,1.521,1.569,3.311,2.1,5.36C44.216,59.144,44.207,59.184,44.186,59.254z"/>
			<path fill="#F3C66E" d="M43.277,62.434c0.129-0.51,0.26-0.981,0.379-1.38C43.546,61.453,43.416,61.924,43.277,62.434z"/>
			<path fill="#4C3529" d="M44.186,97.773c0.3,0.49,0.38,2.01-0.1,2.43c-0.36,0.311-0.78,0.45-1.22,0.28
				c-0.961-0.359-0.98-1.7-0.871-2.53c0.061-0.439,0.131-0.75,0.471-1.029C43.056,96.434,43.867,97.264,44.186,97.773z"/>
			<path fill="#F3C66E" d="M42.117,53.783c0.02,0.061,0.029,0.12,0.039,0.181c-0.539-1.04-1.109-1.95-1.649-2.73
				c0.12,0.15,0.19,0.23,0.19,0.23C41.166,52.144,41.656,52.913,42.117,53.783z"/>
			<path fill="#F3C66E" d="M41.016,73.624c-0.021,0.1-0.03,0.199-0.04,0.3c0.45-4.24,1.51-8.641,2.301-11.49
				c-0.041,0.13-0.07,0.269-0.111,0.41C42.416,65.663,41.476,69.724,41.016,73.624z"/>
			<path fill="#F3C66E" d="M40.896,74.653c-0.109,1.08-0.17,2.13-0.18,3.141l-0.02,0.05c-1.961-0.87-3.601-1.29-4.721-1.7
				c-4.39-1.62-7.55-3.27-10-4.72l0.051-0.08c-0.261-2.07,1.229-14.02-0.351-20.17c-0.2-0.8-0.45-1.49-0.771-2.061
				c-0.08-0.14-0.16-0.27-0.25-0.4c-0.069-0.11-0.14-0.221-0.209-0.32c-0.19-0.31-0.36-0.6-0.5-0.88c-0.11-0.2-0.201-0.4-0.281-0.59
				c-0.92-2.25-0.199-3.45-0.199-3.45l-0.04-0.3c0.01,0,0.021,0,0.03-0.011c2.42-0.319,2.769-1.789,2.75-2.67h7.58
				c-0.48,0.41-0.931,1.021-0.811,1.87c0.04,0.35,0.189,0.75,0.49,1.19c0.29,0.43,0.67,0.689,1.12,0.859c0,0,0.079,0.681,1.94,2.44
				c1.51,1.43,3.319,3.58,3.94,4.34c0.02,0.01,0.029,0.03,0.04,0.04c0.54,0.78,1.11,1.69,1.649,2.73
				c0.791,1.5,1.521,3.279,2.03,5.29c-0.04,0.12-0.11,0.35-0.2,0.67c-0.029,0.13-0.08,0.29-0.13,0.46c0,0.01-0.01,0.01-0.01,0.02
				c-0.05,0.17-0.101,0.34-0.16,0.54c-0.01,0.03-0.021,0.07-0.03,0.11c-0.119,0.399-0.25,0.87-0.379,1.38
				c-0.791,2.85-1.851,7.25-2.301,11.49C40.947,74.163,40.916,74.413,40.896,74.653z"/>
		</g>
		<g>
			<path fill="#4C3529" d="M62.694,78.726c1.409-0.265,2.817-0.283,4.226-0.288l4.225-0.037l8.452-0.072l8.452,0.014l4.226,0.007
				c1.409-0.007,2.817,0.019,4.226,0.25c0.07,0.012,0.118,0.077,0.106,0.147c-0.009,0.057-0.053,0.098-0.106,0.106
				c-1.409,0.231-2.817,0.257-4.226,0.25l-4.226,0.007l-8.452,0.014l-8.452-0.072l-4.225-0.037
				C65.512,79.009,64.103,78.99,62.694,78.726z"/>
		</g>
		<g>
			<path fill="#4C3529" d="M41.361,78.726c0.448-0.266,0.896-0.281,1.344-0.29l1.344-0.046c0.896-0.036,1.791-0.041,2.688-0.062
				l2.687,0.004l1.344,0.016c0.448,0,0.896,0.013,1.344,0.251c0.07,0.037,0.097,0.124,0.06,0.194
				c-0.014,0.026-0.035,0.047-0.06,0.06c-0.448,0.238-0.896,0.251-1.344,0.251l-1.344,0.016l-2.687,0.004
				c-0.896-0.021-1.792-0.025-2.688-0.062l-1.344-0.046C42.257,79.007,41.809,78.991,41.361,78.726z"/>
		</g>
		<g>
			<path fill="#4C3529" d="M0,78.726c1.288-0.265,2.575-0.283,3.863-0.288L7.726,78.4l7.726-0.072l7.726,0.014l3.863,0.007
				c1.288-0.007,2.575,0.019,3.863,0.25c0.07,0.013,0.117,0.079,0.104,0.149c-0.01,0.055-0.053,0.096-0.104,0.104
				c-1.288,0.231-2.575,0.257-3.863,0.25l-3.863,0.007l-7.726,0.014l-7.726-0.072l-3.863-0.037C2.575,79.009,1.288,78.99,0,78.726z"
				/>
		</g>
		<g>
			<path fill="#4C3529" d="M37.618,48.002c1.681,1.459,3.095,3.223,4.293,5.118c1.195,1.903,2.137,3.978,2.783,6.159l0,0
				l0.039,0.146l-0.049,0.155c-0.971,3.058-1.783,6.196-2.42,9.35c-0.62,3.153-1.093,6.357-1.038,9.539l-1,0.025
				c-0.07-3.311,0.401-6.564,1.014-9.768c0.633-3.205,1.434-6.357,2.411-9.484l-0.011,0.302v-0.001
				c-0.445-2.125-1.186-4.203-2.2-6.153C40.421,51.445,39.172,49.591,37.618,48.002z"/>
		</g>
		<path fill="#4C3529" d="M20.168,78.954l-0.984-0.174c0.205-1.16-0.089-3.417-0.092-3.439l0.991-0.131
			C20.096,75.309,20.399,77.645,20.168,78.954z"/>
		<g>
			<path fill="#4C3529" d="M23.417,43.559c-0.396,1.139-0.07,2.341,0.391,3.383c0.235,0.529,0.525,1.036,0.855,1.517
				c0.348,0.469,0.655,1.052,0.859,1.615c0.816,2.307,0.969,4.724,1.08,7.103c0.085,2.387,0.027,4.771-0.072,7.149
				c-0.068,2.363-0.369,4.781-0.307,7.076l0.001,0.037c0.004,0.138-0.104,0.252-0.242,0.256c-0.133,0.003-0.245-0.1-0.255-0.23
				c-0.093-1.25,0.012-2.411,0.052-3.607l0.171-3.559c0.114-2.369,0.185-4.74,0.116-7.104c-0.092-2.351-0.24-4.751-1.005-6.947
				c-0.199-0.556-0.455-1.028-0.793-1.531c-0.32-0.514-0.601-1.056-0.824-1.622C23.024,45.979,22.812,44.629,23.417,43.559z"/>
		</g>
		<g>
			<path fill="#4C3529" d="M22.417,52.934c-0.197,1.24-0.43,2.474-0.675,3.705c-0.246,1.23-0.487,2.464-0.778,3.687
				c-0.284,1.224-0.58,2.445-0.907,3.662c-0.328,1.219-0.678,2.427-1.177,3.622l-0.7-0.309c0.486-1.112,0.859-2.312,1.24-3.498
				c0.371-1.192,0.714-2.396,1.045-3.604L22.417,52.934z"/>
		</g>
		<g>
			<path fill="#4C3529" d="M33.426,78.805c0.995,0.881,1.562,2.065,2.097,3.215c0.553,1.142,0.994,2.376,1.573,3.43
				c0.583,1.077,1.273,2.115,2.159,2.907c0.826,0.778,2.195,1.316,2.32,0.162l0.091-0.846l0.565,0.668l0,0.001
				c0.329,0.396,0.854,0.618,1.343,0.55c0.499-0.066,0.832-0.418,0.779-0.891l-0.15-1.344l0.823,1.087
				c0.219,0.29,0.497,0.541,0.719,0.556c0.182,0.041,0.603-0.169,0.627-0.352c0.111-0.259,0.118-0.64,0.077-1.001
				c-0.032-0.368-0.104-0.746-0.204-1.121c-0.426-1.505-1.349-2.891-2.55-4.015c1.414,0.851,2.598,2.17,3.245,3.778
				c0.313,0.802,0.55,1.704,0.132,2.694c-0.072,0.127-0.132,0.235-0.27,0.363c-0.079,0.074-0.125,0.101-0.164,0.125
				c-0.1,0.063-0.106,0.062-0.172,0.099c-0.208,0.113-0.509,0.216-0.809,0.173c-0.618-0.094-0.951-0.508-1.228-0.847l0.673-0.257
				c0.038,0.389-0.078,0.843-0.369,1.156c-0.284,0.317-0.675,0.487-1.056,0.537c-0.771,0.107-1.542-0.236-2.018-0.809l-0.001-0.002
				l0.657-0.178c-0.057,0.352-0.171,0.775-0.546,1.08c-0.378,0.302-0.863,0.326-1.223,0.264c-0.742-0.104-1.386-0.533-1.875-0.97
				c-1.003-0.907-1.758-2.004-2.348-3.167c-0.599-1.192-0.969-2.372-1.484-3.528C34.32,81.172,33.853,80.025,33.426,78.805z"/>
		</g>
		<g>
			<path fill="#4C3529" d="M18.739,50.774c-0.869-0.191-1.757-0.121-2.565,0.102c-0.811,0.227-1.54,0.629-2.168,1.137l-0.709-1.184
				C15.066,50.02,17.14,49.962,18.739,50.774z"/>
		</g>
		<g>
			<path fill="#4C3529" d="M19.414,53.356c-1.12-0.025-2.217,0.209-3.23,0.582c-1.015,0.377-1.942,0.925-2.747,1.594l-0.762-1.152
				c1.056-0.559,2.19-0.938,3.337-1.11C17.157,53.1,18.319,53.103,19.414,53.356z"/>
		</g>
		<g>
			<g>
				<path fill="#D24B43" d="M14.531,17.157c0,0-5.341-0.776-8.157,3.981c0,0,5.05,1.361,8.352-2.912L14.531,17.157z"/>
			</g>
		</g>
		<g>
			<g>
				<path fill="#F3C66E" d="M12.771,26.597c1.255,1.138,3.303,0.054,3.474-0.039c-1.05,0.53-2.384-0.13-2.519-0.333
					c-1.5-2.234,2.283-4.45,4.031-5.137c0.057-0.024,0.107-0.046,0.162-0.072c0.102-0.044,0.202-0.098,0.298-0.151
					c0.142-0.078,0.281-0.17,0.405-0.264c1.057-0.797,1.391-1.92,1.391-1.92c0.014,0.041,0.024,0.085,0.026,0.128
					c0.048-0.11,0.071-0.174,0.071-0.174c0.154,0.583-0.098,1.534-0.856,2.34c-0.139,0.15-0.301,0.3-0.479,0.436
					c-1.092,0.848-2.015,2.241-2.071,2.331c2.438-0.617,4.339-0.086,4.339-0.086c-2.126,0.688-3.697,1.833-4.787,2.895
					c0,0,0,0-0.002,0.006c-0.135,0.127-0.258,0.255-0.377,0.381c-1.088,1.154-1.578,2.12-1.578,2.12s0.645,1.568,5.277,4.55
					c1.428,0.924,2.791,1.604,3.987,2.102c0,0,4.23,5.716,3.936,8.096c0,0-0.029,0.344-0.439,0.693h6.547
					c0.021-0.264,0.096-0.418,0.099-0.483c-1.067-0.987-0.9-2.372-0.9-2.372c1.415-2.278,4.844-3.112,5.157-3.189
					c0.016,0,0.025-0.005,0.025-0.005c4.041-0.557,6.154-2.74,6.259-2.849c0-0.004,0.003-0.004,0.003-0.004
					c5.503-1.211,7.455-4.529,7.455-4.529c-1.481,0.237-3.134-0.425-4.739-2.458c-1.988-2.525,1.216-4.03,5.682-3.69
					c0.215,0.017,0.419,0.035,0.611,0.056c-0.135-0.08-2.068-1.262-5.305-2.582c-0.525-0.214-1.093-0.433-1.69-0.652
					c-0.195-0.073-0.386-0.148-0.57-0.225c-0.793-0.33-1.471-0.705-2.045-1.106c-0.049,0.043-0.107,0.081-0.172,0.113
					c-0.018-0.131-0.07-0.252-0.162-0.359c-0.068-0.051-0.133-0.102-0.195-0.151c-0.019-0.015-0.041-0.023-0.061-0.034
					c-0.101-0.047-0.201-0.092-0.295-0.149c0.038-0.01,0.07-0.021,0.102-0.04c-0.149-0.131-0.285-0.265-0.412-0.401
					c-2.032-1.417-3.854-0.196-3.854-0.196l-0.695,0.282c0.527,1.642,0.885,3.593,1.039,5.909c0,0-0.696,0.008-2.064-0.347
					c-0.43-0.114-0.93-0.262-1.492-0.457c-2.146-0.745-4.96-1.121-6.989-1.167c-0.345-0.009-0.667-0.009-0.958,0.004
					c-2.657,0.098-4.891-0.609-5.766-2.184c0,0,2.705-1.642,3.592-4.857c0.267-0.965,0.906-2.233,1.939-3.123
					c-0.563,0.375-0.896,0.75-0.937,0.794c0.148-0.436,0.31-0.815,0.488-1.159c-0.181,0.051-7.651,2.199-12.046,6.43
					c-0.077,0.068-0.148,0.141-0.221,0.212C10.002,24.031,12.771,26.597,12.771,26.597z"/>
			</g>
		</g>
		<g>
			<g>
				<path fill="#D24B43" d="M29.885,0.549c-12.67,0.582-15.731,10.995-15.658,13.327c0,0,1.722-1.773,6.332-3.325
					c-0.188,0.128-6.539,4.349-5.845,8.765c4.394-4.231,11.865-6.379,12.046-6.43c0.003,0,0.003,0,0.003,0
					c1.748-3.358,4.732-2.492,5.742-1.734c0.175,0.131,0.311,0.261,0.422,0.389c1.59-0.191,6.257-0.558,10.398,1.006
					c0.255,0.094,0.507,0.199,0.76,0.308C44.086,12.854,42.553-0.032,29.885,0.549z"/>
			</g>
		</g>
		<g>
			<g>
				<path fill="#4C3529" d="M18.218,20.864c-0.096,0.054-0.195,0.108-0.298,0.151C18.022,20.972,18.122,20.918,18.218,20.864z"/>
			</g>
		</g>
		<g>
			<g>
				<path fill="#E49944" d="M25.27,16.374c-0.887,3.216-3.592,4.857-3.592,4.857c0.875,1.574,3.108,2.281,5.766,2.184
					c0.291-0.013,0.613-0.013,0.958-0.004c-0.273-1.787-0.251-3.141-0.047-4.165c0.72-3.64,3.714-3.112,3.714-3.112
					c2.525,0.371,3.74,2.352,4.316,4.364c0.574,1.996,0.522,4.014,0.498,4.537c1.368,0.354,2.064,0.347,2.064,0.347
					c-0.154-2.316-0.512-4.268-1.039-5.909c-1.033-3.237-2.723-5.258-4.812-6.393c-0.297,0.221-1.215-0.23-1.215-0.23
					c-2.03-0.94-3.698-0.255-4.673,0.401C26.176,14.141,25.536,15.409,25.27,16.374z"/>
			</g>
		</g>
		<g>
			<g>
				<path fill="#FFFFFF" d="M29.342,19.509c0.041,0.142,0.259,0.867,0.849,0.748c0.643-0.125,0.347-0.984,0.259-1.2
					c-0.645,0.014-1.346,0.069-2.095,0.189c-0.204,1.024-0.226,2.378,0.047,4.165c2.029,0.046,4.843,0.422,6.989,1.167
					c0.563,0.195,1.063,0.343,1.492,0.457c0.024-0.523,0.076-2.541-0.498-4.537c0,0-1.654-1.222-4.793-1.419
					c0,0,0.386,1.823-0.873,1.984C29.555,21.219,29.362,19.723,29.342,19.509z"/>
			</g>
		</g>
		<g>
			<g>
				<path fill="#F3C66E" d="M28.354,19.246c0.749-0.12,1.45-0.176,2.095-0.189c-0.012-0.031-0.021-0.051-0.021-0.051l1.163,0.073
					c3.139,0.197,4.793,1.419,4.793,1.419c-0.576-2.012-1.791-3.993-4.316-4.364C32.068,16.134,29.074,15.606,28.354,19.246z"/>
			</g>
		</g>
		<g>
			<g>
				<path fill="#FFFFFF" d="M30.191,20.257c-0.59,0.119-0.808-0.605-0.849-0.748c0.021,0.214,0.213,1.71,1.377,1.555
					c1.259-0.161,0.873-1.984,0.873-1.984c-0.359-0.022-0.741-0.029-1.142-0.022C30.537,19.272,30.834,20.132,30.191,20.257z"/>
			</g>
		</g>
		<g>
			<g>
				<path fill="#F3C66E" d="M33.178,12.956c-0.014,0.053-0.043,0.095-0.081,0.124c2.089,1.135,3.778,3.155,4.812,6.393l0.695-0.282
					c0,0,1.821-1.221,3.854,0.196c-0.262-0.279-0.482-0.569-0.66-0.851c-0.162-0.262-0.29-0.521-0.389-0.777
					c-0.481-1.274-0.188-2.488,0.744-3.259c-0.09-0.172,0.869-1.665,1.043-1.6l0.131-0.354c-4.142-1.564-8.809-1.197-10.398-1.006
					C33.598,12.313,33.178,12.956,33.178,12.956z"/>
			</g>
		</g>
		<g>
			<g>
				<path fill="#F3C66E" d="M42.152,14.5c-0.932,0.771-1.226,1.985-0.744,3.259h0.001c0.067-1.333,1.183-1.336,1.19-1.336
					c1.709-0.128,2.474,1.324,2.818,2.709c0.303,1.217,0.279,2.384,0.279,2.384c0.185,0.076,0.375,0.151,0.57,0.225
					c0.597,0.22,1.164,0.438,1.69,0.652c2.09-0.583,2.199-2.919-0.271-3.821c-1.693-0.617-2.554-1.658-2.82-2.031c0,0,0,0,0-0.003
					C43.936,16.25,42.758,15.667,42.152,14.5z"/>
			</g>
		</g>
		<g>
			<g>
				<path fill="#E49944" d="M41.409,17.759L41.409,17.759c0.098,0.257,0.529,1.108,0.691,1.37c0.641-0.021,2.93,0.269,3.344,0.406
					c-0.345-1.385-1.136-3.24-2.845-3.112C42.592,16.423,41.477,16.426,41.409,17.759z"/>
			</g>
		</g>
		<g>
			<g>
				<path fill="#F3C66E" d="M42.869,19.788c-0.031,0.019-0.064,0.03-0.102,0.04c0.094,0.058,0.194,0.103,0.295,0.149
					c0.02,0.011,0.042,0.019,0.061,0.034C43.033,19.936,42.951,19.863,42.869,19.788z"/>
			</g>
		</g>
		<g>
			<g>
				<path fill="#F3C66E" d="M43.318,20.163c0.092,0.107,0.145,0.229,0.162,0.359c0.064-0.032,0.123-0.07,0.172-0.113
					C43.535,20.332,43.426,20.247,43.318,20.163z"/>
			</g>
		</g>
		<g>
			<g>
				<path fill="#E49944" d="M43.988,18.706l-0.317-0.018c0.108,0.018,0.22,0.043,0.325,0.063
					C43.992,18.722,43.988,18.706,43.988,18.706z"/>
			</g>
		</g>
		<g>
			<g>
				<g>
					<path fill="none" stroke="#4C3529" stroke-width="4.252" stroke-miterlimit="10" d="M39.118,25.624"/>
				</g>
			</g>
		</g>
		<g>
			<g>
				<path fill="#4C3529" d="M22.504,28.127c-0.449,0.624-0.69,1.382-0.843,2.17c-0.04-0.8,0.142-1.642,0.612-2.331
					c0.232-0.342,0.536-0.644,0.889-0.862c0.351-0.213,0.752-0.36,1.159-0.376c-0.375,0.149-0.711,0.352-1.018,0.582
					C22.999,27.545,22.729,27.817,22.504,28.127z"/>
			</g>
		</g>
		<g>
			<g>
				<polygon fill="#4C3529" points="19.995,18.686 19.995,18.686 19.995,18.686 				"/>
			</g>
		</g>
		<g>
			<g>
				<path fill="#FFFFFF" d="M36.104,21.199c0.128,0.994,0.159,3.826,0.162,4.057c-1.116-0.322-2.538-0.629-4.133-0.74
					c-2.231-0.155-3.873-0.717-5.185-1.448c0-0.03-0.026-1.933,0.719-4.224c5.6-0.835,8.282,1.451,8.282,1.451
					C36.012,20.58,36.062,20.883,36.104,21.199z M31.241,20.934c1.316-0.189,0.881-2.092,0.881-2.092l-1.218-0.059
					c0,0,0.541,1.149-0.23,1.317c-0.682,0.146-0.906-0.804-0.906-0.804S29.93,21.125,31.241,20.934z"/>
			</g>
		</g>
		<path fill="#4C3529" d="M33.521,24.913c0.513-0.358,0.857-1.026,0.846-1.796c-0.017-1.133-0.791-2.041-1.729-2.026
			c-0.762,0.012-1.391,0.633-1.592,1.474c0.133-0.316,0.395-0.544,0.711-0.549c0.453-0.007,0.829,0.433,0.837,0.982
			c0.008,0.55-0.354,1-0.808,1.007c-0.417,0.006-0.752-0.369-0.815-0.853c0,0.006-0.001,0.011-0.001,0.016
			c0.008,0.527,0.185,1.002,0.461,1.361C32.129,24.645,32.825,24.778,33.521,24.913z"/>
		<path fill="#F3C66E" d="M35.899,22.109c0,0,0.969-5.741-4.248-6.408c0,0-4.332,0.029-4.652,6.452
			C26.999,22.153,32.432,20.959,35.899,22.109z"/>
		<g>
			<g>
				<path fill="#4C3529" d="M36.775,25.271l0.16-0.001c-0.077-0.896-0.138-1.787-0.226-2.683c-0.048-0.45-0.091-0.892-0.161-1.361
					c-0.073-0.433-0.169-0.853-0.287-1.272l0.012-0.011c-0.006-0.003-0.012-0.005-0.016-0.013c-0.005-0.016-0.008-0.035-0.014-0.05
					c-0.25-0.886-0.625-1.753-1.192-2.501c-0.558-0.746-1.365-1.338-2.277-1.566c-0.912-0.237-1.879-0.101-2.711,0.272
					c-0.836,0.371-1.561,0.985-2.052,1.762c-0.194,0.298-0.331,0.633-0.443,0.969c-0.006,0.001-0.012,0.002-0.019,0.004
					l-0.033,0.104c0.005-0.002,0.009-0.003,0.014-0.003c-0.019,0.059-0.038,0.118-0.057,0.175c-0.134,0.426-0.252,0.861-0.356,1.296
					c-0.177,0.768-0.312,1.533-0.392,2.335c-0.697-0.419-1.373-0.875-2.008-1.403c0.377,0.502,0.847,0.929,1.35,1.308
					c0.201,0.15,0.411,0.291,0.624,0.42c0,0.008,0,0.017,0,0.024h0.04c0.311,0.188,0.635,0.355,0.976,0.489
					c0.583,0.24,1.192,0.4,1.799,0.55c0.605,0.15,1.219,0.271,1.83,0.39l3.656,0.719c1.215,0.251,2.412,0.507,3.599,0.876
					l0.021-0.04C38.039,25.707,37.415,25.459,36.775,25.271z M35.736,22.629c-0.014,0.782-0.04,1.57-0.084,2.358
					c-0.198-0.044-0.394-0.082-0.588-0.12c-1.23-0.229-2.468-0.358-3.699-0.537c-0.614-0.094-1.225-0.198-1.832-0.33
					c-0.603-0.139-1.176-0.383-1.719-0.664c-0.192-0.099-0.379-0.205-0.567-0.309c-0.049-0.842,0.028-1.723,0.178-2.568
					c0.076-0.437,0.177-0.863,0.298-1.288c0.028-0.095,0.055-0.188,0.084-0.277c0.008-0.001,0.016-0.001,0.024-0.002
					c0.001-0.003,0.002-0.005,0.002-0.008c0.007-0.036,0.023-0.073,0.039-0.109c0.002-0.007,0.007-0.012,0.011-0.019
					c-0.011,0.002-0.021,0.004-0.033,0.006c0.023-0.074,0.045-0.146,0.072-0.219c0.079-0.198,0.177-0.39,0.29-0.574
					c0.903-1.475,2.835-2.293,4.464-1.793c0.813,0.239,1.487,0.813,1.953,1.511c0.356,0.529,0.602,1.131,0.774,1.753
					c-0.013-0.006-0.026-0.013-0.039-0.018c0.118,0.396,0.196,0.767,0.236,1.175c0.014,0.012,0.033,0.025,0.046,0.036
					c0.031,0.232,0.057,0.466,0.074,0.694C35.744,21.74,35.743,22.189,35.736,22.629z"/>
			</g>
		</g>
		<g>
			<path fill="#4C3529" d="M26.427,22.15c3.171-0.601,6.433-0.763,9.698-0.515l-0.136,0.99C32.871,22.061,29.636,21.88,26.427,22.15
				z"/>
		</g>
		<g>
			<path fill="#4C3529" d="M36.398,87.335c0.332,1.138,0.465,2.434-0.021,3.646c-0.241,0.596-0.68,1.167-1.296,1.492
				c-0.624,0.336-1.313,0.389-1.972,0.268c-1.298-0.262-2.335-1.061-3.146-1.973c-0.817-0.927-1.406-2.019-1.752-3.221
				c-0.321-1.161-0.442-2.496,0.09-3.732c0.261-0.607,0.726-1.187,1.364-1.506c0.646-0.332,1.346-0.368,2.004-0.223
				c1.292,0.306,2.287,1.135,3.049,2.065c0.757,0.947,1.313,2.027,1.678,3.177L36.398,87.335z M35.754,87.511
				c-0.27-1.074-0.829-2.082-1.583-2.886c-0.74-0.802-1.685-1.46-2.679-1.63c-0.471-0.071-0.992-0.03-1.376,0.184
				c-0.399,0.208-0.706,0.583-0.894,1.035c-0.377,0.918-0.321,2.029-0.034,3.077c0.289,1.021,0.815,2.018,1.51,2.842
				c0.691,0.82,1.595,1.508,2.583,1.722c0.469,0.096,1.001,0.072,1.407-0.139c0.421-0.201,0.754-0.585,0.962-1.048
				c0.423-0.942,0.379-2.093,0.102-3.163L35.754,87.511z"/>
		</g>
		<rect x="31.685" y="82.063" fill="#4C3529" width="3.634" height="1"/>
		<path fill="#4C3529" d="M47.267,83.068l-0.002-1c1.284-0.003,2.753-0.016,4.198-0.028c1.383-0.013,2.744-0.024,3.898-0.027
			l0.002,1c-1.151,0.003-2.51,0.015-3.891,0.027C50.025,83.053,48.553,83.065,47.267,83.068z"/>
		<g>
			<path fill="#4C3529" d="M34.978,91.541c2.861,0.097,5.723,0.157,8.585,0.191l8.585,0.126l17.172,0.093l-0.028,0.001
				c0.938-0.036,1.646-0.789,1.868-1.737c0.238-0.947,0.114-1.995-0.222-2.965c-0.327-0.957-0.851-1.873-1.535-2.622
				c-0.677-0.746-1.531-1.361-2.442-1.572l0.228-0.975c1.206,0.313,2.157,1.071,2.913,1.929c0.757,0.87,1.312,1.884,1.662,2.982
				c0.337,1.074,0.488,2.268,0.191,3.432c-0.154,0.574-0.435,1.148-0.896,1.588c-0.456,0.446-1.094,0.704-1.715,0.736l-0.018,0.001
				h-0.011l-17.171-0.216l-8.586-0.028c-2.862-0.017-5.725-0.008-8.587,0.037L34.978,91.541z"/>
		</g>
		<g>
			<path fill="#4C3529" d="M33.314,41.72c-0.031,0.076-0.041,0.3,0.087,0.481c0.122,0.198,0.34,0.394,0.591,0.569
				c0.513,0.354,1.125,0.637,1.751,0.814c0.638,0.198,1.373,0.345,2.105,0.676c0.735,0.321,1.4,0.856,1.879,1.476
				c0.96,1.249,1.477,2.655,1.872,4.052c0.399,1.4,0.649,2.821,0.851,4.242l-0.635,0.121c-0.339-1.378-0.714-2.743-1.165-4.065
				c-0.473-1.304-0.994-2.619-1.829-3.604c-0.419-0.486-0.898-0.864-1.47-1.119c-0.571-0.261-1.245-0.396-1.967-0.618
				c-0.735-0.238-1.43-0.575-2.075-1.052c-0.321-0.245-0.632-0.553-0.857-0.981c-0.217-0.434-0.314-1.016,0.038-1.559L33.314,41.72z
				"/>
		</g>
		<g>
			<path fill="#4C3529" d="M41.778,82.895c1.75,1.188,3.059,3.127,3.428,5.326l-0.745,0.084
				C44.368,86.29,43.377,84.281,41.778,82.895z"/>
		</g>
		<g>
			<path fill="#4C3529" d="M38.986,83.353c0.785,0.699,1.486,1.5,2.083,2.385c0.591,0.886,1.081,1.874,1.292,2.977l-0.744,0.098
				c-0.066-0.982-0.404-1.967-0.871-2.885C40.274,85.009,39.682,84.138,38.986,83.353z"/>
		</g>
		<g>
			<path fill="#4C3529" d="M59.813,84.408l-0.01,0.003c0.244,0.828,0.582,1.687,1.061,2.352c0.236,0.328,0.542,0.59,0.792,0.621
				c0.233,0.045,0.516-0.108,0.789-0.384l0-0.001l0.377-0.335l0.342,0.37c0.145,0.157,0.365,0.336,0.56,0.437
				c0.202,0.107,0.393,0.147,0.541,0.119c0.293-0.033,0.615-0.452,0.81-0.946v-0.002l0.078-0.431l0.694,0.228
				c0.207,0.068,0.467,0.123,0.487,0.088c0.018,0.019,0.155-0.1,0.235-0.361c0.159-0.499,0.183-1.219,0.174-1.837
				c-0.026-1.264-0.478-2.47-1.337-3.435c-0.847-0.969-1.983-1.704-3.178-2.297c-1.208-0.576-2.491-1.013-3.792-1.378l-0.029-0.009
				l-0.021-0.01c-2.599-1.323-5.04-2.885-7.416-4.554c-1.188-0.833-2.344-1.714-3.467-2.638c-0.567-0.45-1.129-0.935-1.665-1.423
				c-0.535-0.478-1.065-1.003-1.587-1.315L44.25,67.27l-0.208-0.139l-0.025-0.232l-0.695-6.408l0.994-0.107l0.695,6.408
				l-0.233-0.371l0.001,0.001c0.69,0.479,1.151,1.025,1.667,1.532c0.503,0.514,1.008,1.002,1.546,1.481
				c1.076,0.946,2.195,1.848,3.345,2.708c1.145,0.867,2.345,1.661,3.559,2.429c1.216,0.761,2.462,1.493,3.73,2.143l-0.049-0.019
				c1.331,0.344,2.65,0.76,3.917,1.331c1.269,0.556,2.511,1.265,3.527,2.301c1.023,1.018,1.703,2.475,1.772,3.944
				c0.03,0.737,0.065,1.405-0.139,2.225c-0.06,0.203-0.139,0.416-0.29,0.634c-0.144,0.214-0.396,0.438-0.71,0.525
				c-0.656,0.14-1.089-0.109-1.424-0.43L66,87.022l-0.001,0.003c-0.129,0.305-0.281,0.612-0.521,0.902
				c-0.231,0.284-0.586,0.569-1.035,0.646c-0.446,0.08-0.864-0.048-1.186-0.219c-0.332-0.181-0.584-0.383-0.846-0.663l0.719,0.035
				H63.13c-0.371,0.338-0.972,0.714-1.662,0.556c-0.659-0.171-1.019-0.639-1.293-1.045c-0.534-0.854-0.81-1.744-1.029-2.672
				l-0.01,0.002L59.813,84.408z"/>
		</g>
		<path fill="#4C3529" d="M53.806,79.894c-0.39-0.15-9.578-3.695-12.91-5.694l0.515-0.857c3.258,1.955,12.66,5.582,12.755,5.618
			L53.806,79.894z"/>
		<g>
			<path fill="#4C3529" d="M46.875,85.511c0.354,0.152,0.799,0.268,1.118,0.243c0.325-0.048,0.373-0.101,0.431-0.456
				c0.024-0.321-0.065-0.829-0.204-1.121c-0.152-0.335-0.42-0.624-0.755-0.886c-0.676-0.521-1.532-0.946-2.334-1.462
				c-0.81-0.509-1.592-1.098-2.285-1.778l0.059,0.048c-0.98-0.677-2.078-1.225-3.189-1.678c-1.125-0.461-2.289-0.73-3.514-1.096
				c-2.381-0.831-4.664-1.816-6.883-2.978c-2.214-1.16-4.333-2.509-6.344-3.954c-1.011-0.714-2.018-1.421-3.05-2.021
				c-1.014-0.631-2.077-1.02-3.351-1.157c1.19-0.483,2.652-0.24,3.776,0.367c1.142,0.582,2.158,1.311,3.188,1.994
				c2.05,1.379,4.086,2.735,6.253,3.884c2.149,1.162,4.413,2.168,6.692,2.996c2.329,0.646,4.838,1.464,6.938,2.896l0.03,0.021
				l0.029,0.027c0.647,0.624,1.371,1.161,2.147,1.641c0.772,0.491,1.609,0.886,2.426,1.497c0.401,0.308,0.802,0.711,1.044,1.229
				c0.241,0.559,0.318,1.001,0.304,1.608c-0.024,0.292-0.106,0.65-0.378,0.939c-0.27,0.292-0.648,0.401-0.946,0.424
				c-0.618,0.034-1.1-0.113-1.604-0.314L46.875,85.511z"/>
		</g>
		<g>
			<path fill="#4C3529" d="M42.324,19.021c0.579-0.011,1.163,0.046,1.736,0.121l0.86,0.118c0.287,0.037,0.569,0.104,0.839,0.27
				c-0.301,0.101-0.59,0.101-0.875,0.077l-0.858-0.042c-0.573-0.018-1.138-0.021-1.71-0.046L42.324,19.021z"/>
		</g>
		<path fill="#4C3529" d="M42.921,19.827c0.074-0.062,1.394,1.075,1.716,1.241c0.105-0.205,0.178-0.437,0.168-0.697
			c-0.024-0.698-0.514-1.249-1.093-1.229c-0.373,0.013-0.683,0.266-0.855,0.628C42.876,19.787,42.901,19.809,42.921,19.827z"/>
		<path fill="#4C3529" d="M56.439,25.954c-0.421-0.77-1.409-1.251-3.01-1.475c-0.1-0.047-0.199-0.091-0.299-0.137
			c-0.611-0.356-1.963-1.1-3.935-1.959c0.487-0.419,0.775-0.979,0.799-1.608c0.037-0.9-0.531-2.083-2.225-2.704
			c-0.562-0.202-1.021-0.454-1.391-0.711c-0.344-0.208-0.707-0.982-1.277-2.731c-0.174-0.532-0.465-0.951-0.726-1.311
			c0.126-0.125,0.189-0.303,0.167-0.481c-0.016-0.131-0.401-3.243-2.299-6.396C40.474,3.505,37.016,0,30.59,0
			c-0.279,0-0.566,0.004-0.852,0.019c-6.97,0.319-10.938,3.562-13.037,6.228c-1.287,1.635-2.074,3.317-2.522,4.736
			c-0.007,0.021-0.016,0.042-0.024,0.064c-0.152,0.444-0.283,0.9-0.388,1.365c-0.1,0.473-0.186,0.934-0.182,1.487l-0.069,1.873
			l1.132-1.463c0.055-0.071,0.168-0.186,0.262-0.279c0.049-0.049,0.1-0.094,0.15-0.141c0.406-0.307,1.055-0.742,1.996-1.236
			c-0.051,0.049-0.1,0.107-0.148,0.154c-0.314,0.254-0.624,0.516-0.918,0.801c-0.682,0.651-1.312,1.398-1.797,2.303
			c-0.206,0.388-0.377,0.812-0.502,1.263c-0.638-0.044-1.279-0.01-1.913,0.082c-0.773,0.116-1.54,0.322-2.265,0.64
			c-0.728,0.314-1.415,0.737-2.033,1.254c-0.617,0.52-1.159,1.129-1.616,1.798l-0.31,0.453l0.538,0.221
			c0.265,0.098,0.48,0.152,0.721,0.204c0.233,0.049,0.471,0.085,0.708,0.111c0.476,0.052,0.954,0.06,1.431,0.019
			c0.511-0.039,1.021-0.131,1.516-0.271c-0.967,0.697-1.944,1.835-2.183,3.658c0,0,1.727-0.347,3.014-1.742
			c-0.053,0.302-0.079,0.6-0.072,0.896c0.032,1.639,0.988,2.545,1.033,2.586c0.466,0.422,1.053,0.644,1.74,0.661
			c-0.087,0.105-0.174,0.208-0.26,0.317l-0.184,0.251c-0.063,0.089-0.117,0.159-0.189,0.283l-0.003,0.002l-0.217,0.427l0.183,0.43
			c0.027,0.066,0.029,0.066,0.042,0.094l0.028,0.053l0.05,0.087l0.094,0.15c0.061,0.093,0.122,0.181,0.182,0.26
			c0.123,0.164,0.248,0.311,0.377,0.45c0.256,0.281,0.516,0.534,0.785,0.776c0.531,0.486,1.087,0.917,1.653,1.322
			c0.565,0.41,1.146,0.785,1.731,1.147c0.584,0.361,1.182,0.705,1.799,1.029c0.52,0.271,1.048,0.523,1.586,0.754
			c0.465,0.232,0.934,0.457,1.412,0.66c0.362,0.497,0.867,1.23,1.388,2.056h1.315c-0.304-0.541-0.61-1.078-0.928-1.613
			c0.352,0.085,0.707,0.159,1.062,0.216c0.681,0.11,1.369,0.181,2.06,0.141c-1.28-0.489-2.498-1.018-3.691-1.59
			c-1.193-0.564-2.34-1.214-3.433-1.932c-1.08-0.725-2.159-1.527-3.161-2.35c-0.499-0.416-0.984-0.841-1.434-1.281
			c-0.221-0.221-0.433-0.446-0.622-0.672c-0.064-0.078-0.122-0.152-0.181-0.229c0.057-0.102,0.111-0.208,0.172-0.31
			c0.169-0.294,0.355-0.586,0.556-0.866c0.403-0.565,0.857-1.093,1.362-1.586c1.007-0.984,2.211-1.797,3.549-2.374l0.586-0.251
			l-0.593-0.12l-0.002-0.001c-0.377-0.102-0.737-0.158-1.114-0.199c-0.371-0.041-0.744-0.06-1.119-0.059
			c-0.525,0.003-1.052,0.048-1.571,0.136c0.165-0.243,0.339-0.485,0.522-0.713c0.324-0.404,0.667-0.785,1.06-1.12
			c0.41-0.351,0.76-0.783,0.975-1.276c0.212-0.486,0.314-1.046,0.167-1.554c0,0-0.002,0.005-0.004,0.008
			c-0.412,1.008-1.224,1.845-2.21,2.209c-1.043,0.361-2.056,0.858-2.982,1.513c-0.459,0.336-0.901,0.709-1.273,1.188
			c-0.184,0.237-0.347,0.506-0.465,0.812c-0.116,0.302-0.178,0.649-0.15,0.999c0.019,0.257,0.087,0.51,0.187,0.74
			c-0.09-0.095-0.189-0.227-0.269-0.354c-0.112-0.189-0.205-0.391-0.272-0.604c-0.133-0.428-0.164-0.887-0.105-1.351
			c0.124-0.932,0.591-1.843,1.181-2.665c0.595-0.818,1.316-1.574,2.093-2.257c1.563-1.369,3.363-2.483,5.231-3.441
			c1.822-0.928,3.726-1.727,5.669-2.358c-0.132,0.281-0.263,0.589-0.377,0.931c0,0,2.329-2.72,5.612-1.206
			c0,0,1.174,0.579,1.295,0.105c0,0,0.342-0.524-0.092-1.197c0.744-0.082,1.5-0.131,2.249-0.149
			c0.987-0.025,1.975,0.002,2.954,0.089c1.666,0.147,3.324,0.472,4.884,1.05l-0.051,0.132c-0.658,0.245-1.191,0.075-1.977,1.843
			c-0.191,0.435-0.299,0.883-0.315,1.322c-0.032,0.875,0.257,1.665,0.656,2.338c0.075,0.126,0.158,0.244,0.241,0.363
			c-0.032-0.011-0.062-0.025-0.096-0.036c-0.341-0.119-0.703-0.183-1.06-0.184c-0.361-0.004-0.719,0.054-1.053,0.168
			c-0.334,0.113-0.65,0.276-0.914,0.498c0.633-0.261,1.305-0.367,1.947-0.302c0.32,0.036,0.634,0.113,0.932,0.229
			c0.248,0.104,0.48,0.218,0.77,0.281c0.24,0.259,0.497,0.5,0.771,0.723c0.143,0.112,0.29,0.225,0.438,0.33
			c0.005,0.024,1.007,0.646,1.505,0.893c0.344,0.169,0.692,0.326,1.049,0.467c0.355,0.135,0.703,0.271,1.052,0.42
			c0.694,0.291,1.388,0.587,2.062,0.923c0.337,0.167,0.673,0.336,1.006,0.508c0.332,0.18,0.66,0.366,0.986,0.552
			c0.092,0.056,0.184,0.112,0.276,0.166c-0.909,0.047-1.816,0.205-2.686,0.499c-0.519,0.181-1.029,0.405-1.487,0.721
			c-0.447,0.312-0.871,0.767-0.95,1.346c-0.079,0.578,0.147,1.129,0.435,1.593c0.294,0.465,0.607,0.903,0.97,1.323
			c0.36,0.418,0.782,0.801,1.272,1.102c0.475,0.297,1.025,0.493,1.596,0.57c-0.168,0.184-0.344,0.363-0.527,0.536
			c-0.447,0.409-0.925,0.797-1.438,1.135c-1.025,0.671-2.148,1.217-3.337,1.601c-0.466,0.15-0.937,0.277-1.419,0.394l-0.025-0.024
			c-0.013,0.014-0.029,0.028-0.043,0.041c-0.722,0.173-1.453,0.315-2.193,0.433c-1.262,0.19-2.553,0.278-3.833,0.166
			c-2.552-0.214-5.091-0.945-7.283-2.294c-1.099-0.671-2.091-1.49-3.006-2.383c-0.46-0.446-0.901-0.909-1.294-1.426
			c-0.258-0.342-0.805-1.007-0.538-1.433c0.143-0.227,0.386-0.272,0.566-0.424c-0.428-0.133-0.87-0.067-1.268,0.091
			c-0.061,0.026-0.334,0.172-0.334,0.172c-0.263,0.159-0.499,0.372-0.694,0.611c-0.279,0.343-0.473,0.75-0.556,1.169
			c-0.079,0.424-0.066,0.847,0.056,1.242c0.146-0.386,0.28-0.744,0.459-1.059c0.098-0.184,0.182-0.462,0.369-0.576
			c0.217-0.129,0.464,0.045,0.647,0.15c0.273,0.157,0.535,0.354,0.793,0.551c0.517,0.399,0.99,0.847,1.489,1.266
			c0.996,0.843,2.072,1.587,3.205,2.225c2.261,1.28,4.782,2.073,7.365,2.353c1.289,0.142,2.588,0.252,3.902,0.258
			c0.238,0.001,0.477-0.002,0.716-0.012c-0.33,0.204-0.671,0.397-1.018,0.572c-0.928,0.453-1.917,0.793-2.938,1.008
			c-1.022,0.218-2.077,0.312-3.14,0.303c-1.062-0.017-2.12-0.114-3.237-0.13c0.918,0.48,1.923,0.735,2.943,0.857
			c-0.576,0.293-1.123,0.658-1.615,1.112c-0.635,0.589-1.191,1.357-1.391,2.246c-0.186,0.772-0.079,1.564,0.242,2.229h0.184
			c0.004-2.498,1.535-3.196,1.859-3.47c0.543-0.454,1.166-0.842,1.822-1.19c0.266-0.143,0.543-0.281,0.821-0.411
			c0.532-0.195,0.954-0.307,1.108-0.346c0.008,0,0.016-0.002,0.021-0.002c1.406-0.197,2.592-0.584,3.555-1.019
			c0.088-0.037,0.18-0.068,0.267-0.106c0.523-0.233,1.028-0.51,1.51-0.824c0.241-0.155,0.476-0.322,0.706-0.502
			c0.193-0.151,0.368-0.299,0.556-0.484c1.363-0.325,2.511-0.773,3.466-1.269c0.406-0.196,0.804-0.413,1.187-0.658
			c0.571-0.36,1.125-0.764,1.628-1.225c0.252-0.235,0.494-0.48,0.724-0.739c0.114-0.131,0.227-0.264,0.335-0.404
			c0.059-0.079,0.115-0.159,0.173-0.242c0.278-0.071,0.548-0.163,0.803-0.283c1.691-0.784,2.984-2.251,3.362-3.042
			C56.479,27.78,56.926,26.845,56.439,25.954z M15.212,28.637H15.21l-0.002-0.005L15.212,28.637z M13.571,17.687
			c-0.178,0.275-0.366,0.545-0.573,0.804c-0.513,0.646-1.128,1.216-1.844,1.619c-0.71,0.406-1.494,0.688-2.31,0.806
			c-0.409,0.057-0.825,0.075-1.238,0.051c-0.206-0.014-0.411-0.039-0.612-0.074c-0.004,0-0.012-0.001-0.019-0.004
			c0.283-0.438,0.607-0.855,0.975-1.233c0.513-0.529,1.109-0.986,1.764-1.353c0.654-0.367,1.367-0.647,2.107-0.83
			c0.606-0.147,1.229-0.238,1.858-0.259C13.638,17.366,13.601,17.523,13.571,17.687z M38.31,11.227
			c-1.001-0.088-2.005-0.112-3.007-0.088c-0.871,0.025-1.733,0.084-2.602,0.198c-0.065-0.059-0.138-0.122-0.219-0.182
			c-1.008-0.76-3.992-1.621-5.74,1.734c0,0-4.105,1.158-6.045,2.065c-1.58,0.748-3.119,1.605-4.549,2.641l-0.47-0.308
			c0.024-0.231,0.067-0.468,0.135-0.709c0.206-0.752,0.591-1.506,1.067-2.219c0.477-0.71,1.044-1.388,1.663-2.024
			c0.616-0.633,1.28-1.236,1.998-1.782c-1.173,0.287-2.333,0.638-3.468,1.09c-0.566,0.225-1.129,0.479-1.681,0.763
			c-0.144,0.076-0.288,0.156-0.431,0.234c0.082-0.405,0.193-0.813,0.322-1.217c0.266-0.821,0.613-1.622,1.019-2.389
			c0.818-1.532,1.9-2.927,3.197-4.088c1.296-1.16,2.807-2.081,4.435-2.725c1.628-0.648,3.364-1.027,5.124-1.187
			c1.76-0.167,3.537-0.109,5.237,0.319c1.698,0.419,3.296,1.225,4.631,2.359c1.341,1.133,2.417,2.573,3.226,4.145
			c0.74,1.447,1.289,3.018,1.592,4.609C42.01,11.765,40.158,11.39,38.31,11.227z M20.393,10.618
			c0.049-0.019,0.096-0.043,0.146-0.063c-0.035,0.017-0.073,0.036-0.109,0.053C20.415,10.611,20.406,10.615,20.393,10.618z
			 M41.808,18.213C41.808,18.213,41.807,18.213,41.808,18.213c-0.005-0.004-0.007-0.007-0.011-0.012
			c-0.011-0.021-0.017-0.045-0.027-0.066c-0.09-0.191-0.139-0.33-0.158-0.395l0,0c-0.008-0.024-0.013-0.042-0.013-0.042l0.002-0.001
			c-0.043-0.144-0.078-0.289-0.1-0.436c0.056-0.146,0.133-0.281,0.237-0.396c0.108-0.117,0.243-0.206,0.388-0.268
			s0.307-0.096,0.455-0.096h0.005c0.547-0.024,1.082,0.143,1.478,0.489c0.181,0.156,0.328,0.346,0.459,0.548
			c0.007,0.009,0.017,0.011,0.023,0.019c0.255,0.342,0.428,0.839,0.546,1.358c0,0.001,0.001,0.002,0.001,0.002v0.001
			c0.019,0.084,0.037,0.169,0.053,0.254c0.002,0.001,0.005,0.002,0.007,0.002c0.049,0.237,0.088,0.477,0.118,0.718
			c0.012,0.103,0.007,0.207,0.017,0.312c0.053,0.578,0.054,1.007,0.054,1.007C43.114,20.307,42.173,18.947,41.808,18.213z
			 M48.234,22.3c-0.351-0.137-0.705-0.269-1.062-0.397c-0.031-0.01-0.061-0.019-0.087-0.03c1.951-1.048-0.695-2.807-1.643-3.373
			c-0.045-0.116-0.092-0.232-0.144-0.344c-0.241-0.526-0.574-1.036-1.057-1.391c-0.479-0.359-1.098-0.49-1.662-0.417
			c-0.185,0.016-0.348,0.066-0.502,0.143c-0.154,0.079-0.292,0.189-0.397,0.327c-0.088,0.109-0.148,0.234-0.195,0.364
			c-0.041-0.348-0.014-0.694,0.1-1.006c0.168-0.495,0.534-0.859,0.971-1.023c0.629,0.763,1.504,1.226,2.237,1.504
			c0.313,0.417,1.169,1.378,2.775,1.966C49.871,19.464,49.93,21.549,48.234,22.3z"/>
		<g>
			<path fill="#4C3529" d="M54.319,78.207c0.019,1.337-0.06,2.548,0.683,3.249c0.084,0.087,0.181,0.141,0.358,0.314
				c0.151,0.152,0.262,0.294,0.371,0.441c0.207,0.297,0.368,0.594,0.522,0.888c0.309,0.585,0.57,1.169,0.841,1.712
				c0.138,0.267,0.286,0.524,0.44,0.716c0.145,0.183,0.318,0.312,0.551,0.422c0.221,0.104,0.466,0.151,0.638,0.124
				c0.171-0.029,0.261-0.096,0.354-0.286c0.044-0.088,0.076-0.226,0.092-0.328c0.014-0.18,0.022-0.263,0.018-0.413
				c-0.013-0.275-0.071-0.561-0.153-0.848c-0.175-0.571-0.456-1.142-0.78-1.71c0.533,0.378,1.013,0.859,1.351,1.463
				c0.17,0.302,0.302,0.634,0.372,0.993c0.035,0.167,0.056,0.405,0.051,0.545c-0.006,0.216-0.027,0.398-0.092,0.61
				c-0.104,0.419-0.541,0.853-1.007,0.937c-0.459,0.103-0.87,0.02-1.239-0.114c-0.356-0.133-0.735-0.364-1-0.677
				c-0.257-0.299-0.434-0.598-0.601-0.892c-0.684-1.163-0.987-2.395-1.857-3.16c-0.54-0.58-0.788-1.392-0.737-2.107
				C53.552,79.366,53.83,78.702,54.319,78.207z"/>
		</g>
		<g>
			<path fill="#4C3529" d="M62.944,81.395c0.842,0.604,1.504,1.452,2.003,2.379c0.497,0.933,0.812,1.968,0.964,3.027l-0.747,0.062
				c-0.021-0.993-0.194-1.992-0.558-2.934C64.24,82.994,63.705,82.094,62.944,81.395z"/>
		</g>
		<g>
			<path fill="#4C3529" d="M60.24,81.794c0.835,0.613,1.488,1.469,1.977,2.401c0.487,0.938,0.791,1.978,0.93,3.039l-0.748,0.053
				c-0.01-0.993-0.172-1.993-0.525-2.939C61.518,83.408,60.993,82.502,60.24,81.794z"/>
		</g>
		<g>
			<path fill="#4C3529" d="M32.611,84.687c-0.5-0.206-1.053-0.34-1.488-0.201c-0.423,0.124-0.681,0.559-0.794,0.987
				c-0.131,0.886,0.292,1.96,0.755,2.852c0.496,0.901,1.106,1.769,1.884,2.365c0.776,0.611,1.679,0.814,2.431,0.313l0.536,0.844
				c-0.529,0.354-1.242,0.536-1.898,0.417c-0.657-0.107-1.219-0.427-1.677-0.806c-0.915-0.77-1.564-1.729-2.036-2.759
				c-0.234-0.517-0.428-1.051-0.558-1.609c-0.12-0.561-0.222-1.137-0.059-1.784c0.103-0.326,0.257-0.566,0.474-0.815
				c0.224-0.231,0.535-0.411,0.858-0.439C31.686,83.999,32.219,84.307,32.611,84.687z"/>
		</g>
		<g>
			<path fill="#4C3529" d="M104.095,84.04c0.29,0.09,0.626,0.196,0.944,0.442c0.153,0.124,0.351,0.316,0.398,0.641
				c0.042,0.328-0.119,0.592-0.255,0.741c-0.576,0.573-1.2,0.71-1.764,0.902l-3.38,1.067l-3.383,1.061
				c-1.172,0.38-2.393,0.518-3.601,0.543c-0.606,0.007-1.214-0.013-1.825-0.098c-0.623-0.075-1.219-0.271-1.771-0.428l-3.408-0.978
				l-6.815-1.954c-0.299-0.092-0.617-0.194-0.921-0.427c-0.145-0.117-0.325-0.295-0.367-0.584c-0.038-0.293,0.106-0.532,0.233-0.674
				c0.545-0.545,1.163-0.69,1.725-0.881l3.378-1.075l3.378-1.075c1.163-0.383,2.379-0.525,3.585-0.557
				c0.604-0.007,1.21,0.005,1.82,0.084c0.621,0.069,1.217,0.26,1.772,0.41l3.417,0.945l6.834,1.891L104.095,84.04z M103.849,84.876
				l-6.802-2l-3.401-1.001c-0.582-0.169-1.114-0.349-1.67-0.419c-0.562-0.082-1.14-0.107-1.717-0.095
				c-1.153,0.033-2.311,0.174-3.395,0.535l-3.376,1.085l-3.375,1.084c-0.548,0.168-1.12,0.373-1.414,0.683
				c-0.066,0.075-0.072,0.123-0.068,0.13c-0.003,0.009,0.029,0.072,0.112,0.134c0.166,0.13,0.419,0.227,0.683,0.303l6.821,1.936
				l3.411,0.968c0.584,0.163,1.117,0.338,1.671,0.401c0.561,0.077,1.138,0.096,1.712,0.081c1.149-0.038,2.303-0.185,3.378-0.549
				l3.371-1.099l3.373-1.092c0.546-0.166,1.112-0.379,1.375-0.661c0.058-0.066,0.046-0.092,0.047-0.062
				c0.009,0.025-0.006-0.022-0.081-0.077c-0.152-0.117-0.387-0.209-0.66-0.287L103.849,84.876z"/>
		</g>
		<g>
			<path fill="#4C3529" d="M79.415,85.479l0.144,4.875l0.004,0.112l-0.008-0.025c-0.032-0.094,0.039,0.073,0.259,0.163
				c0.201,0.099,0.447,0.165,0.724,0.246l1.608,0.468l3.215,0.938l3.215,0.936c1.08,0.283,2.139,0.713,3.179,0.789
				c1.074,0.09,2.177,0.01,3.236-0.19c1.031-0.209,2.094-0.642,3.156-0.967l3.181-1.046l1.567-0.547
				c0.225-0.092,0.463-0.204,0.625-0.329c0.081-0.06,0.144-0.129,0.156-0.157c0.012-0.043-0.02,0.052,0.002,0.077l0.001,0.001
				l-0.063-0.06l0.013-0.194l0.32-4.702l0.998,0.068l-0.32,4.702l-0.05-0.254l0.002,0.004c0.148,0.279,0.078,0.685-0.069,0.873
				c-0.137,0.208-0.29,0.324-0.435,0.426c-0.295,0.198-0.575,0.307-0.871,0.412l-1.619,0.484l-3.198,0.993
				c-1.077,0.309-2.097,0.716-3.26,0.938c-1.137,0.2-2.282,0.246-3.433,0.159c-0.577-0.043-1.172-0.161-1.707-0.326l-1.612-0.45
				l-3.226-0.901l-3.225-0.9l-1.613-0.45c-0.258-0.074-0.557-0.146-0.86-0.288c-0.152-0.078-0.307-0.156-0.463-0.313
				c-0.148-0.138-0.32-0.421-0.266-0.735l-0.005,0.086l-0.3-4.868L79.415,85.479z"/>
		</g>
		<g>
			<path fill="#4C3529" d="M101.821,86.456c0.039-0.259-0.08-0.441-0.299-0.643c-0.219-0.183-0.508-0.303-0.807-0.377
				c-0.15-0.037-0.306-0.049-0.461-0.061l-0.221-0.003l-0.254,0.021c-0.304,0.046-0.59,0.13-0.847,0.286l-0.279,0.17l-0.24-0.422
				v-0.001c-0.042-0.306-0.33-0.627-0.694-0.821c-0.36-0.212-0.795-0.31-1.225-0.351c-0.212-0.022-0.429-0.015-0.667,0.002
				c-0.21,0.022-0.424,0.052-0.627,0.112c-0.403,0.124-0.744,0.354-0.998,0.678l-0.353,0.446l-0.275-0.595l-0.001-0.001
				c-0.082-0.418-0.304-0.801-0.637-1.063c-0.328-0.273-0.77-0.394-1.215-0.425c-0.468-0.026-0.896,0.063-1.298,0.256
				c-0.388,0.195-0.706,0.523-0.787,0.88l-0.087,0.383l-0.482-0.21h-0.001c-0.348-0.258-0.821-0.398-1.323-0.444
				c-0.498-0.047-1.044-0.063-1.537-0.027c-0.506,0.039-1.004,0.158-1.466,0.338c-0.461,0.176-0.893,0.441-1.17,0.789l-0.215,0.269
				l-0.326-0.243l-0.001-0.001c-0.128-0.12-0.293-0.203-0.471-0.236c-0.109-0.015-0.146-0.021-0.289-0.013
				c-0.076,0.009-0.169,0.026-0.255,0.056c-0.169,0.063-0.32,0.169-0.407,0.302c-0.044,0.065-0.074,0.135-0.089,0.206
				c-0.009,0.026-0.009,0.094-0.013,0.087l0.006,0.093c0.004,0.008,0.006,0.016,0.006,0.024l-0.727,0.184l-0.028-0.16l-0.006-0.094
				c0-0.132,0.008-0.189,0.027-0.285c0.036-0.174,0.108-0.337,0.204-0.478c0.192-0.285,0.475-0.474,0.772-0.584
				c0.15-0.053,0.303-0.086,0.477-0.101c0.106-0.009,0.32-0.004,0.458,0.025c0.313,0.059,0.612,0.206,0.85,0.429l0.001,0.001
				l-0.54,0.025c0.437-0.452,0.962-0.729,1.494-0.929c0.536-0.199,1.093-0.296,1.649-0.354c0.571-0.051,1.096-0.043,1.661-0.003
				c0.554,0.051,1.154,0.168,1.693,0.515l0.001,0.001l-0.569,0.173c0.278-0.565,0.757-0.92,1.253-1.126
				c0.488-0.214,1.051-0.295,1.559-0.266c0.526,0.015,1.069,0.165,1.531,0.479c0.462,0.312,0.805,0.789,1.011,1.304l0,0.002
				l-0.627-0.148c0.393-0.352,0.885-0.611,1.386-0.724c0.249-0.064,0.499-0.093,0.755-0.11c0.228-0.008,0.479-0.013,0.733,0.002
				c0.498,0.031,0.993,0.149,1.464,0.368c0.454,0.228,0.941,0.57,1.142,1.187h0l-0.518-0.252c0.367-0.118,0.751-0.184,1.124-0.2
				l0.255-0.004l0.289,0.012c0.184,0.017,0.366,0.045,0.547,0.089c0.364,0.072,0.717,0.217,1.046,0.438
				c0.163,0.115,0.317,0.258,0.443,0.439c0.066,0.091,0.118,0.188,0.163,0.306c0.048,0.148,0.063,0.246,0.077,0.318L101.821,86.456z
				"/>
		</g>
		<g>
			<path fill="#4C3529" d="M75.574,104.113c-4.955-0.102-9.909-0.103-14.864-0.157c-4.955,0.013-9.91-0.028-14.865,0.032l0.004-1
				c4.955,0.103,9.909,0.103,14.864,0.157c4.955-0.014,9.91,0.028,14.865-0.032L75.574,104.113z"/>
		</g>
		<g>
			<path fill="#4C3529" d="M41.869,94.645v-0.031v-0.512l0.5,0.012c2.419,0.058,4.837,0.089,7.255,0.095l7.255,0.043
				c4.836-0.048,9.673-0.021,14.51-0.138v1c-4.836-0.117-9.673-0.09-14.51-0.138l-7.255,0.043c-2.418,0.006-4.836,0.037-7.255,0.095
				l0.5-0.5v0.031H41.869z"/>
		</g>
		<g>
			<path fill="#4C3529" d="M45.088,102.501c0.067-1.183,0.104-2.379,0.113-3.54c-0.016-1.324-0.766-2.71-1.804-3.319
				c-0.222-0.119-0.653-0.319-0.914-0.426c-0.237-0.085-0.464-0.105-0.646-0.028c-0.379,0.125-0.675,0.745-0.683,1.382
				c-0.026,1.439-0.018,2.899,0.074,4.338v-0.002l-0.279-0.44L45.088,102.501z M46.115,104.121l-5.606-2.76l-0.269-0.132
				l-0.01-0.309v-0.006c0.067-1.458,0.09-2.896,0.064-4.353c0-0.401,0.032-0.821,0.191-1.24c0.151-0.41,0.448-0.849,0.937-1.073
				c0.486-0.217,1.04-0.185,1.466,0.012c0.398,0.19,0.624,0.301,1.032,0.538c0.717,0.489,1.165,1.173,1.487,1.88
				c0.319,0.706,0.516,1.484,0.53,2.255c0.01,1.478,0.036,2.9,0.127,4.362L46.115,104.121z"/>
		</g>
		<g>
			<path fill="#4C3529" d="M74.655,104.101c0.043-0.954,0.073-1.983,0.088-2.973l0.017-1.499c0.003-0.507,0.021-0.981-0.069-1.417
				c-0.188-0.895-0.64-1.776-1.298-2.367c-0.168-0.139-0.345-0.261-0.528-0.349l-0.657-0.305c-0.362-0.146-0.793-0.133-1.257-0.08
				l-0.08-0.996c0.524-0.021,1.129-0.007,1.687,0.263l0.688,0.354c0.262,0.14,0.49,0.315,0.698,0.505
				c0.804,0.778,1.288,1.77,1.504,2.824c0.118,0.545,0.1,1.078,0.105,1.567l0.017,1.499c0.014,1.008,0.048,1.976,0.085,3.02
				L74.655,104.101z"/>
		</g>
		<path fill="#4C3529" d="M42.838,100.613c-0.959-0.363-0.979-1.702-0.866-2.538c0.059-0.436,0.126-0.741,0.467-1.022
			c0.592-0.489,1.403,0.334,1.72,0.85c0.296,0.483,0.376,2.009-0.102,2.424C43.702,100.636,43.274,100.778,42.838,100.613z"/>
		<g>
			<path fill="#4C3529" d="M50.348,96.363c0.203,0.058,0.258,0.108,0.282,0.148c0.024,0.053-0.072,0.043-0.095,0.258
				c-0.078,0.079-0.173,0.073-0.244,0.041c-0.076-0.028-0.11-0.087-0.134-0.138c-0.012-0.055-0.017-0.105,0.019-0.159
				C50.208,96.46,50.25,96.415,50.348,96.363z"/>
		</g>
		<g>
			<path fill="#4C3529" d="M53.285,96.395c0.218,0.03,0.253-0.03,0.28-0.01c0.019,0.015-0.03,0.066,0.064,0.26
				c-0.029,0.106-0.095,0.153-0.168,0.175c-0.075,0.024-0.144-0.003-0.201-0.039c-0.048-0.046-0.089-0.1-0.085-0.176
				C53.168,96.518,53.201,96.464,53.285,96.395z"/>
		</g>
		<g>
			<path fill="#4C3529" d="M62.066,96.52c0.099,0.058,0.142,0.111,0.173,0.177c0.036,0.064,0.028,0.129,0.014,0.195
				c-0.028,0.063-0.067,0.129-0.145,0.163c-0.074,0.035-0.159,0.048-0.261-0.004c-0.041-0.22-0.086-0.254-0.068-0.318
				C61.809,96.675,61.864,96.608,62.066,96.52z"/>
		</g>
		<g>
			<path fill="#4C3529" d="M60.285,96.238c0.184,0.105,0.219,0.194,0.22,0.278c-0.008,0.072-0.054,0.133-0.251,0.222
				c-0.195-0.078-0.239-0.185-0.246-0.28C60.028,96.376,60.083,96.299,60.285,96.238z"/>
		</g>
		<g>
			<path fill="#4C3529" d="M60.473,98.77c0.121-0.007,0.21,0.01,0.248-0.016c0.059-0.018,0.092-0.01,0.136-0.004
				c0.083,0.03,0.194,0.079,0.335,0.27c-0.063,0.106-0.133,0.154-0.209,0.192c-0.078,0.041-0.163,0.037-0.25,0.021
				c-0.085-0.028-0.174-0.074-0.228-0.164C60.432,98.966,60.431,98.885,60.473,98.77z"/>
		</g>
		<g>
			<path fill="#4C3529" d="M67.848,97.332c0.051-0.103,0.11-0.148,0.221-0.154c0.082-0.017,0.145,0.008,0.193,0.027
				c0.1,0.058,0.079,0.114,0.18,0.314c-0.053,0.103-0.138,0.142-0.219,0.154c-0.081,0.018-0.145-0.007-0.195-0.027
				c-0.044-0.031-0.075-0.054-0.091-0.109C67.947,97.495,67.902,97.434,67.848,97.332z"/>
		</g>
		<g>
			<path fill="#4C3529" d="M69.691,96.176c0.112-0.011,0.176,0.005,0.232,0.023c0.059-0.015,0.069-0.021,0.078-0.014
				c0.02,0.015,0.035,0.031,0.042,0.089c0.014,0.043,0.029,0.1,0.055,0.214c-0.06,0.091-0.13,0.122-0.203,0.141
				c-0.071,0.014-0.134-0.013-0.191-0.043c-0.056-0.055-0.109-0.123-0.114-0.2C69.603,96.327,69.623,96.265,69.691,96.176z"/>
		</g>
		<g>
			<path fill="#4C3529" d="M71.066,97.863c0.086,0.203,0.055,0.314-0.007,0.406c-0.049,0.043-0.102,0.086-0.176,0.095
				c-0.081,0.007-0.165,0.002-0.254-0.063c-0.002-0.122,0.002-0.184,0.008-0.232c-0.001-0.064,0.021-0.096,0.044-0.126
				C70.75,97.873,70.85,97.821,71.066,97.863z"/>
		</g>
		<g>
			<path fill="#4C3529" d="M72.754,96.551c0.085,0.07,0.118,0.122,0.143,0.171c0.015,0.069-0.016,0.137-0.05,0.193
				c-0.043,0.037-0.091,0.074-0.159,0.073c-0.068-0.004-0.138-0.02-0.215-0.094c-0.016-0.214-0.036-0.263-0.012-0.298
				c0.009-0.007,0.018-0.005,0.075,0C72.586,96.573,72.644,96.553,72.754,96.551z"/>
		</g>
		<g>
			<path fill="#4C3529" d="M63.848,98.957c0.162-0.128,0.239-0.138,0.283-0.128c0.046,0.028,0.048,0.079,0.092,0.284
				c-0.092,0.186-0.22,0.198-0.3,0.171C63.843,99.234,63.801,99.158,63.848,98.957z"/>
		</g>
		<g>
			<path fill="#4C3529" d="M48.754,98.926c0.092-0.058,0.149-0.073,0.202-0.082c0.047-0.027,0.06-0.029,0.074-0.026
				c0.033,0.019,0.016,0.069,0.1,0.265c-0.026,0.103-0.081,0.149-0.14,0.184c-0.058,0.031-0.115,0.021-0.168,0.006
				c-0.046-0.031-0.094-0.067-0.107-0.131C48.712,99.087,48.716,99.028,48.754,98.926z"/>
		</g>
		<g>
			<path fill="#4C3529" d="M46.816,95.895c0.222-0.043,0.285-0.058,0.359-0.024c0.064,0.042,0.083,0.104,0.172,0.306
				c-0.057,0.101-0.132,0.138-0.207,0.158c-0.077,0.022-0.145,0.001-0.207-0.026c-0.055-0.038-0.108-0.082-0.128-0.157
				C46.775,96.072,46.774,96.001,46.816,95.895z"/>
		</g>
		<g>
			<path fill="#4C3529" d="M57.223,97.457c0.041,0.108,0.04,0.181,0.021,0.255c-0.013,0.076-0.06,0.124-0.111,0.169
				c-0.059,0.035-0.127,0.066-0.21,0.055c-0.082-0.01-0.165-0.039-0.232-0.135c0.079-0.209,0.083-0.272,0.15-0.325
				C56.914,97.435,57.001,97.413,57.223,97.457z"/>
		</g>
		<g>
			<path fill="#4C3529" d="M68.504,99.801c0.086,0.19,0.065,0.276,0.016,0.341c-0.042,0.029-0.088,0.059-0.153,0.051
				c-0.069-0.008-0.139-0.028-0.207-0.11c0-0.214-0.023-0.258,0.014-0.301C68.23,99.737,68.313,99.717,68.504,99.801z"/>
		</g>
		<g>
			<path fill="#4C3529" d="M3.679,83.302c0.08-0.101,0.249-0.282,0.388-0.394c0.148-0.119,0.304-0.225,0.467-0.314
				c0.327-0.176,0.672-0.288,1.016-0.357c0.343-0.068,0.686-0.097,1.025-0.098c0.344,0.002,0.662,0.023,1.025,0.088l0.002,0.001
				l0.116,0.022l0.089,0.07l26.561,21.021l0.45,0.356l-0.569-0.036h0c-2.461-0.292-4.796-1.021-7.073-1.906
				c-2.272-0.896-4.466-1.98-6.583-3.194c-4.235-2.431-8.178-5.344-11.884-8.513h0l-0.653-0.562l0.831-0.247l2.388-0.709
				l-0.148,0.847l-7.782-5.654L3.679,83.302z M4.844,83.58l6.847,5.023l0.785,0.575l-0.933,0.271l-2.392,0.695l0.177-0.809h0
				c3.606,3.215,7.448,6.178,11.588,8.67c2.071,1.24,4.211,2.373,6.436,3.311c2.22,0.91,4.538,1.756,6.913,1.986h0.001l-0.119,0.32
				L7.207,83.094l0.205,0.093h0c-0.251-0.043-0.556-0.065-0.834-0.063c-0.283,0.002-0.563,0.027-0.83,0.083
				c-0.266,0.055-0.518,0.142-0.738,0.262C4.95,83.501,4.899,83.542,4.844,83.58z"/>
		</g>
		<g>
			<path fill="#4C3529" d="M25.326,37.54c0.547,0.84,0.978,1.705,1.141,2.756c0.075,0.519,0.061,1.101-0.161,1.66
				c-0.215,0.562-0.656,1.032-1.133,1.32c-0.961,0.582-2.013,0.686-2.926,0.747c-0.893,0.067-1.762,0.165-2.577,0.361
				c-1.64,0.369-2.987,1.378-3.854,2.859c-0.884,1.46-1.391,3.19-1.754,4.933c-0.358,1.752-0.562,3.549-0.693,5.352
				c-0.123,1.851-0.434,3.654-0.7,5.455c-0.275,1.801-0.551,3.598-0.753,5.399c-0.1,0.9-0.179,1.802-0.212,2.701
				c-0.021,0.894-0.028,1.811,0.194,2.637l0,0.001l-0.457-0.006c0.227-0.703,0.555-1.354,1.077-1.924l0.002-0.002l0.616-0.656
				l-0.035,0.939c-0.009,0.23,0.014,0.514,0.058,0.77c0.044,0.262,0.106,0.521,0.194,0.771c0.169,0.502,0.422,0.972,0.736,1.393
				l0.001,0.002l-0.779,0.202c0.034-0.247,0.086-0.382,0.149-0.555c0.064-0.162,0.14-0.314,0.222-0.462
				c0.166-0.292,0.361-0.561,0.575-0.807l0.002-0.002l0.201-0.23l0.314,0.093c3.241,0.964,6.459,2.002,9.668,3.069
				c3.21,1.062,6.425,2.11,9.624,3.207l-0.135,0.436c-3.26-0.904-6.503-1.861-9.75-2.805c-3.249-0.939-6.488-1.908-9.705-2.952
				l0.515-0.137l-0.001,0.001c-0.193,0.19-0.366,0.396-0.513,0.612c-0.072,0.108-0.138,0.219-0.193,0.331
				c-0.052,0.102-0.103,0.25-0.117,0.298l-0.282,1.004l-0.497-0.802l-0.001-0.002c-0.344-0.513-0.611-1.076-0.777-1.666
				c-0.086-0.295-0.142-0.597-0.178-0.9c-0.034-0.31-0.048-0.599-0.018-0.939l0.581,0.283l-0.001,0.001
				c-0.465,0.407-0.844,0.989-1.1,1.581l-0.305,0.705l-0.152-0.711v-0.001c-0.276-0.935-0.284-1.866-0.291-2.788
				c0.008-0.922,0.064-1.839,0.139-2.751c0.154-1.825,0.381-3.639,0.606-5.446c0.217-1.808,0.475-3.611,0.542-5.401
				c0.08-1.834,0.233-3.672,0.551-5.502c0.329-1.822,0.792-3.666,1.748-5.365c0.478-0.844,1.107-1.642,1.902-2.271
				c0.791-0.635,1.739-1.065,2.691-1.301c0.954-0.252,1.908-0.321,2.831-0.373c0.891-0.03,1.718-0.133,2.34-0.49
				c0.611-0.342,0.85-0.938,0.756-1.721c-0.092-0.758-0.438-1.592-0.86-2.285L25.326,37.54z"/>
		</g>
		<g>
			<g>
				<path fill="#FFFFFF" d="M54.83,27.306c-0.235-1.223-3.578-1.838-6.31-0.563c1.167-1.64,6.99-2.412,7.328-0.649
					c0.09,0.465-0.123,1.329-1.127,2.034C54.849,27.809,54.869,27.517,54.83,27.306z"/>
			</g>
		</g>
	</g>
</g>
</svg>
