<?xml version="1.0" encoding="utf-8"?>
<!-- Generator: Adobe Illustrator 17.0.0, SVG Export Plug-In . SVG Version: 6.00 Build 0)  -->
<!DOCTYPE svg PUBLIC "-//W3C//DTD SVG 1.1//EN" "http://www.w3.org/Graphics/SVG/1.1/DTD/svg11.dtd">
<svg version="1.1" id="Слой_1" xmlns="http://www.w3.org/2000/svg" xmlns:xlink="http://www.w3.org/1999/xlink" x="0px" y="0px"
	 width="107.381px" height="105.522px" viewBox="-0.47 -0.712 107.381 105.522"
	 enable-background="new -0.47 -0.712 107.381 105.522" xml:space="preserve">
<g>
	<g>
		<g>
			<path fill="#C6DBF4" d="M53.417,86.9c-0.73-1.51-1.25-3.37-1.25-3.37l0.02-0.01c0.83,1.12,1.92,2.14,3.15,2.22l4.69,4.37
				l10.73,9.99l4.55,4.229c0,0-1.95,0.4-7.11-3.18c-2.78-1.931-6.5-5.021-11.34-9.95l0.14-1.92L53.417,86.9z"/>
			<path fill="#93B3E0" d="M66.946,92.659c0.08-0.03,0.16-0.05,0.24-0.08c0,0,0.51,1.46,2.4,0.28c2.14-1.34,5.75-2.04,8.33-3.99
				c0.14-0.11,0.28-0.22,0.4-0.34c0.95,0.11,4.17,0.42,4.17,0.42c2.45-3.15,6.44-5.16,6.69-5.28c-2.48,4.4,1.7,7.44,1.7,7.44
				l-7.1-0.17c-4.29,4.29-8.72,7.2-13.01,9.149l-0.01,0.011l-10.73-9.99c1.42-0.42,2.83-0.771,4.21-1.04l0.22,0.09
				c-0.28,0.65-0.49,1.33-0.63,2.021c0,0,0.07,1.13,1.26,0.449C65.087,91.629,64.537,93.39,66.946,92.659z"/>
			<path fill="#93B3E0" d="M51.107,98.419c0-0.47-0.38-0.85-0.85-0.85c-0.46,0-0.84,0.38-0.84,0.85c0,0.46,0.38,0.84,0.84,0.84
				C50.727,99.259,51.107,98.879,51.107,98.419z M42.977,102.03c3.38-5.311,8.49-8.72,13.86-10.82l0.02-0.01
				c4.84,4.93,8.56,8.019,11.34,9.95c-5.33,1.99-10.34,2.56-14.47,2.51C47.276,103.6,42.977,102.03,42.977,102.03z"/>
			<path fill="#E49944" d="M45.817,48.89c4.92-3.181,6.79-3.91,10.53-4.091c0,0,1.33,2.5-0.87,4.96
				c-1.07,1.04-3.41,3.551-5.16,7.091c0,0-5.65,3.019-12.35,5.729l-0.2,0.08c0.47,1.08,0.9,2.42,1.19,4.06
				c1.08,5.99,7.2,10.24,7.9,10.65c0,0,1.73-1.02,4.31-0.54c0.24,0.04,0.46,0.11,0.66,0.2c1.22,0.5,1.98,1.7,2.72,3.09
				c0.29,0.55,0.58,1.13,0.89,1.71c0.92,1.7,2.18,2.93,2.18,2.93c-0.79,0.771-1.56,1.04-2.28,0.98c-1.23-0.08-2.32-1.1-3.15-2.22
				l-0.02,0.01c0,0,0.52,1.86,1.25,3.37c0.4,0.83,0.87,1.55,1.36,1.8c1.02,0.51-2.19,1.92-4.41-0.35l-0.1,0.1
				c-1.59,0.57-3.43-1-3.43-1s-2.28,0.2-3.47-2.32c-0.72-1.52-0.65-3.31-0.46-4.569c0.14-0.96,0.36-1.61,0.36-1.61
				c-8.45-7.71-11.53-14.88-11.53-14.88c-0.85,0.36-1.41,0.689-1.41,0.689c-0.29-1.84,0.47-3.17,0.55-3.309
				c-0.98,0.31-1.75,1.07-1.75,1.07c0.51-3.11,9.19-8.61,12.36-10.75C43.176,50.64,44.587,49.69,45.817,48.89z"/>
			<path fill="#E49944" d="M66.946,92.659c-2.41,0.73-1.86-1.03-1.86-1.03c-1.19,0.681-1.26-0.449-1.26-0.449
				c0.14-0.69,0.35-1.37,0.63-2.021c1.37-3.32,4.24-5.95,6.65-6.77c3.13-1.061,6.51,0.06,6.51,0.06s1-0.691,2.14-2.33
				c1-1.43,2.1-3.6,2.72-6.67c0.55-2.74,1.7-4.54,2.74-5.67c-4.64-3.54-8-6.72-10.04-8.76c-1.71-4.33-4.35-7.24-5.38-8.261
				c-0.01-0.01-0.02-0.02-0.02-0.029c-2.11-2.511-1.28-6.19-1.28-6.19c0.37,0.05,0.79,0.08,1.27,0.07
				c4.78-0.09,6.83,2.08,14.03,11.3c2.35,3.01,8.42,9.45,8.72,12.58c0,0-0.71-0.81-1.67-1.19c0.06,0.131,0.75,1.521,0.33,3.351
				c0,0-0.66-0.41-0.97-0.57c0,0-1.02,4.48-5.76,10.12c-1.22,1.45-2.68,2.98-4.44,4.53c0,0-0.04,2.25-1.69,3.8
				c-0.12,0.12-0.26,0.229-0.4,0.34c-2.58,1.95-6.19,2.65-8.33,3.99c-1.89,1.18-2.4-0.28-2.4-0.28
				C67.107,92.61,67.026,92.629,66.946,92.659z"/>
			<path fill="#F3C66E" d="M62.047,41.959c0.38,0.01,0.71,0.01,0.98,0c0.19,0,0.4,0,0.63-0.01c0.6,0,1.32-0.03,2.15-0.11
				c-0.01,0.971,0.38,2.37,2.69,2.7c0,0-0.83,3.68,1.28,6.19c0,0.01,0.01,0.02,0.02,0.029c1.03,1.021,3.67,3.931,5.38,8.261
				c0.33,0.84,0.63,1.739,0.87,2.68c0,0-4.34,5.96-3.45,18.42c-6.33,0-13.9,0-18.05,0c-0.74-1.39-1.5-2.59-2.72-3.09l0.1-0.26
				c-0.07-11.44-3.18-15.71-3.18-15.71c0.39-1.521,0.94-2.931,1.57-4.21c1.75-3.54,4.09-6.051,5.16-7.091
				c2.2-2.46,0.87-4.96,0.87-4.96c0.16-0.01,0.33-0.01,0.5-0.02c2.9-0.11,3.3-1.67,3.33-2.89c0.44,0.02,0.85,0.029,1.2,0.05
				c0.03-0.01,0.07,0,0.1,0C61.676,41.949,61.867,41.959,62.047,41.959z"/>
			<path fill="#4C3529" d="M50.256,97.57c0.47,0,0.85,0.38,0.85,0.85c0,0.46-0.38,0.84-0.85,0.84c-0.46,0-0.84-0.38-0.84-0.84
				C49.417,97.949,49.797,97.57,50.256,97.57z"/>
			<path fill="#FFFFFF" d="M28.946,91.449l-3.98-1.13c0.26-0.11,0.57-0.16,0.93-0.15C26.857,90.199,27.957,90.69,28.946,91.449z"/>
			<path fill="#FFFFFF" d="M21.986,93.789c0.16,0.26,0.28,0.521,0.35,0.76c-0.11,0.11-0.23,0.16-0.38,0.011
				C21.747,94.36,21.807,94.02,21.986,93.789z"/>
			<path fill="#FFFFFF" d="M16.466,92.81c0.29,0.18,0.53,0.38,0.73,0.59c-0.28,0.01-0.6-0.17-0.7-0.431
				C16.466,92.9,16.457,92.85,16.466,92.81z"/>
			<path fill="#F8DCA8" d="M39.117,94.35l-10.17-2.9l-3.98-1.13l-2.69-0.771c-2.35-0.67-6.45-0.52-9.15,0.351l-10.92,3.49
				c-2.7,0.859-2.99,2.109-0.63,2.779l16.83,4.8c2.36,0.671,6.45,0.521,9.16-0.35l10.92-3.49
				C41.187,96.27,41.466,95.02,39.117,94.35z"/>
			<path fill="#F3C66E" d="M72.584,15.959c0,0,1.784,0.375,3.417,1.313c1.632,0.938,5.835,1.781,5.896,3.375
				c0.061,1.594,0.635,2.188-1.935,3.469c0,0,5.473,2.125,5.503,6.156c0,0-1.572-0.5-3.114-0.312l1.572,1.5
				c0,0-5.291,8.531-19.893,10.5c0,0-14.16,1.365-23.633-10.552l1.531-1.75l-2.943,0.5c0,0,0.081-2.834,2.742-4.375
				c2.66-1.541,2.66-1.541,2.66-1.541s-2.499-1.125-2.056-3.042s3.466-2.751,5.361-3.792s4.192-1.8,5.604-1.25
				c1.41,0.55,3.427-0.625,3.427-0.625s8.064-2,11.167,0.125L72.584,15.959z"/>
			<path fill="#E49944" d="M66.508,27.074c0,0-0.777-6.577,3.409-7.667c4.185-1.09,6.033,2.815,6.033,2.815
				s-0.199,1.811-2.783,2.019s-6.209,2.041-6.209,3.291S66.508,27.074,66.508,27.074z"/>
			<path fill="#E49944" d="M58.684,27.074c0,0,0.777-6.577-3.409-7.667s-6.033,2.815-6.033,2.815s0.199,1.811,2.783,2.019
				c2.583,0.208,6.208,2.041,6.208,3.291S58.684,27.074,58.684,27.074z"/>
			<g>
				<path fill="#4C3529" d="M67.733,15.323c-1.68-0.336-3.406-0.458-5.112-0.412c-1.706,0.052-3.405,0.3-5.011,0.81L57.401,15
					c1.715-0.441,3.476-0.597,5.219-0.555c1.743,0.05,3.474,0.268,5.158,0.702L67.733,15.323z"/>
			</g>
			<path fill="#4C3529" d="M81.573,22.603c0.006-0.01,0.011-0.023,0.015-0.035c0,0.003-0.001,0.006-0.002,0.006
				C81.581,22.585,81.577,22.594,81.573,22.603z"/>
			<path fill="#4C3529" d="M50.255,38.788c-1.869-0.855-3.61-2.001-5.19-3.336c-0.792-0.662-1.534-1.389-2.228-2.152
				c-0.349-0.381-0.681-0.775-0.99-1.188c-0.196-0.253-0.392-0.523-0.569-0.786c0.182-0.191,0.38-0.375,0.588-0.55
				c0.18-0.151,0.367-0.299,0.56-0.442c0.192-0.141,0.392-0.28,0.587-0.406l1.109-0.71c0,0-1.223,0.054-1.225,0.054
				c-0.702-0.027-1.374,0.053-2.041,0.153c-0.556,0.087-1.104,0.198-1.652,0.326c0.273-1.095,0.952-2.052,1.774-2.817
				c0.449-0.422,0.946-0.799,1.464-1.139c0.259-0.168,0.526-0.329,0.796-0.48l0.833-0.455c1.132-0.641,2.17-1.424,3.148-2.274
				c0.979-0.854,1.894-1.759,2.765-2.757l1.148-1.326c0,0-1.679,0.519-1.681,0.519c-0.694,0.279-1.427,0.474-2.184,0.631
				c-0.756,0.165-1.546,0.264-2.327,0.564c-0.771,0.297-1.519,0.96-1.585,1.884c-0.005,0.466,0.276,0.851,0.583,1.101
				c0.21,0.177,0.442,0.312,0.683,0.425c-0.04,0.029-0.08,0.062-0.122,0.092c-0.356-0.068-0.698-0.191-0.984-0.395
				c-0.206-0.146-0.383-0.323-0.524-0.532c-0.136-0.192-0.244-0.432-0.296-0.639c-0.056-0.542,0.043-1.066,0.317-1.482
				c0.266-0.426,0.688-0.751,1.152-1.015c0.932-0.54,2.015-0.868,3.076-1.321c0.536-0.229,1.07-0.468,1.602-0.786l0.354-0.22
				c0.113-0.068,0.228-0.131,0.344-0.193c0.232-0.121,0.469-0.229,0.713-0.32c0.852-0.331,1.797-0.462,2.74-0.402v-0.556
				c-0.596-0.209-1.229-0.287-1.862-0.239c-0.001-0.003-0.002-0.007-0.003-0.01c-0.071,0.005-0.143,0.014-0.215,0.019
				c-0.288,0.017-0.572,0.081-0.858,0.121c-0.002,0.013-0.002,0.025-0.003,0.038c-0.174,0.058-0.344,0.125-0.513,0.199
				c-0.076,0.03-0.152,0.068-0.228,0.1c-0.009,0.004-0.018,0.01-0.026,0.014c-0.068,0.031-0.136,0.06-0.202,0.092
				c-0.137,0.071-0.271,0.146-0.402,0.226l-0.195,0.123l-0.174,0.118c-0.085,0.057-0.176,0.108-0.264,0.16
				c-0.594,0.33-1.273,0.614-1.939,0.893c-2.13,0.891-4.545,1.898-4.125,4.636c0.006,0.037,0.015,0.073,0.026,0.11
				c0.021,0.058,0.409,1.141,1.584,1.674c-0.073,0.042-0.146,0.082-0.222,0.125c-2.927,1.606-4.588,3.534-4.934,5.735
				c-0.03,0.198,0.036,0.399,0.178,0.538c0.111,0.109,0.257,0.169,0.406,0.169c0.041,0,0.083-0.006,0.125-0.014
				c0.009-0.002,0.536-0.118,1.243-0.229c-0.139,0.095-0.278,0.194-0.414,0.305l-0.42,0.45l0.325,0.43
				c0.363,0.474,0.709,0.868,1.081,1.275c0.179,0.192,0.359,0.377,0.542,0.561c0.668,0.744,1.546,1.681,2.72,2.609
				c7.741,6.126,15.067,5.767,17.849,5.916c-2.058-0.409-4.033-0.682-6.017-1.201C54.078,40.28,52.123,39.653,50.255,38.788z"/>
			<path fill="#4C3529" d="M68.429,40.799c-1.983,0.519-3.955,0.797-6.013,1.206c2.25,0.005,10.103,0.205,17.845-5.921
				c1.174-0.929,2.052-1.865,2.719-2.609c0.184-0.184,0.364-0.369,0.543-0.561c0.372-0.407,0.718-0.802,1.081-1.275l0.325-0.43
				l-0.42-0.45c-0.136-0.11-0.275-0.21-0.414-0.305c0.707,0.11,1.234,0.226,1.243,0.229c0.042,0.008,0.083,0.014,0.125,0.014
				c0.149,0,0.295-0.059,0.406-0.169c0.142-0.139,0.208-0.34,0.178-0.538c-0.346-2.201-2.007-4.13-4.934-5.735
				c-0.076-0.043-0.148-0.083-0.222-0.125c1.175-0.533,1.563-1.616,1.584-1.674c0.012-0.037,0.021-0.073,0.026-0.11
				c0.419-2.737-1.995-3.745-4.125-4.636c-0.666-0.278-1.346-0.562-1.939-0.892c-0.088-0.053-0.179-0.104-0.264-0.16L76,16.538
				l-0.195-0.123c-0.132-0.079-0.266-0.154-0.402-0.226c-0.066-0.032-0.134-0.06-0.202-0.092c-0.01-0.004-0.018-0.01-0.026-0.014
				c-0.075-0.031-0.151-0.069-0.228-0.1c-1.849-0.65-2.858-0.337-3.454-0.128v0.556c0.943-0.06,1.889,0.071,2.74,0.402
				c0.244,0.092,0.48,0.199,0.713,0.32c0.116,0.062,0.23,0.125,0.344,0.193l0.354,0.22c0.531,0.318,1.066,0.558,1.602,0.786
				c1.062,0.453,2.145,0.781,3.076,1.321c0.465,0.264,0.886,0.589,1.152,1.015c0.274,0.416,0.373,0.94,0.317,1.482
				c-0.052,0.207-0.16,0.446-0.296,0.639c-0.142,0.209-0.318,0.387-0.524,0.532c-0.286,0.204-0.628,0.327-0.985,0.396
				c-0.041-0.03-0.081-0.062-0.121-0.092c0.24-0.113,0.473-0.248,0.683-0.425c0.307-0.251,0.588-0.636,0.583-1.102
				c-0.067-0.924-0.814-1.587-1.585-1.884c-0.781-0.301-1.571-0.399-2.327-0.565c-0.757-0.157-3.114-1.335-3.114-1.335
				s2.185,3.414,3.163,4.269c0.979,0.85,2.017,1.633,3.148,2.273l0.833,0.455c0.27,0.151,0.537,0.312,0.796,0.48
				c0.518,0.34,1.015,0.717,1.464,1.139c0.822,0.766,1.501,1.723,1.774,2.817c-0.549-0.128-1.097-0.239-1.652-0.326
				c-0.667-0.101-1.339-0.181-2.041-0.153c-0.002,0-1.225-0.054-1.225-0.054l1.109,0.71c0.194,0.126,0.395,0.266,0.587,0.406
				c0.192,0.144,0.38,0.291,0.56,0.442c0.208,0.175,0.406,0.358,0.588,0.55c-0.178,0.264-0.373,0.533-0.569,0.786
				c-0.31,0.413-0.642,0.808-0.99,1.188c-0.693,0.764-1.435,1.49-2.227,2.152c-1.58,1.335-3.321,2.481-5.19,3.336
				C72.361,39.654,70.406,40.28,68.429,40.799z"/>
			<path fill="#4C3529" d="M43.68,22.603c-0.006-0.01-0.011-0.023-0.016-0.035c0,0.003,0.001,0.006,0.002,0.006
				C43.672,22.585,43.676,22.594,43.68,22.603z"/>
			<g>
				<g>
					<path fill="#4C3529" d="M62.854,39.027c0.818,0.033,1.643-0.032,2.442-0.214c0.793-0.191,1.579-0.466,2.252-0.924
						c-0.366,0.172-0.746,0.305-1.13,0.415c-0.387,0.117-0.777,0.206-1.171,0.267c-0.786,0.134-1.586,0.181-2.382,0.155
						c-0.798-0.027-1.591-0.14-2.375-0.303c-0.783-0.172-1.555-0.404-2.317-0.678c0.718,0.374,1.48,0.675,2.265,0.893
						C61.221,38.861,62.035,38.989,62.854,39.027z"/>
				</g>
			</g>
			<g>
				<path fill="#4C3529" d="M69.385,50.38c1.682,1.461,3.12,3.205,4.346,5.087c1.223,1.888,2.199,3.953,2.862,6.135v0.001
					l0.062,0.229l-0.149,0.227c-0.811,1.225-1.437,2.722-1.926,4.19c-0.489,1.487-0.852,3.021-1.1,4.575
					c-0.503,3.108-0.577,6.287-0.357,9.441l-0.997,0.074c-0.239-3.218-0.18-6.474,0.323-9.68c0.249-1.604,0.616-3.191,1.118-4.743
					c0.52-1.556,1.111-3.05,2.059-4.498l-0.087,0.455l0,0c-0.459-2.122-1.234-4.191-2.277-6.131
					C72.216,53.809,70.941,51.971,69.385,50.38z"/>
			</g>
			<path fill="#4C3529" d="M67.785,14.469c0.971-0.413,2.151-0.444,3.159-0.162c1.584,0.444,2.707,1.781,3.166,3.33
				c0.043,0.146,0.077,0.313,0.063,0.466c-0.024,0.338-0.569-0.209-0.689-0.305c-0.276-0.224-0.57-0.426-0.879-0.603
				c-0.812-0.47-1.717-0.765-2.648-0.87c-0.588-0.066-1.182-0.058-1.768,0.013c-1.531,0.184-1.587-0.227-1.58-0.233
				C66.627,16.089,66.147,15.167,67.785,14.469z"/>
			<path fill="#4C3529" d="M57.64,15.036c-0.923-0.51-2.095-0.661-3.126-0.483c-1.621,0.28-2.875,1.497-3.488,2.991
				c-0.059,0.14-0.109,0.304-0.111,0.456c-0.01,0.339,0.588-0.149,0.717-0.233c0.298-0.194,0.611-0.365,0.936-0.511
				c0.856-0.384,1.786-0.585,2.724-0.596c0.592-0.006,1.182,0.063,1.757,0.193c1.505,0.34,1.602-0.063,1.597-0.071
				C58.627,16.767,59.198,15.898,57.64,15.036z"/>
			<g>
				<path fill="#4C3529" d="M51.683,31.21c0.492,0.899,1.294,1.753,2.11,2.497c0.852,0.726,1.798,1.353,2.811,1.86
					c2.026,1.026,4.32,1.487,6.604,1.523c2.28,0.017,4.582-0.475,6.552-1.596c0.984-0.553,1.887-1.239,2.682-2.023
					c0.758-0.798,1.488-1.72,1.905-2.647l1.23,0.67c-0.767,1.06-1.584,1.89-2.531,2.646c-0.921,0.762-1.928,1.412-3.005,1.904
					c-2.144,1.004-4.501,1.468-6.837,1.431c-2.333-0.012-4.672-0.447-6.857-1.341c-1.095-0.441-2.137-1.023-3.109-1.713
					c-0.995-0.684-1.882-1.446-2.722-2.438L51.683,31.21z"/>
			</g>
			<path fill="#4C3529" d="M67.271,27.334c-1.089-0.43-2.274-0.627-3.432-0.652v-0.007c-0.106-0.004-0.218,0.004-0.325,0.003
				c-0.107,0.001-0.218-0.007-0.325-0.003v0.007c-1.157,0.025-2.343,0.223-3.431,0.652c-3.896,1.538-2.752,3.938,0.029,5.982
				c1.89,1.39,2.898,1.696,3.726,1.669c0.829,0.027,1.837-0.279,3.727-1.669C70.022,31.272,71.167,28.872,67.271,27.334z"/>
			<g>
				<g>
					<path fill="#FFFFFF" d="M67.321,29.612c-0.761-0.888-3.819-1.583-6.817-0.791c1.414-1.366,5.885-1.732,7.665,0.294
						c0.492,0.56,0.508,1.498-0.357,1.836C67.985,30.668,67.773,30.135,67.321,29.612z"/>
				</g>
			</g>
			<g>
				<path fill="#4C3529" d="M53.43,31.155c-0.829,0.415-1.372,0.652-1.877,0.951c-0.516,0.275-0.969,0.623-1.765,1.131
					c-0.246-0.907,0.256-1.863,1.084-2.336c0.412-0.233,0.889-0.331,1.339-0.294C52.658,30.645,53.102,30.802,53.43,31.155z"/>
			</g>
			<g>
				<path fill="#4C3529" d="M73.072,31.155c0.328-0.353,0.771-0.511,1.219-0.548c0.45-0.037,0.927,0.061,1.339,0.294
					c0.828,0.473,1.33,1.429,1.084,2.336c-0.796-0.508-1.249-0.855-1.765-1.131C74.444,31.808,73.901,31.571,73.072,31.155z"/>
			</g>
			<g>
				<path fill="#4C3529" d="M75.397,58.699c0.751,0.833,1.529,1.629,2.336,2.404c0.795,0.785,1.638,1.52,2.475,2.26
					c1.693,1.457,3.452,2.843,5.331,4.058l-0.606,0.795l-5.082-4.442l-2.513-2.246l-2.492-2.273L75.397,58.699z"/>
			</g>
			<g>
				<path fill="#4C3529" d="M87.417,66.116c-1.333,0.962-2.327,2.239-3.054,3.624c-0.736,1.398-1.211,2.866-1.508,4.478
					c-0.38,1.638-0.937,3.224-1.729,4.714c-0.808,1.487-1.771,2.865-3.2,3.969l-0.189,0.146l-0.252-0.083h-0.001
					c-1.36-0.479-2.906-0.709-4.376-0.578c-0.739,0.069-1.465,0.209-2.156,0.484c-0.667,0.267-1.317,0.658-1.916,1.096
					c-2.382,1.781-4.203,4.448-4.732,7.35l0.008-0.117c0.005,0.043,0.039,0.152,0.066,0.183c0.032,0.039,0.028,0.024,0.038,0.026
					c0.027,0.015,0.247-0.04,0.438-0.165l0.002-0.001l1.068-0.568l-0.344,1.152c-0.038,0.129-0.04,0.347-0.002,0.414
					c0.034,0.062,0.051,0.094,0.216,0.127c0.322,0.053,0.814-0.064,1.255-0.215l0.438-0.149l0.198,0.458
					c0.161,0.374,0.563,0.523,1.122,0.292c0.493-0.207,1.179-0.693,1.838-0.96c1.316-0.594,2.644-1.043,3.915-1.588
					c1.251-0.54,2.517-1.178,3.464-2.024c0.907-0.858,1.425-2.182,1.508-3.419l0.016-0.229l0.153-0.136
					c2.231-1.973,4.275-4.161,6.016-6.569c0.87-1.203,1.663-2.46,2.355-3.769c0.681-1.301,1.302-2.688,1.67-4.05l0.002-0.003
					l0.274-0.637l0.447,0.307c0.334,0.23,0.621,0.456,0.923,0.689l0.004,0.002l-0.563,0.235c0.095-0.523,0.112-1.057,0.041-1.576
					c-0.033-0.261-0.092-0.517-0.167-0.766c-0.073-0.241-0.178-0.504-0.28-0.688l-0.001-0.002l-0.262-1.131l0.884,0.429
					c0.726,0.352,1.276,0.844,1.759,1.426l0.005,0.006l-0.619,0.268c-0.077-0.734-0.426-1.494-0.8-2.208
					c-0.379-0.722-0.833-1.412-1.305-2.09c-0.948-1.354-1.988-2.651-3.045-3.936l-3.205-3.848l-3.125-3.905
					c-1.054-1.286-2.12-2.563-3.257-3.759c-1.138-1.184-2.354-2.32-3.78-3.014c-0.712-0.346-1.473-0.562-2.261-0.656
					c-0.798-0.118-1.567-0.034-2.477-0.079c-0.869-0.063-1.819-0.237-2.602-0.884c-0.806-0.647-1.09-1.761-0.976-2.679l0.994,0.107
					c-0.091,0.721,0.089,1.42,0.599,1.854c0.504,0.448,1.278,0.646,2.052,0.711c0.755,0.059,1.662-0.006,2.519,0.128
					c0.866,0.114,1.728,0.369,2.513,0.763c1.577,0.796,2.821,2.007,3.971,3.229c1.147,1.236,2.205,2.535,3.248,3.841l3.08,3.944
					c1.035,1.294,2.137,2.552,3.198,3.842c1.064,1.289,2.115,2.595,3.082,3.973c0.479,0.691,0.948,1.394,1.363,2.14
					c0.403,0.75,0.801,1.524,0.921,2.456l0.141,1.089l-0.76-0.82l-0.002-0.003c-0.461-0.424-1.036-0.795-1.594-0.966l0.622-0.702
					l0.004,0.007c0.151,0.328,0.231,0.609,0.304,0.919c0.068,0.305,0.115,0.611,0.131,0.92c0.039,0.617-0.027,1.237-0.181,1.828
					l-0.136,0.522l-0.427-0.287l-0.004-0.003c-0.332-0.154-0.68-0.318-0.998-0.444l0.721-0.329l-0.001,0.006
					c-0.419,1.548-1.05,2.924-1.76,4.29c-0.716,1.354-1.535,2.65-2.429,3.888c-1.789,2.477-3.884,4.717-6.163,6.733l0.169-0.364
					c-0.106,1.55-0.689,3.019-1.815,4.118c-1.155,1.027-2.451,1.646-3.764,2.224c-1.311,0.561-2.647,1.015-3.892,1.577
					c-0.317,0.146-0.596,0.282-0.894,0.452c-0.295,0.166-0.602,0.378-0.999,0.531c-0.381,0.144-0.848,0.254-1.349,0.112
					c-0.508-0.154-0.88-0.51-1.079-1.009l0.634,0.309c-0.523,0.162-1.049,0.347-1.749,0.255c-0.339-0.032-0.814-0.306-0.97-0.73
					c-0.151-0.413-0.121-0.733-0.028-1.094l0.725,0.583l-0.002,0.001c-0.147,0.079-0.305,0.153-0.491,0.207
					c-0.186,0.051-0.412,0.092-0.675,0.024c-0.266-0.062-0.503-0.271-0.614-0.474c-0.117-0.213-0.162-0.381-0.183-0.618
					l-0.005-0.059l0.013-0.059c0.356-1.573,1.039-3.043,1.934-4.349c0.904-1.3,1.997-2.468,3.282-3.403
					c0.648-0.464,1.328-0.871,2.096-1.172c0.744-0.286,1.539-0.472,2.331-0.553c1.598-0.152,3.169-0.031,4.761,0.357l0.002,0.001
					l-0.44,0.062c1.151-0.911,2.125-2.257,2.867-3.626c0.748-1.39,1.286-2.909,1.648-4.446c0.311-1.59,0.787-3.297,1.731-4.71
					C84.545,67.894,85.832,66.65,87.417,66.116z"/>
			</g>
			<g>
				<path fill="#4C3529" d="M71.866,85.508c-1.327,0.858-2.559,1.856-3.662,2.962c-1.094,1.106-2.068,2.346-2.676,3.714
					l-0.891-0.453c0.84-1.449,1.996-2.617,3.231-3.632C69.113,87.091,70.454,86.223,71.866,85.508z"/>
			</g>
			<g>
				<path fill="#4C3529" d="M73.816,86.808c-1.35,0.826-2.614,1.786-3.764,2.848c-1.139,1.066-2.176,2.26-2.845,3.6l-0.87-0.492
					c0.908-1.415,2.119-2.524,3.394-3.49C71.016,88.315,72.385,87.489,73.816,86.808z"/>
			</g>
			<g>
				<path fill="#4C3529" d="M56.075,49.261c-1.679,1.646-3.091,3.542-4.26,5.552c-1.162,2.016-2.039,4.185-2.524,6.421l-0.087-0.454
					c0.81,1.271,1.254,2.539,1.677,3.865c0.402,1.319,0.701,2.66,0.928,4.01c0.452,2.699,0.628,5.428,0.641,8.148l-1,0.006
					c-0.026-2.677-0.215-5.354-0.669-7.979c-0.228-1.312-0.525-2.609-0.917-3.871c-0.391-1.24-0.888-2.534-1.538-3.541l-0.152-0.235
					l0.065-0.219c0.693-2.316,1.776-4.48,3.117-6.44C52.703,52.57,54.273,50.775,56.075,49.261z"/>
			</g>
			<g>
				<path fill="#4C3529" d="M10.292,80.598c5.439-0.178,10.879-0.225,16.319-0.33c5.44-0.088,10.879-0.124,16.319-0.045v0.75
					c-5.439,0.079-10.879,0.043-16.319-0.045C21.172,80.822,15.732,80.776,10.292,80.598z"/>
			</g>
			<rect x="54.507" y="79.785" fill="#4C3529" width="25.292" height="0.75"/>
			<g>
				<path fill="#4C3529" d="M106.911,80.43c-3.761,0.088-7.521,0.111-11.282,0.163l-5.641,0.032c-1.88,0.009-3.76,0.013-5.641-0.01
					v-0.75c1.88-0.022,3.761-0.019,5.641-0.01l5.641,0.032c3.761,0.052,7.521,0.075,11.282,0.163V80.43z"/>
			</g>
			<g>
				<path fill="#4C3529" d="M75.132,53.299c0.182-1.785,1.352-3.498,2.988-4.548l0.613,1.236c-0.767,0.253-1.5,0.649-2.129,1.21
					C75.981,51.756,75.441,52.465,75.132,53.299z"/>
			</g>
			<g>
				<path fill="#4C3529" d="M75.656,56.398c0.378-1.059,1.005-2.037,1.767-2.908c0.766-0.871,1.697-1.62,2.739-2.206l0.557,1.264
					c-0.998,0.316-1.96,0.798-2.826,1.448C77.03,54.646,76.24,55.443,75.656,56.398z"/>
			</g>
			<g>
				<path fill="#4C3529" d="M50.301,52.141c-0.003-0.89-0.266-1.741-0.659-2.48c-0.398-0.742-0.95-1.367-1.583-1.868l1.001-0.951
					C50.236,48.39,50.745,50.403,50.301,52.141z"/>
			</g>
			<g>
				<path fill="#4C3529" d="M47.513,53.675c-0.003-0.89-0.266-1.741-0.659-2.48c-0.397-0.742-0.95-1.367-1.583-1.868l1.002-0.951
					C47.448,49.925,47.957,51.937,47.513,53.675z"/>
			</g>
			<g>
				<path fill="#4C3529" d="M50.577,57.332l-6.195,2.888c-2.073,0.939-4.148,1.869-6.205,2.863l-0.374-0.928
					c2.152-0.708,4.238-1.599,6.283-2.571c2.048-0.962,4.071-1.998,6.02-3.135L50.577,57.332z"/>
			</g>
			<g>
				<path fill="#4C3529" d="M50.437,88.966c-0.12,0.044-0.365,0.106-0.54,0.126c-0.188,0.022-0.375,0.026-0.559,0.016
					c-0.366-0.025-0.714-0.109-1.04-0.226c-0.327-0.116-0.632-0.265-0.923-0.432c-0.294-0.173-0.558-0.348-0.84-0.579l0.368,0.118
					c-1.095,0.034-2.06-0.368-2.83-1.048c-0.762-0.702-1.22-1.565-1.489-2.52c-0.261-0.934-0.318-1.893-0.263-2.825
					c0.062-0.941,0.214-1.841,0.496-2.765l0.138,0.527c-2.351-2.146-4.538-4.473-6.512-6.974c-0.986-1.251-1.919-2.544-2.786-3.884
					c-0.865-1.349-1.671-2.706-2.357-4.199l0,0l0.655,0.263c-0.485,0.146-0.978,0.32-1.436,0.518l-0.001,0.001l-0.393,0.267
					l-0.102-0.499c-0.121-0.595-0.153-1.215-0.081-1.828c0.033-0.307,0.097-0.61,0.182-0.91c0.09-0.307,0.184-0.58,0.356-0.903
					v-0.001l0.574,0.743c-0.571,0.128-1.176,0.458-1.669,0.848v0.001l-0.784,0.771l0.211-1.065c0.185-0.934,0.72-1.62,1.24-2.268
					c0.536-0.64,1.125-1.218,1.731-1.771c1.216-1.103,2.505-2.104,3.817-3.068c2.63-1.928,5.35-3.68,8.028-5.51
					c1.348-0.903,2.699-1.805,4.093-2.656c1.395-0.843,2.845-1.66,4.449-2.181c1.601-0.531,3.305-0.661,4.909-0.728
					c0.737-0.052,1.488-0.233,1.965-0.658c0.485-0.414,0.66-1.085,0.663-1.841l1,0.021c-0.001,0.84-0.233,1.9-1.019,2.558
					c-0.77,0.647-1.697,0.816-2.557,0.879c-1.626,0.053-3.191,0.166-4.682,0.645c-1.49,0.468-2.896,1.238-4.275,2.058
					c-1.378,0.825-2.731,1.712-4.083,2.601c-2.688,1.805-5.434,3.542-8.047,5.425c-1.306,0.944-2.588,1.923-3.782,2.988
					c-0.594,0.533-1.168,1.09-1.678,1.688c-0.497,0.593-0.976,1.257-1.106,1.931l-0.572-0.295l0.001-0.001
					c0.263-0.288,0.53-0.525,0.835-0.752c0.302-0.224,0.636-0.42,1.009-0.57l0.871-0.35l-0.297,1.093l0,0
					c-0.116,0.17-0.244,0.428-0.335,0.663c-0.095,0.242-0.175,0.494-0.23,0.753c-0.113,0.516-0.14,1.053-0.085,1.588l-0.495-0.232
					l0,0c0.451-0.322,0.904-0.602,1.382-0.868l0.369-0.206l0.287,0.469l0,0c0.632,1.377,1.438,2.744,2.278,4.051
					c0.848,1.311,1.763,2.58,2.731,3.808c1.938,2.455,4.088,4.744,6.4,6.854l0.233,0.213l-0.096,0.314
					c-0.24,0.787-0.395,1.664-0.447,2.508c-0.051,0.85,0.005,1.703,0.227,2.495c0.207,0.763,0.627,1.542,1.195,2.046
					c0.556,0.518,1.377,0.818,2.075,0.796l0.216-0.007l0.152,0.125c0.196,0.161,0.449,0.334,0.69,0.473
					c0.246,0.142,0.5,0.265,0.758,0.355c0.258,0.093,0.518,0.152,0.771,0.17c0.273,0.011,0.454-0.002,0.732-0.097L50.437,88.966z"/>
			</g>
			<g>
				<path fill="#4C3529" d="M50.499,80.611c0.914,1.394,1.858,2.772,3.042,3.791c0.585,0.502,1.256,0.866,1.912,0.898
					c0.657,0.038,1.305-0.312,1.892-0.8l0.001-0.001v0.605c-0.913-0.933-1.676-1.948-2.298-3.087
					c-0.601-1.102-1.115-2.238-1.803-3.189c-0.344-0.473-0.74-0.885-1.202-1.161c-0.451-0.28-0.998-0.386-1.584-0.436
					c-1.144-0.103-2.384,0.097-3.336,0.595l0,0L46.83,77.95l-0.201-0.124c-1.504-0.93-2.765-2.028-3.959-3.263
					c-1.165-1.244-2.222-2.617-3.003-4.164c-0.386-0.773-0.71-1.583-0.939-2.425c-0.239-0.856-0.317-1.689-0.5-2.467
					c-0.336-1.594-0.792-3.148-1.448-4.705c1.166,1.239,1.904,2.845,2.374,4.476c0.239,0.835,0.357,1.664,0.581,2.409
					c0.226,0.762,0.542,1.498,0.917,2.205c0.744,1.418,1.717,2.726,2.828,3.908c1.103,1.173,2.354,2.298,3.642,3.188h-0.493
					l0.003-0.002c1.266-0.639,2.589-0.794,3.912-0.678c0.646,0.061,1.353,0.195,1.968,0.578c0.605,0.369,1.077,0.882,1.458,1.414
					c0.762,1.076,1.262,2.227,1.844,3.308c0.56,1.048,1.3,2.043,2.121,2.891l0.309,0.319l-0.31,0.286l-0.001,0.001
					c-0.583,0.656-1.487,1.232-2.521,1.183c-1.027-0.04-1.854-0.621-2.475-1.23c-0.626-0.63-1.112-1.347-1.507-2.099
					C51.038,82.206,50.709,81.427,50.499,80.611z"/>
			</g>
			<g>
				<g>
					<path fill="#EDDDBF" d="M42.336,16.279c0,0,14.484,5.882,38.385,0.039c0,0-10.046-16.941-19.752-16.3
						C50.001,0.742,42.336,16.279,42.336,16.279z"/>
					<path fill="#4C3529" d="M42.898,16.058c2.88,0.938,5.935,1.464,8.969,1.802c3.193,0.341,6.411,0.433,9.618,0.322
						c6.418-0.221,12.789-1.256,18.987-2.883l-0.653,1.553l-0.002-0.003c-2.19-3.635-4.786-7.149-7.759-10.199
						c-1.496-1.518-3.109-2.921-4.885-4.027c-1.767-1.1-3.738-1.9-5.744-1.91c-2.031,0.021-4.088,0.641-5.941,1.62
						c-1.864,0.983-3.562,2.306-5.11,3.785C47.405,8.995,44.915,12.425,42.898,16.058z M42.001,16.113
						c2.01-3.932,4.508-7.594,7.617-10.769c1.563-1.572,3.301-3.007,5.271-4.113c1.97-1.101,4.182-1.855,6.525-1.941
						c2.39-0.045,4.634,0.83,6.58,1.971c1.961,1.153,3.697,2.595,5.302,4.14c3.197,3.123,5.914,6.606,8.323,10.378l0.003,0.005
						l0.718,1.244l-1.37,0.31c-6.385,1.441-12.918,2.271-19.461,2.268c-3.27-0.001-6.54-0.208-9.776-0.667
						c-3.236-0.479-6.438-1.13-9.536-2.312l-0.383-0.146L42.001,16.113z"/>
				</g>
				<g>
					<path fill="#4C3529" d="M74.107,10.351c-0.858,1.776-1.958,3.441-3.248,4.954c-1.294,1.506-2.815,2.859-4.607,3.826
						l-0.334-0.672c1.741-0.8,3.302-2.011,4.664-3.407C71.942,13.648,73.139,12.068,74.107,10.351z"/>
				</g>
				<g>
					<path fill="#4C3529" d="M72.63,8.672c-0.537,1.106-1.217,2.138-1.948,3.128c-0.737,0.987-1.542,1.927-2.408,2.809
						c-1.73,1.766-3.696,3.307-5.823,4.594L62.08,18.55c2.135-1.148,4.14-2.558,5.933-4.211c0.897-0.825,1.741-1.713,2.521-2.654
						C71.31,10.739,72.038,9.747,72.63,8.672z"/>
				</g>
				<g>
					<path fill="#4C3529" d="M70.878,7.67c-1.054,2.008-2.572,3.743-4.228,5.287c-1.69,1.513-3.579,2.821-5.648,3.738
						c1.93-1.173,3.767-2.471,5.413-3.997c0.841-0.741,1.619-1.551,2.369-2.385C69.53,9.475,70.24,8.602,70.878,7.67z"/>
				</g>
				<g>
					<path fill="#4C3529" d="M66.71,7.525c1.733,1.229,3.325,2.656,4.816,4.18c1.489,1.527,2.857,3.181,4.074,4.949l-0.63,0.406
						c-1.086-1.798-2.336-3.504-3.72-5.102C69.864,10.364,68.366,8.853,66.71,7.525z"/>
				</g>
				<g>
					<path fill="#4C3529" d="M65.753,9.378c1.426,1.249,2.809,2.551,4.143,3.908c1.326,1.367,2.622,2.768,3.724,4.388l-0.855,0.518
						c-0.894-1.604-2.052-3.111-3.241-4.571C68.323,12.162,67.063,10.747,65.753,9.378z"/>
				</g>
			</g>
			<path fill="#4C3529" d="M67.219,27.053c0,0,0.104-3.584,5.25-3.719c0,0,2.905-0.079,3.424-1.3c0,0,0.633,1.629-0.771,2.685
				C73.542,25.907,69.531,24.823,67.219,27.053z"/>
			<path fill="#4C3529" d="M58.181,27.428c0,0-0.104-3.584-5.25-3.719c0,0-2.905-0.079-3.424-1.3c0,0-0.633,1.629,0.771,2.685
				C51.858,26.282,55.868,25.198,58.181,27.428z"/>
			<g>
				<path fill="#4C3529" d="M70.663,99.856c2.379-1.173,4.625-2.57,6.726-4.16c2.104-1.586,4.034-3.378,5.892-5.233l0.222-0.222
					l0.312,0.008l0,0l7.092,0.406l-0.303,0.898l-0.001-0.001c-0.622-0.491-1.103-1.028-1.536-1.649
					c-0.422-0.616-0.758-1.307-0.942-2.048c-0.187-0.74-0.209-1.522-0.077-2.271c0.141-0.747,0.422-1.454,0.79-2.095l0.558,0.593
					h-0.001c-1.228,0.642-2.427,1.425-3.532,2.283c-1.105,0.864-2.134,1.829-2.979,2.921l0,0l-0.141,0.195l-0.281-0.014
					l-4.208-0.207l0.158-1.371l4.141,0.627l-0.422,0.182l0,0c0.926-1.166,2.02-2.163,3.181-3.049c1.17-0.884,2.389-1.662,3.71-2.332
					l0,0l1.224-0.616l-0.666,1.208c-0.319,0.578-0.547,1.194-0.656,1.825c-0.1,0.632-0.071,1.275,0.095,1.892
					c0.164,0.615,0.459,1.199,0.835,1.729c0.372,0.523,0.851,1.026,1.334,1.394h0.001l1.351,0.884l-1.655,0.015l-7.104,0.064l0,0
					l0.534-0.214c-1.917,1.906-4.049,3.593-6.293,5.09c-2.245,1.495-4.629,2.785-7.1,3.823L70.663,99.856z"/>
			</g>
			<g>
				<path fill="#4C3529" d="M56.97,91.532c-2.693,1.239-5.243,2.721-7.537,4.521c-2.283,1.807-4.287,3.951-5.827,6.398l-0.36-1.062
					c1.929,0.628,4.042,1.023,6.114,1.27c2.087,0.234,4.191,0.338,6.291,0.261c4.197-0.159,8.375-0.936,12.33-2.373l0.482,1.293
					c-4.067,1.56-8.398,2.455-12.758,2.601c-2.179,0.076-4.365,0.001-6.528-0.281c-2.172-0.288-4.288-0.696-6.424-1.418
					l-0.855-0.289l0.495-0.773c1.657-2.586,3.815-4.837,6.282-6.626c2.458-1.804,5.216-3.152,8.068-4.09L56.97,91.532z"/>
			</g>
			<g>
				<path fill="#4C3529" d="M64.307,89.329c-0.653,0.44-1.359,0.575-2.04,0.774c-0.688,0.203-1.379,0.381-2.083,0.528l-0.286-0.959
					c0.687-0.262,1.394-0.465,2.113-0.612c0.728-0.144,1.438-0.32,2.206-0.165L64.307,89.329z"/>
			</g>
			<g>
				<path fill="#4C3529" d="M53.125,97.803c0.714,0.756,1.149,1.777,1.352,2.839c0.201,1.068,0.15,2.19-0.067,3.271l-1.317-0.414
					c0.393-0.876,0.658-1.82,0.697-2.802C53.821,99.723,53.65,98.695,53.125,97.803z"/>
			</g>
			<circle fill="#4C3529" cx="50.281" cy="98.459" r="0.844"/>
			<g>
				<path fill="#4C3529" d="M55.762,85.346l19.859,18.707l0.618,0.582l-0.824,0.155l-0.016,0.003
					c-0.658,0.064-1.104-0.064-1.611-0.186c-0.488-0.133-0.956-0.305-1.412-0.495c-0.911-0.384-1.775-0.846-2.613-1.343
					c-1.674-0.998-3.244-2.138-4.76-3.335c-3.03-2.401-5.849-5.037-8.572-7.757l-0.001-0.001l-0.201-0.208l0.024-0.275l0.166-1.913
					v-0.001l0.265,0.544l-3.624-2.64l0.462-0.691l3.828,2.333l0.278,0.169l-0.013,0.375l0,0l-0.119,1.917l-0.177-0.482l0,0
					c2.655,2.741,5.402,5.397,8.343,7.809c1.471,1.201,2.993,2.344,4.596,3.337c0.802,0.494,1.625,0.951,2.476,1.326
					c0.424,0.187,0.856,0.352,1.291,0.478c0.413,0.123,0.922,0.218,1.223,0.19l-0.008,0.002l-0.207,0.737l-20.09-18.459
					L55.762,85.346z"/>
			</g>
			<g>
				<path fill="#4C3529" d="M52.463,83.497c0.473,1.213,0.982,2.435,1.594,3.53c0.313,0.536,0.658,1.065,1.076,1.249
					c0.161,0.097,0.383,0.273,0.425,0.644c0.013,0.354-0.157,0.542-0.257,0.654c-0.224,0.221-0.421,0.307-0.616,0.391
					c-0.388,0.154-0.767,0.219-1.148,0.243c-1.53,0.126-3.027-0.721-3.841-1.906c-0.836-1.188-1.125-2.599-1.07-3.935
					c0.469,1.256,0.981,2.462,1.792,3.363c0.791,0.913,1.926,1.381,3.056,1.336c0.278-0.015,0.558-0.067,0.785-0.157
					c0.109-0.04,0.212-0.109,0.223-0.123c0.012-0.004-0.06,0.032-0.056,0.219c0.028,0.2,0.122,0.245,0.144,0.258
					c-0.77-0.45-1.101-1.155-1.422-1.752c-0.604-1.251-0.963-2.541-1.233-3.86L52.463,83.497z"/>
			</g>
			<g>
				<path fill="#4C3529" d="M39.263,93.977c0.44,0.125,0.928,0.273,1.382,0.609c0.218,0.17,0.483,0.428,0.549,0.848
					c0.06,0.423-0.146,0.779-0.333,0.995c-0.803,0.831-1.745,1.077-2.594,1.384l-5.114,1.743l-5.118,1.73
					c-1.795,0.605-3.669,0.834-5.525,0.891c-0.933,0.024-1.868-0.021-2.81-0.155c-0.471-0.067-0.943-0.159-1.42-0.295l-1.3-0.382
					l-5.182-1.526L1.454,96.696c-0.453-0.146-0.932-0.31-1.383-0.664c-0.216-0.178-0.476-0.444-0.533-0.865
					c-0.051-0.424,0.16-0.77,0.352-0.978c0.816-0.797,1.752-1.008,2.612-1.283l5.174-1.556l5.162-1.594
					c1.748-0.559,3.58-0.764,5.394-0.792c0.909-0.004,1.82,0.025,2.727,0.147c0.917,0.103,1.794,0.399,2.652,0.637l5.208,1.433
					l10.438,2.794L39.263,93.977z M39.017,94.813l-10.34-3.135l-5.181-1.532c-0.875-0.243-1.714-0.529-2.593-0.628
					c-0.878-0.119-1.772-0.156-2.663-0.127c-1.78,0.063-3.565,0.301-5.24,0.874l-5.129,1.697l-5.117,1.733
					c-0.434,0.146-0.836,0.28-1.219,0.461c-0.373,0.175-0.746,0.396-0.951,0.639c-0.104,0.123-0.121,0.215-0.109,0.246
					c0.001,0.035,0.065,0.135,0.197,0.23c0.266,0.197,0.655,0.338,1.061,0.448l10.435,2.804l5.208,1.438l1.298,0.357
					c0.392,0.104,0.806,0.179,1.227,0.231c0.843,0.106,1.712,0.127,2.58,0.119c1.738-0.037,3.48-0.252,5.11-0.776l5.173-1.561
					l5.177-1.547c0.441-0.13,0.84-0.247,1.226-0.41c0.376-0.158,0.75-0.362,0.962-0.588c0.107-0.114,0.129-0.197,0.127-0.229
					c0.007-0.035-0.052-0.145-0.181-0.248c-0.264-0.215-0.644-0.369-1.062-0.5L39.017,94.813z"/>
			</g>
		</g>
		<g>
			<path fill="#A5CC86" d="M7.124,91.721c0,0,15.254-2.539,21.332-2.592l0.537,1.411l6.159,0.642l-0.059,0.936l2.202,0.828
				l0.334,1.65l-27.312,2.087l0.832-1.263l-4.702,0.077l-1.02-1.692l1.353-0.604L7.124,91.721z"/>
			<path fill="#4C3529" d="M9.583,97.115l0.861-1.309l-4.208,0.069l-1.351-2.241l1.57-0.7l0.359-1.543l0.247-0.041
				c0.153-0.025,15.353-2.544,21.39-2.597l0.261-0.002l0.547,1.439l6.288,0.654l-0.064,1.019l2.136,0.803l0.459,2.271L9.583,97.115z
				 M11.852,95.033L11.05,96.25l26.127-1.996l-0.208-1.03l-2.267-0.854l0.054-0.853l-6.031-0.629L28.2,89.507
				c-5.708,0.11-18.804,2.221-20.766,2.542l-0.33,1.418l-1.137,0.507l0.69,1.144L11.852,95.033z"/>
		</g>
		<g>
			<line fill="none" x1="10.788" y1="95.432" x2="36.851" y2="93.026"/>
			<polygon fill="#4C3529" points="10.754,95.059 36.851,93.026 10.823,95.805 			"/>
		</g>
		<g>
			<line fill="none" x1="6.658" y1="93.256" x2="34.819" y2="92.327"/>
			<polygon fill="#4C3529" points="6.646,92.881 34.819,92.327 6.67,93.631 			"/>
		</g>
		<g>
			<line fill="none" x1="11.413" y1="92.957" x2="29.475" y2="90.59"/>
			<polygon fill="#4C3529" points="11.413,92.957 29.442,90.342 29.508,90.838 			"/>
		</g>
	</g>
</g>
</svg>
