<?xml version="1.0" encoding="utf-8"?>
<!-- Generator: Adobe Illustrator 17.0.0, SVG Export Plug-In . SVG Version: 6.00 Build 0)  -->
<!DOCTYPE svg PUBLIC "-//W3C//DTD SVG 1.1//EN" "http://www.w3.org/Graphics/SVG/1.1/DTD/svg11.dtd">
<svg version="1.1" id="Слой_1" xmlns="http://www.w3.org/2000/svg" xmlns:xlink="http://www.w3.org/1999/xlink" x="0px" y="0px"
	 width="93.917px" height="104.455px" viewBox="0 0 93.917 104.455" enable-background="new 0 0 93.917 104.455"
	 xml:space="preserve">
<g>
	<g>
		<g>
			<defs>
				<path id="SVGID_1_" d="M50.087,18.814c-0.176,1.129-0.366,3.206-0.384,3.396c1.04-0.215,2.355-0.392,3.814-0.37
					c2.041,0.028,3.577-0.369,4.825-0.955c0.002-0.019,0.075-0.854-0.031-2.07H50.087z"/>
			</defs>
			<clipPath id="SVGID_2_">
				<use xlink:href="#SVGID_1_"  overflow="visible"/>
			</clipPath>
		</g>
		<g>
			<defs>
				<path id="SVGID_3_" d="M41.453,18.815c0.176,1.129,0.365,3.206,0.383,3.396c-1.04-0.215-2.355-0.392-3.814-0.37
					c-2.041,0.028-3.577-0.369-4.825-0.955c-0.002-0.02-0.075-0.854,0.031-2.07H41.453z"/>
			</defs>
			<clipPath id="SVGID_4_">
				<use xlink:href="#SVGID_3_"  overflow="visible"/>
			</clipPath>
		</g>
	</g>
	<g>
		<g>
			<path fill="#FFFFFF" d="M77.745,92.248l0.09-0.399C77.825,91.979,77.794,92.118,77.745,92.248z"/>
			<path fill="#FFFFFF" d="M77.705,92.339c0.03-0.03,0.04-0.061,0.04-0.091l-0.16,0.74C77.625,92.778,77.665,92.559,77.705,92.339z"
				/>
			<path fill="#FFFFFF" d="M71.194,90.028c-0.09,0.021-0.18,0.05-0.27,0.07c0-0.01,0-0.01,0-0.01
				C71.015,90.078,71.105,90.049,71.194,90.028z"/>
			<path fill="#F5F6F5" d="M70.935,89.908c0,0.061,0,0.12-0.01,0.181c-0.13,0.039-0.26,0.069-0.4,0.1c0.01-0.07,0.01-0.15,0.02-0.22
				L70.935,89.908z"/>
			<path fill="#F5F6F5" d="M66.665,90.729c0.01,0.07,0.01,0.149,0.01,0.22c-0.13,0.021-0.26,0.04-0.39,0.061
				c0.01-0.07,0.01-0.141,0.02-0.21C66.424,90.778,66.544,90.748,66.665,90.729z"/>
			<path fill="#F5F6F5" d="M62.404,91.538c-0.12,0.021-0.25,0.04-0.37,0.051c0.01-0.04,0.01-0.08,0.01-0.12
				c0.11-0.03,0.21-0.061,0.32-0.091C62.375,91.429,62.384,91.488,62.404,91.538z"/>
			<path fill="#F5F6F5" d="M58.044,91.868c0.02,0.03,0.03,0.07,0.04,0.101c-0.11,0.01-0.21,0.02-0.32,0.02v-0.01
				C57.855,91.939,57.955,91.908,58.044,91.868z"/>
			<path fill="#FFFFFF" d="M54.585,92.189c-0.28,0.02-0.56,0.03-0.84,0.05l-0.01-0.01C54.024,92.219,54.305,92.208,54.585,92.189z"
				/>
			<path fill="#FFFFFF" d="M53.625,92.238c-0.53,0.021-1.06,0.04-1.6,0.06C52.565,92.278,53.095,92.259,53.625,92.238z"/>
			<path fill="#FFFFFF" d="M50.435,92.339c0.53-0.011,1.06-0.021,1.59-0.04C51.495,92.319,50.964,92.328,50.435,92.339z"/>
			<path fill="#FFFFFF" d="M45.035,92.359c0.17,0.01,0.34,0.01,0.52,0.01c-0.17,0-0.34,0-0.51,0
				C45.044,92.359,45.035,92.359,45.035,92.359z"/>
			<path fill="#FFFFFF" d="M45.035,92.359l-0.01,0.01c-0.37-0.01-0.73-0.02-1.09-0.029C44.305,92.349,44.665,92.359,45.035,92.359z"
				/>
			<path fill="#F5F6F5" d="M32.365,91.469c0,0.04,0,0.08,0.01,0.12c-0.12-0.011-0.25-0.03-0.37-0.04
				c0.01-0.051,0.03-0.11,0.04-0.171C32.154,91.408,32.254,91.439,32.365,91.469z"/>
			<path fill="#F5F6F5" d="M28.105,90.799c0.01,0.069,0.01,0.14,0.02,0.21c-0.11-0.011-0.22-0.03-0.34-0.051
				c-0.02,0-0.04,0-0.06-0.01l0.02-0.22C27.865,90.748,27.984,90.778,28.105,90.799z"/>
			<path fill="#F5F6F5" d="M36.794,83.339c1.17-0.36,2.51-0.58,3.95-0.591c0.05,0,0.09,0,0.14,0c0.04,0,0.08,0,0.12,0
				c1.45,0.011,2.8,0.221,3.98,0.591c0.08,0.02,0.15,0.05,0.23,0.079c0.6,0.19,1.15,0.431,1.63,0.7
				c0.56-0.149,1.18-0.229,1.84-0.229c0.17,0,0.34,0.01,0.51,0.02c0.07,0.01,0.14,0.01,0.22,0.01c0.66,0.07,1.26,0.21,1.79,0.41
				c0.51-0.72,1.28-1.27,2.2-1.569c0.09-0.021,0.18-0.051,0.26-0.07c0.39-0.11,0.8-0.16,1.22-0.16c1.04,0,1.98,0.33,2.72,0.86
				c0.08,0.06,0.17,0.12,0.24,0.18c0.73,0.6,1.22,1.42,1.34,2.34c0.5-0.729,1.46-1.229,2.58-1.24c0.01,0,0.01,0,0.02,0
				c0.07,0,0.14,0.011,0.2,0.011c1.2,0.069,2.2,0.689,2.6,1.56c0.34-0.479,0.81-0.88,1.36-1.18c0.08-0.05,0.16-0.09,0.25-0.13
				c0.58-0.271,1.24-0.431,1.94-0.431c0.74,0,1.43,0.181,2.03,0.48c0.09,0.04,0.17,0.09,0.26,0.14c0.79,0.471,1.4,1.16,1.71,1.98
				c0.26-0.12,0.56-0.19,0.88-0.19c0.43,0,0.82,0.12,1.15,0.33c0.07,0.04,0.14,0.09,0.21,0.15c0.37,0.31,0.6,0.75,0.6,1.239
				c0,0.091-0.01,0.171-0.02,0.25c-0.07,0.03-0.14,0.061-0.21,0.08c-0.01,0.011-0.01,0.011-0.02,0.011
				c-0.09,0.029-0.19,0.069-0.29,0.1c-0.95,0.35-2.04,0.67-3.24,0.96c-0.09,0.021-0.18,0.05-0.27,0.061
				c0.01-0.061,0.01-0.12,0.01-0.181l-0.39,0.061c-0.01,0.069-0.01,0.149-0.02,0.22c-0.64,0.15-1.31,0.29-2.01,0.43
				c-0.37,0.07-0.74,0.141-1.13,0.21c-0.23,0.04-0.47,0.08-0.71,0.12c0-0.07,0-0.149-0.01-0.22c-0.12,0.02-0.24,0.05-0.36,0.07
				c-0.01,0.069-0.01,0.14-0.02,0.21c-0.44,0.08-0.89,0.14-1.35,0.21c-0.81,0.12-1.66,0.229-2.53,0.319
				c-0.02-0.05-0.03-0.109-0.04-0.16c-0.11,0.03-0.21,0.061-0.32,0.091c0,0.04,0,0.08-0.01,0.12c-0.12,0.02-0.23,0.029-0.35,0.039
				c-0.62,0.07-1.25,0.131-1.89,0.19c-0.56,0.05-1.12,0.1-1.69,0.15c-0.01,0-0.01,0-0.02,0c-0.01-0.03-0.02-0.07-0.04-0.101
				c-0.09,0.04-0.19,0.07-0.28,0.11v0.01c-1.03,0.08-2.1,0.15-3.18,0.2c-0.28,0.02-0.56,0.03-0.85,0.04
				c-0.01-0.01-0.01-0.021-0.02-0.03c-0.03,0.01-0.05,0.03-0.08,0.04c0,0,0,0-0.01,0c-0.53,0.021-1.06,0.04-1.6,0.06
				c-0.53,0.02-1.06,0.029-1.59,0.04c-0.35,0.01-0.7,0.02-1.06,0.02c-0.72,0.01-1.45,0.02-2.19,0.02c-0.55,0-1.09,0-1.63-0.01
				c-0.18,0-0.35,0-0.52-0.01c-0.37,0-0.73-0.01-1.1-0.02c-0.33,0-0.66-0.011-0.99-0.021c-0.63-0.02-1.25-0.04-1.86-0.07
				c-0.1,0-0.2,0-0.3-0.01c-0.01,0-0.02,0-0.02,0c-0.03-0.02-0.05-0.03-0.07-0.04c-0.01,0.01-0.01,0.021-0.02,0.03
				c-1.31-0.05-2.59-0.13-3.83-0.22c-0.07-0.011-0.14-0.011-0.2-0.021v-0.01c-0.09-0.04-0.19-0.07-0.28-0.11
				c-0.01,0.03-0.03,0.07-0.04,0.101h-0.01c-1.36-0.11-2.68-0.23-3.94-0.38c-0.01-0.04-0.01-0.08-0.01-0.12
				c-0.11-0.03-0.21-0.061-0.32-0.091c-0.01,0.061-0.03,0.12-0.04,0.171c-0.34-0.04-0.68-0.08-1.01-0.12
				c-0.27-0.04-0.55-0.08-0.82-0.11c-0.7-0.1-1.39-0.2-2.05-0.31c-0.01-0.07-0.01-0.141-0.02-0.21c-0.12-0.021-0.24-0.051-0.36-0.07
				l-0.02,0.22c-0.49-0.08-0.96-0.16-1.43-0.25c-0.24-0.05-0.48-0.09-0.72-0.14c-0.59-0.11-1.15-0.23-1.69-0.36
				c-0.01-0.08-0.01-0.149-0.02-0.229l-0.39-0.061c0,0.061,0,0.13,0.01,0.19c-0.2-0.04-0.39-0.09-0.58-0.141
				c-0.21-0.05-0.41-0.1-0.61-0.159c-0.4-0.101-0.79-0.21-1.16-0.33c-0.18-0.051-0.36-0.11-0.54-0.17c0.71-1.06,2.05-1.78,3.61-1.78
				c0.03,0,0.05,0.01,0.08,0.01c0.07,0,0.13,0.01,0.19,0.021c0.14,0.01,0.28,0.01,0.42,0.029c0.16-0.6,0.68-1.04,1.3-1.04
				c0.51,0,0.94,0.29,1.18,0.721c0.15-0.591,0.48-1.11,0.92-1.54c0.07-0.061,0.14-0.11,0.21-0.17c0.72-0.601,1.69-0.98,2.77-0.98
				c0.4,0,0.78,0.05,1.15,0.15c0.08,0.02,0.15,0.05,0.23,0.069c0.3,0.101,0.6,0.221,0.86,0.37c0.7-0.72,1.76-1.33,3.04-1.75
				C36.634,83.378,36.714,83.359,36.794,83.339z"/>
			<path fill="#F5F6F5" d="M24.455,87.328c0.01,0.07,0.01,0.15,0.02,0.221c-0.06-0.011-0.12-0.021-0.19-0.021
				c-0.01-0.07-0.02-0.14-0.03-0.21C24.325,87.319,24.395,87.328,24.455,87.328z"/>
			<path fill="#F5F6F5" d="M23.865,89.969c0.01,0.08,0.01,0.149,0.02,0.229c-0.14-0.03-0.27-0.06-0.4-0.1
				c-0.01-0.061-0.01-0.13-0.01-0.19L23.865,89.969z"/>
			<path fill="#F8DCA8" d="M75.105,82.349c-0.13-0.05-0.27-0.101-0.41-0.15c-1.08-0.399-2.35-0.78-3.78-1.12
				c-0.13-0.029-0.26-0.06-0.4-0.09c-1.18-0.28-2.47-0.53-3.86-0.76c-0.12-0.021-0.25-0.04-0.38-0.061
				c-1.23-0.199-2.54-0.38-3.9-0.54c-0.12-0.02-0.23-0.029-0.35-0.039c-1.26-0.15-2.57-0.271-3.92-0.381
				c-0.12-0.01-0.24-0.02-0.36-0.02c-1.27-0.1-2.57-0.18-3.91-0.24c-0.13-0.01-0.25-0.01-0.38-0.02c-1.28-0.051-2.58-0.09-3.91-0.11
				c-0.12,0-0.25-0.01-0.38,0c-0.65-0.02-1.31-0.02-1.98-0.02c-0.65,0-1.3,0-1.94,0.02c-0.13-0.01-0.26,0-0.38,0
				c-1.33,0.021-2.63,0.06-3.91,0.11c-0.13,0.01-0.26,0.01-0.38,0.02c-1.34,0.061-2.64,0.141-3.91,0.23
				c-0.12,0.01-0.23,0.02-0.35,0.029c-1.36,0.101-2.67,0.23-3.93,0.37c-0.12,0.011-0.23,0.03-0.35,0.04
				c-1.36,0.16-2.67,0.34-3.9,0.54c-0.13,0.021-0.26,0.04-0.38,0.061c-1.39,0.229-2.68,0.479-3.86,0.76
				c-0.14,0.03-0.27,0.06-0.4,0.09c-1.43,0.34-2.7,0.72-3.79,1.12c-0.14,0.05-0.28,0.1-0.41,0.15c-2.46,0.97-3.86,2.069-3.86,3.25
				c0,0.01,0,0.01,0,0.02c0,0,0,0,0,0.01c0.01,0.061,0.04,0.23,0.09,0.49v0.01c0.19,1.04,0.64,3.471,1.07,5.82
				c0.3,1.65,0.6,3.26,0.79,4.34l0.11-0.019c0.14,1.069,1.28,2.09,3.21,2.989c1.11,0.53,2.49,1.011,4.09,1.45
				c1.24,0.34,2.61,0.66,4.1,0.93c1.27,0.24,2.63,0.461,4.05,0.641c1.3,0.18,2.66,0.32,4.07,0.439c1.31,0.12,2.67,0.221,4.07,0.28
				c1.33,0.07,2.69,0.12,4.08,0.14c0.68,0.011,1.37,0.021,2.07,0.021c0.68,0,1.35-0.01,2.01-0.021c1.39-0.02,2.75-0.06,4.08-0.13
				c1.39-0.069,2.75-0.159,4.07-0.27c1.41-0.13,2.77-0.28,4.07-0.45h0.01c1.42-0.18,2.77-0.4,4.04-0.63
				c1.51-0.28,2.9-0.59,4.15-0.94c1.53-0.42,2.86-0.88,3.95-1.39c0.01,0.01,0.03,0,0.04-0.01c1.83-0.84,2.98-1.771,3.27-2.771h0.01
				c0.14-0.779,0.36-1.93,0.58-3.189c-0.3,1-1.49,1.95-3.39,2.79c-0.05,0.029-0.11,0.05-0.16,0.08c-1.11,0.479-2.45,0.93-3.98,1.33
				c-0.05,0.01-0.09,0.029-0.14,0.04c-1.21,0.319-2.54,0.609-3.97,0.869c-0.04,0.011-0.09,0.011-0.13,0.021
				c-1.25,0.229-2.59,0.43-3.99,0.61c-0.04,0.01-0.08,0.01-0.12,0.02c-1.28,0.16-2.62,0.3-4.01,0.42c-0.04,0-0.08,0.01-0.12,0.01
				c-1.3,0.11-2.65,0.2-4.02,0.271c-0.04,0-0.08,0-0.12,0.01c-1.31,0.06-2.65,0.1-4.02,0.12c-0.04,0-0.08,0-0.12,0
				c-0.66,0.01-1.32,0.02-1.99,0.02c-0.69,0-1.38-0.01-2.05-0.02c-0.04,0-0.08,0-0.11,0c-1.37-0.021-2.72-0.061-4.03-0.13
				c-0.04,0-0.08,0-0.12-0.01c-1.38-0.06-2.72-0.15-4.02-0.271c-0.04,0-0.08,0-0.12-0.01c-1.39-0.11-2.73-0.26-4.01-0.42
				c-0.04-0.01-0.08-0.01-0.12-0.021c-1.41-0.18-2.74-0.38-3.99-0.609c-0.04-0.011-0.08-0.021-0.12-0.021
				c-1.44-0.26-2.77-0.56-3.98-0.88c-0.04-0.01-0.09-0.02-0.13-0.04c-1.54-0.4-2.89-0.85-3.99-1.34c-0.06-0.03-0.11-0.05-0.16-0.07
				c-2.03-0.92-3.23-1.95-3.38-3.05l-0.17-0.78c0.34,0.971,1.52,1.88,3.38,2.71c0.07,0.03,0.14,0.061,0.21,0.08
				c1.11,0.48,2.44,0.931,3.96,1.33c0.06,0.01,0.12,0.03,0.18,0.04c1.2,0.32,2.52,0.601,3.95,0.86c0.06,0.01,0.11,0.02,0.17,0.03
				c1.25,0.229,2.57,0.43,3.97,0.609c0.05,0,0.1,0.01,0.16,0.021c1.28,0.159,2.61,0.3,3.99,0.409c0.05,0.011,0.11,0.021,0.16,0.021
				c1.29,0.11,2.63,0.2,4,0.26c0.05,0.01,0.11,0.01,0.16,0.01c1.31,0.07,2.65,0.11,4.02,0.131c0.05,0,0.1,0,0.15,0
				c0.67,0.01,1.35,0.02,2.04,0.02c0.67,0,1.33,0,1.98-0.02c0.05,0,0.11,0,0.16,0c1.36-0.021,2.7-0.06,4.01-0.12
				c0.05-0.011,0.1-0.011,0.16-0.011c1.37-0.069,2.7-0.159,4-0.26c0.05-0.01,0.1-0.01,0.16-0.02c1.38-0.11,2.71-0.25,3.99-0.41
				c0.06-0.01,0.11-0.021,0.16-0.03c1.39-0.17,2.72-0.37,3.97-0.59c0.06-0.02,0.12-0.03,0.17-0.04c1.42-0.25,2.74-0.54,3.95-0.85
				c0.06-0.011,0.12-0.03,0.18-0.051c1.52-0.39,2.86-0.829,3.96-1.3c0.07-0.029,0.14-0.06,0.2-0.09c1.87-0.81,3.07-1.72,3.42-2.689
				c0.45-2.48,0.94-5.131,1.14-6.221v-0.02c0.06-0.32,0.09-0.51,0.09-0.51C78.935,84.418,77.544,83.319,75.105,82.349z
				 M71.194,90.028c-0.09,0.021-0.18,0.05-0.27,0.07c-0.13,0.029-0.26,0.06-0.4,0.09c-0.64,0.15-1.31,0.29-2.01,0.43
				c-0.37,0.07-0.75,0.141-1.13,0.21c-0.23,0.04-0.47,0.08-0.71,0.12c-0.13,0.021-0.26,0.04-0.39,0.061
				c-0.44,0.08-0.89,0.14-1.35,0.21c-0.81,0.12-1.66,0.229-2.53,0.33c-0.12,0.02-0.25,0.029-0.37,0.04
				c-0.12,0.02-0.23,0.029-0.35,0.039c-0.62,0.07-1.25,0.131-1.89,0.19c-0.55,0.05-1.12,0.1-1.69,0.15c-0.01,0-0.01,0-0.02,0
				c-0.11,0.01-0.21,0.02-0.32,0.02c-1.03,0.08-2.1,0.15-3.18,0.2c-0.28,0.02-0.56,0.03-0.84,0.05c-0.04,0-0.08,0-0.11,0
				c0,0,0,0-0.01,0c-0.53,0.021-1.06,0.04-1.6,0.06c-0.53,0.02-1.06,0.029-1.59,0.04c-0.35,0.01-0.7,0.02-1.06,0.02
				c-0.72,0.01-1.45,0.02-2.19,0.02c-0.55,0-1.09,0-1.63-0.01c-0.17,0-0.34,0-0.51,0c-0.01-0.01-0.01-0.01-0.02,0
				c-0.37-0.01-0.73-0.02-1.09-0.029c-0.33,0-0.66-0.011-0.99-0.021c-0.63-0.02-1.25-0.04-1.86-0.07c-0.1,0-0.2,0-0.3-0.01
				c-0.01,0-0.02,0-0.02,0c-0.03,0-0.06,0-0.09-0.01c-1.31-0.05-2.59-0.13-3.83-0.22c-0.07,0-0.14-0.011-0.2-0.011
				c-0.11-0.01-0.21-0.02-0.32-0.029h-0.01c-1.36-0.101-2.68-0.23-3.94-0.37c-0.12-0.021-0.25-0.03-0.37-0.04c0,0,0,0,0-0.01
				c-0.34-0.03-0.68-0.08-1.01-0.12c-0.28-0.03-0.55-0.07-0.82-0.11c-0.71-0.09-1.39-0.19-2.05-0.3
				c-0.11-0.021-0.23-0.04-0.34-0.061c-0.02,0-0.04,0-0.06-0.01c-0.49-0.08-0.97-0.16-1.43-0.25c-0.25-0.04-0.49-0.09-0.72-0.14
				c-0.59-0.11-1.15-0.23-1.69-0.36c-0.14-0.03-0.27-0.06-0.4-0.1c-0.2-0.04-0.39-0.09-0.58-0.141c-0.21-0.05-0.41-0.1-0.61-0.159
				c-0.4-0.101-0.79-0.21-1.16-0.33c-0.19-0.051-0.37-0.11-0.54-0.17c0.71-1.06,2.05-1.78,3.61-1.78c0.03,0,0.05,0.01,0.08,0.01
				c-0.01-0.07-0.02-0.14-0.03-0.21c0.07,0,0.14,0.01,0.2,0.01c0.15,0.011,0.3,0.03,0.44,0.05c0.16-0.59,0.68-1.02,1.3-1.02
				c0.51,0,0.94,0.28,1.18,0.7c0.15-0.561,0.47-1.061,0.9-1.48c0.07-0.069,0.14-0.13,0.22-0.2c0.72-0.59,1.7-0.949,2.78-0.949
				c0.4,0,0.78,0.05,1.14,0.14c0.08,0.021,0.16,0.04,0.23,0.07c0.31,0.09,0.6,0.22,0.87,0.37c0.7-0.71,1.75-1.311,3.03-1.721
				c0.08-0.029,0.16-0.05,0.25-0.069c1.17-0.36,2.52-0.57,3.95-0.58c0.05,0,0.09,0,0.14,0c0.04,0,0.08,0,0.12,0
				c1.45,0.01,2.8,0.22,3.98,0.58c0.08,0.02,0.16,0.05,0.23,0.08c0.6,0.19,1.15,0.42,1.63,0.69c0.56-0.14,1.18-0.229,1.84-0.229
				c0.17,0,0.35,0.01,0.51,0.019c0.08,0,0.15,0.01,0.22,0.021c0.66,0.05,1.27,0.19,1.79,0.39c0.51-0.7,1.28-1.25,2.2-1.53
				c0.08-0.03,0.17-0.06,0.26-0.08c0.39-0.1,0.8-0.149,1.22-0.149c1.04,0,1.98,0.31,2.72,0.84c0.09,0.05,0.17,0.109,0.25,0.18
				c0.73,0.59,1.21,1.391,1.33,2.29c0.51-0.72,1.46-1.21,2.59-1.21h0.01c0.07,0,0.14,0,0.21,0.01c1.2,0.061,2.19,0.681,2.59,1.521
				c0.35-0.47,0.82-0.87,1.37-1.16c0.08-0.05,0.17-0.09,0.26-0.12c0.58-0.269,1.23-0.42,1.92-0.42c0.74,0,1.44,0.17,2.04,0.47
				c0.09,0.04,0.18,0.09,0.27,0.141c0.79,0.46,1.39,1.14,1.69,1.939c0.26-0.12,0.56-0.189,0.88-0.189c0.44,0,0.85,0.12,1.17,0.34
				c0.08,0.04,0.15,0.09,0.21,0.16c0,0.06-0.01,0.109-0.02,0.17c0.37,0.31,0.6,0.75,0.6,1.239c0,0.091-0.01,0.171-0.02,0.25
				c-0.07,0.03-0.14,0.061-0.21,0.08c-0.01,0.011-0.01,0.011-0.02,0.011c-0.09,0.04-0.19,0.069-0.29,0.1
				C73.484,89.418,72.395,89.738,71.194,90.028z"/>
			<g>
				<path fill="#E49944" d="M73.654,99.309c-0.01,0.04-0.01,0.09-0.02,0.13c-0.01,0-0.02,0.01-0.03,0.02
					c0.01-0.05,0.01-0.09,0.01-0.14c-1.09,0.51-2.42,0.97-3.95,1.39c-1.25,0.351-2.64,0.66-4.15,0.94
					c-1.27,0.229-2.62,0.45-4.04,0.63h-0.01c-1.3,0.17-2.66,0.32-4.07,0.45c-1.32,0.11-2.68,0.2-4.07,0.27
					c-1.33,0.07-2.69,0.11-4.08,0.13c-0.66,0.011-1.33,0.021-2.01,0.021c-0.7,0-1.39-0.01-2.07-0.021
					c-1.39-0.02-2.75-0.069-4.08-0.14c-1.4-0.06-2.76-0.16-4.07-0.28c-1.41-0.119-2.77-0.26-4.07-0.439
					c-1.42-0.18-2.78-0.4-4.05-0.641c-1.49-0.27-2.86-0.59-4.1-0.93c-1.6-0.439-2.98-0.92-4.09-1.45
					c-1.93-0.899-3.07-1.92-3.21-2.989l-0.11,0.019c0.15,0.8,0.24,1.3,0.24,1.3c0,3.75,13.23,6.79,29.56,6.79
					c16.33,0,29.56-3.04,29.56-6.79c0,0,0.07-0.39,0.19-1.04h-0.01C76.634,97.538,75.484,98.469,73.654,99.309z"/>
				<path fill="#E49944" d="M74.285,95.028c-0.06,0.03-0.13,0.061-0.2,0.09c-1.1,0.471-2.44,0.91-3.96,1.3
					c-0.06,0.021-0.12,0.04-0.18,0.051c-1.21,0.31-2.53,0.6-3.95,0.85c-0.05,0.01-0.11,0.021-0.17,0.04
					c-1.25,0.22-2.58,0.42-3.97,0.59c-0.05,0.01-0.1,0.021-0.16,0.03c-1.28,0.16-2.61,0.3-3.99,0.41c-0.06,0.01-0.11,0.01-0.16,0.02
					c-1.3,0.101-2.63,0.19-4,0.26c-0.06,0-0.11,0-0.16,0.011c-1.31,0.06-2.65,0.1-4.01,0.12c-0.05,0-0.11,0-0.16,0
					c-0.65,0.02-1.31,0.02-1.98,0.02c-0.69,0-1.37-0.01-2.04-0.02c-0.05,0-0.1,0-0.15,0c-1.37-0.021-2.71-0.06-4.02-0.131
					c-0.05,0-0.11,0-0.16-0.01c-1.37-0.06-2.71-0.149-4-0.26c-0.05,0-0.11-0.01-0.16-0.021c-1.38-0.109-2.71-0.25-3.99-0.409
					c-0.06-0.011-0.11-0.021-0.16-0.021c-1.4-0.18-2.72-0.38-3.97-0.609c-0.06-0.011-0.11-0.021-0.17-0.03
					c-1.43-0.26-2.75-0.54-3.95-0.86c-0.06-0.01-0.12-0.03-0.18-0.04c-1.52-0.399-2.85-0.85-3.96-1.33
					c-0.07-0.02-0.14-0.05-0.21-0.08c-1.86-0.83-3.04-1.739-3.38-2.71l0.17,0.78c0.15,1.1,1.35,2.13,3.38,3.05
					c0.05,0.021,0.1,0.04,0.16,0.07c1.1,0.49,2.45,0.939,3.99,1.34c0.04,0.021,0.09,0.03,0.13,0.04c1.21,0.32,2.54,0.62,3.98,0.88
					c0.04,0,0.08,0.01,0.12,0.021c1.25,0.229,2.58,0.43,3.99,0.609c0.04,0.011,0.08,0.011,0.12,0.021c1.28,0.16,2.62,0.31,4.01,0.42
					c0.04,0.01,0.08,0.01,0.12,0.01c1.3,0.12,2.64,0.21,4.02,0.271c0.04,0.01,0.08,0.01,0.12,0.01c1.31,0.069,2.66,0.109,4.03,0.13
					c0.03,0,0.07,0,0.11,0c0.67,0.01,1.36,0.02,2.05,0.02c0.67,0,1.33-0.01,1.99-0.02c0.04,0,0.08,0,0.12,0
					c1.37-0.021,2.71-0.061,4.02-0.12c0.04-0.01,0.08-0.01,0.12-0.01c1.37-0.07,2.72-0.16,4.02-0.271c0.04,0,0.08-0.01,0.12-0.01
					c1.39-0.12,2.73-0.26,4.01-0.42c0.04-0.01,0.08-0.01,0.12-0.02c1.4-0.181,2.74-0.381,3.99-0.61c0.04-0.01,0.09-0.01,0.13-0.021
					c1.43-0.26,2.76-0.55,3.97-0.869c0.05-0.011,0.09-0.03,0.14-0.04c1.53-0.4,2.87-0.851,3.98-1.33c0.05-0.03,0.11-0.051,0.16-0.08
					c1.9-0.84,3.09-1.79,3.39-2.79c0.04-0.12,0.06-0.24,0.07-0.36c0.04-0.21,0.08-0.43,0.12-0.649
					C77.355,93.309,76.154,94.219,74.285,95.028z"/>
			</g>
		</g>
		<path fill="#F3C66E" d="M53.086,45.251c0.98,1.01,2.97,3.31,4.54,6.62c0.61,1.28,1.16,2.71,1.56,4.28c0,0-0.8,1.289-1.65,4.489
			c-0.95,3.58-1.97,9.53-2.04,18.721v0.01c-2.68-0.16-5.51-0.25-8.43-0.25c-1.63,0-3.24,0.02-4.8,0.08
			c-0.72-1.771-2.04-3.931-4.27-4.2c-0.92-0.11-1.96-0.21-2.92-0.29c0.03-11.22-3.24-18.559-3.24-18.559
			c0.28-1.101,0.65-2.141,1.07-3.12c1.58-3.66,3.9-6.38,5.22-7.74c1.96-2.26,1.88-5,1.88-5c3.18-0.38,3.083-2.567,2.973-3.808
			c0,0,2.595,0.437,6.125-0.104c-0.24,0.62-0.658,2.921,2.163,3.711v0.01C51.267,40.101,50.647,42.231,53.086,45.251z"/>
		<g>
			<path fill="#4C3529" d="M19.698,81.76c-0.143,0.052-0.286,0.104-0.429,0.157c0.276,1.896,0.552,3.792,0.829,5.689
				c0.035,0.244,0.071,0.49,0.107,0.734c0.067,0.023,0.134,0.046,0.201,0.067c-0.031-0.293-0.062-0.586-0.094-0.879
				C20.107,85.606,19.902,83.682,19.698,81.76z"/>
			<path fill="#4C3529" d="M24.429,86.669c-0.004-0.054-0.01-0.107-0.014-0.162c-0.165-1.876-0.33-3.753-0.495-5.63
				c-0.131,0.033-0.263,0.066-0.394,0.099c0.006,0.12,0.012,0.239,0.019,0.358c0.223,1.792,0.447,3.584,0.671,5.377l0.021,0.161
				c0.031,0.247,0.062,0.494,0.093,0.741c0.062,0.002,0.123,0.011,0.184,0.016C24.485,87.309,24.457,86.988,24.429,86.669z"/>
			<path fill="#4C3529" d="M28.165,80.15c-0.119,0.014-0.238,0.028-0.358,0.043l-0.02,0.331c0.184,1.76,0.368,3.52,0.551,5.281
				c0.063-0.062,0.138-0.113,0.205-0.17C28.418,83.806,28.291,81.979,28.165,80.15z"/>
			<path fill="#4C3529" d="M32.428,79.575c-0.107-0.003-0.214-0.007-0.321-0.01c-0.019,0.1-0.038,0.2-0.057,0.3
				c0.139,1.646,0.277,3.291,0.416,4.937c0.079,0.021,0.153,0.048,0.229,0.072C32.606,83.108,32.518,81.341,32.428,79.575z"/>
			<path fill="#4C3529" d="M36.706,79.155c-0.095-0.021-0.189-0.04-0.284-0.061c-0.032,0.089-0.063,0.178-0.095,0.267
				c0.088,1.377,0.177,2.753,0.266,4.13c0.079-0.027,0.167-0.046,0.248-0.071C36.796,81.998,36.752,80.577,36.706,79.155z"/>
			<path fill="#4C3529" d="M41.044,82.834c-0.017-1.315-0.034-2.631-0.05-3.945c-0.082-0.036-0.164-0.072-0.246-0.106
				c-0.045,0.076-0.089,0.152-0.134,0.229c0.058,1.274,0.114,2.549,0.172,3.823c0.046-0.001,0.09-0.005,0.136-0.005
				C40.963,82.83,41.003,82.834,41.044,82.834z"/>
			<path fill="#4C3529" d="M45.289,78.777c-0.07-0.05-0.139-0.101-0.209-0.151c-0.057,0.063-0.114,0.127-0.171,0.191
				c0.04,1.534,0.078,3.069,0.118,4.604c0.08,0.025,0.155,0.053,0.233,0.079C45.269,81.925,45.278,80.351,45.289,78.777z"/>
			<path fill="#4C3529" d="M49.585,78.819c-0.057-0.064-0.114-0.129-0.171-0.193c-0.07,0.05-0.14,0.1-0.209,0.15
				c0.011,1.739,0.021,3.479,0.032,5.219c0.072,0.005,0.145,0.006,0.215,0.013C49.497,82.277,49.541,80.548,49.585,78.819z"/>
			<path fill="#4C3529" d="M53.879,79.015c-0.044-0.078-0.088-0.155-0.133-0.232c-0.083,0.034-0.165,0.069-0.247,0.104
				c-0.017,1.32-0.034,2.64-0.051,3.96c0.086-0.027,0.173-0.055,0.262-0.078C53.767,81.518,53.823,80.266,53.879,79.015z"/>
			<path fill="#4C3529" d="M58.167,79.364c-0.032-0.09-0.063-0.18-0.095-0.27c-0.095,0.02-0.19,0.039-0.284,0.06
				c-0.046,1.44-0.092,2.881-0.138,4.32c0.082,0.059,0.164,0.115,0.24,0.179C57.982,82.224,58.074,80.794,58.167,79.364z"/>
			<path fill="#4C3529" d="M62.03,84.765c0.138-1.632,0.276-3.264,0.413-4.896c-0.019-0.102-0.038-0.203-0.056-0.304
				c-0.107,0.003-0.214,0.006-0.322,0.009c-0.087,1.727-0.174,3.454-0.261,5.181c0.008,0,0.015-0.003,0.023-0.003
				C61.896,84.752,61.962,84.762,62.03,84.765z"/>
			<path fill="#4C3529" d="M66.705,80.527c-0.006-0.11-0.012-0.223-0.019-0.334c-0.119-0.015-0.238-0.029-0.357-0.044
				c-0.115,1.664-0.23,3.327-0.346,4.992c0.083-0.046,0.167-0.089,0.253-0.13C66.393,83.516,66.549,82.022,66.705,80.527z"/>
			<path fill="#4C3529" d="M70.948,81.339c0.007-0.121,0.013-0.241,0.02-0.363c-0.131-0.032-0.262-0.065-0.394-0.099
				c-0.122,1.395-0.245,2.789-0.367,4.184c0.089,0.044,0.174,0.095,0.259,0.145C70.627,83.916,70.787,82.627,70.948,81.339z"/>
			<path fill="#4C3529" d="M75.225,81.917c-0.143-0.053-0.286-0.105-0.429-0.157c-0.197,1.854-0.394,3.707-0.592,5.56
				c0.074,0.047,0.146,0.098,0.211,0.153C74.686,85.621,74.955,83.769,75.225,81.917z"/>
			<path fill="#FFFFFF" d="M74.416,87.474c-0.066-0.056-0.137-0.106-0.211-0.153c-0.323-0.205-0.717-0.33-1.147-0.33
				c-0.32,0-0.618,0.074-0.884,0.192c-0.306-0.821-0.918-1.512-1.708-1.978c-0.085-0.05-0.169-0.101-0.259-0.145
				c-0.602-0.302-1.291-0.479-2.032-0.479c-0.7,0-1.357,0.158-1.938,0.429c-0.087,0.041-0.171,0.084-0.253,0.13
				c-0.545,0.299-1.013,0.701-1.36,1.182c-0.398-0.865-1.396-1.491-2.593-1.558c-0.068-0.003-0.134-0.013-0.203-0.013
				c-0.008,0-0.015,0.003-0.023,0.003c-1.116,0.007-2.076,0.507-2.582,1.238c-0.115-0.919-0.607-1.737-1.332-2.34
				c-0.076-0.063-0.159-0.12-0.24-0.179c-0.742-0.533-1.683-0.863-2.723-0.863c-0.424,0-0.831,0.057-1.217,0.157
				c-0.089,0.023-0.176,0.051-0.262,0.078c-0.918,0.295-1.693,0.85-2.203,1.568c-0.524-0.204-1.133-0.347-1.793-0.408
				c-0.071-0.007-0.143-0.008-0.215-0.013c-0.167-0.011-0.335-0.022-0.509-0.022c-0.659,0-1.278,0.086-1.838,0.229
				c-0.484-0.271-1.036-0.504-1.631-0.702c-0.078-0.026-0.153-0.054-0.233-0.079c-1.177-0.363-2.534-0.575-3.982-0.586
				c-0.042,0-0.081-0.004-0.122-0.004c-0.046,0-0.09,0.004-0.136,0.005c-1.436,0.013-2.776,0.226-3.945,0.585
				c-0.082,0.025-0.169,0.044-0.248,0.071c-1.282,0.425-2.335,1.031-3.035,1.755c-0.265-0.154-0.558-0.275-0.863-0.372
				c-0.076-0.024-0.15-0.052-0.229-0.072c-0.365-0.094-0.751-0.147-1.15-0.147c-1.082,0-2.052,0.379-2.772,0.98
				c-0.067,0.057-0.142,0.107-0.205,0.17c-0.445,0.428-0.771,0.953-0.927,1.535c-0.231-0.425-0.666-0.715-1.171-0.715
				c-0.626,0-1.147,0.442-1.299,1.039c-0.14-0.02-0.285-0.024-0.428-0.035c-0.062-0.005-0.122-0.014-0.184-0.016
				c-0.029-0.001-0.056-0.007-0.084-0.007c-1.557,0-2.897,0.722-3.606,1.778c5.668,1.854,15.455,3.079,26.588,3.079
				c11.946,0,22.347-1.411,27.766-3.496c0.014-0.083,0.028-0.167,0.028-0.253C75.02,88.227,74.787,87.788,74.416,87.474z"/>
			<g>
				<path fill="#4C3529" d="M79.528,85.708c0.002,0.129-0.046,0.47-0.122,0.663c-0.082,0.213-0.182,0.416-0.305,0.589
					c-0.241,0.354-0.533,0.629-0.832,0.872c-0.603,0.48-1.253,0.826-1.909,1.134c-1.317,0.604-2.677,1.028-4.044,1.396
					c-2.738,0.721-5.517,1.183-8.302,1.542c-5.572,0.72-11.183,0.979-16.788,0.985c-5.604,0.026-11.218-0.225-16.796-0.922
					c-2.788-0.354-5.571-0.807-8.315-1.528c-1.368-0.373-2.729-0.802-4.051-1.413c-0.658-0.312-1.311-0.661-1.918-1.148
					c-0.575-0.474-1.251-1.163-1.275-2.201c0.021-1.039,0.703-1.727,1.278-2.197c0.609-0.485,1.262-0.832,1.921-1.142
					c1.322-0.606,2.684-1.03,4.052-1.398c2.744-0.712,5.528-1.15,8.315-1.493c5.58-0.653,11.187-0.894,16.788-0.893
					c5.601-0.018,11.21,0.245,16.781,0.948c2.785,0.35,5.563,0.804,8.302,1.516c1.367,0.363,2.727,0.782,4.045,1.382
					c0.656,0.306,1.307,0.649,1.911,1.128c0.573,0.465,1.237,1.141,1.264,2.15L79.528,85.708z M78.424,85.676
					c0.017-0.432-0.347-0.927-0.833-1.32c-0.485-0.4-1.072-0.73-1.676-1.023c-1.218-0.58-2.532-1.013-3.858-1.389
					c-2.662-0.741-5.404-1.239-8.158-1.633c-5.516-0.751-11.097-1.056-16.673-1.087c-5.576,0.015-11.159,0.341-16.666,1.142
					c-2.75,0.401-5.488,0.914-8.144,1.654c-1.324,0.372-2.636,0.8-3.85,1.374c-0.602,0.289-1.186,0.615-1.667,1.009
					c-0.484,0.388-0.83,0.87-0.819,1.274c-0.014,0.404,0.338,0.885,0.822,1.269c0.482,0.392,1.066,0.716,1.669,1.002
					c1.215,0.569,2.527,0.992,3.852,1.359c2.657,0.73,5.395,1.229,8.145,1.619c5.509,0.757,11.086,1.073,16.658,1.113
					c5.573-0.008,11.151-0.315,16.666-1.051c2.753-0.384,5.496-0.873,8.158-1.606c1.326-0.371,2.64-0.8,3.859-1.376
					c0.604-0.29,1.191-0.618,1.677-1.017c0.488-0.405,0.85-0.851,0.839-1.347L78.424,85.676z"/>
			</g>
			<g>
				<path fill="#4C3529" d="M16.07,85.587l2.048,11.998l0.008,0.048l0,0.035c-0.007,0.464,0.314,0.946,0.752,1.343
					c0.44,0.398,0.976,0.73,1.534,1.022c1.124,0.582,2.345,1.017,3.581,1.391c2.48,0.74,5.046,1.233,7.622,1.62
					c5.16,0.758,10.389,1.071,15.613,1.103c5.224-0.021,10.454-0.324,15.617-1.074c2.578-0.382,5.145-0.87,7.63-1.605
					c1.238-0.373,2.462-0.806,3.592-1.388c0.561-0.292,1.101-0.625,1.547-1.028c0.443-0.399,0.779-0.893,0.773-1.383v-0.032
					l0.007-0.04l2.073-12.012l1.021,0.184L77.181,97.74l0.007-0.072c-0.011,0.852-0.534,1.508-1.045,1.969
					c-0.531,0.472-1.121,0.824-1.72,1.135c-1.205,0.61-2.465,1.045-3.735,1.419c-2.544,0.737-5.14,1.214-7.743,1.584
					c-5.211,0.726-10.468,0.998-15.718,0.989c-5.25,0.019-10.507-0.244-15.722-0.96c-2.605-0.366-5.203-0.838-7.751-1.57
					c-1.272-0.373-2.535-0.806-3.746-1.417c-0.603-0.31-1.196-0.663-1.733-1.139c-0.518-0.465-1.055-1.132-1.067-2.01l0.007,0.082
					L14.89,85.804L16.07,85.587z"/>
			</g>
			<g>
				<path fill="#4C3529" d="M17.9,96.274c0.068,0.556,0.432,1.026,0.888,1.441c0.457,0.411,0.999,0.753,1.562,1.057
					c1.133,0.604,2.359,1.061,3.601,1.455c2.496,0.767,5.076,1.275,7.667,1.677c5.189,0.784,10.45,1.106,15.704,1.132
					c5.255-0.021,10.515-0.337,15.707-1.119c2.592-0.399,5.173-0.908,7.671-1.678c1.243-0.396,2.47-0.854,3.604-1.465
					c0.563-0.307,1.105-0.655,1.56-1.075c0.452-0.415,0.813-0.928,0.854-1.467l0.646,0.055c-0.082,0.796-0.577,1.408-1.086,1.865
					c-0.522,0.464-1.105,0.82-1.701,1.132c-1.197,0.618-2.456,1.061-3.726,1.441c-2.541,0.763-5.141,1.265-7.752,1.652
					c-5.225,0.76-10.505,1.049-15.775,1.044c-5.272,0.018-10.551-0.261-15.78-1.007c-2.612-0.381-5.215-0.875-7.761-1.629
					c-1.272-0.375-2.535-0.812-3.74-1.423c-0.6-0.308-1.189-0.658-1.722-1.116c-0.519-0.444-1.039-1.068-1.157-1.838L17.9,96.274z"
					/>
			</g>
			<g>
				<path fill="#4C3529" d="M20.781,99.306c0.013,0.003,0.025,0.007,0.037,0.011c-0.17-1.552-0.34-3.104-0.51-4.658
					c-0.204-1.865-0.408-3.729-0.612-5.596c-0.142-0.019-0.284-0.037-0.427-0.056c0.275,1.876,0.55,3.75,0.825,5.624
					C20.323,96.19,20.553,97.748,20.781,99.306z"/>
				<path fill="#4C3529" d="M24.201,95.54c0.007,0.053,0.014,0.105,0.021,0.157c0.214,1.662,0.428,3.323,0.643,4.983
					c0.005,0.003,0.012,0.005,0.017,0.007c-0.156-1.702-0.312-3.403-0.468-5.104c-0.005-0.051-0.01-0.104-0.015-0.154
					c-0.165-1.791-0.329-3.583-0.494-5.375l-0.393-0.064c0.006,0.112,0.013,0.225,0.018,0.338
					C23.754,92.066,23.978,93.803,24.201,95.54z"/>
				<path fill="#4C3529" d="M28.353,96.451c0.193,1.764,0.388,3.527,0.582,5.29c0.001,0.001,0.002,0.001,0.004,0.001
					c-0.131-1.795-0.262-3.592-0.393-5.389c-0.004-0.049-0.007-0.1-0.012-0.149c-0.13-1.774-0.26-3.547-0.39-5.321
					c-0.119-0.023-0.238-0.049-0.357-0.074l-0.02,0.298c0.189,1.73,0.379,3.461,0.568,5.19
					C28.341,96.348,28.347,96.401,28.353,96.451z"/>
				<path fill="#4C3529" d="M32.506,97.052c0.161,1.777,0.321,3.556,0.481,5.333c0,0,0.001,0,0.002,0
					c-0.096-1.804-0.193-3.608-0.289-5.412c-0.003-0.049-0.006-0.097-0.009-0.146c-0.095-1.758-0.19-3.516-0.285-5.274
					c-0.107-0.028-0.214-0.059-0.321-0.088c-0.019,0.087-0.037,0.175-0.057,0.262c0.155,1.726,0.309,3.449,0.463,5.174
					C32.497,96.95,32.501,97,32.506,97.052z"/>
				<path fill="#4C3529" d="M36.404,91.956c0.094,0.034,0.189,0.069,0.284,0.104c0.06,1.744,0.119,3.49,0.179,5.235
					c0.002,0.048,0.004,0.096,0.006,0.144c0.06,1.806,0.12,3.61,0.18,5.416c-0.125-1.785-0.25-3.57-0.375-5.355
					c-0.004-0.051-0.008-0.1-0.012-0.15c-0.119-1.722-0.238-3.443-0.357-5.166C36.34,92.108,36.372,92.031,36.404,91.956z"/>
				<path fill="#4C3529" d="M40.735,92.283c0.083,0.041,0.164,0.083,0.247,0.124c0.024,1.734,0.048,3.47,0.072,5.204
					c0,0.047,0.002,0.095,0.003,0.142c0.022,1.797,0.045,3.595,0.068,5.393c-0.088-1.784-0.177-3.567-0.265-5.35
					c-0.003-0.051-0.006-0.1-0.009-0.148c-0.083-1.723-0.167-3.444-0.25-5.167C40.647,92.415,40.691,92.35,40.735,92.283z"/>
				<path fill="#4C3529" d="M45.075,92.446c0.07,0.05,0.14,0.099,0.209,0.147c-0.012,1.727-0.023,3.453-0.036,5.18
					c0,0.047,0,0.094,0,0.141c-0.015,1.792-0.029,3.584-0.043,5.375c-0.052-1.783-0.103-3.566-0.154-5.352
					c-0.001-0.049-0.003-0.098-0.005-0.146c-0.047-1.726-0.096-3.45-0.144-5.175C44.961,92.56,45.018,92.503,45.075,92.446z"/>
				<path fill="#4C3529" d="M49.419,92.446c0.057,0.058,0.114,0.115,0.171,0.172c-0.048,1.722-0.096,3.444-0.144,5.167
					c-0.001,0.045-0.002,0.091-0.002,0.137c-0.052,1.789-0.104,3.578-0.156,5.367c-0.014-1.788-0.028-3.574-0.042-5.362
					c-0.001-0.049-0.002-0.098-0.003-0.146c-0.012-1.729-0.024-3.459-0.035-5.188C49.278,92.543,49.349,92.495,49.419,92.446z"/>
				<path fill="#4C3529" d="M53.758,92.283c0.044,0.066,0.088,0.134,0.133,0.2c-0.083,1.719-0.167,3.439-0.251,5.157
					c-0.001,0.046-0.003,0.091-0.005,0.137c-0.089,1.789-0.179,3.578-0.268,5.368c0.023-1.795,0.047-3.588,0.07-5.38
					c0-0.05,0-0.098,0-0.146c0.024-1.737,0.049-3.476,0.073-5.213C53.593,92.365,53.676,92.324,53.758,92.283z"/>
				<path fill="#4C3529" d="M58.09,91.956c0.031,0.076,0.063,0.153,0.095,0.23c-0.119,1.72-0.238,3.438-0.358,5.159
					c-0.002,0.044-0.005,0.089-0.008,0.134c-0.126,1.792-0.252,3.584-0.378,5.376c0.061-1.803,0.121-3.604,0.181-5.407
					c0.001-0.048,0.002-0.097,0.003-0.145c0.06-1.749,0.12-3.496,0.18-5.245C57.9,92.026,57.995,91.99,58.09,91.956z"/>
				<path fill="#4C3529" d="M62.408,91.464c0.019,0.088,0.038,0.177,0.057,0.265c-0.154,1.723-0.309,3.445-0.463,5.168
					c-0.003,0.044-0.007,0.088-0.011,0.132c-0.162,1.798-0.325,3.596-0.488,5.393c0.097-1.813,0.194-3.627,0.292-5.44
					c0.003-0.049,0.004-0.097,0.007-0.145c0.095-1.761,0.19-3.521,0.286-5.284C62.194,91.523,62.301,91.493,62.408,91.464z"/>
				<path fill="#4C3529" d="M66.707,90.809c0.006,0.101,0.012,0.201,0.019,0.302c-0.189,1.728-0.378,3.456-0.567,5.184
					c-0.004,0.044-0.009,0.087-0.014,0.132c-0.199,1.807-0.397,3.611-0.597,5.416c0.133-1.827,0.267-3.655,0.4-5.482
					c0.003-0.049,0.006-0.096,0.009-0.145c0.13-1.776,0.261-3.555,0.392-5.332C66.469,90.859,66.588,90.834,66.707,90.809z"/>
				<path fill="#4C3529" d="M70.588,90.054c-0.165,1.796-0.33,3.592-0.495,5.389c-0.004,0.047-0.008,0.095-0.013,0.144
					c-0.152,1.66-0.304,3.319-0.457,4.979c0.007,0,0.014-0.002,0.021-0.002c0.211-1.631,0.421-3.262,0.632-4.895
					c0.006-0.044,0.011-0.086,0.017-0.13c0.223-1.736,0.446-3.472,0.668-5.209c0.007-0.112,0.013-0.227,0.02-0.341L70.588,90.054z"
					/>
				<path fill="#4C3529" d="M73.68,99.522c0.24-1.63,0.48-3.259,0.72-4.891c0.275-1.874,0.55-3.749,0.825-5.624
					c-0.143,0.019-0.284,0.037-0.427,0.056c-0.204,1.866-0.408,3.73-0.612,5.596c-0.178,1.627-0.357,3.254-0.535,4.881
					C73.661,99.534,73.67,99.527,73.68,99.522z"/>
			</g>
			<g>
				<path fill="#4C3529" d="M74.641,88.564c0.079-0.276,0.04-0.495-0.089-0.757c-0.127-0.244-0.348-0.442-0.604-0.572
					c-0.256-0.132-0.551-0.19-0.838-0.173c-0.306,0.02-0.551,0.104-0.786,0.272L72.091,87.5l-0.269-0.377l0,0
					c-0.194-0.653-0.633-1.244-1.208-1.663c-0.574-0.421-1.273-0.677-1.989-0.749c-0.712-0.062-1.458,0.037-2.109,0.325
					c-0.658,0.28-1.22,0.756-1.592,1.334l-0.304,0.474l-0.337-0.537h0c-0.112-0.432-0.447-0.816-0.86-1.079
					c-0.413-0.271-0.915-0.405-1.416-0.437c-0.514-0.024-1.008,0.064-1.459,0.284c-0.443,0.215-0.827,0.552-1.019,0.965h-0.001
					l-0.668,0.681l-0.01-0.849c-0.009-0.759-0.382-1.515-0.96-2.071c-0.569-0.577-1.357-0.906-2.154-1.068
					c-0.81-0.129-1.656-0.051-2.41,0.248c-0.748,0.311-1.407,0.838-1.778,1.518h0l-0.234,0.236l-0.203-0.105
					c-0.618-0.321-1.332-0.458-2.04-0.504c-0.345-0.007-0.727,0-1.068,0.052c-0.344,0.046-0.694,0.136-1.023,0.256l0,0l-0.184,0.024
					l-0.088-0.059c-0.94-0.625-2.05-1.014-3.18-1.256c-1.136-0.23-2.305-0.309-3.469-0.245c-1.156,0.079-2.316,0.273-3.403,0.665
					c-1.077,0.392-2.124,0.962-2.833,1.795l-0.158,0.186l-0.294-0.124h-0.001c-0.468-0.31-1.015-0.527-1.591-0.603
					c-0.58-0.094-1.174-0.035-1.733,0.111c-0.564,0.153-1.086,0.451-1.512,0.84c-0.42,0.398-0.719,0.912-0.828,1.457l-0.125,0.627
					l-0.438-0.56l0-0.001c-0.153-0.402-0.606-0.659-1.05-0.589c-0.422,0.055-0.792,0.445-0.79,0.855l0.001,0.247l-0.417,0.029h0
					c-1.454-0.46-3.248,0.222-3.94,1.525l-0.619-0.424c0.591-0.687,1.329-1.171,2.134-1.46c0.804-0.295,1.66-0.392,2.53-0.384h0
					l-0.415,0.276c0.264-0.628,0.812-1.089,1.462-1.157c0.625-0.084,1.276,0.243,1.638,0.782l0.001,0.002l-0.562,0.067
					c0.227-0.643,0.62-1.201,1.113-1.629c0.482-0.444,1.074-0.74,1.685-0.947c1.253-0.383,2.603-0.299,3.829,0.281l0,0.001
					l-0.453,0.062c0.971-0.826,2.1-1.306,3.242-1.649c1.152-0.32,2.325-0.532,3.514-0.573c1.18-0.074,2.372-0.021,3.549,0.159
					c1.179,0.173,2.345,0.479,3.473,0.974l-0.271-0.035l0,0c0.39-0.043,0.765-0.098,1.156-0.113c0.392-0.029,0.75-0.024,1.141-0.012
					c0.764,0.027,1.52,0.146,2.283,0.348l-0.437,0.131l0-0.001c0.628-0.692,1.412-1.18,2.253-1.442
					c0.841-0.279,1.734-0.32,2.593-0.187c0.863,0.135,1.691,0.497,2.38,1.062c0.684,0.563,1.216,1.358,1.425,2.286l-0.678-0.169
					l0-0.001c0.857-0.896,2.009-1.222,3.108-1.169c1.093,0.057,2.236,0.492,2.937,1.55l0.001,0.001l-0.641-0.063
					c1.086-1.283,2.767-1.876,4.352-1.698c0.797,0.064,1.576,0.343,2.252,0.786c0.673,0.444,1.252,1.072,1.599,1.845l0,0
					l-0.501-0.211c0.357-0.09,0.76-0.135,1.099-0.1c0.356,0.039,0.709,0.121,1.026,0.289c0.322,0.156,0.608,0.391,0.836,0.688
					c0.222,0.279,0.373,0.712,0.404,1.081L74.641,88.564z"/>
			</g>
			<g>
				<path fill="#E49944" d="M77.623,93.072c-0.331,3.862-13.789,6.97-30.342,6.97c-16.436,0-29.819-3.063-30.333-6.888l-0.256-1.143
					c0.518,3.824,14.014,6.889,30.589,6.889c16.693,0,30.264-3.107,30.598-6.971"/>
				<path fill="#4C3529" d="M77.995,93.124c-0.081,0.796-0.612,1.448-1.137,1.903c-0.542,0.47-1.141,0.831-1.752,1.145
					c-1.227,0.623-2.513,1.069-3.809,1.453c-2.597,0.758-5.249,1.249-7.91,1.629c-5.324,0.757-10.698,1.05-16.064,1.047
					c-5.367-0.016-10.739-0.325-16.056-1.1c-2.656-0.396-5.302-0.903-7.886-1.67c-1.289-0.389-2.567-0.84-3.779-1.456
					c-0.604-0.311-1.193-0.665-1.722-1.116c-0.516-0.446-1.015-1.025-1.124-1.778l0.003,0.017l-0.255-1.144l0.38-0.067
					c0.086,0.601,0.52,1.123,1.012,1.537c0.5,0.419,1.073,0.76,1.666,1.058c1.191,0.595,2.463,1.036,3.749,1.415
					c2.579,0.749,5.232,1.244,7.895,1.629c5.333,0.753,10.729,1.044,16.116,1.042c5.388-0.016,10.782-0.32,16.11-1.095
					c2.659-0.401,5.307-0.914,7.874-1.682c1.279-0.389,2.544-0.839,3.718-1.442c0.584-0.302,1.146-0.648,1.624-1.066
					c0.473-0.414,0.863-0.931,0.908-1.48l0.646,0.057c-0.084,0.821-0.611,1.438-1.138,1.898c-0.544,0.466-1.145,0.825-1.76,1.138
					c-1.234,0.62-2.528,1.066-3.833,1.451c-2.615,0.757-5.286,1.249-7.965,1.631c-5.362,0.759-10.776,1.056-16.182,1.057
					c-5.408-0.011-10.819-0.316-16.178-1.086c-2.677-0.394-5.343-0.897-7.949-1.661c-1.3-0.387-2.589-0.836-3.813-1.45
					c-0.61-0.31-1.206-0.663-1.741-1.113c-0.522-0.446-1.03-1.025-1.142-1.784l0.38-0.068l0.258,1.142l0.001,0.008l0.001,0.01
					c0.085,0.596,0.511,1.115,0.997,1.529c0.493,0.418,1.06,0.758,1.647,1.056c1.179,0.595,2.441,1.035,3.715,1.413
					c2.557,0.748,5.189,1.242,7.832,1.625c5.291,0.75,10.645,1.037,15.99,1.031c5.345-0.021,10.697-0.33,15.979-1.109
					c2.637-0.404,5.262-0.919,7.803-1.688c1.266-0.389,2.517-0.841,3.674-1.443c0.576-0.302,1.128-0.646,1.595-1.061
					c0.464-0.419,0.832-0.896,0.878-1.461L77.995,93.124z"/>
			</g>
		</g>
		<path fill="#F3C66E" d="M43.207,84.881c3.31-0.1,5.99,4.37,6.15,4.65c-2.54-0.74-4.66,0.199-5.79,0.899l-0.04-0.069
			c-0.39-0.421-0.91-1.101-1.52-2.181c-0.59-1.06-0.06-1.97-0.06-1.97l-1.56-2.46l-0.71-1.11l0.06-0.08
			c0.51,0.341,1.13,0.46,1.87,0.101L43.207,84.881z"/>
		<path fill="#E49944" d="M61.707,48.001c-2.17,1.55-2.98,3.45-2.98,3.45l-1.1,0.42c-1.57-3.311-3.56-5.61-4.54-6.62
			c-2.44-3.021-1.82-5.15-1.82-5.15v-0.01c0.2,0.061,0.42,0.11,0.65,0.16c3.22,0.64,6.34,0.29,8.68,4.71c0.44,0.82,0.85,1.81,1.22,3
			L61.707,48.001z"/>
		<path fill="#E49944" d="M80.307,81.381c0.81,1.29-0.24,4.25-1.65,5.51l-0.1-0.12c0.17-0.279,0.886-1.064,0.886-1.364
			c0-1.301-1.933-2.84-5.3-3.795c0.06,0.28,0.084,1.319,0.184,1.649c0.14,0.44,0.09,0.811,0.04,1.12c-0.34,1.95-1.81,0.93-1.81,0.93
			c-0.51-0.18-0.78-0.71-0.99-1.029c-0.56-0.83-0.45-2.4-0.45-2.4c-0.13-0.19-0.24-0.37-0.34-0.55c-1.34-2.23-1.05-3.521-0.35-4.23
			l-7.51-5.58c0,0-0.55,0.511-0.82,1.271c0,0-0.69-0.87-0.72-2c0,0-0.53,0.13-1.11,0.5c-0.47-1.351-0.42-2.811-0.32-3.37l-2.41-7.28
			c0.85-3.2,1.65-4.489,1.65-4.489c-0.4-1.57-0.95-3-1.56-4.28l1.1-0.42c0,0,0.81-1.9,2.98-3.45l0.11-0.04
			c0.28,0.85,0.53,1.81,0.77,2.88c1.63,7.39,3.16,14.21,3.16,14.21s1.61,1.28,2.42,2.62c3.7,6.11,6.73,8.57,6.73,8.57
			C75.387,77.161,78.767,78.911,80.307,81.381z"/>
		<path fill="#E49944" d="M42.267,79.201c0.53,1.279,0.73,2.35,0.73,2.35c-0.51,0.56-0.97,0.91-1.39,1.11
			c-0.74,0.359-1.36,0.24-1.87-0.101l-0.06,0.08l0.71,1.11c-1.54,2.11-5.68,2.75-5.68,2.75s-2.54-0.66-4.29-2.83
			c-0.9-1.11-1.79-6.21-1.79-6.21c-8.93-7.15-12.08-15.9-12.08-15.9c-0.82,0.431-1.35,0.811-1.35,0.811
			c-0.47-1.91,0.28-3.36,0.28-3.36c-0.95,0.391-1.66,1.22-1.66,1.22c0.26-3.13,8.46-9.329,11.44-11.72
			c8.24-6.57,9.71-7.62,14.75-8.22c0,0,0.08,2.74-1.88,5c-1.32,1.36-3.64,4.08-5.22,7.74h-0.01c0,0-4.48,3.17-10.99,6.3
			c1.13,1.09,2.68,3.189,3.62,6.99c1.45,5.909,5.57,7.79,6.29,8.149c0,0,1.5,0.09,3.26,0.24c0.96,0.08,2,0.18,2.92,0.29
			C40.227,75.271,41.546,77.431,42.267,79.201z"/>
		<path fill="#D24B43" d="M60.084,12.359c0,0-0.669-12.618-14.667-12.354c-13.25,0.25-13.562,11.938-13.562,11.938L60.084,12.359z"
			/>
		<path fill="#F3C66E" d="M55.824,10.781c0,0,1.784,0.375,3.417,1.312c1.632,0.938,5.835,1.781,5.896,3.375
			c0.061,1.594,0.635,2.187-1.936,3.469c0,0,5.473,2.125,5.503,6.156c0,0-1.572-0.5-3.114-0.312l1.572,1.5
			c0,0-5.291,8.531-19.893,10.5c0,0-14.16,1.365-23.633-10.552l1.531-1.75l-2.943,0.5c0,0,0.081-2.834,2.742-4.375
			c2.66-1.541,2.66-1.541,2.66-1.541s-2.499-1.125-2.056-3.042c0.443-1.917,3.466-2.751,5.361-3.792
			c1.894-1.041,4.192-1.8,5.603-1.25c1.41,0.55,3.427-0.625,3.427-0.625s8.065-2,11.167,0.125L55.824,10.781z"/>
		<g>
			<path fill="#4C3529" d="M50.972,10.146c-1.68-0.336-3.406-0.458-5.112-0.412c-1.706,0.052-3.405,0.3-5.011,0.81L40.64,9.822
				c1.715-0.441,3.477-0.597,5.219-0.555c1.743,0.05,3.474,0.268,5.158,0.702L50.972,10.146z"/>
		</g>
		<g>
			<g>
				<path fill="#E49944" d="M50.321,11.875c-2.72,1.953-2.978,7.513-3.015,11.018c0,0,0.922-0.38,2.397-0.684
					c0.021-0.216,0.263-2.875,0.455-3.801c0.062-0.293,0.13-0.575,0.209-0.837c1.713-5.935,6.854-4.013,7.608-0.873
					c0.012,0.055,0.022,0.105,0.034,0.158c0.505,2.213,0.336,3.998,0.333,4.027c1.457-0.681,2.501-1.607,3.503-2.391
					c0,0-1.652-1.888-4.39-5.212C55.478,10.879,52.687,10.176,50.321,11.875z"/>
			</g>
		</g>
		<path fill="#4C3529" d="M64.813,17.425c0.006-0.01,0.011-0.023,0.015-0.035c0,0.003-0.001,0.006-0.002,0.006
			C64.821,17.407,64.817,17.416,64.813,17.425z"/>
		<path fill="#4C3529" d="M33.495,33.61c-1.869-0.855-3.61-2.001-5.19-3.336c-0.792-0.662-1.534-1.389-2.228-2.152
			c-0.349-0.381-0.681-0.775-0.99-1.188c-0.196-0.253-0.392-0.523-0.569-0.786c0.182-0.191,0.38-0.375,0.588-0.55
			c0.18-0.151,0.367-0.299,0.56-0.442c0.192-0.141,0.392-0.28,0.587-0.406l1.109-0.71c0,0-1.223,0.054-1.225,0.054
			c-0.702-0.027-1.374,0.053-2.041,0.153c-0.556,0.087-1.103,0.198-1.652,0.326c0.273-1.095,0.952-2.052,1.774-2.817
			c0.449-0.422,0.946-0.799,1.464-1.139c0.259-0.168,0.526-0.329,0.796-0.481l0.833-0.455c1.132-0.641,2.17-1.424,3.148-2.273
			c0.979-0.854,1.894-1.759,2.765-2.757l1.149-1.326c0,0-1.679,0.519-1.681,0.519c-0.694,0.279-1.427,0.474-2.184,0.631
			c-0.756,0.165-1.546,0.264-2.327,0.564c-0.771,0.297-1.519,0.96-1.585,1.884c-0.005,0.466,0.276,0.851,0.583,1.101
			c0.21,0.177,0.442,0.312,0.683,0.425c-0.04,0.029-0.08,0.062-0.122,0.092c-0.357-0.068-0.698-0.191-0.984-0.396
			c-0.206-0.146-0.383-0.323-0.524-0.532c-0.136-0.192-0.244-0.432-0.296-0.639c-0.056-0.542,0.043-1.066,0.317-1.482
			c0.266-0.426,0.688-0.751,1.152-1.015c0.932-0.54,2.015-0.868,3.076-1.321c0.536-0.229,1.07-0.468,1.602-0.786l0.354-0.22
			c0.113-0.068,0.228-0.131,0.344-0.193c0.232-0.121,0.469-0.229,0.713-0.32c0.852-0.331,1.797-0.462,2.74-0.402v-0.556
			c-0.596-0.209-1.229-0.287-1.862-0.239c-0.001-0.003-0.002-0.007-0.003-0.01c-0.071,0.005-0.143,0.014-0.215,0.019
			c-0.288,0.017-0.572,0.081-0.858,0.121c-0.002,0.013-0.002,0.025-0.003,0.038c-0.174,0.058-0.344,0.125-0.513,0.199
			c-0.076,0.03-0.152,0.068-0.228,0.1c-0.009,0.004-0.018,0.01-0.026,0.014c-0.068,0.031-0.136,0.06-0.202,0.092
			c-0.137,0.071-0.271,0.146-0.402,0.226l-0.195,0.123l-0.174,0.118c-0.085,0.057-0.176,0.108-0.264,0.16
			c-0.594,0.33-1.273,0.614-1.939,0.893c-2.13,0.891-4.545,1.898-4.125,4.636c0.006,0.037,0.015,0.073,0.026,0.11
			c0.021,0.058,0.409,1.141,1.584,1.674c-0.073,0.042-0.146,0.082-0.222,0.125c-2.927,1.605-4.588,3.534-4.934,5.735
			c-0.03,0.198,0.036,0.399,0.178,0.538c0.111,0.109,0.257,0.169,0.406,0.169c0.041,0,0.083-0.006,0.125-0.014
			c0.009-0.002,0.536-0.118,1.243-0.229c-0.139,0.095-0.278,0.194-0.414,0.305l-0.42,0.45l0.325,0.43
			c0.363,0.474,0.709,0.868,1.081,1.275c0.179,0.191,0.359,0.377,0.542,0.561c0.668,0.744,1.546,1.681,2.72,2.609
			c7.741,6.126,15.067,5.767,17.849,5.916c-2.058-0.409-4.033-0.682-6.017-1.201C37.318,35.102,35.363,34.475,33.495,33.61z"/>
		<path fill="#4C3529" d="M51.669,35.621c-1.983,0.52-3.955,0.797-6.013,1.206c2.25,0.005,10.104,0.205,17.845-5.921
			c1.174-0.929,2.052-1.865,2.719-2.609c0.184-0.184,0.364-0.369,0.543-0.561c0.372-0.407,0.718-0.802,1.081-1.275l0.325-0.43
			l-0.42-0.45c-0.136-0.11-0.275-0.21-0.414-0.305c0.707,0.11,1.234,0.226,1.243,0.229c0.042,0.008,0.083,0.014,0.125,0.014
			c0.149,0,0.295-0.059,0.406-0.169c0.142-0.139,0.208-0.34,0.178-0.538c-0.346-2.201-2.007-4.13-4.934-5.735
			c-0.076-0.043-0.148-0.083-0.222-0.125c1.175-0.533,1.563-1.616,1.584-1.674c0.012-0.037,0.021-0.073,0.026-0.11
			c0.419-2.737-1.995-3.745-4.125-4.636c-0.666-0.278-1.346-0.562-1.939-0.892c-0.088-0.053-0.179-0.104-0.264-0.16L59.24,11.36
			l-0.195-0.123c-0.132-0.079-0.266-0.154-0.402-0.226c-0.066-0.032-0.134-0.06-0.202-0.092c-0.01-0.004-0.017-0.01-0.026-0.014
			c-0.075-0.031-0.151-0.069-0.228-0.1c-1.849-0.65-2.858-0.337-3.454-0.128v0.556c0.943-0.06,1.889,0.071,2.74,0.402
			c0.244,0.092,0.48,0.199,0.713,0.32c0.116,0.062,0.23,0.125,0.344,0.193l0.354,0.22c0.531,0.318,1.065,0.558,1.602,0.786
			c1.061,0.453,2.144,0.781,3.076,1.321c0.465,0.264,0.886,0.589,1.152,1.015c0.274,0.416,0.373,0.94,0.317,1.482
			c-0.052,0.207-0.16,0.446-0.296,0.639c-0.142,0.209-0.318,0.387-0.524,0.532c-0.286,0.204-0.628,0.327-0.985,0.396
			c-0.041-0.03-0.081-0.062-0.121-0.092c0.24-0.113,0.473-0.248,0.683-0.425c0.307-0.251,0.588-0.636,0.583-1.102
			c-0.067-0.924-0.814-1.587-1.585-1.884c-0.781-0.301-1.571-0.399-2.327-0.564c-0.757-0.157-3.114-1.335-3.114-1.335
			s2.185,3.414,3.163,4.269c0.979,0.85,2.017,1.633,3.148,2.273l0.833,0.455c0.27,0.151,0.537,0.312,0.796,0.48
			c0.518,0.34,1.015,0.717,1.464,1.139c0.822,0.766,1.501,1.723,1.774,2.817c-0.549-0.128-1.097-0.239-1.652-0.326
			c-0.667-0.101-1.339-0.181-2.041-0.153c-0.002,0-1.225-0.054-1.225-0.054l1.109,0.71c0.194,0.126,0.395,0.266,0.587,0.406
			c0.192,0.144,0.38,0.291,0.56,0.442c0.208,0.175,0.406,0.358,0.588,0.55c-0.178,0.264-0.373,0.533-0.569,0.786
			c-0.31,0.413-0.642,0.808-0.99,1.188c-0.693,0.764-1.436,1.49-2.228,2.152c-1.58,1.335-3.321,2.481-5.19,3.336
			C55.601,34.476,53.646,35.103,51.669,35.621z"/>
		<path fill="#4C3529" d="M26.919,17.425c-0.006-0.01-0.011-0.023-0.016-0.035c0,0.003,0.001,0.006,0.002,0.006
			C26.912,17.407,26.916,17.416,26.919,17.425z"/>
		<g>
			<g>
				<path fill="#4C3529" d="M46.093,33.849c0.818,0.033,1.643-0.032,2.442-0.214c0.793-0.191,1.579-0.466,2.252-0.924
					c-0.366,0.172-0.746,0.305-1.13,0.415c-0.387,0.117-0.777,0.206-1.171,0.267c-0.786,0.134-1.586,0.181-2.382,0.155
					c-0.798-0.027-1.591-0.14-2.375-0.303c-0.783-0.172-1.555-0.404-2.317-0.678c0.718,0.374,1.48,0.675,2.265,0.893
					C44.46,33.683,45.275,33.812,46.093,33.849z"/>
			</g>
		</g>
		<g>
			<path fill="#4C3529" d="M52.667,44.443c1.687,1.481,3.125,3.247,4.351,5.15c1.222,1.907,2.197,3.992,2.857,6.192l0,0l0.054,0.198
				l-0.117,0.222c-0.85,1.601-1.407,3.55-1.864,5.419c-0.451,1.896-0.781,3.826-1.035,5.768c-0.505,3.886-0.71,7.814-0.75,11.743
				l-1-0.008c0.025-3.959,0.217-7.926,0.714-11.869c0.251-1.971,0.579-3.935,1.034-5.879c0.482-1.953,0.979-3.849,1.975-5.744
				l-0.063,0.42h0c-0.458-2.141-1.231-4.229-2.273-6.189C55.502,47.912,54.226,46.053,52.667,44.443z"/>
		</g>
		<g>
			<g>
				<path fill="#FFFFFF" d="M50.087,18.814c-0.176,1.129-0.366,3.206-0.384,3.396c1.04-0.215,2.355-0.392,3.814-0.37
					c2.041,0.028,3.577-0.369,4.825-0.955c0.002-0.019,0.075-0.854-0.031-2.07H50.087z"/>
			</g>
		</g>
		<g>
			<defs>
				<path id="SVGID_5_" d="M50.087,18.814c-0.176,1.129-0.366,3.206-0.384,3.396c1.04-0.215,2.355-0.392,3.814-0.37
					c2.041,0.028,3.577-0.369,4.825-0.955c0.002-0.019,0.075-0.854-0.031-2.07H50.087z"/>
			</defs>
			<clipPath id="SVGID_6_">
				<use xlink:href="#SVGID_5_"  overflow="visible"/>
			</clipPath>
			<ellipse clip-path="url(#SVGID_6_)" fill="#4C3529" cx="54.088" cy="21.157" rx="1.592" ry="1.967"/>
		</g>
		<g>
			<g>
				<path fill="#FFFFFF" d="M54.261,16.505c0,0-0.54,1.754,0.643,2.035c1.178,0.283,1.464-1.422,1.464-1.422
					s-0.275,0.874-0.885,0.684c-0.688-0.219-0.109-1.255-0.109-1.255L54.261,16.505z"/>
			</g>
		</g>
		<path fill="#F3C66E" d="M50.275,19.28c0,0-0.444-5.473,4.351-5.689c0,0,3.799,0.847,3.732,5.358
			C58.358,18.949,53.556,19.969,50.275,19.28z"/>
		<g>
			<g>
				<path fill="#4C3529" d="M47.506,22.78l0.017,0.04c1.108-0.255,2.215-0.401,3.341-0.541l3.379-0.39
					c0.565-0.064,1.132-0.13,1.693-0.222c0.563-0.094,1.131-0.197,1.68-0.376c0.319-0.1,0.627-0.232,0.925-0.385l0.036,0.005
					c-0.001-0.007,0.001-0.015,0.001-0.023c0.203-0.104,0.405-0.221,0.6-0.346c0.486-0.317,0.945-0.682,1.326-1.124
					c-0.617,0.446-1.267,0.822-1.932,1.162c-0.013-0.76-0.076-1.491-0.18-2.226c-0.062-0.417-0.137-0.835-0.225-1.246
					c-0.014-0.056-0.03-0.168-0.027-0.166c0,0-0.213-0.756-0.367-1.052c-0.388-0.768-1-1.402-1.731-1.816
					c-0.729-0.417-1.599-0.623-2.446-0.469c-0.847,0.141-1.626,0.634-2.19,1.29c-0.572,0.66-0.979,1.446-1.274,2.26
					c-0.007,0.013-0.011,0.031-0.016,0.045c-0.005,0.006-0.01,0.009-0.016,0.011l0.01,0.011c-0.139,0.387-0.258,0.773-0.357,1.175
					c-0.1,0.436-0.173,0.847-0.251,1.267c-0.148,0.835-0.271,1.667-0.408,2.504l0.146,0.015
					C48.642,22.311,48.055,22.495,47.506,22.78z M50.499,18.558c0.033-0.213,0.076-0.431,0.121-0.646
					c0.013-0.01,0.031-0.021,0.045-0.031c0.067-0.379,0.167-0.722,0.304-1.086c-0.012,0.005-0.025,0.01-0.037,0.015
					c0.203-0.571,0.473-1.118,0.837-1.587c0.476-0.619,1.133-1.106,1.891-1.268c1.52-0.343,3.214,0.579,3.925,2.036
					c0.089,0.184,0.162,0.371,0.22,0.562c0.019,0.07,0.114,0.516,0.132,0.606c0.078,0.409,0.139,0.818,0.174,1.233
					c0.071,0.808,0.075,1.642-0.033,2.428c-0.179,0.084-0.356,0.17-0.539,0.247c-0.516,0.222-1.055,0.405-1.615,0.489
					c-0.562,0.076-1.125,0.127-1.69,0.166c-1.133,0.073-2.27,0.097-3.405,0.215c-0.179,0.021-0.361,0.041-0.543,0.066
					c0.018-0.743,0.056-1.487,0.103-2.224C50.41,19.368,50.444,18.946,50.499,18.558z"/>
			</g>
		</g>
		<g>
			<path fill="#4C3529" d="M58.888,18.822c-2.832,0.822-5.789,1.241-8.787,1.273l0.055-0.998
				C53.03,19.393,55.989,19.319,58.888,18.822z"/>
		</g>
		<path fill="#4C3529" d="M51.025,9.291c0.971-0.413,2.151-0.444,3.159-0.162c1.584,0.444,2.707,1.781,3.166,3.33
			c0.043,0.147,0.077,0.314,0.063,0.466c-0.024,0.338-0.569-0.209-0.689-0.305c-0.276-0.224-0.57-0.426-0.879-0.602
			c-0.812-0.47-1.717-0.765-2.648-0.87c-0.588-0.066-1.182-0.058-1.768,0.013c-1.531,0.184-1.587-0.227-1.58-0.233
			C49.867,10.911,49.386,9.989,51.025,9.291z"/>
		<g>
			<g>
				<path fill="#E49944" d="M41.218,11.876c2.72,1.953,2.978,7.513,3.015,11.017c0,0-0.921-0.38-2.397-0.684
					c-0.021-0.216-0.263-2.875-0.455-3.801c-0.062-0.293-0.129-0.575-0.209-0.837c-1.713-5.935-6.855-4.013-7.608-0.873
					c-0.012,0.055-0.022,0.104-0.034,0.158c-0.504,2.213-0.336,3.998-0.333,4.027c-1.457-0.681-2.716-1.8-3.717-2.583
					c0,0,2.659-2.524,4.604-5.02C35.997,10.825,38.852,10.177,41.218,11.876z"/>
			</g>
		</g>
		<g>
			<g>
				<path fill="#FFFFFF" d="M41.453,18.815c0.176,1.129,0.365,3.206,0.383,3.396c-1.04-0.215-2.355-0.392-3.814-0.37
					c-2.041,0.028-3.577-0.369-4.825-0.955c-0.002-0.02-0.075-0.854,0.031-2.07H41.453z"/>
			</g>
		</g>
		<g>
			<defs>
				<path id="SVGID_7_" d="M41.453,18.815c0.176,1.129,0.365,3.206,0.383,3.396c-1.04-0.215-2.355-0.392-3.814-0.37
					c-2.041,0.028-3.577-0.369-4.825-0.955c-0.002-0.02-0.075-0.854,0.031-2.07H41.453z"/>
			</defs>
			<clipPath id="SVGID_8_">
				<use xlink:href="#SVGID_7_"  overflow="visible"/>
			</clipPath>
			<ellipse clip-path="url(#SVGID_8_)" fill="#4C3529" cx="37.672" cy="21.157" rx="1.592" ry="1.967"/>
		</g>
		<g>
			<g>
				<path fill="#FFFFFF" d="M37.581,16.506c0,0,0.539,1.754-0.643,2.035c-1.179,0.283-1.465-1.422-1.465-1.422
					s0.276,0.874,0.886,0.684c0.688-0.219,0.109-1.255,0.109-1.255L37.581,16.506z"/>
			</g>
		</g>
		<g>
			<g>
				<path fill="#F3C66E" d="M33.563,16.699c0.754-3.14,5.896-5.062,7.608,0.873c0,0-2.613-1.94-7.643-0.715
					C33.541,16.804,33.551,16.754,33.563,16.699z"/>
			</g>
		</g>
		<path fill="#F3C66E" d="M41.277,19.155c0,0,0.431-5.341-4.363-5.563c0,0-3.796,0.817-3.719,5.222
			C33.195,18.814,37.998,19.82,41.277,19.155z"/>
		<g>
			<g>
				<path fill="#4C3529" d="M42.3,22.186l0.146-0.015c-0.138-0.837-0.26-1.669-0.407-2.504c-0.079-0.42-0.152-0.831-0.252-1.267
					c-0.098-0.401-0.217-0.788-0.356-1.175l0.01-0.011c-0.006-0.002-0.011-0.005-0.015-0.011c-0.006-0.014-0.01-0.032-0.017-0.045
					c-0.295-0.813-0.702-1.6-1.274-2.26c-0.564-0.656-1.344-1.149-2.19-1.29c-0.847-0.154-1.717,0.052-2.446,0.469
					c-0.731,0.413-1.344,1.048-1.731,1.815c-0.154,0.296-0.252,0.621-0.33,0.945c-0.004,0.002-0.01,0.004-0.016,0.006l-0.021,0.101
					c0.004-0.002,0.007-0.003,0.012-0.003c-0.012,0.056-0.025,0.113-0.038,0.169c-0.088,0.411-0.164,0.829-0.226,1.246
					c-0.104,0.734-0.167,1.466-0.179,2.226c-0.666-0.34-1.316-0.716-1.933-1.162c0.381,0.442,0.84,0.807,1.326,1.124
					c0.194,0.125,0.396,0.241,0.6,0.346c0,0.008,0.002,0.016,0.001,0.023L33,20.908c0.297,0.153,0.604,0.285,0.924,0.385
					c0.549,0.179,1.116,0.282,1.68,0.376c0.562,0.092,1.128,0.157,1.694,0.222l3.378,0.39c1.126,0.14,2.232,0.286,3.341,0.541
					l0.017-0.04C43.484,22.496,42.897,22.312,42.3,22.186z M41.154,19.782c0.047,0.736,0.085,1.48,0.103,2.224
					c-0.182-0.025-0.364-0.046-0.543-0.066c-1.136-0.118-2.273-0.142-3.405-0.215c-0.564-0.039-1.128-0.09-1.69-0.166
					c-0.56-0.084-1.1-0.268-1.615-0.489c-0.183-0.077-0.36-0.163-0.538-0.247c-0.109-0.786-0.105-1.62-0.034-2.428
					c0.035-0.415,0.096-0.824,0.174-1.233c0.018-0.091,0.035-0.182,0.055-0.268c0.008-0.001,0.013-0.002,0.021-0.002
					c0-0.003,0.001-0.005,0.001-0.008c0.004-0.035,0.016-0.07,0.027-0.106c0.001-0.007,0.007-0.012,0.009-0.019
					c-0.011,0.003-0.021,0.006-0.03,0.007c0.015-0.069,0.03-0.14,0.049-0.21c0.058-0.191,0.132-0.379,0.221-0.562
					c0.71-1.457,2.404-2.379,3.924-2.036c0.758,0.162,1.414,0.648,1.891,1.268c0.364,0.469,0.634,1.016,0.837,1.587
					c-0.012-0.005-0.024-0.01-0.037-0.015c0.137,0.364,0.236,0.707,0.304,1.086c0.014,0.011,0.032,0.021,0.045,0.031
					c0.045,0.215,0.088,0.433,0.121,0.646C41.095,18.947,41.129,19.369,41.154,19.782z"/>
			</g>
		</g>
		<g>
			<path fill="#4C3529" d="M32.651,18.636c2.899,0.497,5.858,0.57,8.732,0.275l0.055,0.998
				C38.44,19.877,35.483,19.457,32.651,18.636z"/>
		</g>
		<path fill="#4C3529" d="M40.879,9.859c-0.923-0.51-2.095-0.661-3.126-0.483c-1.621,0.28-2.875,1.497-3.488,2.991
			c-0.059,0.14-0.109,0.304-0.111,0.456c-0.01,0.339,0.588-0.149,0.717-0.233c0.298-0.194,0.611-0.365,0.936-0.511
			c0.856-0.384,1.786-0.585,2.724-0.596c0.592-0.006,1.182,0.063,1.757,0.193c1.505,0.34,1.602-0.063,1.597-0.071
			C41.867,11.589,42.438,10.72,40.879,9.859z"/>
		<g>
			<path fill="#4C3529" d="M34.922,26.032c0.492,0.899,1.294,1.753,2.11,2.497c0.852,0.726,1.798,1.353,2.811,1.86
				c2.026,1.026,4.32,1.487,6.604,1.523c2.28,0.017,4.582-0.475,6.552-1.596c0.984-0.553,1.887-1.239,2.682-2.023
				c0.758-0.798,1.488-1.72,1.905-2.648l1.23,0.67c-0.767,1.06-1.584,1.89-2.531,2.646c-0.921,0.762-1.928,1.412-3.005,1.904
				c-2.145,1.004-4.501,1.468-6.837,1.431c-2.333-0.012-4.672-0.447-6.858-1.341c-1.095-0.441-2.137-1.022-3.109-1.713
				c-0.995-0.684-1.882-1.446-2.722-2.438L34.922,26.032z"/>
		</g>
		<path fill="#4C3529" d="M50.51,22.156c-1.089-0.43-2.274-0.627-3.432-0.652v-0.007c-0.106-0.004-0.218,0.004-0.325,0.003
			c-0.107,0.001-0.218-0.007-0.325-0.003v0.007c-1.157,0.025-2.343,0.223-3.431,0.652c-3.896,1.538-2.752,3.938,0.029,5.983
			c1.89,1.39,2.898,1.696,3.726,1.669c0.829,0.027,1.837-0.279,3.727-1.669C53.261,26.094,54.407,23.694,50.51,22.156z"/>
		<g>
			<g>
				<path fill="#FFFFFF" d="M50.561,24.434c-0.761-0.888-3.819-1.583-6.816-0.791c1.414-1.366,5.885-1.732,7.665,0.294
					c0.492,0.56,0.508,1.498-0.357,1.836C51.225,25.49,51.012,24.957,50.561,24.434z"/>
			</g>
		</g>
		<g>
			<path fill="#4C3529" d="M36.669,25.978c-0.829,0.415-1.372,0.652-1.877,0.951c-0.516,0.275-0.969,0.623-1.765,1.131
				c-0.246-0.907,0.256-1.863,1.084-2.336c0.412-0.233,0.889-0.331,1.339-0.294C35.898,25.467,36.341,25.624,36.669,25.978z"/>
		</g>
		<g>
			<path fill="#4C3529" d="M56.312,25.978c0.328-0.354,0.771-0.511,1.219-0.548c0.45-0.037,0.927,0.061,1.339,0.294
				c0.828,0.473,1.33,1.429,1.084,2.336c-0.796-0.508-1.249-0.855-1.765-1.131C57.684,26.63,57.141,26.393,56.312,25.978z"/>
		</g>
		<g>
			<path fill="#4C3529" d="M39.315,44.083c-1.679,1.646-3.091,3.542-4.26,5.552c-1.162,2.016-2.039,4.185-2.523,6.421h0l-0.03-0.357
				c0.647,1.56,1.114,3.113,1.534,4.704c0.411,1.587,0.742,3.192,1.001,4.809c0.518,3.232,0.748,6.507,0.703,9.777l-1-0.012
				c0.029-3.214-0.21-6.43-0.733-9.599c-0.262-1.584-0.593-3.156-1.002-4.706c-0.411-1.54-0.893-3.097-1.496-4.53l-0.077-0.184
				l0.047-0.173l0,0c0.693-2.317,1.776-4.48,3.117-6.44C35.943,47.392,37.512,45.597,39.315,44.083z"/>
		</g>
		<g>
			<path fill="#4C3529" d="M0,88.442c2.545-0.165,5.09-0.265,7.635-0.337c2.545-0.075,5.09-0.12,7.635-0.038
				c0.207,0.007,0.37,0.18,0.363,0.387c-0.006,0.199-0.167,0.356-0.363,0.363c-2.545,0.082-5.09,0.037-7.635-0.038
				C5.09,88.706,2.545,88.607,0,88.442z"/>
		</g>
		<g>
			<path fill="#4C3529" d="M93.917,90.631c-2.661,0.088-5.321,0.111-7.982,0.163c-1.331,0.031-2.661,0.025-3.991,0.032
				c-1.331,0.009-2.661,0.013-3.991-0.01v-0.75c1.33-0.022,2.661-0.019,3.991-0.01c1.33,0.007,2.66,0.001,3.991,0.032
				c2.661,0.052,5.321,0.075,7.982,0.163V90.631z"/>
		</g>
		<g>
			<path fill="#4C3529" d="M57.636,48.57c0.182-1.785,1.352-3.498,2.988-4.548l0.613,1.236c-0.767,0.253-1.5,0.649-2.129,1.21
				C58.484,47.027,57.944,47.736,57.636,48.57z"/>
		</g>
		<g>
			<path fill="#4C3529" d="M58.896,51.22c0.466-1.486,1.379-2.867,2.572-4.014l0.805,1.123
				C60.985,48.978,59.773,49.943,58.896,51.22z"/>
		</g>
		<g>
			<path fill="#4C3529" d="M34.115,48.178c-0.06-0.888-0.377-1.721-0.816-2.434c-0.445-0.715-1.036-1.303-1.699-1.764l0.939-1.012
				C33.81,44.44,34.447,46.414,34.115,48.178z"/>
		</g>
		<g>
			<path fill="#4C3529" d="M31.431,49.888c-0.06-0.888-0.377-1.721-0.816-2.434c-0.445-0.715-1.036-1.304-1.699-1.764l0.938-1.012
				C31.126,46.149,31.762,48.124,31.431,49.888z"/>
		</g>
		<g>
			<path fill="#4C3529" d="M31.354,11.926c0.163-1.829,0.689-3.525,1.492-5.118c0.79-1.588,1.916-3.018,3.308-4.118
				c2.795-2.249,6.455-2.992,9.904-2.944c1.75,0.011,3.503,0.228,5.186,0.753c1.68,0.521,3.264,1.382,4.61,2.533
				c1.346,1.156,2.42,2.611,3.201,4.2c0.788,1.596,1.323,3.278,1.528,5.101l-0.999,0.053c-0.24-3.266-1.639-6.635-4.146-8.882
				c-2.501-2.3-6.001-3.214-9.378-3.246c-3.391-0.034-6.914,0.728-9.52,2.907c-2.602,2.141-4.04,5.526-4.186,8.793L31.354,11.926z"
				/>
		</g>
		<g>
			<path fill="#4C3529" d="M53.917,6.865c1.228,0.296,2.403,0.825,3.484,1.514c1.079,0.691,2.051,1.58,2.829,2.637l-0.625,0.414
				c-0.619-1.043-1.448-1.977-2.422-2.746C56.208,7.917,55.107,7.28,53.917,6.865z"/>
		</g>
		<g>
			<path fill="#4C3529" d="M36.667,7.567c-1.877,0.683-3.505,2.033-4.33,3.747l-0.652-0.369C32.846,9.158,34.72,8.014,36.667,7.567z
				"/>
		</g>
		<g>
			<path fill="#4C3529" d="M33.35,53.205c-1.821,1.139-3.648,2.201-5.495,3.252l-5.571,3.098l-0.433-0.902
				c1.959-0.775,3.838-1.741,5.656-2.804c1.82-1.053,3.607-2.196,5.266-3.46L33.35,53.205z"/>
		</g>
		<g>
			<g>
				<path fill="#4C3529" d="M72.691,76.134c-0.626,0.151-1.141,0.485-1.535,0.822c-0.393,0.347-0.604,0.769-0.614,1.267
					c-0.021,0.495,0.132,1.039,0.343,1.57c0.213,0.535,0.487,1.066,0.776,1.602l0.097,0.179l-0.02,0.107
					c-0.022,0.584,0.022,1.239,0.204,1.755c0.043,0.132,0.103,0.245,0.163,0.348l0.251,0.402c0.159,0.241,0.33,0.406,0.508,0.481
					l0.066,0.028l0.036,0.024c0.196,0.137,0.502,0.235,0.66,0.195c0.156-0.02,0.298-0.176,0.404-0.449
					c0.097-0.259,0.168-0.613,0.175-0.891c0.001-0.144-0.014-0.285-0.05-0.427l-0.133-0.518c-0.145-0.692-0.373-1.44-0.084-2.26
					c0.16-0.401,0.512-0.692,0.863-0.826c0.353-0.147,0.713-0.206,1.076-0.21c-0.626,0.339-1.28,0.682-1.425,1.228
					c-0.162,0.545,0.037,1.24,0.231,1.886l0.161,0.496c0.064,0.195,0.102,0.404,0.113,0.612c0.012,0.425-0.037,0.775-0.161,1.183
					c-0.114,0.377-0.431,0.884-0.993,1.003c-0.542,0.097-0.949-0.07-1.337-0.306l0.101,0.053c-0.441-0.16-0.745-0.491-0.955-0.784
					l-0.283-0.422c-0.109-0.177-0.197-0.358-0.257-0.538c-0.244-0.726-0.278-1.405-0.255-2.125l0.077,0.286
					c-0.403-0.509-0.762-1.065-1.033-1.688c-0.263-0.62-0.459-1.319-0.383-2.082c0.064-0.758,0.537-1.531,1.193-1.88
					C71.313,75.912,72.074,75.816,72.691,76.134z"/>
			</g>
			<g>
				<path fill="#4C3529" d="M76.529,81.44c0.245,0.469,0.443,0.974,0.586,1.521l-0.999-0.051
					C76.303,82.459,76.445,81.958,76.529,81.44z"/>
			</g>
		</g>
		<g>
			<path fill="#4C3529" d="M49.775,36.677c-0.256,0.527-0.282,1.213,0.049,1.666c0.322,0.479,0.95,0.81,1.62,1.009
				c1.364,0.395,2.925,0.447,4.465,0.826c1.555,0.343,3.085,1.227,4.099,2.498c1.032,1.254,1.691,2.711,2.212,4.175
				c0.52,1.466,0.881,2.983,1.2,4.471l0.99,4.463l1.994,8.923l-0.176-0.281h0.001c0.962,0.82,1.852,1.691,2.538,2.807
				c0.617,1.038,1.256,2.044,1.938,3.033c0.682,0.986,1.399,1.947,2.161,2.869c0.76,0.914,1.573,1.824,2.438,2.586l0.048,0.042
				l0.048,0.073l0.001,0.001c0.238,0.343,0.81,0.742,1.28,1.093c0.493,0.366,0.996,0.737,1.488,1.129
				c0.979,0.783,1.943,1.645,2.681,2.752c0.439,0.658,0.479,1.436,0.427,2.099c-0.061,0.68-0.238,1.324-0.482,1.938
				c-0.511,1.195-1.232,2.419-2.635,3.029l-0.36-0.934c0.904-0.393,1.617-1.441,2.05-2.479c0.416-1.031,0.66-2.325,0.16-3.115
				c-0.608-0.975-1.483-1.817-2.408-2.597c-0.464-0.392-0.948-0.767-1.435-1.152c-0.242-0.196-0.485-0.394-0.726-0.607
				c-0.239-0.226-0.485-0.417-0.706-0.799l-0.001-0.002l0.096,0.115c-0.968-0.821-1.785-1.713-2.591-2.641
				c-0.797-0.93-1.546-1.896-2.26-2.888c-0.71-0.99-1.389-2.016-2.027-3.046c-0.591-0.948-1.46-1.792-2.345-2.525h-0.001
				l-0.138-0.111l-0.038-0.17l-1.995-8.925l-0.991-4.464c-0.32-1.492-0.667-2.944-1.166-4.354c-0.497-1.399-1.125-2.762-2.038-3.867
				c-0.905-1.118-2.149-1.843-3.569-2.167c-1.421-0.357-2.946-0.396-4.519-0.84c-0.769-0.239-1.604-0.613-2.157-1.407
				c-0.273-0.391-0.413-0.884-0.417-1.351c0.002-0.478,0.097-0.899,0.315-1.343L49.775,36.677z"/>
		</g>
		<g>
			<path fill="#4C3529" d="M41.555,83.107c-0.064,0.131-0.127,0.265-0.245,0.454c-0.107,0.171-0.207,0.307-0.325,0.444
				c-0.229,0.273-0.485,0.508-0.753,0.711c-0.535,0.41-1.113,0.707-1.696,0.954c-1.176,0.481-2.372,0.766-3.61,0.928h-0.001
				l-0.066,0.012l-0.067-0.019c-1.004-0.279-1.906-0.714-2.759-1.279c-0.423-0.283-0.824-0.603-1.196-0.958
				c-0.185-0.179-0.365-0.363-0.532-0.56c-0.182-0.198-0.348-0.488-0.454-0.714c-0.442-0.952-0.7-1.9-0.963-2.857
				c-0.253-0.958-0.473-1.912-0.671-2.886l0-0.003l0.21,0.355c-2.653-2.146-5.033-4.62-7.088-7.334
				c-1.027-1.358-1.975-2.776-2.832-4.248c-0.854-1.479-1.63-2.977-2.255-4.609l0.69,0.269l-0.001,0.001
				c-0.441,0.238-0.889,0.507-1.283,0.783l-0.621,0.436l-0.163-0.728l-0.001-0.001c-0.122-0.614-0.151-1.245-0.075-1.858
				c0.035-0.308,0.099-0.609,0.184-0.905c0.089-0.301,0.188-0.574,0.348-0.879l0.452,0.495h0c-0.271,0.152-0.523,0.343-0.754,0.562
				c-0.226,0.213-0.454,0.471-0.613,0.7l0,0l-1.221,1.224l0.226-1.637c0.143-1.039,0.661-1.76,1.151-2.454
				c0.509-0.685,1.076-1.298,1.648-1.899c1.151-1.194,2.385-2.283,3.633-3.348c2.495-2.14,5.102-4.091,7.621-6.172
				c1.274-1.023,2.552-2.044,3.883-3.018c1.331-0.964,2.728-1.906,4.316-2.544c1.569-0.655,3.32-0.881,4.86-1.122
				c0.718-0.144,1.389-0.443,1.72-0.912c0.344-0.461,0.383-1.124,0.29-1.888l1.375-0.123c0.067,0.832,0.039,1.938-0.65,2.793
				c-0.687,0.843-1.663,1.148-2.526,1.294c-1.684,0.19-3.205,0.389-4.678,0.957c-1.459,0.553-2.813,1.423-4.135,2.346
				c-1.321,0.929-2.612,1.922-3.9,2.919c-2.568,2.006-5.158,4.008-7.619,6.117c-1.223,1.066-2.41,2.173-3.503,3.349
				c-0.546,0.586-1.053,1.207-1.495,1.849c-0.429,0.633-0.823,1.349-0.864,1.949l-0.995-0.414h0c0.304-0.288,0.593-0.498,0.92-0.704
				c0.322-0.199,0.67-0.367,1.038-0.484h0l0.824-0.403l-0.372,0.898c-0.087,0.211-0.167,0.484-0.215,0.738
				c-0.05,0.259-0.083,0.522-0.089,0.785c-0.018,0.525,0.054,1.049,0.198,1.546v0.001l-0.784-0.291
				c0.469-0.315,0.927-0.575,1.41-0.826l0.002-0.001l0.482-0.26l0.208,0.528c0.593,1.504,1.377,2.998,2.218,4.42
				c0.848,1.427,1.786,2.802,2.799,4.116c2.028,2.629,4.367,5.016,6.963,7.075l0.17,0.135l0.04,0.221l0,0.002
				c0.149,0.946,0.326,1.903,0.531,2.843c0.21,0.934,0.435,1.888,0.78,2.723c0.097,0.217,0.164,0.362,0.303,0.532
				c0.141,0.182,0.295,0.354,0.454,0.521c0.319,0.334,0.671,0.641,1.047,0.917c0.747,0.55,1.609,1.005,2.475,1.287l-0.133-0.007
				h0.001c1.131-0.264,2.268-0.661,3.274-1.2c0.501-0.273,0.974-0.587,1.361-0.953c0.195-0.181,0.367-0.377,0.504-0.581
				c0.069-0.098,0.135-0.215,0.178-0.305c0.038-0.069,0.094-0.212,0.148-0.358L41.555,83.107z"/>
		</g>
		<g>
			<path fill="#4C3529" d="M38.066,79.175c0.284,0.566,0.581,1.112,0.925,1.607c0.338,0.491,0.731,0.95,1.178,1.188
				c0.438,0.261,0.869,0.229,1.321,0.018c0.452-0.215,0.883-0.599,1.302-1.004l0.003-0.004l-0.121,0.43
				c-0.249-1.146-0.659-2.318-1.216-3.357c-0.557-1.038-1.315-1.986-2.299-2.472c-0.498-0.257-0.993-0.323-1.641-0.385l-1.849-0.183
				c-1.235-0.11-2.476-0.205-3.712-0.285h-0.001l-0.077-0.002l-0.111-0.049c-1.61-0.702-3.066-1.85-4.17-3.242
				c-1.103-1.401-1.892-3.034-2.351-4.734c-0.387-1.68-0.854-3.216-1.629-4.683c-0.375-0.729-0.839-1.4-1.332-2.045
				c-0.495-0.648-0.997-1.28-1.614-1.909c0.893,0.157,1.656,0.709,2.28,1.328c0.625,0.635,1.108,1.383,1.548,2.143
				c0.87,1.512,1.444,3.24,1.867,4.854c0.447,1.567,1.145,3.06,2.144,4.329c0.988,1.281,2.235,2.333,3.693,3.091l-0.188-0.051h0.001
				c1.249,0.079,2.492,0.172,3.738,0.28l1.869,0.182c0.587,0.05,1.352,0.148,1.968,0.476c1.27,0.632,2.122,1.751,2.739,2.884
				c0.618,1.157,1.042,2.357,1.325,3.644l0.053,0.242l-0.174,0.188l-0.004,0.004c-0.418,0.511-0.93,0.987-1.619,1.29
				c-0.673,0.337-1.648,0.241-2.238-0.233c-0.592-0.467-0.93-1.068-1.178-1.668C38.262,80.436,38.109,79.812,38.066,79.175z"/>
		</g>
		<path fill="#4C3529" d="M70.299,77.275l-7.146-5.304c-0.142,0.188-0.31,0.452-0.421,0.764l-0.304,0.851l-0.56-0.709
			c-0.026-0.033-0.538-0.69-0.743-1.623c-0.13,0.062-0.274,0.139-0.422,0.233l-0.534,0.345l-0.209-0.6
			c-0.46-1.312-0.47-2.757-0.359-3.503l-2.373-7.16l0.949-0.314l2.453,7.4l-0.024,0.128c-0.062,0.327-0.146,1.399,0.131,2.549
			c0.387-0.178,0.673-0.247,0.689-0.251l0.6-0.143l0.016,0.617c0.009,0.354,0.099,0.686,0.208,0.96
			c0.247-0.358,0.476-0.572,0.491-0.587l0.305-0.281l7.85,5.825L70.299,77.275z"/>
		<g>
			<path fill="#4C3529" d="M49.269,89.459c-0.765-1.052-1.638-2.053-2.604-2.884c-0.489-0.407-1.01-0.767-1.559-1.034
				c-0.549-0.272-1.135-0.403-1.717-0.414l-0.268-0.006l-0.133-0.191c-0.529-0.768-1.053-1.539-1.549-2.331l0.595-0.43
				c0.596,0.72,1.164,1.459,1.727,2.202l-0.4-0.197c0.762-0.04,1.512,0.162,2.169,0.471c0.667,0.305,1.248,0.734,1.767,1.207
				c0.525,0.47,0.99,0.99,1.401,1.546c0.417,0.553,0.784,1.13,1.095,1.757L49.269,89.459z"/>
		</g>
		<g>
			<path fill="#4C3529" d="M40.094,82.25l2.44,3.466l0.205,0.291l-0.195,0.231h0c-0.116,0.2-0.202,0.552-0.172,0.841
				c0.014,0.15,0.04,0.303,0.099,0.449c0.023,0.073,0.065,0.148,0.093,0.215l0.14,0.26c0.362,0.668,0.774,1.319,1.256,1.883
				l-0.538,0.498c-0.575-0.6-1.044-1.261-1.47-1.949c-0.197-0.291-0.463-0.792-0.508-1.254c-0.058-0.49-0.008-0.946,0.235-1.445
				l0.002-0.003l0.009,0.521l-2.109-3.677L40.094,82.25z"/>
		</g>
		<g>
			<path fill="#4C3529" d="M42.851,90.846c0.572-0.624,1.297-1.1,2.074-1.459c0.778-0.362,1.636-0.566,2.503-0.601
				c1.746-0.069,3.46,0.657,4.678,1.811c-0.735-0.408-1.483-0.771-2.267-1c-0.783-0.226-1.588-0.346-2.394-0.312
				C45.829,89.339,44.254,89.932,42.851,90.846z"/>
		</g>
		<g>
			<path fill="#4C3529" d="M50.19,89.446c0.374-0.466,0.803-0.799,1.299-1.058c0.493-0.251,1.042-0.39,1.584-0.389
				c1.097,0.001,2.071,0.51,2.874,1.129c-0.873-0.521-1.883-0.879-2.852-0.754c-0.48,0.059-0.933,0.236-1.323,0.5
				c-0.385,0.258-0.736,0.623-0.958,0.987L50.19,89.446z"/>
		</g>
		<g>
			<path fill="#4C3529" d="M62.514,88.217c0.438-0.947,1.459-1.653,2.568-1.716c0.55-0.027,1.1,0.078,1.585,0.303
				c0.489,0.216,0.928,0.514,1.293,0.888c-0.951-0.409-1.896-0.757-2.848-0.692C64.163,87.047,63.271,87.512,62.514,88.217z"/>
		</g>
		<g>
			<path fill="#4C3529" d="M31.206,91.123c0.438-0.947,1.459-1.653,2.568-1.716c0.55-0.027,1.1,0.078,1.584,0.303
				c0.489,0.216,0.928,0.514,1.293,0.888c-0.951-0.409-1.896-0.757-2.848-0.692C32.855,89.953,31.963,90.418,31.206,91.123z"/>
		</g>
		<g>
			<path fill="#4C3529" d="M26.83,88.439c0.438-0.947,1.459-1.653,2.568-1.716c0.55-0.027,1.1,0.078,1.585,0.303
				c0.489,0.216,0.928,0.514,1.293,0.888c-0.951-0.409-1.896-0.757-2.848-0.692C28.479,87.269,27.587,87.734,26.83,88.439z"/>
		</g>
		<g>
			<path fill="#4C3529" d="M59.601,85.86c-0.205,0.175-0.406,0.433-0.576,0.687c-0.17,0.262-0.322,0.541-0.452,0.832
				c0.05-0.315,0.125-0.63,0.227-0.94c0.109-0.312,0.225-0.609,0.433-0.916L59.601,85.86z"/>
		</g>
		<g>
			<path fill="#4C3529" d="M24.423,87.237c0.491,0.133,0.873,0.373,1.235,0.649c0.354,0.282,0.66,0.609,0.919,0.965
				c-0.321-0.3-0.677-0.557-1.054-0.756c-0.374-0.19-0.796-0.339-1.169-0.362L24.423,87.237z"/>
		</g>
		<g>
			<path fill="#4C3529" d="M53.5,85.984c0.092,0.075,0.146,0.145,0.191,0.144c0.054,0.021,0.072,0.046,0.097,0.072
				c0.039,0.064,0.043,0.141,0.087,0.368c-0.096,0.074-0.192,0.079-0.281,0.062c-0.093-0.016-0.161-0.076-0.218-0.146
				c-0.045-0.078-0.08-0.169-0.058-0.269C53.335,86.089,53.391,86.033,53.5,85.984z"/>
		</g>
		<g>
			<path fill="#4C3529" d="M55.292,87.193c0.106-0.04,0.18-0.052,0.205-0.086c0.046-0.03,0.065-0.032,0.085-0.034
				c0.043,0.004,0.044,0.072,0.251,0.161c0.029,0.11-0.01,0.194-0.073,0.257c-0.063,0.065-0.15,0.08-0.231,0.078
				c-0.079-0.016-0.155-0.046-0.201-0.117C55.266,87.371,55.258,87.302,55.292,87.193z"/>
		</g>
		<g>
			<path fill="#4C3529" d="M63.959,88.943c0.199,0.081,0.253,0.118,0.276,0.151c0.019,0.039-0.071,0.044-0.068,0.265
				c-0.076,0.081-0.165,0.088-0.243,0.062c-0.082-0.023-0.127-0.088-0.155-0.146c-0.017-0.062-0.023-0.121,0.013-0.181
				C63.813,89.032,63.858,88.99,63.959,88.943z"/>
		</g>
		<g>
			<path fill="#4C3529" d="M70.125,87.068c-0.005,0.209-0.05,0.281-0.075,0.309c-0.048,0.024-0.095,0-0.3-0.059
				c-0.11-0.179-0.044-0.307,0.036-0.365c0.048-0.021,0.102-0.041,0.161-0.02C69.998,86.955,70.051,86.986,70.125,87.068z"/>
		</g>
		<g>
			<path fill="#4C3529" d="M34,87.693c0.065-0.096,0.131-0.133,0.234-0.134c0.084-0.011,0.15,0.021,0.207,0.056
				c0.049,0.043,0.092,0.087,0.106,0.159c0.016,0.067,0.023,0.139-0.005,0.252c-0.212,0.074-0.321,0.033-0.394-0.007
				c-0.031-0.029-0.057-0.053-0.07-0.11C34.081,87.864,34.043,87.801,34,87.693z"/>
		</g>
		<g>
			<path fill="#4C3529" d="M38.042,89.568c0.043,0.206,0.011,0.288-0.021,0.329c-0.049,0.037-0.098,0.02-0.312,0.004
				c-0.141-0.158-0.094-0.301-0.025-0.373C37.772,89.464,37.867,89.451,38.042,89.568z"/>
		</g>
		<g>
			<path fill="#4C3529" d="M39.417,88.234c-0.052,0.101-0.102,0.146-0.15,0.183c-0.036,0.05-0.063,0.06-0.092,0.066
				c-0.072,0.005-0.127-0.028-0.299-0.165c-0.004-0.11,0.03-0.178,0.072-0.236c0.042-0.057,0.1-0.076,0.157-0.094
				c0.063,0.001,0.128,0.004,0.185,0.047C39.333,88.076,39.377,88.128,39.417,88.234z"/>
		</g>
		<g>
			<path fill="#4C3529" d="M35.958,82.609c0.235,0.503,0.596,0.918,0.978,1.289c0.388,0.369,0.813,0.688,1.26,0.967l-0.655,0.756
				c-0.382-0.441-0.722-0.917-1.003-1.419C36.264,83.697,36.033,83.163,35.958,82.609z"/>
		</g>
		<g>
			<path fill="#4C3529" d="M33.713,83.754c0.202,0.454,0.525,0.824,0.87,1.145c0.352,0.318,0.739,0.582,1.147,0.8l-0.621,0.783
				C34.401,85.702,33.816,84.759,33.713,83.754z"/>
		</g>
	</g>
	<g>
		<g>
			<defs>
				<path id="SVGID_9_" d="M50.087,18.814c-0.176,1.129-0.366,3.206-0.384,3.396c1.04-0.215,2.355-0.392,3.814-0.37
					c2.041,0.028,3.577-0.369,4.825-0.955c0.002-0.019,0.075-0.854-0.031-2.07H50.087z"/>
			</defs>
			<clipPath id="SVGID_10_">
				<use xlink:href="#SVGID_9_"  overflow="visible"/>
			</clipPath>
		</g>
		<g>
			<defs>
				<path id="SVGID_11_" d="M41.453,18.815c0.176,1.129,0.365,3.206,0.383,3.396c-1.04-0.215-2.355-0.392-3.814-0.37
					c-2.041,0.028-3.577-0.369-4.825-0.955c-0.002-0.02-0.075-0.854,0.031-2.07H41.453z"/>
			</defs>
			<clipPath id="SVGID_12_">
				<use xlink:href="#SVGID_11_"  overflow="visible"/>
			</clipPath>
		</g>
	</g>
</g>
</svg>
