<?xml version="1.0" encoding="utf-8"?>
<!DOCTYPE svg PUBLIC "-//W3C//DTD SVG 1.1//EN" "http://www.w3.org/Graphics/SVG/1.1/DTD/svg11.dtd">
<svg version="1.1" id="Слой_1" xmlns="http://www.w3.org/2000/svg" xmlns:xlink="http://www.w3.org/1999/xlink" x="0px" y="0px"
	 width="102px" height="77.881px" viewBox="0 0 102 77.881" enable-background="new 0 0 102 77.881" xml:space="preserve">
	<path fill="#c7a270" d="M95.636,48.773H80.204v-11.09h-6.716v-9.278H102v9.394h-6.364V48.773z M82.204,46.773h11.432V35.798H100
		v-5.394H75.488v5.278h6.716V46.773z"/>
	<path fill="#c7a270" d="M48.755,77.881C24.487,77.881,0,65.286,0,37.149C0,24.462,6.991,12.721,18.244,6.506
		C26.06,2.189,36.384,0,48.929,0c0.774,0,1.545,0.014,2.312,0.041c0.552,0.019,0.984,0.482,0.965,1.034s-0.468,0.993-1.033,0.965
		C50.428,2.014,49.681,2,48.929,2C36.726,2,26.728,4.105,19.21,8.257C8.595,14.12,2,25.19,2,37.149
		c0,26.755,23.482,38.732,46.755,38.732c19.668,0,35.261-8.122,38.165-9.737v-6.228c0-0.553,0.447-1,1-1s1,0.447,1,1v7.374
		l-0.485,0.292C88.264,67.685,71.032,77.881,48.755,77.881z M19.258,60.98l-1.063-0.067c-0.116-0.008-2.857-0.204-5.196-2.229
		c-2.275-1.969-3.042-3.642-3.042-6.631V29.287c0-5.094,4.451-12.632,14.004-12.635c12.704,0,15.486,10.722,15.486,14.853
		c0,5.501-3.917,13.686-14.708,13.686c-1.273,0-2.678-0.115-2.737-0.121l-0.917-0.076v-9.656l1.287,0.385
		c0.701,0.209,2.028,0.542,2.603,0.542c0.052,0,5.172-0.06,5.172-5.225c0-5.05-5.257-5.108-5.481-5.108
		c-0.221,0-5.407,0.055-5.407,4.874V60.98z M23.961,18.652C15.771,18.655,11.956,25,11.956,29.287v22.766
		c0,2.421,0.505,3.521,2.351,5.119c1.026,0.888,2.153,1.327,2.951,1.543v-27.91c0-5.438,4.845-6.874,7.407-6.874
		c2.587,0,7.481,1.485,7.481,7.108c0,5.927-5.177,7.225-7.172,7.225c-0.523,0-1.257-0.139-1.889-0.286v5.159
		c0.482,0.027,1.088,0.053,1.654,0.053c10.425,0,12.708-8.435,12.708-11.686C37.447,27.93,35.024,18.652,23.961,18.652z
		 M63.947,59.045c-12.792,0-22.438-9.012-22.438-20.962c0-11.108,8.839-19.485,20.561-19.485c12.806,0,20.745,3.726,24.146,6.048
		V11.654c-3.365-1.91-10.951-5.385-20.471-7.611C65.208,3.917,64.874,3.379,65,2.841c0.125-0.538,0.663-0.875,1.201-0.746
		c10.25,2.397,18.354,6.234,21.527,8.124l0.488,0.291v19.073l-1.777-2.195c-0.854-1.055-8.976-6.789-24.369-6.789
		c-10.581,0-18.561,7.517-18.561,17.485c0,10.811,8.786,18.962,20.438,18.962c2.88,0,5.893-0.371,8.953-1.103
		c0.537-0.126,1.077,0.203,1.205,0.74s-0.203,1.076-0.74,1.205C70.152,58.655,66.983,59.045,63.947,59.045z"/>
</svg>
