<?xml version="1.0" encoding="utf-8"?>
<!DOCTYPE svg PUBLIC "-//W3C//DTD SVG 1.1//EN" "http://www.w3.org/Graphics/SVG/1.1/DTD/svg11.dtd">
<svg version="1.1" id="Слой_1" xmlns="http://www.w3.org/2000/svg" xmlns:xlink="http://www.w3.org/1999/xlink" x="0px" y="0px"
width="103.762px" height="111.813px" viewBox="0 0 103.762 111.813" enable-background="new 0 0 103.762 111.813"
xml:space="preserve">
<path fill="#F2DBA8" d="M61.589,98.965c0,4.825-5.5,6.147-12.286,6.147c-6.785,0-12.286-1.322-12.286-6.147
c0-4.824,5.501-8.735,12.286-8.735C56.089,90.23,61.589,94.141,61.589,98.965z"/>
<path fill="#483525" d="M62.297,98.992c-0.007,0.171-0.005,0.321-0.019,0.509c-0.022,0.194-0.032,0.402-0.072,0.584
c-0.059,0.375-0.169,0.746-0.309,1.105c-0.284,0.721-0.75,1.368-1.297,1.893c-1.119,1.038-2.483,1.616-3.825,1.995
c-2.711,0.717-5.448,0.807-8.134,0.773c-2.702-0.091-5.451-0.287-8.091-1.328c-1.291-0.532-2.599-1.372-3.368-2.695
c-0.384-0.65-0.607-1.388-0.676-2.117c-0.072-0.729-0.024-1.441,0.133-2.159c0.322-1.41,1.087-2.667,2.049-3.673
c0.966-1.013,2.128-1.793,3.359-2.389c2.471-1.187,5.225-1.663,7.92-1.59c2.717,0.085,5.445,0.727,7.841,2.147
c1.185,0.719,2.288,1.639,3.115,2.818c0.822,1.173,1.35,2.614,1.374,4.101C62.297,98.966,62.297,98.992,62.297,98.992z
M60.881,98.965c0.069-2.401-1.533-4.641-3.628-6.055c-2.108-1.447-4.711-2.198-7.3-2.324c-2.614-0.115-5.265,0.382-7.563,1.586
c-2.271,1.174-4.254,3.158-4.721,5.597c-0.218,1.179-0.108,2.493,0.521,3.45c0.612,0.986,1.679,1.658,2.842,2.094
c2.356,0.872,5.023,1.032,7.618,1.053c2.624,0.001,5.269-0.104,7.712-0.774c1.21-0.329,2.372-0.818,3.225-1.593
c0.854-0.779,1.29-1.818,1.294-3.06C60.881,98.939,60.881,98.965,60.881,98.965z"/>
<path fill="#FACC63" d="M53.923,55.898c-0.7,2.84,1.64,4.62,1.64,4.62s4.391,4.311,6.25,11.49c0.021,0.07,0.03,0.13,0.051,0.2
c0,0-4.35,6.14-3.44,19.04c-0.34,0.13-0.54,0.18-0.54,0.18s-1.46-3.39-7.14-2.85c-0.8,0.08-1.45,0.069-1.98,0.029
c-2.09-1.33-4.46-1.62-4.46-1.62c2.5,0.101,4.16-0.619,4.12-1.979c-0.04-1-0.95-1.26-0.95-1.26s-1.02,0.859-4.05,0.6
c-2.78-0.24-4.54,0.45-5.61,1.22c-0.71-8.92-3.29-13.569-3.29-13.569c0.33-1.271,0.761-2.46,1.25-3.561
c0.011-0.01,0.011-0.01,0.011-0.01c2.3-5.12,5.91-8.29,5.91-8.29s1.93-1.61,1.279-4.16v-0.01c2.62-0.63,2.49-2.65,2.311-3.51
c1.76,0.239,3.96,0.42,6.239,0.3c-0.13,0.88-0.079,2.67,2.4,3.13L53.923,55.898L53.923,55.898z"/>
<path fill="#ED9C1C" d="M46.261,95.575c-1.02,0.65-2.01,1.44-2.8,2.37h-0.04c0.05-0.16,0.12-0.271,0.12-0.271
c-1.311,0.391-1.12-0.72-1.12-0.72c0.19-0.75,0.49-1.39,0.87-1.95c1.09,0.141,2.11,0.29,2.979,0.551L46.261,95.575z"/>
<path fill="#ED9C1C" d="M76.331,78.975c0.06,0.13,0.74,1.52,0.31,3.34c0,0-0.319-0.58-1.399-1.08c0,0-5.53,7.67-15.59,13.1
c0,0-0.65,2.521-2.98,3.561c-2.95,1.31-6.62,1.18-9.02,2c-2.11,0.72-2.271-0.82-2.271-0.82c-0.08,0.01-0.16,0.01-0.24,0.02
c-1.859,0.131-1.85-0.699-1.72-1.149h0.04c0.79-0.93,1.78-1.72,2.8-2.37l0.01-0.02c0.091,0.029,0.171,0.05,0.25,0.079
c2.12,0.7,2.271-0.829,2.271-0.829c0.09,0.01,0.17,0.02,0.25,0.02c2.519,0.14,1.57-1.44,1.57-1.44
c1.319,0.381,1.109-0.739,1.109-0.739c-0.46-1.82-1.67-3.061-3-3.891c0.53,0.04,1.181,0.051,1.98-0.029
c5.68-0.54,7.14,2.85,7.14,2.85s0.2-0.05,0.54-0.18c1.34-0.49,4.89-2.21,7.09-7.11c1.52-3.39,3.31-5.17,4.61-6.09
c-3.771-2.37-6.561-4.61-8.26-6.05l-0.051,0.01c-1.859-7.18-6.25-11.49-6.25-11.49s-2.34-1.78-1.64-4.62v-0.01
c0.43,0.09,0.92,0.13,1.5,0.12c4.78-0.06,6.82,2.12,13.96,11.38c2.33,3.03,8.37,9.5,8.66,12.64
C78.001,80.174,77.291,79.355,76.331,78.975z"/>
<path fill="#FACC63" d="M58.392,26.748c0,0,1.784,0.375,3.417,1.312c1.632,0.938,5.835,1.781,5.896,3.375
c0.061,1.594,0.635,2.188-1.936,3.469c0,0,5.473,2.125,5.503,6.156c0,0-1.572-0.5-3.114-0.312l1.572,1.5
c0,0-5.291,8.531-19.894,10.5c0,0-14.16,1.365-23.633-10.552l1.531-1.75l-2.943,0.5c0,0,0.081-2.834,2.742-4.375
c2.66-1.541,2.66-1.541,2.66-1.541s-2.499-1.125-2.056-3.042s3.466-2.751,5.361-3.792c1.895-1.041,4.192-1.8,5.604-1.25
c1.41,0.55,3.427-0.625,3.427-0.625s8.065-2,11.167,0.125L58.392,26.748z"/>
<path fill="#FFFFFF" d="M65.468,7.097c7.054,2.524,6.574,10.776,3.192,13.266c-3.382,2.488-8.008,1.3-10.314-1.762
c-0.419-0.553-0.862-1.046-1.309-1.478l-0.046,0.053c-1.645,2.208-1.636,4.924-1.585,5.798c0.012,0.187,0.257,3.541,0.257,3.541
c-5.36-1.402-9.235-1.402-15.096-0.195c-0.204-4.594-2.714-7.433-2.714-7.433c-2.73,0.391-5.363-1.133-6.375-4.688
c-0.778-2.737,0.25-5.974,2.648-7.494c3.012-1.905,5.571-1.245,7.093-0.458c0,0-0.011-3.415,3.369-4.887
c7.713-3.371,11.969,5.2,11.969,5.2v0.004C58.38,6.213,61.929,5.83,65.468,7.097z"/>
<path fill="#483525" d="M53.542,26.113c0,0-0.628-0.142-1.588-0.249c-0.477-0.07-1.042-0.09-1.641-0.144
c-0.603,0-1.244-0.047-1.884-0.009c-0.638,0.049-1.281,0.035-1.871,0.146c-0.589,0.1-1.149,0.13-1.608,0.263
c-0.92,0.234-1.534,0.39-1.534,0.39l-0.208-0.72c0,0,0.649-0.128,1.622-0.319c0.483-0.111,1.064-0.113,1.675-0.181
c0.612-0.08,1.269-0.031,1.922-0.044c0.654-0.002,1.304,0.081,1.913,0.115c0.605,0.088,1.173,0.14,1.652,0.237
c0.963,0.161,1.591,0.34,1.591,0.34L53.542,26.113z"/>
<path fill="#483525" d="M65.762,6.557c-3.126-1.12-6.236-1.002-8.298-0.708c-0.166,0.023-0.331,0.05-0.495,0.078
c-0.356-0.616-1.147-1.864-2.366-3.062c-2.246-2.204-4.861-3.169-7.561-2.782c-0.838,0.119-1.697,0.372-2.555,0.748
c-2.633,1.146-3.401,3.355-3.622,4.579c-0.942-0.372-2.2-0.655-3.651-0.448c-1.1,0.157-2.194,0.579-3.26,1.253
c-2.564,1.624-3.785,5.066-2.898,8.185c0.21,0.738,0.497,1.403,0.844,2.002c0.026,0.049,0.049,0.099,0.078,0.144
c0.031,0.055,0.066,0.103,0.098,0.153c0.007,0.013,0.015,0.024,0.022,0.035c0.397,0.633,0.908,1.193,1.496,1.644
c0.028,0.02,0.057,0.043,0.085,0.062c0.095,0.07,0.19,0.139,0.291,0.202c0.095,0.061,0.19,0.121,0.29,0.178
c0.03,0.017,0.059,0.035,0.09,0.05c1.022,0.566,2.193,0.819,3.447,0.691h0.001c0.53,0.526,2.316,3.437,2.634,6.076
c0.285-0.069,0.6-0.018,0.892-0.084c-0.064-0.165-0.916-3.91-2.452-6.26c-0.013-0.016-0.025-0.036-0.037-0.055
c0.201-0.062,0.401-0.134,0.599-0.217c0.639-0.279,1.239-0.673,1.716-1.2c0.479-0.518,0.856-1.155,0.98-1.856
c-0.768,1.132-1.868,1.767-3.016,2.103c-1.163,0.318-2.39,0.433-3.511,0.078c-0.559-0.176-1.092-0.449-1.563-0.82
c-0.47-0.374-0.89-0.831-1.233-1.358c-0.338-0.523-0.625-1.106-0.829-1.727c-0.215-0.613-0.335-1.248-0.358-1.899
c-0.05-1.302,0.288-2.632,0.966-3.728c0.338-0.551,0.767-1.041,1.26-1.441c0.496-0.398,1.06-0.709,1.64-0.973
c1.162-0.517,2.456-0.697,3.715-0.488c1.257,0.203,2.456,0.772,3.53,1.562c-0.395-0.43-0.853-0.779-1.347-1.067
c0.052-0.838,0.317-1.687,0.732-2.409c0.419-0.739,1.019-1.348,1.714-1.788c0.347-0.222,0.719-0.399,1.104-0.548
c0.384-0.153,0.777-0.281,1.176-0.381c0.798-0.205,1.621-0.29,2.438-0.232c1.636,0.104,3.21,0.82,4.518,1.897
c0.654,0.535,1.252,1.155,1.791,1.829c0.481,0.605,0.928,1.264,1.294,1.938c-0.282,0.098-0.559,0.213-0.829,0.347
c0.929-0.083,1.832-0.163,2.74-0.223c0.9-0.072,1.809-0.074,2.711-0.038c0.904,0.04,1.803,0.141,2.689,0.325
c0.881,0.2,1.763,0.454,2.57,0.847c0.812,0.392,1.565,0.898,2.205,1.527c0.64,0.631,1.153,1.385,1.51,2.208
c0.354,0.825,0.567,1.711,0.618,2.606c0.045,0.893-0.042,1.789-0.274,2.634c-0.228,0.847-0.601,1.641-1.109,2.277
c-0.126,0.16-0.263,0.308-0.405,0.445c-0.069,0.067-0.151,0.136-0.218,0.188c-0.086,0.068-0.163,0.124-0.249,0.188
c-0.342,0.242-0.704,0.456-1.084,0.625c-0.761,0.34-1.585,0.556-2.432,0.589c-0.846,0.034-1.709-0.084-2.543-0.347
c-0.831-0.266-1.634-0.681-2.343-1.241c-0.353-0.278-0.688-0.601-0.983-0.941c-0.303-0.371-0.639-0.75-0.984-1.096
c-0.693-0.692-1.456-1.292-2.26-1.811c-0.802-0.518-1.646-0.959-2.532-1.254c1.288,0.649,2.485,1.496,3.529,2.504
c-1.89,3.074-1.701,8.706-1.713,8.928l1.048-0.054c-0.068-3.869,0.426-5.642,1.432-7.668c0.276,0.299,0.539,0.612,0.788,0.939
c1.508,2.005,3.881,3.224,6.311,3.327c0.094,0.001,0.188,0.011,0.28,0.014c0.989,0.024,2-0.123,2.935-0.51
c0.47-0.186,0.923-0.422,1.347-0.708c0.103-0.067,0.214-0.146,0.314-0.225c0.117-0.091,0.214-0.171,0.316-0.264
c0.201-0.184,0.388-0.38,0.56-0.586c0.688-0.834,1.139-1.834,1.408-2.869c0.261-1.039,0.333-2.126,0.206-3.198
c-0.017-0.135-0.037-0.275-0.058-0.41c-0.003-0.017-0.003-0.035-0.006-0.056C71.163,10.266,69.021,7.723,65.762,6.557z"/>
<path fill="#483525" d="M41.252,14.465c-2.374,4.596-9.221,1.771-8.394-3.383c0.004-0.032-0.04-0.038-0.045-0.007
c-0.428,2.307,0.843,4.782,2.846,5.778c2.188,1.089,4.941,0.079,5.706-2.337C41.39,14.435,41.287,14.394,41.252,14.465z"/>
<path fill="#483525" d="M59.397,16.823c0.281,0.246,0.554,0.502,0.819,0.766c0.269,0.262,0.512,0.544,0.793,0.804
c0.559,0.518,1.212,0.923,1.919,1.167c0.707,0.243,1.456,0.322,2.192,0.257c0.366-0.038,0.729-0.112,1.083-0.222
c0.354-0.108,0.701-0.262,1.016-0.476c0.63-0.419,1.142-1.028,1.467-1.733c0.332-0.705,0.462-1.503,0.433-2.282
c-0.03-0.783-0.227-1.549-0.521-2.26c0.232,0.736,0.373,1.498,0.361,2.258c-0.001,0.758-0.172,1.507-0.5,2.155
c-0.32,0.656-0.812,1.209-1.402,1.581c-0.59,0.365-1.28,0.565-1.975,0.639c-0.692,0.081-1.404,0.024-2.085-0.178
c-0.68-0.206-1.319-0.567-1.877-1.049c-0.278-0.238-0.537-0.517-0.814-0.768c-0.276-0.255-0.559-0.501-0.851-0.736
c-0.58-0.472-1.188-0.9-1.831-1.266l-0.011,0.02C58.244,15.885,58.835,16.333,59.397,16.823z"/>
<path fill="#ED9C1C" d="M52.89,27.842c-2.72,1.953-2.978,7.513-3.015,11.018c0,0,0.922-0.38,2.397-0.684
c0.021-0.216,0.263-2.875,0.455-3.801c0.062-0.293,0.13-0.575,0.209-0.837c1.713-5.935,6.854-4.013,7.608-0.873
c0.012,0.055,0.022,0.104,0.034,0.158c0.505,2.213,0.336,3.998,0.333,4.027c1.457-0.681,2.501-1.607,3.503-2.391
c0,0-1.652-1.888-4.39-5.212C58.047,26.846,55.256,26.143,52.89,27.842z"/>
<path fill="#483525" d="M67.382,33.392c0.006-0.01,0.011-0.023,0.015-0.035c0,0.003-0.001,0.006-0.002,0.006
C67.39,33.374,67.386,33.383,67.382,33.392z"/>
<path fill="#483525" d="M36.063,49.578c-1.869-0.855-3.61-2.001-5.19-3.336c-0.792-0.662-1.534-1.389-2.227-2.152
c-0.349-0.381-0.681-0.775-0.99-1.188c-0.196-0.253-0.392-0.522-0.569-0.786c0.182-0.191,0.38-0.375,0.588-0.55
c0.18-0.151,0.367-0.299,0.56-0.442c0.192-0.141,0.393-0.28,0.587-0.406l1.109-0.71c0,0-1.223,0.054-1.225,0.054
c-0.702-0.027-1.374,0.053-2.041,0.153c-0.556,0.087-1.104,0.198-1.652,0.326c0.273-1.095,0.952-2.052,1.774-2.817
c0.449-0.422,0.946-0.799,1.464-1.139c0.259-0.168,0.526-0.329,0.796-0.481l0.833-0.455c1.132-0.641,2.17-1.424,3.148-2.273
c0.979-0.855,1.894-1.759,2.765-2.757l1.148-1.326c0,0-1.679,0.519-1.681,0.519c-0.694,0.279-1.427,0.474-2.184,0.631
c-0.756,0.165-1.546,0.264-2.327,0.564c-0.771,0.297-1.519,0.96-1.585,1.884c-0.005,0.466,0.276,0.851,0.583,1.102
c0.21,0.177,0.442,0.312,0.683,0.425c-0.04,0.029-0.08,0.062-0.122,0.092c-0.357-0.068-0.698-0.191-0.984-0.396
c-0.206-0.146-0.383-0.323-0.524-0.532c-0.136-0.192-0.244-0.432-0.296-0.639c-0.056-0.542,0.043-1.066,0.317-1.482
c0.266-0.426,0.688-0.751,1.152-1.015c0.932-0.54,2.015-0.868,3.076-1.321c0.536-0.229,1.07-0.468,1.602-0.786l0.354-0.22
c0.113-0.068,0.228-0.131,0.344-0.193c0.232-0.121,0.469-0.229,0.713-0.32c0.852-0.331,1.797-0.462,2.74-0.402v-0.556
c-0.596-0.209-1.229-0.287-1.862-0.239c-0.001-0.003-0.002-0.007-0.003-0.01c-0.071,0.005-0.143,0.014-0.215,0.019
c-0.288,0.017-0.572,0.081-0.858,0.121c-0.002,0.013-0.002,0.025-0.003,0.038c-0.174,0.058-0.344,0.125-0.513,0.199
c-0.076,0.03-0.152,0.068-0.228,0.1c-0.009,0.004-0.018,0.01-0.026,0.014c-0.068,0.031-0.136,0.06-0.202,0.092
c-0.137,0.071-0.271,0.146-0.402,0.226l-0.195,0.123l-0.174,0.118c-0.085,0.057-0.176,0.108-0.264,0.16
c-0.594,0.33-1.273,0.614-1.939,0.893c-2.13,0.891-4.545,1.898-4.125,4.636c0.006,0.037,0.015,0.073,0.026,0.11
c0.021,0.058,0.409,1.141,1.584,1.674c-0.073,0.042-0.145,0.082-0.222,0.125c-2.927,1.605-4.588,3.534-4.934,5.735
c-0.03,0.198,0.036,0.4,0.178,0.538c0.111,0.109,0.257,0.169,0.406,0.169c0.041,0,0.083-0.006,0.125-0.014
c0.009-0.002,0.536-0.118,1.243-0.229c-0.139,0.095-0.278,0.194-0.414,0.305l-0.42,0.45l0.325,0.43
c0.363,0.474,0.709,0.868,1.081,1.275c0.179,0.191,0.359,0.377,0.542,0.561c0.668,0.744,1.546,1.681,2.72,2.609
c7.741,6.126,15.067,5.767,17.849,5.916c-2.058-0.409-4.033-0.682-6.017-1.201C39.887,51.069,37.932,50.442,36.063,49.578z"/>
<path fill="#483525" d="M54.237,51.588c-1.983,0.52-3.955,0.797-6.013,1.206c2.25,0.005,10.104,0.205,17.845-5.921
c1.174-0.929,2.052-1.865,2.719-2.609c0.183-0.184,0.364-0.369,0.543-0.561c0.372-0.407,0.718-0.802,1.081-1.275l0.325-0.43
l-0.42-0.45c-0.136-0.11-0.275-0.21-0.414-0.305c0.707,0.11,1.234,0.227,1.243,0.229c0.042,0.008,0.083,0.014,0.125,0.014
c0.149,0,0.295-0.06,0.406-0.169c0.142-0.139,0.208-0.34,0.178-0.538c-0.346-2.201-2.007-4.13-4.934-5.735
C66.846,35,66.773,34.96,66.7,34.918c1.175-0.533,1.563-1.616,1.584-1.674c0.012-0.037,0.021-0.073,0.026-0.11
c0.419-2.737-1.995-3.745-4.125-4.636c-0.666-0.278-1.346-0.562-1.939-0.893c-0.088-0.053-0.179-0.104-0.264-0.16l-0.174-0.118
l-0.195-0.123c-0.132-0.079-0.266-0.154-0.402-0.226c-0.066-0.032-0.134-0.06-0.202-0.092c-0.01-0.004-0.018-0.01-0.026-0.014
c-0.075-0.031-0.151-0.069-0.228-0.1c-1.849-0.65-2.858-0.337-3.454-0.128V27.2c0.943-0.06,1.889,0.071,2.74,0.402
c0.244,0.092,0.48,0.199,0.713,0.32c0.116,0.062,0.23,0.125,0.344,0.193l0.354,0.22c0.531,0.318,1.065,0.558,1.602,0.786
c1.061,0.453,2.144,0.781,3.076,1.321c0.465,0.264,0.886,0.589,1.152,1.015c0.274,0.416,0.373,0.94,0.317,1.482
c-0.052,0.207-0.16,0.446-0.296,0.639c-0.142,0.209-0.318,0.387-0.524,0.532c-0.286,0.204-0.628,0.327-0.985,0.396
c-0.041-0.03-0.081-0.062-0.121-0.092c0.24-0.113,0.473-0.248,0.683-0.425c0.307-0.251,0.588-0.636,0.583-1.102
c-0.067-0.924-0.814-1.587-1.585-1.884c-0.781-0.301-1.571-0.399-2.327-0.565c-0.757-0.157-3.114-1.335-3.114-1.335
s2.185,3.414,3.163,4.269c0.979,0.85,2.017,1.633,3.148,2.273l0.833,0.455c0.27,0.151,0.537,0.312,0.796,0.48
c0.518,0.34,1.015,0.717,1.464,1.139c0.822,0.766,1.501,1.723,1.774,2.817c-0.549-0.128-1.097-0.239-1.652-0.326
c-0.667-0.101-1.339-0.181-2.041-0.153c-0.002,0-1.225-0.054-1.225-0.054l1.109,0.71c0.194,0.126,0.395,0.266,0.587,0.406
c0.192,0.143,0.38,0.291,0.56,0.442c0.208,0.175,0.406,0.358,0.588,0.55c-0.178,0.264-0.373,0.533-0.569,0.786
c-0.31,0.413-0.642,0.808-0.99,1.188c-0.693,0.764-1.436,1.49-2.228,2.152c-1.58,1.335-3.321,2.48-5.19,3.336
C58.17,50.443,56.215,51.07,54.237,51.588z"/>
<path fill="#483525" d="M29.488,33.392c-0.006-0.01-0.011-0.023-0.016-0.035c0,0.003,0.001,0.006,0.002,0.006
C29.48,33.374,29.484,33.383,29.488,33.392z"/>
<path fill="#483525" d="M48.662,49.816c0.818,0.033,1.643-0.032,2.442-0.214c0.793-0.191,1.579-0.466,2.252-0.924
c-0.366,0.172-0.746,0.305-1.13,0.415c-0.387,0.117-0.777,0.206-1.171,0.267c-0.786,0.134-1.586,0.181-2.382,0.155
c-0.798-0.027-1.591-0.14-2.375-0.303c-0.783-0.172-1.555-0.404-2.317-0.678c0.718,0.374,1.48,0.675,2.265,0.893
C47.029,49.65,47.844,49.779,48.662,49.816z"/>
<path fill="#483525" d="M55.235,60.41c1.684,1.483,3.127,3.246,4.347,5.152c0.608,0.955,1.166,1.949,1.637,2.987
c0.25,0.513,0.458,1.045,0.667,1.578c0.215,0.531,0.37,1.083,0.558,1.626l0,0l0.066,0.232l-0.152,0.22
c-0.194,0.282-0.395,0.64-0.575,0.977c-0.177,0.347-0.355,0.696-0.508,1.058c-0.324,0.715-0.593,1.459-0.844,2.208
c-0.13,0.373-0.227,0.758-0.342,1.136c-0.12,0.377-0.195,0.768-0.294,1.152c-0.1,0.384-0.178,0.773-0.25,1.163
c-0.07,0.391-0.164,0.777-0.211,1.172c-0.119,0.786-0.232,1.573-0.294,2.368c-0.094,0.791-0.111,1.589-0.154,2.384
c-0.037,0.796-0.011,1.595-0.02,2.392l0.107,2.393l-0.997,0.072l-0.12-2.442c0.005-0.816-0.025-1.632,0.009-2.448
c0.04-0.816,0.055-1.633,0.147-2.446c0.06-0.816,0.172-1.626,0.291-2.436c0.048-0.407,0.142-0.807,0.213-1.21
c0.073-0.403,0.151-0.805,0.253-1.203c0.101-0.398,0.177-0.801,0.299-1.194c0.118-0.394,0.217-0.793,0.35-1.182
c0.257-0.782,0.534-1.559,0.873-2.315c0.16-0.381,0.347-0.753,0.535-1.125c0.2-0.374,0.388-0.725,0.65-1.109l-0.085,0.452l0,0
c-0.138-0.529-0.242-1.069-0.407-1.593c-0.158-0.526-0.317-1.053-0.517-1.567c-0.373-1.038-0.835-2.046-1.353-3.026
C58.073,63.878,56.793,62.022,55.235,60.41z"/>
<path fill="#FFFFFF" d="M52.656,34.781c-0.176,1.129-0.366,3.206-0.384,3.396c1.04-0.215,2.355-0.392,3.814-0.37
c2.041,0.028,3.577-0.369,4.825-0.955c0.002-0.019,0.075-0.854-0.031-2.07L52.656,34.781L52.656,34.781z"/>
<defs>
<path id="SVGID_1_" d="M52.656,34.781c-0.176,1.129-0.366,3.206-0.384,3.396c1.04-0.215,2.355-0.392,3.814-0.37
c2.041,0.028,3.577-0.369,4.825-0.955c0.002-0.019,0.075-0.854-0.031-2.07L52.656,34.781L52.656,34.781z"/>
</defs>
<clipPath id="SVGID_2_">
<use xlink:href="#SVGID_1_"  overflow="visible"/>
</clipPath>
<ellipse clip-path="url(#SVGID_2_)" fill="#483525" cx="56.657" cy="37.124" rx="1.592" ry="1.967"/>
<path fill="#FFFFFF" d="M56.83,32.472c0,0-0.54,1.754,0.643,2.035c1.178,0.283,1.464-1.422,1.464-1.422s-0.275,0.874-0.885,0.684
c-0.689-0.219-0.109-1.255-0.109-1.255L56.83,32.472z"/>
<path fill="#FACC63" d="M52.844,35.247c0,0-0.444-5.473,4.351-5.689c0,0,3.799,0.847,3.732,5.358
C60.927,34.916,56.125,35.936,52.844,35.247z"/>
<path fill="#483525" d="M50.075,38.747l0.017,0.04c1.108-0.255,2.215-0.401,3.341-0.541l3.379-0.39
c0.565-0.064,1.132-0.13,1.693-0.222c0.563-0.094,1.131-0.197,1.68-0.376c0.319-0.1,0.627-0.232,0.925-0.385l0.036,0.005
c-0.001-0.007,0.001-0.015,0.001-0.022c0.203-0.104,0.405-0.221,0.6-0.346c0.486-0.317,0.945-0.682,1.326-1.124
c-0.617,0.446-1.267,0.822-1.932,1.162c-0.013-0.76-0.076-1.491-0.18-2.226c-0.062-0.417-0.137-0.835-0.225-1.246
c-0.014-0.056-0.03-0.168-0.027-0.166c0,0-0.213-0.756-0.367-1.052c-0.388-0.768-1-1.402-1.731-1.815
c-0.729-0.417-1.599-0.623-2.446-0.469c-0.847,0.141-1.626,0.634-2.19,1.29c-0.572,0.66-0.979,1.446-1.274,2.26
c-0.007,0.013-0.011,0.031-0.016,0.045c-0.005,0.006-0.01,0.009-0.016,0.011l0.01,0.011c-0.139,0.387-0.258,0.773-0.356,1.175
c-0.1,0.436-0.173,0.847-0.251,1.267c-0.148,0.835-0.271,1.667-0.408,2.504l0.146,0.015
C51.211,38.278,50.624,38.462,50.075,38.747z M53.067,34.525c0.033-0.213,0.076-0.431,0.121-0.646
c0.013-0.01,0.031-0.021,0.045-0.031c0.067-0.379,0.167-0.722,0.304-1.086c-0.012,0.005-0.025,0.01-0.037,0.015
c0.203-0.571,0.473-1.118,0.837-1.587c0.477-0.619,1.133-1.105,1.891-1.268c1.52-0.343,3.214,0.579,3.925,2.036
c0.089,0.184,0.162,0.371,0.22,0.563c0.019,0.07,0.114,0.516,0.132,0.606c0.078,0.409,0.139,0.818,0.174,1.233
c0.071,0.808,0.075,1.642-0.033,2.428c-0.179,0.084-0.356,0.17-0.539,0.247c-0.516,0.222-1.055,0.405-1.615,0.489
c-0.562,0.076-1.125,0.127-1.69,0.166c-1.133,0.073-2.27,0.097-3.405,0.215c-0.179,0.021-0.361,0.041-0.543,0.066
c0.018-0.743,0.056-1.487,0.103-2.224C52.979,35.335,53.013,34.913,53.067,34.525z"/>




<path fill="#483525" d="M61.457,34.789c0,0-0.536,0.13-1.341,0.326c-0.402,0.098-0.872,0.211-1.375,0.333
c-0.515,0.08-1.065,0.166-1.614,0.251c-0.552,0.095-1.107,0.169-1.627,0.201c-0.521,0.043-1.007,0.093-1.426,0.119
c-0.842,0.026-1.403,0.043-1.403,0.043l0.054-0.999c0,0,0.541,0.045,1.352,0.112c0.407,0.021,0.885,0.026,1.397,0.042
c0.514,0.026,1.058,0.016,1.602-0.016c0.548-0.022,1.095-0.044,1.608-0.065c0.514-0.064,0.993-0.124,1.404-0.176
C60.909,34.858,61.457,34.789,61.457,34.789z"/>


<path fill="#483525" d="M53.594,25.258c0.971-0.413,2.151-0.444,3.159-0.162c1.584,0.444,2.707,1.781,3.166,3.33
c0.043,0.146,0.077,0.313,0.063,0.466c-0.024,0.338-0.569-0.209-0.689-0.305c-0.276-0.224-0.57-0.426-0.879-0.603
c-0.812-0.47-1.717-0.765-2.648-0.87c-0.588-0.066-1.182-0.058-1.768,0.013c-1.531,0.184-1.587-0.227-1.58-0.233
C52.435,26.878,51.955,25.956,53.594,25.258z"/>




<path fill="#ED9C1C" d="M43.787,27.843c2.72,1.953,2.978,7.513,3.015,11.018c0,0-0.921-0.38-2.397-0.684
c-0.021-0.216-0.263-2.875-0.455-3.801c-0.061-0.293-0.129-0.575-0.209-0.837c-1.713-5.935-6.854-4.013-7.608-0.873
c-0.012,0.055-0.022,0.104-0.034,0.158c-0.504,2.213-0.336,3.998-0.333,4.027c-1.457-0.681-2.716-1.8-3.717-2.583
c0,0,2.659-2.524,4.604-5.02C38.565,26.792,41.421,26.144,43.787,27.843z"/>






<path fill="#FFFFFF" d="M44.021,34.782c0.176,1.129,0.365,3.206,0.383,3.396c-1.04-0.215-2.356-0.392-3.815-0.37
c-2.041,0.028-3.577-0.369-4.825-0.955c-0.002-0.02-0.075-0.853,0.031-2.07L44.021,34.782L44.021,34.782z"/>






<defs>
<path id="SVGID_3_" d="M44.021,34.782c0.176,1.129,0.365,3.206,0.383,3.396c-1.04-0.215-2.356-0.392-3.815-0.37
c-2.041,0.028-3.577-0.369-4.825-0.955c-0.002-0.02-0.075-0.853,0.031-2.07L44.021,34.782L44.021,34.782z"/>
</defs>
<clipPath id="SVGID_4_">
<use xlink:href="#SVGID_3_"  overflow="visible"/>
</clipPath>
<ellipse clip-path="url(#SVGID_4_)" fill="#483525" cx="40.241" cy="37.124" rx="1.592" ry="1.967"/>






<path fill="#FFFFFF" d="M40.149,32.473c0,0,0.539,1.754-0.643,2.035c-1.179,0.283-1.465-1.422-1.465-1.422
s0.276,0.874,0.886,0.684c0.688-0.219,0.109-1.255,0.109-1.255L40.149,32.473z"/>






<path fill="#FACC63" d="M36.132,32.666c0.754-3.14,5.896-5.062,7.608,0.873c0,0-2.613-1.939-7.643-0.715
C36.109,32.771,36.12,32.721,36.132,32.666z"/>




<path fill="#FACC63" d="M43.846,35.122c0,0,0.431-5.341-4.363-5.563c0,0-3.796,0.817-3.719,5.222
C35.764,34.781,40.566,35.787,43.846,35.122z"/>




<path fill="#483525" d="M44.869,38.153l0.146-0.015c-0.138-0.837-0.26-1.669-0.407-2.504c-0.079-0.42-0.152-0.831-0.252-1.267
c-0.098-0.401-0.217-0.788-0.356-1.175l0.01-0.011c-0.006-0.002-0.011-0.005-0.015-0.011c-0.006-0.014-0.01-0.032-0.017-0.045
c-0.295-0.813-0.702-1.6-1.274-2.26c-0.564-0.656-1.344-1.149-2.19-1.29c-0.847-0.154-1.717,0.052-2.446,0.469
c-0.731,0.413-1.344,1.048-1.731,1.816c-0.154,0.296-0.252,0.621-0.33,0.945c-0.004,0.002-0.01,0.004-0.016,0.006l-0.021,0.101
c0.004-0.002,0.007-0.003,0.012-0.003c-0.012,0.056-0.025,0.113-0.038,0.169c-0.088,0.411-0.164,0.829-0.226,1.246
c-0.103,0.734-0.167,1.466-0.179,2.226c-0.666-0.34-1.315-0.716-1.933-1.162c0.381,0.442,0.84,0.807,1.326,1.124
c0.194,0.125,0.396,0.241,0.6,0.346c0,0.008,0.002,0.016,0.001,0.022l0.037-0.005c0.297,0.153,0.604,0.285,0.924,0.385
c0.549,0.179,1.116,0.282,1.68,0.376c0.562,0.092,1.128,0.157,1.694,0.222l3.378,0.39c1.126,0.14,2.232,0.286,3.341,0.541
l0.017-0.04C46.053,38.463,45.466,38.279,44.869,38.153z M43.723,35.749c0.047,0.736,0.085,1.48,0.103,2.224
c-0.182-0.025-0.364-0.046-0.543-0.066c-1.136-0.118-2.272-0.142-3.405-0.215c-0.564-0.039-1.128-0.09-1.69-0.166
c-0.56-0.084-1.1-0.268-1.615-0.489c-0.183-0.077-0.36-0.163-0.538-0.247c-0.109-0.786-0.105-1.62-0.034-2.428
c0.035-0.415,0.096-0.824,0.174-1.233c0.018-0.091,0.035-0.182,0.055-0.269c0.008-0.001,0.013-0.002,0.021-0.002
c0-0.003,0.001-0.005,0.001-0.008c0.004-0.035,0.016-0.07,0.027-0.106c0.001-0.007,0.007-0.012,0.009-0.019
c-0.011,0.003-0.021,0.006-0.03,0.007c0.015-0.069,0.03-0.14,0.049-0.21c0.058-0.191,0.132-0.379,0.221-0.562
c0.71-1.457,2.404-2.379,3.924-2.036c0.758,0.162,1.414,0.648,1.891,1.267c0.364,0.469,0.634,1.016,0.837,1.587
c-0.012-0.005-0.024-0.01-0.037-0.015c0.137,0.364,0.236,0.707,0.304,1.086c0.014,0.011,0.032,0.021,0.045,0.031
c0.045,0.215,0.088,0.433,0.121,0.646C43.664,34.914,43.698,35.336,43.723,35.749z"/>




<path fill="#483525" d="M35.22,34.603c0,0,0.548,0.069,1.37,0.172c0.411,0.051,0.89,0.111,1.404,0.176
c0.513,0.021,1.061,0.043,1.608,0.065c0.544,0.031,1.088,0.042,1.602,0.016c0.512-0.016,0.99-0.02,1.397-0.042
c0.811-0.067,1.352-0.112,1.352-0.112l0.054,0.999c0,0-0.561-0.017-1.403-0.043c-0.419-0.025-0.906-0.076-1.426-0.119
c-0.52-0.033-1.075-0.106-1.627-0.201c-0.55-0.086-1.099-0.171-1.614-0.251c-0.503-0.122-0.972-0.236-1.375-0.333
C35.756,34.733,35.22,34.603,35.22,34.603z"/>


<path fill="#483525" d="M43.448,25.826c-0.923-0.51-2.095-0.661-3.126-0.483c-1.621,0.28-2.875,1.497-3.488,2.991
c-0.059,0.14-0.109,0.304-0.111,0.456c-0.01,0.339,0.588-0.149,0.717-0.233c0.298-0.194,0.611-0.365,0.936-0.511
c0.856-0.384,1.786-0.585,2.724-0.596c0.592-0.006,1.182,0.063,1.757,0.193c1.505,0.34,1.602-0.063,1.597-0.071
C44.435,27.556,45.007,26.687,43.448,25.826z"/>


<path fill="#483525" d="M37.488,41.995c0,0,0.048,0.082,0.137,0.237c0.101,0.157,0.249,0.394,0.474,0.676
c0.451,0.557,1.143,1.358,2.16,2.111c0.505,0.378,1.079,0.76,1.721,1.103c0.637,0.351,1.339,0.682,2.1,0.925
c0.755,0.261,1.56,0.468,2.391,0.601c0.832,0.143,1.687,0.192,2.544,0.23c0.848-0.023,1.731-0.062,2.543-0.208
c0.824-0.129,1.628-0.355,2.372-0.635c0.751-0.265,1.437-0.625,2.054-1.006c0.621-0.377,1.167-0.794,1.646-1.202
c0.963-0.818,1.586-1.673,1.992-2.263c0.201-0.3,0.331-0.547,0.419-0.712c0.085-0.17,0.113-0.238,0.113-0.238l1.23,0.669
c0,0-0.079,0.121-0.21,0.294c-0.133,0.176-0.341,0.418-0.6,0.722c-0.521,0.605-1.35,1.382-2.429,2.176
c-0.543,0.392-1.155,0.784-1.838,1.127c-0.68,0.347-1.425,0.654-2.21,0.909c-0.785,0.267-1.621,0.439-2.478,0.573
c-0.872,0.142-1.723,0.163-2.607,0.178c-0.875-0.026-1.75-0.065-2.604-0.199c-0.852-0.131-1.691-0.288-2.48-0.532
c-0.791-0.232-1.548-0.501-2.241-0.816c-0.698-0.305-1.332-0.656-1.897-1.012c-1.129-0.717-2.014-1.424-2.581-1.986
c-0.283-0.281-0.509-0.507-0.655-0.673c-0.148-0.175-0.227-0.268-0.227-0.268L37.488,41.995z"/>


<path fill="#483525" d="M53.079,38.123c-1.089-0.43-2.274-0.627-3.432-0.652v-0.007c-0.106-0.004-0.218,0.004-0.325,0.003
c-0.107,0.001-0.218-0.007-0.325-0.003v0.007c-1.157,0.025-2.343,0.223-3.431,0.652c-3.896,1.538-2.752,3.938,0.029,5.982
c1.89,1.39,2.898,1.696,3.726,1.669c0.829,0.027,1.837-0.279,3.727-1.669C55.83,42.061,56.976,39.661,53.079,38.123z"/>




<path fill="#FFFFFF" d="M53.13,40.401c-0.761-0.888-3.819-1.583-6.816-0.791c1.414-1.366,5.885-1.732,7.665,0.294
c0.492,0.56,0.508,1.498-0.357,1.836C53.794,41.457,53.581,40.924,53.13,40.401z"/>




<path fill="#483525" d="M39.238,41.945c0,0-0.078,0.039-0.215,0.107c-0.128,0.06-0.294,0.151-0.485,0.241
c-0.191,0.076-0.385,0.215-0.592,0.285c-0.097,0.057-0.189,0.127-0.289,0.17c-0.103,0.041-0.201,0.089-0.285,0.162
c-0.185,0.113-0.391,0.195-0.558,0.339c-0.084,0.067-0.188,0.116-0.287,0.169c-0.105,0.046-0.166,0.134-0.256,0.189
c-0.318,0.25-0.674,0.42-0.674,0.42s-0.087-0.334-0.001-0.839c0.028-0.122,0.023-0.277,0.108-0.394
c0.068-0.127,0.141-0.267,0.239-0.396c0.102-0.124,0.175-0.292,0.316-0.391c0.135-0.107,0.284-0.204,0.432-0.3
c0.148-0.1,0.307-0.172,0.478-0.206c0.165-0.05,0.334-0.071,0.49-0.102c0.159-0.013,0.317,0.008,0.46,0.02
c0.143,0.003,0.277,0.039,0.397,0.086c0.238,0.071,0.428,0.184,0.548,0.279C39.184,41.87,39.235,41.95,39.238,41.945z"/>


<path fill="#483525" d="M58.881,41.945c0.003,0.005,0.054-0.075,0.174-0.163c0.12-0.095,0.311-0.208,0.548-0.279
c0.12-0.047,0.254-0.083,0.397-0.086c0.143-0.012,0.301-0.033,0.46-0.02c0.156,0.031,0.325,0.053,0.49,0.102
c0.171,0.034,0.33,0.106,0.478,0.206c0.148,0.096,0.297,0.193,0.432,0.3c0.142,0.099,0.215,0.267,0.316,0.391
c0.098,0.129,0.171,0.269,0.239,0.396c0.085,0.117,0.08,0.272,0.108,0.394c0.086,0.506-0.001,0.839-0.001,0.839
s-0.356-0.17-0.674-0.42c-0.09-0.055-0.15-0.143-0.256-0.189c-0.099-0.053-0.203-0.102-0.287-0.169
c-0.167-0.144-0.373-0.226-0.558-0.339c-0.084-0.072-0.181-0.121-0.285-0.162c-0.101-0.043-0.193-0.113-0.289-0.17
c-0.207-0.07-0.401-0.21-0.592-0.285c-0.191-0.09-0.357-0.181-0.485-0.241C58.959,41.984,58.881,41.945,58.881,41.945z"/>




<path fill="#F2DBA8" d="M103.053,97.216c0,4.825-4.925,6.147-11,6.147s-11-1.322-11-6.147c0-4.824,4.925-8.735,11-8.735
S103.053,92.392,103.053,97.216z"/>
<path fill="#483525" d="M103.761,97.24c0.024,1.301-0.388,2.826-1.356,3.891c-0.944,1.091-2.215,1.726-3.459,2.141
c-2.527,0.779-5.093,0.871-7.598,0.827c-2.517-0.104-5.111-0.312-7.529-1.499c-1.184-0.596-2.304-1.578-2.851-2.881
c-0.275-0.642-0.418-1.325-0.454-1.997c-0.017-0.329-0.01-0.686,0.013-0.985c0.031-0.349,0.079-0.682,0.148-1.004
c0.576-2.636,2.515-4.707,4.74-5.922c2.242-1.238,4.825-1.756,7.344-1.653c2.537,0.103,5.081,0.837,7.209,2.343
c1.055,0.755,2.002,1.708,2.684,2.861c0.68,1.148,1.085,2.491,1.108,3.855L103.761,97.24L103.761,97.24z M102.345,97.216
c0.069-2.247-1.173-4.426-2.998-5.899c-1.827-1.499-4.215-2.332-6.61-2.474c-2.418-0.143-4.883,0.389-6.94,1.628
c-2.046,1.214-3.69,3.187-4.09,5.467c-0.051,0.285-0.08,0.566-0.098,0.835c-0.012,0.318-0.006,0.581,0.017,0.87
c0.05,0.562,0.187,1.104,0.416,1.593c0.456,0.985,1.328,1.719,2.358,2.199c2.082,0.967,4.568,1.151,6.967,1.181
c2.43,0.009,4.89-0.103,7.104-0.811c1.09-0.356,2.125-0.865,2.822-1.655c0.716-0.781,1.042-1.796,1.053-2.957v0.023H102.345z"/>


<path fill="#F2DBA8" d="M99.178,93.114c0,0,2.75,3.844,0.103,6.094c-2.662,2.264-6.814,2.135-9.541,1.758"/>
<path fill="#483525" d="M99.178,93.114c0.866,1.08,1.549,2.422,1.507,3.93c-0.017,0.747-0.314,1.517-0.834,2.083
c-0.524,0.581-1.113,0.962-1.766,1.314c-1.302,0.667-2.747,0.948-4.162,0.996c-1.42,0.036-2.827-0.119-4.183-0.472
c1.398,0.025,2.782,0.036,4.139-0.128c1.352-0.16,2.683-0.463,3.869-1.057c0.575-0.291,1.169-0.682,1.602-1.114
c0.435-0.448,0.713-1.029,0.799-1.669C100.294,95.702,99.816,94.335,99.178,93.114z"/>

<ellipse fill="#483525" cx="89.865" cy="90.645" rx="0.75" ry="0.531"/>
<ellipse fill="#483525" cx="87.896" cy="91.864" rx="0.447" ry="0.376"/>
<ellipse fill="#483525" cx="85.214" cy="95.955" rx="0.556" ry="0.469"/>
<ellipse fill="#483525" cx="91.458" cy="93.27" rx="0.447" ry="0.376"/>





<path fill="#F2DBA8" d="M29.417,103.81c0.03,1.447-2.205,6.09-13.168,5.497c-1.84-0.1-7.689-0.619-8.791-2.665
c-0.388-0.72,0.111-1.664-0.426-2.341c-0.873-1.102-1.625-1.542-1.354-2.834c0.332-1.586,2.526-1.352,2.885-3.144
c0.209-1.044,0.174-3.007,2.271-2.682c1.895,0.294,1.773,0.295,2.407-1.237c0.673-1.627,1.926-1.639,3.125-0.406
c1.149,1.182,0.808,1.644,2.491,0.728c0.901-0.491,2.143-1.201,3.057-0.579c0.93,0.633,0.566,1.936,1.385,2.446
c0.881,0.549,2.675-0.047,3.491,0.518c1.037,0.719,0.697,1.745,0.747,2.79c0.079,1.632,1.824,2.128,1.88,3.858
C29.417,103.776,29.417,103.793,29.417,103.81z"/>
<path fill="#483525" d="M30.125,103.812c-0.023,0.964-0.418,1.684-0.864,2.338c-0.462,0.644-1.033,1.179-1.65,1.622
c-1.241,0.886-2.647,1.424-4.057,1.779c-2.847,0.665-5.721,0.659-8.546,0.417c-1.412-0.146-2.818-0.358-4.22-0.724
c-0.699-0.187-1.399-0.411-2.088-0.74c-0.669-0.346-1.417-0.74-1.877-1.659c-0.226-0.517-0.182-0.978-0.174-1.315
c0.019-0.351,0.008-0.602-0.058-0.737c-0.011-0.034-0.04-0.07-0.051-0.095l-0.16-0.205l-0.318-0.384
c-0.221-0.269-0.472-0.541-0.691-0.921c-0.228-0.369-0.354-0.88-0.322-1.319c0.017-0.224,0.047-0.421,0.104-0.633
c0.058-0.214,0.17-0.462,0.3-0.644c0.578-0.78,1.345-0.995,1.843-1.34c0.533-0.343,0.772-0.676,0.855-1.358
c0.131-0.662,0.184-1.483,0.823-2.175c0.322-0.337,0.8-0.511,1.215-0.529c0.428-0.031,0.807,0.064,1.13,0.114
c0.329,0.054,0.695,0.117,0.912,0.089c0.102-0.02,0.116-0.024,0.189-0.109c0.067-0.086,0.141-0.231,0.207-0.381
c0.133-0.29,0.27-0.652,0.433-0.963c0.197-0.362,0.439-0.683,0.817-0.916c0.372-0.232,0.861-0.295,1.265-0.185
c0.408,0.102,0.749,0.311,1.046,0.547c0.301,0.239,0.549,0.507,0.783,0.783c0.224,0.258,0.467,0.614,0.602,0.688
c0.047,0.067,0.396-0.039,0.68-0.195l0.907-0.497c0.626-0.319,1.314-0.698,2.188-0.619c0.441,0.043,0.847,0.27,1.145,0.603
c0.292,0.345,0.429,0.745,0.531,1.083c0.104,0.342,0.19,0.653,0.332,0.821c0.119,0.167,0.335,0.245,0.61,0.287
c0.587,0.077,1.276-0.036,2.054,0.008c0.197,0.014,0.407,0.041,0.631,0.109c0.113,0.037,0.226,0.077,0.342,0.146l0.085,0.048
l0.021,0.012l0.037,0.027l0.026,0.02l0.105,0.077c0.381,0.284,0.656,0.712,0.773,1.157c0.213,0.892,0.037,1.585,0.151,2.146
c0.075,0.417,0.451,0.887,0.931,1.426c0.234,0.277,0.488,0.6,0.682,0.994c0.196,0.388,0.303,0.861,0.32,1.28l0.001,0.013V103.812
z M28.707,103.816c0-0.522-0.204-0.932-0.622-1.455c-0.395-0.516-1-1.138-1.146-2.127c-0.096-0.818,0.093-1.534-0.021-2.01
c-0.11-0.448-0.412-0.793-0.997-0.841c-0.608-0.08-1.317,0.01-2.11-0.127c-0.398-0.072-0.888-0.27-1.165-0.689
c-0.274-0.4-0.326-0.793-0.415-1.113c-0.128-0.66-0.44-1.081-0.979-1.16c-0.532-0.079-1.174,0.192-1.767,0.491l-0.935,0.48
c-0.165,0.077-0.333,0.155-0.531,0.219c-0.186,0.06-0.493,0.111-0.763-0.04c-0.452-0.309-0.553-0.592-0.797-0.843
c-0.215-0.254-0.444-0.497-0.69-0.689c-0.485-0.402-1.096-0.603-1.523-0.297c-0.217,0.132-0.408,0.391-0.533,0.64
c-0.153,0.309-0.25,0.602-0.396,0.949c-0.073,0.168-0.145,0.343-0.283,0.537c-0.126,0.201-0.428,0.395-0.673,0.422
c-0.476,0.063-0.804-0.016-1.161-0.052c-0.715-0.125-1.271-0.137-1.589,0.225c-0.33,0.354-0.427,1.021-0.514,1.704
c-0.041,0.341-0.117,0.791-0.35,1.174c-0.223,0.387-0.554,0.682-0.871,0.901c-0.638,0.431-1.268,0.706-1.499,1.099
c-0.063,0.106-0.095,0.179-0.127,0.302c-0.03,0.124-0.046,0.273-0.05,0.396c0.001,0.254,0.055,0.446,0.196,0.668
c0.135,0.219,0.361,0.461,0.594,0.717l0.362,0.405l0.169,0.199c0.089,0.119,0.162,0.224,0.22,0.35
c0.236,0.502,0.207,0.973,0.208,1.31c-0.009,0.351,0.01,0.612,0.079,0.734c0.164,0.353,0.694,0.725,1.257,0.972
c0.571,0.259,1.205,0.452,1.852,0.608c1.298,0.311,2.653,0.485,4.008,0.599c2.703,0.222,5.468,0.196,8.046-0.421
c1.284-0.302,2.527-0.769,3.565-1.487c0.517-0.359,0.977-0.784,1.334-1.266C28.435,104.833,28.702,104.255,28.707,103.816z"/>






<path fill="#F2DBA8" d="M87.736,104.921c0,4.825-4.925,6.147-11,6.147s-11-1.322-11-6.147c0-4.824,4.925-8.735,11-8.735
S87.736,100.097,87.736,104.921z"/>
<path fill="#483525" d="M88.444,104.945c0.024,1.301-0.388,2.826-1.355,3.891c-0.944,1.091-2.215,1.726-3.459,2.141
c-2.527,0.779-5.093,0.871-7.598,0.827c-2.517-0.104-5.111-0.312-7.529-1.499c-1.184-0.596-2.304-1.578-2.851-2.881
c-0.275-0.642-0.418-1.325-0.454-1.997c-0.017-0.329-0.01-0.686,0.013-0.985c0.031-0.349,0.079-0.682,0.148-1.004
c0.576-2.636,2.515-4.707,4.74-5.922c2.242-1.238,4.825-1.756,7.344-1.653c2.537,0.103,5.081,0.837,7.209,2.343
c1.055,0.755,2.002,1.708,2.684,2.861c0.68,1.149,1.085,2.491,1.108,3.856V104.945z M87.028,104.921
c0.069-2.247-1.173-4.426-2.998-5.899c-1.827-1.499-4.215-2.332-6.61-2.474c-2.418-0.143-4.883,0.389-6.94,1.628
c-2.046,1.214-3.69,3.187-4.09,5.467c-0.051,0.285-0.08,0.566-0.098,0.835c-0.012,0.318-0.006,0.581,0.017,0.87
c0.05,0.562,0.187,1.104,0.416,1.593c0.456,0.985,1.328,1.719,2.358,2.199c2.082,0.967,4.568,1.151,6.967,1.181
c2.43,0.009,4.89-0.103,7.104-0.811c1.09-0.356,2.125-0.865,2.822-1.655c0.716-0.781,1.042-1.796,1.053-2.957v0.023H87.028z"/>


<path fill="#F2DBA8" d="M83.861,100.819c0,0,2.75,3.844,0.104,6.094c-2.662,2.264-6.814,2.135-9.541,1.758"/>
<path fill="#483525" d="M83.861,100.819c0.866,1.08,1.549,2.422,1.507,3.93c-0.017,0.747-0.314,1.517-0.834,2.083
c-0.523,0.581-1.113,0.962-1.766,1.314c-1.302,0.667-2.747,0.948-4.162,0.996c-1.42,0.036-2.827-0.119-4.183-0.472
c1.397,0.025,2.782,0.036,4.139-0.128c1.352-0.16,2.683-0.463,3.869-1.057c0.575-0.291,1.169-0.682,1.602-1.114
c0.435-0.448,0.713-1.029,0.799-1.669C84.978,103.407,84.5,102.04,83.861,100.819z"/>

<ellipse fill="#483525" cx="74.549" cy="98.35" rx="0.75" ry="0.531"/>
<ellipse fill="#483525" cx="72.58" cy="99.569" rx="0.447" ry="0.376"/>
<ellipse fill="#483525" cx="69.898" cy="103.661" rx="0.556" ry="0.469"/>
<ellipse fill="#483525" cx="76.142" cy="100.975" rx="0.447" ry="0.376"/>



<path fill="#483525" d="M28.145,98.673c0,0-0.073,0.356-0.252,0.798c-0.183,0.452-0.473,1.036-0.89,1.527
c-0.408,0.498-0.933,0.873-1.355,1.059c-0.418,0.199-0.725,0.227-0.719,0.243c-0.008-0.014,0.282-0.119,0.62-0.402
c0.344-0.271,0.714-0.719,0.95-1.227c0.245-0.504,0.361-1.056,0.415-1.463c0.053-0.421,0.036-0.661,0.036-0.661L28.145,98.673z"/>


<path fill="#483525" d="M17.213,94.617c0,0,0.03,0.069,0.087,0.162c0.05,0.097,0.145,0.232,0.25,0.402
c0.102,0.17,0.244,0.356,0.39,0.557c0.161,0.188,0.305,0.419,0.503,0.598c0.096,0.093,0.184,0.193,0.273,0.292
c0.084,0.105,0.194,0.175,0.287,0.261c0.198,0.154,0.355,0.347,0.533,0.448c0.333,0.239,0.558,0.423,0.558,0.423
s-0.269-0.072-0.675-0.219c-0.209-0.064-0.421-0.196-0.653-0.336c-0.238-0.132-0.464-0.312-0.681-0.505
c-0.438-0.381-0.796-0.847-1.017-1.223c-0.11-0.188-0.188-0.355-0.24-0.479c-0.056-0.123-0.075-0.184-0.075-0.184L17.213,94.617z"
/>


<path fill="#483525" d="M9.095,97.846c-0.001,0.008,0,0.109,0.027,0.334c0.024,0.217,0.09,0.527,0.235,0.852
c0.138,0.331,0.395,0.646,0.774,0.844c0.367,0.22,0.873,0.259,1.444,0.312c0.565,0.059,1.158,0.185,1.665,0.461
c0.256,0.128,0.477,0.314,0.649,0.515c0.17,0.205,0.287,0.425,0.366,0.634c0.07,0.21,0.126,0.407,0.132,0.583
c0.008,0.176,0.03,0.326,0.013,0.45c-0.021,0.245-0.033,0.385-0.033,0.385c-0.025,0.013-0.021-0.594-0.394-1.287
c-0.098-0.168-0.226-0.331-0.388-0.47c-0.169-0.13-0.349-0.261-0.571-0.344c-0.431-0.19-0.959-0.226-1.495-0.265
c-0.528-0.029-1.167-0.03-1.729-0.315c-0.283-0.122-0.508-0.337-0.7-0.541c-0.179-0.217-0.32-0.444-0.411-0.664
c-0.188-0.441-0.225-0.828-0.243-1.093c-0.013-0.259,0.012-0.437,0.01-0.428L9.095,97.846z"/>


<path fill="#483525" d="M10.678,103.78c0,0-0.21,0.212-0.611,0.426c-0.096,0.064-0.21,0.109-0.331,0.159
c-0.122,0.046-0.249,0.113-0.389,0.15c-0.282,0.052-0.592,0.167-0.911,0.142c-0.162,0-0.325,0.001-0.484,0.001
c-0.158-0.014-0.308-0.061-0.458-0.091c-0.151-0.035-0.297-0.07-0.436-0.102c-0.143-0.029-0.248-0.107-0.362-0.153
c-0.445-0.221-0.742-0.368-0.742-0.368l0.751-0.936c0,0,0.196,0.169,0.489,0.422c0.077,0.058,0.15,0.154,0.25,0.198
c0.099,0.051,0.203,0.105,0.31,0.161c0.11,0.053,0.222,0.128,0.344,0.172l0.384,0.097c0.261,0.096,0.535,0.06,0.799,0.083
c0.131,0.001,0.255-0.03,0.377-0.043c0.121-0.016,0.238-0.03,0.339-0.066C10.419,103.931,10.678,103.78,10.678,103.78z"/>


<path fill="#483525" d="M19.637,105.42c0,0,0.023,0.371-0.125,0.918c-0.025,0.141-0.1,0.274-0.155,0.428
c-0.061,0.151-0.116,0.318-0.225,0.461c-0.098,0.152-0.2,0.308-0.304,0.468c-0.11,0.156-0.264,0.275-0.398,0.417
c-0.144,0.129-0.27,0.291-0.431,0.392c-0.163,0.101-0.324,0.2-0.479,0.296c-0.158,0.096-0.312,0.19-0.457,0.278
c-0.156,0.056-0.304,0.11-0.441,0.159c-0.556,0.197-0.926,0.328-0.926,0.328l-0.169-0.986c0,0,0.338-0.059,0.844-0.147
c0.129-0.022,0.269-0.046,0.417-0.071c0.135-0.055,0.278-0.112,0.426-0.172c0.151-0.06,0.307-0.122,0.465-0.185
c0.16-0.064,0.283-0.185,0.43-0.276c0.137-0.103,0.298-0.187,0.418-0.307c0.117-0.127,0.232-0.251,0.343-0.372
c0.125-0.115,0.198-0.257,0.279-0.387c0.074-0.133,0.17-0.25,0.215-0.377C19.594,105.793,19.637,105.42,19.637,105.42z"/>


<path fill="#483525" d="M19.471,104.069c0,0,0.004,0.105,0.012,0.289c0.002,0.18,0.035,0.44,0.089,0.732
c0.105,0.593,0.5,1.281,1.216,1.568c0.312,0.129,0.712,0.171,1.062,0.129c0.356-0.037,0.691-0.13,0.947-0.276
c0.255-0.141,0.462-0.294,0.573-0.434c0.119-0.133,0.18-0.222,0.18-0.222s-0.02,0.105-0.101,0.275
c-0.081,0.169-0.235,0.407-0.499,0.612c-0.512,0.41-1.451,0.735-2.371,0.367c-0.182-0.071-0.418-0.228-0.578-0.364
c-0.177-0.147-0.315-0.332-0.426-0.518c-0.225-0.378-0.272-0.784-0.286-1.107c-0.015-0.329,0.058-0.593,0.097-0.774
C19.43,104.167,19.471,104.069,19.471,104.069z"/>


<path fill="#483525" d="M18.825,102.235c0,0-0.039-0.098-0.108-0.271c-0.064-0.167-0.195-0.395-0.375-0.627
c-0.359-0.476-1.08-0.853-1.846-0.802c-0.715,0.054-1.417,0.561-1.742,1.044c-0.164,0.244-0.279,0.476-0.313,0.653
c-0.046,0.174-0.058,0.282-0.058,0.282c0.006,0-0.031-0.103-0.037-0.293c-0.005-0.189,0.022-0.474,0.166-0.779
c0.271-0.602,0.974-1.326,1.964-1.405c0.459-0.022,0.929,0.086,1.304,0.309c0.383,0.214,0.637,0.547,0.8,0.836
c0.168,0.294,0.206,0.573,0.233,0.76C18.834,102.128,18.825,102.235,18.825,102.235z"/>


<path fill="#483525" d="M10.856,103.522c0,0-0.124,0.302-0.216,0.746c-0.103,0.443-0.101,1.032,0.16,1.504
c0.081,0.109,0.138,0.235,0.239,0.331c0.104,0.091,0.175,0.213,0.293,0.287c0.206,0.177,0.422,0.329,0.621,0.446
c0.195,0.121,0.37,0.212,0.489,0.281c0.12,0.07,0.189,0.117,0.189,0.117s-0.08-0.004-0.219-0.024
c-0.135-0.032-0.346-0.03-0.574-0.117c-0.229-0.082-0.507-0.168-0.77-0.35c-0.14-0.073-0.259-0.198-0.384-0.312
c-0.126-0.115-0.217-0.274-0.321-0.416c-0.066-0.166-0.156-0.325-0.18-0.501c-0.049-0.171-0.04-0.343-0.041-0.507
c0.026-0.326,0.127-0.609,0.233-0.831C10.598,103.729,10.856,103.522,10.856,103.522z"/>


<path fill="#483525" d="M70.043,78.453c-2.97-1.864-5.812-3.945-8.449-6.186l0.646-0.762c2.602,2.209,5.405,4.262,8.334,6.1
L70.043,78.453z"/>


<path fill="#483525" d="M71.934,77.03c-0.385,0.225-0.712,0.481-1.046,0.741c-0.321,0.27-0.632,0.549-0.932,0.829l-0.86,0.889
c-0.255,0.327-0.516,0.646-0.784,0.959c-0.281,0.301-0.468,0.684-0.706,1.021c-0.212,0.357-0.484,0.673-0.648,1.061L66.4,83.649
l-0.611,1.157l-0.612,1.131c-0.178,0.381-0.459,0.746-0.737,1.108l-0.827,1.082l-0.953,0.941c-0.303,0.33-0.667,0.591-1.023,0.862
c-0.352,0.276-0.706,0.549-1.103,0.762c-0.382,0.234-0.768,0.462-1.186,0.637c-0.411,0.2-0.816,0.351-1.296,0.491l-0.367,0.107
l-0.228-0.406c-0.079-0.141-0.209-0.364-0.355-0.525c-0.155-0.168-0.281-0.359-0.472-0.496c-0.183-0.142-0.339-0.315-0.539-0.434
l-0.605-0.352c-0.19-0.139-0.435-0.178-0.652-0.267l-0.668-0.237l-1.426-0.217c-0.486-0.006-0.977,0.014-1.465,0.018l-1.563,0.027
l-0.769,0.013c-0.27-0.019-0.564-0.079-0.845-0.121c-0.283-0.062-0.57-0.06-0.846-0.19c-0.284-0.121-0.534-0.165-0.869-0.413
l0.501,0.105c-0.032,0.016-0.149,0.062-0.208,0.115c-0.075,0.048-0.138,0.108-0.187,0.171c-0.056,0.061-0.088,0.135-0.119,0.212
c-0.025,0.034-0.021,0.084-0.03,0.127l-0.012,0.067l-0.007,0.034l-0.004,0.017l-0.002,0.008v0.001
c-0.01-0.172-0.003-0.047-0.005-0.085v0.003l0.001,0.007l0.049,0.42c0.03,0.115,0.086,0.118,0.103,0.194
c0.003,0.065,0.124,0.141,0.176,0.217c0.055,0.085,0.156,0.145,0.255,0.206c0.102,0.057,0.181,0.142,0.305,0.178l0.348,0.141
c0.112,0.057,0.249,0.067,0.373,0.104l0.383,0.09c0.266,0.03,0.531,0.069,0.8,0.093l0.817,0.012l0.064,0.699
c-0.9,0.128-1.82,0.409-2.665,0.785c-0.209,0.101-0.427,0.185-0.628,0.299c-0.2,0.115-0.415,0.207-0.602,0.341
c-0.39,0.246-0.751,0.525-1.093,0.82l-0.481,0.471l-0.416,0.518c-0.13,0.177-0.232,0.372-0.349,0.555
c-0.128,0.177-0.181,0.394-0.277,0.586c-0.101,0.191-0.159,0.399-0.212,0.607l-0.088,0.309l-0.022,0.077l-0.006,0.019
c0.025-0.133,0.007-0.035,0.012-0.064v0.003v0.006l-0.001,0.011c-0.002,0.017,0,0.029,0,0.029c0.004,0.009,0.004,0.02,0.011,0.041
c0.04,0.091-0.006-0.056-0.057-0.05c0.045-0.028,0.027,0.008,0.112-0.019c0.073-0.023,0.146-0.037,0.221-0.049l0.797,1.018
c0.004-0.004-0.02,0.046-0.028,0.074c-0.012,0.033-0.02,0.064-0.026,0.093c-0.009,0.054-0.011,0.1-0.003,0.1
c-0.001,0.01,0.002-0.022-0.012-0.021c0,0,0.02,0.015,0.071,0.037c0.016,0.014,0.066,0.018,0.096,0.029
c0.034,0.01,0.067,0.024,0.118,0.026c0.094,0.01,0.177,0.033,0.289,0.03c0.205,0.016,0.437-0.005,0.663-0.016l0.615-0.031
l0.154,0.654c0.019,0.079,0.105,0.275,0.215,0.308c0.064,0.031,0.146,0.049,0.238,0.072l0.353-0.008l0.414-0.103l0.104-0.024
l0.154-0.042l0.254-0.07c0.336-0.095,0.67-0.192,1.051-0.255c0.75-0.158,1.437-0.243,2.138-0.347l2.062-0.3
c0.672-0.121,1.341-0.251,1.984-0.436c0.333-0.071,0.632-0.206,0.946-0.314l0.414-0.149l0.461-0.254
c0.349-0.16,0.508-0.363,0.745-0.534c0.223-0.186,0.445-0.433,0.648-0.669c0.201-0.248,0.398-0.503,0.558-0.788
c0.162-0.275,0.317-0.585,0.408-0.863l0.062-0.19l0.153-0.085c0.739-0.412,1.454-0.869,2.179-1.304l1.085-0.66
c0.369-0.208,0.693-0.486,1.042-0.725l2.049-1.498c0.346-0.243,0.651-0.54,0.979-0.807l0.966-0.822
c0.656-0.533,1.274-1.111,1.874-1.706l0.912-0.879c0.312-0.285,0.585-0.608,0.877-0.913l0.869-0.919
c0.296-0.301,0.555-0.633,0.834-0.947c0.553-0.628,1.089-1.295,1.569-1.942l0.362-0.488l0.484,0.266l0.451,0.248
c0.147,0.092,0.3,0.159,0.429,0.293c0.129,0.127,0.258,0.249,0.379,0.381c0.121,0.174,0.213,0.268,0.343,0.515l-1.036,0.14
c0.065-0.246,0.142-0.497,0.159-0.755c0.025-0.257,0.045-0.516,0.025-0.776c0-0.261-0.05-0.52-0.107-0.773
c-0.031-0.126-0.06-0.254-0.104-0.374c-0.036-0.119-0.09-0.251-0.129-0.339l-0.562-1.268L76.58,78.3
c0.331,0.194,0.707,0.337,0.988,0.584c0.309,0.225,0.578,0.459,0.851,0.75l-0.759,0.323c-0.078-0.72-0.449-1.475-0.823-2.185
c-0.38-0.72-0.85-1.407-1.316-2.092c-0.953-1.361-2.002-2.666-3.067-3.961c-1.065-1.298-2.164-2.563-3.227-3.894l-3.115-3.965
c-1.048-1.308-2.11-2.604-3.248-3.806c-0.57-0.598-1.158-1.175-1.785-1.688c-0.622-0.521-1.296-0.95-2.004-1.287
c-0.71-0.339-1.481-0.496-2.268-0.603c-0.779-0.117-1.607-0.088-2.508-0.248c-0.881-0.157-1.786-0.471-2.45-1.193
c-0.647-0.751-0.821-1.732-0.908-2.743l1.349,0.292c-0.445,0.613-0.424,1.485,0.049,2.031c0.464,0.569,1.28,0.784,2.047,0.831
c0.768,0.064,1.636-0.086,2.529,0.01c0.88,0.079,1.774,0.295,2.59,0.676c0.811,0.385,1.562,0.873,2.229,1.433
c0.675,0.554,1.288,1.16,1.877,1.78c1.173,1.245,2.242,2.558,3.295,3.877c1.055,1.319,2.085,2.657,3.107,3.984
c1.025,1.308,2.122,2.594,3.18,3.907c1.06,1.314,2.11,2.642,3.076,4.046c0.474,0.71,0.95,1.419,1.35,2.191
c0.391,0.774,0.798,1.557,0.902,2.526l0.138,1.287l-0.897-0.964c-0.2-0.215-0.447-0.448-0.704-0.624
c-0.245-0.214-0.537-0.308-0.804-0.461l0.55-0.615c0.086,0.169,0.142,0.302,0.196,0.453c0.059,0.147,0.1,0.296,0.143,0.446
c0.078,0.3,0.147,0.605,0.178,0.915c0.046,0.309,0.049,0.621,0.041,0.935c0,0.314-0.074,0.621-0.087,0.94l-0.029,0.704
l-1.008-0.564c-0.021-0.012-0.159-0.116-0.228-0.172l-0.313-0.186c-0.088-0.074-0.223-0.115-0.328-0.181l-0.329-0.192l0.845-0.222
c-0.551,0.714-1.101,1.368-1.689,2.012c-0.294,0.318-0.569,0.656-0.879,0.958l-0.912,0.924c-0.31,0.301-0.602,0.622-0.931,0.903
l-0.965,0.866c-0.635,0.586-1.287,1.152-1.976,1.674l-1.015,0.804c-0.344,0.261-0.664,0.551-1.026,0.787l-2.13,1.468
c-0.36,0.237-0.694,0.512-1.074,0.718l-1.117,0.652c-0.742,0.439-1.495,0.858-2.223,1.32l0.215-0.275
c-0.11,0.394-0.22,0.736-0.376,1.086c-0.147,0.349-0.332,0.681-0.536,1.007c-0.224,0.315-0.457,0.612-0.748,0.898
c-0.31,0.266-0.65,0.571-0.944,0.709l-0.455,0.263c-0.268,0.129-0.371,0.152-0.565,0.233c-0.346,0.128-0.688,0.286-1.042,0.37
c-0.702,0.218-1.408,0.37-2.114,0.513c-0.703,0.124-1.406,0.241-2.098,0.338c-0.686,0.106-1.391,0.205-2.014,0.341
c-0.313,0.05-0.653,0.15-0.991,0.249l-0.504,0.138l-0.607,0.149c-0.222,0.024-0.466,0.018-0.698,0.017
c-0.244-0.038-0.518-0.105-0.758-0.233c-0.121-0.077-0.24-0.16-0.353-0.248c-0.101-0.098-0.187-0.213-0.274-0.325
c-0.155-0.246-0.253-0.453-0.308-0.795l0.768,0.623c-0.284,0.021-0.562,0.051-0.869,0.036c-0.145,0.004-0.313-0.023-0.473-0.044
c-0.077-0.007-0.167-0.032-0.255-0.058c-0.09-0.029-0.17-0.042-0.267-0.089c-0.186-0.078-0.384-0.198-0.563-0.384
c-0.173-0.197-0.306-0.456-0.335-0.703c-0.043-0.251-0.01-0.466,0.033-0.659c0.024-0.095,0.053-0.187,0.088-0.273
c0.038-0.092,0.066-0.158,0.132-0.274l0.797,1.018c-0.161,0.033-0.323,0.064-0.485,0.086c-0.15,0.032-0.41-0.015-0.602-0.047
c-0.232-0.088-0.498-0.22-0.642-0.457c-0.09-0.114-0.141-0.226-0.17-0.336c-0.041-0.115-0.062-0.223-0.065-0.32
c-0.012-0.097-0.01-0.206,0.001-0.317l0.007-0.061l0.016-0.089l0.008-0.024l0.033-0.094l0.133-0.376
c0.085-0.252,0.176-0.5,0.313-0.728c0.137-0.227,0.235-0.476,0.405-0.678c0.16-0.208,0.307-0.426,0.48-0.62l0.542-0.555
l0.592-0.488c0.817-0.608,1.715-1.059,2.631-1.426c0.928-0.356,1.863-0.61,2.856-0.792l0.064,0.699l-0.874,0.027
c-0.293-0.004-0.589-0.026-0.885-0.039l-0.447-0.071c-0.149-0.031-0.299-0.035-0.448-0.09l-0.449-0.141
c-0.152-0.034-0.295-0.138-0.443-0.21c-0.147-0.077-0.295-0.154-0.423-0.289c-0.128-0.138-0.276-0.209-0.378-0.413
c-0.099-0.179-0.219-0.411-0.255-0.566l-0.067-0.417l-0.007-0.1l0.002-0.018l0.003-0.036l0.007-0.071l0.017-0.142
c0.015-0.095,0.017-0.19,0.058-0.283c0.061-0.191,0.142-0.374,0.266-0.535c0.115-0.161,0.257-0.308,0.415-0.415
c0.163-0.12,0.306-0.194,0.537-0.275l0.249-0.088l0.252,0.192c0.081,0.062,0.338,0.143,0.527,0.219
c0.19,0.101,0.435,0.091,0.65,0.141c0.226,0.032,0.435,0.088,0.674,0.108l0.769-0.014l1.512-0.027
c0.537-0.006,1.073-0.03,1.61-0.017l1.613,0.264l0.78,0.281c0.255,0.107,0.53,0.161,0.762,0.325l0.719,0.43
c0.236,0.148,0.434,0.357,0.651,0.535c0.224,0.171,0.391,0.409,0.577,0.623c0.187,0.228,0.327,0.448,0.484,0.759l-0.595-0.299
c0.341-0.102,0.743-0.25,1.1-0.431c0.375-0.158,0.724-0.371,1.072-0.588c0.361-0.195,0.683-0.45,1.004-0.706
c0.326-0.25,0.657-0.493,0.929-0.805L62.78,87.4l0.717-0.975c0.239-0.323,0.495-0.629,0.68-1.031l0.609-1.133l1.209-2.285
c0.187-0.399,0.488-0.738,0.727-1.109c0.267-0.354,0.477-0.746,0.791-1.066c0.294-0.334,0.597-0.662,0.904-0.981
c0.333-0.299,0.7-0.561,1.047-0.835c0.384-0.233,0.771-0.459,1.181-0.632C71.058,77.192,71.493,77.046,71.934,77.03z"/>


<path fill="#483525" d="M51.621,92.947c0,0-0.564,0.186-1.373,0.552c-0.41,0.167-0.869,0.409-1.364,0.651
c-0.251,0.115-0.49,0.273-0.743,0.412c-0.249,0.145-0.502,0.293-0.756,0.44c-0.241,0.165-0.482,0.33-0.719,0.493
c-0.232,0.168-0.48,0.306-0.678,0.493c-0.206,0.175-0.405,0.345-0.594,0.506c-0.183,0.166-0.379,0.298-0.517,0.462
c-0.565,0.633-0.942,1.056-0.942,1.056l-0.765-0.644c0,0,0.459-0.417,1.147-1.043c0.168-0.159,0.389-0.279,0.6-0.433
c0.216-0.147,0.444-0.303,0.679-0.464c0.228-0.172,0.499-0.289,0.756-0.437c0.261-0.141,0.525-0.284,0.79-0.427
c0.274-0.123,0.547-0.246,0.816-0.367c0.272-0.114,0.529-0.247,0.795-0.337c0.526-0.192,1.01-0.385,1.439-0.509
C51.041,93.072,51.621,92.947,51.621,92.947z"/>


<path fill="#483525" d="M53.226,94.655c0,0-0.569,0.174-1.39,0.515c-0.415,0.156-0.883,0.381-1.386,0.609
c-0.502,0.233-1.014,0.526-1.534,0.796c-0.248,0.156-0.495,0.312-0.739,0.466c-0.239,0.16-0.493,0.288-0.702,0.463
c-0.214,0.167-0.421,0.328-0.617,0.481c-0.191,0.157-0.389,0.286-0.541,0.438c-0.593,0.608-0.989,1.014-0.989,1.014l-0.736-0.677
c0,0,0.478-0.397,1.195-0.993c0.18-0.145,0.402-0.26,0.621-0.404c0.222-0.138,0.457-0.284,0.699-0.435
c0.237-0.158,0.513-0.264,0.776-0.402c0.266-0.131,0.536-0.263,0.807-0.396c0.56-0.22,1.108-0.461,1.639-0.642
c0.532-0.177,1.023-0.352,1.456-0.465C52.642,94.768,53.226,94.655,53.226,94.655z"/>


<path fill="#483525" d="M46.5,91.699c-0.018,0.005,0.306-0.217,0.787-0.428c0.49-0.194,1.164-0.406,1.858-0.466
c0.342-0.062,0.691-0.061,1.015-0.042c0.323-0.001,0.624,0.027,0.878,0.091c0.509,0.099,0.833,0.217,0.833,0.217
s-0.342,0.104-0.832,0.182c-0.246,0.031-0.527,0.111-0.826,0.163c-0.301,0.047-0.612,0.131-0.924,0.202
c-0.315,0.058-0.617,0.162-0.901,0.249c-0.289,0.07-0.545,0.175-0.768,0.249c-0.448,0.161-0.703,0.272-0.719,0.279L46.5,91.699z"/>


<path fill="#483525" d="M46.19,87.541c0,0-0.242-0.058-0.552-0.1c-0.307-0.073-0.752-0.124-1.202-0.192
c-0.224-0.047-0.45-0.083-0.665-0.084c-0.214-0.007-0.418-0.047-0.594-0.065c-0.353-0.048-0.599-0.107-0.599-0.107
s0.221-0.096,0.57-0.199c0.175-0.046,0.38-0.117,0.605-0.159c0.223-0.055,0.465-0.101,0.71-0.096
c0.245-0.003,0.491-0.006,0.721-0.009c0.229-0.006,0.454,0.06,0.641,0.082c0.388,0.063,0.591,0.157,0.591,0.157L46.19,87.541z"/>


<path fill="#ED9C1C" d="M51.721,92.645c0,0,0.21,1.12-1.109,0.739c0,0,0.949,1.58-1.57,1.44c-0.08,0-0.16-0.01-0.25-0.02
c0,0-0.15,1.529-2.271,0.829c-0.079-0.029-0.159-0.05-0.25-0.079c-0.869-0.261-1.89-0.41-2.979-0.551
c-1.89-0.25-3.981-0.489-5.811-1.279c-2.34-1.021-3-3.53-3-3.53c-10.119-5.34-15.71-12.96-15.71-12.96
c-1.079,0.51-1.39,1.1-1.39,1.1c-0.479-1.91,0.28-3.359,0.28-3.359c-0.95,0.39-1.66,1.229-1.66,1.229
c0.25-3.14,8.45-9.34,11.44-11.72c8.229-6.57,9.699-7.63,14.739-8.231c0.271-0.029,0.521-0.08,0.75-0.14l0.044-0.101
c0.65,2.55-1.323,4.271-1.323,4.271s-3.61,3.17-5.91,8.29c0,0,0,0-0.011,0.01c-0.279,0.181-4.789,3.101-11.109,6.13
c1.2,1.011,2.66,2.7,3.939,5.49c2.811,6.09,7.7,7.21,7.7,7.21s0.37-0.899,1.51-1.7c1.07-0.77,2.83-1.46,5.61-1.22
c3.03,0.26,4.05-0.6,4.05-0.6s0.91,0.26,0.95,1.26c0.04,1.36-1.62,2.08-4.12,1.979c0,0,2.37,0.29,4.46,1.62
C50.051,89.584,51.261,90.825,51.721,92.645z"/>


<path fill="#483525" d="M41.884,60.05c-0.844,0.818-1.609,1.711-2.32,2.64c-0.712,0.928-1.356,1.906-1.935,2.914
c-0.586,1.005-1.093,2.052-1.515,3.127c-0.22,0.534-0.406,1.079-0.573,1.63c-0.188,0.543-0.291,1.11-0.441,1.661l0,0l-0.051-0.398
c0.29,0.56,0.511,1.089,0.729,1.642c0.229,0.545,0.396,1.106,0.597,1.658c0.183,0.557,0.331,1.122,0.498,1.683
c0.178,0.558,0.276,1.135,0.417,1.701c0.292,1.132,0.441,2.29,0.648,3.437c0.104,0.574,0.138,1.156,0.211,1.734l0.19,1.736
l-0.997,0.082l-0.197-1.701c-0.075-0.566-0.111-1.137-0.217-1.698c-0.21-1.12-0.362-2.254-0.654-3.355
c-0.141-0.551-0.239-1.115-0.416-1.655c-0.166-0.543-0.313-1.093-0.494-1.63c-0.197-0.53-0.363-1.075-0.585-1.592
c-0.208-0.519-0.438-1.051-0.681-1.514l-0.107-0.204l0.056-0.194l0,0c0.201-0.57,0.358-1.153,0.597-1.706
c0.219-0.56,0.455-1.111,0.725-1.646c0.522-1.077,1.125-2.108,1.8-3.086c0.669-0.981,1.396-1.919,2.186-2.798
C40.142,61.637,40.979,60.801,41.884,60.05z"/>



<path fill="#483525" d="M24.933,74.908L24.5,74.005c6.407-3.077,11.013-6.08,11.059-6.109l0.548,0.836
C36.061,68.762,31.404,71.799,24.933,74.908z"/>

<path fill="#483525" d="M22.216,73.004c1.797,0.175,3.321,1.395,4.458,2.722c1.158,1.341,2.051,2.928,2.774,4.472
c0.76,1.442,1.717,2.821,2.921,3.928c1.184,1.099,2.622,2.045,4.099,2.526l-0.593,0.304l0.001-0.001
c0.841-1.672,2.412-2.61,4.04-3.032c0.816-0.211,1.65-0.291,2.475-0.297c0.844-0.01,1.614,0.116,2.357,0.112
c0.767,0.007,1.468-0.043,2.211-0.234l0.297-0.063c0.079-0.014,0.198-0.053,0.402-0.056c0.412,0.002,0.723,0.242,0.89,0.419
c0.228,0.236,0.347,0.507,0.405,0.783c0.017,0.069,0.022,0.136,0.03,0.203l0.008,0.113l0.001,0.074
c0.001,0.123-0.016,0.292-0.045,0.412c-0.117,0.548-0.503,0.981-0.9,1.23c-0.402,0.258-0.825,0.396-1.241,0.492
c-0.835,0.192-1.663,0.176-2.469,0.11h-0.002l0.057-0.686c1.004,0.11,1.959,0.328,2.902,0.666c0.936,0.344,1.846,0.8,2.669,1.42
c0.823,0.614,1.543,1.421,2.035,2.37c0.126,0.236,0.228,0.483,0.326,0.732l0.125,0.381L52.48,92.2
c0.008,0.033-0.006-0.04,0.019,0.081l0.006,0.038l0.01,0.087c0.009,0.101,0.008,0.198,0,0.301
c-0.021,0.204-0.074,0.442-0.24,0.677c-0.165,0.238-0.434,0.4-0.67,0.466c-0.473,0.114-0.799,0.029-1.096-0.043l0.806-1.048
c0.197,0.373,0.313,0.697,0.258,1.21c-0.059,0.53-0.54,0.977-0.896,1.095c-0.371,0.152-0.69,0.181-0.994,0.197
c-0.303,0.013-0.587-0.005-0.865-0.03l0.751-0.621c-0.05,0.346-0.14,0.545-0.293,0.796c-0.15,0.233-0.367,0.443-0.615,0.581
c-0.507,0.284-1.026,0.282-1.452,0.229c-0.219-0.027-0.419-0.078-0.615-0.134l-0.51-0.156c-0.327-0.095-0.614-0.159-0.957-0.229
c-1.326-0.253-2.733-0.39-4.143-0.644c-1.419-0.269-2.826-0.577-4.208-1.327c-1.36-0.84-2.26-2.184-2.611-3.675l-0.002-0.007
l0.211,0.266c-3.071-1.569-5.973-3.469-8.668-5.627c-1.348-1.08-2.645-2.224-3.883-3.433c-1.239-1.217-2.415-2.459-3.518-3.86
l-0.001-0.002l0.852,0.215c-0.253,0.074-0.494,0.176-0.711,0.307c-0.109,0.062-0.208,0.138-0.3,0.214
c-0.083,0.065-0.188,0.185-0.21,0.203l-0.812,0.679l-0.164-0.801c-0.126-0.616-0.159-1.249-0.087-1.867
c0.027-0.31,0.085-0.615,0.163-0.916c0.083-0.307,0.174-0.582,0.333-0.901l0.548,0.601c-0.276,0.115-0.548,0.273-0.803,0.465
c-0.253,0.184-0.503,0.416-0.692,0.642v0.001l-0.924,1.081l0.158-1.399c0.112-0.991,0.602-1.728,1.072-2.428
c0.489-0.693,1.033-1.326,1.598-1.934c1.133-1.211,2.34-2.333,3.583-3.405c2.496-2.145,5.086-4.115,7.631-6.165
c1.282-1.013,2.569-2.024,3.908-2.986c1.339-0.954,2.744-1.886,4.336-2.511c0.792-0.308,1.614-0.549,2.442-0.681
c0.817-0.144,1.688-0.139,2.451-0.233c0.756-0.087,1.513-0.381,1.931-0.942c0.415-0.573,0.38-1.355,0.04-2.08l1.375-0.123
c-0.18,0.87-0.282,1.857-0.9,2.601c-0.6,0.75-1.49,1.06-2.316,1.264c-0.848,0.161-1.604,0.315-2.387,0.505
c-0.773,0.176-1.529,0.374-2.257,0.66c-1.457,0.565-2.802,1.446-4.116,2.379c-1.312,0.94-2.595,1.942-3.875,2.95
c-2.543,2.037-5.15,4.019-7.609,6.124c-1.227,1.058-2.441,2.132-3.552,3.291c-0.554,0.579-1.083,1.18-1.545,1.813
c-0.449,0.626-0.871,1.326-0.943,1.975l-0.765-0.318l0.002-0.002c0.271-0.293,0.539-0.527,0.839-0.761
c0.298-0.228,0.627-0.428,0.989-0.581l1.016-0.432l-0.468,1.032c-0.089,0.196-0.176,0.468-0.23,0.717
c-0.057,0.254-0.097,0.514-0.109,0.774c-0.021,0.522,0.046,1.043,0.187,1.539l-0.977-0.122c0.132-0.238,0.228-0.345,0.354-0.491
c0.12-0.135,0.251-0.252,0.379-0.369c0.263-0.227,0.54-0.429,0.826-0.611l0.378-0.242l0.475,0.457l0.001,0.001
c0.976,1.312,2.119,2.591,3.287,3.797c1.177,1.21,2.416,2.362,3.707,3.454c2.583,2.181,5.38,4.118,8.355,5.738l0.17,0.093
l0.041,0.173l0.001,0.001c0.49,1.171,1.32,2.28,2.397,2.86c1.104,0.573,2.482,0.882,3.818,1.095
c1.359,0.211,2.754,0.325,4.187,0.591c0.707,0.102,1.534,0.42,2.004,0.489c0.565,0.067,0.745-0.12,0.808-0.387l0.16-0.673
l0.592,0.052c0.448,0.04,0.945,0.021,1.171-0.085c0.117-0.065,0.043-0.03,0.054-0.02c0.014,0.002-0.027-0.189-0.073-0.262
l-0.987-1.564l1.793,0.517c0.164,0.048,0.326,0.056,0.324,0.054c-0.008-0.002-0.061,0.033-0.085,0.073
c-0.022,0.04-0.012,0.038-0.007,0.005c0.001-0.018,0.004-0.039,0.002-0.06c0-0.007,0-0.009,0.001-0.003
c0.001,0.003,0.002,0.006,0-0.006c0.022,0.106,0.003,0.018,0.007,0.038l-0.019-0.077l-0.08-0.31
c-0.066-0.201-0.133-0.403-0.222-0.598c-0.344-0.779-0.884-1.483-1.563-2.062c-0.677-0.581-1.472-1.05-2.316-1.422
c-0.839-0.371-1.744-0.68-2.637-0.856l0.056-0.686h0.002c0.763-0.009,1.523-0.1,2.214-0.297c0.686-0.192,1.301-0.597,1.363-1.06
c0.012-0.072,0.015-0.101,0.014-0.173l-0.004-0.074l-0.001-0.019c0.002,0.037,0,0.004,0,0.01l-0.004-0.024
c-0.005-0.03-0.008-0.062-0.017-0.088c-0.024-0.107-0.083-0.203-0.132-0.249c-0.103-0.1-0.147-0.097-0.136-0.092l-0.458,0.103
c-0.778,0.213-1.658,0.294-2.462,0.29c-0.83,0.012-1.623-0.104-2.353-0.101c-0.746,0-1.489,0.068-2.197,0.248
c-0.706,0.18-1.381,0.456-1.97,0.855c-0.578,0.384-1.118,0.95-1.393,1.49v-0.001l-0.226,0.391l-0.366-0.086
c-0.947-0.221-1.738-0.596-2.529-1.044c-0.781-0.447-1.512-0.982-2.168-1.596c-1.317-1.226-2.393-2.681-3.175-4.299
c-0.707-1.569-1.452-3.033-2.485-4.343C24.842,75.091,23.705,73.903,22.216,73.004z"/>


<path fill="#483525" d="M42.679,88.727c1.541,0.362,3.049,0.889,4.496,1.575c1.439,0.694,2.838,1.557,3.996,2.768l-0.758,0.65
c-0.914-1.187-2.153-2.161-3.478-2.979C45.602,89.927,44.171,89.247,42.679,88.727z"/>


<path fill="#483525" d="M41.091,90.451c1.551,0.324,3.075,0.804,4.55,1.432c1.467,0.639,2.905,1.43,4.121,2.591l-0.729,0.684
c-0.966-1.145-2.256-2.06-3.613-2.826C44.053,91.569,42.598,90.935,41.091,90.451z"/>




<path fill="#483525" d="M0,91.387c0,0,2.191-0.055,5.477-0.138c3.286-0.052,7.668-0.122,12.049-0.191
c4.382-0.086,8.763-0.05,12.049-0.078c1.643-0.014,3.012,0.008,3.971,0.017c0.958,0.01,1.506,0.015,1.506,0.015
c0.207,0.002,0.373,0.172,0.371,0.379c-0.002,0.204-0.168,0.369-0.371,0.371c0,0-0.548,0.006-1.506,0.015s-2.328,0.031-3.971,0.017
c-3.286-0.027-7.668,0.008-12.049-0.078c-4.382-0.07-8.763-0.139-12.049-0.191C2.191,91.442,0,91.387,0,91.387z"/>


<path fill="#483525" d="M83.97,91.576c0,0-1.231,0.027-3.078,0.068c-1.847,0.026-4.309,0.06-6.771,0.095
c-2.462,0.042-4.925,0.025-6.771,0.038c-1.847-0.01-3.078-0.016-3.078-0.016v-0.75c0,0,1.231-0.006,3.078-0.016
c1.847,0.013,4.309-0.004,6.771,0.038c2.462,0.034,4.925,0.069,6.771,0.095c1.847,0.041,3.078,0.068,3.078,0.068V91.576z"/>


<path fill="#F2DBA8" d="M54.99,98.217c0,0,3.452,0.028,4.719,1.906"/>
<path fill="#483525" d="M54.999,97.717c0,0,0.363,0.036,0.861,0.143c0.504,0.107,1.167,0.293,1.793,0.571
c0.629,0.269,1.203,0.662,1.555,1.026c0.17,0.19,0.306,0.346,0.378,0.476c0.079,0.121,0.123,0.191,0.123,0.191
s-0.057-0.06-0.157-0.164c-0.091-0.111-0.254-0.237-0.445-0.383c-0.398-0.279-0.991-0.536-1.615-0.672
c-0.621-0.144-1.258-0.197-1.733-0.206c-0.482-0.009-0.778,0.019-0.778,0.019L54.999,97.717z"/>


<path fill="#F2DBA8" d="M43.325,98.189c0,0-3.215-1.258-5.09,0.015"/>
<path fill="#483525" d="M43.147,98.656c0,0-0.264-0.136-0.715-0.307c-0.444-0.168-1.055-0.355-1.685-0.453
c-0.63-0.106-1.276-0.087-1.749,0.024c-0.232,0.065-0.43,0.121-0.556,0.19c-0.132,0.06-0.207,0.094-0.207,0.094
s0.067-0.048,0.186-0.131c0.114-0.094,0.299-0.188,0.527-0.301c0.463-0.207,1.141-0.359,1.825-0.375
c0.684-0.025,1.369,0.049,1.877,0.137c0.502,0.086,0.852,0.188,0.852,0.188L43.147,98.656z"/>


<path fill="#483525" d="M34.783,65.212c0,0-0.106-0.32-0.356-0.743c-0.053-0.109-0.141-0.214-0.217-0.33
c-0.084-0.112-0.151-0.241-0.259-0.35c-0.204-0.225-0.396-0.476-0.651-0.669c-0.232-0.213-0.474-0.406-0.733-0.547
c-0.122-0.076-0.24-0.15-0.351-0.22c-0.104-0.078-0.235-0.108-0.337-0.158c-0.418-0.176-0.697-0.294-0.697-0.294l0.613-1.237
c0,0,0.289,0.222,0.722,0.556c0.102,0.089,0.229,0.159,0.331,0.281c0.106,0.113,0.218,0.232,0.334,0.355
c0.241,0.232,0.453,0.518,0.644,0.816c0.214,0.278,0.353,0.605,0.5,0.891c0.079,0.14,0.117,0.296,0.171,0.432
c0.046,0.14,0.104,0.264,0.13,0.391C34.764,64.878,34.783,65.212,34.783,65.212z"/>


<path fill="#483525" d="M33.457,67.592c0,0-0.21-0.367-0.607-0.847c-0.09-0.126-0.216-0.242-0.333-0.375
c-0.125-0.127-0.236-0.275-0.386-0.4c-0.292-0.254-0.575-0.546-0.918-0.77c-0.325-0.243-0.651-0.476-0.992-0.644
c-0.331-0.179-0.622-0.365-0.911-0.456c-0.549-0.215-0.915-0.359-0.915-0.359l0.556-1.264c0,0,0.374,0.244,0.936,0.61
c0.288,0.165,0.573,0.436,0.886,0.702c0.324,0.255,0.622,0.577,0.909,0.903c0.306,0.307,0.542,0.676,0.783,0.995
c0.125,0.157,0.21,0.336,0.309,0.489c0.091,0.16,0.19,0.3,0.256,0.447C33.328,67.191,33.457,67.592,33.457,67.592z"/>


<path fill="#483525" d="M60.607,64.338c0,0,0.019-0.334,0.157-0.827c0.026-0.127,0.084-0.251,0.13-0.391
c0.054-0.136,0.092-0.292,0.171-0.432c0.147-0.286,0.286-0.613,0.5-0.891c0.191-0.298,0.403-0.584,0.644-0.816
c0.116-0.123,0.228-0.242,0.334-0.355c0.101-0.122,0.229-0.192,0.331-0.281c0.433-0.333,0.722-0.556,0.722-0.556l0.613,1.237
c0,0-0.279,0.117-0.697,0.294c-0.102,0.05-0.233,0.08-0.337,0.158c-0.112,0.07-0.229,0.144-0.351,0.22
c-0.259,0.141-0.501,0.334-0.733,0.547c-0.255,0.194-0.447,0.445-0.651,0.669c-0.108,0.109-0.175,0.238-0.259,0.35
c-0.075,0.116-0.163,0.221-0.217,0.33C60.713,64.018,60.607,64.338,60.607,64.338z"/>


<path fill="#483525" d="M61.465,67.187c0,0,0.129-0.401,0.427-0.966c0.066-0.147,0.165-0.287,0.256-0.447
c0.099-0.154,0.184-0.333,0.309-0.489c0.241-0.319,0.477-0.689,0.783-0.995c0.288-0.326,0.586-0.649,0.909-0.903
c0.314-0.266,0.598-0.537,0.886-0.702c0.561-0.366,0.936-0.61,0.936-0.61l0.556,1.264c0,0-0.366,0.144-0.915,0.359
c-0.289,0.091-0.58,0.277-0.911,0.456c-0.341,0.167-0.667,0.4-0.992,0.644c-0.343,0.224-0.626,0.516-0.918,0.77
c-0.15,0.124-0.262,0.273-0.386,0.4c-0.117,0.133-0.243,0.249-0.333,0.375C61.675,66.82,61.465,67.187,61.465,67.187z"/>

</svg>
