<?xml version="1.0" encoding="utf-8"?>
<!-- Generator: Adobe Illustrator 17.0.0, SVG Export Plug-In . SVG Version: 6.00 Build 0)  -->
<!DOCTYPE svg PUBLIC "-//W3C//DTD SVG 1.1//EN" "http://www.w3.org/Graphics/SVG/1.1/DTD/svg11.dtd">
<svg version="1.1" id="Слой_1" xmlns="http://www.w3.org/2000/svg" xmlns:xlink="http://www.w3.org/1999/xlink" x="0px" y="0px"
	 width="124.253px" height="88.815px" viewBox="0 0.449 124.253 88.815" enable-background="new 0 0.449 124.253 88.815"
	 xml:space="preserve">
<g>
	<g>
		<g>
			<path fill="#D24B43" d="M36.586,73.813l-0.21-3.67l4.37,8.96c-0.99-0.01-1.87-0.05-2.36-0.08l-1.72-3.87L36.586,73.813z"/>
			<path fill="#EDDDBF" d="M74.956,82.773v0.01c0,0,0.01,0,0.01,0.01c-7.479,0.671-17.819,1.62-24.76,2.25
				c-0.08,0.011-0.16,0.011-0.24,0.021c-3.94-0.48-5.79-1.42-6.26-1.7c2.75,0.271,4.98-0.57,4.93-2.37
				c-0.01-0.25-0.06-0.47-0.14-0.67l0.18-0.07c7.43-0.659,19.73-1.739,27.76-2.449c-0.1,0.21-0.15,0.46-0.16,0.739
				c-0.07,2.341,3.76,3.061,7.529,1.811C83.805,80.353,79.526,82.163,74.956,82.773z"/>
			<path fill="#D24B43" d="M83.725,76.653c-0.859,0-1.75-0.03-2.51-0.11c-1.949-0.22-4.18-0.109-4.779,1.261
				c-8.03,0.71-20.33,1.79-27.76,2.449l-0.18,0.07c-0.56-1.43-2.82-1.55-4.8-1.33c-0.89,0.101-1.97,0.12-2.95,0.11l-4.37-8.96v-0.01
				c0,0,1.78-0.16,4.52-0.42c0.77-0.07,1.61-0.15,2.52-0.23l0.01-0.01c1.8,1.83,5.93,1.18,4.97-0.4l0.07-0.05
				c4.6-0.42,9.75-0.88,14-1.25c2.19-0.18,4.141-0.34,5.65-0.46l0.08,0.11c-0.76,0.51-1.13,1.13-0.99,1.689
				c0.67,2.57,4.29,0.44,6.83,0.36c0.37,0.279,0.76,0.569,1.17,0.87C78.336,72.653,82.246,75.553,83.725,76.653z"/>
			<path fill="#EDDDBF" d="M98.846,10.133c-0.371,0.939-0.84,1.979-1.43,3.06c-0.32-0.14-0.66-0.229-1.021-0.28
				c-0.07-0.019-0.14-0.019-0.21-0.029c-0.56-0.091-1.08-0.051-1.56,0.08c-0.01,0-0.02,0-0.029,0c-0.371,0.079-0.73,0.18-1.07,0.319
				c-1.891,0.76-3.23,0.021-3.23,0.021c0.42,1.019,1.01,1.5,1.58,1.71c-0.479,0.939-0.02,1.42,0.131,1.55
				c-0.811,0.04-1.631,0.14-2.44,0.35c-0.41,0.11-0.81,0.25-1.21,0.44c-0.051,0.02-0.09,0.04-0.131,0.06
				c-0.34,0.011-0.629,0-1.909,0.31c-0.94,0.229-1.63,0.94-2.11,1.68c-0.39,0.61-0.6,1.1-0.77,1.5c-0.26,0.64-0.4,0.96-1.16,1.39
				c-0.2,0.11-0.311,0.341-0.28,0.57c0.03,0.231,0.2,0.42,0.431,0.481c0.039,0.01,0.31,0.069,0.67,0.05
				c-3.881,0.79-6.131,0.79-6.131,0.79s1.25-17.28,11.141-22.08c8.75-4.25,24.439,7.66,24.439,7.66
				c-1.649,1.189-3.27,2.29-4.859,3.29c-0.59-0.051-1.211-0.051-1.801-0.051c-0.469,0-0.959,0-1.42-0.02
				c-0.479-0.3-0.979-0.58-1.5-0.85c0.291-0.811,0.51-1.591,0.681-2.29c-0.71-0.37-1.4-0.71-2.06-1
				c-0.721-0.33-1.4-0.61-2.011-0.851C99.396,8.623,99.156,9.343,98.846,10.133z"/>
			<path fill="#EDDDBF" d="M107.686,13.053c-0.48,0.31-0.961,0.6-1.43,0.89c-0.09,0-0.19,0-0.291,0c-0.449-0.33-0.959-0.65-1.5-0.96
				c0.461,0.02,0.951,0.02,1.42,0.02C106.475,13.003,107.096,13.003,107.686,13.053z"/>
			<path fill="#EDDDBF" d="M105.965,13.943c0.101,0,0.201,0,0.291,0c-0.061,0.03-0.11,0.06-0.16,0.1
				C106.055,14.003,106.016,13.973,105.965,13.943z"/>
			<path fill="#EDDDBF" d="M105.965,13.943c0.051,0.03,0.09,0.06,0.131,0.1c-0.75,0.45-1.48,0.881-2.211,1.29c-0.01,0-0.02,0-0.02,0
				c-0.17,0.011-0.35,0.021-0.52,0.021l-1.69,0.16l1.011,0.489c-0.871,0.48-1.731,0.931-2.57,1.351c0.949-1.12,1.68-2.37,2.24-3.62
				c0.09,0,0.18,0,0.27,0.01c0.13,0.021,0.25,0.03,0.38,0.05l0.39,0.061c0.59,0.08,1.15,0.1,1.721,0.1
				C105.385,13.953,105.676,13.953,105.965,13.943z"/>
			<path fill="#EDDDBF" d="M105.965,13.943c-0.289,0.01-0.58,0.01-0.869,0.01c-0.57,0-1.131-0.019-1.721-0.1l-0.39-0.061
				c-0.13-0.02-0.25-0.029-0.38-0.05c-0.09-0.01-0.18-0.01-0.27-0.01c0.139-0.32,0.279-0.65,0.399-0.96c0.13,0,0.26,0.02,0.39,0.04
				l0.221,0.03l0.199,0.04c0.09,0.019,0.19,0.029,0.291,0.05c0.199,0.019,0.409,0.04,0.629,0.05
				C105.006,13.293,105.516,13.613,105.965,13.943z"/>
			<path fill="#EDDDBF" d="M104.465,12.983c-0.22-0.01-0.43-0.03-0.629-0.05c-0.101-0.021-0.201-0.03-0.291-0.05l-0.199-0.04
				l-0.221-0.03c-0.13-0.021-0.26-0.04-0.39-0.04c0.08-0.22,0.16-0.43,0.229-0.64C103.486,12.403,103.986,12.683,104.465,12.983z"/>
			<path fill="#EDDDBF" d="M103.346,15.353c0.17,0,0.35-0.01,0.52-0.021c-0.4,0.24-0.8,0.46-1.199,0.67l-1.011-0.489L103.346,15.353
				z"/>
			<path fill="#EDDDBF" d="M103.646,9.843c-0.171,0.699-0.39,1.479-0.681,2.29c-0.689-0.37-1.39-0.731-2.08-1.061
				c0.291-0.809,0.521-1.559,0.701-2.229C102.246,9.133,102.936,9.473,103.646,9.843z"/>
			<path fill="#EDDDBF" d="M102.965,12.133c-0.069,0.21-0.149,0.42-0.229,0.64c-0.021-0.01-0.03-0.01-0.05-0.01
				c-0.07-0.011-0.141-0.011-0.211-0.011c-0.01,0-0.02,0-0.029,0c-0.08,0-0.16-0.01-0.24-0.01c-0.93,0.021-1.66,0.24-2.22,0.51
				c0.36-0.77,0.649-1.5,0.899-2.18C101.576,11.403,102.276,11.763,102.965,12.133z"/>
			<path fill="#EDDDBF" d="M102.686,12.763c0.02,0,0.029,0,0.05,0.01c-0.12,0.31-0.261,0.64-0.399,0.96c-0.16-0.01-0.32-0.01-0.48,0
				c-0.801,0.02-1.61,0.2-2.36,0.52c0.181-0.34,0.341-0.67,0.49-1c0.56-0.27,1.29-0.489,2.22-0.51c0.08,0,0.16,0.01,0.24,0.01
				c0.01,0,0.02,0,0.029,0C102.545,12.753,102.616,12.753,102.686,12.763z"/>
			<path fill="#EDDDBF" d="M99.376,14.773c-0.029-0.03-0.06-0.07-0.09-0.1c0.07-0.141,0.15-0.28,0.21-0.421
				c0.75-0.319,1.56-0.5,2.36-0.52c0.16-0.01,0.32-0.01,0.48,0c-0.561,1.25-1.291,2.5-2.24,3.62c-1.26,0.63-2.49,1.21-3.68,1.729
				c-0.011,0-0.011,0-0.011,0c1.17-1.479,2.101-2.96,2.851-4.35C99.316,14.753,99.356,14.773,99.376,14.773z"/>
			<path fill="#EDDDBF" d="M101.586,8.843c-0.181,0.67-0.41,1.42-0.701,2.229c-0.719-0.34-1.42-0.66-2.039-0.939
				c0.31-0.79,0.55-1.511,0.729-2.141C100.186,8.233,100.866,8.513,101.586,8.843z"/>
			<path fill="#EDDDBF" d="M98.846,10.133c0.619,0.279,1.32,0.6,2.039,0.939c-0.25,0.68-0.539,1.41-0.899,2.18
				c-0.569,0.29-0.96,0.641-1.22,0.91c-0.08-0.069-0.17-0.14-0.25-0.199c-0.291-0.351-0.67-0.601-1.1-0.771
				C98.006,12.113,98.475,11.073,98.846,10.133z"/>
			<path fill="#EDDDBF" d="M99.986,13.253c-0.149,0.33-0.31,0.66-0.49,1c-0.14,0.061-0.28,0.131-0.42,0.2
				c0.07,0.07,0.14,0.141,0.21,0.221c-0.01,0.02-0.02,0.04-0.029,0.06c-0.34-0.13-1.32-0.46-2.531-0.36
				c0.061-0.1,0.111-0.189,0.171-0.279c0.659,0.01,1.31,0.109,1.899,0.279c0.021,0,0.021,0.011,0.021,0.011
				c-0.08-0.15-0.181-0.29-0.3-0.42c0.08,0.059,0.17,0.13,0.25,0.199C99.026,13.893,99.417,13.543,99.986,13.253z"/>
			<path fill="#EDDDBF" d="M99.496,14.253c-0.06,0.141-0.14,0.28-0.21,0.421c-0.07-0.08-0.14-0.15-0.21-0.221
				C99.215,14.383,99.356,14.313,99.496,14.253z"/>
			<path fill="#EDDDBF" d="M99.286,14.673c0.03,0.029,0.061,0.069,0.09,0.1c-0.02,0-0.06-0.02-0.119-0.04
				C99.266,14.714,99.276,14.693,99.286,14.673z"/>
			<path fill="#EDDDBF" d="M98.816,14.383c0,0,0-0.011-0.021-0.011c-0.59-0.17-1.24-0.27-1.899-0.279
				c0.17-0.29,0.329-0.561,0.489-0.841c0.371,0.16,0.75,0.4,1.131,0.711C98.635,14.093,98.736,14.233,98.816,14.383z"/>
			<path fill="#EDDDBF" d="M97.417,13.193c0.43,0.17,0.809,0.42,1.1,0.771c-0.381-0.311-0.76-0.551-1.131-0.711
				C97.385,13.233,97.406,13.214,97.417,13.193z"/>
			<path fill="#EDDDBF" d="M97.417,13.193c-0.011,0.021-0.031,0.04-0.031,0.06c-0.34-0.17-0.67-0.279-0.989-0.34
				C96.756,12.964,97.096,13.053,97.417,13.193z"/>
			<path fill="#EDDDBF" d="M96.725,14.373c1.211-0.1,2.191,0.23,2.531,0.36c-0.75,1.39-1.681,2.87-2.851,4.35
				c-0.16,0.07-0.319,0.141-0.47,0.21c-3.03,1.301-5.801,2.261-8.221,2.96c-0.039-0.5-0.08-1-0.08-1.479
				c-0.01-0.39,0-0.78,0.041-1.16c0.029-0.2,0.049-0.33,0.1-0.47c0.061-0.141,0.13-0.271,0.22-0.41c0.171-0.269,0.39-0.59,0.69-0.82
				c0.31-0.239,0.66-0.43,1.029-0.6c0.721-0.34,1.49-0.59,2.291-0.75h0.01c0.02,0.019,0.039,0.03,0.039,0.03
				c0.291,0.39,1.261-0.62,1.261-0.62C94.436,14.853,95.667,14.453,96.725,14.373z"/>
			<path fill="#EDDDBF" d="M97.385,13.253c-0.16,0.28-0.319,0.551-0.489,0.841c-0.89-0.011-1.81,0.149-2.66,0.529
				c-0.06,0.03-0.12,0.061-0.181,0.091c-0.159,0.079-0.319,0.17-0.479,0.269c-0.069,0.03-0.851,0.33-1.7,0.03
				c0.051-0.11,0.11-0.21,0.19-0.33c0.39-0.58,1.31-1.4,2.53-1.72c0.01,0,0.02,0,0.029,0c0.521-0.101,1.051-0.131,1.56-0.08
				c0.07,0.01,0.14,0.01,0.21,0.029C96.715,12.973,97.045,13.083,97.385,13.253z"/>
			<path fill="#EDDDBF" d="M94.236,14.623c0.851-0.38,1.771-0.54,2.66-0.529c-0.06,0.09-0.11,0.18-0.171,0.279
				c-1.059,0.08-2.289,0.48-3.409,1.601c0,0-0.97,1.01-1.261,0.62c0,0-0.02-0.011-0.039-0.03h-0.01c-0.15-0.13-0.61-0.61-0.131-1.55
				c0.85,0.3,1.631,0,1.7-0.03c0.16-0.1,0.32-0.19,0.479-0.269C94.116,14.683,94.176,14.653,94.236,14.623z"/>
			<path fill="#EDDDBF" d="M96.186,12.883c-0.51-0.051-1.04-0.021-1.56,0.08C95.106,12.833,95.626,12.793,96.186,12.883z"/>
			<path fill="#EDDDBF" d="M93.526,13.283c0.34-0.14,0.699-0.24,1.07-0.319c-1.221,0.319-2.141,1.14-2.53,1.72
				c-0.08,0.12-0.14,0.22-0.19,0.33c-0.57-0.21-1.16-0.691-1.58-1.71C90.295,13.303,91.635,14.043,93.526,13.283z"/>
			<path fill="#EDDDBF" d="M83.725,22.683c0,0,0.011,0,0.021,0c0.04-0.01,0.08-0.05,0.13-0.07
				C83.826,22.643,83.766,22.663,83.725,22.683z M82.736,22.803c-0.06-0.011-0.11-0.021-0.149-0.03c-0.011,0-0.021,0.01-0.021,0.01
				S82.626,22.793,82.736,22.803z M92.006,16.563c-0.801,0.16-1.57,0.41-2.291,0.75c-0.369,0.17-0.72,0.36-1.029,0.6
				c-0.301,0.23-0.519,0.551-0.69,0.82c-0.09,0.14-0.159,0.27-0.22,0.41c-0.051,0.14-0.07,0.27-0.1,0.47
				c-0.041,0.38-0.051,0.771-0.041,1.16c0,0.479,0.041,0.979,0.08,1.479c-0.229,0.07-0.459,0.131-0.68,0.191
				c-0.07-0.36-0.15-0.729-0.21-1.1c-0.14,0.059-0.28,0.14-0.409,0.22c-0.261,0.16-0.5,0.37-0.691,0.61
				c-0.18,0.21-0.319,0.46-0.43,0.72c-0.229,0.059-0.459,0.12-0.68,0.17c0.141-0.45,0.35-0.88,0.65-1.25
				c0.229-0.29,0.51-0.55,0.83-0.75c0.209-0.13,0.41-0.24,0.64-0.32c-0.011-0.12-0.021-0.25-0.03-0.37
				c-1.55,0.221-1.67,1-2.31,1.801c-0.15,0.189-0.32,0.329-0.49,0.43c0.06-0.04,0.13-0.06,0.19-0.11c0.01-0.01,0.01,0,0.01,0
				c-0.01,0.07-0.061,0.34-0.17,0.721c-0.269,0.059-0.54,0.119-0.801,0.18c-0.02-0.01-0.029,0-0.039,0
				c-0.36,0.02-0.631-0.04-0.67-0.05c-0.23-0.061-0.4-0.25-0.431-0.481c-0.03-0.229,0.08-0.46,0.28-0.57
				c0.76-0.43,0.9-0.75,1.16-1.39c0.17-0.4,0.38-0.89,0.77-1.5c0.48-0.74,1.17-1.45,2.11-1.68c1.28-0.31,1.569-0.3,1.909-0.31
				c0.041-0.02,0.08-0.04,0.131-0.06c0.4-0.19,0.8-0.33,1.21-0.44C90.376,16.703,91.196,16.603,92.006,16.563z"/>
			<path fill="#F5F6F5" d="M89.616,30.433c-3-0.01-5.71,1.35-6.22,2.34c-0.3,0.58-0.38,1.11-0.15,1.33
				c-0.89-0.11-1.09-0.96-0.76-1.59C83.696,30.253,87.975,29.523,89.616,30.433z"/>
			<path fill="#EDDDBF" d="M86.826,21.343c0.06,0.37,0.14,0.739,0.21,1.1c-0.609,0.17-1.189,0.32-1.74,0.45
				c0.11-0.26,0.25-0.51,0.43-0.72c0.191-0.24,0.431-0.45,0.691-0.61C86.545,21.483,86.686,21.403,86.826,21.343z"/>
			<path fill="#EDDDBF" d="M84.106,22.493c0,0,0-0.01-0.01,0c-0.061,0.05-0.131,0.07-0.19,0.11c0.17-0.101,0.34-0.24,0.49-0.43
				c0.64-0.801,0.76-1.58,2.31-1.801c0.01,0.12,0.02,0.25,0.03,0.37c-0.229,0.08-0.431,0.19-0.64,0.32
				c-0.32,0.2-0.601,0.46-0.83,0.75c-0.301,0.37-0.51,0.8-0.65,1.25c-0.23,0.05-0.46,0.1-0.68,0.15
				C84.045,22.833,84.096,22.563,84.106,22.493z"/>
			<path fill="#EDDDBF" d="M83.725,22.683c0.041-0.021,0.101-0.04,0.15-0.07c-0.05,0.021-0.09,0.061-0.13,0.07
				C83.736,22.683,83.725,22.683,83.725,22.683z"/>
			<path fill="#EDDDBF" d="M82.586,22.773c0.039,0.01,0.09,0.02,0.149,0.03c-0.11-0.011-0.17-0.021-0.17-0.021
				S82.576,22.773,82.586,22.773z"/>
			<path fill="#F5F6F5" d="M44.636,36.783c1.58-1.02,6.92,0.34,6.6,1.99c-0.08,0.44-0.57,1.12-1.69,1.38
				c0.22-0.229,0.34-0.479,0.38-0.68C50.146,38.333,47.456,36.633,44.636,36.783z"/>
			<path fill="#D24B43" d="M25.926,12.943h-0.01c-1.12-0.16-2.24-0.26-3.39-0.26c-0.57,0-1.15,0.019-1.72,0.08
				c-0.16,0.01-0.31,0.029-0.46,0.05c0.21-0.33,0.45-0.64,0.7-0.95c0.52-0.62,1.1-1.2,1.72-1.72c1.25-1.05,2.68-1.891,4.21-2.44
				c1.53-0.56,3.17-0.84,4.81-0.83c1.64,0,3.29,0.28,4.87,0.75c1.59,0.471,3.12,1.141,4.45,2.11c1.33,0.96,2.44,2.21,3.21,3.67
				c0.77,1.45,1.2,3.08,1.36,4.731c0.14,1.52,0.07,3.08-0.22,4.569c-1.27-1.22-2.75-2.189-4.3-2.979c-0.84-0.42-1.71-0.8-2.59-1.12
				c-0.75-0.29-1.52-0.54-2.31-0.73c-0.03-0.08-0.07-0.159-0.12-0.239c-0.13-0.21-0.33-0.45-0.59-0.67
				c-0.09-0.101-0.19-0.181-0.3-0.261c-0.01,0-0.02,0-0.02-0.01c-0.06-0.05-0.13-0.09-0.19-0.12c-0.13-0.08-0.26-0.16-0.41-0.229
				c-0.11-0.061-0.23-0.11-0.36-0.15c-0.1-0.03-0.19-0.06-0.29-0.09c-0.08-0.021-0.16-0.04-0.25-0.05
				c-0.92-0.16-2.03,0.06-3.22,1.08c0,0-0.02,0-0.06,0c-0.04-0.011-0.11-0.021-0.19-0.021c-0.9-0.09-4.02-0.38-5.73-0.29
				c-1.63,0.101-3.27,0.311-4.88,0.71l-0.3-0.43c0.1-0.19,0.22-0.38,0.37-0.57c0.44-0.58,1.03-1.1,1.7-1.55
				c0.66-0.46,1.39-0.85,2.15-1.19c0.74-0.319,1.52-0.619,2.31-0.84c0.01,0,0.02,0,0.03,0
				C25.916,12.953,25.916,12.953,25.926,12.943z"/>
			<path fill="#F5F6F5" d="M44.276,29.293c-0.03,0.181-0.06,0.33-0.08,0.4c-0.11,0.4-0.24,0.79-0.4,1.17
				c-0.06-0.07-0.13-0.13-0.19-0.2c0.12-0.14,0.22-0.31,0.28-0.52c0.1-0.38,0.05-0.76-0.12-1.04
				C43.956,29.163,44.126,29.233,44.276,29.293z"/>
			<path fill="#F5F6F5" d="M42.856,29.433c0.02,0.1,0.02,0.2-0.01,0.31c-0.05-0.069-0.1-0.14-0.15-0.22
				C42.756,29.503,42.806,29.473,42.856,29.433z"/>
			<path fill="#F5F6F5" d="M42.856,29.433c-0.05,0.04-0.1,0.069-0.16,0.09c-0.1-0.15-0.2-0.32-0.29-0.49c0.04,0,0.07,0,0.11,0.01
				C42.696,29.093,42.816,29.243,42.856,29.433z"/>
			<path fill="#FFFFFF" d="M42.466,28.633c0.05,0.02,0.11,0.04,0.16,0.06c-0.11,0.03-0.21,0.09-0.3,0.18
				c-0.03-0.029-0.04-0.069-0.06-0.109C42.356,28.743,42.416,28.703,42.466,28.633z"/>
			<path fill="#FFFFFF" d="M42.386,28.613c0.03,0,0.05,0.01,0.08,0.021c-0.05,0.069-0.11,0.109-0.2,0.13
				c-0.01-0.011-0.02-0.03-0.02-0.04C42.306,28.703,42.346,28.663,42.386,28.613z"/>
			<path fill="#FFFFFF" d="M42.156,28.533c0.08,0.03,0.16,0.05,0.23,0.08c-0.04,0.05-0.08,0.09-0.14,0.11
				C42.216,28.663,42.186,28.593,42.156,28.533z"/>
			<path fill="#FFFFFF" d="M34.926,28.813c-0.02,0.07-0.05,0.14-0.07,0.21c-0.21-0.1-0.45-0.21-0.71-0.32
				c0.02-0.069,0.04-0.14,0.05-0.2C34.446,28.603,34.696,28.703,34.926,28.813z"/>
			<path fill="#F5F6F5" d="M34.856,29.023c-0.15,0.49-0.31,0.979-0.48,1.47c-0.1-0.05-0.2-0.1-0.3-0.16c-0.01,0-0.01-0.01-0.01-0.01
				c-0.19-0.17-0.4-0.34-0.61-0.5c0.32-0.24,0.56-0.609,0.68-1.05c0.01-0.021,0.01-0.05,0.01-0.07
				C34.406,28.813,34.646,28.923,34.856,29.023z"/>
			<path fill="#F5F6F5" d="M34.066,30.323c-0.06-0.019-0.12-0.05-0.17-0.08c-0.2-0.1-0.41-0.2-0.61-0.29
				c0.06-0.029,0.12-0.08,0.17-0.13C33.666,29.983,33.876,30.153,34.066,30.323z"/>
			<g>
				<path fill="#F3C66E" d="M43.036,25.803c-0.13-0.051-0.28-0.08-0.43-0.07c-0.15,0-0.3,0.03-0.43,0.09
					c-0.1,0.05-0.19,0.12-0.27,0.191c-0.03,0.02-0.06,0.05-0.08,0.069c-0.07,0.301-0.09,0.61-0.07,0.931l0.01,0.01
					c0.01,0.1,0.02,0.21,0.04,0.31c0.06,0.431,0.19,0.83,0.35,1.2c0.08,0.03,0.16,0.05,0.23,0.08c0.03,0,0.05,0.01,0.08,0.021
					c0.05,0.02,0.11,0.04,0.16,0.06c0.18-0.09,0.38-0.1,0.57-0.05c0.05,0.01,0.1,0.03,0.15,0.059c0.17,0.08,0.32,0.221,0.41,0.391
					c0,0,0.01,0,0.01,0.01c0.19,0.06,0.36,0.13,0.51,0.19c0.02-0.13,0.04-0.27,0.07-0.409c0.04-0.301,0.08-0.601,0.09-0.69
					c0.01-0.5-0.05-1.01-0.28-1.45C43.926,26.303,43.526,25.973,43.036,25.803z"/>
				<path fill="#F3C66E" d="M115.536,67.423c-0.779,2.329-1.561,4.659-2.24,7l-0.129,0.63l-0.301-0.601
					c-0.15-0.3-0.34-0.59-0.55-0.859v0.02c-0.021,0.28-0.05,0.57-0.12,0.851c-0.13,0.559-0.35,1.1-0.641,1.6l-0.43,0.77l-0.31-0.92
					c-0.021-0.05-0.07-0.18-0.13-0.27c-0.051-0.11-0.12-0.21-0.19-0.311c-0.09-0.109-0.2-0.21-0.3-0.31
					c-1.62,0.84-3.27,1.57-4.95,2.25c-0.149,0.06-0.29,0.12-0.44,0.17c0.591,2.41,1.531,8.44,2.091,11.83h12.28
					C118.696,84.183,116.676,72.493,115.536,67.423z"/>
				<path fill="#F3C66E" d="M105.385,66.773l1.011-4.07c0.329-1.35,0.69-2.7,0.95-4.05c0.85-4.59,0.619-6.91,1.42-9.8
					c0.16-0.561,0.449-1.12,0.77-1.59c0.311-0.46,0.57-0.96,0.801-1.46c0.42-1.011,0.719-2.17,0.319-3.25l0.05-0.21
					c-1.1-0.42-2.06-0.851-2.699-1.46c-1.291-1.25-1.681-2.9-1.791-3.79c-0.459,0.34-0.939,0.68-1.439,1.01
					c-0.01,0-1.7,1.11-4.68,1.87c1.699-1.101,3.379-2.15,4.979-3.32c1.591-1.17,3.12-2.42,4.5-3.85c1.37-1.42,2.53-3.051,3.479-4.78
					c0.48-0.86,0.891-1.76,1.24-2.68c0.18-0.45,0.34-0.92,0.48-1.391c0.08-0.29,0.16-0.59,0.23-0.89
					c-0.23-0.1-0.471-0.18-0.721-0.26c-0.22-0.07-0.43-0.13-0.66-0.181c-0.22-0.05-0.449-0.1-0.67-0.14l-1.24-0.21
					c0,0,1.11-0.4,1.121-0.4c0.619-0.279,1.25-0.46,1.879-0.609c0.53-0.13,1.061-0.23,1.601-0.32c-0.63-0.85-1.58-1.43-2.58-1.8
					c-0.56-0.2-1.13-0.351-1.72-0.45c-0.291-0.06-0.59-0.1-0.881-0.13l-0.91-0.1c-1.239-0.141-2.439-0.441-3.619-0.83
					c-1.18-0.381-2.32-0.841-3.45-1.391l-0.489-0.24c-0.871,0.48-1.731,0.931-2.57,1.351c-1.26,0.63-2.49,1.21-3.68,1.729
					c1.359-0.55,2.739-0.609,3.459-0.649c2.5-0.141,3.59-1.67,3.59-1.67c1.621,5.34-3.359,6.88-6.31,8.029
					c-2.681,1.04-4.22,3.15-4.22,3.15c-0.95-5.31,0.9-7.63,3-8.65c-3.03,1.301-5.801,2.261-8.221,2.96
					c0.03,0.32,0.061,0.641,0.08,0.971c0.021,0.42,0.121,1.79-0.229,2.109c-0.03,0.04-0.05,0.091-0.08,0.131l-0.011,0.01
					c-0.059,0.1-0.139,0.2-0.199,0.27c-0.53,0.66-1.1,1.24-1.63,1.87c-0.72,0.84-1.41,1.72-1.94,2.68
					c0.86-0.6,1.811-1.06,2.801-1.369c1.14-0.351,2.379-0.48,3.549-0.16c0.57,0.149,1.16,0.39,1.611,0.84
					c0.229,0.22,0.399,0.51,0.489,0.82c0.08,0.31,0.09,0.64,0.05,0.949c-0.09,0.63-0.32,1.2-0.6,1.74s-0.62,1.04-0.971,1.51
					c-0.35,0.481-0.77,0.971-1.26,1.36c-0.25,0.21-0.52,0.39-0.82,0.54c-0.149,0.07-0.31,0.14-0.469,0.19
					c-0.091,0.029-0.17,0.05-0.261,0.069c-0.06,0.021-0.11,0.021-0.17,0.03h-0.01c-0.351,0.1-0.64,0.14-0.97,0.18
					c-0.01,0-0.021,0-0.041,0c0.371,0.271,0.771,0.5,1.19,0.67c1.011,0.42,2.16,0.551,3.229,0.271c2.19-0.54,4.24-1.65,6.051-3.021
					c1.82-1.37,3.439-2.989,4.89-4.739c0.729-0.87,1.431-1.771,2.091-2.69c0.33-0.46,0.629-0.95,0.879-1.46
					c0.11-0.22,0.4-0.47,0.381-0.73c-0.03-0.35-0.541-0.21-0.76-0.239l-0.031-0.07c0.24-0.26,0.561-0.43,0.891-0.53
					c0.04-0.01,0.08-0.019,0.12-0.029v-0.011l0.021,0.011c0.289-0.07,0.609-0.091,0.93-0.021c0.369,0.07,0.729,0.25,0.99,0.54
					c0.25,0.29,0.399,0.64,0.39,1l-0.101,0.05c-0.09,0.04-0.31-0.189-0.64-0.17c-1.06,0.07-1.101,0.47-1.399,0.771
					c-0.4,0.409-0.791,0.85-1.15,1.29c-0.73,0.89-1.49,1.75-2.28,2.59c-1.58,1.66-3.26,3.229-5.101,4.609
					c-1.829,1.36-3.84,2.57-6.079,3.19c-1.13,0.35-2.351,0.31-3.53,0.06c-1.17-0.27-2.3-0.8-3.37-1.46c0,0-0.239-0.199-0.399-0.269
					c-0.601-0.25-1.16-0.61-1.631-1.05c-0.229-0.23-0.449-0.471-0.649-0.74c-0.24-0.32-0.351-0.75-0.33-1.12
					c0.04-0.78,0.399-1.35,0.78-1.85c0.17-0.221,0.35-0.41,0.539-0.601c0.341-0.7,0.761-1.35,1.221-1.96
					c0.34-0.47,0.699-0.91,1.08-1.35c0.29-0.33,0.6-0.69,0.75-0.86c-0.08-0.17-0.26-0.439-0.66-0.53
					c-0.061-0.01-0.109-0.029-0.15-0.06c-0.109,0.71-0.32,1.12-0.35,1.17c-0.73,1.021-1.46,2.04-2.2,3.05v0.05
					c-0.01,0-0.021,0-0.03-0.01c-0.129,0.19-0.27,0.37-0.399,0.55c-0.5,0.671-0.88,1.41-1.181,2.19
					c-0.149,0.39-0.279,0.78-0.379,1.18c-0.051,0.2-0.101,0.4-0.141,0.601c-0.01,0.05-0.02,0.09-0.029,0.14
					c0.25,0.231,0.529,0.46,0.799,0.68c0.371,0.301,0.771,0.58,1.16,0.86c0.801,0.55,1.641,1.04,2.5,1.47
					c0.871,0.42,1.771,0.78,2.68,1.07c0.941,0.28,1.891,0.51,2.861,0.68c1.93,0.351,3.909,0.46,5.939,0.58
					c0.609,0.04,1.22,0.09,1.83,0.181l0.02-0.021c0.01,0.01,0.03,0.021,0.041,0.03c0.399,0.06,0.789,0.14,1.189,0.25
					c0.5,0.14,1.01,0.34,1.47,0.609c0.399,0.25,0.761,0.57,1.04,0.94l-0.08,0.03c-0.46-0.17-0.92-0.3-1.359-0.4
					c0.109,0.3,0.189,0.73,0,1.08c0.289,4.66-1.48,7.6-1.48,7.6c-0.18,0.45-0.34,0.91-0.471,1.381
					c-0.039,0.13-0.079,0.26-0.109,0.39c-0.01,0.02-0.02,0.03-0.02,0.05c-0.381,1.36-0.601,2.76-0.711,4.15
					c-0.16,1.989-0.039,3.97,0.33,5.899c1.431,1.65,3.961,5.891,4.5,6.721c0.9-0.4,1.82-0.75,2.78-1.03
					C105.086,67.983,105.236,67.373,105.385,66.773z M106.676,22.573c0.729,0.26,1.43,0.75,1.869,1.441
					c0.221,0.34,0.371,0.729,0.43,1.13c0.07,0.399,0.041,0.82-0.1,1.189c0.01-0.39-0.039-0.769-0.13-1.14
					c-0.1-0.36-0.239-0.71-0.44-1.03C107.917,23.513,107.326,23.013,106.676,22.573z M97.846,36.533c-0.59,0.49-1.23,0.92-1.92,1.26
					c-0.681,0.351-1.41,0.61-2.16,0.761c-0.76,0.14-1.53,0.21-2.28,0.08c0.38,0.01,0.75-0.03,1.12-0.08
					c0.38-0.051,0.74-0.13,1.1-0.23c0.73-0.18,1.43-0.45,2.1-0.78c0.67-0.329,1.301-0.729,1.91-1.17
					c0.601-0.449,1.17-0.939,1.721-1.47C98.965,35.493,98.426,36.043,97.846,36.533z"/>
				<path fill="#F3C66E" d="M81.946,29.493c-0.46-0.59-0.58-1.56,0.529-2.51c0.74-0.62,1.511-2.12,1.951-3.07
					c0.01-0.02,0.01-0.06,0.01-0.09c0.039-0.25,0.1-0.51,0.18-0.76c-0.23,0.05-0.46,0.1-0.68,0.15c-0.1,0.35-0.25,0.789-0.48,1.239
					c-0.23,0.521-0.52,1.011-0.89,1.46c-0.21,0.261-0.46,0.511-0.71,0.721c-0.21,0.17-0.36,0.409-0.46,0.67
					c-0.21,0.51-0.24,1.13-0.06,1.59C81.465,29.233,81.676,29.423,81.946,29.493z"/>
				<path fill="#F3C66E" d="M47.096,34.663c-0.23-0.26-0.47-0.529-0.7-0.79c-0.47-0.529-0.97-1.029-1.47-1.519
					c-0.26-0.25-0.51-0.49-0.77-0.74c-0.26-0.24-0.51-0.5-0.75-0.769c-0.3-0.33-0.81-1.011-0.96-1.231
					c-0.01-0.019-0.02-0.03-0.02-0.04c-0.01-0.019-0.02-0.03-0.02-0.03c-0.09-0.14-0.18-0.29-0.27-0.44
					c-0.16-0.29-0.3-0.59-0.42-0.9c-0.23-0.149-0.39-0.33-0.57-0.51c-0.22-0.21-0.46-0.38-0.73-0.52
					c-0.53-0.29-1.15-0.431-1.78-0.421c0.01-0.01,0.02-0.01,0.03-0.01c0.29-0.09,0.61-0.13,0.92-0.109c0.33,0.02,0.66,0.1,0.97,0.22
					c0.32,0.13,0.61,0.31,0.86,0.53c0.03,0.02,0.05,0.05,0.07,0.069c-0.03-0.13-0.06-0.269-0.08-0.399
					c-0.11-0.731-0.09-1.511,0.24-2.271c0.17-0.37,0.42-0.72,0.74-1.04c1.3-1.26,1.71-0.93,2.36-0.91l0.09-0.1
					c-1.15-1.04-2.48-1.9-3.88-2.61c-0.82-0.42-1.67-0.79-2.54-1.109c-0.65-0.25-1.32-0.471-1.99-0.65
					c0.14,0.731-0.34,1.08-0.34,1.08c-0.01,0.021-0.03,0.03-0.04,0.04c-0.02,0.02-0.05,0.03-0.07,0.04
					c1.42,1.71,2.18,4.06,1.96,7.24h0.09c-0.11,1.6-0.48,3.43-1.15,5.489c0,0-0.03-0.01-0.08-0.039c-0.01,0.02-0.01,0.029-0.02,0.05
					c0,0-0.56-0.221-1.56-0.941c-0.01,0-0.02-0.01-0.03-0.019c-0.48-0.261-0.96-0.521-1.44-0.771l-2.99-1.52
					c-0.5-0.25-1-0.511-1.49-0.79c-0.49-0.28-0.97-0.57-1.42-0.92c-0.26-0.2-0.5-0.42-0.72-0.66l-0.04-0.01
					c0-0.011,0.01-0.021,0.01-0.021c-0.07-0.08-0.14-0.16-0.21-0.25c-0.02-0.019-0.04-0.04-0.05-0.06
					c-2.02-0.86-3.45-2.15-3.64-3.67c0,0,2.92-0.49,4.82-2.98c0.56-0.74,1.56-1.63,2.77-2.04c0.04-0.01,0.09-0.019,0.13-0.019
					c0.02,0,0.03-0.011,0.04-0.021c-0.7,0.13-1.19,0.37-1.27,0.4c0.22-0.26,0.43-0.471,0.64-0.67c-1.91-0.13-3.85-0.101-5.76,0.069
					c-1.96,0.191-3.91,0.53-5.75,1.181c-0.91,0.319-1.8,0.72-2.61,1.229c-0.8,0.51-1.52,1.141-1.95,1.91
					c-0.22,0.38-0.35,0.79-0.38,1.21c-0.02,0.21-0.01,0.41,0.02,0.62c0.03,0.14,0.07,0.29,0.11,0.4c0-0.23,0.03-0.48,0.1-0.71
					c0.09-0.311,0.27-0.591,0.48-0.82c0.21-0.22,0.44-0.4,0.69-0.54c0.49-0.29,1-0.46,1.52-0.59c1.03-0.25,2.09-0.32,3.12-0.28
					c0.99,0.03,1.98-0.42,2.69-1.15c0.01,0,0.01,0,0.01,0c-0.05,0.49-0.33,0.94-0.69,1.29c-0.36,0.351-0.81,0.61-1.29,0.771
					c-0.46,0.16-0.89,0.37-1.31,0.6c-0.24,0.141-0.48,0.29-0.71,0.44c0.49,0.109,0.96,0.25,1.42,0.43c0.33,0.13,0.64,0.28,0.95,0.45
					c0.32,0.16,0.61,0.34,0.9,0.559l0.48,0.311l-0.6,0.019c-1.37,0.03-2.7,0.32-3.92,0.82c-0.61,0.26-1.18,0.56-1.73,0.91
					c-0.28,0.17-0.54,0.359-0.79,0.56c-0.09,0.07-0.17,0.141-0.26,0.21c0.03,0.09,0.05,0.17,0.08,0.261
					c0.09,0.269,0.19,0.529,0.31,0.809c0.24,0.53,0.51,1.07,0.8,1.61c0.29,0.529,0.6,1.06,0.92,1.59c0.33,0.529,0.67,1.05,1.01,1.56
					c0.7,1,1.47,1.97,2.31,2.87c0.84,0.92,1.72,1.8,2.66,2.67c-0.47-0.149-0.92-0.37-1.35-0.609c-0.39,1.27-1.27,2.18-2.21,2.939
					c-1.08,0.84-2.37,1.37-3.52,1.84c-0.69,0.271-1.36,0.561-2.01,0.891c-0.19,1,0.08,2.04,0.45,2.96
					c0.23,0.54,0.5,1.069,0.81,1.559c0.32,0.51,0.62,1.1,0.78,1.7c0.81,3.08,0.58,5.55,1.44,10.439c0.25,1.45,0.62,2.881,0.95,4.32
					l1.02,4.34c0.16,0.69,0.32,1.4,0.42,2.11c0.92,0.28,1.8,0.61,2.66,0.99c0.68-1.38,3.3-7.07,4.72-9.021
					c0.39-2.35,0.35-3.83,0.19-6.25c-0.17-2.47-0.58-4.939-1.35-7.28c0.06,0.16,0.13,0.32,0.19,0.48c-0.13-0.37-1.44-4.12-0.76-5.61
					v-0.01c-0.02-0.06-0.02-0.14-0.01-0.22c0.04-0.24,0.22-0.441,0.47-0.601c-0.25,0.061-0.39,0.101-0.39,0.101
					c0.35-0.25,0.72-0.46,1.1-0.61c0.59-0.22,1.19-0.35,1.79-0.399c-0.84-0.46-1.63-1.03-2.26-1.771c0.97,0.4,1.86,0.851,2.77,1.24
					c0.93,0.38,1.87,0.66,2.84,0.83c0.97,0.17,1.94,0.22,2.91,0.149c0.36-0.029,0.73-0.08,1.09-0.149
					c-0.21-0.07-0.43-0.15-0.63-0.24c-1.14-0.46-2.24-1.01-3.31-1.58c-2.15-1.14-4.07-2.71-5.59-4.62
					c-0.76-0.95-1.44-1.97-2.01-3.05c-0.29-0.54-0.55-1.09-0.86-1.62c-0.15-0.26-0.31-0.519-0.49-0.76
					c-0.13-0.15-0.28-0.39-0.52-0.35c-0.2,0.029-0.37,0.239-0.52,0.369c-0.26,0.21-0.5,0.481-0.77,0.761
					c0.04-0.391,0.17-0.761,0.39-1.101c0.22-0.33,0.53-0.62,0.89-0.819c0.25-0.141,0.53-0.25,0.82-0.29c0,0,0.07-0.011,0.15-0.021
					s0.17-0.019,0.2-0.019c0.4,0.01,0.81,0.1,1.13,0.37c-0.21,0.069-0.43,0.019-0.64,0.17c-0.38,0.279-0.13,1.05-0.03,1.43
					c0.16,0.59,0.39,1.15,0.63,1.7c0.49,1.09,1.06,2.149,1.78,3.12c1.44,1.93,3.4,3.46,5.54,4.529c1.08,0.551,2.23,0.92,3.4,1.19
					c0.68,0.16,1.37,0.29,2.06,0.39c0.01,0,0.03-0.01,0.05-0.02l0.01,0.029c0.46,0.07,0.92,0.12,1.38,0.15
					c1.16,0.08,2.33,0,3.46-0.229c0.56-0.11,1.11-0.28,1.64-0.48c0.22-0.09,0.44-0.18,0.65-0.29c-0.47-0.26-0.88-0.63-1.19-1.05
					c-0.32-0.43-0.55-0.91-0.72-1.4c-0.17-0.489-0.29-0.979-0.38-1.489c-0.09-0.5-0.1-1.061,0.17-1.54
					c0.27-0.48,0.8-0.721,1.3-0.841c0.51-0.109,1.03-0.13,1.54-0.109c0.86,0.05,1.71,0.229,2.51,0.51
					c-0.06-0.08-0.12-0.17-0.18-0.25C47.536,35.214,47.316,34.933,47.096,34.663z M23.396,28.343c-0.32,0.01-0.62,0.059-0.91,0.14
					c-0.34,0.1-0.68,0.25-0.98,0.44c-0.61,0.38-1.08,0.96-1.49,1.59c0.25-0.71,0.7-1.38,1.35-1.811c0.32-0.22,0.69-0.38,1.07-0.439
					c0.38-0.07,0.78-0.061,1.14,0.069C23.516,28.333,23.456,28.333,23.396,28.343z"/>
				<path fill="#F3C66E" d="M14.746,77.453c-0.09,0.101-0.2,0.2-0.29,0.311c-0.07,0.1-0.14,0.2-0.19,0.3
					c-0.06,0.09-0.11,0.229-0.13,0.27l-0.31,0.94l-0.42-0.78c-0.3-0.5-0.52-1.04-0.65-1.609c-0.06-0.28-0.1-0.57-0.12-0.851v-0.02
					c-0.21,0.26-0.4,0.56-0.55,0.859l-0.3,0.61l-0.12-0.64c-0.69-2.38-1.48-4.75-2.27-7.12c-1.02,4.31-2.79,14.63-3.48,19.55h12.46
					c0.65-3.01,1.48-7.93,1.74-9.4c-0.14-0.05-0.28-0.1-0.42-0.159C18.016,79.023,16.376,78.293,14.746,77.453z"/>
				<path fill="#F3C66E" d="M42.286,25.173c-0.21,0.229-0.36,0.52-0.44,0.84c0.08-0.101,0.18-0.181,0.29-0.25
					c0.14-0.08,0.3-0.13,0.46-0.141c0.04-0.01,0.09-0.01,0.13-0.01c0.12,0,0.24,0.021,0.36,0.061c0.52,0.13,1.01,0.46,1.3,0.939
					c0.3,0.47,0.41,1.04,0.44,1.58c0,0.11,0,0.23,0,0.35c0.63,0.82,2.32,3.271,0.26,3.5c0.01,0.021,0.04,0.04,0.06,0.061
					c0.27,0.24,0.53,0.479,0.79,0.72c0.01,0,0.01,0,0.02,0c1.72-0.08,2.38-1.91,0.68-3.43c-1.19-1.08-1.6-2.21-1.73-2.68
					c-0.54-0.5-1.14-1.211-1.42-2.091C43.046,24.613,42.596,24.803,42.286,25.173z"/>
				<path fill="#F3C66E" d="M29.926,22.363c-0.09,0.07-0.18,0.14-0.26,0.22c-0.1,0.08-0.35,0.41-0.52,0.65
					c-0.11,0.14-0.19,0.25-0.2,0.27c-0.21,0.341-0.4,0.681-0.58,1.04c-0.3,0.61-0.55,1.25-0.71,1.891
					c0.71,0.18,2.84,0.729,5.01,1.49c0.51,0.18,1.03,0.38,1.53,0.579c0.25,0.101,0.5,0.2,0.73,0.311c0.03-0.11,0.07-0.231,0.1-0.34
					c0.07-0.24,0.36-1.21,0.44-2.36c0.05-0.7,0.02-1.47-0.18-2.189c-0.2-0.73-0.67-1.381-1.32-1.79c-1.09-0.71-2.62-0.641-3.75,0.04
					C30.116,22.233,30.016,22.293,29.926,22.363z"/>
			</g>
			<path fill="#FFFFFF" d="M32.666,27.923c0,0.06,0,0.119-0.02,0.17c-1.39-0.551-3.12-1.12-5.02-1.561
				c0.01-0.04,0.01-0.069,0.03-0.1C28.366,26.613,30.496,27.163,32.666,27.923z"/>
			<path fill="#F5F6F5" d="M31.186,27.983c-0.03,0.09-0.04,0.19-0.05,0.28c-1.27-0.74-2.55-1.351-3.52-1.7c0-0.01,0-0.021,0.01-0.03
				c1.9,0.44,3.63,1.01,5.02,1.561c0.01,0.04,0,0.09-0.01,0.13c-0.08,0.31-0.29,0.54-0.53,0.64c-0.3-0.189-0.6-0.38-0.91-0.57
				C31.176,28.193,31.166,28.093,31.186,27.983z"/>
			<path fill="#F5F6F5" d="M32.106,28.863c-0.14,0.061-0.28,0.08-0.42,0.04c-0.27-0.08-0.44-0.32-0.49-0.61
				C31.506,28.483,31.806,28.673,32.106,28.863z"/>
			<path fill="#F5F6F5" d="M31.176,29.023c-0.12-0.05-0.23-0.1-0.35-0.15c-0.51-0.239-1.01-0.479-1.51-0.739
				c-0.49-0.271-0.92-0.62-1.32-1c-0.14-0.131-0.28-0.271-0.42-0.41c0.01-0.05,0.03-0.11,0.04-0.16c0.97,0.35,2.25,0.96,3.52,1.7
				C31.096,28.523,31.116,28.783,31.176,29.023z"/>
			<g>
				<path fill="#E49944" d="M85.336,25.323c0.699,0.2,0.979,0.521,1.08,0.8c0.049-0.059,0.1-0.109,0.149-0.17
					c0,0,0.79-0.84,0.56-3.019h0.01c-0.029-0.16-0.06-0.32-0.1-0.49c-0.609,0.17-1.189,0.32-1.74,0.45
					c-0.1,0.22-0.17,0.46-0.229,0.7h-0.011c0,0-0.02,0.09-0.049,0.239c0,0.03-0.011,0.051-0.011,0.08
					c-0.021,0.08-0.021,0.15-0.03,0.23c-0.01,0.059-0.02,0.12-0.02,0.18c-0.01,0.021-0.01,0.04-0.01,0.05
					c-0.01,0.061-0.01,0.13-0.01,0.2c0,0-0.01,0.061-0.01,0.15C84.917,24.913,84.986,25.223,85.336,25.323z"/>
				<path fill="#E49944" d="M43.426,69.473c1.8,1.83,5.93,1.18,4.97-0.4c-0.02-0.03-0.05-0.07-0.07-0.1
					c-1.22-1.681-4.7-0.25-4.7-0.25s-0.6,0.319-0.27,0.68C43.376,69.423,43.396,69.453,43.426,69.473z"/>
				<path fill="#E49944" d="M40.896,69.714c-2.94-0.801-7.98-4.311-8.64-4.78c0,0,0,0.01-0.01,0c-1.22-3.11-2.31-8.641-2.93-13.431
					c-0.83-6.51-3.51-6.25-3.73-7.13c-0.68,1.49,0.63,5.24,0.76,5.61c0.01,0.02,0.01,0.03,0.01,0.03c0.82,2.109,1.35,4.39,1.67,6.7
					c0.34,2.5,0.55,4.13,0.3,6.68l-0.02,0.18l-0.1,0.141c-0.64,0.859-1.52,2.439-2.35,4.02c0.32,0.88,1.1,2.7,2.36,3.62l0.12-1.25
					c0,0,4.02,3,8.25,3.71l-0.21-3.67v-0.01C36.376,70.133,38.156,69.973,40.896,69.714z"/>
				<path fill="#E49944" d="M43.706,83.363c2.75,0.271,4.98-0.57,4.93-2.37c-0.01-0.25-0.06-0.47-0.14-0.67
					c-0.56-1.43-2.82-1.55-4.8-1.33c-0.89,0.101-1.97,0.12-2.95,0.11c-0.99-0.01-1.87-0.05-2.36-0.08
					c-0.16-0.01-0.27-0.01-0.34-0.021l-0.06,0.221c-1.62-0.431-3.22-0.9-4.82-1.42c-1.59-0.521-3.17-1.08-4.71-1.78
					c-0.76-0.34-1.53-0.809-2.21-1.23c-0.71-0.42-1.44-0.81-2.18-1.17c-1.3-0.63-2.66-1.18-4.03-1.58
					c0.02,0.46,0.01,0.921-0.04,1.391c-0.75-1.36-1.1-2.78-1.45-4.23c-0.36-1.439-0.72-2.88-1.04-4.34
					c-0.33-1.45-0.65-2.92-0.83-4.41c-0.54-4.559-0.33-7.38-1.05-10.439c-0.14-0.58-0.38-1.08-0.69-1.601
					c-0.3-0.529-0.57-1.09-0.77-1.67c-0.33-0.96-0.51-2.1-0.2-3.069c-1.5,0.75-2.86,1.67-3.97,2.869
					c-1.63,1.721-2.69,3.931-3.27,6.32c-0.04,0.16-0.08,0.33-0.12,0.49c0,0.01,0,0.01,0,0.01c-0.1,1.33-0.14,2.021-0.09,2.69
					c0.03,0.399,0.08,0.79,0.17,1.319c0.13,0.79,0.32,1.58,0.53,2.36c0.21,0.82,0.46,1.64,0.7,2.47l1.43,4.82
					c0.89,3.03,1.8,6.03,2.59,9.1c0.21-0.43,0.48-0.819,0.84-1.17l0.61-0.59l-0.08,0.88c-0.02,0.221-0.02,0.49,0.01,0.73
					c0.03,0.25,0.07,0.49,0.14,0.729c0.07,0.221,0.15,0.44,0.24,0.65c0.02-0.03,0.03-0.061,0.05-0.09c0.16-0.261,0.36-0.5,0.57-0.73
					l0.25-0.24l0.3,0.171c1.66,0.909,3.4,1.71,5.16,2.46c1.75,0.739,3.54,1.409,5.36,2c3.38,1.1,6.86,1.93,10.39,2.399v0.53
					c0.82,0.86,3.48,3.27,7.6,3.27c1.96,0,4.25-0.55,6.83-2.08c-0.08,0.011-0.16,0.011-0.24,0.021
					C46.026,84.583,44.176,83.643,43.706,83.363z"/>
				<path fill="#E49944" d="M7.026,62.473c-0.5-1.58-1.04-3.17-1.37-4.851c-0.18,0.88-0.35,1.761-0.52,2.641
					c-0.88,4.979-1.69,9.97-2.48,14.97c-0.59,3.67-1.14,10.35-1.67,14.04h4.28c1.07-6.34,2.92-17.44,3.63-21.07
					c-0.11-0.31-0.21-0.62-0.31-0.93L7.026,62.473z"/>
				<path fill="#E49944" d="M121.486,69.873c-0.771-4.319-1.62-8.64-2.58-12.92c-0.29,1.08-0.64,2.13-0.97,3.17l-1.56,4.771
					c-0.109,0.35-0.229,0.689-0.35,1.04c0.8,4.45,2.85,16.649,3.859,23.34h3.82C123.167,83.703,122.396,74.993,121.486,69.873z"/>
				<path fill="#E49944" d="M118.276,55.053c0.029-0.181,0.061-0.34,0.08-0.49c-0.061-0.3-0.131-0.61-0.2-0.91
					c-0.01-0.04-0.021-0.07-0.03-0.11l0.34-0.079c0.03-0.761-0.049-1.641-0.189-3.471l0.47-0.229c-0.64-5.08-4.89-6.21-8.04-7.42
					l-0.05,0.21c0.601,1.01,0.41,2.31,0.03,3.39c-0.2,0.54-0.471,1.07-0.769,1.56c-0.311,0.49-0.541,0.95-0.681,1.5
					c-0.71,2.87-0.5,5.521-1.04,9.801c-0.17,1.399-0.49,2.77-0.82,4.14c-0.32,1.36-0.67,2.72-1.029,4.07
					c-0.34,1.35-0.69,2.689-1.43,3.96c-0.061-0.471-0.07-0.94-0.031-1.391c-1.379,0.391-2.739,0.95-4.049,1.58
					c-0.74,0.36-1.461,0.75-2.17,1.17c-0.681,0.431-1.451,0.9-2.221,1.23c-1.54,0.7-3.12,1.26-4.71,1.79
					c-1.59,0.51-3.19,0.99-4.81,1.42l-0.061-0.23c-0.279,0.021-1.641,0.11-3.141,0.11c-0.859,0-1.75-0.03-2.51-0.11
					c-1.949-0.22-4.18-0.109-4.779,1.261c-0.1,0.21-0.15,0.46-0.16,0.739c-0.07,2.341,3.76,3.061,7.529,1.811
					c0,0-4.279,1.81-8.85,2.42v0.01c0,0,0.01,0,0.01,0.01c7.971,4.801,12.951,0.03,14.16-1.35v-0.57
					c3.541-0.47,7.03-1.29,10.42-2.39c1.82-0.59,3.61-1.26,5.371-1.99c1.76-0.74,3.51-1.55,5.159-2.45l0.31-0.17l0.25,0.24
					c0.211,0.22,0.41,0.47,0.58,0.73c0.01,0.029,0.021,0.06,0.041,0.08c0.09-0.21,0.18-0.421,0.239-0.641
					c0.07-0.24,0.11-0.479,0.14-0.729c0.031-0.24,0.041-0.511,0.021-0.721l-0.08-0.88l0.61,0.58v0.01
					c0.35,0.351,0.619,0.74,0.84,1.16c0.79-3.05,1.699-6.04,2.59-9.05l1.439-4.8C117.516,58.243,118.016,56.653,118.276,55.053z"/>
				<path fill="#E49944" d="M97.156,24.793c2.95-1.149,7.931-2.69,6.31-8.029c0,0-1.09,1.529-3.59,1.67
					c-0.72,0.04-2.1,0.1-3.459,0.649c-0.011,0-0.011,0-0.011,0c-0.16,0.07-0.319,0.141-0.47,0.21c-2.1,1.021-3.95,3.341-3,8.65
					C92.936,27.943,94.475,25.833,97.156,24.793z M97.316,22.223c4.06-1.62,5.17-2.71,6.069-4.24c0,0,0.57,2.85-3.08,4.7
					c-3.129,1.58-5.149,1.95-7.06,4.09C93.246,26.773,93.646,23.693,97.316,22.223z"/>
				<path fill="#E49944" d="M77.376,69.433c1.69,0,13.86,2.17,19.771,1.17c0,0,0.479,0.55,0.75,1.35c0.12-0.08,0.25-0.16,0.38-0.25
					c0.08-0.05,0.15-0.09,0.23-0.14c0.33-0.59,0.719-1.41,0.89-2.15c0,0,0.62,0.66,0.93,1.13c0.05-0.029,0.11-0.06,0.16-0.09
					c0.39-0.2,0.78-0.39,1.17-0.569l-0.29,0.06c-0.16-0.229-2.98-4.729-4.51-6.47l-0.1-0.12l-0.021-0.14
					c-0.25-2.091-0.19-4.211,0.14-6.261c0.34-2.05,0.91-4.059,1.82-5.91c0,0,1.77-2.939,1.48-7.6c-0.09,0.16-0.23,0.3-0.44,0.41
					c-2.36,1.229-3.75,0.84-4.649,7.87c-0.65,5.1-1.681,7.81-2.65,11.81c0,0-0.301-0.16-5.85,0.13c-6,0.311-8.621,1.65-15.721,1.021
					c-1.18-0.101-5.58,0.53-8.4,3.06v0.03c2.19-0.18,4.141-0.34,5.65-0.46l0.08,0.11c-0.76,0.51-1.13,1.13-0.99,1.689
					c0.67,2.57,4.29,0.44,6.83,0.36c0.37,0.279,0.76,0.569,1.17,0.87C75.926,69.993,76.706,69.433,77.376,69.433z"/>
				<path fill="#E49944" d="M26.836,26.303c-0.03-0.021-0.05-0.051-0.07-0.08c-0.04-0.04-0.08-0.08-0.11-0.13
					c-0.34-0.45-0.64-0.941-0.84-1.471c0.42,0.62,0.89,1.181,1.39,1.71c0.26-0.67,0.57-1.3,0.91-1.92
					c0.2-0.35,0.41-0.699,0.63-1.029c0.03-0.051,0.53-0.74,0.78-0.95c0.61-0.55,1.39-0.91,2.21-1.021c0.81-0.12,1.68,0,2.41,0.431
					c0.73,0.42,1.29,1.14,1.58,1.92c0.31,0.79,0.42,1.63,0.42,2.46c0,0.01,0,0.029,0,0.05l0.01,0.01l-0.01,0.01
					c-0.01,0.391-0.03,0.78-0.07,1.171c-0.05,0.42-0.13,0.819-0.2,1.22c-0.14,0.79-0.31,1.58-0.46,2.37l-0.14-0.03
					c0.5,0.32,0.98,0.68,1.39,1.13l-0.02,0.03c-0.12-0.08-0.23-0.15-0.35-0.22c-0.12-0.08-0.24-0.15-0.36-0.221
					c-0.24-0.14-0.48-0.279-0.72-0.42c1,0.72,1.56,0.941,1.56,0.941c0.01-0.021,0.01-0.03,0.02-0.05
					c0.66-2.051,1.02-3.851,1.14-5.45c0.22-3.181-0.54-5.53-1.96-7.24c-0.03,0.01-0.06,0.01-0.09,0c-0.08,0-0.18-0.04-0.28-0.1
					c-0.09-0.051-0.19-0.131-0.28-0.21c-0.09-0.07-0.18-0.15-0.24-0.221c-0.04-0.029-0.07-0.06-0.08-0.08
					c-0.02-0.02-0.03-0.029-0.03-0.029c-0.13-0.141-0.26-0.261-0.39-0.37c-0.38-0.32-0.77-0.55-1.16-0.71
					c-0.31-0.13-0.62-0.21-0.92-0.25c-0.44-0.07-0.85-0.061-1.22-0.021c-0.13,0.01-0.25,0.03-0.37,0.061
					c-0.04,0-0.09,0.01-0.13,0.019c-1.21,0.41-2.21,1.3-2.77,2.04c-1.9,2.49-4.82,2.98-4.82,2.98
					C23.386,24.153,24.816,25.443,26.836,26.303z"/>
			</g>
			<path fill="#D24B43" d="M17.696,16.263c-0.01,0.01-0.03,0.029-0.04,0.05c-0.3-0.15-0.62-0.271-0.94-0.38
				C17.096,16.033,17.436,16.153,17.696,16.263z"/>
			<path fill="#D24B43" d="M17.636,16.343c-0.09,0.12-0.18,0.239-0.26,0.38c-0.25,0.17-0.51,0.34-0.78,0.5
				c-0.67,0.38-1.41,0.66-2.17,0.76c-0.76,0.11-1.54,0.08-2.29-0.1c-0.38-0.101-0.75-0.23-1.1-0.391c-0.17-0.08-0.34-0.18-0.5-0.279
				c-0.01,0-0.01,0-0.02-0.011c0.4-0.279,0.83-0.529,1.28-0.729c0.63-0.28,1.31-0.471,2.01-0.561c0.69-0.09,1.41-0.09,2.12,0.011
				C16.506,16.003,17.076,16.143,17.636,16.343z"/>
		</g>
		<g>
			<g>
				<path fill="#FFFFFF" d="M35.676,27.355c-0.135,0.893-0.808,3.351-0.862,3.553c-0.886-0.556-2.041-1.17-3.394-1.66
					c-1.893-0.687-3.175-1.577-4.129-2.535c0.007-0.027,0.454-1.679,1.665-3.479c5.053,0.659,6.81,3.301,6.81,3.301
					C35.75,26.798,35.719,27.072,35.676,27.355z M31.533,25.925c1.186,0.161,1.279-1.593,1.279-1.593l-1.04-0.351
					c0,0,0.185,1.127-0.524,1.082c-0.626-0.042-0.586-0.918-0.586-0.918S30.35,25.767,31.533,25.925z"/>
			</g>
		</g>
		<path fill="#4C3529" d="M33.121,26.614c-0.663-0.178-1.361,0.204-1.743,0.884c0.193-0.241,0.477-0.373,0.751-0.299
			c0.394,0.105,0.61,0.578,0.482,1.056c-0.128,0.479-0.553,0.778-0.947,0.673c-0.362-0.097-0.559-0.506-0.495-0.938
			c-0.001,0.005-0.003,0.01-0.004,0.012c-0.113,0.421-0.09,0.837,0.029,1.196c0.476,0.194,1.348,0.557,1.965,0.851
			c0.438-0.233,0.803-0.677,0.958-1.252C34.381,27.811,33.935,26.834,33.121,26.614z"/>
		<path fill="#E49944" d="M92.917,27.973c0,0,1.541-2.114,4.219-3.156c2.945-1.146,7.927-2.688,6.312-8.031
			c0,0-1.094,1.532-3.594,1.678C97.939,18.575,91.271,18.839,92.917,27.973z"/>
		<path fill="#4C3529" d="M117.063,20.903c-1.084-1.786-3.251-2.858-6.441-3.189c-0.084-0.011-0.163-0.017-0.242-0.027
			c0.866-0.89,0.834-1.97,0.833-2.027c-0.003-0.037-0.008-0.072-0.015-0.107c-0.585-2.528-3.107-2.526-5.33-2.526
			c-0.696,0.001-1.404,0-2.054-0.07c-0.098-0.015-0.197-0.025-0.293-0.043l-0.197-0.04l-0.218-0.036
			c-0.147-0.019-0.292-0.037-0.44-0.051c-0.071-0.003-0.142-0.002-0.214-0.005c-0.01,0-0.02-0.001-0.029-0.003
			c-0.079,0.001-0.16-0.005-0.239-0.004c-1.891,0.036-2.928,0.872-3.442,1.419c-3.1-2.726-5.936-0.627-6.694,0.515
			c-0.777,1.166-0.231,1.74-0.061,1.879c-0.815,0.038-1.631,0.141-2.442,0.353c-0.408,0.105-0.813,0.251-1.213,0.438
			c-0.042,0.021-0.087,0.041-0.13,0.063c-0.337,0.009-0.625-0.002-1.905,0.31c-0.945,0.23-1.63,0.941-2.107,1.676
			c-0.399,0.613-0.605,1.105-0.771,1.5c-0.267,0.641-0.402,0.96-1.159,1.391c-0.205,0.114-0.316,0.344-0.287,0.573
			c0.034,0.232,0.203,0.421,0.431,0.479c0.052,0.014,0.402,0.095,0.86,0.042c-0.282,0.83-0.853,1.999-1.932,2.595
			c-1.036,0.572-1.405,2.017-1.164,3.079c0.149,0.661,0.509,1.169,1.022,1.457c-0.082,0.097-0.162,0.192-0.245,0.285
			c-0.649,0.756-1.13,1.581-1.486,2.335c-0.192,0.348-0.371,0.707-0.528,1.074c-0.093,0.21-0.175,0.426-0.259,0.646
			c-0.079,0.223-0.154,0.425-0.224,0.691l-0.096,0.352l0.298,0.336c0.209,0.225,0.389,0.395,0.586,0.579s0.396,0.357,0.597,0.524
			c0.406,0.335,0.825,0.656,1.253,0.955c0.867,0.6,1.773,1.139,2.726,1.592c0.949,0.455,1.938,0.83,2.963,1.111
			c0.999,0.279,2.028,0.491,3.056,0.627c1.03,0.139,2.063,0.223,3.087,0.254c0.132,0.005,0.258,0.004,0.389,0.007
			c0.639,0.035,1.248,0.052,1.822,0.071c0.753,0.023,1.469,0.045,2.13,0.095c0.011,0.008,2.089-0.072,4.259,0.718l0.078-0.032
			c-0.281-0.369-0.637-0.688-1.044-0.938c-0.457-0.278-0.963-0.47-1.47-0.617c-0.394-0.107-0.791-0.188-1.185-0.248
			c-0.017-0.012-0.03-0.021-0.045-0.031l-0.016,0.021c-0.615-0.092-1.225-0.139-1.829-0.176c-2.028-0.125-4.011-0.23-5.944-0.578
			c-0.968-0.178-1.915-0.4-2.854-0.688c-0.917-0.284-1.816-0.644-2.682-1.069c-0.866-0.431-1.704-0.919-2.499-1.469
			c-0.397-0.274-0.789-0.56-1.165-0.862c-0.267-0.214-0.545-0.447-0.794-0.673c0.006-0.05,0.016-0.096,0.025-0.142
			c0.042-0.2,0.088-0.401,0.14-0.602c0.105-0.397,0.233-0.793,0.382-1.182c0.296-0.776,0.68-1.518,1.179-2.191
			c0.135-0.18,0.269-0.362,0.4-0.545c0.008,0.003,0.017,0.003,0.025,0.006l0.003-0.046c0.741-1.012,1.472-2.03,2.2-3.05
			c0.04-0.076,0.511-0.998,0.462-2.539h0.002c-0.003-0.268,0.009-0.522,0.03-0.743c-0.001,0-0.002,0.001-0.003,0.002
			c0.001-0.018,0.005-0.034,0.007-0.052c0.005-0.066,0.014-0.122,0.022-0.183c0.009-0.077,0.015-0.153,0.027-0.229
			c0.004-0.029,0.012-0.055,0.018-0.083c0.025-0.144,0.045-0.236,0.045-0.236l0.007-0.002c0.123-0.521,0.333-1.015,0.66-1.418
			c0.195-0.242,0.429-0.452,0.693-0.616c0.127-0.08,0.268-0.156,0.412-0.213c0.091,0.541,0.206,1.068,0.309,1.586l-0.006,0.003
			c0.224,2.184-0.562,3.02-0.562,3.02c-0.279,0.334-0.573,0.663-0.864,0.992l-0.002,0.01c0,0-0.45,0.513-0.85,0.979l0,0
			c-0.374,0.435-0.738,0.88-1.08,1.347c-0.453,0.609-0.872,1.258-1.217,1.959c-0.189,0.19-0.373,0.388-0.543,0.604
			c-0.377,0.496-0.738,1.074-0.78,1.845c-0.017,0.377,0.099,0.802,0.339,1.127c0.196,0.268,0.414,0.513,0.643,0.733
			c0.472,0.445,1.03,0.807,1.631,1.058c0.16,0.068,0.399,0.269,0.399,0.269c1.075,0.662,2.198,1.192,3.376,1.458
			c1.173,0.25,2.395,0.285,3.526-0.062c2.242-0.622,4.245-1.831,6.08-3.192c1.835-1.377,3.516-2.948,5.099-4.61
			c0.791-0.832,1.548-1.697,2.279-2.587c0.367-0.442,0.752-0.874,1.153-1.287c0.295-0.304,0.335-0.7,1.394-0.768
			c0.339-0.024,0.556,0.21,0.646,0.167l0.096-0.047c0.011-0.359-0.134-0.717-0.389-1c-0.256-0.289-0.618-0.476-0.986-0.548
			c-0.319-0.065-0.637-0.048-0.936,0.021l-0.016-0.011c-0.001,0.004-0.002,0.012-0.001,0.017c-0.042,0.008-0.083,0.015-0.121,0.024
			c-0.332,0.108-0.645,0.269-0.888,0.538l0.029,0.067c0.226,0.026,0.734-0.109,0.765,0.239c0.021,0.256-0.27,0.513-0.38,0.731
			c-0.256,0.51-0.552,0.996-0.881,1.459c-0.66,0.923-1.358,1.82-2.087,2.692c-1.459,1.744-3.078,3.368-4.896,4.738
			c-1.812,1.366-3.854,2.473-6.046,3.013c-1.074,0.288-2.227,0.151-3.23-0.266c-0.425-0.174-0.822-0.401-1.188-0.67
			c0.014-0.003,0.026-0.001,0.039-0.003c0.323-0.035,0.615-0.08,0.964-0.172l0.012-0.004c0.061-0.009,0.111-0.013,0.168-0.027
			c0.091-0.021,0.177-0.043,0.26-0.07c0.166-0.055,0.321-0.122,0.47-0.197c0.3-0.148,0.572-0.33,0.82-0.533
			c0.495-0.393,0.912-0.883,1.259-1.359c0.357-0.477,0.689-0.978,0.973-1.518c0.279-0.534,0.515-1.108,0.603-1.733
			c0.04-0.311,0.032-0.638-0.055-0.95c-0.083-0.314-0.259-0.605-0.482-0.827c-0.458-0.45-1.04-0.685-1.616-0.836
			c-1.168-0.322-2.409-0.184-3.543,0.162c-0.996,0.308-1.942,0.768-2.806,1.366c0.531-0.954,1.223-1.839,1.942-2.676
			c0.531-0.628,1.104-1.209,1.632-1.869c0.059-0.075,0.138-0.168,0.199-0.269c0.001-0.007,0.004-0.013,0.007-0.019
			c0.03-0.039,0.055-0.081,0.079-0.123c0.353-0.324,0.253-1.691,0.23-2.115c-0.048-0.835-0.154-1.652-0.162-2.444
			c-0.005-0.396,0.003-0.782,0.048-1.158c0.022-0.206,0.043-0.334,0.099-0.477c0.055-0.139,0.131-0.27,0.215-0.411
			c0.168-0.268,0.389-0.582,0.695-0.817c0.308-0.234,0.658-0.427,1.022-0.599c0.724-0.336,1.502-0.589,2.3-0.748
			c0.026,0.021,0.042,0.029,0.042,0.029c0.297,0.384,1.259-0.624,1.259-0.624c2.738-2.717,6.074-1.191,6.074-1.191
			c-0.105-0.113-0.21-0.223-0.314-0.322c0.875-0.451,1.838-0.705,2.783-0.729c0.252-0.01,0.501-0.001,0.751,0.019
			c0.126,0.013,0.251,0.024,0.377,0.042l0.395,0.062c0.588,0.085,1.152,0.098,1.714,0.101c1.111,0.008,2.198-0.101,3.224,0.03
			c0.509,0.06,1.002,0.189,1.391,0.462c0.392,0.262,0.665,0.681,0.806,1.172c0.026,0.199,0.012,0.445-0.042,0.662
			c-0.054,0.233-0.151,0.45-0.285,0.651c-0.184,0.281-0.448,0.514-0.744,0.701c-0.048-0.01-0.096-0.024-0.142-0.034
			c0.177-0.187,0.337-0.388,0.464-0.617c0.186-0.329,0.303-0.767,0.135-1.168c-0.384-0.777-1.287-1.082-2.083-1.059
			c-0.808,0.021-1.551,0.223-2.287,0.353c-0.734,0.138-1.459,0.235-2.181,0.243c-0.001,0.001-1.689,0.162-1.689,0.162l1.496,0.734
			c1.131,0.55,2.271,1.003,3.45,1.39c1.176,0.382,2.382,0.686,3.622,0.829l0.907,0.093c0.295,0.034,0.592,0.077,0.884,0.13
			c0.584,0.106,1.162,0.254,1.713,0.455c1.006,0.366,1.951,0.952,2.582,1.802c-0.539,0.087-1.068,0.191-1.598,0.316
			c-0.633,0.155-1.265,0.33-1.884,0.608c-0.002,0.001-1.119,0.397-1.119,0.397l1.245,0.216c0.218,0.037,0.446,0.086,0.669,0.138
			c0.224,0.056,0.443,0.114,0.658,0.182c0.248,0.076,0.491,0.163,0.72,0.263c-0.066,0.293-0.146,0.599-0.234,0.89
			c-0.133,0.471-0.292,0.935-0.471,1.391c-0.354,0.915-0.764,1.816-1.243,2.677c-0.948,1.733-2.108,3.358-3.485,4.782
			c-1.373,1.428-2.906,2.683-4.499,3.85c-1.597,1.172-3.274,2.22-4.976,3.322c2.975-0.766,4.67-1.875,4.682-1.876
			c4.895-3.223,7.731-7.113,9.253-9.835c0.698-1.248,1.186-2.364,1.523-3.251c0.1-0.226,0.197-0.453,0.291-0.685
			c0.19-0.488,0.362-0.958,0.521-1.501l0.141-0.489l-0.535-0.238c-0.161-0.048-0.321-0.083-0.48-0.115
			c0.675-0.16,1.188-0.25,1.198-0.253c0.038-0.008,0.079-0.018,0.115-0.034c0.135-0.054,0.245-0.158,0.305-0.294
			C117.171,21.263,117.16,21.064,117.063,20.903z M86.075,21.088c-0.316,0.203-0.598,0.459-0.829,0.75
			c-0.467,0.587-0.722,1.304-0.831,2.014c-0.005,0.032-0.005,0.064-0.01,0.092c-0.442,0.948-1.215,2.443-1.951,3.07
			c-1.107,0.943-0.987,1.915-0.529,2.512c-0.275-0.079-0.483-0.267-0.615-0.602c-0.178-0.464-0.15-1.078,0.062-1.593
			c0.104-0.261,0.253-0.498,0.462-0.673c0.253-0.208,0.501-0.455,0.712-0.713c0.367-0.451,0.662-0.943,0.892-1.467
			c0.512-1.017,0.651-1.965,0.643-1.962c0,0,0,0-0.002,0.005c-0.064,0.046-0.131,0.071-0.196,0.107
			c0.17-0.098,0.338-0.233,0.491-0.422c0.645-0.803,0.76-1.589,2.313-1.805c0.008,0.123,0.015,0.246,0.029,0.369
			C86.49,20.854,86.281,20.959,86.075,21.088z"/>
		<g>
			<g>
				<path fill="#4C3529" d="M103.869,67.344c0.071,0.093,0.149,0.181,0.237,0.266C104.018,67.525,103.94,67.437,103.869,67.344z"/>
			</g>
		</g>
		<g>
			<g>
				<g>
					<path fill="#4C3529" d="M102.533,55.796c0.026-0.009,0.013-0.048-0.013-0.039C102.498,55.763,102.511,55.802,102.533,55.796
						L102.533,55.796z"/>
				</g>
			</g>
		</g>
		<path fill="#F3C66E" d="M27.698,45.216c0.038,0.18,0.104,0.367,0.184,0.574C27.791,45.589,27.736,45.396,27.698,45.216z"/>
		<path fill="#F3C66E" d="M27.688,45.175c0.007,0.012,0.005,0.021,0.01,0.041C27.691,45.205,27.684,45.195,27.688,45.175z"/>
		<path fill="#E49944" d="M19.137,49.769c-0.024-0.11-0.059-0.214-0.095-0.316C19.087,49.557,19.122,49.661,19.137,49.769z"/>
		<path fill="#F3C66E" d="M18.362,47.486c0.018,0.09,0.045,0.192,0.073,0.284C18.397,47.676,18.381,47.576,18.362,47.486z"/>
		<g>
			<path fill="#4C3529" d="M48.404,68.549c3.287-0.143,6.554-0.508,9.828-0.803l9.823-0.906l0.076,0.996
				c-3.276,0.198-6.551,0.477-9.825,0.749c-3.273,0.282-6.552,0.506-9.811,0.96L48.404,68.549z"/>
		</g>
		<g>
			<polygon fill="#4C3529" points="40.272,79.351 36.001,70.339 35.759,69.829 36.322,69.768 43.348,69.013 43.439,70.009 
				36.396,70.561 36.717,69.991 41.172,78.914 			"/>
		</g>
		<g>
			<polygon fill="#4C3529" points="38.176,79.135 36.19,75.379 36.154,75.31 36.148,75.204 35.849,69.97 36.847,69.914 
				37.146,75.147 37.104,74.973 38.556,78.967 			"/>
		</g>
		
			<rect x="62.038" y="65.12" transform="matrix(-0.0879 -0.9961 0.9961 -0.0879 -10.7112 148.2974)" fill="#4C3529" width="1" height="27.864"/>
		<g>
			<path fill="#4C3529" d="M74,69.288c1.735,1.073,3.391,2.254,5.045,3.438c1.64,1.202,3.278,2.406,4.852,3.697l-0.379,0.512
				c-1.693-1.13-3.323-2.346-4.951-3.564c-1.614-1.237-3.226-2.478-4.758-3.824L74,69.288z"/>
		</g>
		
			<rect x="62.258" y="70.632" transform="matrix(-0.0908 -0.9959 0.9959 -0.0908 -15.1202 154.0427)" fill="#4C3529" width="1" height="26.584"/>
		<g>
			<path fill="#4C3529" d="M74.077,69.756c-0.612,0.092-1.201,0.242-1.803,0.436c-0.604,0.168-1.214,0.358-1.853,0.518
				c-0.639,0.158-1.315,0.281-2.093,0.159c-0.384-0.063-0.805-0.265-1.107-0.587c-0.309-0.334-0.454-0.692-0.546-1.106
				c-0.091-0.487,0.101-0.949,0.327-1.263c0.233-0.321,0.508-0.571,0.803-0.768c0.591-0.392,1.225-0.647,1.874-0.808
				c1.295-0.328,2.635-0.3,3.888-0.021c-1.282,0.062-2.53,0.285-3.671,0.714c-0.562,0.226-1.11,0.49-1.551,0.85
				c-0.444,0.335-0.781,0.826-0.678,1.111c0.121,0.475,0.384,0.778,0.86,0.854c0.484,0.103,1.093,0.001,1.695-0.09
				c1.211-0.205,2.489-0.6,3.834-0.503L74.077,69.756z"/>
		</g>
		<g>
			<g>
				<path fill="#D24B43" d="M18.373,16.622c0,0-4.377-2.539-8.487,0.619c0,0,3.92,2.946,8.284,0.378L18.373,16.622z"/>
			</g>
		</g>
		<g>
			<g>
				<path fill="#4C3529" d="M20.288,21.132c-0.101,0.013-0.206,0.025-0.312,0.027C20.082,21.158,20.187,21.145,20.288,21.132z"/>
			</g>
		</g>
		<g>
			<g>
				<path fill="#F3C66E" d="M43.337,23.939c-1.08,0.346-1.758,1.301-1.785,2.576h0.002c0.523-1.136,1.495-0.749,1.503-0.747
					c1.53,0.484,1.69,2.016,1.507,3.341c-0.162,1.164-0.588,2.172-0.588,2.172c0.133,0.131,0.274,0.263,0.418,0.394
					c0.442,0.399,0.86,0.787,1.243,1.158c2.021,0.219,2.931-1.775,1.096-3.421c-1.259-1.129-1.644-2.335-1.747-2.754
					c0,0,0,0,0.002-0.001C44.279,26.085,43.459,25.166,43.337,23.939z"/>
			</g>
		</g>
		<g>
			<g>
				<path fill="#FFFFFF" d="M43.288,28.12c-0.482-0.3-1.014-0.58-1.575-0.789c0.054,0.312,0.145,0.642,0.275,0.978
					c0.062,0.16,0.135,0.325,0.219,0.49c0.487-0.061,0.472-0.973,0.472-0.973L43.288,28.12z"/>
			</g>
		</g>
		<g>
			<g>
				<path fill="#F3C66E" d="M42.118,28.793c-0.033,0.004-0.066,0.002-0.102-0.001c0.061,0.081,0.133,0.155,0.205,0.232
					c0.013,0.015,0.029,0.031,0.041,0.05C42.21,28.976,42.164,28.885,42.118,28.793z"/>
			</g>
		</g>
		<g>
			<g>
				<path fill="#FFFFFF" d="M42.118,28.793c0.046,0.093,0.092,0.184,0.144,0.281c0.053,0.062,0.091,0.13,0.117,0.199
					c0.065,0.113,0.131,0.225,0.206,0.331c0.595-0.203,0.829-1.117,0.877-1.322c-0.084-0.055-0.173-0.114-0.262-0.169l-0.608-0.295
					C42.59,27.818,42.604,28.73,42.118,28.793z"/>
			</g>
		</g>
		<g>
			<g>
				<path fill="#F3C66E" d="M42.378,29.273c0.043,0.125,0.046,0.25,0.017,0.37c0.066-0.005,0.13-0.019,0.189-0.039
					C42.509,29.498,42.442,29.386,42.378,29.273z"/>
			</g>
		</g>
		<g>
			<g>
				<path fill="#FFFFFF" d="M43.46,28.282c-0.048,0.205-0.282,1.119-0.877,1.322c0.359,0.55,0.818,1.112,1.394,1.677
					c0,0,0.427-1.008,0.588-2.172C44.252,28.845,43.879,28.557,43.46,28.282z"/>
			</g>
		</g>
		<g>
			<g>
				<g>
					<path fill="none" stroke="#4C3529" stroke-width="4.252" stroke-miterlimit="10" d="M36.818,32.562"/>
				</g>
			</g>
		</g>
		<g>
			<g>
				<g>
					<path fill="#4C3529" d="M7.115,46.768c-0.02-0.016,0.002-0.047,0.023-0.032C7.157,46.751,7.134,46.782,7.115,46.768
						L7.115,46.768z"/>
				</g>
			</g>
		</g>
		<g>
			<g>
				<path fill="#4C3529" d="M51.778,38.887c-0.099-0.814-0.79-1.578-2.106-2.33c-0.07-0.077-0.141-0.149-0.211-0.225
					c-0.408-0.523-1.326-1.642-2.742-3.077c0.569-0.193,1.015-0.582,1.255-1.121c0.346-0.77,0.264-1.997-0.994-3.128
					c-0.42-0.372-0.73-0.752-0.962-1.103c-0.226-0.301-0.272-1.102-0.159-2.822c0.034-0.524-0.073-0.991-0.174-1.395
					c0.153-0.064,0.27-0.196,0.312-0.358c0.033-0.12,0.782-2.962,0.23-6.37c-0.516-3.174-2.305-7.43-7.897-9.67
					c-0.243-0.098-0.494-0.194-0.747-0.28c-6.178-2.152-10.761-0.715-13.519,0.873c-1.689,0.975-2.961,2.164-3.846,3.243
					c-0.013,0.015-0.029,0.03-0.042,0.048c-0.288,0.333-0.561,0.684-0.814,1.053c-0.252,0.376-0.487,0.746-0.677,1.231l-0.714,1.606
					l1.496-0.878c0.073-0.043,0.211-0.104,0.326-0.153c0.058-0.024,0.119-0.047,0.179-0.069c0.461-0.125,1.178-0.278,2.169-0.38
					c-0.06,0.024-0.123,0.057-0.184,0.082c-0.362,0.112-0.722,0.232-1.078,0.378c-0.819,0.329-1.628,0.757-2.365,1.377
					c-0.315,0.265-0.612,0.573-0.878,0.923c-0.54-0.259-1.111-0.454-1.694-0.595c-0.713-0.167-1.452-0.257-2.194-0.233
					c-0.743,0.02-1.489,0.149-2.206,0.384c-0.719,0.236-1.403,0.577-2.034,1.001l-0.427,0.284l0.391,0.381
					c0.195,0.178,0.365,0.3,0.557,0.43c0.185,0.123,0.379,0.237,0.578,0.343c0.396,0.211,0.808,0.386,1.238,0.516
					c0.458,0.143,0.934,0.242,1.414,0.292c-1.085,0.269-2.332,0.92-3.175,2.424c0,0,1.624,0.3,3.229-0.466
					c-0.15,0.245-0.277,0.494-0.375,0.754c-0.544,1.439-0.028,2.56-0.003,2.612c0.259,0.53,0.692,0.928,1.284,1.182
					c-0.113,0.062-0.223,0.121-0.336,0.185l-0.248,0.156c-0.086,0.054-0.158,0.097-0.264,0.18L13.37,26.17l-0.337,0.295l0.009,0.438
					c0.002,0.067,0.003,0.069,0.005,0.098l0.006,0.055l0.014,0.094l0.028,0.163c0.021,0.104,0.043,0.201,0.068,0.291
					c0.05,0.185,0.107,0.357,0.171,0.522c0.125,0.334,0.263,0.645,0.412,0.948c0.293,0.609,0.627,1.178,0.979,1.729
					c0.349,0.554,0.724,1.083,1.107,1.601c0.38,0.52,0.783,1.026,1.206,1.524c0.356,0.416,0.73,0.819,1.118,1.209
					c0.323,0.363,2.949,2.456,3.238,2.628c0.554,0.335,1.129,0.635,1.744,0.84c-0.944-0.871-1.819-1.756-2.658-2.669
					c-0.844-0.907-1.615-1.873-2.315-2.879c-0.688-1.007-1.346-2.082-1.931-3.147c-0.29-0.536-0.563-1.076-0.801-1.613
					c-0.116-0.271-0.222-0.54-0.308-0.803c-0.029-0.09-0.053-0.175-0.076-0.263c0.083-0.068,0.168-0.144,0.256-0.211
					c0.25-0.197,0.514-0.385,0.786-0.559c0.55-0.352,1.127-0.652,1.738-0.905c1.219-0.506,2.551-0.794,3.917-0.828l0.598-0.015
					l-0.475-0.31l-0.001-0.004c-0.292-0.218-0.587-0.394-0.899-0.561c-0.309-0.164-0.628-0.312-0.955-0.442
					c-0.457-0.18-0.932-0.325-1.414-0.431c0.229-0.153,0.464-0.303,0.702-0.439c0.422-0.238,0.855-0.449,1.313-0.604
					c0.479-0.162,0.934-0.417,1.293-0.771c0.354-0.351,0.637-0.8,0.686-1.294c0,0-0.002,0.003-0.005,0.006
					c-0.71,0.732-1.709,1.178-2.695,1.151c-1.033-0.048-2.087,0.031-3.122,0.277c-0.517,0.131-1.032,0.301-1.522,0.59
					c-0.244,0.142-0.479,0.32-0.688,0.544c-0.207,0.223-0.382,0.504-0.479,0.818c-0.072,0.229-0.102,0.474-0.095,0.709
					c-0.045-0.114-0.086-0.262-0.109-0.399c-0.032-0.207-0.042-0.414-0.026-0.621c0.033-0.42,0.166-0.83,0.378-1.212
					c0.433-0.768,1.157-1.399,1.957-1.908c0.804-0.506,1.693-0.912,2.608-1.234c1.838-0.646,3.792-0.988,5.753-1.172
					c1.909-0.172,3.845-0.204,5.755-0.075c-0.213,0.198-0.434,0.42-0.652,0.678c0,0,2.976-1.555,5.306,0.907
					c0,0,0.819,0.913,1.089,0.545c0,0,0.48-0.339,0.339-1.075c0.675,0.188,1.35,0.408,2.008,0.655
					c0.869,0.321,1.717,0.691,2.541,1.107c1.398,0.71,2.728,1.571,3.884,2.617l-0.09,0.096c-0.658-0.016-1.063-0.35-2.364,0.915
					c-0.318,0.312-0.567,0.665-0.736,1.04c-0.332,0.752-0.357,1.539-0.244,2.266c0.021,0.134,0.053,0.267,0.083,0.4
					c-0.023-0.021-0.045-0.045-0.07-0.066c-0.255-0.223-0.547-0.403-0.859-0.53c-0.313-0.129-0.644-0.203-0.975-0.221
					c-0.33-0.019-0.662,0.015-0.97,0.115c0.642-0.006,1.264,0.136,1.8,0.417c0.267,0.143,0.513,0.317,0.732,0.523
					c0.179,0.177,0.342,0.357,0.572,0.514c0.118,0.308,0.258,0.607,0.418,0.896c0.085,0.147,0.176,0.298,0.267,0.44
					c-0.003,0.024,0.651,0.912,0.999,1.301c0.24,0.268,0.488,0.526,0.749,0.772c0.263,0.242,0.518,0.482,0.771,0.732
					c0.503,0.494,1.002,0.994,1.471,1.521c0.236,0.263,0.469,0.528,0.7,0.795c0.226,0.271,0.446,0.548,0.666,0.821
					c0.059,0.082,0.12,0.162,0.182,0.242c-0.808-0.276-1.652-0.456-2.511-0.502c-0.515-0.023-1.037-0.007-1.546,0.107
					c-0.499,0.117-1.026,0.364-1.297,0.841c-0.27,0.476-0.263,1.034-0.175,1.537c0.092,0.507,0.213,0.998,0.381,1.49
					c0.168,0.49,0.401,0.969,0.723,1.403c0.31,0.423,0.72,0.785,1.19,1.053c-0.21,0.101-0.426,0.196-0.647,0.283
					c-0.531,0.199-1.082,0.371-1.645,0.484c-1.127,0.229-2.295,0.312-3.463,0.231c-0.457-0.032-0.913-0.087-1.373-0.152L37.544,42.5
					c-0.017,0.007-0.036,0.015-0.052,0.021c-0.688-0.102-1.375-0.233-2.061-0.389c-1.164-0.274-2.318-0.649-3.393-1.192
					c-2.146-1.075-4.101-2.598-5.539-4.535c-0.721-0.968-1.299-2.025-1.785-3.121c-0.244-0.55-0.467-1.106-0.629-1.692
					c-0.104-0.388-0.349-1.156,0.032-1.436c0.203-0.146,0.431-0.102,0.64-0.17c-0.325-0.265-0.733-0.362-1.134-0.363
					c-0.062,0-0.351,0.032-0.351,0.032c-0.283,0.048-0.564,0.15-0.817,0.291c-0.362,0.2-0.673,0.488-0.891,0.823
					c-0.216,0.34-0.354,0.713-0.384,1.1c0.261-0.283,0.502-0.549,0.768-0.762c0.149-0.125,0.32-0.337,0.522-0.372
					c0.233-0.036,0.388,0.201,0.512,0.357c0.181,0.232,0.342,0.495,0.498,0.757c0.31,0.526,0.567,1.081,0.856,1.62
					c0.572,1.081,1.25,2.104,2.013,3.053c1.521,1.903,3.439,3.473,5.59,4.616c1.073,0.572,2.165,1.121,3.306,1.585
					c0.207,0.086,0.417,0.164,0.628,0.24c-0.359,0.062-0.723,0.111-1.086,0.143c-0.965,0.07-1.944,0.021-2.908-0.147
					c-0.967-0.167-1.916-0.452-2.838-0.831c-0.918-0.384-1.806-0.84-2.772-1.242c0.631,0.739,1.417,1.311,2.262,1.772
					c-0.603,0.056-1.206,0.182-1.794,0.405c-0.383,0.146-0.75,0.36-1.096,0.607c0,0,1.75-0.537,3.869-0.233
					c1.472,0.211,3.09,0.848,5.068,0.784c0.09-0.001,0.179,0.003,0.269,0.002c0.537-0.021,1.072-0.086,1.602-0.191
					c0.264-0.051,0.527-0.113,0.789-0.19c0.22-0.065,0.424-0.133,0.652-0.228c1.301,0.191,2.455,0.201,3.458,0.104
					c0.423-0.029,0.843-0.079,1.264-0.159c0.623-0.114,1.244-0.272,1.843-0.497c0.302-0.118,0.598-0.247,0.888-0.392
					c0.145-0.075,0.289-0.152,0.432-0.235c0.079-0.049,0.156-0.098,0.235-0.15c0.266,0.033,0.533,0.048,0.797,0.033
					c1.746-0.094,3.382-0.919,3.987-1.476C51.176,40.492,51.892,39.834,51.778,38.887z M17.353,16.746
					c-0.251,0.178-0.509,0.348-0.779,0.501c-0.671,0.383-1.405,0.665-2.17,0.767c-0.76,0.104-1.54,0.077-2.291-0.105
					c-0.375-0.094-0.744-0.223-1.095-0.387c-0.175-0.084-0.344-0.18-0.507-0.278c-0.004-0.001-0.01-0.005-0.015-0.011
					c0.399-0.281,0.826-0.531,1.278-0.732c0.631-0.28,1.309-0.471,2.006-0.562c0.698-0.09,1.416-0.087,2.125,0.014
					c0.578,0.083,1.152,0.221,1.706,0.422C17.522,16.492,17.435,16.615,17.353,16.746z M41.135,19.75
					c-0.841-0.424-1.707-0.797-2.587-1.124c-0.766-0.281-1.537-0.532-2.333-0.734c-0.037-0.074-0.077-0.155-0.127-0.235
					c-0.612-1.013-2.91-2.804-5.601-0.491c0,0-3.978-0.423-5.981-0.312c-1.635,0.102-3.275,0.31-4.88,0.712l-0.302-0.433
					c0.102-0.191,0.223-0.383,0.365-0.569c0.441-0.582,1.038-1.105,1.702-1.558c0.663-0.453,1.393-0.845,2.153-1.183
					c0.758-0.336,1.546-0.629,2.361-0.854c-1.12-0.158-2.252-0.259-3.398-0.26c-0.571-0.002-1.148,0.021-1.728,0.077
					c-0.152,0.016-0.307,0.036-0.458,0.054c0.214-0.324,0.452-0.641,0.706-0.946c0.518-0.623,1.098-1.198,1.72-1.724
					c1.247-1.048,2.674-1.885,4.207-2.443c1.532-0.559,3.17-0.833,4.81-0.824c1.642,0.003,3.286,0.279,4.873,0.752
					c1.589,0.47,3.116,1.14,4.446,2.106c1.333,0.957,2.442,2.215,3.208,3.667c0.772,1.454,1.206,3.083,1.361,4.731
					c0.14,1.518,0.071,3.077-0.221,4.567C44.167,21.507,42.688,20.537,41.135,19.75z M44.172,29.72
					c-0.107,0.398-0.242,0.795-0.398,1.172c-0.064-0.067-0.131-0.133-0.193-0.202c-0.326-0.358-1.673-1.773-1.839-3.64
					c-0.001-0.005-0.003-0.009-0.003-0.014c-0.026-0.312-0.003-0.624,0.069-0.922c0.1-0.107,0.214-0.199,0.346-0.261
					c0.134-0.063,0.283-0.095,0.43-0.098c0.148-0.004,0.301,0.024,0.429,0.074l0.005,0.003c0.485,0.169,0.892,0.5,1.116,0.941
					c0.226,0.438,0.292,0.947,0.278,1.447C44.405,28.418,44.231,29.501,44.172,29.72z M45.913,32.849
					c-0.26-0.242-0.521-0.482-0.787-0.716c-0.023-0.02-0.047-0.038-0.065-0.059c2.063-0.231,0.374-2.685-0.254-3.507
					c0.003-0.117,0.001-0.234-0.005-0.35c-0.027-0.542-0.137-1.104-0.434-1.579c-0.292-0.479-0.785-0.809-1.303-0.941l-0.001-0.001
					c-0.164-0.051-0.323-0.063-0.485-0.05c-0.162,0.014-0.32,0.062-0.46,0.146c-0.115,0.064-0.21,0.151-0.296,0.25
					c0.086-0.318,0.23-0.61,0.438-0.842c0.317-0.372,0.764-0.562,1.202-0.552c0.281,0.883,0.88,1.59,1.421,2.088
					c0.128,0.472,0.537,1.607,1.73,2.679C48.325,30.951,47.649,32.785,45.913,32.849z"/>
				<path fill="#4C3529" d="M25.903,12.969c-0.038,0.002-0.076,0.006-0.112,0.009c-0.015-0.003-0.025-0.003-0.037-0.004
					C25.804,12.972,25.852,12.969,25.903,12.969z"/>
				<polygon fill="#4C3529" points="14.961,26.849 14.961,26.848 14.961,26.843 				"/>
			</g>
		</g>
		<g>
			<g>
				<path fill="#4C3529" d="M21.486,28.947c-0.608,0.388-1.083,0.962-1.489,1.596c0.244-0.711,0.695-1.379,1.346-1.816
					c0.321-0.217,0.69-0.374,1.073-0.441c0.381-0.062,0.779-0.051,1.14,0.077c-0.379,0-0.742,0.059-1.088,0.152
					C22.12,28.614,21.789,28.756,21.486,28.947z"/>
			</g>
		</g>
		<g>
			<g>
				<path fill="#4C3529" d="M22.594,19.856L22.594,19.856L22.594,19.856z"/>
			</g>
		</g>
		<g>
			<g>
				<path fill="#FFFFFF" d="M49.906,39.505c0.221-1.146-2.473-2.847-5.294-2.69c1.586-1.021,6.924,0.337,6.604,1.989
					c-0.084,0.437-0.571,1.114-1.691,1.376C49.747,39.948,49.867,39.702,49.906,39.505z"/>
			</g>
		</g>
		<path fill="#F3C66E" d="M99.96,43.327c-0.056,0.174-0.141,0.354-0.243,0.552C99.829,43.688,99.904,43.501,99.96,43.327z"/>
		<path fill="#F3C66E" d="M99.975,43.287c-0.008,0.011-0.007,0.021-0.015,0.04C99.969,43.316,99.977,43.305,99.975,43.287z"/>
		<path fill="#F3C66E" d="M96.851,61.309c0.006-0.324,0.03-0.676,0.046-1.043c-0.006-0.192-0.009-0.377-0.011-0.562l-0.067-0.146
			c-0.021,0.691-0.004,1.291,0.019,1.746C96.838,61.305,96.838,61.305,96.851,61.309z"/>
		<path fill="#F3C66E" d="M96.897,60.266c-0.016,0.367-0.041,0.719-0.046,1.043c0.017,0.012,0.049,0.039,0.094,0.067
			C96.915,60.999,96.897,60.626,96.897,60.266z"/>
		<path fill="#E49944" d="M91.11,49.083c0.086-0.16,0.165-0.311,0.252-0.46C91.274,48.763,91.187,48.923,91.11,49.083z"/>
		<path fill="#F3C66E" d="M97.073,56.866c-0.039,0.296-0.074,0.601-0.096,0.91C96.999,57.466,97.034,57.162,97.073,56.866z"/>
		<path fill="#F3C66E" d="M97.579,54.201c-0.557,1.905-0.731,3.853-0.76,5.358l0.067,0.146c0.001-0.671,0.033-1.313,0.091-1.929
			c0.022-0.31,0.057-0.614,0.096-0.91c0.061-0.431,0.124-0.852,0.2-1.247c0.011-0.087,0.031-0.178,0.051-0.271
			C97.396,54.945,97.488,54.562,97.579,54.201z"/>
		<path fill="#F3C66E" d="M96.897,60.266c0.085-1.72,0.229-3.692,0.376-4.647c-0.076,0.396-0.139,0.816-0.2,1.247
			c-0.039,0.296-0.074,0.601-0.096,0.91c-0.058,0.615-0.09,1.258-0.091,1.929C96.888,59.889,96.891,60.074,96.897,60.266z"/>
		<path fill="#F3C66E" d="M97.579,54.201c-0.091,0.361-0.184,0.744-0.255,1.147c0,0,0.407-1.445,0.945-3.053
			C97.985,52.91,97.763,53.549,97.579,54.201z"/>
		<path fill="#4C3529" d="M119.348,49.477l-1.091,0.54c0.24,3.055,0.278,3.464,0.002,5.061c-0.268,1.606-0.759,3.194-1.228,4.8
			l-1.439,4.804c-0.885,3.007-1.8,5.999-2.592,9.048c-0.215-0.422-0.483-0.812-0.839-1.162l0.001-0.003l-0.61-0.581l0.079,0.875
			c0.02,0.215,0.012,0.481-0.016,0.725c-0.028,0.247-0.073,0.492-0.142,0.73c-0.062,0.219-0.144,0.432-0.238,0.639
			c-0.016-0.026-0.027-0.056-0.044-0.082c-0.169-0.264-0.366-0.505-0.578-0.725v-0.004l-0.244-0.241l-0.309,0.17
			c-1.655,0.903-3.404,1.707-5.162,2.447c-1.763,0.736-3.556,1.403-5.374,1.993c-3.393,1.099-6.878,1.92-10.415,2.387v0.617
			c3.612-0.418,7.174-1.201,10.646-2.271c1.848-0.57,3.671-1.219,5.466-1.939c1.682-0.681,3.331-1.413,4.958-2.253
			c0.1,0.104,0.208,0.199,0.292,0.312c0.073,0.099,0.14,0.199,0.198,0.303c0.054,0.09,0.109,0.229,0.123,0.271l0.313,0.927
			l0.426-0.775v-0.001c0.297-0.494,0.519-1.035,0.646-1.598c0.065-0.277,0.103-0.564,0.121-0.85v-0.019
			c0.213,0.266,0.399,0.559,0.549,0.857l0.299,0.604l0.127-0.633c0.927-3.189,2.044-6.354,3.084-9.528l1.56-4.771
			c0.5-1.593,1.051-3.19,1.39-4.877C119.625,53.609,119.703,51.853,119.348,49.477z"/>
		<path fill="#4C3529" d="M101.348,69.973l0.917-0.201c-0.291-0.412-3.05-5.079-4.571-6.834c-0.374-1.927-0.49-3.912-0.334-5.895
			c0.165-2.024,0.561-4.055,1.313-5.969c-0.909,1.848-1.48,3.86-1.819,5.908c-0.333,2.051-0.385,4.163-0.143,6.254l0.021,0.144
			l0.102,0.115C98.367,65.236,101.182,69.744,101.348,69.973z"/>
		<path fill="#4C3529" d="M110.63,42.579c0.406,1.082,0.109,2.243-0.319,3.248c-0.224,0.508-0.491,1-0.797,1.466
			c-0.32,0.472-0.615,1.03-0.769,1.586c-0.804,2.896-0.575,5.209-1.426,9.797c-0.252,1.359-0.616,2.703-0.948,4.054l-1.003,4.068
			c-0.341,1.354-0.656,2.735-0.477,4.202c0.741-1.27,1.092-2.606,1.432-3.964c0.359-1.349,0.713-2.702,1.034-4.069
			c0.323-1.362,0.645-2.739,0.82-4.141c0.535-4.279,0.327-6.926,1.041-9.792c0.137-0.549,0.37-1.018,0.676-1.503
			c0.302-0.493,0.569-1.017,0.77-1.565C111.045,44.892,111.236,43.591,110.63,42.579z"/>
		<path fill="#4C3529" d="M105.17,68.562c-1.655,0.488-3.198,1.15-4.709,1.919c-0.751,0.385-1.487,0.802-2.203,1.252
			c-0.721,0.473-1.367,0.888-2.124,1.243c-1.479,0.718-3.036,1.31-4.599,1.866c-1.567,0.549-3.154,1.059-4.748,1.522l0.117,0.433
			c1.62-0.432,3.221-0.904,4.813-1.422c1.59-0.523,3.17-1.082,4.71-1.784c0.765-0.335,1.537-0.804,2.218-1.229
			c0.706-0.422,1.432-0.812,2.171-1.171c1.477-0.709,3.028-1.327,4.584-1.746L105.17,68.562z"/>
		<g>
			<path fill="#4C3529" d="M113.831,53.443c1.472-0.813,3.426-0.826,5.116-0.117l-0.679,1.201c-0.591-0.464-1.277-0.829-2.037-1.028
				C115.474,53.302,114.642,53.25,113.831,53.443z"/>
		</g>
		<g>
			<path fill="#4C3529" d="M111.721,56.011c1.019-0.271,2.108-0.309,3.188-0.184c1.081,0.129,2.158,0.45,3.169,0.945l-0.732,1.17
				c-0.761-0.609-1.636-1.106-2.591-1.442C113.8,56.17,112.77,55.969,111.721,56.011z"/>
		</g>
		<path fill="#4C3529" d="M105.089,77.268c-0.275,0.132-0.561,0.244-0.84,0.365c0.662,2.05,1.953,8.418,2.34,11.635h0.913
			C106.932,85.727,105.692,79.29,105.089,77.268z"/>
		<path fill="#4C3529" d="M115.802,65.003c-0.083,0.312-0.184,0.62-0.319,0.915c-0.032,0.104-0.056,0.211-0.09,0.315
			c-0.038,0.118-0.076,0.246-0.115,0.372c1.109,4.75,3.573,17.759,3.861,22.659h0.755C118.888,81.974,116.387,68.333,115.802,65.003
			z"/>
		<g>
			<g>
				<path fill="#FFFFFF" d="M93.509,13.307c-1.898,0.768-3.229,0.023-3.229,0.023c1.027,2.536,3.162,1.728,3.275,1.682l0.003-0.001
					c0.159-0.102,0.315-0.19,0.477-0.271c0.062-0.028,0.12-0.055,0.179-0.084c1.477-0.674,3.161-0.657,4.561-0.259
					c0.016,0.009,0.023,0.011,0.023,0.011C97.891,12.772,95.408,12.539,93.509,13.307z"/>
			</g>
		</g>
		<g>
			<g>
				<path fill="#211C1D" d="M94.035,14.739c-0.162,0.081-0.318,0.169-0.477,0.271C93.721,14.914,93.878,14.82,94.035,14.739z"/>
			</g>
		</g>
		<path fill="#4C3529" d="M109.239,17.616c-0.017-0.005-0.034-0.011-0.046-0.015c0.188-0.224,0.395-0.527,0.503-0.854
			c-0.019,0.072-0.027,0.145-0.058,0.211C109.536,17.19,109.398,17.41,109.239,17.616z"/>
		<path fill="#4C3529" d="M82.541,22.814c0,0,0.227,0.045,0.535,0.031c-0.218,0.007-0.402-0.021-0.508-0.046
			C82.558,22.803,82.55,22.809,82.541,22.814z"/>
		<path fill="#4C3529" d="M83.145,22.84c0.06-0.005,0.113-0.009,0.178-0.021C83.262,22.832,83.202,22.836,83.145,22.84z"/>
		<path fill="#4C3529" d="M83.65,22.731c0.025-0.009,0.046-0.007,0.071-0.019c0.043-0.016,0.086-0.048,0.129-0.069
			C83.784,22.68,83.717,22.707,83.65,22.731z"/>
		<path fill="#4C3529" d="M109.764,16.393c0.003-0.011,0.003-0.024,0.003-0.034c0.001,0.002,0.001,0.005,0,0.005
			C109.766,16.375,109.766,16.385,109.764,16.393z"/>
		<g>
			<g>
				<path fill="#4C3529" d="M106.651,22.596c0.737,0.266,1.43,0.755,1.871,1.443c0.223,0.345,0.378,0.733,0.438,1.134
					c0.062,0.4,0.04,0.818-0.1,1.191c0.008-0.396-0.047-0.779-0.139-1.142c-0.095-0.366-0.236-0.713-0.433-1.035
					C107.896,23.541,107.305,23.036,106.651,22.596z"/>
			</g>
		</g>
		<g>
			<g>
				<path fill="#4C3529" d="M95.908,37.823c-0.686,0.343-1.415,0.605-2.168,0.758c-0.751,0.142-1.527,0.209-2.277,0.079
					c0.378,0.007,0.753-0.027,1.124-0.083c0.375-0.048,0.742-0.122,1.102-0.222c0.723-0.188,1.424-0.457,2.094-0.785
					c0.67-0.329,1.304-0.729,1.912-1.171c0.602-0.447,1.171-0.942,1.716-1.472c-0.468,0.597-1.004,1.146-1.589,1.636
					C97.239,37.052,96.592,37.478,95.908,37.823z"/>
			</g>
		</g>
		<g>
			<g>
				<path fill="#FFFFFF" d="M83.377,32.796c0.51-0.987,3.221-2.346,6.215-2.34c-1.642-0.902-5.921-0.173-7.125,2.089
					c-0.333,0.624-0.133,1.48,0.757,1.582C82.995,33.911,83.074,33.377,83.377,32.796z"/>
			</g>
		</g>
		<path fill="#4C3529" d="M93.221,26.796c0,0,0.408-3.076,4.071-4.541c4.062-1.625,5.178-2.716,6.073-4.245
			c0,0,0.573,2.85-3.078,4.698C97.153,24.294,95.139,24.656,93.221,26.796z"/>
		<g>
			<path fill="#EDDDBF" d="M76.946,24.211c0,0,15.634-0.006,35.574-14.42c0,0-15.687-11.911-24.437-7.661
				C78.196,6.932,76.946,24.211,76.946,24.211z"/>
			<path fill="#4C3529" d="M77.384,23.795c3.021-0.216,6.049-0.879,8.987-1.708c3.086-0.888,6.102-2.014,9.031-3.324
				c5.863-2.621,11.375-5.98,16.504-9.821l-0.02,1.685l-0.003-0.002c-3.398-2.542-7.126-4.821-11.028-6.527
				c-1.957-0.842-3.98-1.534-6.043-1.891c-2.051-0.354-4.179-0.353-6.041,0.393c-1.874,0.784-3.545,2.133-4.894,3.738
				c-1.356,1.613-2.431,3.478-3.308,5.432C78.899,15.554,77.885,19.67,77.384,23.795z M76.573,24.183
				c0.381-4.398,1.316-8.732,3.001-12.845c0.856-2.045,1.925-4.028,3.335-5.796c1.41-1.762,3.175-3.294,5.313-4.256
				c2.197-0.941,4.605-0.976,6.838-0.652c2.251,0.33,4.402,1.011,6.471,1.838c4.138,1.689,7.966,3.893,11.619,6.479l0.005,0.004
				l1.133,0.882l-1.153,0.803c-5.373,3.74-11.112,6.969-17.174,9.43c-3.029,1.231-6.137,2.271-9.308,3.064
				c-3.178,0.775-6.389,1.378-9.704,1.45l-0.41,0.009L76.573,24.183z"/>
		</g>
		<g>
			<path fill="#4C3529" d="M106.833,36.478c-0.143,1.484,0.439,3.167,1.578,4.21c1.168,0.949,2.91,1.328,4.508,1.902
				c1.618,0.561,3.304,1.357,4.557,2.76c1.281,1.383,1.849,3.291,1.872,5.058l-1.122,0.068c-0.157-1.603-0.702-3.104-1.737-4.236
				c-1.032-1.141-2.483-1.889-3.999-2.562l-2.342-0.994c-0.793-0.351-1.604-0.693-2.343-1.335c-0.697-0.599-1.215-1.386-1.6-2.21
				c-0.38-0.843-0.624-1.688-0.747-2.671L106.833,36.478z"/>
		</g>
		<path fill="#4C3529" d="M123.711,89.264h0.541c-0.441-5.687-1.157-13.4-2.014-19.031c-0.871-5.665-1.871-11.302-3.04-16.919
			l-1.09,0.263c1.256,5.557,2.351,11.171,3.314,16.8C122.369,75.958,123.176,83.626,123.711,89.264z"/>
		<path fill="#4C3529" d="M86.43,26.647c0,0,0.277-0.902-1.113-1.299c-0.534-0.152-0.416-0.752-0.416-0.752
			s-0.957,1.738,0.026,1.971c0.594,0.141,0.703,0.672,0.703,0.672L86.43,26.647z"/>
		<g>
			<path fill="#4C3529" d="M104.146,6.755c-0.126,1.969-0.518,3.925-1.142,5.813c-0.632,1.883-1.531,3.709-2.827,5.279l-0.562-0.496
				c1.312-1.398,2.302-3.107,3.038-4.913C103.381,10.625,103.896,8.71,104.146,6.755z"/>
		</g>
		<g>
			<path fill="#4C3529" d="M102.146,5.755c-0.081,1.227-0.322,2.438-0.626,3.632c-0.311,1.192-0.704,2.365-1.173,3.508
				c-0.937,2.288-2.178,4.456-3.664,6.449l-0.589-0.465c1.546-1.867,2.871-3.928,3.91-6.136c0.521-1.103,0.968-2.242,1.336-3.408
				C101.701,8.168,102.002,6.974,102.146,5.755z"/>
		</g>
		<g>
			<path fill="#4C3529" d="M100.145,5.487c-0.22,2.257-0.973,4.436-1.925,6.49c-0.996,2.037-2.253,3.961-3.825,5.59
				c1.346-1.813,2.559-3.708,3.509-5.741c0.499-1.003,0.915-2.046,1.296-3.102C99.576,7.667,99.905,6.59,100.145,5.487z"/>
		</g>
		<g>
			<path fill="#4C3529" d="M96.229,6.922c2.068,0.486,4.081,1.208,6.036,2.058c1.955,0.856,3.845,1.871,5.638,3.052l-0.432,0.613
				c-1.683-1.256-3.484-2.366-5.367-3.325C100.22,8.364,98.264,7.528,96.229,6.922z"/>
		</g>
		<g>
			<path fill="#4C3529" d="M96.04,9c1.791,0.62,3.563,1.305,5.31,2.061c1.743,0.767,3.471,1.575,5.102,2.661l-0.597,0.803
				c-1.432-1.149-3.074-2.109-4.725-3.015C99.47,10.611,97.77,9.774,96.04,9z"/>
		</g>
		<path fill="#F3C66E" d="M35.177,28.961c0,0,2.518-5.354-1.833-7.219c0,0-4.062-1.438-5.958,4.656
			C27.385,26.398,31.963,27.477,35.177,28.961z"/>
		<g>
			<g>
				<path fill="#4C3529" d="M35.253,31.047l0.138,0.037c0.155-0.794,0.323-1.581,0.468-2.377c0.069-0.4,0.141-0.796,0.196-1.217
					c0.043-0.392,0.064-0.78,0.067-1.174l0.012-0.006c-0.004-0.004-0.009-0.008-0.01-0.015c-0.001-0.015,0.001-0.033,0-0.046
					c0.003-0.83-0.108-1.671-0.414-2.461c-0.298-0.783-0.851-1.494-1.584-1.916c-0.731-0.432-1.602-0.551-2.415-0.433
					c-0.815,0.112-1.594,0.467-2.21,1.017c-0.242,0.21-0.743,0.904-0.774,0.949c-0.221,0.335-0.431,0.684-0.628,1.034
					c-0.343,0.62-0.649,1.25-0.916,1.924c-0.5-0.534-0.972-1.097-1.392-1.711c0.204,0.527,0.504,1.014,0.846,1.465
					c0.137,0.181,0.284,0.353,0.437,0.52c-0.002,0.007-0.004,0.014-0.007,0.021l0.035,0.009c0.223,0.239,0.462,0.465,0.725,0.664
					c0.446,0.351,0.933,0.641,1.422,0.919c0.487,0.279,0.988,0.536,1.487,0.79l2.987,1.524c0.99,0.517,1.962,1.035,2.9,1.647
					l0.028-0.03C36.239,31.735,35.76,31.367,35.253,31.047z M35.005,28.504c-0.205,0.672-0.422,1.35-0.655,2.02
					c-0.16-0.087-0.32-0.168-0.479-0.25c-1.008-0.501-2.048-0.918-3.069-1.377c-0.508-0.232-1.011-0.474-1.504-0.737
					c-0.487-0.27-0.923-0.623-1.324-0.999c-0.142-0.133-0.278-0.271-0.415-0.408c0.165-0.74,0.449-1.483,0.788-2.179
					c0.174-0.359,0.367-0.704,0.576-1.04c0.047-0.075,0.576-0.789,0.719-0.922c1.147-1.054,3.02-1.285,4.307-0.45
					c0.645,0.408,1.115,1.063,1.317,1.79C35.798,25.869,35.12,28.124,35.005,28.504z"/>
			</g>
		</g>
		<g>
			<path fill="#4C3529" d="M26.629,26.341c3.069,0.459,6.086,1.313,8.993,2.526l-0.441,0.896
				C32.51,28.296,29.626,27.125,26.629,26.341z"/>
		</g>
		<g>
			<path fill="#4C3529" d="M42.056,28.27c0.519,0.148,1.033,0.354,1.532,0.569l0.749,0.329c0.25,0.106,0.49,0.244,0.685,0.475
				c-0.302,0.017-0.562-0.058-0.814-0.151l-0.767-0.255c-0.516-0.161-1.027-0.309-1.539-0.492L42.056,28.27z"/>
		</g>
		<g>
			<path fill="#4C3529" d="M86.913,76.786c-1.758,0.232-3.52,0.35-5.32,0.272c-0.911-0.069-1.718-0.124-2.551-0.032
				c-0.802,0.091-1.618,0.309-1.995,0.783c-0.189,0.229-0.291,0.531-0.281,0.895c-0.004,0.311,0.107,0.626,0.329,0.888
				c0.459,0.532,1.279,0.836,2.091,0.974c1.657,0.301,3.431,0.086,5.125-0.372c-1.588,0.767-3.376,1.206-5.218,1.081
				c-0.906-0.098-1.885-0.31-2.668-1.057c-0.379-0.379-0.647-0.917-0.673-1.488c-0.037-0.511,0.094-1.114,0.451-1.58
				c0.352-0.472,0.859-0.732,1.329-0.897c0.477-0.167,0.958-0.228,1.425-0.257c0.922-0.06,1.875,0.049,2.709,0.164
				c1.708,0.173,3.469,0.176,5.218,0.197L86.913,76.786z"/>
		</g>
		<path fill="#4C3529" d="M0.969,89.297c0.527-3.683,1.074-10.362,1.665-14.034c0.793-4.999,1.601-9.996,2.484-14.976
			c0.475-2.482,0.962-4.97,1.588-7.398c0.582-2.39,1.637-4.601,3.268-6.32c1.617-1.744,3.761-2.895,6.086-3.799
			c1.149-0.466,2.436-0.999,3.514-1.834c1.059-0.855,2.045-1.902,2.328-3.444l-0.989-0.143c-0.125,0.438-0.45,0.974-0.811,1.389
			c-0.373,0.43-0.819,0.803-1.305,1.125c-0.971,0.675-2.069,1.074-3.283,1.499c-2.394,0.862-4.888,2.092-6.721,4.105
			c-0.91,0.997-1.667,2.135-2.22,3.352c-0.549,1.216-0.919,2.509-1.158,3.778c-0.47,2.515-0.873,5.013-1.281,7.517
			c-0.86,4.996-1.649,10-2.419,15.006L0,89.297H0.969z"/>
		<g>
			<path fill="#4C3529" d="M100.333,41.765c0.133,0.312,0.209,0.591,0.254,0.915c0.034,0.315,0.004,0.688-0.194,1.004
				c-0.192,0.322-0.549,0.48-0.762,0.6l-0.728,0.376c-0.981,0.501-1.667,1.062-2.112,1.952c-0.445,0.883-0.693,1.92-0.896,2.952
				c-0.205,1.04-0.326,2.092-0.478,3.173c-0.313,2.152-0.828,4.275-1.414,6.356c-0.586,2.085-1.17,4.136-1.979,6.162
				c0.091-2.189,0.688-4.286,1.213-6.364c0.528-2.081,0.931-4.177,1.222-6.291c0.312-2.116,0.482-4.322,1.474-6.429
				c0.26-0.521,0.637-1.03,1.13-1.398c0.494-0.369,1.044-0.566,1.545-0.757c0.254-0.094,0.496-0.202,0.736-0.309
				c0.266-0.113,0.418-0.206,0.509-0.358c0.196-0.283,0.027-0.82-0.242-1.153L100.333,41.765z"/>
		</g>
		<g>
			<path fill="#4C3529" d="M62.202,67.485c1.925-1.879,4.552-2.839,7.156-3.188c0.331-0.04,0.664-0.069,1.008-0.077
				c0.171-0.003,0.353-0.003,0.535,0.016l0.479,0.051c0.631,0.064,1.26,0.119,1.895,0.155c1.266,0.067,2.536,0.088,3.803-0.008
				c2.535-0.154,5.055-0.701,7.63-0.917c1.288-0.116,2.573-0.179,3.853-0.254l1.927-0.098l0.97-0.036l0.491-0.006l0.253,0.004
				l0.136,0.008l0.077,0.007l0.048,0.007c0.041,0.014-0.01-0.016,0.145,0.047l-0.382,0.73l-1.721-0.03
				c-0.638-0.004-1.277,0.013-1.916,0.033c-1.28,0.042-2.559,0.079-3.824,0.204c-2.535,0.233-5.054,0.716-7.634,0.968
				c-1.289,0.112-2.586,0.188-3.882,0.177c-0.647-0.003-1.298-0.025-1.944-0.059l-0.481-0.026c-0.137-0.009-0.276-0.007-0.425,0
				c-0.296,0.015-0.602,0.048-0.906,0.094c-2.437,0.401-4.85,1.245-6.798,2.769L62.202,67.485z"/>
		</g>
		<g>
			<path fill="#4C3529" d="M74.966,69.919c0.413-0.151,0.819-0.373,1.281-0.562c0.23-0.096,0.477-0.184,0.753-0.23
				c0.29-0.053,0.569-0.01,0.793,0.014c0.941,0.097,1.848,0.257,2.771,0.36c1.838,0.231,3.674,0.455,5.513,0.637
				c1.838,0.182,3.68,0.327,5.521,0.389c1.836,0.057,3.69,0.012,5.465-0.295l0.223-0.038l0.15,0.172l0.001,0.001
				c0.172,0.371,0.286,0.691,0.409,1.028c0.115,0.333,0.212,0.669,0.276,1.012l-0.229-0.044c0.574-0.908,1.081-1.951,1.135-3.003
				l0.032-0.613l0.587,0.45l0,0c0.209,0.234,0.404,0.467,0.598,0.713l0.283,0.382c0.091,0.14,0.182,0.263,0.264,0.479l-0.635,0.221
				c-0.028-0.066-0.109-0.195-0.189-0.304L99.7,70.347c-0.187-0.224-0.387-0.447-0.586-0.659l0,0l0.619-0.163
				c-0.493,1.089-1.054,2.011-1.63,2.974l-0.157,0.262l-0.072-0.306c-0.074-0.314-0.197-0.62-0.381-0.889
				c-0.087-0.137-0.19-0.263-0.303-0.379c-0.118-0.107-0.239-0.231-0.366-0.293l0,0l0.373,0.134
				c-1.889,0.281-3.761,0.228-5.623,0.171c-1.862-0.069-3.716-0.225-5.563-0.414c-1.848-0.191-3.689-0.424-5.526-0.663
				c-0.916-0.124-1.844-0.22-2.748-0.292c-0.818-0.126-1.471,0.491-2.328,0.985L74.966,69.919z"/>
		</g>
		<g>
			<path fill="#4C3529" d="M98.673,51.075c0.588-1.17,0.926-2.445,1.127-3.725c0.194-1.283,0.222-2.585,0.102-3.868l0.499-0.031
				c0.039,1.327-0.074,2.655-0.355,3.945C99.759,48.68,99.335,49.944,98.673,51.075z"/>
		</g>
		<g>
			<path fill="#4C3529" d="M89.662,81.326c-0.866,1.124-1.931,2.006-3.137,2.702c-1.204,0.686-2.559,1.131-3.948,1.266
				c-2.806,0.289-5.566-0.664-7.905-2.05l0.516-0.857c2.202,1.361,4.747,2.278,7.312,2.062c1.273-0.101,2.521-0.482,3.65-1.097
				c1.12-0.612,2.164-1.456,2.948-2.437L89.662,81.326z"/>
		</g>
		<path fill="#4C3529" d="M42.22,29.093c0.089-0.037,0.184-0.047,0.278-0.022c0.27,0.073,0.419,0.397,0.331,0.725
			c-0.013,0.048-0.038,0.086-0.059,0.128c0.218,0.302,0.466,0.607,0.726,0.86c0.161-0.166,0.298-0.365,0.366-0.617
			c0.183-0.675-0.125-1.346-0.684-1.496c-0.36-0.097-0.731,0.054-1.002,0.35C42.189,29.043,42.207,29.071,42.22,29.093z"/>
		<g>
			<path fill="#4C3529" d="M83.812,80.434c-2.929,1.321-5.999,2.364-9.224,2.914l-0.116-0.994c3.136-0.242,6.275-0.989,9.292-2.033
				L83.812,80.434z"/>
		</g>
		<path fill="#4C3529" d="M5.58,51.777l1.088,0.543c-0.239,3.069-0.277,3.481-0.002,5.085c0.267,1.614,0.758,3.21,1.225,4.823
			l1.436,4.827c0.883,3.021,1.797,6.028,2.586,9.092c0.215-0.424,0.482-0.816,0.838-1.168l-0.001-0.003l0.609-0.584l-0.079,0.88
			c-0.02,0.216-0.012,0.483,0.016,0.728c0.027,0.249,0.073,0.495,0.142,0.734c0.061,0.22,0.143,0.434,0.237,0.642
			c0.016-0.026,0.027-0.056,0.044-0.082c0.168-0.266,0.365-0.508,0.577-0.729v-0.004l0.244-0.242l0.308,0.171
			c1.651,0.907,3.398,1.715,5.151,2.459c1.759,0.74,3.548,1.41,5.363,2.003c3.385,1.104,6.864,1.93,10.393,2.398v0.62
			c-3.604-0.42-7.16-1.207-10.624-2.281c-1.844-0.573-3.664-1.226-5.455-1.949c-1.679-0.685-3.324-1.42-4.949-2.264
			c-0.099,0.104-0.207,0.2-0.29,0.312c-0.073,0.1-0.14,0.2-0.197,0.305c-0.054,0.09-0.109,0.229-0.123,0.271l-0.312,0.932
			l-0.425-0.779v-0.001c-0.296-0.497-0.518-1.04-0.644-1.605c-0.065-0.279-0.103-0.567-0.121-0.854v-0.02
			c-0.212,0.268-0.398,0.562-0.547,0.862l-0.299,0.607l-0.127-0.636c-0.925-3.205-2.039-6.386-3.078-9.575l-1.557-4.794
			c-0.499-1.601-1.049-3.206-1.387-4.9C5.303,55.929,5.226,54.165,5.58,51.777z"/>
		<path fill="#4C3529" d="M23.377,72.596l-0.944-0.246c0.3-0.503,3.296-7.149,4.862-9.291c0.385-2.352,0.347-3.824,0.186-6.244
			c-0.169-2.471-0.577-4.949-1.351-7.285c0.935,2.256,1.524,4.712,1.872,7.211c0.343,2.504,0.554,4.131,0.305,6.683l-0.022,0.175
			L28.18,63.74C26.604,65.864,23.549,72.316,23.377,72.596z"/>
		<path fill="#4C3529" d="M14.176,43.16c-0.41,1.153-0.11,2.392,0.322,3.462c0.226,0.542,0.496,1.066,0.805,1.562
			c0.324,0.503,0.621,1.099,0.777,1.691c0.812,3.087,0.58,5.553,1.44,10.442c0.254,1.449,0.622,2.882,0.958,4.321l1.014,4.337
			c0.344,1.444,0.663,2.916,0.482,4.479c-0.748-1.354-1.104-2.778-1.447-4.226c-0.362-1.438-0.72-2.88-1.044-4.338
			c-0.326-1.452-0.652-2.92-0.829-4.413c-0.541-4.562-0.33-7.383-1.052-10.438c-0.138-0.585-0.373-1.085-0.683-1.603
			c-0.305-0.525-0.575-1.083-0.777-1.667C13.757,45.626,13.565,44.239,14.176,43.16z"/>
		<path fill="#4C3529" d="M19.695,71.018c1.655,0.488,3.198,1.15,4.709,1.919c0.751,0.385,1.487,0.802,2.203,1.252
			c0.721,0.473,1.367,0.888,2.124,1.243c1.479,0.718,3.036,1.31,4.599,1.866c1.567,0.549,3.154,1.059,4.748,1.522l-0.117,0.433
			c-1.62-0.432-3.221-0.904-4.813-1.422c-1.59-0.523-3.17-1.082-4.71-1.784c-0.765-0.335-1.537-0.804-2.218-1.229
			c-0.706-0.422-1.432-0.812-2.171-1.171c-1.477-0.709-3.028-1.327-4.584-1.746L19.695,71.018z"/>
		<g>
			<path fill="#4C3529" d="M10.854,55.817c-0.811-0.193-1.643-0.141-2.4,0.056c-0.76,0.199-1.446,0.565-2.037,1.029l-0.679-1.203
				C7.428,54.991,9.381,55.004,10.854,55.817z"/>
		</g>
		<g>
			<path fill="#4C3529" d="M12.707,58.686c-1.048-0.042-2.079,0.158-3.033,0.489c-0.955,0.336-1.83,0.833-2.591,1.442l-0.732-1.17
				c1.011-0.495,2.088-0.816,3.169-0.945C10.599,58.379,11.688,58.416,12.707,58.686z"/>
		</g>
		<path fill="#4C3529" d="M18.677,89.297c0.695-3.332,1.838-9.506,1.849-9.541l-0.897-0.279c-0.042,0.158-1.05,6.306-1.807,9.82
			H18.677z"/>
		<path fill="#4C3529" d="M8.908,68.076c-0.693,3.46-2.571,14.796-3.663,21.221h0.65c0.713-5.056,2.564-15.834,3.568-19.902
			C9.206,69.005,9.02,68.542,8.908,68.076z"/>
		<g>
			<path fill="#4C3529" d="M37.983,78.812c1.749-0.021,3.51-0.024,5.217-0.197c0.835-0.115,1.788-0.224,2.709-0.164
				c0.467,0.029,0.948,0.09,1.425,0.257c0.469,0.165,0.977,0.426,1.329,0.897c0.357,0.466,0.488,1.069,0.451,1.58
				c-0.026,0.571-0.294,1.109-0.673,1.488c-0.782,0.746-1.762,0.959-2.667,1.057c-1.843,0.125-3.63-0.313-5.218-1.081
				c1.694,0.458,3.467,0.673,5.125,0.372c0.812-0.138,1.632-0.441,2.091-0.974c0.221-0.262,0.333-0.577,0.329-0.888
				c0.009-0.363-0.092-0.665-0.281-0.895c-0.377-0.475-1.193-0.692-1.995-0.783c-0.833-0.092-1.641-0.037-2.551,0.032
				c-1.8,0.077-3.562-0.04-5.32-0.272L37.983,78.812z"/>
		</g>
		<g>
			<path fill="#4C3529" d="M29.443,43.411c-1.108-0.103-2.384-0.038-3.278,0.452c-0.209,0.133-0.298,0.311-0.284,0.439
				c-0.017,0.058,0.191,0.194,0.454,0.34c0.529,0.276,1.081,0.689,1.483,1.192c1.595,2.081,1.83,4.658,2.146,6.953
				c0.342,2.333,0.723,4.663,1.215,6.967c0.242,1.151,0.51,2.298,0.833,3.424c0.341,1.13,0.703,2.201,0.993,3.389
				c-0.952-0.84-1.339-2.045-1.714-3.166c-0.371-1.141-0.683-2.294-0.968-3.453c-0.552-2.32-0.996-4.663-1.328-7.021
				c-0.171-1.192-0.28-2.345-0.569-3.455c-0.28-1.105-0.686-2.188-1.359-3.031c-0.334-0.428-0.712-0.775-1.175-1.144
				c-0.118-0.095-0.243-0.19-0.378-0.327c-0.13-0.125-0.289-0.364-0.298-0.622c-0.016-0.483,0.318-0.827,0.6-1.008
				c0.587-0.384,1.202-0.493,1.801-0.629c0.606-0.121,1.2-0.2,1.825-0.278L29.443,43.411z"/>
		</g>
		<g>
			<path fill="#4C3529" d="M35.756,83.358c0.847,0.953,1.95,1.757,3.114,2.334c1.174,0.578,2.454,0.929,3.752,1.009
				c2.614,0.176,5.198-0.741,7.436-2.125l0.516,0.857c-2.377,1.41-5.174,2.358-8.015,2.114c-1.409-0.113-2.79-0.521-4.037-1.166
				c-1.249-0.654-2.372-1.492-3.309-2.586L35.756,83.358z"/>
		</g>
		<g>
			<path fill="#4C3529" d="M43.602,83.266c0.992,0.507,2.102,0.768,3.195,0.977c1.1,0.198,2.213,0.312,3.328,0.369l-0.116,0.994
				c-1.132-0.207-2.253-0.471-3.349-0.818c-1.089-0.359-2.173-0.765-3.128-1.42L43.602,83.266z"/>
		</g>
		<g>
			<path fill="#4C3529" d="M32.36,64.642c1.362,0.934,2.766,1.825,4.197,2.647c1.431,0.807,2.91,1.605,4.429,2.042l-0.229,0.826
				c-0.847-0.248-1.619-0.606-2.378-0.982c-0.755-0.382-1.488-0.795-2.209-1.225c-1.441-0.864-2.834-1.784-4.201-2.76L32.36,64.642z
				"/>
		</g>
		<g>
			<path fill="#4C3529" d="M43.427,68.307c1.021-0.434,2.1-0.625,3.246-0.533c0.563,0.062,1.181,0.242,1.642,0.688
				c0.117,0.115,0.205,0.216,0.309,0.374c0.053,0.086,0.163,0.273,0.198,0.454c0.112,0.363-0.071,0.82-0.33,1.025
				c-0.517,0.436-1.089,0.519-1.636,0.594c-0.553,0.055-1.105,0.02-1.652-0.077c-0.544-0.108-1.086-0.294-1.579-0.606
				c-0.254-0.163-0.461-0.323-0.697-0.589c-0.24-0.307-0.143-0.728,0.007-0.91c0.147-0.196,0.271-0.291,0.453-0.4l0.008-0.005
				L43.427,68.307z M43.813,69.196c-0.046,0.023-0.114,0.07-0.122,0.08c-0.013,0.02,0.045-0.102-0.045-0.187
				c0.095,0.13,0.28,0.318,0.455,0.444c0.362,0.273,0.8,0.474,1.263,0.598c0.463,0.126,0.955,0.174,1.434,0.131
				c0.468-0.029,0.97-0.174,1.241-0.43c0.129-0.133,0.163-0.233,0.118-0.374c-0.021-0.071-0.046-0.112-0.135-0.241
				c-0.044-0.055-0.129-0.147-0.203-0.207c-0.311-0.264-0.751-0.373-1.21-0.389C45.687,68.587,44.715,68.908,43.813,69.196z"/>
		</g>
		<g>
			<path fill="#4C3529" d="M26.141,67.115c0.199,0.736,0.493,1.494,0.853,2.184c0.364,0.689,0.813,1.343,1.397,1.809l0,0
				l-0.535,0.239l0.012-1.262l0,0l0.094-0.781l0.623,0.465c1.179,0.879,2.48,1.669,3.817,2.332c1.342,0.659,2.75,1.199,4.212,1.482
				l-0.089,0.523c-1.538-0.234-3.016-0.735-4.427-1.358c-1.413-0.633-2.755-1.37-4.052-2.257l0.717-0.316l0,0l-0.238,1.238
				l-0.118,0.618l-0.417-0.379v-0.001c-0.737-0.514-1.278-1.213-1.727-1.938c-0.445-0.735-0.801-1.491-1.085-2.319L26.141,67.115z"
				/>
		</g>
		<g>
			<path fill="#4C3529" d="M26.335,50.04c-0.358-0.898-0.665-1.818-0.895-2.766c-0.113-0.474-0.208-0.954-0.253-1.449
				c-0.038-0.494-0.058-1.008,0.146-1.537l0.454,0.209c-0.184,0.363-0.227,0.846-0.226,1.311c0.001,0.47,0.052,0.945,0.123,1.419
				C25.831,48.173,26.055,49.115,26.335,50.04z"/>
		</g>
		<g>
			<polygon fill="#4C3529" points="53.411,81.748 76.325,79.311 76.373,79.809 			"/>
		</g>
		<g>
			<path fill="#4C3529" d="M49.362,83.481c1.905-0.246,3.812-0.475,5.722-0.681l5.73-0.587l5.738-0.507
				c1.914-0.159,3.83-0.295,5.747-0.413c-1.905,0.247-3.812,0.476-5.722,0.681l-5.73,0.587l-5.738,0.507
				C53.195,83.226,51.279,83.363,49.362,83.481z"/>
		</g>
		<g>
			<path fill="#FFFFFF" d="M47.822,70.695c0.991-0.13,1.976-0.252,2.96-0.374c0.43-0.012,0.951,0.396,0.485,0.48l-1.395,0.057
				c0.631,0.8,1.153,1.621,1.795,2.456c0.1,0.338-0.482,0.201-0.733-0.054c-0.496-0.808-0.991-1.607-1.439-2.389l-1.439,0.065
				L47.822,70.695z"/>
			<path fill="#FFFFFF" d="M51.676,70.495c0.202-0.388,1.073-0.561,1.76-0.215c1.186,0.584,1.865,1.967,2.462,2.715
				c0.155,0.412-0.607,0.127-0.748-0.168c-0.168,0.328-0.57,0.527-1.136,0.409c-1.517-0.334-1.615-1.681-0.961-2.043
				c0.148-0.076,0.491-0.15,0.752-0.156c-0.194-0.229-0.363-0.39-0.466-0.438c-0.559-0.283-1.006-0.169-1.314,0.169L51.676,70.495z
				 M54.051,71.334c-0.727,0.035-1.03,0.499-0.739,1.051c0.208,0.404,0.799,0.562,1.046,0.408c0.148-0.083,0.402-0.251,0.508-0.368
				C54.608,72.057,54.322,71.664,54.051,71.334z"/>
			<path fill="#FFFFFF" d="M57.013,72.75c0.13,0.347-0.485,0.199-0.754-0.059c-0.595-0.848-1.263-1.75-1.829-2.545l0.298-0.076
				c0.638,0.619,0.848,1.017,1.574,1.827c0.055-0.612,0.296-1.354,0.26-1.938c0.308-0.087,0.414-0.059,0.792,0.385
				c0.6,0.694,1.379,1.604,2.006,2.331c0.138,0.349-0.479,0.202-0.756-0.061c-0.402-0.55-1.069-1.431-1.453-1.969
				c-0.16,0.508-0.385,1.252-0.357,1.841C56.864,72.578,56.941,72.666,57.013,72.75z M54.311,69.296
				c0.554,0.006,0.862-0.076,1.091-0.29c0.347-0.009,0.779,0.208,0.53,0.392c-0.441,0.075-0.913,0.103-1.441,0.063L54.311,69.296z"
				/>
			<path fill="#FFFFFF" d="M60.314,69.712c0.795,0.886,1.619,1.789,2.45,2.719c0.153,0.347-0.472,0.198-0.758-0.058
				c-0.27-0.344-0.527-0.684-0.786-1.023c-0.526,0.021-0.998,0.096-1.55,0.085c0.329,0.354,0.651,0.711,0.977,1.071
				c0.143,0.345-0.478,0.199-0.758-0.057c-0.646-0.875-1.419-1.718-2.002-2.557l0.368,0.031c0.381,0.402,0.771,0.813,1.156,1.228
				c0.609-0.03,1.135,0,1.604-0.093c-0.006-0.001-1.008-1.28-1.072-1.374L60.314,69.712z"/>
			<path fill="#FFFFFF" d="M61.464,69.621c0.31,0.316,0.623,0.626,0.94,0.941c1.512-0.604,4.189,1.328,2.635,1.813
				c-0.313,0.099-1.492,0.098-1.6-0.047c-0.709-0.884-1.707-1.894-2.343-2.74L61.464,69.621z M63.672,72.049
				c2.213,0.359,0.858-1.589-0.917-1.147L63.672,72.049z M64.182,69.38c0.874,0.864,1.732,1.755,2.612,2.662
				c0.167,0.348-0.462,0.202-0.76-0.053c-0.735-0.902-1.554-1.773-2.223-2.639L64.182,69.38z"/>
			<path fill="#FFFFFF" d="M54.823,74.714c-0.941-0.039-1.229,0.136-1.323,0.385c-0.03,0.602,0.275,1.402,1.115,2.094
				c0.425,0.34,0.956,0.3,1.677,0.055c0.241-0.11,0.347-0.16,0.713,0.271c-0.71,0.324-2.097,0.529-2.856-0.156
				c-0.697-0.626-1.673-2.076-1.328-2.687c0.15-0.262,1.231-0.413,1.848-0.227L54.823,74.714z"/>
			<path fill="#FFFFFF" d="M59.12,78.738l0.638,0.017c-0.136-1.42-0.397-3.08-1.314-4.674c-0.368-0.074-0.515-0.062-0.674-0.067
				c0.689,0.856,0.958,2.028,1.062,2.884c-1.301-0.694-2.239-1.783-3.147-2.665l-0.446,0.02c0.779,0.945,2.276,2.473,3.717,3.079
				C59.038,78.006,59.082,78.287,59.12,78.738z"/>
			<path fill="#FFFFFF" d="M62.693,73.685c0.843,0.953,1.793,2.183,2.677,3.18c-0.697,0.084-3.12,0.289-3.969,0.322
				c-0.699-0.982-1.843-2.415-2.463-3.348l0.384,0.029c0.774,0.864,1.611,1.958,2.379,2.87c0.294-0.045,0.882-0.08,1.179-0.121
				c-0.65-0.887-1.648-2.009-2.235-2.865l0.383,0.032c0.746,0.813,1.617,1.91,2.351,2.769c0.296-0.04,0.797-0.065,1.095-0.104
				c-0.675-0.886-1.532-1.95-2.17-2.794L62.693,73.685z"/>
			<path fill="#FFFFFF" d="M66.469,76.492c0.174,0.381-0.488,0.22-0.8-0.065c-0.716-0.921-1.517-1.906-2.198-2.771l0.304-0.081
				c0.737,0.672,1.003,1.106,1.853,1.993c-0.012-0.668,0.162-1.474,0.057-2.112c0.313-0.092,0.428-0.062,0.873,0.422
				c0.708,0.755,1.626,1.747,2.368,2.541c0.184,0.378-0.483,0.217-0.803-0.064c-0.483-0.6-1.279-1.566-1.742-2.149
				c-0.112,0.553-0.267,1.362-0.171,2.003C66.295,76.306,66.385,76.401,66.469,76.492z"/>
		</g>
	</g>
</g>
</svg>
