<?xml version="1.0" encoding="utf-8"?>
<!DOCTYPE svg PUBLIC "-//W3C//DTD SVG 1.1//EN" "http://www.w3.org/Graphics/SVG/1.1/DTD/svg11.dtd">
<svg version="1.1" id="Слой_1" xmlns="http://www.w3.org/2000/svg" xmlns:xlink="http://www.w3.org/1999/xlink" x="0px" y="0px"
width="101.169px" height="110.856px" viewBox="0 0 101.169 110.856" enable-background="new 0 0 101.169 110.856"
xml:space="preserve">
<g>
<g>
<g>
<path fill="#FACC63" d="M77.381,105.646c-5.575,4.037-21.327,5.991-35.183,4.367c-13.859-1.625-20.569-6.214-14.994-10.252
c5.575-4.037,21.327-5.991,35.183-4.367C76.245,97.018,82.956,101.607,77.381,105.646z"/>
<path fill="#483525" d="M77.591,105.957c0,0-0.096,0.064-0.282,0.188c-0.177,0.127-0.475,0.304-0.869,0.531
c-0.778,0.433-1.956,0.977-3.508,1.49c-3.097,1.047-7.675,1.968-13.216,2.4c-5.535,0.448-12.052,0.439-18.938-0.475
c-3.441-0.471-6.996-1.13-10.434-2.456c-1.689-0.692-3.445-1.49-4.713-3.022c-0.297-0.395-0.551-0.847-0.666-1.361
c-0.123-0.513-0.055-1.07,0.132-1.548c0.388-0.977,1.131-1.651,1.907-2.236c1.541-1.107,3.32-1.807,5.073-2.402
c1.771-0.571,3.567-1.013,5.364-1.358c3.594-0.695,7.179-1.066,10.653-1.242c6.948-0.36,13.476,0.107,18.955,1.152
c2.741,0.525,5.23,1.193,7.351,2.07c2.094,0.886,3.937,1.918,4.895,3.476c0.467,0.773,0.557,1.72,0.298,2.395
c-0.239,0.682-0.614,1.151-0.934,1.48c-0.322,0.332-0.591,0.557-0.778,0.695l-0.284,0.219L77.591,105.957z M77.163,105.341
c0.001-0.001,0.086-0.068,0.252-0.2c0.17-0.129,0.409-0.336,0.686-0.628c0.532-0.55,1.283-1.674,0.495-2.937
c-0.763-1.241-2.501-2.256-4.528-3.066c-2.054-0.811-4.493-1.457-7.192-1.959c-2.701-0.503-5.67-0.846-8.816-1.045
c-3.147-0.219-6.481-0.276-9.922-0.135c-3.44,0.143-6.992,0.478-10.543,1.131c-1.775,0.324-3.546,0.743-5.281,1.286
c-1.723,0.568-3.433,1.223-4.91,2.266c-0.689,0.505-1.37,1.139-1.665,1.893c-0.333,0.753-0.1,1.593,0.419,2.263
c1.081,1.346,2.778,2.18,4.415,2.856c3.342,1.326,6.871,2.018,10.273,2.514c3.421,0.476,6.756,0.668,9.919,0.72
c3.164,0.048,6.156-0.072,8.905-0.307c5.499-0.477,10.022-1.441,13.038-2.493c1.511-0.516,2.642-1.053,3.372-1.469
c0.354-0.209,0.626-0.372,0.812-0.507C77.051,105.418,77.141,105.356,77.163,105.341z"/>
</g>
<g>
<path fill="#BB4F45" d="M62.593,98.837c-1.071,0.773-3.849,1.178-6.204,0.902c-2.357-0.276-3.399-1.13-2.329-1.904
c1.071-0.773,3.848-1.178,6.204-0.902C62.619,97.21,63.66,98.062,62.593,98.837z"/>
<path fill="#483525" d="M62.719,99.053c0,0-0.069,0.042-0.198,0.122c-0.125,0.083-0.313,0.2-0.61,0.313
c-0.289,0.138-0.627,0.225-1.02,0.345c-0.395,0.09-0.843,0.2-1.337,0.255c-0.493,0.083-1.033,0.099-1.602,0.107
c-0.571,0.006-1.171-0.053-1.792-0.134c-0.608-0.1-1.265-0.223-1.886-0.533c-0.299-0.17-0.652-0.331-0.845-0.781
c-0.097-0.22-0.052-0.522,0.075-0.693c0.115-0.19,0.268-0.305,0.415-0.414c0.573-0.364,1.276-0.536,1.895-0.672
c0.639-0.109,1.268-0.194,1.88-0.222c0.612-0.035,1.203-0.012,1.764,0.002c0.562,0.04,1.086,0.075,1.576,0.162
c0.487,0.083,0.931,0.194,1.316,0.357c0.374,0.161,0.734,0.387,0.864,0.786c0.086,0.434-0.168,0.683-0.271,0.809l-0.203,0.181
L62.719,99.053z M62.457,98.626c0.018-0.014,0.065-0.05,0.145-0.112c0.085-0.085,0.203-0.213,0.183-0.362
c-0.029-0.16-0.259-0.395-0.594-0.556c-0.331-0.17-0.748-0.307-1.213-0.41c-0.461-0.118-0.989-0.158-1.535-0.199
c-0.551-0.031-1.133-0.01-1.732,0.039c-0.598,0.054-1.213,0.143-1.822,0.292c-0.609,0.182-1.178,0.35-1.688,0.714
c-0.23,0.181-0.352,0.391-0.264,0.51c0.064,0.158,0.338,0.322,0.593,0.428c0.542,0.218,1.134,0.328,1.723,0.398
c1.169,0.12,2.281,0.084,3.221,0.01c0.936-0.074,1.733-0.231,2.21-0.405c0.243-0.065,0.442-0.167,0.576-0.244
C62.372,98.671,62.437,98.637,62.457,98.626z"/>
</g>
<g>
<path fill="#BB4F45" d="M37.684,103.692c-1.069,0.773-3.848,1.178-6.202,0.902c-2.357-0.276-3.398-1.129-2.329-1.904
c1.069-0.773,3.848-1.177,6.202-0.9C37.711,102.065,38.753,102.918,37.684,103.692z"/>
<path fill="#483525" d="M37.81,103.908c0,0-0.069,0.043-0.198,0.122c-0.124,0.083-0.313,0.2-0.61,0.313
c-0.289,0.138-0.627,0.225-1.02,0.345c-0.395,0.089-0.843,0.2-1.337,0.255c-0.493,0.082-1.033,0.099-1.602,0.106
c-0.571,0.006-1.171-0.053-1.792-0.135c-0.608-0.1-1.265-0.223-1.886-0.532c-0.299-0.17-0.652-0.33-0.845-0.781
c-0.096-0.22-0.052-0.522,0.076-0.692c0.115-0.19,0.268-0.304,0.414-0.414c0.573-0.364,1.276-0.536,1.895-0.671
c0.639-0.109,1.268-0.193,1.88-0.222c0.612-0.034,1.203-0.012,1.764,0.003c0.562,0.04,1.085,0.076,1.575,0.162
c0.487,0.083,0.931,0.193,1.316,0.356c0.374,0.161,0.734,0.387,0.864,0.786c0.085,0.434-0.169,0.683-0.272,0.809l-0.203,0.18
L37.81,103.908z M37.548,103.482c0.018-0.013,0.065-0.05,0.146-0.111c0.085-0.085,0.203-0.213,0.184-0.361
c-0.029-0.159-0.258-0.395-0.594-0.555c-0.331-0.17-0.748-0.307-1.213-0.41c-0.461-0.118-0.989-0.158-1.535-0.199
c-0.551-0.031-1.133-0.01-1.732,0.038c-0.598,0.054-1.213,0.143-1.821,0.291c-0.609,0.182-1.178,0.35-1.688,0.714
c-0.23,0.181-0.352,0.392-0.265,0.511c0.064,0.158,0.337,0.322,0.592,0.428c0.542,0.218,1.134,0.328,1.723,0.398
c1.169,0.12,2.281,0.084,3.221,0.01c0.936-0.074,1.733-0.231,2.21-0.405c0.243-0.065,0.441-0.167,0.576-0.244
C37.463,103.526,37.528,103.492,37.548,103.482z"/>
</g>
<g>
<path fill="#BB4F45" d="M38.6,99.844c-1.778-0.656-1.602-1.559,0.391-2.017c1.994-0.46,5.05-0.3,6.826,0.355
c1.775,0.654,1.603,1.557-0.39,2.016C43.432,100.658,40.377,100.498,38.6,99.844z"/>
<path fill="#483525" d="M38.514,100.078l-0.009-0.003c0,0-0.078-0.028-0.223-0.082c-0.142-0.052-0.386-0.153-0.657-0.325
c-0.135-0.099-0.294-0.203-0.428-0.419c-0.149-0.195-0.178-0.603,0.006-0.85c0.344-0.484,0.829-0.64,1.324-0.82
c0.135-0.038,0.273-0.076,0.414-0.116c0.128-0.019,0.258-0.039,0.39-0.058c0.265-0.038,0.539-0.077,0.82-0.117
c0.549-0.118,1.204-0.03,1.838-0.047c0.649-0.026,1.289,0.122,1.95,0.199c0.659,0.076,1.308,0.348,1.961,0.515
c0.308,0.131,0.638,0.284,0.923,0.516c0.144,0.11,0.28,0.267,0.364,0.467c0.097,0.209,0.024,0.487-0.103,0.636
c-0.257,0.318-0.585,0.444-0.893,0.561c-0.318,0.102-0.616,0.201-0.947,0.231c-0.619,0.06-1.205,0.181-1.782,0.184
c-0.576,0.007-1.121,0.014-1.623,0.02c-0.5-0.04-0.959-0.077-1.365-0.109c-0.41-0.008-0.757-0.123-1.047-0.179
C38.846,100.153,38.515,100.079,38.514,100.078z M38.689,99.61c0.002,0.001,0.308,0.09,0.846,0.249
c0.273,0.071,0.594,0.206,0.994,0.24c0.395,0.056,0.841,0.12,1.327,0.189c0.488,0.035,1.019,0.019,1.58,0.023
c0.562,0.016,1.155-0.151,1.767-0.224c0.554-0.111,1.265-0.301,1.586-0.72c0.15-0.194,0.013-0.388-0.228-0.565
c-0.239-0.169-0.523-0.284-0.83-0.392c-0.638-0.115-1.241-0.332-1.883-0.364c-0.636-0.023-1.263-0.161-1.858-0.108
c-0.603,0.037-1.158-0.026-1.73,0.09c-0.282,0.038-0.556,0.075-0.821,0.111c-0.133,0.017-0.263,0.034-0.391,0.05
c-0.109,0.025-0.216,0.05-0.321,0.075c-0.435,0.114-0.861,0.297-0.996,0.482c-0.058,0.085-0.062,0.111-0.02,0.206
c0.039,0.09,0.147,0.183,0.238,0.259c0.21,0.15,0.382,0.24,0.527,0.305C38.612,99.576,38.683,99.607,38.689,99.61z"/>
</g>
<path fill="#F4F5F5" d="M57.341,98.899c-0.223,0.163-0.852,0.241-1.407,0.175c-0.557-0.066-0.825-0.249-0.6-0.409
c0.223-0.162,0.852-0.241,1.408-0.177C57.296,98.555,57.565,98.736,57.341,98.899z"/>
<path fill="#F4F5F5" d="M33.617,102.569c-0.225,0.163-0.855,0.241-1.41,0.176c-0.556-0.066-0.823-0.249-0.601-0.411
c0.223-0.161,0.854-0.239,1.408-0.175C33.572,102.226,33.84,102.408,33.617,102.569z"/>
<path fill="#F4F5F5" d="M31.626,103.791c-0.178,0.129-0.685,0.194-1.132,0.14c-0.445-0.052-0.663-0.199-0.481-0.329
c0.178-0.13,0.685-0.193,1.132-0.141S31.808,103.66,31.626,103.791z"/>
<path fill="#F4F5F5" d="M43.401,99.936c-0.18,0.13-0.687,0.192-1.134,0.141c-0.447-0.052-0.661-0.199-0.483-0.331
c0.18-0.13,0.688-0.192,1.134-0.141C43.365,99.658,43.582,99.806,43.401,99.936z"/>
<path fill="#F4F5F5" d="M60.861,98.55c0.034-0.047,0.039-0.096,0.056-0.144c-0.038-0.106-0.259-0.204-0.625-0.247
c-0.528-0.062-1.127,0.012-1.34,0.166s0.042,0.328,0.57,0.391C60.051,98.778,60.646,98.704,60.861,98.55z"/>
<path fill="#F4F5F5" d="M43.958,98.828c0.033-0.05,0.04-0.098,0.058-0.145c-0.041-0.108-0.261-0.204-0.627-0.247
c-0.53-0.062-1.127,0.013-1.34,0.165c-0.213,0.155,0.043,0.328,0.57,0.391C43.147,99.055,43.743,98.98,43.958,98.828z"/>
<path fill="#F4F5F5" d="M35.486,103.6c0.033-0.049,0.038-0.096,0.057-0.146c-0.04-0.105-0.261-0.203-0.627-0.244
c-0.528-0.064-1.126,0.01-1.339,0.165c-0.215,0.154,0.043,0.328,0.571,0.391C34.677,103.826,35.272,103.754,35.486,103.6z"/>
<g>
<path fill="#BB4F45" d="M75.893,102.025c-1.069,0.773-3.848,1.178-6.202,0.902c-2.357-0.276-3.398-1.129-2.329-1.904
c1.069-0.773,3.848-1.177,6.202-0.9C75.92,100.398,76.962,101.251,75.893,102.025z"/>
<path fill="#483525" d="M76.019,102.241c0,0-0.069,0.043-0.198,0.122c-0.124,0.083-0.313,0.2-0.61,0.313
c-0.289,0.138-0.627,0.225-1.02,0.345c-0.395,0.089-0.843,0.2-1.337,0.255c-0.493,0.082-1.033,0.099-1.602,0.106
c-0.571,0.006-1.171-0.053-1.792-0.134c-0.608-0.1-1.265-0.223-1.886-0.532c-0.299-0.17-0.652-0.33-0.845-0.781
c-0.096-0.22-0.052-0.522,0.076-0.692c0.115-0.19,0.268-0.305,0.414-0.414c0.573-0.364,1.277-0.536,1.895-0.671
c0.639-0.109,1.268-0.193,1.88-0.222c0.612-0.034,1.203-0.012,1.764,0.003c0.562,0.04,1.085,0.076,1.575,0.162
c0.487,0.083,0.931,0.193,1.316,0.356c0.374,0.161,0.734,0.387,0.864,0.786c0.085,0.434-0.169,0.683-0.272,0.809l-0.203,0.18
L76.019,102.241z M75.757,101.815c0.018-0.013,0.065-0.05,0.146-0.111c0.085-0.085,0.203-0.213,0.184-0.361
c-0.029-0.159-0.258-0.395-0.594-0.555c-0.331-0.17-0.748-0.307-1.213-0.41c-0.461-0.118-0.989-0.158-1.535-0.199
c-0.551-0.031-1.133-0.01-1.732,0.038c-0.598,0.054-1.213,0.143-1.821,0.291c-0.609,0.182-1.178,0.35-1.688,0.714
c-0.23,0.181-0.352,0.392-0.265,0.511c0.064,0.158,0.337,0.322,0.592,0.428c0.542,0.218,1.134,0.328,1.723,0.398
c1.169,0.12,2.281,0.084,3.221,0.01c0.936-0.074,1.733-0.231,2.21-0.405c0.243-0.065,0.441-0.167,0.576-0.244
C75.672,101.859,75.737,101.825,75.757,101.815z"/>
</g>
<path fill="#F4F5F5" d="M71.826,100.902c-0.225,0.163-0.855,0.241-1.41,0.176c-0.556-0.066-0.823-0.249-0.601-0.411
c0.223-0.161,0.854-0.239,1.408-0.175C71.781,100.559,72.049,100.741,71.826,100.902z"/>
<path fill="#F4F5F5" d="M69.835,102.124c-0.178,0.129-0.685,0.194-1.132,0.14c-0.445-0.052-0.663-0.199-0.481-0.329
c0.178-0.13,0.685-0.193,1.132-0.141C69.801,101.846,70.017,101.993,69.835,102.124z"/>
<path fill="#F4F5F5" d="M73.695,101.933c0.033-0.049,0.038-0.096,0.057-0.146c-0.04-0.105-0.261-0.203-0.627-0.244
c-0.528-0.064-1.126,0.01-1.339,0.165c-0.215,0.154,0.043,0.328,0.571,0.391C72.886,102.159,73.481,102.087,73.695,101.933z"/>
</g>
</g>
<g>
<g>
<path fill="#BB4F45" d="M49.372,99.615c0.191,1.621,0.136,3.557-1.276,4.569c-1.37,1.042-4.699-0.34-5.189-3.647
c-0.443-3.315,2.283-5.496,3.853-4.871C48.374,96.255,49.056,98.016,49.372,99.615z"/>
</g>
<g>
<path fill="#BB4F45" d="M49.372,99.615c0.191,1.621,0.136,3.557-1.276,4.569c-1.37,1.042-4.699-0.34-5.189-3.647
c-0.443-3.315,2.283-5.496,3.853-4.871C48.374,96.255,49.056,98.016,49.372,99.615z"/>
</g>
<g>
<path fill="#483525" d="M49.621,99.592c0,0,0.012,0.095,0.034,0.273c0.026,0.176,0.055,0.439,0.071,0.792
c0.015,0.349,0.029,0.77-0.041,1.262c-0.048,0.49-0.204,1.051-0.514,1.61c-0.176,0.27-0.364,0.552-0.646,0.768
c-0.249,0.256-0.554,0.419-0.989,0.537c-0.769,0.157-1.556-0.028-2.241-0.385c-1.397-0.696-2.425-2.195-2.611-3.794
c-0.098-0.781-0.025-1.62,0.229-2.354c0.249-0.743,0.672-1.41,1.214-1.919c0.535-0.514,1.202-0.868,1.901-0.933
c0.341-0.024,0.713,0.038,0.987,0.202c0.138,0.073,0.281,0.12,0.411,0.203c0.129,0.093,0.256,0.185,0.38,0.274
c0.458,0.392,0.792,0.836,1.017,1.261c0.241,0.42,0.387,0.815,0.499,1.139c0.113,0.326,0.184,0.586,0.225,0.764l0.071,0.277
L49.621,99.592z M49.124,99.648c-0.006-0.03-0.022-0.111-0.049-0.249c-0.029-0.174-0.083-0.426-0.172-0.74
c-0.088-0.313-0.205-0.696-0.406-1.099c-0.185-0.411-0.475-0.84-0.873-1.213c-0.201-0.172-0.422-0.353-0.719-0.473
c-0.262-0.157-0.552-0.198-0.861-0.184c-0.625,0.04-1.238,0.406-1.722,0.895c-0.487,0.491-0.878,1.121-1.067,1.824
c-0.195,0.707-0.221,1.435-0.092,2.168c0.253,1.451,1.248,2.681,2.44,3.248c0.59,0.295,1.241,0.386,1.768,0.281
c0.198-0.046,0.494-0.167,0.67-0.37c0.217-0.164,0.372-0.375,0.522-0.579c0.262-0.435,0.428-0.898,0.497-1.334
c0.089-0.429,0.099-0.829,0.104-1.148c0.005-0.318-0.008-0.579-0.023-0.761C49.131,99.759,49.125,99.671,49.124,99.648z"/>
</g>
</g>
<g>

<ellipse transform="matrix(-0.1598 -0.9871 0.9871 -0.1598 -47.2819 164.7001)" fill="#F4F5F5" cx="46.45" cy="102.472" rx="0.788" ry="0.654"/>
</g>
<g>

<ellipse transform="matrix(0.0603 -0.9982 0.9982 0.0603 -55.8624 140.511)" fill="#F4F5F5" cx="46.696" cy="99.925" rx="0.787" ry="0.6"/>
</g>
<g>
<path fill="#483525" d="M0,89.198c0,0,1.508-0.121,4.147-0.19c1.319-0.059,2.921-0.052,4.759-0.086
c1.838-0.006,3.911-0.013,6.173-0.021c9.047-0.027,21.11-0.064,33.172-0.1c12.063,0.007,24.125,0.014,33.172,0.019
c4.523-0.002,8.293,0.003,10.932,0.082c2.639,0.059,4.147,0.169,4.147,0.169c0.07,0.005,0.123,0.066,0.118,0.137
c-0.005,0.064-0.056,0.113-0.118,0.118c0,0-1.508,0.11-4.147,0.169c-2.639,0.079-6.408,0.084-10.932,0.082
c-9.047,0.005-21.11,0.012-33.172,0.019c-12.063-0.036-24.125-0.073-33.172-0.1c-2.262-0.008-4.335-0.015-6.173-0.021
c-1.838-0.034-3.44-0.028-4.759-0.086C1.508,89.319,0,89.198,0,89.198z"/>
</g>
<g>
<g>
<path fill="#ED9C1C" d="M75.22,93.819c0,0-0.89,0.171-2.229-0.38c0.09-0.33,0.14-0.67,0.14-1.01c1.021-0.21,2.12-0.59,2.74-0.85
c0.11,0.38,0.45,1.739-0.65,2.25L75.22,93.819L75.22,93.819z"/>
<path fill="#ED9C1C" d="M48.67,79.939c-0.26,0.86-0.35,1.721-0.35,1.721c-2.561-3.431-5.181-8.221-5.181-8.221
C43.73,71.2,44.19,69.74,44.19,69.74c-0.83-3.221-2.221-5.811-3.521-7.681c0,0-2.31-2.85-4.17-4.609
c-1.86-1.761-1.94-2.44-1.94-2.44c2.12,0.81,5.75-0.45,8.511,3.93c3.819,6.08,6.34,10.08,8.79,12.13c3.239,2.71,4.46,3,7.17,4.54
c3.239,1.851,5.85,4.15,9.45,6.631c0.899,0.609,4.869,0.579,7.489,2.109c1.75,1.021,2.03,5.97,0.351,7.021
c-0.09,0.05-0.24,0.13-0.45,0.21c-0.62,0.26-1.72,0.64-2.74,0.85c-1.21,0.26-2.32,0.29-2.399-0.36
c-0.08-0.72,0.239-1.34,0.939-1.79L71.19,90.3c-0.801-0.22-1.78-0.21-2.78,0.14c-0.42-0.56-0.68-1.149-0.68-1.149
c-3.351-1.82-3.37-3.53-2.721-4.61l-0.18-0.11c-0.96-0.76-4.14-1.579-7.46-1.79c-5.66-0.359-6.72-1.76-6.72-1.76
c-0.091,0.771-0.08,1.67-0.08,1.67C49.35,81.569,48.67,79.939,48.67,79.939z"/>
<path fill="#ED9C1C" d="M72.99,93.439c1.34,0.551,2.229,0.38,2.229,0.38v0.011c-0.09,0.05-0.2,0.09-0.319,0.12
c0,0,0.01,0.829-0.66,1.229c-0.13,0.021-0.88,0.1-1.98-0.27C72.58,94.45,72.84,93.96,72.99,93.439z"/>
<path fill="#ED9C1C" d="M74.24,95.18c-0.23,0.14-0.55,0.23-0.99,0.21c0,0-0.07,0.98-1.66,0.68c-0.09-0.02-0.18-0.04-0.28-0.06
c0.341-0.34,0.66-0.71,0.95-1.1C73.36,95.279,74.11,95.2,74.24,95.18z"/>
<path fill="#ED9C1C" d="M19.74,86.729c1.79,0.771,3.99,1.59,6.49,2.28h-6.48c0.13-1.13-0.04-2.22-0.04-2.22L19.74,86.729z"/>
<path fill="#ED9C1C" d="M46.04,92.93c0.62,0.78,0.85,4.74,0.13,5.271c-0.76,0.56-1.58,0.619-1.83-1.301h-0.01
c-0.24,0.761-1.33,1.29-1.93,0.641h-0.01c-0.26,0.83-1.84,1.02-2.15,0.47c-0.04-0.08-0.07-0.17-0.09-0.27
c-2.24,0.899-3.301-1.431-4-3.171c-0.82-2.01-1.561-3.27-2.131-4.05c-2.819-0.3-5.439-0.85-7.789-1.51
c-2.5-0.69-4.7-1.51-6.49-2.28c-3.351-1.439-5.32-2.7-5.32-2.7c-0.61,0.78-0.87,1.421-0.87,1.421c-0.88-1.46-0.77-2.9-0.77-2.9
c-0.74,0.71-1.09,1.75-1.09,1.75c-0.921-3.01,1.02-12.18,1.22-15.99c0.71-13.56,5.09-14.37,9.63-14.47
c0.31-0.01,0.6-0.03,0.86-0.07l0.04,0.3c0,0-1.12,1.86,1.22,5.28c3.09,4.53,1.04,20.19,1.34,22.59l-0.05,0.08
c2.45,1.45,5.609,3.101,10,4.721c1.12,0.409,2.76,0.829,4.72,1.699c0.36,0.16,0.74,0.33,1.12,0.53
C44.48,90.33,45.55,92.3,46.04,92.93z"/>
<path fill="#FACC63" d="M44.19,69.74c0,0-0.46,1.46-1.051,3.699C42.12,77.3,40.73,83.46,40.69,88.39l-0.021,0.05
c-1.96-0.87-3.6-1.29-4.72-1.699c-4.391-1.62-7.55-3.27-10-4.721l0.05-0.08c-0.3-2.399,1.75-18.06-1.34-22.59
c-2.34-3.42-1.22-5.28-1.22-5.28l-0.04-0.3c2.449-0.319,2.8-1.8,2.779-2.68h7.58c-0.68,0.58-1.31,1.59-0.319,3.06
c0.29,0.431,0.67,0.69,1.119,0.86c0,0,0.08,0.68,1.94,2.44c1.86,1.76,4.17,4.609,4.17,4.609C41.97,63.93,43.36,66.52,44.19,69.74z
"/>
<path fill="#F4F5F5" d="M68.59,92.979c0.28,0.181,0.311,0.62,0.08,0.99c-0.24,0.37-0.66,0.52-0.93,0.34
c-0.28-0.18-0.32-0.62-0.08-0.99C67.89,92.96,68.31,92.8,68.59,92.979z"/>
</g>
</g>
<g>
<g>
<g>
<path fill="#FFFFFF" d="M29.327,31.963c0.113,0.996,0.101,3.828,0.101,4.059c-1.111-0.339-2.527-0.666-4.121-0.801
c-2.229-0.189-3.861-0.774-5.162-1.526c0-0.03,0.002-1.932,0.781-4.212c5.611-0.752,8.26,1.574,8.26,1.574
C29.245,31.343,29.291,31.646,29.327,31.963z M24.47,31.625c1.318-0.17,0.912-2.078,0.912-2.078l-1.217-0.076
c0,0,0.523,1.156-0.25,1.312c-0.684,0.136-0.895-0.816-0.895-0.816S23.155,31.797,24.47,31.625z"/>
</g>
</g>
</g>
<g>
<path fill="#483525" d="M25.864,31.803c-0.763,0-1.4,0.612-1.614,1.45c0.138-0.315,0.403-0.538,0.72-0.538
c0.453,0,0.822,0.445,0.822,0.995c0,0.549-0.369,0.994-0.822,0.994c-0.417,0-0.746-0.38-0.802-0.864
c0,0.006-0.001,0.011-0.001,0.016c0,1.133,0.76,2.052,1.697,2.052s1.698-0.919,1.698-2.052
C27.562,32.722,26.802,31.803,25.864,31.803z"/>
</g>
<g>
<g>
<g>
<path fill="#FACC63" d="M45.022,34.433c2.518,1.297,4.045,3.663,4.045,3.663s-1.672,4.273-5.801,7.556
c-3.68,2.924-7.358,4.1-10.026,5.435c0,0,0,0-0.003,0c-0.059,0.083-1.018,1.468-0.428,2.505c0,0-0.984,1.21,4.357,4.856
c3.633,2.479,5.736,7.189,6.5,9.25c0,0-0.781,1.155-0.936,1.993l-0.131,0.066c-1.413-2.921-7.428-5.752-16.691-7.479
c-0.438-2.164-1.242-2.723-2.533-4.926c-1.204-2.049,0.72-3.861,0.922-4.045c0.004-0.004,0.004-0.004,0.004-0.004
c0.229-0.107,0.447-0.238,0.65-0.403c1.295-1.067,0.226-2.722,0.226-2.722l0.007-0.039C13.112,47.893,7.741,39.854,7.741,39.854
c0.992-0.959,2.52-1.645,2.52-1.645c-1.603-0.112-4.084,0.424-4.084,0.424c0.256-1.579,1.426-3.511,4.782-5.295
c0.55-0.294,1.091-0.629,1.606-0.99c2.625-1.832,4.652-4.25,4.652-4.25c-2.799,0.918-4.984,0.357-6.055,1.883
c-1.067,1.526,1.402,2.367,1.402,2.367c-2.137,0.105-2.725-1.555-2.725-1.555c-0.508-3.203,3.918-3.562,6.461-5.188
c0.684-0.435,1.355-0.696,1.966-0.836c1.664-0.387,2.906,0.073,2.906,0.073c-0.782,0.614-1.382,1.335-1.72,2.036
c-1.067,2.236-2.897,3.914-2.897,3.914c1.011,0.935,2.071,2.027,3.589,2.901c1.301,0.752,2.934,1.337,5.162,1.526
c1.594,0.135,3.01,0.462,4.121,0.801c1.579,0.479,2.545,0.98,2.545,0.98c0.322-3.701-0.446-10.399-3.232-12.722
c0,0,2.863-0.837,4.693-0.144c0.514,0.193,0.943,0.506,1.209,0.988c0.266,0.484,0.469,1.01,0.631,1.535
c0.282,0.898,0.459,1.822,0.691,2.613c0.133,0.463,0.284,0.881,0.488,1.225c-0.238-0.215-0.321-0.594-0.321-0.594
s0.12,1.631,1.294,1.479c0.686,0.382,1.672,0.828,2.717,1.381c-0.035-0.342-0.082-0.668-0.133-0.975
c0.065,0.036,1.807,0.978,3.832,2.033C44.226,34.021,44.622,34.228,45.022,34.433z M45.86,38.066
c0.312-1.01-0.549-1.974-1.931-2.648h-0.003c-2.238-1.088-5.848-1.397-8.062,0.16c-3.588,2.519,0.152,4.882,2.137,5.877
c1.983,0.992,3.129,0.533,3.129,0.533s1.366-0.173,2.674-1.094C44.636,40.307,45.448,39.412,45.86,38.066z"/>
</g>
</g>
</g>
<g>
<g>
<g>
<path fill="#FFFFFF" d="M46.548,9.555c7.105,3.498,5.342,11.6,1.373,13.584s-8.7,0.152-10.684-3.205
c-0.36-0.607-0.756-1.158-1.163-1.648l-0.058,0.046c-2.083,1.952-2.485,4.642-2.564,5.515c-0.016,0.186-0.02,0.289-0.02,0.289
c-1.83-0.693-4.693,0.144-4.693,0.144c-0.275-0.235-0.571-0.419-0.889-0.558c-0.412-0.18-0.827-0.305-1.243-0.379
c0.131,0,2.567-0.057,2.567-2.979c0,0-1.02,1.272-3.205,1.272c-2.188,0-4.553,1.225-4.796,3.208c0,0-1.242-0.46-2.906-0.073
c-0.11-4.531-2.83-7.457-2.83-7.457c-2.958,0-5.522-1.881-6.056-5.545c-0.41-2.819,1.174-5.878,3.951-7.043
c3.487-1.459,6.103-0.443,7.6,0.552c0,0,0.508-3.382,4.319-4.359C33.953-1.328,37.169,7.76,37.169,7.76v0.004
C39.157,7.675,42.982,7.799,46.548,9.555z"/>
</g>
</g>
</g>
<g>
<g>
<g>
<path fill="#FACC63" d="M42.911,29.878c1.556,0.191,2.848,3.021,0.93,3.942c-2.025-1.055-3.767-1.997-3.832-2.033
c-0.003,0-0.003,0-0.003,0c-0.151-0.885-0.359-1.621-0.608-2.23c-1.431-3.55-4.125-2.898-4.125-2.898
c-0.162-0.525-0.365-1.051-0.631-1.535c-0.266-0.482-0.695-0.795-1.209-0.988c0,0,0.004-0.104,0.02-0.289l0.062,0.008
c0.959,0.269,1.639,2.177,1.639,2.177c1.95-0.636,2.367,0.174,3.402,0.749c0.168,0.097,0.334,0.156,0.491,0.191
C39.088,27.049,40.369,29.571,42.911,29.878z"/>
</g>
</g>
</g>
<g>
<g>
<g>
<path fill="#FFFFFF" d="M40.009,31.787c0.051,0.307,0.098,0.633,0.133,0.975c-1.045-0.553-2.031-0.999-2.717-1.381
c1.172-0.151,0.811-1.854,0.811-1.854l-1.085-0.066c0,0,0.465,1.033-0.225,1.17c-0.202,0.039-0.356-0.028-0.474-0.135
c-0.204-0.344-0.355-0.762-0.488-1.225c0,0,1.385-0.29,3.434,0.285c0.249,0.609,0.457,1.346,0.608,2.23
C40.006,31.787,40.006,31.787,40.009,31.787z"/>
</g>
</g>
</g>
<g>
<g>
<g>
<path fill="#FFFFFF" d="M38.235,29.527c0,0,0.361,1.702-0.811,1.854c-0.115-0.064-0.219-0.121-0.312-0.178
c-0.272-0.168-0.485-0.41-0.66-0.707c0.117,0.107,0.271,0.174,0.474,0.135c0.689-0.137,0.225-1.17,0.225-1.17L38.235,29.527z"/>
</g>
</g>
</g>
<g>
<g>
<g>
<path fill="#FACC63" d="M37.425,31.381c-1.174,0.152-1.294-1.479-1.294-1.479s0.083,0.379,0.321,0.594
c0.175,0.297,0.388,0.539,0.66,0.707C37.206,31.26,37.31,31.316,37.425,31.381z"/>
</g>
</g>
</g>
<g>
<path fill="#483525" d="M39.092,29.701c-0.477,0-0.875,0.382-1.007,0.905c0.085-0.197,0.251-0.336,0.448-0.336
c0.283,0,0.513,0.278,0.513,0.621c0,0.342-0.229,0.619-0.513,0.619c-0.261,0-0.466-0.236-0.5-0.538
c0,0.003-0.001,0.006-0.001,0.009c0,0.707,0.474,1.28,1.06,1.28c0.584,0,1.059-0.573,1.059-1.28
C40.15,30.274,39.676,29.701,39.092,29.701z"/>
</g>
<g>
<g>
<g>
<path fill="#FACC63" d="M39.792,30.953c-2.049-0.575-3.041,0.058-3.041,0.058c-0.232-0.791-1.196-3.454-1.479-4.353
C35.272,26.658,38.776,26.031,39.792,30.953z"/>
</g>
</g>
</g>
<g>
<g>
<g>
<path fill="#ED9C1C" d="M28.739,24.278c2.786,2.323,3.555,9.021,3.232,12.722c0,0-0.966-0.501-2.543-0.979
c0-0.23,0.012-3.062-0.101-4.059c-0.036-0.316-0.082-0.62-0.141-0.906c-1.251-6.443-7.057-4.969-8.205-1.737
c-0.019,0.056-0.035,0.107-0.055,0.163c-0.779,2.28-0.781,4.182-0.781,4.212c-1.518-0.874-2.578-1.967-3.589-2.901
c0,0,1.83-1.678,2.897-3.914c0.338-0.701,0.938-1.422,1.72-2.036c0,0,0.007-0.006,0.019-0.02c1.227-0.955,2.887-1.647,4.619-1.57
c0.07,0.004,0.139,0.009,0.211,0.011c0.188,0.018,0.381,0.048,0.58,0.079c0,0,0.004,0,0.005,0
c0.416,0.074,0.831,0.199,1.243,0.379C28.168,23.859,28.464,24.043,28.739,24.278z"/>
</g>
</g>
</g>
<g>
<g>
<g>
<path fill="#FFFFFF" d="M25.97,21.635c2.186,0,3.205-1.272,3.205-1.272c0,2.922-2.437,2.979-2.567,2.979
c-0.001,0-0.005,0-0.005,0c-0.197-0.039-0.388-0.064-0.58-0.079c-0.072-0.002-0.141-0.007-0.211-0.011
c-1.732-0.076-3.392,0.615-4.619,1.57c-0.012,0.015-0.019,0.02-0.019,0.02C21.417,22.859,23.782,21.635,25.97,21.635z"/>
</g>
</g>
</g>
<g>
<g>
<g>
<path fill="#242122" d="M26.022,23.263c0.192,0.015,0.383,0.04,0.58,0.079C26.403,23.31,26.21,23.28,26.022,23.263z"/>
</g>
</g>
</g>
<g>
<g>
<g>
<path fill="#FFFFFF" d="M25.382,29.547c0,0,0.406,1.908-0.912,2.078c-1.314,0.172-1.449-1.658-1.449-1.658
s0.211,0.952,0.895,0.816c0.773-0.156,0.25-1.312,0.25-1.312L25.382,29.547z"/>
</g>
</g>
</g>
<g>
<g>
<g>
<path fill="#FACC63" d="M20.981,29.319c1.148-3.232,6.954-4.706,8.205,1.737c0,0-2.648-2.326-8.26-1.574
C20.946,29.427,20.963,29.375,20.981,29.319z"/>
</g>
</g>
</g>
<g>
<path fill="#FACC63" d="M29.109,32.87c0,0,1.054-5.726-4.152-6.47c0,0-4.332-0.036-4.748,6.381
C20.209,32.781,25.659,31.669,29.109,32.87z"/>
</g>
<g>
<g>
<g>
<path fill="#ED9C1C" d="M23.376,57.354c1.291,2.203,2.096,2.762,2.533,4.926c-2.428-0.453-5.079-0.83-7.928-1.109
c-0.217-0.022-0.432-0.043-0.645-0.063c-0.11-0.403-0.428-1.927-0.323-3.091c0.116-1.26,1.143-2.824,2.938-3.628
c1.512-0.673,3.109-0.509,4.346-1.079C24.096,53.492,22.172,55.305,23.376,57.354z"/>
</g>
</g>
</g>
<g>
<path fill="#483525" d="M46.942,9.061c-3.148-1.552-6.469-1.876-8.703-1.876c-0.18,0-0.358,0.002-0.537,0.007
c-0.283-0.661-0.936-2.009-2.047-3.366C33.606,1.326,30.976,0,28.05,0c-0.908,0-1.859,0.128-2.826,0.379
c-2.969,0.762-4.121,2.838-4.541,4.019c-0.944-0.502-2.235-0.961-3.809-0.961c-1.191,0-2.418,0.262-3.65,0.778
c-2.971,1.244-4.789,4.478-4.322,7.691c0.11,0.761,0.314,1.46,0.592,2.101c0.021,0.053,0.037,0.105,0.061,0.154
c0.025,0.059,0.055,0.111,0.081,0.166c0.005,0.014,0.011,0.025,0.018,0.037c0.325,0.684,0.781,1.311,1.339,1.84
c0.025,0.024,0.053,0.051,0.08,0.072c0.09,0.084,0.182,0.165,0.278,0.242c0.091,0.074,0.185,0.146,0.28,0.217
c0.03,0.021,0.059,0.043,0.089,0.062c0.999,0.704,2.204,1.121,3.555,1.172h0.001c0.523,0.646,2.146,2.896,2.455,6.078
c-0.008,0.112-0.017,0.224-0.03,0.336c-0.179,0.058-0.354,0.125-0.529,0.199c-0.079,0.03-0.157,0.068-0.235,0.1
c-0.009,0.004-0.018,0.01-0.027,0.014c-0.07,0.031-0.141,0.06-0.209,0.092c-0.142,0.071-0.279,0.146-0.416,0.226l-0.201,0.123
l-0.18,0.118c-0.088,0.057-0.182,0.107-0.273,0.16c-0.614,0.33-1.316,0.614-2.005,0.892c-2.201,0.891-4.697,1.899-4.264,4.636
c0.006,0.037,0.015,0.073,0.027,0.11c0.022,0.058,0.423,1.141,1.637,1.674c-0.075,0.042-0.15,0.082-0.229,0.125
c-3.025,1.605-4.742,3.534-5.1,5.735c-0.031,0.198,0.037,0.399,0.184,0.538c0.115,0.109,0.266,0.169,0.42,0.169
c0.043,0,0.086-0.006,0.129-0.014c0.01-0.002,0.555-0.118,1.285-0.229c-0.144,0.095-0.287,0.194-0.428,0.305l-0.434,0.45
l0.337,0.43c0.375,0.474,0.732,0.868,1.117,1.275c0.185,0.191,0.371,0.377,0.561,0.561c0.689,0.744,1.619,1.652,2.811,2.609
c2.598,2.085,6.963,4.8,13.1,6.027c0.013-0.002,0.023-0.01,0.036-0.011c0.021-0.001,0.042,0.001,0.063,0
c0.319-0.012,0.638-0.003,0.958,0c0.018,0,0.024,0.012,0.04,0.015c-0.004-0.019-0.006-0.038-0.01-0.057
c1.431,0.166,2.871,0.193,4.3,0.034c-2.126-0.409-4.207-0.774-6.257-1.294c-2.044-0.519-4.064-1.146-5.995-2.01
c-1.933-0.855-3.732-2.001-5.365-3.336c-0.818-0.662-1.586-1.389-2.303-2.152c-0.36-0.381-0.703-0.775-1.023-1.188
c-0.203-0.253-0.404-0.522-0.588-0.786c0.188-0.191,0.393-0.375,0.608-0.55c0.186-0.151,0.379-0.299,0.578-0.442
c0.199-0.141,0.406-0.28,0.606-0.406l1.146-0.71c0,0-1.264,0.054-1.266,0.054c-0.726-0.027-1.42,0.053-2.109,0.153
c-0.574,0.087-1.141,0.198-1.708,0.326c0.283-1.095,0.984-2.052,1.834-2.817c0.465-0.422,0.979-0.799,1.514-1.139
c0.267-0.168,0.544-0.329,0.822-0.48l0.861-0.455c1.17-0.641,2.242-1.424,3.254-2.273c1.012-0.854,1.957-1.759,2.857-2.757
l1.188-1.326c0,0-1.735,0.518-1.737,0.518c-0.718,0.279-1.475,0.474-2.257,0.631c-0.781,0.165-1.598,0.264-2.405,0.565
c-0.797,0.297-1.569,0.96-1.639,1.884c-0.005,0.466,0.286,0.851,0.602,1.102c0.217,0.177,0.457,0.312,0.706,0.425
c-0.042,0.029-0.083,0.061-0.126,0.092c-0.369-0.068-0.723-0.191-1.018-0.395c-0.213-0.146-0.396-0.323-0.542-0.532
c-0.141-0.192-0.253-0.432-0.307-0.639c-0.058-0.542,0.045-1.066,0.328-1.482c0.275-0.426,0.711-0.751,1.191-1.015
c0.963-0.54,2.082-0.868,3.18-1.321c0.554-0.229,1.107-0.468,1.655-0.786l0.365-0.22c0.117-0.068,0.235-0.131,0.355-0.193
c0.24-0.121,0.484-0.229,0.736-0.32c0.945-0.355,2-0.489,3.047-0.394c-0.062,0.141-0.123,0.293-0.182,0.446
c0,0,2.691-2.848,6.49-1.255c0,0,1.355,0.611,1.496,0.114c0,0,0.012-0.016,0.029-0.047c0.854-0.163,1.727-0.224,2.577-0.181
c0.43,0.023,0.854,0.074,1.251,0.183c0.398,0.11,0.742,0.334,1.018,0.532c0.138,0.105,0.267,0.205,0.376,0.32
c0.112,0.118,0.186,0.238,0.29,0.434c0.194,0.354,0.357,0.733,0.511,1.126c0.31,0.789,0.532,1.638,0.819,2.485
c0.147,0.428,0.299,0.857,0.525,1.27c0.025,0.042,0.055,0.084,0.08,0.124c-0.369-0.025-0.739-0.003-1.094,0.079
c-0.365,0.083-0.711,0.221-1.029,0.4c-0.315,0.181-0.609,0.401-0.851,0.668c0.277-0.229,0.594-0.4,0.918-0.529
c0.326-0.129,0.668-0.21,1.008-0.236c0.524-0.044,1.04,0.046,1.518,0.226c0.04,0.032,0.082,0.062,0.128,0.09
c0.005,0.005,0.011,0.009,0.015,0.016c0.101,0.074,0.215,0.135,0.304,0.186c0.788,0.441,1.588,0.788,2.364,1.196
c1.049,0.54,2.088,1.14,2.995,1.871c-1.095-0.247-2.216-0.323-3.325-0.227c-1.261,0.11-2.545,0.472-3.571,1.258
c-0.509,0.381-0.991,0.846-1.265,1.475c-0.133,0.31-0.189,0.668-0.146,1.013c0.039,0.345,0.162,0.672,0.326,0.964
c0.338,0.582,0.801,1.055,1.291,1.473c0.496,0.42,1.025,0.783,1.571,1.114c0.533,0.331,1.142,0.648,1.79,0.841
c0.327,0.102,0.668,0.171,1.025,0.199c0.177,0.014,0.357,0.018,0.545,0.006c0.092-0.006,0.186-0.018,0.284-0.033
c0.063-0.01,0.114-0.026,0.177-0.042l0.014-0.001c0.383-0.049,0.689-0.121,1.023-0.216c0.013-0.002,0.025-0.009,0.04-0.013
c-0.255,0.414-0.556,0.797-0.907,1.14c-0.826,0.813-1.913,1.413-3.092,1.556c-2.385,0.345-4.85,0.066-7.191-0.56
c-2.35-0.627-4.601-1.587-6.745-2.729c-1.07-0.572-2.122-1.179-3.144-1.828c-0.511-0.327-0.999-0.69-1.457-1.093
c-0.196-0.172-0.587-0.309-0.669-0.57c-0.109-0.358,0.449-0.428,0.662-0.543l0.001-0.081c-0.349-0.167-0.724-0.202-1.095-0.175
c-0.043,0.006-0.086,0.016-0.13,0.023c-0.001-0.005-0.005-0.011-0.008-0.016l-0.011,0.017c-0.322,0.053-0.646,0.163-0.936,0.354
c-0.335,0.22-0.619,0.55-0.756,0.938c-0.14,0.382-0.139,0.795,0.016,1.146l0.113,0.009c0.105,0.006,0.227-0.312,0.572-0.423
c1.075-0.36,1.273,0.018,1.686,0.2c0.564,0.248,1.118,0.521,1.657,0.812c1.08,0.588,2.176,1.141,3.292,1.649
c2.233,1.011,4.526,1.893,6.895,2.521c2.362,0.612,4.829,1.007,7.298,0.726c1.26-0.111,2.455-0.635,3.516-1.352
c1.061-0.734,1.959-1.71,2.758-2.796c0,0,0.156-0.295,0.287-0.427c0.494-0.489,0.902-1.071,1.191-1.699
c0.139-0.311,0.256-0.641,0.342-0.984c0.107-0.419,0.053-0.885-0.115-1.253c-0.35-0.743-0.939-1.171-1.512-1.512
c-0.254-0.146-0.516-0.269-0.779-0.38c-0.623-0.555-1.297-1.029-1.989-1.452c-0.525-0.324-1.064-0.619-1.608-0.901
c-0.025-0.228-0.055-0.451-0.088-0.678c1.253,0.801,2.514,1.596,3.779,2.379l0.021,0.045c0.008-0.007,0.016-0.012,0.022-0.017
c0.204,0.128,0.409,0.255,0.614,0.38c0.764,0.464,1.441,1.045,2.045,1.695c0.303,0.324,0.588,0.664,0.852,1.017
c0.131,0.177,0.258,0.356,0.379,0.538c0.027,0.043,0.055,0.084,0.082,0.13c-0.156,0.324-0.338,0.665-0.516,0.985
c-0.252,0.449-0.525,0.889-0.809,1.32c-0.566,0.863-1.201,1.684-1.885,2.455c-0.689,0.768-1.434,1.484-2.228,2.133
c-0.814,0.66-1.663,1.26-2.55,1.822c-1.773,1.119-3.693,2.02-5.651,2.956c-0.583,0.278-1.169,0.569-1.74,0.905l-0.024-0.016
c-0.012,0.016-0.021,0.031-0.032,0.049c-0.366,0.217-0.726,0.457-1.073,0.721c-0.443,0.35-0.867,0.742-1.208,1.201
c-0.304,0.409-0.527,0.867-0.658,1.347h0.09c0.635-0.781,1.402-1.331,2.247-1.767c-0.003,0.015-0.003,0.03-0.006,0.045
c0.504-0.311,1.098-0.568,1.663-0.653c0.009-0.014,0.017-0.029,0.024-0.042c0.635-0.312,1.333-0.621,2.07-0.945
c0.561-0.249,1.156-0.512,1.775-0.801c0.127-0.056,0.254-0.105,0.382-0.163c1.001-0.44,1.989-0.938,2.954-1.488
c0.963-0.546,1.896-1.169,2.773-1.845c0.902-0.688,1.73-1.456,2.488-2.287c0.762-0.831,1.443-1.726,2.061-2.666
c0.305-0.469,0.59-0.953,0.857-1.449c0.133-0.245,0.26-0.498,0.381-0.758c0.123-0.262,0.232-0.503,0.35-0.807l0.16-0.453
l-0.236-0.31c-0.176-0.235-0.33-0.406-0.498-0.596c-0.17-0.185-0.34-0.364-0.516-0.536c-0.303-0.3-0.623-0.584-0.953-0.852
c-0.654-0.604-1.461-1.229-2.406-1.715c-0.119-0.061-0.236-0.122-0.355-0.186c0.393-0.49,0.545-1.138,0.428-1.852
c-0.188-1.149-1.133-2.43-2.387-2.58c-1.307-0.159-2.34-1.087-2.952-1.795c0.476-0.133,0.788-0.352,0.835-0.387
c0.203-0.148,0.295-0.404,0.234-0.646c-0.063-0.24-0.266-0.423-0.514-0.453c-0.921-0.122-1.183-0.386-1.704-0.912
c-0.322-0.325-0.723-0.729-1.364-1.177c-0.765-0.535-1.717-0.814-2.756-0.814c-0.215,0-0.416,0.012-0.594,0.029
c0.191-1.002,0.668-2.593,1.848-3.917c0.248,0.335,0.479,0.683,0.693,1.042c1.297,2.198,3.631,3.74,6.195,4.188
c0.099,0.016,0.197,0.038,0.295,0.054c1.047,0.165,2.142,0.162,3.193-0.088c0.527-0.118,1.043-0.289,1.537-0.511
c0.119-0.053,0.25-0.115,0.367-0.178c0.139-0.073,0.254-0.14,0.377-0.217c0.24-0.152,0.469-0.32,0.684-0.501
c0.857-0.727,1.488-1.653,1.93-2.64c0.436-0.992,0.678-2.059,0.705-3.137c0.004-0.137,0.004-0.277,0.002-0.414
c0-0.018,0.002-0.035,0.002-0.057C52.112,13.499,50.226,10.678,46.942,9.061z M11.466,31.711c-0.057-0.055-0.094-0.123-0.141-0.186
c0.236,0.279,0.562,0.497,0.84,0.644c-0.012,0.01-0.026,0.021-0.041,0.032C11.884,32.062,11.66,31.898,11.466,31.711z
M39.706,32.289c-0.594-0.296-1.189-0.589-1.769-0.897l-0.007,0.003c0,0-0.926-0.244-1.259-1.054
c-0.004-0.01-0.008-0.021-0.012-0.031c-0.082-0.157-0.153-0.322-0.212-0.497c0.012-0.002,0.022-0.005,0.034-0.007
c-0.137-0.436-0.245-0.882-0.31-1.178c-0.003,0-0.005,0-0.008,0c-0.105-0.554-0.203-1.122-0.329-1.694
c0.165,0,0.335,0.018,0.493,0.045c0.326,0.058,0.642,0.172,0.933,0.334c0.485,0.267,0.891,0.672,1.222,1.139h0.008
c0,0,0.057,0.081,0.14,0.215c0.017,0.025,0.035,0.049,0.051,0.074c0.043,0.07,0.08,0.143,0.119,0.216
c0.032,0.056,0.062,0.108,0.096,0.172c0.008,0.017,0.019,0.031,0.026,0.048c-0.001,0-0.002-0.001-0.003-0.001
c0.21,0.403,0.444,0.936,0.571,1.509c0.006,0.022,0.01,0.045,0.016,0.067l0.003-0.001c0,0,0.014,0.062,0.03,0.139
c0.123,0.482,0.221,0.97,0.291,1.467C39.789,32.333,39.747,32.311,39.706,32.289z M38.576,26.783
c0.228,0.127,0.447,0.193,0.655,0.221c-0.078-0.008-0.155-0.008-0.238-0.027c-0.002-0.003-0.002-0.003-0.002-0.003
c-0.01,0,0.507,0.881,1.422,1.685c0.437,0.426,0.926,0.796,1.47,1.094c0.312,0.172,0.656,0.317,0.991,0.421
c0.277,0.091,0.52,0.267,0.727,0.48c0.416,0.426,0.689,1.022,0.699,1.553c0.004,0.385-0.127,0.655-0.368,0.843
c0.214-0.774-0.056-1.783-1.53-2.275c-0.979-0.326-2.343-1.496-3.16-2.255c-0.016-0.027-0.029-0.06-0.047-0.089
c-0.392-0.658-0.932-1.266-1.629-1.66c-0.346-0.194-0.727-0.337-1.121-0.41c-0.255-0.047-0.503-0.065-0.762-0.059
c-0.035-0.126-0.078-0.251-0.119-0.376C37.186,25.515,37.616,26.246,38.576,26.783z M50.677,17.189
c-0.088,0.891-0.316,1.766-0.691,2.569c-0.369,0.806-0.887,1.538-1.523,2.097c-0.158,0.141-0.326,0.268-0.498,0.383
c-0.084,0.057-0.182,0.113-0.26,0.155c-0.102,0.056-0.191,0.1-0.293,0.151c-0.4,0.191-0.816,0.351-1.246,0.465
c-0.859,0.229-1.767,0.325-2.671,0.237c-0.903-0.085-1.802-0.324-2.647-0.702c-0.842-0.381-1.631-0.905-2.299-1.562
c-0.332-0.325-0.64-0.691-0.9-1.07c-0.266-0.411-0.564-0.834-0.879-1.225c-0.631-0.783-1.35-1.485-2.123-2.112
c-0.773-0.625-1.603-1.183-2.498-1.6c1.269,0.824,2.41,1.832,3.365,2.979c-0.369,0.407-0.705,0.836-0.996,1.292
c-0.312,0.489-0.592,0.996-0.809,1.528c-0.227,0.529-0.41,1.072-0.563,1.623c-0.077,0.278-0.143,0.557-0.197,0.841
c-0.025,0.121-0.047,0.241-0.068,0.362c-0.051-0.004-0.104-0.008-0.154-0.012c-0.471-0.025-0.93-0.004-1.377,0.053
c-0.887,0.116-1.736,0.342-2.559,0.629c0.113-0.205,0.424-0.991-0.813-1.834c-1.207-0.826-4.854-1.77-6.832,2.171
c-0.728-0.333-1.531-0.45-2.33-0.392c-0.117-0.519-0.238-1.033-0.381-1.535c-0.1-0.338-0.202-0.67-0.311-0.999
c-0.117-0.327-0.23-0.655-0.359-0.978c-0.261-0.641-0.54-1.273-0.843-1.899c-0.147-0.319-0.308-0.63-0.467-0.947
c-0.012-0.018-0.021-0.04-0.03-0.059c0.223-0.033,0.446-0.076,0.669-0.131c0.72-0.185,1.417-0.49,2.003-0.944
c0.586-0.444,1.086-1.023,1.323-1.697c-0.987,1.011-2.253,1.483-3.521,1.653c-1.283,0.15-2.604,0.09-3.74-0.42
c-0.566-0.254-1.091-0.599-1.535-1.034c-0.441-0.437-0.817-0.948-1.102-1.519c-0.281-0.566-0.496-1.184-0.619-1.827
c-0.135-0.638-0.166-1.282-0.092-1.931c0.145-1.297,0.705-2.564,1.592-3.555c0.443-0.497,0.973-0.921,1.557-1.248
c0.588-0.324,1.232-0.552,1.889-0.73c1.312-0.348,2.714-0.342,4.018,0.043c1.305,0.379,2.491,1.113,3.512,2.046
c-0.354-0.481-0.787-0.892-1.267-1.247c0.182-0.822,0.594-1.625,1.142-2.281c0.559-0.672,1.288-1.189,2.093-1.527
c0.401-0.171,0.823-0.293,1.255-0.386c0.432-0.097,0.868-0.169,1.308-0.21c0.878-0.09,1.765-0.057,2.622,0.114
c1.721,0.336,3.283,1.268,4.508,2.519c0.613,0.623,1.154,1.322,1.625,2.064c0.418,0.668,0.792,1.383,1.078,2.102
c-0.314,0.058-0.625,0.132-0.932,0.227c0.997,0.049,1.969,0.098,2.941,0.167c0.969,0.057,1.933,0.184,2.885,0.347
c0.953,0.168,1.892,0.395,2.805,0.703c0.904,0.323,1.803,0.699,2.6,1.201c0.803,0.504,1.525,1.112,2.109,1.826
s1.014,1.533,1.268,2.398C50.667,15.389,50.759,16.296,50.677,17.189z"/>
</g>
<g>
<path fill="#483525" d="M40.635,26.652c0,0-0.206,0.137-0.517,0.244c0.219-0.08,0.39-0.182,0.485-0.248
C40.614,26.648,40.624,26.65,40.635,26.652z"/>
</g>
<g>
<path fill="#483525" d="M40.048,26.92c-0.061,0.019-0.115,0.037-0.184,0.053C39.929,26.957,39.989,26.939,40.048,26.92z"/>
</g>
<g>
<path fill="#483525" d="M39.504,27.016c-0.028,0.001-0.05,0.01-0.079,0.01c-0.049,0-0.104-0.014-0.154-0.017
C39.351,27.017,39.429,27.017,39.504,27.016z"/>
</g>
<g>
<path fill="#483525" d="M11.114,31.203c-0.006-0.01-0.011-0.024-0.016-0.035c0,0.003,0.001,0.006,0.002,0.006
C11.106,31.185,11.11,31.194,11.114,31.203z"/>
</g>
<g>
<g>
<g>
<path fill="#483525" d="M19.718,13.417c-3.219,4.212-10.059,0.445-8.396-4.538c0.009-0.031-0.037-0.043-0.047-0.014
c-0.805,2.223,0.167,4.854,2.143,6.123c2.158,1.389,5.234,0.778,6.413-1.505C19.868,13.406,19.767,13.351,19.718,13.417z"/>
</g>
</g>
</g>
<g>
<g>
<g>
<path fill="#483525" d="M16.682,36.095c-0.624,0.56-1.113,1.319-1.274,2.179c-0.081,0.43-0.08,0.877,0.021,1.297
c0.1,0.422,0.289,0.826,0.576,1.14c-0.166-0.389-0.266-0.79-0.32-1.187c-0.053-0.4-0.051-0.801,0.014-1.197
C15.827,37.528,16.21,36.791,16.682,36.095z"/>
</g>
</g>
</g>
<g>
<g>
<g>
<path fill="#483525" d="M33.415,46.864c0.816,0.065,1.643,0.032,2.449-0.118c0.8-0.16,1.596-0.404,2.286-0.836
c-0.372,0.158-0.757,0.275-1.146,0.371c-0.391,0.102-0.784,0.176-1.18,0.221c-0.791,0.104-1.592,0.119-2.387,0.062
c-0.796-0.059-1.584-0.201-2.361-0.395c-0.775-0.202-1.537-0.465-2.289-0.768c0.703,0.401,1.453,0.731,2.229,0.98
C31.79,46.635,32.6,46.796,33.415,46.864z"/>
</g>
</g>
</g>
<g>
<g>
<g>
<path fill="#483525" d="M29.938,36.044l0.16,0.001c-0.063-0.896-0.111-1.789-0.186-2.686c-0.041-0.45-0.078-0.893-0.141-1.363
c-0.066-0.434-0.156-0.854-0.268-1.277l0.012-0.01c-0.006-0.003-0.012-0.006-0.016-0.013c-0.005-0.016-0.008-0.035-0.014-0.05
c-0.236-0.89-0.599-1.763-1.154-2.52c-0.547-0.754-1.345-1.357-2.254-1.598c-0.908-0.252-1.877-0.129-2.715,0.232
c-0.842,0.358-1.575,0.962-2.078,1.73c-0.198,0.296-0.34,0.628-0.457,0.962c-0.006,0.001-0.012,0.003-0.018,0.004l-0.034,0.103
c0.005-0.001,0.009-0.002,0.014-0.002c-0.02,0.058-0.039,0.117-0.059,0.174c-0.141,0.424-0.266,0.857-0.376,1.291
c-0.188,0.764-0.335,1.528-0.427,2.328c-0.69-0.43-1.359-0.896-1.986-1.434c0.37,0.508,0.833,0.941,1.33,1.328
c0.198,0.153,0.406,0.297,0.617,0.43c0,0.008,0,0.017-0.001,0.023h0.04c0.309,0.193,0.63,0.365,0.969,0.504
c0.58,0.248,1.187,0.418,1.791,0.576c0.604,0.159,1.215,0.289,1.824,0.417l3.644,0.773c1.211,0.269,2.404,0.542,3.586,0.93
l0.021-0.04C31.195,36.499,30.575,36.242,29.938,36.044z M28.938,33.387c-0.025,0.782-0.062,1.57-0.119,2.357
c-0.197-0.047-0.392-0.088-0.586-0.129c-1.227-0.247-2.463-0.395-3.69-0.592c-0.612-0.104-1.222-0.217-1.827-0.357
c-0.601-0.148-1.17-0.4-1.709-0.689c-0.19-0.102-0.376-0.211-0.562-0.318c-0.036-0.842,0.054-1.721,0.216-2.564
c0.083-0.436,0.19-0.86,0.317-1.283c0.029-0.094,0.058-0.188,0.088-0.276c0.008-0.001,0.016-0.001,0.023-0.001
c0.001-0.003,0.002-0.005,0.002-0.008c0.008-0.037,0.024-0.073,0.041-0.109c0.002-0.007,0.008-0.012,0.011-0.019
c-0.011,0.002-0.022,0.003-0.032,0.005c0.023-0.073,0.047-0.145,0.075-0.217c0.082-0.197,0.183-0.387,0.298-0.57
c0.926-1.461,2.869-2.251,4.49-1.727c0.81,0.252,1.475,0.836,1.93,1.54c0.349,0.534,0.585,1.14,0.748,1.765
c-0.013-0.007-0.026-0.013-0.039-0.02c0.111,0.398,0.185,0.771,0.219,1.179c0.014,0.012,0.032,0.025,0.045,0.037
c0.027,0.231,0.051,0.466,0.064,0.694C28.96,32.499,28.952,32.947,28.938,33.387z"/>
</g>
</g>
</g>
<g>
<g>
<g>
<path fill="#483525" d="M38.625,18.322c0.261,0.283,0.511,0.574,0.753,0.874c0.245,0.296,0.461,0.61,0.72,0.907
c0.515,0.592,1.146,1.085,1.86,1.427c0.713,0.341,1.498,0.526,2.288,0.566c0.396,0.015,0.792-0.008,1.185-0.066
c0.391-0.057,0.783-0.158,1.15-0.326c0.732-0.326,1.367-0.857,1.82-1.508c0.459-0.651,0.719-1.423,0.807-2.199
c0.086-0.779-0.006-1.564-0.211-2.31c0.135,0.761,0.168,1.536,0.041,2.286c-0.117,0.75-0.412,1.467-0.859,2.062
c-0.439,0.603-1.045,1.082-1.729,1.366c-0.682,0.278-1.445,0.378-2.193,0.353c-0.748-0.018-1.494-0.174-2.186-0.472
c-0.691-0.3-1.316-0.749-1.835-1.304c-0.259-0.275-0.492-0.588-0.747-0.876c-0.256-0.292-0.518-0.575-0.791-0.851
c-0.545-0.549-1.125-1.06-1.753-1.511l-0.015,0.019C37.542,17.23,38.102,17.758,38.625,18.322z"/>
</g>
</g>
</g>
<g>
<g>
<g>
<path fill="#FFFFFF" d="M43.806,36.866c-0.9-0.771-4.127-1.03-7.089,0.177c1.263-1.553,5.791-2.545,7.89-0.789
c0.58,0.485,0.725,1.412-0.115,1.869C44.63,37.818,44.338,37.321,43.806,36.866z"/>
</g>
</g>
</g>
<g opacity="0.5">
<circle fill="#FACC63" cx="78.614" cy="32.033" r="15.083"/>
</g>
<g>
<path fill="#483525" d="M94.072,32.052c0,0-0.021,0.369-0.062,1.062c-0.004,0.342-0.068,0.78-0.157,1.296
c-0.062,0.521-0.201,1.098-0.382,1.734c-0.37,1.266-0.944,2.794-1.985,4.319c-1.024,1.525-2.454,3.083-4.338,4.341
c-1.886,1.244-4.224,2.164-6.797,2.463c-0.647,0.056-1.291,0.092-1.971,0.089c-0.653-0.038-1.307-0.028-1.99-0.157
c-1.367-0.158-2.695-0.582-4-1.124c-1.303-0.555-2.519-1.346-3.658-2.252c-1.12-0.935-2.105-2.047-2.956-3.269
c-0.828-1.24-1.465-2.612-1.933-4.047c-0.44-1.455-0.646-2.939-0.687-4.493c0.024-1.452,0.215-3.026,0.642-4.469
c0.455-1.443,1.08-2.829,1.9-4.085c0.843-1.237,1.824-2.368,2.944-3.324c1.139-0.926,2.359-1.737,3.672-2.313
c2.603-1.166,5.478-1.567,8.04-1.264c2.656,0.323,4.989,1.269,6.9,2.541c1.904,1.281,3.331,2.876,4.338,4.431
c1.028,1.553,1.583,3.098,1.935,4.374c0.173,0.643,0.304,1.222,0.357,1.737c0.08,0.51,0.139,0.945,0.139,1.302
c0.03,0.71,0.047,1.089,0.047,1.089L94.072,32.052z M93.322,32.033c0,0-0.021-0.36-0.061-1.036
c-0.004-0.339-0.067-0.752-0.15-1.235c-0.057-0.488-0.19-1.035-0.363-1.641c-0.353-1.203-0.897-2.657-1.89-4.107
c-0.975-1.45-2.336-2.932-4.128-4.129c-1.785-1.181-4.039-2.058-6.442-2.339c-2.486-0.261-5.117,0.05-7.594,1.13
c-1.24,0.527-2.395,1.281-3.48,2.141c-1.066,0.89-2.003,1.948-2.813,3.11c-0.788,1.18-1.393,2.485-1.84,3.848
c-0.419,1.388-0.61,2.769-0.656,4.276c0.028,1.406,0.205,2.876,0.611,4.252c0.433,1.372,1.026,2.691,1.807,3.887
c0.803,1.177,1.736,2.255,2.802,3.165c1.085,0.88,2.245,1.655,3.495,2.202c1.245,0.533,2.541,0.96,3.831,1.122
c0.632,0.132,1.306,0.131,1.954,0.175c0.622,0.005,1.271-0.039,1.888-0.095c2.486-0.305,4.734-1.207,6.545-2.417
c1.813-1.22,3.17-2.739,4.129-4.219c0.979-1.478,1.504-2.948,1.84-4.162c0.164-0.613,0.289-1.162,0.338-1.644
c0.076-0.477,0.133-0.886,0.133-1.24c0.03-0.693,0.046-1.063,0.046-1.063L93.322,32.033z"/>
</g>
<g opacity="0.5">
<ellipse fill="#BB4F45" cx="78.614" cy="22.47" rx="2.721" ry="3.072"/>
</g>
<g opacity="0.5">
<ellipse fill="#BB4F45" cx="78.614" cy="41.674" rx="2.721" ry="3.07"/>
</g>
<g opacity="0.5">
<ellipse fill="#BB4F45" cx="69.614" cy="52.549" rx="2.721" ry="3.07"/>
</g>
<g opacity="0.5">

<ellipse transform="matrix(0.8681 0.4963 -0.4963 0.8681 29.749 -38.2995)" fill="#BB4F45" cx="86.953" cy="36.837" rx="3.071" ry="2.721"/>
</g>
<g opacity="0.5">

<ellipse transform="matrix(0.8682 0.4963 -0.4963 0.8682 22.8161 -31.2765)" fill="#BB4F45" cx="70.276" cy="27.305" rx="3.071" ry="2.722"/>
</g>
<g opacity="0.5">

<ellipse transform="matrix(0.8909 -0.4542 0.4542 0.8909 -3.0751 42.6165)" fill="#BB4F45" cx="87.172" cy="27.709" rx="3.071" ry="2.721"/>
</g>
<g opacity="0.5">

<ellipse transform="matrix(0.891 -0.4541 0.4541 0.891 -8.9058 35.7851)" fill="#BB4F45" cx="70.058" cy="36.436" rx="3.07" ry="2.722"/>
</g>
<g>
<path fill="#483525" d="M81.667,22.5c0,0-0.01,0.07-0.029,0.202c-0.033,0.139-0.016,0.31-0.113,0.588
c-0.043,0.133-0.091,0.281-0.143,0.442c-0.068,0.149-0.158,0.3-0.245,0.465c-0.195,0.318-0.472,0.639-0.832,0.92
c-0.374,0.254-0.82,0.496-1.342,0.547c-0.136,0.009-0.245,0.038-0.408,0.031l-0.379-0.034c-0.248-0.029-0.557-0.13-0.806-0.253
c-0.529-0.24-0.932-0.699-1.265-1.194c-0.33-0.512-0.476-1.123-0.535-1.741c0.029-0.353-0.016-0.559,0.08-0.911
c0.054-0.334,0.174-0.628,0.307-0.913c0.293-0.555,0.721-1.061,1.282-1.357c0.545-0.287,1.196-0.46,1.758-0.35
c0.214,0,0.555,0.133,0.825,0.229c0.253,0.125,0.47,0.271,0.663,0.43c0.374,0.334,0.637,0.705,0.808,1.058
c0.076,0.181,0.153,0.347,0.208,0.505c0.037,0.163,0.071,0.313,0.102,0.449c0.072,0.268,0.04,0.49,0.058,0.634
c0.005,0.146,0.008,0.224,0.008,0.224L81.667,22.5z M81.002,22.47c0,0-0.01-0.064-0.028-0.183
c-0.031-0.116-0.016-0.299-0.101-0.506c-0.035-0.104-0.074-0.22-0.116-0.345c-0.063-0.115-0.131-0.239-0.203-0.372
c-0.16-0.254-0.385-0.505-0.664-0.722c-0.142-0.099-0.313-0.182-0.464-0.266c-0.169-0.037-0.259-0.137-0.541-0.144
c-0.404-0.08-0.809,0.004-1.208,0.179c-0.408,0.175-0.726,0.541-1.004,0.933c-0.125,0.213-0.241,0.431-0.301,0.656
c-0.103,0.185-0.103,0.563-0.152,0.77c0.003,0.512,0.067,1.045,0.306,1.509c0.239,0.452,0.583,0.864,1.023,1.095
c0.218,0.115,0.415,0.206,0.667,0.253l0.377,0.052c0.086,0.002,0.223-0.025,0.329-0.034c0.232-0.003,0.432-0.117,0.636-0.178
c0.188-0.1,0.362-0.22,0.513-0.345c0.294-0.27,0.503-0.572,0.639-0.861c0.059-0.149,0.122-0.286,0.166-0.413
c0.027-0.128,0.052-0.246,0.075-0.352c0.06-0.197,0.03-0.43,0.046-0.552c0.005-0.133,0.007-0.204,0.007-0.204L81.002,22.47z"/>
</g>
<g>
<path fill="#483525" d="M81.667,41.704c0,0-0.01,0.07-0.029,0.202c-0.033,0.139-0.016,0.31-0.113,0.588
c-0.043,0.133-0.091,0.281-0.143,0.442c-0.069,0.149-0.158,0.3-0.246,0.465c-0.195,0.318-0.473,0.639-0.832,0.919
c-0.374,0.253-0.82,0.495-1.342,0.546c-0.136,0.009-0.245,0.038-0.408,0.03l-0.379-0.034c-0.248-0.029-0.557-0.13-0.806-0.253
c-0.529-0.24-0.932-0.699-1.265-1.194c-0.33-0.511-0.475-1.124-0.535-1.741c0.03-0.353-0.015-0.559,0.08-0.911
c0.054-0.334,0.174-0.627,0.307-0.913c0.293-0.555,0.722-1.06,1.283-1.356c0.545-0.287,1.196-0.459,1.758-0.349
c0.214,0,0.555,0.133,0.825,0.229c0.253,0.125,0.47,0.271,0.662,0.43c0.374,0.334,0.637,0.705,0.808,1.058
c0.076,0.181,0.153,0.347,0.208,0.505c0.037,0.163,0.071,0.313,0.102,0.449c0.072,0.268,0.04,0.489,0.058,0.634
c0.005,0.146,0.008,0.224,0.008,0.224L81.667,41.704z M81.002,41.674c0,0-0.01-0.064-0.028-0.183
c-0.031-0.116-0.016-0.299-0.101-0.506c-0.035-0.104-0.074-0.22-0.116-0.345c-0.063-0.115-0.131-0.239-0.203-0.372
c-0.16-0.254-0.384-0.505-0.664-0.721c-0.142-0.099-0.313-0.182-0.464-0.266c-0.169-0.037-0.259-0.137-0.54-0.144
c-0.404-0.08-0.809,0.004-1.208,0.179c-0.407,0.175-0.726,0.541-1.005,0.933c-0.125,0.213-0.241,0.431-0.302,0.656
c-0.103,0.186-0.103,0.562-0.152,0.77c0.003,0.512,0.066,1.045,0.306,1.508c0.239,0.452,0.583,0.863,1.022,1.095
c0.218,0.116,0.415,0.206,0.667,0.253l0.377,0.052c0.086,0.002,0.223-0.025,0.329-0.034c0.232-0.003,0.432-0.117,0.636-0.178
c0.189-0.099,0.362-0.22,0.513-0.345c0.294-0.27,0.504-0.571,0.639-0.86c0.059-0.149,0.122-0.285,0.166-0.413
c0.027-0.128,0.052-0.246,0.075-0.352c0.06-0.197,0.03-0.43,0.046-0.552c0.005-0.133,0.007-0.204,0.007-0.204L81.002,41.674z"/>
</g>
<g>
<path fill="#483525" d="M72.667,52.579c0,0-0.01,0.07-0.029,0.202c-0.033,0.139-0.016,0.31-0.113,0.588
c-0.043,0.133-0.091,0.281-0.143,0.442c-0.069,0.149-0.158,0.3-0.246,0.465c-0.195,0.318-0.473,0.639-0.832,0.919
c-0.374,0.253-0.82,0.495-1.342,0.546c-0.136,0.009-0.245,0.038-0.408,0.03l-0.379-0.034c-0.248-0.029-0.557-0.13-0.806-0.253
c-0.529-0.24-0.932-0.699-1.265-1.194c-0.33-0.511-0.475-1.124-0.535-1.741c0.03-0.353-0.015-0.559,0.08-0.911
c0.054-0.334,0.174-0.627,0.307-0.913c0.293-0.555,0.722-1.06,1.283-1.356c0.545-0.287,1.196-0.459,1.758-0.349
c0.214,0,0.556,0.133,0.825,0.229c0.253,0.125,0.47,0.271,0.662,0.43c0.374,0.334,0.637,0.705,0.808,1.058
c0.076,0.181,0.153,0.347,0.208,0.505c0.037,0.163,0.071,0.313,0.102,0.449c0.072,0.268,0.04,0.489,0.058,0.634
c0.005,0.146,0.008,0.224,0.008,0.224L72.667,52.579z M72.002,52.549c0,0-0.01-0.064-0.028-0.183
c-0.031-0.116-0.016-0.299-0.101-0.506c-0.035-0.104-0.074-0.22-0.116-0.345c-0.063-0.115-0.131-0.239-0.203-0.372
c-0.16-0.254-0.385-0.505-0.664-0.721c-0.142-0.099-0.313-0.182-0.464-0.266c-0.169-0.037-0.259-0.137-0.54-0.144
c-0.404-0.08-0.809,0.004-1.208,0.179c-0.407,0.175-0.726,0.541-1.005,0.933c-0.125,0.213-0.241,0.431-0.302,0.656
c-0.103,0.186-0.103,0.562-0.152,0.77c0.003,0.512,0.066,1.045,0.306,1.508c0.239,0.452,0.583,0.863,1.022,1.095
c0.218,0.116,0.415,0.206,0.667,0.253l0.377,0.052c0.086,0.002,0.223-0.025,0.329-0.034c0.232-0.003,0.432-0.117,0.636-0.178
c0.189-0.099,0.362-0.22,0.513-0.345c0.294-0.27,0.504-0.571,0.639-0.86c0.059-0.149,0.122-0.285,0.166-0.413
c0.027-0.128,0.052-0.246,0.075-0.352c0.06-0.197,0.03-0.43,0.046-0.552c0.005-0.133,0.007-0.204,0.007-0.204L72.002,52.549z"/>
</g>
<g>
<path fill="#483525" d="M85.408,39.474c0,0-0.056-0.044-0.161-0.126c-0.105-0.097-0.261-0.168-0.454-0.389
c-0.094-0.104-0.199-0.219-0.313-0.344c-0.095-0.134-0.182-0.286-0.281-0.444c-0.179-0.327-0.32-0.728-0.385-1.179
c-0.034-0.45-0.023-0.958,0.192-1.437c0.059-0.123,0.089-0.232,0.176-0.37l0.218-0.312c0.149-0.201,0.39-0.419,0.62-0.574
c0.471-0.34,1.07-0.463,1.665-0.505c0.619-0.026,1.187,0.129,1.802,0.416c0.455,0.254,1.036,0.695,1.366,1.226
c0.337,0.53,0.562,1.153,0.541,1.787c-0.021,0.615-0.194,1.266-0.57,1.7c-0.107,0.186-0.391,0.416-0.608,0.602
c-0.234,0.158-0.469,0.273-0.702,0.362c-0.475,0.159-0.928,0.203-1.319,0.176c-0.195-0.024-0.378-0.04-0.542-0.07
c-0.16-0.049-0.307-0.094-0.44-0.134c-0.268-0.07-0.445-0.208-0.579-0.264c-0.129-0.068-0.198-0.104-0.198-0.104L85.408,39.474z
M85.764,38.912c0,0,0.06,0.023,0.173,0.066c0.116,0.031,0.267,0.135,0.489,0.164c0.108,0.021,0.227,0.045,0.358,0.07
c0.131,0.002,0.273,0.005,0.424,0.008c0.3-0.013,0.629-0.083,0.956-0.218c0.156-0.074,0.314-0.182,0.462-0.271
c0.116-0.128,0.247-0.157,0.394-0.398c0.27-0.31,0.398-0.704,0.444-1.138c0.05-0.441-0.11-0.899-0.311-1.336
c-0.233-0.448-0.543-0.756-1.038-1.117c-0.397-0.221-0.926-0.453-1.437-0.468c-0.511-0.017-1.039,0.077-1.458,0.344
c-0.209,0.132-0.385,0.258-0.551,0.453l-0.232,0.301c-0.045,0.074-0.089,0.206-0.134,0.303c-0.112,0.203-0.113,0.433-0.161,0.641
c-0.007,0.213,0.011,0.424,0.045,0.617c0.088,0.389,0.246,0.721,0.429,0.982c0.1,0.125,0.187,0.248,0.276,0.349
c0.098,0.087,0.187,0.168,0.268,0.24c0.141,0.15,0.358,0.24,0.456,0.314c0.113,0.07,0.174,0.108,0.174,0.108L85.764,38.912z"/>
</g>
<g>
<path fill="#483525" d="M68.738,29.941c0,0-0.056-0.044-0.161-0.126c-0.104-0.097-0.261-0.168-0.454-0.39
c-0.094-0.104-0.199-0.219-0.313-0.344c-0.096-0.134-0.182-0.286-0.281-0.444c-0.179-0.327-0.32-0.728-0.385-1.179
c-0.034-0.45-0.023-0.958,0.192-1.437c0.06-0.123,0.089-0.232,0.176-0.369l0.218-0.312c0.149-0.201,0.39-0.419,0.62-0.574
c0.471-0.34,1.07-0.463,1.665-0.506c0.619-0.026,1.187,0.129,1.802,0.415c0.455,0.254,1.036,0.695,1.366,1.226
c0.337,0.53,0.562,1.153,0.541,1.787c-0.021,0.615-0.194,1.266-0.57,1.7c-0.106,0.186-0.391,0.416-0.608,0.602
c-0.234,0.157-0.469,0.273-0.702,0.362c-0.475,0.159-0.928,0.203-1.319,0.176c-0.195-0.024-0.378-0.039-0.542-0.07
c-0.16-0.049-0.307-0.094-0.44-0.134c-0.268-0.07-0.445-0.208-0.579-0.264l-0.213-0.112L68.738,29.941z M69.093,29.378
L69.093,29.378c0.001,0,0.061,0.023,0.174,0.066c0.116,0.031,0.267,0.135,0.489,0.164c0.108,0.021,0.227,0.045,0.358,0.07
c0.131,0.002,0.273,0.005,0.424,0.008c0.3-0.013,0.63-0.083,0.956-0.218c0.156-0.074,0.314-0.182,0.462-0.271
c0.116-0.128,0.247-0.157,0.394-0.398c0.27-0.311,0.398-0.705,0.444-1.138c0.05-0.441-0.109-0.899-0.311-1.335
c-0.233-0.448-0.543-0.756-1.038-1.118c-0.397-0.22-0.926-0.452-1.437-0.467c-0.511-0.017-1.039,0.078-1.458,0.344
c-0.209,0.132-0.385,0.258-0.551,0.454l-0.232,0.301c-0.045,0.074-0.089,0.206-0.134,0.303c-0.113,0.203-0.113,0.433-0.161,0.641
c-0.007,0.213,0.011,0.424,0.045,0.617c0.088,0.389,0.246,0.721,0.43,0.982c0.1,0.125,0.187,0.248,0.276,0.349
c0.098,0.087,0.187,0.168,0.268,0.24c0.141,0.15,0.358,0.24,0.456,0.314C69.018,29.332,69.066,29.361,69.093,29.378z"/>
</g>
<g>
<path fill="#483525" d="M88.528,30.444c0,0-0.067,0.023-0.193,0.066c-0.139,0.034-0.283,0.127-0.575,0.167
c-0.139,0.022-0.292,0.047-0.459,0.073c-0.164,0.007-0.339-0.004-0.525-0.008c-0.372-0.029-0.784-0.131-1.197-0.324
c-0.395-0.218-0.814-0.506-1.097-0.948c-0.07-0.117-0.146-0.201-0.212-0.35l-0.142-0.353c-0.087-0.234-0.137-0.556-0.141-0.833
c-0.026-0.58,0.199-1.148,0.489-1.669c0.306-0.526,0.785-0.934,1.309-1.268c0.328-0.134,0.491-0.268,0.848-0.342
c0.322-0.104,0.638-0.13,0.953-0.141c0.628,0.009,1.272,0.161,1.791,0.527c0.503,0.355,0.953,0.858,1.109,1.407
c0.098,0.191,0.134,0.556,0.171,0.839c0.003,0.282-0.028,0.542-0.082,0.785c-0.127,0.485-0.339,0.888-0.576,1.2
c-0.127,0.15-0.24,0.294-0.356,0.415c-0.129,0.107-0.247,0.206-0.353,0.295c-0.206,0.186-0.418,0.258-0.538,0.34l-0.21,0.117
L88.528,30.444z M88.252,29.839L88.252,29.839c0.001-0.001,0.053-0.039,0.151-0.109c0.09-0.08,0.259-0.15,0.405-0.32
c0.077-0.079,0.162-0.166,0.255-0.261c0.08-0.105,0.153-0.228,0.239-0.35c0.153-0.258,0.276-0.572,0.341-0.919
c0.024-0.171,0.02-0.362,0.026-0.535c-0.044-0.167,0.004-0.292-0.117-0.547c-0.113-0.398-0.371-0.719-0.708-0.996
c-0.341-0.284-0.812-0.401-1.288-0.471c-0.247-0.015-0.493-0.02-0.721,0.029c-0.212-0.007-0.548,0.163-0.755,0.215
c-0.455,0.235-0.9,0.533-1.205,0.958c-0.294,0.418-0.504,0.912-0.511,1.409c-0.004,0.247,0.005,0.463,0.077,0.709l0.125,0.359
c0.037,0.078,0.123,0.187,0.18,0.278c0.108,0.205,0.3,0.332,0.448,0.486c0.174,0.123,0.36,0.223,0.54,0.301
c0.374,0.139,0.738,0.189,1.057,0.179c0.16-0.016,0.31-0.021,0.443-0.04c0.127-0.034,0.243-0.065,0.348-0.093
c0.203-0.036,0.397-0.168,0.513-0.209C88.172,29.876,88.223,29.852,88.252,29.839z"/>
</g>
<g>
<path fill="#483525" d="M71.42,39.167c0,0-0.067,0.023-0.194,0.066c-0.139,0.034-0.283,0.127-0.575,0.167
c-0.139,0.022-0.292,0.046-0.459,0.073c-0.164,0.007-0.339-0.004-0.525-0.008c-0.372-0.029-0.784-0.131-1.197-0.324
c-0.395-0.218-0.814-0.506-1.096-0.948c-0.07-0.117-0.146-0.201-0.212-0.35L67.02,37.49c-0.086-0.235-0.137-0.556-0.14-0.833
c-0.027-0.58,0.199-1.148,0.49-1.669c0.317-0.532,0.758-0.922,1.335-1.28c0.462-0.241,1.149-0.485,1.774-0.471
c0.628,0.009,1.272,0.162,1.791,0.527c0.503,0.355,0.952,0.857,1.109,1.408c0.097,0.191,0.134,0.556,0.17,0.839
c0.003,0.282-0.028,0.542-0.083,0.785c-0.128,0.484-0.339,0.888-0.576,1.2c-0.127,0.15-0.24,0.294-0.356,0.415
c-0.129,0.107-0.247,0.206-0.353,0.295c-0.206,0.186-0.418,0.258-0.538,0.34l-0.21,0.117L71.42,39.167z M71.143,38.561
L71.143,38.561c0.001-0.001,0.053-0.039,0.151-0.109c0.09-0.08,0.259-0.15,0.405-0.32c0.077-0.079,0.162-0.166,0.255-0.261
c0.074-0.108,0.154-0.225,0.239-0.35c0.153-0.258,0.276-0.572,0.341-0.919c0.024-0.171,0.02-0.362,0.026-0.535
c-0.044-0.167,0.005-0.292-0.117-0.547c-0.112-0.397-0.371-0.719-0.708-0.996c-0.341-0.283-0.812-0.401-1.288-0.472
c-0.503-0.051-0.93,0.039-1.503,0.255c-0.401,0.211-0.886,0.527-1.178,0.946c-0.294,0.418-0.505,0.912-0.511,1.408
c-0.005,0.247,0.005,0.463,0.077,0.709l0.125,0.359c0.037,0.078,0.123,0.188,0.18,0.278c0.108,0.205,0.3,0.332,0.447,0.486
c0.174,0.123,0.36,0.223,0.54,0.301c0.374,0.139,0.738,0.189,1.057,0.179c0.16-0.016,0.31-0.021,0.443-0.04
c0.127-0.034,0.243-0.065,0.348-0.093c0.203-0.036,0.397-0.168,0.513-0.209C71.064,38.598,71.114,38.575,71.143,38.561z"/>
</g>
<g>
<path fill="#483525" d="M101.545,59.073H56.336H55.96l0.001-0.375L56.126,4.7l0.001-0.21h0.21l44.833,0.022h0.187l0.001,0.188
L101.545,59.073z M100.795,58.323L100.981,4.7l0.188,0.188L56.336,4.91l0.21-0.21l0.165,53.998l-0.375-0.375H100.795z"/>
</g>
<g>
<g>
<path fill="#483525" d="M68.083,8.009c0.221,1.707,0.113,3.328,0.228,5.02c-0.121,0.398-0.562,0.178-0.626-0.136
c0.015-0.653-0.078-3.74-0.071-4.394c-0.533,0.035-1.01,0.063-1.563,0.028c0.02,0.754,0.092,3.754,0.12,4.501
c-0.12,0.398-0.562,0.178-0.625-0.136c0.057-1.514,0.014-3.37,0.106-4.885h2.431V8.009z"/>
<path fill="#483525" d="M71.352,12.716c-0.369,0.149-1.379,0.37-1.792,0.385c-0.54,0.007-0.882-0.591-0.98-1.067
c-0.149-0.753-0.157-1.571,0.306-2.183c0.213-0.291,1.379-0.611,1.799-0.199c0.369,0.363,0.434,0.825,0.1,1.174
c-0.413,0.27-1.323,0.512-1.877,0.533c0.021,0.462,0.099,0.896,0.384,1.151c0.27,0.249,1.87-0.092,1.998-0.1L71.352,12.716z
M70.478,10.355c-0.093-0.427-0.242-0.562-0.875-0.306c-0.37,0.156-0.633,0.462-0.668,0.875
C69.348,10.804,70.08,10.548,70.478,10.355z"/>
<path fill="#483525" d="M74.054,9.638c0.05,1.116,0.106,2.239,0.156,3.363c-0.121,0.398-0.562,0.178-0.625-0.136
c0.014-0.412,0.063-2.439,0.085-2.851c-0.483-0.029-0.96,0.014-1.443-0.05c0.035,0.434,0.035,2.488,0.063,2.922
c-0.12,0.398-0.562,0.178-0.625-0.135c0.05-1.046-0.036-2.091,0.05-3.136L74.054,9.638z"/>
<path fill="#483525" d="M77.217,9.638c0.05,1.116,0.106,2.239,0.156,3.363c-0.121,0.398-0.562,0.178-0.626-0.136
c0.015-0.412,0.064-2.439,0.086-2.851c-0.483-0.029-0.96,0.014-1.443-0.05c0.035,0.434,0.035,2.488,0.063,2.922
c-0.12,0.398-0.562,0.178-0.625-0.135c0.05-1.046-0.036-2.091,0.05-3.136L77.217,9.638z"/>
<path fill="#483525" d="M80.501,12.716c-0.369,0.149-1.379,0.37-1.792,0.385c-0.54,0.007-0.882-0.591-0.981-1.067
c-0.149-0.753-0.157-1.571,0.306-2.183c0.213-0.291,1.379-0.611,1.799-0.199c0.369,0.363,0.434,0.825,0.1,1.174
c-0.413,0.27-1.323,0.512-1.877,0.533c0.021,0.462,0.099,0.896,0.384,1.151c0.27,0.249,1.87-0.092,1.998-0.1L80.501,12.716z
M79.627,10.355c-0.093-0.427-0.242-0.562-0.875-0.306c-0.37,0.156-0.633,0.462-0.668,0.875
C78.496,10.804,79.228,10.548,79.627,10.355z"/>
<path fill="#483525" d="M81.197,9.502c0,0.071,0,0.143,0.007,0.214c0.775-0.483,1.472-0.199,1.849,0.419
c0.412,0.648,0.277,1.799,0.015,2.482c-0.271,0.712-1.188,0.81-1.764,0.47c0.015,0.598,0.028,1.202,0.05,1.806
c-0.121,0.398-0.561,0.178-0.626-0.135c0.05-1.777,0.107-3.548,0.156-5.326L81.197,9.502z M81.282,12.41
c0.228,0.463,1.074,0.561,1.315-0.128c0.214-0.597,0.37-1.806-0.135-2.268c-0.199-0.192-1.103-0.136-1.202,0.156L81.282,12.41z"/>
<path fill="#483525" d="M85.071,9.51c0.945,0.412,1.208,1.656,0.846,2.837c-0.113,0.369-0.618,0.988-1.116,0.939
c-0.377-0.043-0.882-0.334-1.088-0.654c-0.52-0.804-0.149-2.39,0.377-3.036C84.296,9.346,84.758,9.339,85.071,9.51z
M83.969,11.692c-0.015,0.711,0.718,1.493,1.259,0.782c0.69-0.903,0.448-2.596-0.583-2.717
C84.118,9.815,83.954,11.259,83.969,11.692z"/>
<path fill="#483525" d="M88.796,9.638c0.05,1.116,0.106,2.239,0.156,3.363c-0.121,0.398-0.562,0.178-0.625-0.136
c0.014-0.412,0.035-0.817,0.057-1.229c-0.483-0.029-0.96,0.014-1.443-0.05c0.035,0.434,0.063,0.867,0.092,1.301
c-0.12,0.398-0.562,0.178-0.625-0.135c0.05-1.046-0.036-2.091,0.05-3.136l0.312,0.071c0.05,0.512,0.1,1.03,0.143,1.55
c0.568,0.021,1.017,0.106,1.507,0.043c-0.007,0,0.05-1.593,0.064-1.714L88.796,9.638z"/>
<path fill="#483525" d="M90.218,12.823c-0.121,0.398-0.562,0.178-0.626-0.136c0.043-1.01,0.065-2.119,0.1-3.108l0.32-0.057
c0.149,0.789,0.064,1.272,0.156,2.275c0.47-0.696,1.209-1.536,1.593-2.232c0.342-0.071,0.42-0.028,0.441,0.533
c0.042,0.867,0.092,1.983,0.135,2.858c-0.121,0.398-0.562,0.178-0.626-0.135c0.028-0.654,0.057-1.729,0.093-2.39
c-0.505,0.576-1.223,1.408-1.6,2.076C90.204,12.616,90.211,12.724,90.218,12.823z"/>
</g>
</g>
<g>
<g>
<path fill="#483525" d="M74.886,52.279c0.583-0.05,1.159-0.106,1.742-0.156c0.405,0.028,0.611,0.576,0.135,0.626
c-0.604-0.05-1.201-0.106-1.806-0.156L74.886,52.279z"/>
<path fill="#483525" d="M82.671,50.872c-0.832,0.44-1.735,0.881-1.928,1.862c1.245-0.824,2.34,1.358,1.835,2.304
c-0.704,1.287-2.546,0.74-2.496-0.683c0.071-1.656,0.206-3.107,2.475-3.797L82.671,50.872z M82.123,54.711
c0.228-0.412-0.299-1.777-0.96-1.685c-0.598,0-0.576,0.555-0.576,1.279C80.552,55.472,81.746,55.643,82.123,54.711z"/>
<path fill="#483525" d="M88.627,52.045c0.05,1.095-0.007,2.468,0.043,3.562c-0.64,0.021-2.809,0.021-3.541-0.021
c0.057-1.06,0.035-2.659,0.128-3.719l0.312,0.071c0.086,0.995,0.065,2.218,0.107,3.221c0.277-0.021,0.797-0.007,1.074-0.021
c0.05-0.967-0.036-2.232,0.05-3.207l0.312,0.071c0.078,0.938,0.065,2.169,0.1,3.114c0.277-0.014,0.719,0,0.996-0.014
c0.042-0.967,0.057-2.162,0.106-3.129L88.627,52.045z"/>
<path fill="#483525" d="M88.768,52.095c0.981-0.057,1.956-0.106,2.93-0.156c0.398,0.028,0.604,0.562,0.128,0.611l-1.301-0.065
c0.063,0.988,0.014,1.978,0.063,2.973c-0.12,0.384-0.547,0.178-0.611-0.128c0.057-0.953,0.114-1.913,0.199-2.865L88.832,52.4
L88.768,52.095z"/>
<path fill="#483525" d="M92.443,55.479c-0.292-0.427-0.086-1.046,0.427-0.619C93.176,55.302,92.912,55.835,92.443,55.479z"/>
</g>
</g>
<g>
<circle fill="#F4F5F5" cx="77.86" cy="23.749" r="0.641"/>
</g>
<g>
<circle fill="#F4F5F5" cx="68.61" cy="37.124" r="0.641"/>
</g>
<g>
<circle fill="#F4F5F5" cx="77.61" cy="40.458" r="0.641"/>
</g>
<g>
<circle fill="#F4F5F5" cx="77.766" cy="21.303" r="0.516"/>
</g>
<g>
<circle fill="#F4F5F5" cx="77.57" cy="43.198" r="0.516"/>
</g>
<g>
<circle fill="#F4F5F5" cx="71.558" cy="36.594" r="0.516"/>
</g>
<g>
<circle fill="#F4F5F5" cx="69.766" cy="35.012" r="0.516"/>
</g>
<g>
<circle fill="#F4F5F5" cx="88.974" cy="27.678" r="0.516"/>
</g>
<g>
<circle fill="#F4F5F5" cx="86.119" cy="28.198" r="0.516"/>
</g>
<g>
<circle fill="#F4F5F5" cx="71.119" cy="28.781" r="0.516"/>
</g>
<g>
<path fill="#F4F5F5" d="M80.169,22.313c-0.019-0.098-0.052-0.188-0.078-0.283c-0.102-0.192-0.298-0.327-0.531-0.327
c-0.337,0-0.609,0.272-0.609,0.609c0,0.338,0.272,0.609,0.609,0.609S80.168,22.651,80.169,22.313z"/>
</g>
<g>
<path fill="#F4F5F5" d="M87.711,26.376c-0.019-0.098-0.052-0.188-0.078-0.283c-0.102-0.192-0.298-0.327-0.531-0.327
c-0.337,0-0.609,0.272-0.609,0.609c0,0.338,0.272,0.609,0.609,0.609S87.71,26.714,87.711,26.376z"/>
</g>
<g>
<path fill="#F4F5F5" d="M71.1,26.568c-0.019-0.098-0.052-0.188-0.078-0.283c-0.102-0.192-0.298-0.327-0.531-0.327
c-0.337,0-0.609,0.272-0.609,0.609c0,0.338,0.272,0.609,0.609,0.609C70.827,27.177,71.099,26.906,71.1,26.568z"/>
</g>
<g>
<path fill="#F4F5F5" d="M80.059,41.984c-0.019-0.098-0.052-0.188-0.078-0.283c-0.103-0.192-0.298-0.327-0.531-0.327
c-0.337,0-0.609,0.272-0.609,0.609c0,0.338,0.272,0.609,0.609,0.609C79.786,42.593,80.058,42.322,80.059,41.984z"/>
</g>
<g>
<path fill="#F4F5F5" d="M86.601,35.817c-0.019-0.098-0.052-0.188-0.078-0.283c-0.103-0.192-0.298-0.327-0.531-0.327
c-0.337,0-0.609,0.272-0.609,0.609c0,0.338,0.272,0.609,0.609,0.609C86.328,36.426,86.6,36.155,86.601,35.817z"/>
</g>
<g>
<path fill="#F4F5F5" d="M87.434,38.317c-0.019-0.098-0.052-0.188-0.078-0.283c-0.103-0.192-0.298-0.327-0.531-0.327
c-0.337,0-0.609,0.272-0.609,0.609c0,0.338,0.272,0.609,0.609,0.609C87.161,38.926,87.433,38.655,87.434,38.317z"/>
</g>
<g>
<path fill="#F4F5F5" d="M70.934,51.901c-0.019-0.098-0.052-0.188-0.078-0.283c-0.103-0.192-0.298-0.327-0.531-0.327
c-0.337,0-0.609,0.272-0.609,0.609c0,0.338,0.272,0.609,0.609,0.609S70.933,52.239,70.934,51.901z"/>
</g>
<g>
<path fill="#F4F5F5" d="M69.934,54.234c-0.019-0.098-0.052-0.188-0.078-0.283c-0.103-0.192-0.298-0.327-0.531-0.327
c-0.337,0-0.609,0.272-0.609,0.609c0,0.338,0.272,0.609,0.609,0.609S69.933,54.572,69.934,54.234z"/>
</g>
<g>
<path fill="#483525" d="M32.912,89.308c0,0,0.19,0.055,0.469,0.256c0.29,0.184,0.668,0.505,1.046,0.949
c0.388,0.437,0.785,0.996,1.13,1.63c0.168,0.32,0.366,0.641,0.522,0.985c0.159,0.343,0.321,0.692,0.483,1.041
c0.317,0.702,0.606,1.37,0.938,1.949c0.329,0.578,0.735,1.013,1.129,1.203c0.388,0.203,0.778,0.17,1.05,0.102
c0.274-0.066,0.434-0.128,0.434-0.128l0.029-0.011c0.193-0.075,0.41,0.021,0.484,0.214c0.072,0.187-0.017,0.397-0.198,0.478
c0,0-0.048,0.021-0.139,0.061c-0.094,0.035-0.219,0.109-0.405,0.16c-0.185,0.053-0.415,0.105-0.698,0.109
c-0.28,0.004-0.607-0.051-0.928-0.192c-0.648-0.293-1.15-0.896-1.53-1.541c-0.396-0.643-0.655-1.393-0.939-2.079
c-0.145-0.343-0.289-0.687-0.432-1.025c-0.139-0.34-0.318-0.651-0.468-0.965c-0.152-0.314-0.305-0.612-0.467-0.885
c-0.146-0.284-0.291-0.548-0.44-0.781c-0.279-0.481-0.536-0.87-0.735-1.131C33.053,89.446,32.912,89.308,32.912,89.308z"/>
</g>
<g>
<path fill="#483525" d="M26.541,50.24c0.159,0.523,0.19,1.011,0.104,1.542c-0.085,0.521-0.329,1.048-0.704,1.454
c-0.782,0.812-1.822,1.067-2.746,1.185c-0.969,0.095-1.749,0.057-2.579,0.183c-0.813,0.102-1.581,0.314-2.276,0.649
c-0.692,0.341-1.302,0.828-1.808,1.436c-0.513,0.6-0.914,1.318-1.251,2.069c-0.671,1.512-1.061,3.182-1.345,4.863
c-0.14,0.843-0.248,1.694-0.335,2.549c-0.095,0.86-0.151,1.702-0.224,2.586c-0.174,1.774-0.463,3.479-0.721,5.201
c-0.258,1.718-0.531,3.431-0.728,5.148c-0.096,0.858-0.179,1.718-0.208,2.575c-0.023,0.851-0.029,1.724,0.178,2.513v0.001
l-0.457-0.006c0.227-0.703,0.559-1.351,1.078-1.924l0.001-0.001l0.623-0.698l-0.042,0.98c-0.004,0.105,0,0.249,0.009,0.376
c0.012,0.131,0.026,0.263,0.049,0.394c0.044,0.262,0.106,0.521,0.194,0.771c0.169,0.503,0.423,0.972,0.737,1.393l0.001,0.001
l-0.779,0.202c0.01-0.084,0.019-0.112,0.029-0.168l0.035-0.134c0.024-0.089,0.057-0.168,0.086-0.252
c0.067-0.159,0.138-0.316,0.223-0.46c0.163-0.296,0.365-0.557,0.573-0.81l0.001-0.001l0.269-0.307l0.363,0.223
c0.697,0.428,1.453,0.832,2.201,1.217c0.756,0.378,1.519,0.744,2.295,1.083c1.55,0.68,3.132,1.297,4.745,1.818
c0.4,0.14,0.807,0.259,1.213,0.381c0.407,0.117,0.81,0.253,1.221,0.356c0.82,0.215,1.639,0.438,2.47,0.61
c0.825,0.198,1.662,0.341,2.497,0.491c0.835,0.153,1.679,0.241,2.519,0.366l-0.068,0.638c-0.853-0.111-1.711-0.185-2.56-0.326
c-0.849-0.138-1.7-0.268-2.541-0.454c-0.846-0.159-1.68-0.371-2.517-0.575c-0.42-0.097-0.83-0.227-1.246-0.339
c-0.415-0.116-0.83-0.23-1.239-0.365c-1.648-0.5-3.266-1.099-4.856-1.763c-0.796-0.331-1.581-0.69-2.36-1.063
c-0.778-0.384-1.538-0.771-2.305-1.224l0.631-0.084l-0.001,0.001c-0.186,0.194-0.369,0.394-0.511,0.613
c-0.076,0.108-0.137,0.219-0.195,0.331c-0.023,0.055-0.053,0.113-0.072,0.167l-0.029,0.08c-0.005,0.017-0.017,0.061-0.016,0.051
l-0.779,0.202l-0.001-0.001c-0.344-0.512-0.611-1.076-0.777-1.667c-0.086-0.294-0.142-0.596-0.178-0.9
c-0.018-0.152-0.028-0.305-0.033-0.459c-0.002-0.158-0.002-0.301,0.015-0.48l0.581,0.282l-0.001,0.001
c-0.462,0.411-0.844,0.989-1.101,1.582l-0.305,0.704l-0.152-0.71v-0.001c-0.272-0.89-0.293-1.781-0.31-2.661
c-0.008-0.882,0.04-1.758,0.1-2.631c0.124-1.746,0.323-3.48,0.54-5.206c0.208-1.723,0.447-3.458,0.563-5.15
c0.046-0.851,0.077-1.745,0.147-2.617c0.07-0.877,0.166-1.753,0.294-2.628c0.263-1.747,0.63-3.503,1.338-5.189
c0.358-0.838,0.796-1.666,1.399-2.403c0.592-0.742,1.352-1.38,2.215-1.822c0.866-0.437,1.805-0.664,2.715-0.778
c0.894-0.123,1.861-0.113,2.624-0.155c0.78-0.057,1.542-0.26,2-0.709c0.474-0.41,0.635-1.181,0.517-1.87L26.541,50.24z"/>
</g>
<g>
<path fill="#483525" d="M34.913,51.059c0.015-0.005-0.141,0.04-0.422,0.192c-0.272,0.147-0.688,0.422-0.92,0.876
c-0.246,0.429-0.162,1.119,0.359,1.798c0.432,0.59,1.415,0.765,2.603,0.806c1.169,0.067,2.613,0.133,3.982,0.839
c1.384,0.659,2.472,1.943,3.242,3.256c1.558,2.54,3.142,5.297,4.919,7.904c0.896,1.295,1.858,2.545,2.948,3.606
c1.138,1.008,2.381,1.953,3.641,2.66c1.266,0.713,2.586,1.293,3.793,1.98c1.194,0.692,2.295,1.418,3.267,2.132
c0.981,0.697,1.837,1.383,2.599,1.983c0.759,0.6,1.42,1.123,1.965,1.554c1.094,0.853,1.719,1.341,1.719,1.341l-0.3,0.435
c0,0-0.67-0.435-1.842-1.195c-1.167-0.767-2.777-1.949-4.724-3.288c-0.965-0.678-2.048-1.336-3.224-2.004
c-1.165-0.669-2.462-1.311-3.732-2.168c-0.637-0.417-1.242-0.898-1.866-1.37c-0.61-0.483-1.199-0.963-1.817-1.503
c-1.186-1.093-2.189-2.363-3.15-3.645c-1.916-2.572-3.667-5.235-5.294-7.733c-0.756-1.231-1.679-2.171-2.767-2.724
c-1.081-0.561-2.283-0.731-3.471-0.872c-0.595-0.075-1.193-0.154-1.788-0.334c-0.589-0.173-1.178-0.529-1.534-1.027
c-0.336-0.449-0.573-0.916-0.677-1.436c-0.104-0.516-0.019-1.043,0.157-1.448c0.377-0.815,0.926-1.19,1.258-1.448
c0.35-0.245,0.57-0.341,0.583-0.348L34.913,51.059z"/>
</g>
<g>
<path fill="#483525" d="M37.618,58.475c1.672,1.427,3.086,3.156,4.283,5.022c0.592,0.938,1.14,1.911,1.597,2.929
c0.245,0.503,0.444,1.025,0.65,1.546c0.208,0.521,0.362,1.06,0.545,1.592l0,0l0.041,0.145l-0.052,0.162
c-0.968,3.004-1.778,6.09-2.418,9.19c-0.309,1.553-0.579,3.114-0.77,4.681c-0.078,0.784-0.179,1.568-0.21,2.353
c-0.016,0.392-0.06,0.785-0.052,1.176l-0.007,1.174l-1,0.026l0.002-1.219c-0.009-0.408,0.033-0.809,0.048-1.214
c0.029-0.81,0.128-1.611,0.205-2.415c0.188-1.602,0.455-3.189,0.762-4.766c0.637-3.153,1.434-6.253,2.409-9.328l-0.011,0.306l0,0
c-0.133-0.518-0.237-1.047-0.395-1.561c-0.156-0.514-0.305-1.033-0.501-1.535c-0.359-1.018-0.812-2.004-1.313-2.967
C40.415,61.854,39.164,60.033,37.618,58.475z"/>
</g>
<g>
<path fill="#483525" d="M20.168,89.427l-0.984-0.174c0.204-1.152,0.004-2.409,0.002-2.422l0.987-0.16
C20.183,86.729,20.401,88.109,20.168,89.427z"/>
</g>
<g>
<path fill="#483525" d="M19.638,32.77c0,0,0.599-0.078,1.498-0.195c0.449-0.058,0.974-0.126,1.536-0.199
c0.57-0.028,1.177-0.057,1.785-0.086c0.611-0.039,1.222-0.055,1.792-0.032c0.571,0.012,1.106,0.013,1.564,0.032
c0.918,0.066,1.53,0.11,1.53,0.11l-0.15,0.989c0,0-0.586-0.104-1.465-0.259c-0.443-0.065-0.963-0.12-1.52-0.189
c-0.558-0.081-1.153-0.127-1.75-0.15c-0.599-0.033-1.199-0.067-1.761-0.098c-0.566,0.014-1.095,0.028-1.548,0.039
C20.242,32.754,19.638,32.77,19.638,32.77z"/>
</g>
<g>
<path fill="#483525" d="M36.623,30.311c0,0,0.251,0.014,0.665,0.084c0.411,0.049,0.938,0.16,1.453,0.298
c0.258,0.066,0.517,0.114,0.75,0.214c0.233,0.087,0.45,0.167,0.636,0.237c0.367,0.137,0.612,0.229,0.612,0.229
s-0.26-0.031-0.651-0.078c-0.193-0.023-0.417-0.049-0.658-0.078c-0.236-0.041-0.499-0.026-0.756-0.029
c-0.515-0.012-1.022,0.005-1.393,0.05c-0.365,0.023-0.634,0.072-0.634,0.072L36.623,30.311z"/>
</g>
<g>
<circle fill="#483525" cx="58.292" cy="6.969" r="0.562"/>
</g>
<g>
<circle fill="#483525" cx="99.164" cy="6.741" r="0.562"/>
</g>
<g>
<g>
<path fill="#483525" d="M74.83,94.306c-0.621,0-1.812-0.146-3.255-1.049l0.529-0.848c1.733,1.083,2.991,0.884,3.005,0.88
l0.185,0.983C75.273,94.276,75.109,94.306,74.83,94.306z"/>
<path fill="#483525" d="M73.754,95.65c-0.62,0-1.811-0.146-3.254-1.049l0.529-0.848c1.733,1.083,2.988,0.882,3.004,0.88
l0.185,0.983C74.198,95.621,74.034,95.65,73.754,95.65z"/>
<path fill="#483525" d="M72.127,96.588c-0.203,0-0.423-0.022-0.658-0.067c-1.128-0.217-3.188-0.877-3.757-1.983
c-0.131-0.256-0.179-0.521-0.143-0.782c-0.204-0.209-0.449-0.543-0.503-0.979c-0.034-0.271-0.001-0.667,0.309-1.097
c-0.005-0.28,0.05-0.74,0.396-1.12c0.386-0.424,0.994-0.601,1.808-0.529c0.274,0.024,0.478,0.268,0.453,0.543
c-0.025,0.275-0.278,0.468-0.543,0.453c-0.48-0.042-0.816,0.028-0.978,0.205c-0.177,0.194-0.13,0.51-0.13,0.513
c0.029,0.152-0.015,0.309-0.117,0.425c-0.232,0.262-0.212,0.429-0.205,0.483c0.03,0.248,0.295,0.477,0.358,0.521
c0.202,0.137,0.275,0.4,0.173,0.622c-0.046,0.1-0.042,0.179,0.012,0.284c0.274,0.534,1.646,1.188,3.055,1.459
c0.591,0.114,0.846,0.012,0.946-0.06c0.102-0.071,0.118-0.165,0.12-0.175c0.04-0.252,0.27-0.484,0.521-0.446
c0.388,0.01,0.658-0.062,0.841-0.238c0.279-0.269,0.287-0.701,0.287-0.705c-0.002-0.225,0.145-0.423,0.358-0.485
c0.321-0.095,0.528-0.245,0.634-0.461c0.2-0.411-0.005-0.967-0.007-0.973c-0.102-0.257,0.023-0.547,0.28-0.649
c0.258-0.1,0.547,0.023,0.649,0.28c0.039,0.098,0.367,0.977-0.024,1.78c-0.134,0.275-0.401,0.629-0.928,0.863
c-0.057,0.301-0.199,0.727-0.557,1.07c-0.312,0.3-0.716,0.472-1.203,0.511c-0.073,0.136-0.184,0.282-0.35,0.41
C72.943,96.478,72.575,96.588,72.127,96.588z"/>
<g>
<path fill="#483525" d="M71.452,90.147c0,0-0.029-0.091-0.08-0.251c-0.027-0.075-0.052-0.188-0.096-0.276
c-0.053-0.06-0.11-0.128-0.164-0.209c-0.026-0.043-0.053-0.089-0.08-0.135c-0.051-0.062-0.104-0.126-0.158-0.191
c-0.105-0.127-0.216-0.26-0.33-0.398c-0.115-0.137-0.23-0.311-0.348-0.469c-0.123-0.155-0.228-0.336-0.324-0.524
c-0.11-0.173-0.188-0.375-0.237-0.593c-0.077-0.202-0.047-0.432-0.031-0.639c-0.001-0.211,0.134-0.38,0.191-0.549
c0.07-0.168,0.205-0.275,0.292-0.397c0.174-0.249,0.402-0.363,0.527-0.477c0.133-0.103,0.21-0.162,0.21-0.162
s-0.057,0.078-0.156,0.215c-0.086,0.144-0.264,0.313-0.378,0.566c-0.054,0.125-0.157,0.244-0.181,0.392
c-0.012,0.147-0.1,0.29-0.058,0.443c0.025,0.15,0.024,0.298,0.119,0.442c0.053,0.148,0.13,0.293,0.249,0.431
c0.098,0.142,0.203,0.28,0.334,0.405c0.127,0.128,0.231,0.254,0.365,0.375c0.132,0.122,0.26,0.239,0.381,0.351
c0.058,0.054,0.115,0.106,0.17,0.157c0.066,0.076,0.13,0.15,0.191,0.22c0.119,0.147,0.222,0.288,0.311,0.413
c0.064,0.116,0.088,0.204,0.124,0.283c0.063,0.155,0.1,0.243,0.1,0.243L71.452,90.147z"/>
</g>
<g>
<path fill="#483525" d="M66.323,83.469c-0.294,0.169-0.503,0.399-0.7,0.649c-0.184,0.251-0.359,0.508-0.443,0.79
c-0.103,0.274-0.132,0.551-0.128,0.815c0.031,0.132,0.037,0.262,0.075,0.387c0.056,0.124,0.092,0.248,0.153,0.367l0.212,0.351
l0.279,0.324c0.172,0.226,0.424,0.408,0.63,0.618c0.247,0.182,0.481,0.377,0.738,0.551l0.802,0.488l0.151,0.092l0.068,0.144
c0.126,0.268,0.296,0.557,0.47,0.812c0.18,0.254,0.358,0.51,0.561,0.707c0.092,0.124,0.201,0.175,0.297,0.28l0.399,0.297
c0.123,0.112,0.239,0.194,0.364,0.292c0.125,0.118,0.261,0.16,0.447,0.283c-0.151,0.086-0.371,0.2-0.567,0.191
c-0.204,0.004-0.411-0.023-0.586-0.083c-0.192-0.062-0.334-0.118-0.497-0.199c-0.174-0.102-0.382-0.203-0.517-0.338
c-0.307-0.26-0.545-0.553-0.748-0.862c-0.202-0.315-0.377-0.618-0.538-0.97l0.219,0.236l-0.88-0.517
c-0.289-0.184-0.565-0.4-0.848-0.6c-0.259-0.244-0.532-0.468-0.757-0.761c-0.109-0.149-0.218-0.297-0.318-0.452l-0.246-0.515
c-0.066-0.18-0.096-0.38-0.14-0.566c-0.025-0.193-0.014-0.394-0.014-0.586c0.069-0.385,0.177-0.758,0.397-1.056
c0.194-0.313,0.464-0.551,0.732-0.766C65.675,83.688,65.992,83.498,66.323,83.469z"/>
</g>
<g>
<g>
<path fill="#BB4F45" d="M73.103,92.404c0.03,1.557-1.121,2.963-2.306,4.029c-1.375,1.065-3.158,2.093-4.789,1.433
c-1.636-0.608-2.062-4.259,0.694-6.521c1.532-1.226,3.236-1.428,4.497-1.078c0,0-0.979,1.598-0.412,1.978
c0.566,0.38,2.363,0.177,2.363,0.177"/>
</g>
<g>
<path fill="#BB4F45" d="M73.103,92.404c0.03,1.557-1.121,2.963-2.306,4.029c-1.375,1.065-3.158,2.093-4.789,1.433
c-1.636-0.608-2.062-4.259,0.694-6.521c1.532-1.226,3.236-1.428,4.497-1.078c0,0-0.979,1.598-0.412,1.978
c0.566,0.38,2.363,0.177,2.363,0.177"/>
</g>
</g>
<g>
<path fill="#483525" d="M73.353,92.422c-0.003,0.201,0.002,0.397-0.012,0.601c-0.043,0.217-0.08,0.444-0.138,0.657
c-0.129,0.41-0.319,0.793-0.535,1.155c-0.224,0.356-0.472,0.693-0.749,1.002c-0.279,0.306-0.57,0.596-0.872,0.873l-0.008,0.007
l-0.013,0.01c-0.591,0.465-1.24,0.874-1.944,1.195c-0.35,0.166-0.728,0.279-1.11,0.378c-0.395,0.066-0.794,0.109-1.2,0.049
c-0.204,0.001-0.395-0.083-0.59-0.137c-0.106-0.035-0.173-0.049-0.309-0.102l-0.242-0.132c-0.385-0.253-0.628-0.603-0.803-0.96
c-0.148-0.369-0.265-0.749-0.287-1.136c-0.044-0.385-0.014-0.77,0.035-1.147c0.064-0.376,0.158-0.744,0.292-1.099
c0.14-0.353,0.315-0.688,0.516-1.006l0.331-0.457l0.375-0.42c0.26-0.257,0.548-0.533,0.853-0.731
c0.286-0.223,0.637-0.4,0.972-0.566c0.341-0.161,0.696-0.287,1.065-0.382c0.37-0.082,0.747-0.131,1.131-0.148
c0.384-0.011,0.767,0.031,1.154,0.099l-0.134,0.482c-0.329-0.109-0.674-0.175-1.026-0.199c-0.353-0.024-0.708,0.011-1.06,0.068
c-0.35,0.072-0.694,0.17-1.025,0.312c-0.321,0.158-0.636,0.307-0.934,0.534c-0.315,0.202-0.558,0.44-0.823,0.695
c-0.249,0.262-0.462,0.551-0.653,0.855c-0.37,0.613-0.619,1.3-0.696,2.006c-0.023,0.353-0.03,0.708,0.031,1.052
c0.04,0.349,0.167,0.673,0.308,0.977c0.165,0.294,0.385,0.541,0.622,0.686l0.25,0.118c0.039,0.003,0.15,0.033,0.221,0.049
c0.162,0.033,0.316,0.098,0.485,0.082c0.33,0.03,0.661-0.03,0.991-0.09c0.327-0.1,0.651-0.205,0.963-0.366
c0.626-0.308,1.208-0.719,1.782-1.149l-0.021,0.017c0.287-0.26,0.562-0.531,0.822-0.812c0.251-0.289,0.495-0.579,0.713-0.887
c0.212-0.311,0.382-0.641,0.528-0.98c0.061-0.166,0.103-0.331,0.162-0.499l0.081-0.591L73.353,92.422z"/>
</g>
<g>
<path fill="#483525" d="M68.572,81.966c0,0,0.097,0.037,0.28,0.107c0.187,0.095,0.441,0.111,0.761,0.178
c0.691,0.115,1.731,0.237,2.978,0.464c0.621,0.133,1.302,0.259,2.005,0.509c0.356,0.101,0.709,0.256,1.066,0.434
c0.198,0.099,0.319,0.138,0.585,0.291c0.154,0.118,0.303,0.202,0.49,0.423c0.658,0.752,0.888,1.579,1.065,2.442
c0.156,0.861,0.188,1.751,0.052,2.649c-0.083,0.448-0.196,0.899-0.429,1.337c-0.098,0.221-0.263,0.43-0.428,0.632
c-0.093,0.097-0.209,0.183-0.315,0.27L76.6,91.766l-0.021,0.016l-0.042,0.024l-0.034,0.018l-0.14,0.073
c-0.86,0.389-1.593,0.606-2.386,0.829c-0.782,0.201-1.544,0.368-2.374,0.353c-0.222-0.025-0.419-0.016-0.682-0.128
c-0.122-0.044-0.245-0.091-0.377-0.22c-0.063-0.056-0.123-0.115-0.177-0.175c-0.041-0.075-0.077-0.156-0.108-0.239
c-0.029-0.109-0.058-0.108-0.071-0.307l0.002-0.124l0.004-0.246c-0.017-0.136,0.085-0.433,0.144-0.631
c0.34-0.803,0.967-1.17,1.483-1.406c0.267-0.099,0.525-0.146,0.755-0.209c0.237-0.025,0.451-0.037,0.645-0.042
c0.386-0.018,0.686,0.066,0.888,0.101c0.202,0.043,0.307,0.08,0.307,0.08s-0.102,0.057-0.288,0.139
c-0.183,0.097-0.463,0.163-0.785,0.32c-0.332,0.127-0.711,0.295-1.107,0.5c-0.373,0.213-0.775,0.511-0.926,0.876
c-0.01,0.04-0.024,0.078-0.043,0.116c-0.023,0.029-0.043,0.078-0.035,0.174l-0.003,0.246l-0.001,0.124
c-0.004-0.117,0.012-0.041,0.007-0.07c-0.068-0.047,0.107,0.075,0.414,0.078c0.603,0.01,1.333-0.135,2.055-0.329
c0.708-0.196,1.519-0.462,2.151-0.748c0.54-0.23,0.799-0.94,0.937-1.677c0.133-0.744,0.128-1.54,0.01-2.291
c-0.11-0.735-0.374-1.511-0.745-1.947c-0.046-0.098-0.225-0.225-0.375-0.341l-0.433-0.214c-0.311-0.167-0.626-0.316-0.957-0.418
c-0.635-0.258-1.279-0.421-1.87-0.579c-1.195-0.291-2.217-0.451-2.95-0.635c-0.385-0.11-0.7-0.185-0.859-0.283
c-0.176-0.084-0.27-0.129-0.27-0.129c-0.131-0.063-0.187-0.22-0.124-0.352c0.06-0.125,0.204-0.181,0.332-0.133L68.572,81.966z"/>
</g>
<g>
<path fill="#483525" d="M72.448,86.5c0,0,0.617,0.598,1.088,1.357c0.111,0.193,0.219,0.393,0.315,0.586
c0.077,0.203,0.153,0.397,0.21,0.568c0.063,0.373,0.106,0.622,0.106,0.622l-0.998-0.066c0,0,0.023-0.175,0.057-0.437
c-0.009-0.144-0.019-0.311-0.029-0.491c-0.031-0.182-0.072-0.381-0.118-0.581C72.866,87.26,72.448,86.5,72.448,86.5z"/>
</g>
</g>
</g>
<g>
<path fill="#483525" d="M23.417,54.031c0,0-0.201,0.421-0.171,1.189c0.009,0.765,0.31,1.833,0.958,2.97
c0.302,0.578,0.783,1.108,1.111,1.865c0.329,0.729,0.552,1.521,0.728,2.351c0.349,1.66,0.487,3.455,0.558,5.244
c0.119,3.581-0.052,7.153-0.215,9.821c-0.083,1.334-0.152,2.445-0.176,3.217c-0.032,0.779,0.012,1.187,0.012,1.187l0.001,0.006
c0.015,0.137-0.084,0.261-0.222,0.275c-0.136,0.015-0.259-0.083-0.275-0.219c0,0-0.056-0.48-0.034-1.261
c0.012-0.787,0.065-1.901,0.128-3.236c0.119-2.668,0.354-6.224,0.244-9.772c-0.059-1.77-0.186-3.544-0.516-5.159
c-0.164-0.804-0.379-1.576-0.677-2.246c-0.279-0.656-0.757-1.245-1.049-1.867c-0.308-0.609-0.545-1.196-0.655-1.746
c-0.114-0.546-0.148-1.037-0.107-1.435C23.135,54.41,23.417,54.031,23.417,54.031z"/>
</g>
<g>
<path fill="#483525" d="M22.417,63.406c0,0-0.141,0.931-0.408,2.318c-0.274,1.385-0.613,3.239-1.05,5.072
c-0.204,0.92-0.439,1.833-0.655,2.691c-0.203,0.86-0.452,1.653-0.641,2.337c-0.182,0.684-0.423,1.242-0.557,1.638
c-0.144,0.394-0.226,0.62-0.226,0.62l-0.701-0.308c0,0,0.083-0.215,0.227-0.591c0.137-0.381,0.373-0.902,0.571-1.578
c0.213-0.668,0.489-1.437,0.725-2.285c0.248-0.843,0.517-1.742,0.757-2.65c0.498-1.811,1-3.624,1.351-4.99
C22.175,64.316,22.417,63.406,22.417,63.406z"/>
</g>
<g>
<path fill="#483525" d="M16.573,77.688c0,0,0.166-0.096,0.512-0.185c0.343-0.085,0.872-0.154,1.538-0.042
c0.337,0.042,0.69,0.171,1.072,0.326c0.342,0.154,0.717,0.341,1.121,0.563c0.786,0.434,1.63,0.963,2.547,1.537
c1.829,1.152,3.967,2.452,6.36,3.667c1.198,0.602,2.454,1.192,3.756,1.732c1.304,0.541,2.627,1.09,3.993,1.472
c1.395,0.404,2.79,0.951,4.047,1.681c0.312,0.193,0.621,0.358,0.932,0.571c0.289,0.205,0.578,0.386,0.862,0.609
c0.574,0.447,1.118,0.899,1.591,1.418c0.481,0.502,0.902,1.078,1.265,1.589c0.472,0.634,0.607,1.287,0.782,1.91
c0.158,0.627,0.259,1.248,0.295,1.867c0.029,0.622,0.024,1.233-0.282,1.905c-0.087,0.168-0.208,0.345-0.396,0.493
c-0.061,0.041-0.073,0.057-0.178,0.114l-0.089,0.041c-0.039,0.023-0.175,0.069-0.272,0.097c-0.382,0.115-0.861,0.018-1.164-0.219
c-0.598-0.491-0.696-1.057-0.813-1.518c-0.175-0.951-0.099-1.735-0.052-2.379c0.003,0.013,0.002-0.159-0.012-0.165
c-0.012-0.038-0.012-0.073-0.038-0.136c-0.033-0.114-0.092-0.22-0.139-0.323c-0.109-0.2-0.216-0.372-0.313-0.506
c-0.186-0.278-0.324-0.409-0.317-0.418c0,0,0.185,0.044,0.492,0.229c0.153,0.093,0.328,0.229,0.517,0.418
c0.087,0.102,0.183,0.211,0.268,0.352c0.046,0.058,0.086,0.164,0.123,0.266c0.043,0.133,0.039,0.119,0.063,0.287
c0.056,0.613,0.118,1.378,0.344,2.142c0.102,0.367,0.291,0.773,0.488,0.894c0.09,0.057,0.156,0.074,0.273,0.041
c0.025-0.014,0.018,0.005,0.094-0.036l0.088-0.043c-0.049,0.023-0.007,0-0.014,0.005c0.021-0.015,0.062-0.058,0.101-0.128
c0.165-0.312,0.222-0.863,0.238-1.397c0.01-0.546-0.034-1.127-0.131-1.712c-0.106-0.572-0.261-1.203-0.568-1.625
c-0.394-0.546-0.763-1.043-1.219-1.517c-0.441-0.479-0.961-0.904-1.485-1.309c-0.263-0.205-0.57-0.396-0.855-0.596
c-0.269-0.184-0.585-0.352-0.877-0.531c-1.204-0.689-2.514-1.198-3.888-1.589c-1.413-0.389-2.764-0.942-4.082-1.48
c-1.323-0.54-2.601-1.129-3.821-1.733c-2.446-1.201-4.612-2.55-6.423-3.731c-0.909-0.585-1.739-1.118-2.486-1.542
c-0.364-0.206-0.721-0.392-1.071-0.554c-0.315-0.147-0.617-0.265-0.897-0.359C17.333,77.785,16.573,77.688,16.573,77.688z"/>
</g>
<g>
<path fill="#483525" d="M41.438,94.636c-0.009,0.024,0.313,0.121,0.638,0.561c0.158,0.207,0.31,0.487,0.405,0.783
c0.112,0.296,0.165,0.594,0.288,0.821c0.041,0.121,0.142,0.225,0.17,0.242c0.062,0.048,0.126,0.077,0.202,0.099
c0.154,0.042,0.351-0.006,0.5-0.072c0.317-0.135,0.424-0.342,0.432-0.33l0.659,0.358c0,0-0.04,0.1-0.146,0.251
c-0.109,0.148-0.29,0.338-0.563,0.488c-0.273,0.14-0.645,0.25-1.078,0.157c-0.211-0.049-0.436-0.152-0.598-0.325
c-0.189-0.205-0.274-0.369-0.332-0.55c-0.132-0.357-0.182-0.692-0.214-0.972c-0.035-0.286-0.077-0.529-0.12-0.753
C41.573,94.979,41.422,94.628,41.438,94.636z"/>
</g>
<g>
<path fill="#483525" d="M39.375,95.156c0,0,0.346,0.161,0.674,0.604c0.17,0.216,0.328,0.501,0.432,0.829
c0.055,0.164,0.1,0.336,0.128,0.516c0.024,0.165,0.09,0.448,0.069,0.3c0.077,0.085,0.329,0.228,0.551,0.236
c0.229,0.024,0.44-0.032,0.612-0.102c0.348-0.149,0.525-0.402,0.533-0.387l0.593,0.459c-0.013-0.016-0.183,0.373-0.754,0.684
c-0.277,0.159-0.663,0.246-1.066,0.211c-0.398-0.048-0.841-0.158-1.176-0.619c-0.048-0.079-0.098-0.192-0.117-0.261
c-0.011-0.067-0.01-0.025-0.03-0.182l-0.017-0.227c-0.005-0.152-0.026-0.3-0.058-0.441c-0.037-0.289-0.106-0.556-0.154-0.796
c-0.047-0.242-0.117-0.438-0.15-0.589C39.4,95.242,39.375,95.156,39.375,95.156z"/>
</g>
<g>
<path fill="#483525" d="M43.232,73.338l2.744,4.009l1.384,1.98c0.445,0.671,0.928,1.307,1.365,1.98l-0.953,0.264l0,0
c0.165-0.615,0.384-1.179,0.636-1.738l0.308-0.684l0.162,0.66l0,0c0.5,0.952,1.173,1.854,1.965,2.521L50.1,82.657l0,0
c0.04-0.572,0.133-1.142,0.207-1.706l0.093-0.707l0.471,0.548l0,0c0.19,0.066,0.479,0.187,0.739,0.263
c0.273,0.083,0.536,0.171,0.823,0.239c0.279,0.074,0.55,0.169,0.844,0.222c0.287,0.069,0.567,0.155,0.86,0.213
c0.593,0.09,1.172,0.234,1.777,0.283l1.818,0.186c0.619,0.049,1.256,0.145,1.869,0.252c0.619,0.109,1.234,0.233,1.844,0.386
c0.611,0.148,1.214,0.338,1.808,0.562c0.592,0.233,1.185,0.467,1.726,0.92l-0.349,0.436c-0.455-0.282-1.044-0.467-1.615-0.625
c-0.579-0.156-1.173-0.269-1.766-0.383c-0.594-0.11-1.195-0.192-1.796-0.259c-0.607-0.07-1.196-0.107-1.807-0.151l-1.866-0.147
c-0.626-0.037-1.253-0.172-1.881-0.255c-0.314-0.054-0.627-0.14-0.94-0.209c-0.311-0.073-0.623-0.174-0.925-0.309
c-0.305-0.109-0.602-0.279-0.884-0.466c-0.287-0.2-0.536-0.402-0.78-0.772l0,0l0.564-0.159c0.012,0.55,0.006,1.093,0.051,1.637l0,0
l-0.084,1.11l-0.66-0.783c-0.194-0.23-0.411-0.441-0.575-0.686c-0.181-0.234-0.339-0.48-0.49-0.729
c-0.297-0.503-0.551-1.013-0.761-1.564l0,0l0.47-0.023c-0.061,0.569-0.09,1.151-0.059,1.699l0,0l-0.104,1.341l-0.849-1.077
c-1.018-1.291-1.884-2.683-2.684-4.104c-0.391-0.716-0.793-1.425-1.15-2.158c-0.374-0.723-0.714-1.466-1.046-2.21L43.232,73.338z"
/>
</g>
<g>

<ellipse transform="matrix(0.6163 -0.7875 0.7875 0.6163 -49.6684 90.5732)" fill="#F4F5F5" cx="68.113" cy="96.257" rx="0.789" ry="0.442"/>
</g>
<g>

<ellipse transform="matrix(0.5407 -0.8412 0.8412 0.5407 -47.4503 100.3082)" fill="#F4F5F5" cx="68.134" cy="93.608" rx="0.788" ry="0.6"/>
</g>
<g>

<ellipse transform="matrix(-0.3016 -0.9534 0.9534 -0.3016 -37.548 171.7578)" fill="#F4F5F5" cx="44.132" cy="99.631" rx="0.632" ry="0.512"/>
</g>
<g>
<path fill="#483525" d="M18.739,61.247c0,0-0.326-0.084-0.817-0.103c-0.121-0.014-0.256,0.003-0.395,0.004
c-0.14,0.01-0.284-0.003-0.435,0.029c-0.299,0.05-0.614,0.076-0.915,0.186c-0.305,0.08-0.598,0.179-0.857,0.321
c-0.13,0.061-0.256,0.121-0.375,0.177c-0.122,0.045-0.218,0.139-0.315,0.198c-0.374,0.257-0.624,0.428-0.624,0.428l-0.709-1.185
c0,0,0.343-0.123,0.858-0.307c0.13-0.038,0.258-0.107,0.415-0.126c0.152-0.028,0.313-0.058,0.479-0.089
c0.325-0.077,0.681-0.101,1.035-0.101c0.35-0.029,0.7,0.03,1.02,0.062c0.16,0.009,0.313,0.062,0.456,0.089
c0.143,0.037,0.279,0.055,0.399,0.102C18.448,61.082,18.739,61.247,18.739,61.247z"/>
</g>
<g>
<path fill="#483525" d="M19.414,63.829c0,0-0.422-0.022-1.041,0.052c-0.155,0.008-0.321,0.051-0.496,0.077
c-0.174,0.037-0.36,0.05-0.545,0.109c-0.372,0.108-0.77,0.188-1.144,0.356c-0.38,0.142-0.753,0.29-1.078,0.486
c-0.329,0.181-0.643,0.326-0.876,0.519c-0.478,0.345-0.797,0.576-0.797,0.576l-0.762-1.152c0,0,0.408-0.183,1.019-0.457
c0.294-0.153,0.677-0.246,1.07-0.365c0.389-0.134,0.821-0.211,1.251-0.276c0.424-0.091,0.862-0.09,1.261-0.12
c0.199-0.02,0.396,0.005,0.579,0.005c0.184,0.01,0.355,0.002,0.515,0.026C19.007,63.721,19.414,63.829,19.414,63.829z"/>
</g>
</svg>
