<?xml version="1.0" encoding="utf-8"?>
<!-- Generator: Adobe Illustrator 17.0.0, SVG Export Plug-In . SVG Version: 6.00 Build 0)  -->
<!DOCTYPE svg PUBLIC "-//W3C//DTD SVG 1.1//EN" "http://www.w3.org/Graphics/SVG/1.1/DTD/svg11.dtd">
<svg version="1.1" id="Слой_1" xmlns="http://www.w3.org/2000/svg" xmlns:xlink="http://www.w3.org/1999/xlink" x="0px" y="0px"
	 width="132.3px" height="92px" viewBox="0 0 132.3 92" style="enable-background:new 0 0 132.3 92;" xml:space="preserve">
<style type="text/css">
	.st0{fill:#DDC048;}
	.st1{fill:#D0E3FC;}
	.st2{fill:#6D98CC;}
	.st3{fill:#92B6EA;}
	.st4{fill:#513015;}
	.st5{fill:#F5F5F5;}
	.st6{fill:#FFDFA6;}
	.st7{fill:#93551C;}
	.st8{fill:#ED9823;}
	.st9{opacity:0.5;fill:#93551C;}
	.st10{fill:none;stroke:#513015;stroke-miterlimit:10;}
	.st11{fill:none;}
	.st12{fill:#FF6022;}
	.st13{fill:#DDDD00;}
	.st14{fill:#FFFFFF;}
</style>
<g>
	<path class="st0" d="M129.8,92c1.2-4.8,2-9.5,2-11.7c0-2.4-0.9-4.5-2.3-6.2c0,0,0,0,0,0c-1.7-1.9-4.1-3.1-6.9-3.1
		c-5.1,0-9.2,4.2-9.2,9.3c0,2.2-0.1,7,1.1,11.7H129.8z"/>
	<path class="st0" d="M111.5,89.9l2.7,2.1h0.3c-1.2-4.8-1.1-9.5-1.1-11.7c0-5.2,4.1-9.3,9.2-9.3c2.7,0,5.2,1.2,6.9,3.1
		c-3.2-5-8.9-7.6-8.9-7.6c6.1-23.1-5.5-31.2-5.5-31.2c-3.2,1.9-6.3,1.4-6.3,1.4c2,0.4,3.3,3.4,3.3,3.4c-0.8-0.3-1.5-0.4-2.4-0.3v0
		c0,0,22.1,22.1-4.1,40v0C105.6,80,113.5,84.3,111.5,89.9z"/>
	<path class="st1" d="M116.2,34.6c-0.4,0.3-0.8,0.5-1.2,0.8c-3.2,1.9-6.3,1.4-6.3,1.4c2,0.4,3.3,3.4,3.3,3.4
		c-0.8-0.3-1.5-0.4-2.4-0.3c-1.3,0.2-3.1,0.7-6.6,1.7c-2.2,0.6-5.1,1.4-9.1,2.3c-2,0.5-3.8,0.6-5.6,0.6c-0.8,0-1.6-0.1-2.3-0.2
		c0,0,0,0,0,0c-6.6-0.8-11.3-4.2-13.5-6.2c0.9-0.1,1.7-0.9,2.1-1.7c12.3,2.5,17.4-1.8,23.4-7.2c0.5-0.5,1-0.9,1.5-1.4
		c6.9-6.3,13.2-4.4,13.2-4.4c1.5,2.8,3.6,5.4,3.6,5.4c-2.2,2.5-3.7,2.8-3.7,2.8C114.3,34.2,116.2,34.6,116.2,34.6z"/>
	<path class="st0" d="M114.2,92l-2.7-2.1c-0.2,0.7-0.6,1.4-1.2,2.1H114.2z"/>
	<path class="st2" d="M111,58.1l2.3,0.3c0,0-0.1,2.1-0.4,2.7c0,0-1,1-3.1,2.2c-3.2,1.9-8.9,4.2-17.4,4.5c-0.9,0-1.7,0-2.6,0
		c-0.1,0-0.2,0-0.4,0c-0.9,0.1-2.5,0.3-2.9-0.5c-0.3-0.8,0.3-1.2,0.5-1.3c0.1,0,0.1,0,0.1,0s-1.3,0-1.2-1.2c0-0.8,1.7-0.7,1.7-0.7
		s-0.1,0-0.2-0.1c0,0,0,0,0,0c-0.3-0.1-0.9-0.4-0.6-1.1c0.4-0.9,2.3-0.5,3.4-0.2c0.5,0.1,0.8,0.3,0.8,0.3c0.9-0.1,1.8-0.2,2.6-0.4
		c6.4-1.6,10.5-7.5,12.2-10.4c0.6-1,0.9-1.7,0.9-1.7s0.4,2.2-0.1,3.6l2.1-0.5l-0.2,2.4l3.7-0.7L111,58.1z"/>
	<path class="st3" d="M97.5,92c4.3-4.8,5.7-10.4,5.7-10.4c0.4-0.3,0.9-0.5,1.3-0.8c0.4-0.3,0.8-0.5,1.2-0.8c26.1-18,4.1-40,4.1-40v0
		c-1.3,0.2-3.1,0.7-6.6,1.7c0,0-0.1,6.6,2.6,10.5h0c0.6-1,0.9-1.7,0.9-1.7s0.4,2.2-0.1,3.6l2.1-0.5l-0.2,2.4l3.7-0.7l-1.1,2.8
		l2.3,0.3c0,0-0.1,2.1-0.4,2.7c0,0-1,1-3.1,2.2v0c0,0-3.5,7.6-13.4,10.3c-3.9,1.1-6.4,2.3-7.9,3c-2.9,1.3-6.1,4.1-8.2,8.4
		c-1,2-1.7,4.4-1.9,7H97.5z"/>
	<path class="st2" d="M101.1,90.8l5.2-0.9c0,0-0.3,0.9-0.8,2.1h4.8c0.6-0.7,1-1.4,1.2-2.1c1.9-5.6-5.9-9.9-5.9-9.9v0
		c-0.4,0.3-0.8,0.5-1.2,0.8l0,0c0,0,1,4.3-2.4,7.1l4-1.7C106,86.2,104.5,89.2,101.1,90.8z"/>
	<path class="st2" d="M111,13.9c3.7,0.5,2.6,5.1,0.4,6.6c0.3,1,0.8,2.1,1.4,3.1c0,0-6.3-2-13.2,4.4c-0.5,0.5-1,0.9-1.5,1.4l-0.9-0.9
		c-0.3,0-0.5,0-0.8-0.1v0c0.5-0.6,0.6-2.5-0.2-3.1c-0.8-0.6-1.5-0.9-2.2-0.8L94,23c3.2-0.8,4,1.2,4,1.2c1.2,0.4,0.3-2.4-1.2-3.1
		c-1.1-0.5-2.2-0.4-2.8,0.1l-0.6-0.3c6.2-6.1,12.6-4.1,12.6-4.1c0.1-0.2,0.3-0.5,0.4-0.7C107.2,14.7,108.7,13.5,111,13.9z
		 M107.2,18.7c3.2,2.1,5.7-0.9,3.6-2.4C108.6,14.7,107.2,18.7,107.2,18.7z"/>
	<path class="st1" d="M110.8,16.3c2.1,1.6-0.4,4.5-3.6,2.4C107.2,18.7,108.6,14.7,110.8,16.3z"/>
	<path class="st1" d="M109.7,63.3L109.7,63.3c0,0-3.5,7.6-13.4,10.3c-3.9,1.1-6.4,2.3-7.9,3c-2.9,1.3-6.1,4.1-8.2,8.4l-0.3-0.1
		c-3.8-3.2-5-7-5-10.5c0-0.9,0.1-1.8,0.2-2.6c0.5-2.9,1.5-5.4,2.2-6.6h0c0,0.9,0.3,1.8,1.5,2.2c0.3,0.1,0.8,0.2,1.3,0.2
		c0.2,1.3,0.3,2.2,0.3,2.2H89l3.2-1.3c0,0,0-0.2,0.2-0.7v-0.1C100.8,67.6,106.6,65.2,109.7,63.3z"/>
	<path class="st0" d="M105.6,92c0.5-1.2,0.8-2.1,0.8-2.1l-5.2,0.9c3.4-1.6,4.8-4.5,4.8-4.5l-4,1.7c3.5-2.9,2.4-7.1,2.4-7.1l0,0
		c-0.4,0.3-0.8,0.5-1.3,0.8c0,0-1.4,5.6-5.7,10.4H105.6z"/>
	<path class="st1" d="M106.4,16c-0.2,0.2-0.3,0.5-0.4,0.7c0,0-6.4-1.9-12.6,4.1c-0.4,0.4-0.8,0.8-1.2,1.2c-6.1,7-7.3,12.9-17.3,13.2
		c-0.1-0.6-0.7-1.1-1.4-1.4c4.2-1.3,6.5-5,8.9-8.9c1.9-3.1,3.8-6.2,6.6-8.4c0.8-0.6,1.6-1.1,2.5-1.5c1.4-0.6,2.7-1,4-1.2
		C100.9,13.1,105.2,15.3,106.4,16z"/>
	<path class="st1" d="M105.7,52.1L105.7,52.1c-1.7,2.9-5.8,8.8-12.2,10.4c0.3-1.5,0.7-3.1,1-4.4l0.1-0.2l3.6,1l-0.5-2.2l-2.5-1.6
		l-1.7,0.2c0,0-3.2-2.5-6.5-2.8h0c1-2.1,1.4-4.3,1.5-6c0.1-1.3,0-2.1,0-2.1c1.7,0,3.6-0.2,5.6-0.6c3.9-0.9,6.9-1.7,9.1-2.3
		C103.1,41.7,103,48.3,105.7,52.1z"/>
	<path class="st4" d="M96.8,21.1c1.5,0.7,2.5,3.5,1.2,3.1c0,0-0.9-2-4-1.2c0,0-0.9-0.2-0.5-1.2c0.1-0.2,0.3-0.5,0.5-0.6
		C94.6,20.7,95.6,20.6,96.8,21.1z"/>
	<polygon class="st1" points="97.7,56.8 98.1,59 94.5,58 94.2,57.9 91.2,55.8 93.5,55.4 95.1,55.2 	"/>
	<path class="st2" d="M97.1,28.4l0.9,0.9c-6,5.5-11.1,9.7-23.4,7.2c0.2-0.3,0.3-0.7,0.3-1c0-0.1,0-0.2,0-0.3
		c9.9-0.4,11.2-6.2,17.3-13.2c0.4-0.4,0.8-0.9,1.2-1.2l0.6,0.3c-0.2,0.2-0.4,0.4-0.5,0.6C93.1,22.8,94,23,94,23l0.1,1.4
		c-2.6,0.1-4.1,4.5-4.1,4.5s3.5-0.7,6.5-0.5C96.6,28.4,96.9,28.4,97.1,28.4z"/>
	<path class="st5" d="M96.2,25.2c0.8,0.6,0.7,2.6,0.2,3.1v0c-3-0.2-6.5,0.5-6.5,0.5s1.5-4.3,4.1-4.5C94.7,24.4,95.4,24.6,96.2,25.2z
		 M93.5,28c0.9,0,1.5-0.7,1.5-1.6c0-0.9-0.7-1.6-1.5-1.6c-0.9,0-1.6,0.7-1.6,1.6C91.9,27.3,92.6,28,93.5,28z"/>
	<path class="st4" d="M95,26.4c0,0.9-0.7,1.6-1.5,1.6c-0.9,0-1.6-0.7-1.6-1.6c0-0.9,0.7-1.6,1.6-1.6C94.3,24.9,95,25.6,95,26.4z"/>
	<path class="st1" d="M94.5,58l-0.1,0.2c-0.3,1.3-0.6,2.8-1,4.4c-0.8,0.2-1.7,0.4-2.6,0.4c0,0-0.3-0.1-0.8-0.3
		c0.6-3.5,1.1-6.9,1.1-6.9l3,2.1L94.5,58z"/>
	<path class="st6" d="M93.5,55.4l-2.3,0.3c0,0-0.2,0-0.5,0c-1.8,0-8.1,0-11,0c0,0,0.5-0.4,1.3-1c1.4-1,3.8-2.3,5.9-2.1h0
		C90.2,53,93.5,55.4,93.5,55.4z"/>
	<path class="st2" d="M91.5,10.9c3.5-0.9,4,3,4,3c-1.3,0.2-2.6,0.6-4,1.2c-0.9,0.4-1.8,0.9-2.5,1.5C88.9,16.4,87.4,11.9,91.5,10.9z"
		/>
	<path class="st1" d="M92.3,67.8L92.3,67.8c-0.1,0.5-0.2,0.7-0.2,0.7L89,69.8c0,0,0.1-0.8,0.3-2v0c0.1,0,0.3,0,0.4,0
		C90.6,67.8,91.5,67.8,92.3,67.8z"/>
	<path class="st5" d="M90.7,55.8c0.3,0,0.5,0,0.5,0s-0.5,3.5-1.1,6.9c-1.1-0.3-3.1-0.7-3.4,0.2c-0.3,0.7,0.3,1,0.6,1.1c0,0,0,0,0,0
		c0.1,0,0.2,0.1,0.2,0.1s-1.6-0.1-1.7,0.7c-0.1,1.2,1.2,1.2,1.2,1.2s0,0-0.1,0c-0.2,0.1-0.9,0.5-0.5,1.3c0.3,0.8,1.9,0.6,2.9,0.5v0
		c-0.2,1.2-0.3,2-0.3,2h-8.5c0,0-0.1-0.9-0.3-2.2c0.7,0,1.5-0.2,1.7-0.7c0.3-0.6-0.4-1.3-0.4-1.3s0.8,0.1,0.8-1.1
		c0-0.7-1.3-0.8-1.3-0.8s0,0,0,0c0,0,0,0,0,0c0.2-0.1,1-0.7,0.7-1.3c-0.4-0.8-1.6-0.6-2.5-0.2c-0.1-0.7-0.2-1.4-0.3-2l0,0l7-1.2
		L90.7,55.8z"/>
	<path class="st5" d="M90.7,55.8l-4.8,3.1l-7,1.2l-3.7,0.6l0.6-3l2.4-1.8h0.1c0.2,0,0.7,0,1.4,0C82.6,55.8,88.9,55.8,90.7,55.8z"/>
	<path class="st0" d="M88.4,44.6c0,0,0.1,0.9,0,2.1c0,0-5.1,2.8-8.2,8v0.1l-3.6,0.1l-3,1.6l2.3,1.1l-0.6,3l3.7-0.6l0,0
		c0.1,0.7,0.2,1.3,0.3,2c-0.4,0.2-0.8,0.4-0.9,0.5c-0.1,0.1-0.2,0.3-0.4,0.5v0c-0.3,0.5-0.6,1.3-0.7,2.1h0c-0.6,1.2-1.7,3.7-2.2,6.6
		l-7.7-0.1h0c-0.9-2.3-3.4-4.3-7.6-4.4h0c-1.4-0.2-5.4-11.6-7.2-18.4c-1.8-6.7-9.5-5.3-9.8-5.2c0,0,0,0,0,0
		c-0.2-0.1-0.4-0.2-0.6-0.2c-1.6-0.2-2.7-2.2-2.7-2.2c4.3-1.6,6.2-4.4,8.1-4.3c2.3,0.1,4.6,2,4.6,2c0-1.7-0.6-4.3-0.6-4.3
		c2,1.1,3.2,2,3.2,2c0-2.6-2.2-5.1-2.2-5.1c1.9,0.4,2.9,1.6,2.9,1.6c0-1.6-0.4-3.1-1-4.6c-0.6-1.5-1.4-2.9-2.1-4
		c0,0,13.7-2.4,30,0.4c-2.4,3.9-4.7,7.5-8.9,8.9c-0.3-0.1-0.8-0.2-1.2-0.2c-1.4,0-2.6,0.8-2.6,1.9c0,1,1.2,2.6,2.6,2.6
		c0.1,0,0.2,0,0.3,0h0c2.2,2,6.9,5.4,13.5,6.2c0,0,0,0,0,0C86.9,44.5,87.6,44.6,88.4,44.6z"/>
	<path class="st2" d="M88.4,46.7c-0.1,1.6-0.5,3.9-1.5,6c-2.1-0.2-4.5,1.1-5.9,2.1l-0.8,0v-0.1C83.3,49.5,88.4,46.7,88.4,46.7z"/>
	<path class="st2" d="M81,63.7c0,0,1.3,0.1,1.3,0.8c0,1.3-0.8,1.1-0.8,1.1s0.6,0.7,0.4,1.3c-0.3,0.6-1,0.7-1.7,0.7
		c-0.5,0-1-0.1-1.3-0.2c-1.2-0.4-1.5-1.3-1.5-2.2c0-0.7,0.3-1.5,0.7-2.1v0c0.1-0.2,0.3-0.4,0.4-0.5c0.1-0.2,0.5-0.4,0.9-0.5
		c0.9-0.4,2.1-0.6,2.5,0.2C82.1,63,81.3,63.5,81,63.7C81,63.6,81,63.6,81,63.7C81,63.7,81,63.7,81,63.7z"/>
	<path class="st3" d="M78.2,92c0.3-2.6,1-5,1.9-7l-0.3-0.1c-3.8-3.2-5-7-5-10.5l-0.2,0c0,0-7.5,4-8.1,17.6H78.2z"/>
	<path class="st0" d="M64.5,92h2.1c0.6-13.6,8.1-17.6,8.1-17.6l0.2,0c0-0.9,0.1-1.8,0.2-2.6l-7.7-0.1c0.4,1,0.6,2.1,0.4,3.1
		c-0.6,4-4.9,3.4-4.9,3.4C64.9,80.7,66.4,84.8,64.5,92z"/>
	<path class="st4" d="M74.9,35.3c0,0.1,0,0.2,0,0.3c0,0.3-0.1,0.6-0.3,1c-0.4,0.8-1.2,1.5-2.1,1.7h0c-0.1,0-0.2,0-0.3,0
		c-1.4,0-2.6-1.6-2.6-2.6c0-1,1.2-1.9,2.6-1.9c0.4,0,0.8,0.1,1.2,0.2C74.2,34.2,74.8,34.7,74.9,35.3z"/>
	<path class="st7" d="M67.5,71.8c0.4,1,0.6,2.1,0.4,3.1c-0.6,4-4.9,3.4-4.9,3.4c-1.2-0.1-2.1-0.1-2.9-0.1L57,77l1.9-3.4l-2.3-0.3
		l2.1-2.7c0,0-3.6,0.5-3.6,0.2c0-0.3,1.6-3.3,1.6-3.3c1.2-0.2,2.2-0.3,3.2-0.3h0C64.1,67.4,66.5,69.5,67.5,71.8L67.5,71.8z"/>
	<path class="st8" d="M55.1,92h9.3c1.9-7.2,0.5-11.4-1.5-13.7c-1.2-0.1-2.1-0.1-2.9-0.1c-2.6,0-3.9,0.7-7.1,2.7l0,0.1
		C54.6,83.1,56.3,86.8,55.1,92z"/>
	<path class="st8" d="M57,77l3,1.2c-2.6,0-3.9,0.7-7.1,2.7c-2.2,1.4-5.2,3.4-10.1,6.4c-2.4,1.4-4.5,2.4-6.5,3
		c-6.9,2.1-11.1-0.3-12.9-3.6c-0.8-1.4-1.1-2.8-1-4.2c0.3-5.2,3.7-6.3,3.7-6.3c6.7,7.1,14.8-2.4,24.6-6.8c0.8-0.4,1.6-0.7,2.4-0.9
		c1.3-0.4,2.5-0.7,3.6-0.9c0,0-1.6,2.9-1.6,3.3c0,0.3,3.6-0.2,3.6-0.2l-2.1,2.7l2.3,0.3L57,77z"/>
	<path class="st8" d="M59.9,67.3c-1,0-2,0-3.2,0.3c-1.1,0.2-2.3,0.5-3.6,0.9c-0.8,0.3-1.6,0.6-2.4,0.9c-3.4-2.1-3.9-6.1-3.9-6.1
		c2.6-4.1,2.2-8.1,2.2-8.1l1.6,0.5c-0.5-1.6-1.8-3.4-1.8-3.4l1.7,0.5c-1.9-4-5.7-8.2-7.6-9.2c0.3-0.1,8-1.4,9.8,5.2
		C54.5,55.8,58.5,67.2,59.9,67.3z"/>
	<path class="st8" d="M55.1,92c1.2-5.2-0.5-8.9-2.2-11l0-0.1c-2.2,1.4-5.2,3.4-10.1,6.4c-2.4,1.4-4.5,2.4-6.5,3
		c0.5,0.3,2.3,1.2,4.2,1.7H55.1z"/>
	<path class="st6" d="M55.5,33.3c0,0-1-1.2-2.9-1.6c0,0,2.3,2.6,2.2,5.1c0,0-1.2-1-3.2-2c0,0,0.6,2.6,0.6,4.3c0,0-2.3-1.9-4.6-2
		c-1.9-0.1-3.8,2.7-8.1,4.3c-0.9,0.3-2,0.6-3.1,0.8c-1.3,0.2-2.5,0.2-3.6,0.1c-4.1-0.5-6.8-2.8-8.5-2.3c-2.2,0.7-4,3.1-4,3.1
		c-0.4-1.7-0.5-4.3-0.5-4.3c-1.7,1.5-2.6,2.7-2.6,2.7c-0.2-0.8-0.2-1.6-0.1-2.4c0.2-1.7,1-3.2,1-3.2c-1.8,0.9-2.4,2.3-2.4,2.3
		c-0.2-0.9-0.3-1.8-0.3-2.7c0,0,2.6-6.5,16.6-2.9c1.1,0.8,3.9,1.5,3.9,1.5s3.1-1.6,3.6-2.7c9.6-6.7,14.1-3.4,14.9-2.7
		C55,30.2,55.4,31.7,55.5,33.3z"/>
	<path class="st7" d="M54.5,3.2l-3.2,2.2c0,0,0,0,0,0l0,0c0,0-0.1,0.1-0.2,0.1c0-0.4,0.1-2.6-0.2-4.3L52,3l1.1-1.5l-0.5,2L54.5,3.2z
		"/>
	<path class="st8" d="M52.4,24.7c0.8,1.2,1.6,2.5,2.1,4c-0.8-0.7-5.3-4-14.9,2.7c0.1-0.1,0.1-0.3,0.1-0.4c-0.1-0.9-1.5-1.5-3.3-1.5
		l1.4-1.8c0,0,0.4,0,1.1-0.2c1.7-0.3,5-1.2,7.2-3.4l0,0c0,0-1-3.3-3.4-3.3l0.9-2.1c-1-0.5-2.8-0.9-5.2,0l-0.9-2c0.1,0,0.2,0,0.3,0
		c2.1-0.4,0.2-3.7-0.1-4.2c2.8,0.2,4.8,0.6,4.8,0.6s2.5-0.4,4.6-3.8c1.1-1.9,2.8-3,3.7-3.5c-0.1,0.3-0.9,2.2-0.8,4.9
		c0.2,6.4-2.4,8.2-2.4,8.2l2.2-0.6L49.4,21C49.4,21,50.9,22.4,52.4,24.7z"/>
	<path class="st7" d="M51.9,11.9c1.4,5.2-2.5,9.1-2.5,9.1l0.5-2.7l-2.2,0.6c0,0,2.6-1.8,2.4-8.2c-0.1-2.7,0.7-4.6,0.8-4.9
		c0.1-0.1,0.2-0.1,0.3-0.2c0,0,0,0,0,0l0.2-0.2l0,0c0,0,0,0,0,0c0,0,0,0,0,0S50.5,6.7,51.9,11.9z"/>
	<path class="st6" d="M50.5,55.8L49,55.3c0,0,0.4,4-2.2,8.1c-0.9,1.5-2.3,3-4.2,4.3c0,0-3.6-4.8-5.4-6.1c0.2-1,0.4-1.9,0.5-2.6l0,0
		l4,1.1l-0.5-2.2l-2.5-1.6l-1.1,0.2l0-0.1c0,0-3.2-2.5-6.5-2.8c-1.2-0.1-2.4,0.2-3.6,0.8c0.1-0.7,2.3-4.8,2.4-5.1l-2,1.3
		c1.4-4.4,4.4-6.8,4.4-6.8c1.5-0.6,0.6-1.4,0.5-1.5c1.1,0.1,2.3,0.1,3.6-0.1c1.2-0.2,2.2-0.5,3.1-0.8c0,0,1.1,1.9,2.7,2.2
		c0.2,0,0.3,0.1,0.6,0.2c0,0,0,0,0,0c1.9,1,5.7,5.1,7.6,9.2l-1.7-0.5C48.8,52.4,50,54.2,50.5,55.8z"/>
	<path class="st8" d="M46.8,63.4c0,0,0.5,4,3.9,6.1c-9.8,4.4-17.9,13.9-24.6,6.8c-1.8-3.4,0.8-6.5,0.8-6.5h6.5h0.1v0l2.5-0.8
		c0,0,0.7-4,1.3-7.3c1.8,1.2,5.4,6.1,5.4,6.1C44.5,66.4,45.8,64.9,46.8,63.4z"/>
	<path class="st5" d="M46.1,24.2L46.1,24.2c-2.1,2.1-5.5,3-7.2,3.4v-0.1c0,0-0.6-5.1,2.6-6.4c0.4-0.2,0.8-0.2,1.1-0.2
		C45.1,20.8,46.1,24.2,46.1,24.2z M43.7,25.2c0.8-0.1,1.3-0.9,1.2-1.7c-0.1-0.9-0.8-1.5-1.6-1.4c-0.8,0.1-1.3,0.9-1.2,1.7
		C42.2,24.7,42.9,25.4,43.7,25.2z"/>
	<path class="st4" d="M44.9,23.5c0.1,0.9-0.4,1.6-1.2,1.7c-0.8,0.1-1.5-0.5-1.6-1.4c-0.1-0.9,0.4-1.6,1.2-1.7
		C44.1,22.1,44.8,22.7,44.9,23.5z"/>
	<path class="st8" d="M43.7,18.7l-0.9,2.1c-0.3,0-0.7,0.1-1.1,0.2c-3.2,1.2-2.6,6.4-2.6,6.4v0.1c-0.7,0.1-1.1,0.2-1.1,0.2l-1.4,1.8
		c-0.3,0-0.7,0-1,0.1c-0.4,0-0.8,0.1-1.2,0.2l-2.6-1c-0.1,0-0.2,0-0.4,0l0-0.1c0,0-1-5.1-4.5-5.3c-1,0-1.6,0.3-2.1,0.7l-1.2-1.6
		c0,0,1.5-2.4,5.1-2.4l0.1-2.1c2.1,0,1-5.1,1-5.1l0-0.1c0.5-0.1,1.1-0.3,1.6-0.3l0.1,0.3c0,0,0.9,5.9,2.8,5.5
		c1.8-0.4,0.3-5.8,0.2-6.1c0.4,0,0.8,0,1.2,0v0.2c0,0,0.3,4.1,2.3,4.1l0.9,2C40.8,17.8,42.6,18.2,43.7,18.7z"/>
	<path class="st0" d="M40.5,92c-1.9-0.5-3.8-1.4-4.2-1.7c-6.9,2.1-11.1-0.3-12.9-3.6l-0.1,0.1L18,92H40.5z"/>
	<polygon class="st1" points="41.2,57.9 41.7,60.1 37.7,59 37.7,59 35.1,57.1 35.1,56.9 35.1,56.8 37.6,56.5 38.7,56.4 	"/>
	<path class="st4" d="M39.7,31.1c0,0.1,0,0.2-0.1,0.4c-0.6,1.1-3.6,2.7-3.6,2.7s-2.7-0.7-3.9-1.5c-0.3-0.2-0.5-0.4-0.5-0.6
		c-0.1-0.9,1-1.8,2.7-2.2c0.4-0.1,0.7-0.2,1.2-0.2c0.4,0,0.7-0.1,1-0.1C38.2,29.6,39.6,30.2,39.7,31.1z"/>
	<path class="st7" d="M37.8,12.4c0.3,0.5,2.2,3.9,0.1,4.2c-0.1,0-0.2,0-0.3,0c-2,0-2.3-4.1-2.3-4.1v-0.2
		C36.2,12.3,37,12.4,37.8,12.4z"/>
	<path class="st1" d="M37.7,59c-0.2,0.8-0.3,1.7-0.5,2.6c-0.6,3.4-1.3,7.3-1.3,7.3l-2.5,0.8l1.6-12.7L37.7,59z"/>
	<path class="st6" d="M37.6,56.4l0,0.1l-2.5,0.3c0,0-7.6-0.2-11.1-0.3c0.5-0.4,1.9-1.4,3.5-2.2c1.1-0.5,2.4-0.9,3.6-0.8
		C34.4,53.9,37.6,56.4,37.6,56.4z"/>
	<path class="st5" d="M35.1,56.8L35.1,56.8L35.1,56.8l-0.3,0l0.1,0.1L30,59.6l-6.1,1l-4.5,0.8l0.3-1.6l0.3-1.5l2.4-1.8h0.1
		c0.2,0,0.8,0,1.6,0C27.5,56.6,35.1,56.8,35.1,56.8z"/>
	<path class="st5" d="M35.1,57.1l-1.6,12.7l-0.1,0h-6.5h-1.9c0,0,0-0.4-0.1-1v0c1.1,0.1,2-0.1,2.2-0.9c0.1-0.4,0-1.5-1.2-1.4
		c0,0,0.1,0,0.2-0.1c0.5-0.2,2-0.8,1.5-2c-0.2-0.4-0.6-0.6-1.7-0.6c0,0,1.4-0.6,0.8-1.7c-0.2-0.3-1.2-0.6-2.6-0.5l0-0.2
		c0-0.3-0.1-0.5-0.1-0.8l6.1-1l4.9-2.7L35.1,57.1z"/>
	<path class="st7" d="M34.1,12.4c0.1,0.3,1.6,5.7-0.2,6.1c-1.9,0.5-2.8-5.5-2.8-5.5l-0.1-0.3C32.1,12.5,33.1,12.4,34.1,12.4z"/>
	<path class="st8" d="M31.6,28.8l2.6,1c-1.6,0.5-2.8,1.4-2.7,2.2c0,0.2,0.2,0.4,0.5,0.6c-14-3.6-16.6,2.9-16.6,2.9
		c0-5.5,3.2-10.7,3.2-10.7l-0.7-2.6l2.3,0c0,0-3-1.1-4.3-7.3C15.2,12,13,10.5,13,10.5s0,0,0-0.1c0.7,0.2,3.3,1.1,5,2.5
		c3.4,2.8,5.2,2.6,5.2,2.6s1.3-0.7,3.3-1.4l0,0c0,0-0.2,4,2,4.1c0,0,0,0,0.1,0l-0.1,2.1c-3.6,0-5.1,2.4-5.1,2.4l1.2,1.6
		c-1.3,1.2-1.2,3.6-1.2,3.6l0,0c2.7,1.4,6.1,1.2,7.8,1C31.3,28.9,31.5,28.8,31.6,28.8z"/>
	<path class="st0" d="M32.8,42.3c0.1,0.1,1,0.9-0.5,1.5c-1.6,0.6-5.2-0.8-8.6,1.4c-1.9,1.2-6.2,4.5-10.2,7.8
		c-0.4-7.1,1.6-11.4,3.5-13.9c-0.1,0.8-0.1,1.6,0.1,2.4c0,0,0.9-1.2,2.6-2.7c0,0,0.1,2.6,0.5,4.3c0,0,1.7-2.4,4-3.1
		C26.1,39.5,28.7,41.8,32.8,42.3z"/>
	<path class="st8" d="M23.8,45.2c3.4-2.2,6.9-0.8,8.6-1.4c0,0-3,2.4-4.4,6.8l2-1.3c-0.1,0.3-2.3,4.4-2.4,5.1c-1.6,0.7-3,1.8-3.5,2.2
		c-0.8,0-1.4,0-1.6,0h-0.1l-2.4,1.8l-0.3,1.5L15,61.8c2.4,0.6,4,1.5,4,1.5c1.9-1,3.7-1.5,5-1.6c1.5-0.2,2.5,0.1,2.6,0.5
		c0.6,1.1-0.8,1.7-0.8,1.7c1.1,0,1.5,0.2,1.7,0.6c0.5,1.2-1,1.8-1.5,2c-0.1,0-0.2,0.1-0.2,0.1c1.2-0.1,1.3,1,1.2,1.4
		c-0.2,0.7-1.1,0.9-2.2,0.9c-2-0.1-4.5-1-4.5-1c-4.1,0.2-7.3,0-9.7-0.3c-2.6-0.3-4.1-0.8-4.1-0.8L4,67.2l1.2-2l-2.5,0.8
		c0,0,1-3.4,3.3-6.1c1.5-1.7,4.5-4.4,7.6-7C17.6,49.7,21.9,46.4,23.8,45.2z"/>
	<path class="st5" d="M31.2,28.8l0,0.1c-1.8,0.2-5.2,0.4-7.8-1l0,0c0,0-0.1-2.4,1.2-3.6c0.5-0.5,1.2-0.8,2.1-0.7
		C30.2,23.7,31.2,28.8,31.2,28.8z M28.3,28c0.8-0.2,1.3-1,1.1-1.8c-0.2-0.8-0.9-1.4-1.7-1.3c-0.8,0.1-1.3,0.9-1.1,1.8
		C26.8,27.6,27.6,28.2,28.3,28z"/>
	<path class="st7" d="M29.5,13.1c0,0,1.1,5.1-1,5.1c0,0,0,0-0.1,0c-2.2-0.1-2-4.1-2-4.1l0,0c0.3-0.1,0.6-0.2,1-0.3
		C28.1,13.5,28.8,13.2,29.5,13.1L29.5,13.1z"/>
	<path class="st4" d="M29.5,26.2c0.2,0.9-0.3,1.7-1.1,1.8c-0.8,0.1-1.5-0.4-1.7-1.3c-0.2-0.9,0.3-1.7,1.1-1.8
		C28.5,24.8,29.3,25.4,29.5,26.2z"/>
	<path class="st0" d="M9.7,71c5.1,0,9.2,4.2,9.2,9.3c0,2.2,0.1,7-1.1,11.7H18l5.2-5.2l0.1-0.1c-0.8-1.4-1.1-2.8-1-4.2
		c0.3-5.2,3.7-6.3,3.7-6.3c-1.8-3.4,0.8-6.5,0.8-6.5h-1.9c0,0,0-0.4-0.1-1v0c-2-0.1-4.5-1-4.5-1c-4.1,0.2-7.3,0-9.7-0.3v0
		c0,0-4.6,1.6-7.9,6.6C4.5,72.2,6.9,71,9.7,71z"/>
	<path class="st7" d="M20.1,22.3l-2.3,0l0.7,2.6c0,0-4.7-2.8-4.7-8.2c0-4.1-0.8-5.8-1-6.3l0.2,0.1c0,0,2.1,1.6,2.8,4.5
		C17.2,21.2,20.1,22.3,20.1,22.3z"/>
	<path class="st0" d="M17.7,92c1.2-4.8,1.1-9.5,1.1-11.7c0-5.2-4.1-9.3-9.2-9.3c-2.7,0-5.2,1.2-6.9,3.1c0,0,0,0,0,0
		c-1.4,1.6-2.3,3.8-2.3,6.2c0,2.2,0.7,7,2,11.7H17.7z"/>
	<path class="st7" d="M12.8,10.3c0,0,0,0.1,0.1,0.1L9.1,9l2-0.2l-1-1.8l1.4,1.2l0.6-1.9c0.1,1.6,0.7,3.6,0.9,4.1
		C12.9,10.3,12.8,10.3,12.8,10.3z"/>
	<path class="st9" d="M50,69.6c-0.3,0.2,0.4,2,0.3,2.5c-0.1,0.9-0.7,1.7-1.7,1.6c-1-0.1-2.8-2.6-1.1-2.6"/>
	<path class="st9" d="M47.5,80.3c-1.6-0.2-2.3-3.6-1-4.5c1.2-0.8,2.5,1.3,2.7,2.2C49.6,79.3,49,80.5,47.5,80.3z"/>
	<path class="st9" d="M44,76.7c0.1,1.5-2.3,2.1-1.9,0.3C42.2,76,43.8,75.3,44,76.7z"/>
	<path class="st9" d="M44.6,83.4c1.1,0.8,1.4,1.8,0.3,2.7c-0.4,0.4-1,0.6-1.4,0.9c-0.3,0.2-0.8,0.8-1.2,0.9
		c-1.6,0.3-2.1-3.4-1.2-4.3C42,82.5,43.5,82.7,44.6,83.4z"/>
	<path class="st9" d="M21.2,47.5c1.4,0.5,2.3,2.2,1.3,3.5c-0.8,1-2.1,1.3-3,0.3c-1.5-1.6-0.2-3.5,1.7-3.5"/>
	<path class="st9" d="M18.6,54.2c1.6,1-1.1,3.2-1.6,1.8C16.7,55.1,17.6,53.6,18.6,54.2z"/>
	<path class="st9" d="M15.6,51.5c1.9,2.5-2.4,4.7-3.1,2.1"/>
	<path class="st9" d="M50.4,45.5c-0.7,0.6-1.6,1.6-0.8,2.4c0.8,0.8,1.8,0.3,2.7-0.1"/>
	<path class="st9" d="M52.6,49.4c-0.9,0-1.5,1.4-1.3,2.1c0.3,0.7,1.2,0.8,1.9,0.8"/>
	<path class="st9" d="M32.3,73.3c1,0.9,0.1,3-1.3,2.8c-1-0.2-2.3-1.8-1.3-2.7C30.3,72.8,31.6,72.7,32.3,73.3z"/>
	<path class="st9" d="M35.7,74.9c1.1,0.7-0.5,2.3-1.2,1.4C34,75.5,34.9,74.3,35.7,74.9z"/>
	<path class="st9" d="M65,83.1c-1,0.3-1.7,1.4-1.6,2.5c0.1,0.9,0.8,1.3,1.6,1.6"/>
	<path class="st9" d="M62.7,81.8c0.5,1.4-1,2.7-2.3,2.6c-1.7-0.1-1.1-2.4-0.1-3C61.1,81,62.3,80.8,62.7,81.8z"/>
	<path class="st9" d="M51.6,86c0.7,1.1-0.8,2-1.7,2.1c-1.4,0.2-1-1.6-0.1-2.1C50.2,85.8,51.2,85.5,51.6,86z"/>
	<path class="st9" d="M15.2,57.7c1.7,2-3,2.1-3.1,0.7C11.8,57.2,14.6,57,15.2,57.7z"/>
	<path class="st9" d="M54.6,59c1.1,2.7-4.6,4.1-3.8,1C51.1,58.5,53.9,57.2,54.6,59z"/>
	<path class="st9" d="M34.9,78.3c1.2,0.7,1.8,3.5,1.2,4.7c-0.7,1.5-3.5,1.8-4.5,0.5c-1.3-1.9,1.4-5.9,3.5-4.9"/>
	<path class="st9" d="M37.2,86.2c1.5,1.3-1.3,3.3-2.4,1.8C33.9,86.7,36.1,85.3,37.2,86.2z"/>
	<path class="st9" d="M28.3,82c1.2,2.3-2.7,3.3-3.4,1C24.4,81,27.5,80.3,28.3,82z"/>
	<g>
		<g>
			<path class="st4" d="M27.6,14c-0.7,0.3-1.4,0.5-2.1,0.8c-0.7,0.3-1.4,0.6-2,1l-0.1,0l-0.1,0h0c-0.7,0-1.1-0.2-1.6-0.4
				c-0.5-0.2-0.9-0.4-1.4-0.7c-0.9-0.5-1.7-1.1-2.4-1.7c-1.5-1.2-3.3-1.9-5.2-2.4l0.5-0.7l0,0c0.4,0.7,0.6,1.4,0.8,2.1
				c0.2,0.7,0.3,1.4,0.4,2.1c0.1,0.7,0.1,1.4,0.1,2.1c0,0.3,0,0.7,0,1c0,0.3,0.1,0.6,0.1,0.9c0.2,1.2,0.8,2.4,1.6,3.4
				c0.7,1,1.7,1.9,2.8,2.5h0l0.7,0.5l-0.4,0.6c-0.6,0.9-1.1,2-1.6,3c-0.5,1-0.9,2.1-1.2,3.2c-0.6,2.2-0.9,4.5-0.4,6.7l-0.7-0.1l0,0
				c0.1-0.3,0.3-0.5,0.5-0.8c0.2-0.2,0.4-0.5,0.6-0.7c0.4-0.4,0.9-0.8,1.4-1.1l1.2-0.7l-0.6,1.3v0c-0.4,0.8-0.7,1.7-0.9,2.5
				c-0.2,0.9-0.3,1.8-0.1,2.7l0,0L17,41.3c0.8-1.1,1.6-2,2.5-2.9l0.7-0.7l0.1,1c0.1,1.4,0.2,2.9,0.5,4.2l-0.8-0.2l0,0
				c0.9-1.2,2-2.3,3.5-3.1c0.4-0.2,0.7-0.3,1.2-0.4c0.5,0,0.9,0,1.3,0.1c0.8,0.2,1.5,0.5,2.1,0.8c1.4,0.5,2.7,1,4.1,1.3
				c1.4,0.3,2.8,0.3,4.2,0.1c1.4-0.2,2.8-0.6,4.1-1.2c1.3-0.6,2.5-1.4,3.7-2.2c0.6-0.4,1.2-0.9,1.9-1.2c0.4-0.2,0.7-0.3,1.2-0.4
				c0.5-0.1,0.9,0,1.3,0.1c1.6,0.3,2.9,1.1,4.1,2.1l0,0L51.9,39c-0.1-1.4-0.4-2.8-0.7-4.2v0l-0.2-1l0.8,0.5C53,35,54,35.7,55,36.5
				l0,0l-0.4,0.2c0-0.9-0.3-1.8-0.8-2.6c-0.4-0.8-1-1.6-1.6-2.2l0,0l-0.8-1.2l1.3,0.4c0.6,0.2,1.1,0.4,1.6,0.7
				c0.5,0.3,1,0.7,1.3,1.2l0,0l-0.4,0.2c-0.1-2.3-0.9-4.5-2-6.5c-0.6-1-1.2-2-1.9-2.9c-0.7-0.9-1.5-1.8-2.3-2.6l-0.3-0.3l0.3-0.4
				c0.9-0.9,1.6-2.1,2-3.3c0.5-1.2,0.7-2.5,0.6-3.8c0-0.7-0.2-1.3-0.4-1.9c-0.2-0.7-0.3-1.4-0.4-2c-0.1-0.7-0.2-1.4-0.2-2.1
				c0-0.4,0-0.7,0-1.1c0-0.2,0-0.4,0.1-0.6c0.1-0.2,0.1-0.4,0.2-0.7l0,0l0.6,0.7c-0.9,0.3-1.7,0.8-2.4,1.5c-0.7,0.6-1.3,1.4-1.8,2.2
				c-0.5,0.9-1.2,1.7-1.9,2.4c-0.8,0.7-1.6,1.3-2.7,1.6l0,0l-0.1,0l-0.1,0c-2.4-0.6-5-0.8-7.5-0.8C32.4,12.6,29.9,13,27.6,14
				L27.6,14L27.6,14z M24.4,14.4l2.9-1.1c1.2-0.5,2.5-0.8,3.8-1c1.3-0.2,2.6-0.3,3.9-0.4c1.3,0,2.6,0,3.9,0.1
				c1.3,0.1,2.6,0.2,3.9,0.5l-0.2,0h0c0.8-0.1,1.7-0.6,2.4-1.2c0.7-0.6,1.4-1.4,1.9-2.2c0.5-0.9,1.1-1.7,1.9-2.4
				c0.7-0.7,1.5-1.3,2.5-1.9l1.9-1.1l-1.4,1.8l0,0c0,0-0.1,0.2-0.1,0.3c0,0.1-0.1,0.3-0.1,0.5c0,0.3,0,0.6,0,1c0,0.7,0.1,1.3,0.2,2
				c0.1,0.7,0.3,1.3,0.4,2c0.2,0.6,0.3,1.4,0.4,2.1c0.1,1.4-0.1,2.9-0.7,4.2c-0.5,1.3-1.3,2.5-2.3,3.6l0-0.7
				c0.8,0.9,1.6,1.8,2.3,2.8c0.7,1,1.3,2,1.9,3c1.1,2.1,1.9,4.4,1.9,6.9l0,0.7l-0.4-0.5l0,0c-0.4-0.3-0.8-0.6-1.3-0.9
				c-0.5-0.2-1-0.4-1.5-0.4l0.5-0.8l0,0c0.6,0.8,1.1,1.6,1.5,2.5c0.4,0.9,0.7,1.9,0.6,2.9l0,0.6L54.7,37l0,0c-1-0.7-2.1-1.3-3.2-1.8
				l0.7-0.5v0c0.3,1.4,0.5,2.9,0.5,4.4l0,0.8L52,39.3l0,0c-1.1-0.8-2.4-1.5-3.8-1.7c-0.7-0.1-1.2-0.1-1.8,0.3
				c-0.6,0.3-1.2,0.8-1.8,1.2c-1.2,0.9-2.5,1.7-3.8,2.4c-1.4,0.6-2.9,1.1-4.3,1.3C35,43,33.4,43,31.9,42.7c-1.5-0.3-2.9-0.8-4.3-1.4
				c-0.7-0.3-1.3-0.6-2-0.7c-0.7-0.2-1.1-0.2-1.8,0.1c-1.2,0.5-2.3,1.5-3.2,2.6l0,0l-0.6,0.8l-0.2-1c-0.3-1.5-0.4-2.9-0.5-4.4l0,0
				l0.8,0.3c-0.9,0.8-1.9,1.7-2.6,2.6l-0.4,0.5l-0.1-0.6l0,0c-0.3-1-0.3-2-0.1-3c0.2-1,0.5-1.9,0.9-2.8h0l0.6,0.6
				c-0.5,0.2-0.9,0.5-1.3,0.9c-0.2,0.2-0.4,0.4-0.5,0.6c-0.2,0.2-0.3,0.4-0.4,0.6v0l-0.4,1l-0.3-1.1c-0.6-2.4-0.5-4.8,0-7.2
				c0.3-1.2,0.6-2.3,1-3.5c0.4-1.1,0.9-2.2,1.5-3.3l0.3,1.1l0,0c-1.3-0.9-2.3-1.9-3.1-3.1c-0.8-1.2-1.4-2.6-1.6-4
				c-0.1-0.4-0.1-0.7-0.1-1.1c0-0.3,0-0.7,0-1c0-0.7,0-1.3-0.1-2c0-0.7-0.1-1.3-0.3-2c-0.1-0.6-0.3-1.3-0.6-1.8h0l-1.1-1.3L13,9.8
				c1,0.4,1.9,0.8,2.8,1.2c0.9,0.5,1.8,0.9,2.5,1.6c0.7,0.6,1.5,1.2,2.4,1.6c0.4,0.2,0.9,0.4,1.3,0.6c0.4,0.1,0.9,0.2,1.2,0.2h0
				L23,15C23.5,14.8,23.9,14.6,24.4,14.4z"/>
		</g>
	</g>
	<g>
		<path class="st4" d="M38.5,27.4c-0.2-1.2-0.1-2.4,0.2-3.6c0.3-1.2,1-2.4,2.2-3c0.1-0.1,0.3-0.1,0.4-0.2l0.1,0l0.1,0l0.1,0l0.2-0.1
			c0.3-0.1,0.6-0.1,1-0.1c0.7,0,1.3,0.3,1.8,0.7c1,0.8,1.5,1.8,2.1,2.9l-0.9,0.3c-0.1-1-0.7-2.1-1.6-2.7c-0.9-0.6-1.9-0.5-2.8,0.1
			c-0.8,0.5-1.3,1.5-1.6,2.5c-0.3,1-0.3,2.1-0.3,3.2L38.5,27.4z"/>
	</g>
	<g>
		<path class="st4" d="M37.9,27.7c0.8-0.7,1.7-0.8,2.5-1.1c0.8-0.3,1.7-0.5,2.5-0.9c1.6-0.7,3.1-1.5,4.4-2.9
			c-0.3,0.9-0.9,1.6-1.6,2.3c-0.7,0.7-1.5,1.2-2.3,1.6c-0.8,0.4-1.7,0.8-2.6,1C39.8,27.9,38.8,28.2,37.9,27.7z"/>
	</g>
	<g>
		<path class="st4" d="M44.6,19.2l-1.7,0l-1.4-0.1c-0.5,0-0.9-0.1-1.4-0.1c-0.5-0.1-1-0.1-1.7-0.3c0.3-0.6,0.9-0.9,1.4-1.2
			c0.6-0.2,1.2-0.3,1.8-0.3c0.6,0,1.2,0.2,1.7,0.6C43.9,18.1,44.4,18.6,44.6,19.2z"/>
	</g>
	<g>
		<path class="st4" d="M51.1,5.7c-0.4,1-0.7,2.1-0.8,3.3c-0.1,1.1,0,2.3-0.1,3.5c-0.1,1.2-0.3,2.3-0.6,3.4c-0.4,1.1-0.8,2.2-1.8,3.1
			l0,0l-0.2-0.4l2.2-0.6h0l0.3-0.1l0,0.4L49.9,21l-1.1-0.2l0.8-2.7l0.3,0.3h0L47.7,19l-1.1,0.3l0.9-0.7l0,0c0.8-0.6,1.4-1.7,1.8-2.8
			c0.4-1.1,0.5-2.2,0.6-3.4c0.1-1.1-0.1-2.3,0-3.5c0.1-1.2,0.3-2.3,0.7-3.4L51.1,5.7z"/>
	</g>
	<g>
		<path class="st4" d="M13.2,10.2c0.9,0.8,1.7,1.8,2.2,2.9c0.5,1.1,0.7,2.3,1,3.4c0.3,1.1,0.8,2.2,1.4,3.2c0.6,1,1.4,1.9,2.4,2.3v0
			l1.1,0.5l-1.2,0l-2.3,0l0.2-0.3l0.7,2.6l-0.5,0.1l-0.7-2.6L17.6,22l0.3,0l2.3,0l-0.1,0.5h0c-0.6-0.3-1-0.7-1.5-1.1
			c-0.4-0.4-0.8-0.9-1.1-1.4c-0.6-1-1.1-2.1-1.4-3.3c-0.4-1.1-0.5-2.3-1-3.3c-0.5-1-1.2-2-2.1-2.7L13.2,10.2z"/>
	</g>
	<ellipse transform="matrix(0.9922 -0.1245 0.1245 0.9922 -2.6061 5.5962)" class="st4" cx="43.5" cy="23.7" rx="1.4" ry="1.6"/>
	<g>
		<path class="st4" d="M30.7,28.8c-0.3-1-0.7-2.1-1.2-3c-0.6-0.9-1.4-1.6-2.3-1.8c-1-0.2-1.9,0-2.5,0.8c-0.6,0.8-0.8,1.9-0.8,2.9
			l-0.9,0c0-1.2,0.2-2.5,1-3.5c0.4-0.5,1-1,1.6-1.2c0.3-0.1,0.7-0.1,1-0.2l0.2,0l0.1,0l0.1,0l0.1,0c0.2,0,0.3,0,0.5,0.1
			c1.3,0.3,2.3,1.2,3,2.3c0.6,1,1.1,2.1,1.3,3.3L30.7,28.8z"/>
	</g>
	<g>
		<path class="st4" d="M32.4,28.7c-0.8,0.5-1.8,0.6-2.7,0.7c-0.9,0.1-1.9,0.1-2.8,0c-0.9-0.1-1.9-0.4-2.7-0.7
			c-0.9-0.4-1.7-1-2.2-1.7c1.6,0.9,3.3,1.3,5.1,1.5c0.9,0.1,1.8,0.1,2.6,0.2C30.5,28.5,31.4,28.5,32.4,28.7z"/>
	</g>
	<g>
		<path class="st4" d="M23.3,22.6c0-0.7,0.3-1.3,0.7-1.7c0.4-0.5,0.9-0.8,1.5-1.1c0.6-0.2,1.2-0.3,1.8-0.3c0.6,0.1,1.2,0.3,1.7,0.7
			c-0.6,0.4-1,0.6-1.5,0.8c-0.5,0.2-0.9,0.4-1.3,0.5l-1.3,0.5L23.3,22.6z"/>
	</g>
	<ellipse transform="matrix(-0.9825 0.1862 -0.1862 -0.9825 60.571 47.1977)" class="st4" cx="28.1" cy="26.4" rx="1.4" ry="1.6"/>
	<path class="st4" d="M39.7,31c0.1,1.1-3.7,3.1-3.7,3.1s-4.3-1-4.4-2.1c-0.1-1.1,1.6-2.2,3.8-2.5C37.6,29.3,39.6,29.9,39.7,31z"/>
	<g>
		<path class="st4" d="M25.9,34.7c1.7,0.8,3.6,1.4,5.5,1.7c1.9,0.3,3.9,0.3,5.8,0c1.9-0.3,3.7-1.1,5.3-2.2c1.6-1.1,2.9-2.5,3.9-4.2
			l0.8,0.5c-1.2,1.6-2.6,3.1-4.3,4.2c-1.7,1.1-3.6,1.9-5.6,2.2c-2,0.4-4,0.3-6,0.1c-2-0.3-3.9-0.8-5.8-1.5L25.9,34.7z"/>
	</g>
	<g>
		<path class="st4" d="M45.5,29.7c0.6-0.2,1.2,0.1,1.6,0.5c0.4,0.4,0.6,1.1,0.3,1.6c-0.5-0.4-0.7-0.7-1-1
			C46.1,30.6,45.9,30.3,45.5,29.7z"/>
	</g>
	<g>
		<path class="st4" d="M26.4,34.2c-0.1,0.2-0.1,0.4-0.1,0.5c0,0.1,0,0.3,0,0.4c-0.1,0.3-0.1,0.6-0.5,1c-0.4-0.3-0.5-0.7-0.5-1.2
			c0.1-0.2,0.1-0.5,0.3-0.6C25.8,34.1,26.1,34,26.4,34.2z"/>
	</g>
	<g>
		<path class="st4" d="M33.6,38.2c1.2,0.2,2.4,0.3,3.5,0.1c0.6-0.1,1.1-0.2,1.7-0.5c0.5-0.2,1-0.5,1.5-0.9c-0.7,1-1.9,1.7-3.1,1.8
			c-0.6,0.1-1.2,0.1-1.8,0C34.7,38.6,34.1,38.5,33.6,38.2z"/>
	</g>
	<g>
		<path class="st4" d="M50.9,6l0-0.5c0,0,0.2-2.5-0.2-4.3L50.5,0L52,2.5l1.6-2.2l-0.7,2.9l2.6-0.4L50.9,6z M51.3,2.3
			c0.1,1.1,0.1,2.2,0.1,2.8l2.2-1.5l-1.3,0.2l0.3-1.2L52,3.4L51.3,2.3z"/>
	</g>
	<g>
		<path class="st4" d="M13.4,10.8l-5.3-2l2.6-0.3L9.4,5.9l2.1,1.8l0.9-2.8l0.1,1.3c0.1,1.8,0.9,4.1,0.9,4.2L13.4,10.8z M10.2,9.1
			l2.5,0.9c-0.2-0.6-0.5-1.6-0.6-2.7l-0.4,1.2l-0.8-0.6l0.6,1.1L10.2,9.1z"/>
	</g>
	<g>
		<path class="st4" d="M37.9,12.2c0.4,0.8,0.8,1.6,1,2.5c0.1,0.4,0.2,0.9,0,1.4c-0.2,0.5-0.7,0.7-1.2,0.8c-0.5,0-1-0.2-1.3-0.5
			c-0.3-0.3-0.6-0.7-0.7-1.1c-0.3-0.8-0.5-1.7-0.6-2.6l0.5,0c0.1,0.8,0.2,1.7,0.5,2.5c0.3,0.8,0.9,1.5,1.6,1.5
			c0.4,0,0.8-0.2,0.9-0.6c0.1-0.3,0.1-0.8,0-1.2c-0.2-0.8-0.6-1.6-1-2.3L37.9,12.2z"/>
	</g>
	<g>
		<path class="st4" d="M34.4,12.3c0.3,1.1,0.5,2.2,0.6,3.3c0,0.6,0.1,1.1,0,1.7c0,0.3-0.1,0.6-0.2,0.8c-0.1,0.3-0.4,0.5-0.7,0.6
			c-0.3,0.1-0.7,0-0.9-0.2c-0.2-0.2-0.4-0.4-0.6-0.6c-0.3-0.5-0.5-1-0.7-1.5c-0.4-1-0.6-2.1-0.9-3.2l0.5-0.1
			c0.1,1.1,0.4,2.1,0.7,3.2c0.2,0.5,0.4,1,0.7,1.5c0.3,0.4,0.7,0.9,1.1,0.7c0.5-0.1,0.7-0.7,0.7-1.2c0.1-0.5,0-1.1,0-1.6
			c-0.1-1.1-0.4-2.1-0.7-3.2L34.4,12.3z"/>
	</g>
	<g>
		<path class="st4" d="M29.7,13c0.2,0.9,0.2,1.8,0.2,2.7c0,0.5,0,0.9-0.2,1.4c-0.1,0.4-0.4,1-0.9,1.1c-0.5,0.1-1,0-1.4-0.3
			c-0.4-0.3-0.6-0.7-0.8-1.2c-0.3-0.9-0.4-1.8-0.4-2.7l0.5,0c-0.1,0.9,0,1.8,0.3,2.6c0.1,0.4,0.4,0.8,0.7,1c0.3,0.3,0.8,0.4,1.1,0.3
			c0.4-0.1,0.6-0.5,0.7-0.9c0.1-0.4,0.1-0.9,0.1-1.3c0-0.9-0.2-1.8-0.4-2.6L29.7,13z"/>
	</g>
	<g>
		<path class="st4" d="M15.2,35.4c0.8-1.5,2.2-2.4,3.7-3.1c1.5-0.6,3.1-0.9,4.6-0.9c3.2-0.1,6.3,0.4,9.3,1.2l-0.1,0.5
			c-1.5-0.5-3-0.8-4.6-1.1c-1.5-0.2-3.1-0.4-4.7-0.3c-1.5,0.1-3.1,0.4-4.5,1c-1.4,0.6-2.7,1.6-3.4,2.9L15.2,35.4z"/>
	</g>
	<g>
		<path class="st4" d="M54.5,29c-1-1-2.6-1.5-4.1-1.5c-1.5-0.1-3,0.2-4.5,0.7c-2.9,1-5.5,2.7-7.9,4.6l-0.3-0.4
			c2.5-1.8,5.1-3.5,8.1-4.5c1.5-0.5,3-0.9,4.6-0.8c0.8,0,1.6,0.1,2.3,0.4c0.8,0.2,1.5,0.6,2.1,1.1L54.5,29z"/>
	</g>
	<g>
		<path class="st4" d="M39.9,41.1c0.3,0.5,0.7,1.1,1.1,1.5c0.2,0.2,0.5,0.4,0.8,0.5c0.1,0.1,0.3,0.1,0.4,0.1c0.1,0,0.2,0,0.3,0.1
			c0.1,0,0.2,0.1,0.3,0.1c1.3,0.7,2.2,1.7,3.2,2.7c0.9,1,1.8,2,2.6,3.2c0.8,1.1,1.5,2.3,2.2,3.5l0.4,0.7l-0.8-0.2l-1.7-0.5l0.5-0.6
			c0.8,1.1,1.4,2.2,1.9,3.5l0.3,0.9l-0.9-0.3c-0.5-0.2-1.1-0.3-1.5-0.5l0.5-0.4c-0.1,1.3-0.1,2.5-0.3,3.7c-0.2,1.2-0.6,2.4-1.2,3.6
			c-1.2,2.2-2.9,4.1-5,5.5l-0.4,0.3l-0.3-0.4c-0.8-1.1-1.6-2.1-2.5-3.2c-0.4-0.5-0.9-1-1.3-1.5c-0.5-0.5-0.9-1-1.4-1.3l0.5-0.8
			c0.6,0.4,1.1,0.9,1.6,1.4c0.5,0.5,0.9,1,1.4,1.5c0.9,1,1.7,2.1,2.6,3.2l-0.7-0.1c1.9-1.3,3.6-3.1,4.6-5.2c0.5-1,1-2.1,1.3-3.3
			c0.2-0.6,0.3-1.1,0.4-1.7c0.1-0.6,0.1-1.2,0-1.7l-0.1-0.5l0.7,0.1c0.5,0.1,1.1,0.3,1.6,0.4l-0.6,0.6c-0.4-1.1-1-2.3-1.7-3.3
			l-0.6-1l1.1,0.4l1.7,0.6L50.1,53c-1.1-2.4-2.7-4.7-4.5-6.6c-0.9-0.9-1.9-1.9-3.1-2.5c-0.1-0.1-0.2-0.1-0.4-0.1
			c-0.2,0-0.4-0.1-0.6-0.1c-0.4-0.1-0.7-0.3-1-0.5c-0.6-0.4-1.1-1-1.5-1.6L39.9,41.1z"/>
	</g>
	<g>
		<path class="st4" d="M3.2,74.3l-0.8-0.5c3.3-5.1,7.9-6.8,8.1-6.9l0.3,0.9C10.8,67.9,6.3,69.5,3.2,74.3z"/>
	</g>
	<g>
		<path class="st4" d="M0.6,85.8C1,87.9,1.5,90,2,92h1c-0.6-2.1-1-4.2-1.4-6.4c-0.2-1.1-0.4-2.2-0.5-3.3c-0.1-1.1-0.2-2.2,0-3.2
			c0.6-4.2,4.4-7.6,8.6-7.7c2.1-0.1,4.2,0.7,5.8,2c1.6,1.4,2.7,3.4,3,5.5c0.1,1,0.1,2.2,0.1,3.3c0,1.1-0.1,2.2-0.2,3.3
			c-0.2,2.2-0.5,4.3-1.1,6.4h0.1l0.2-0.2V92h0.6c0.9-4.3,1.1-8.7,0.9-13.1c-0.3-2.3-1.4-4.5-3.1-6c-1.7-1.6-4-2.5-6.4-2.6
			c-2.3,0-4.8,0.8-6.5,2.5c-1.8,1.6-2.8,3.9-3.1,6.2c-0.1,1.2,0,2.3,0.1,3.4C0.3,83.6,0.5,84.7,0.6,85.8z"/>
	</g>
	<g>
		<path class="st4" d="M114,92h1c-0.5-2.1-0.8-4.2-1-6.4c-0.1-1.1-0.1-2.2-0.1-3.3c0-1.1-0.1-2.3,0-3.3c0.1-2.1,1.2-4.2,2.9-5.6
			c1.6-1.4,3.8-2.1,5.9-2c4.2,0.1,8,3.5,8.6,7.7c0.2,1,0.1,2.1,0,3.2c-0.1,1.1-0.3,2.2-0.5,3.3c-0.4,2.1-0.8,4.3-1.4,6.4h1
			c0.5-2.1,1-4.1,1.3-6.2c0.2-1.1,0.4-2.2,0.5-3.3c0.1-1.1,0.2-2.3,0.1-3.4c-0.2-2.3-1.3-4.6-3.1-6.2c-1.7-1.6-4.2-2.5-6.5-2.5
			c-2.4,0-4.7,1-6.4,2.6c-1.7,1.6-2.9,3.7-3.3,6c-0.1,0.3-0.1,0.6-0.1,0.9c0,0.3,0,0.6,0,0.8c0,0.6,0,1.1,0,1.7
			c0,1.1,0.1,2.2,0.1,3.4C113.2,87.8,113.5,90,114,92z"/>
	</g>
	<g>
		<path class="st10" d="M16.2,50.9"/>
	</g>
	<g>
		<path class="st4" d="M106.4,16.5c-3-1.9-6.8-2.7-10.4-2.3c-1.8,0.2-3.6,0.8-5.1,1.6c-1.6,0.9-2.9,2.1-4.1,3.5
			c-2.4,2.8-4,6.2-6.1,9.2c-1.1,1.5-2.3,3-3.9,4.2c-1.6,1.2-3.4,1.9-5.4,2.1l-0.1-0.9c1.8-0.2,3.5-0.8,4.9-1.9
			c1.5-1,2.6-2.4,3.7-3.9c2.1-3,3.8-6.4,6.2-9.3c1.2-1.4,2.7-2.7,4.4-3.6c1.7-0.9,3.5-1.5,5.4-1.7c1.9-0.3,3.8-0.1,5.7,0.3
			c1.9,0.4,3.6,1,5.3,2.1L106.4,16.5z"/>
	</g>
	<g>
		<path class="st4" d="M105.2,18.5c-0.1-0.8,0.1-1.7,0.5-2.4c0.4-0.7,0.9-1.4,1.6-1.9c0.7-0.5,1.5-0.9,2.4-1c0.9-0.1,1.7,0,2.6,0.4
			c0.9,0.4,1.5,1.3,1.7,2.2c0.2,0.9,0,1.8-0.3,2.6c-0.3,0.8-0.8,1.5-1.4,2.1c-0.6,0.5-1.6,0.9-2.4,0.5c0.8-0.3,1.3-0.7,1.7-1.2
			c0.5-0.5,0.8-1.1,1.1-1.8c0.5-1.3,0.2-2.8-0.9-3.2c-0.5-0.3-1.3-0.3-1.9-0.3c-0.7,0.1-1.3,0.3-1.8,0.7c-0.6,0.4-1,0.9-1.4,1.5
			C106.1,17.2,105.8,17.9,105.2,18.5z"/>
	</g>
	<g>
		<path class="st4" d="M88.6,16.8c0-0.1-0.9-2.5,0.1-4.4c0.5-1,1.4-1.7,2.7-2c1.1-0.3,2.1-0.1,2.9,0.4c1.4,1,1.7,3,1.7,3L95,14
			c0,0-0.2-1.6-1.3-2.4c-0.5-0.4-1.3-0.5-2.1-0.3c-1,0.3-1.7,0.8-2.1,1.5c-0.8,1.5-0.1,3.6-0.1,3.7L88.6,16.8z"/>
	</g>
	<g>
		<path class="st4" d="M105.8,17.1c-1.5-0.4-3.3-0.4-4.9-0.2c-1.6,0.3-3.2,0.9-4.7,1.8c-2.9,1.8-5,4.6-7,7.3c-2,2.7-3.9,5.7-6.9,7.6
			c-1.5,0.9-3.2,1.5-4.9,1.8c-1.7,0.3-3.5,0.4-5.2,0.4l0-0.9c3.3,0.3,6.9,0.1,9.8-1.6c1.5-0.8,2.7-2,3.8-3.3
			c1.1-1.3,2.1-2.7,3.1-4.1c2-2.7,4.1-5.6,7-7.4c1.4-0.9,3.1-1.7,4.8-2c1.7-0.4,3.5-0.5,5.3-0.1L105.8,17.1z"/>
	</g>
	<g>
		<path class="st4" d="M112.6,24c-1.6-0.5-3.5-0.4-5.3-0.1c-1.8,0.4-3.4,1.1-5,2.1c-1.6,0.9-2.9,2.2-4.2,3.5
			c-1.4,1.2-2.7,2.5-4.2,3.6c-1.5,1.1-3,2.1-4.7,2.9c-1.7,0.8-3.5,1.2-5.3,1.5c-3.7,0.5-7.4,0-11.1-0.7l0.2-1
			c3.5,1,7.1,1.6,10.8,1.2c1.8-0.2,3.6-0.6,5.3-1.3c1.7-0.7,3.2-1.7,4.7-2.8c1.4-1.1,2.8-2.4,4.1-3.6c1.3-1.2,2.7-2.5,4.2-3.6
			c1.5-1,3.2-1.8,5.1-2.3c1.8-0.5,3.7-0.6,5.6-0.2L112.6,24z"/>
	</g>
	<g>
		<path class="st4" d="M96.1,28.1c0.4-0.7,0.4-1.9,0-2.5c-0.1-0.1-0.1-0.1-0.2-0.2c-0.1-0.1-0.2-0.1-0.3-0.2
			C95.4,25.1,95.2,25,95,25c-0.4-0.2-0.8-0.2-1.2-0.1c-0.8,0.2-1.5,0.9-2.1,1.6c-0.6,0.8-1,1.7-1.4,2.5l0,0l-0.5-0.6
			c1.2-0.3,2.4-0.5,3.7-0.5c0.6,0,1.2,0,1.9,0c0.6,0,1.2,0.1,1.8,0.5c-0.6,0.3-1.2,0.3-1.8,0.4c-0.6,0-1.2,0.1-1.8,0.2L90,29.3
			l-0.9,0.1l0.3-0.7l0,0c0.4-1,0.8-1.9,1.5-2.8c0.6-0.8,1.5-1.7,2.7-1.9c0.6-0.1,1.2,0,1.7,0.2c0.3,0.1,0.5,0.3,0.7,0.4
			c0.1,0.1,0.2,0.2,0.3,0.2c0.1,0.1,0.3,0.2,0.3,0.4c0.3,0.6,0.4,1.1,0.4,1.7c0,0.5-0.1,1.1-0.5,1.6L96.1,28.1z"/>
	</g>
	<circle class="st4" cx="93.5" cy="26.4" r="1.5"/>
	<path class="st4" d="M98,24.1c0,0-0.9-2-4-1.2c0,0-0.9-0.2-0.5-1.2c0.4-1,1.8-1.5,3.3-0.7C98.3,21.7,99.3,24.5,98,24.1z"/>
	<path class="st4" d="M74.9,35.6c0,1-1.2,2.7-2.6,2.7c-1.4,0-2.6-1.6-2.6-2.7c0-1,1.2-1.9,2.6-1.9C73.8,33.7,74.9,34.5,74.9,35.6z"
		/>
	<g>
		<path class="st4" d="M98.1,92c0.2-0.2,0.3-0.4,0.5-0.6c1.2-1.4,2.2-3,3-4.6c0.8-1.6,1.5-3.2,2-5c3.5-2.1,6.9-4.6,9.7-7.8
			c2.8-3.2,4.9-7.1,5.6-11.4c0.7-4.3-0.1-8.7-1.8-12.6c-0.8-2-1.9-3.8-3-5.6c-1.2-1.8-2.5-3.4-4-4.9l-0.7,0.7
			c2.7,3.1,4.9,6.6,6.5,10.4c1.5,3.8,2.3,7.9,1.7,11.9c-0.6,4-2.5,7.7-5.1,10.8c-2.7,3.1-5.9,5.7-9.4,7.9l-0.2,0.1l0,0.2v0
			c-0.5,1.7-1.2,3.4-2,5c-0.8,1.6-1.8,3.1-2.9,4.5c-0.3,0.4-0.7,0.8-1,1.2H98.1z"/>
	</g>
	<g>
		<path class="st4" d="M87.4,52.8l-0.8-0.4c1.8-3.6,1.4-7.8,1.4-7.8l0.9-0.1C88.9,44.7,89.3,49,87.4,52.8z"/>
	</g>
	<g>
		<path class="st4" d="M67,92c0-3.2,0.5-6.3,1.7-9.3c0.6-1.6,1.5-3.2,2.5-4.6c1-1.4,2.3-2.6,3.8-3.4L74.5,74
			c-1.6,1.1-2.8,2.4-3.8,3.9c-1,1.5-1.9,3.1-2.5,4.7c-1.2,3-1.8,6.3-2,9.5H67z"/>
	</g>
	<g>
		<path class="st4" d="M82.4,25.5c-16.1-2.8-29.8-0.4-30-0.4l-0.2-0.9c0.1,0,14-2.4,30.3,0.4L82.4,25.5z"/>
	</g>
	<g>
		<path class="st4" d="M129.1,74.3c-3.1-4.8-8.6-7.4-8.7-7.4l-0.4-0.2l0.1-0.4c5.9-22.4-5.2-30.6-5.3-30.7l0.5-0.8
			c0.5,0.3,11.7,8.5,5.8,31.3c1.3,0.7,5.9,3.2,8.7,7.6L129.1,74.3z"/>
	</g>
	<g>
		<path class="st4" d="M17.5,39.4c-0.8,0.9-1.5,1.9-2,3c-0.5,1.1-0.9,2.2-1.2,3.4c-0.3,1.2-0.4,2.4-0.5,3.6c0,1.2,0,2.4,0.2,3.6
			L13.1,53c0-2.5,0.2-5,0.7-7.4c0.5-2.4,1.5-4.8,2.9-6.8L17.5,39.4z"/>
	</g>
	<g>
		<path class="st4" d="M86.1,43.9c1.2,0.1,2.5,0,3.7-0.2c1.2-0.2,2.4-0.6,3.5-1.3c1.1-0.6,2-1.5,2.6-2.5c0.6-1.1,0.8-2.3,0.7-3.5
			l0.9,0c-0.1,1.3-0.5,2.6-1.2,3.7c-0.7,1.1-1.7,2-2.8,2.6c-1.1,0.6-2.3,1.1-3.6,1.4c-1.2,0.3-2.5,0.5-3.8,0.7L86.1,43.9z"/>
	</g>
	<g>
		<path class="st4" d="M95.2,36.6c0.4-0.6,1.2-0.8,1.8-0.6c0.7,0.2,1.2,0.7,1.3,1.4c-0.7-0.2-1.1-0.4-1.5-0.5
			C96.3,36.8,95.9,36.7,95.2,36.6z"/>
	</g>
	<g>
		<polygon class="st4" points="89.2,70.2 88.8,69.3 91.8,68.1 91.9,67.7 92.8,67.9 92.6,68.8 		"/>
	</g>
	<g>
		
			<rect x="93.5" y="58.1" transform="matrix(0.9758 0.2188 -0.2188 0.9758 15.4955 -19.0949)" class="st4" width="0.9" height="4.7"/>
	</g>
	<g>
		<path class="st4" d="M89.6,62.6c0.2-0.6,0.3-1.1,0.4-1.7c0.1-0.6,0.3-1.2,0.4-1.7l0.3-1.7c0.1-0.6,0.2-1.2,0-1.8l0.5,0.5l-13-0.1
			l0.2-0.1L76,57.8l0.1-0.2l-0.6,3l-0.3-0.3l10.6-1.9l-0.2,0.1l4.8-3.2l0.5,0.8l-4.9,3.1l-0.1,0l-0.1,0l-10.7,1.6l-0.3,0l0.1-0.3
			l0.6-3.1l0-0.1l0.1-0.1l2.4-1.9l0.1-0.1l0.1,0l13-0.1l0.8,0l-0.3,0.6c-0.3,0.5-0.5,1.1-0.5,1.7l-0.2,1.8c-0.1,0.6-0.1,1.2-0.2,1.8
			c-0.1,0.6-0.1,1.2-0.1,1.8L89.6,62.6z"/>
	</g>
	<g>
		<polygon class="st4" points="35.1,57.3 28.7,57 22.4,56.7 22.5,56.7 20.1,58.5 20.2,58.4 19.6,61.4 19.3,61.1 30,59.4 29.9,59.4 
			34.9,56.4 35.3,57.2 30.1,59.7 30.1,59.7 30,59.7 19.4,61.6 19,61.7 19.1,61.3 19.7,58.3 19.7,58.2 19.8,58.1 22.2,56.2 
			22.3,56.2 22.4,56.2 28.7,56.2 35.1,56.3 		"/>
	</g>
	<g>
		<polygon class="st4" points="89.4,70.2 80.1,70.2 79.7,67.6 80.6,67.5 80.9,69.3 88.6,69.3 88.8,67.7 89.8,67.8 		"/>
	</g>
	<g>
		<rect x="78" y="60.6" transform="matrix(0.1568 0.9876 -0.9876 0.1568 127.0637 -26.612)" class="st4" width="2.2" height="0.9"/>
	</g>
	<g>
		<polygon class="st4" points="91.5,55.3 94.4,57.5 94.3,57.5 98.3,58.6 97.8,59 97.3,56.8 97.5,57 94.9,55.6 95.2,55.6 91.3,56.2 
			91.2,55.2 95.1,54.7 95.3,54.7 95.4,54.8 97.8,56.4 98,56.5 98,56.7 98.5,58.8 98.6,59.4 98.1,59.3 94.1,58.1 94,58.1 94,58.1 
			90.9,56.1 		"/>
	</g>
	<g>
		<polygon class="st4" points="35.1,56.5 37.9,58.8 37.8,58.8 41.8,59.8 41.5,60.1 41,57.9 41.1,58.1 38.6,56.6 38.8,56.6 
			34.9,57.3 34.7,56.4 38.7,56 38.8,56 38.9,56 41.4,57.6 41.5,57.7 41.5,57.8 42,60 42,60.4 41.7,60.3 37.7,59.2 37.7,59.2 
			37.6,59.1 34.5,57.2 		"/>
	</g>
	<g>
		<path class="st4" d="M79.4,55.3c1.1-0.8,2.2-1.4,3.3-2c1.2-0.5,2.4-1,3.8-1c1.3,0,2.6,0.4,3.8,0.9c1.2,0.5,2.3,1.1,3.5,1.8
			l-0.6,0.8c-0.9-0.8-2-1.5-3.1-2c-1.1-0.5-2.3-0.9-3.5-0.9c-1.2,0-2.4,0.4-3.5,1c-1.1,0.6-2.1,1.3-3,2.2L79.4,55.3z"/>
	</g>
	<g>
		<path class="st4" d="M23.8,56.1c1.1-0.7,2.1-1.4,3.3-1.9c1.2-0.5,2.4-1,3.7-0.9c1.3,0,2.5,0.4,3.7,0.9c1.2,0.5,2.3,1.1,3.4,1.8
			l-0.6,0.8c-0.9-0.8-2-1.4-3.1-1.9c-1.1-0.5-2.3-0.9-3.5-1c-1.2,0-2.4,0.4-3.4,0.9c-1.1,0.6-2.1,1.3-3,2.1L23.8,56.1z"/>
	</g>
	<g>
		<path class="st4" d="M87.4,63.4c0.4,0.2,0.8,0.3,1.2,0.4c0.4,0.1,0.9,0.2,1.3,0.2c-0.4,0.1-0.9,0.2-1.3,0.3
			c-0.5,0.1-0.9,0.1-1.4,0c-0.3,0-0.5-0.2-0.4-0.5c0-0.3,0.2-0.5,0.5-0.4C87.3,63.4,87.3,63.4,87.4,63.4z"/>
	</g>
	<g>
		<path class="st4" d="M86.9,65.4c0.4,0.1,0.8,0.2,1.3,0.2c0.4,0,0.9,0,1.3-0.1c-0.4,0.2-0.8,0.4-1.3,0.5c-0.4,0.1-0.9,0.2-1.4,0.3
			c-0.3,0-0.5-0.2-0.5-0.4c0-0.3,0.2-0.5,0.4-0.5C86.8,65.4,86.9,65.4,86.9,65.4z"/>
	</g>
	<g>
		<g>
			<path class="st4" d="M79,66.9c0.3,0.1,0.7,0.2,1,0.2c0.4,0,0.7,0,1.1,0c0.3-0.1,0.6-0.3,0.6-0.6c0-0.2-0.2-0.6-0.5-0.7l0.4-0.6
				l0.1-0.2c0,0.1,0.1,0.1,0.2-0.1c0.1-0.1,0.1-0.4,0.1-0.6c0-0.1-0.1-0.2-0.3-0.3c-0.2-0.1-0.5-0.1-0.7-0.1v0L80,63.4l0.8-0.2
				c0.3-0.1,0.7-0.4,0.7-0.6c0-0.1-0.1-0.3-0.2-0.4c-0.1-0.1-0.3-0.1-0.5-0.2c-0.4,0-0.8,0.1-1.2,0.3c-0.4,0.2-0.8,0.4-1,0.6
				c-0.5,0.6-0.8,1.5-0.8,2.3C77.8,66.1,78.2,66.7,79,66.9L79,66.9z M78.7,67.8c-0.5-0.2-1-0.5-1.3-0.9c-0.3-0.5-0.5-1.1-0.5-1.6
				c0.1-1.1,0.5-2,1.1-2.8c0.4-0.5,0.9-0.6,1.4-0.8c0.5-0.1,1-0.2,1.5-0.2c0.5,0,1.2,0.4,1.3,1.1c0,0.4-0.1,0.7-0.3,0.9
				c-0.2,0.2-0.4,0.4-0.6,0.6l-0.2-0.9h0c0.3,0.1,0.6,0.2,0.9,0.3c0.3,0.2,0.6,0.4,0.7,0.9c0,0.4,0,0.6-0.1,1
				c-0.1,0.3-0.5,0.7-1.1,0.7l0.4-0.8l0,0c0.2,0.5,0.4,0.9,0.3,1.4c-0.1,0.5-0.6,0.9-1,1c-0.4,0.2-0.8,0.2-1.3,0.2
				C79.6,68,79.1,67.9,78.7,67.8L78.7,67.8L78.7,67.8z"/>
		</g>
	</g>
	<g>
		<path class="st4" d="M81.4,64c-0.5,0-1,0-1.4,0c-0.5-0.1-0.9-0.2-1.3-0.3c0.4,0,0.9-0.1,1.3-0.2c0.4-0.1,0.8-0.2,1.2-0.4
			c0.2-0.1,0.5,0,0.6,0.2c0.1,0.2,0,0.5-0.2,0.6C81.5,64,81.4,64,81.4,64z"/>
	</g>
	<g>
		<path class="st4" d="M81.7,66c-0.5,0-0.9-0.1-1.4-0.3c-0.4-0.1-0.9-0.3-1.3-0.5c0.4,0.1,0.9,0.1,1.3,0.1c0.4,0,0.9-0.1,1.3-0.2
			c0.3-0.1,0.5,0.1,0.6,0.3c0.1,0.3-0.1,0.5-0.3,0.6C81.8,66,81.7,66,81.7,66z"/>
	</g>
	<g>
		<g>
			<path class="st4" d="M112.5,60.8c0.1-0.1,0.1-0.3,0.2-0.4c0.1-0.2,0.1-0.4,0.2-0.6c0.1-0.4,0.2-0.9,0.2-1.3l0.2,0.3l0,0l-2.3-0.2
				l-0.5,0l0.2-0.6v0l1.3-2.8l0.3,0.3h0l-3.7,0.7l-0.4,0.1l0-0.4v0l0.2-2.4l0.4,0.3l0,0l-2.1,0.5l-0.6,0.1l0.2-0.6l0,0
				c0.3-1.1,0.2-2.3,0.1-3.4l0.7,0.1l0,0c-0.8,1.6-1.7,3.1-2.8,4.5c-1.1,1.4-2.2,2.8-3.6,3.9c-1.3,1.2-2.8,2.2-4.5,3
				c-1.6,0.8-3.4,1.2-5.2,1.4l-0.1,0l-0.1,0l0,0c-0.9-0.3-1.9-0.6-2.8-0.6c-0.2,0-0.4,0-0.6,0.1c-0.1,0.1-0.2,0.1-0.2,0.3
				c0,0.1,0,0.1,0,0.2c0.1,0.1,0.3,0.2,0.4,0.2l-0.1,0.9h0c-0.3-0.1-0.6-0.1-0.9-0.1c-0.3,0-0.5,0.2-0.5,0.3c0,0,0,0.2,0,0.2
				c0,0.1,0,0.1,0,0.2c0,0.1,0.1,0.2,0.2,0.3c0.2,0.1,0.5,0.1,0.7,0.1l0,0l0.2,0.9l0,0c-0.2,0-0.4,0.2-0.5,0.3
				c-0.1,0.1,0,0.4,0.1,0.6c0.2,0.3,0.9,0.3,1.5,0.3l0.9-0.1c0.3,0,0.7,0,1,0c0.6,0,1.2,0,1.8,0c2.5-0.1,4.9-0.3,7.3-0.8
				c2.4-0.5,4.8-1.2,7-2.1C108.5,63.6,110.7,62.3,112.5,60.8z M113.2,61.4c-2,1.7-4.2,2.9-6.5,3.8c-2.3,1-4.7,1.6-7.2,2.1
				c-2.5,0.5-5,0.7-7.5,0.7c-0.6,0-1.3,0-1.9,0c-0.3,0-0.6,0-0.9,0c-0.3,0-0.6,0-0.9,0.1c-0.3,0-0.6,0-1,0c-0.3-0.1-0.7-0.2-1-0.5
				c-0.2-0.4-0.3-0.8-0.2-1.2c0.2-0.4,0.5-0.7,0.8-0.9l0.2,0.9h0c-0.4-0.1-0.8-0.3-1.1-0.6c-0.3-0.3-0.4-0.8-0.4-1.1
				c0-0.2,0.2-0.5,0.3-0.6c0.2-0.1,0.3-0.2,0.5-0.3c0.4-0.1,0.7-0.2,1.1-0.3h0l-0.1,0.9c-0.3-0.1-0.6-0.2-0.9-0.4
				c-0.3-0.3-0.4-0.8-0.3-1.2l0-0.1c0-0.1,0-0.1,0.1-0.2c0-0.1,0.1-0.2,0.2-0.3c0.1-0.2,0.3-0.3,0.5-0.3c0.3-0.1,0.6-0.2,0.9-0.2
				c1.2,0,2.2,0.3,3.2,0.7l0,0l-0.2,0c1.7-0.1,3.4-0.5,4.9-1.2c1.6-0.7,3-1.7,4.3-2.8c1.3-1.1,2.5-2.4,3.5-3.8c1-1.4,2-2.8,2.7-4.4
				l0,0l0.5-1l0.2,1.1c0.1,0.6,0.1,1.2,0.1,1.9c0,0.6-0.1,1.3-0.3,1.9l0,0l-0.4-0.4l2.1-0.5l0,0l0.4-0.1l0,0.4l-0.2,2.4v0l-0.3-0.3
				l3.7-0.7l0,0l0.4-0.1l-0.1,0.5l-0.9,2.9l0,0l-0.4-0.6l2.2,0.5h0l0.2,0l0,0.3c0,0.5,0,0.9,0,1.4c0,0.2,0,0.5-0.1,0.7
				c0,0.2-0.1,0.5-0.2,0.8L113.2,61.4L113.2,61.4z"/>
		</g>
	</g>
	<g>
		<path class="st4" d="M103.6,41.6c0,0.9,0,1.8,0.1,2.7c0.1,0.9,0.2,1.8,0.4,2.7c0.4,1.7,1,3.5,2,4.9c0.2,0.2,0.1,0.5-0.1,0.7
			c-0.2,0.2-0.5,0.1-0.7-0.1c0,0,0,0,0,0c-1.1-1.6-1.7-3.4-2-5.2c-0.2-0.9-0.4-1.8-0.5-2.7c-0.1-0.9-0.2-1.8-0.2-2.8
			c0-0.3,0.2-0.5,0.5-0.5C103.4,41.1,103.6,41.3,103.6,41.6C103.6,41.6,103.6,41.6,103.6,41.6L103.6,41.6z"/>
	</g>
	<g>
		<path class="st4" d="M78.7,92c0.3-3.6,1.5-7.1,3.7-10c1.1-1.5,2.4-2.8,4-3.9c0.8-0.5,1.5-1,2.4-1.4c0.9-0.4,1.7-0.8,2.6-1.2
			c1.7-0.7,3.5-1.3,5.4-1.8c1.8-0.5,3.6-1.3,5.3-2.2c1.7-1,3.2-2.1,4.6-3.5c1.4-1.4,2.6-2.8,3.5-4.6c0,0,0,0,0,0
			c0.1-0.2,0-0.5-0.2-0.6c-0.2-0.1-0.5,0-0.6,0.2l0,0c-1.6,3.2-4.4,6-7.6,7.9c-1.6,0.9-3.3,1.7-5.1,2.2c-1.8,0.5-3.6,1.1-5.4,1.9
			c-0.9,0.4-1.8,0.8-2.6,1.1c-0.9,0.4-1.8,0.9-2.5,1.4c-1.6,1.1-3,2.5-4.2,4c-2.3,3-3.7,6.7-4.1,10.5H78.7z"/>
	</g>
	<g>
		<path class="st4" d="M77.8,65.4c-0.8,1.6-1.5,3.2-1.9,4.9c-0.4,1.7-0.6,3.5-0.5,5.2c0.1,1.7,0.6,3.4,1.5,5c0.8,1.5,2,2.9,3.3,4
			c0.2,0.2,0.2,0.5,0.1,0.7c-0.2,0.2-0.5,0.2-0.7,0.1c0,0,0,0,0,0C78.2,84,77,82.6,76.1,81c-0.9-1.6-1.4-3.5-1.5-5.3
			c-0.3-3.7,0.7-7.4,2.4-10.7c0.1-0.2,0.4-0.3,0.6-0.2C77.8,64.9,77.9,65.1,77.8,65.4C77.8,65.4,77.8,65.4,77.8,65.4z"/>
	</g>
	<g>
		<path class="st4" d="M77.8,63.1c0-1,0-2,0.2-3l0.5,0.1c-0.2,0.9-0.2,1.9-0.2,2.9L77.8,63.1z"/>
	</g>
	<g>
		<path class="st4" d="M80.2,55.1c-0.1,0-0.2,0-0.2-0.1c-0.2-0.1-0.3-0.4-0.2-0.6c3.1-5.3,8.2-8.1,8.4-8.2c0.2-0.1,0.5,0,0.6,0.2
			c0.1,0.2,0,0.5-0.2,0.6c-0.1,0-5.1,2.8-8,7.8C80.5,55.1,80.4,55.1,80.2,55.1z"/>
	</g>
	<g>
		<path class="st4" d="M105.4,80.4c0.1,0,6.2,3.4,6,7.9c-0.1,1.3-0.6,2.6-1.7,3.8h1.2c0.9-1.2,1.4-2.5,1.4-3.8
			c0.2-5.1-6.2-8.6-6.5-8.7c-0.2-0.1-0.5,0-0.6,0.2C105.1,80,105.2,80.3,105.4,80.4z"/>
	</g>
	<g>
		<path class="st4" d="M101.2,90.9L101.2,90.9l4.5-0.5c-0.2,0.5-0.4,1.1-0.7,1.6h1c0.3-0.7,0.6-1.3,0.8-2v0l0,0c0-0.1,0-0.1,0-0.2
			c-0.1-0.2-0.3-0.4-0.5-0.3l-3.8,0.8c0.6-0.3,1.1-0.7,1.6-1.2c0.4-0.4,0.8-0.8,1.2-1.2c0.4-0.5,0.7-0.9,1-1.4l0,0
			c0.1-0.1,0.1-0.3,0-0.4c-0.1-0.2-0.4-0.3-0.6-0.2l-2.9,1.5c0.7-0.7,1.2-1.6,1.6-2.5c0.2-0.6,0.4-1.3,0.5-2
			c0.1-0.7,0.1-1.4-0.1-2.1c0,0,0,0,0,0c-0.1-0.3-0.3-0.4-0.6-0.3c-0.3,0.1-0.4,0.3-0.3,0.6l0,0c0.1,0.6,0.2,1.2,0.2,1.8
			c0,0.6-0.1,1.3-0.3,1.9c-0.3,1.2-1,2.3-2,3.2h0c0,0-0.1,0.1,0,0.2c0,0.1,0.1,0.1,0.2,0.1l0,0l2.9-1c-0.1,0.1-0.1,0.2-0.2,0.3
			c-0.3,0.4-0.7,0.9-1,1.3c-0.8,0.8-1.6,1.5-2.6,2c-0.1,0-0.1,0.1-0.1,0.2C101,90.8,101.1,90.9,101.2,90.9z"/>
	</g>
	<g>
		<g>
			<path class="st4" d="M106.8,18.5c0.2-0.5,0.5-1,0.8-1.4c0.3-0.4,0.6-0.9,1.1-1.2c0.5-0.4,1.2-0.5,1.8-0.2
				c0.1,0.1,0.3,0.1,0.4,0.2c0.1,0,0.1,0.1,0.2,0.1l0.1,0.1c0.2,0.2,0.4,0.4,0.6,0.7c0.3,0.6,0.2,1.3-0.1,1.8
				c-0.3,0.5-0.9,0.9-1.4,1c-1.1,0.3-2.3,0-3.3-0.6l0,0C106.8,19,106.7,18.7,106.8,18.5z M107.8,18.5c0.7,0.4,1.5,0.6,2.2,0.4
				c0.8-0.2,1.5-1.1,1.1-1.8c-0.1-0.2-0.2-0.3-0.4-0.5l-0.1-0.1c0,0-0.1-0.1-0.1-0.1c-0.1-0.1-0.2-0.1-0.3-0.1
				c-0.4-0.2-0.7-0.1-1.1,0.2C108.5,17,108.1,17.7,107.8,18.5z"/>
		</g>
	</g>
	<g>
		<path class="st4" d="M81.1,55l-4.5,0.1l0.1,0l-3.1,1.5l0-0.3l2.3,1c0.2,0.1,0.2,0.2,0.2,0.4c-0.1,0.2-0.2,0.2-0.4,0.2c0,0,0,0,0,0
			l-2.2-1.2c-0.1-0.1-0.1-0.2-0.1-0.3c0,0,0-0.1,0.1-0.1l3-1.7c0,0,0.1,0,0.1,0h0l4.5,0c0.1,0,0.3,0.1,0.3,0.3
			C81.3,54.9,81.2,55,81.1,55z"/>
	</g>
	<g>
		<polygon class="st4" points="25.3,68.7 25.4,69.7 25,69.3 33.5,69.3 33,69.7 35.1,56.5 35.2,56.5 33.9,69.8 33.9,70.2 33.5,70.2 
			25,70.2 24.5,70.2 24.5,69.8 24.4,68.8 		"/>
	</g>
	<g>
		
			<rect x="23.5" y="60.5" transform="matrix(0.1275 0.9918 -0.9918 0.1275 81.3231 29.4431)" class="st4" width="0.9" height="0.9"/>
	</g>
	<g>
		<path class="st4" d="M33.5,70.2l-0.3-0.9l2.3-0.8c0.2-1.3,1.2-6.8,1.8-9.8l0.9,0.2c-0.7,3.3-1.8,10-1.8,10l0,0.3L33.5,70.2z"/>
	</g>
	<g>
		<path class="st4" d="M33.1,41.8c0.2,0.2,0.4,0.4,0.5,0.7c0.1,0.3,0,0.8-0.2,1.1c-0.5,0.5-0.9,0.6-1.4,0.7c-1,0.2-1.8,0-2.7,0
			c-1.7,0-3.3,0.1-4.7,0.9c-1.4,0.8-2.8,1.9-4.1,2.9c-1.4,1-2.7,2.1-4.1,3.1c-2.7,2.1-5.3,4.3-7.8,6.6c-1.2,1.2-2.5,2.3-3.4,3.7
			c-0.9,1.4-1.7,2.9-2.2,4.5l-0.3-0.3l0,0l2.4-1l1.1-0.5l-0.6,1.2l0,0l-1.4,1.8L4,67l0,0l2.5-0.8l0.1,0l0.2,0l0,0
			c1.1,0.3,2.2,0.5,3.3,0.7c1.1,0.2,2.3,0.3,3.4,0.3c2.3,0.1,4.6,0.1,6.8,0l0.1,0l0.1,0c1.4,0.5,3,0.9,4.4,1
			c0.7,0.1,1.5-0.1,1.6-0.5c0.1-0.2,0-0.5-0.1-0.7c-0.1-0.2-0.3-0.2-0.6-0.2L25.7,66c0.7-0.2,1.5-0.6,1.4-1.1c0-0.1,0-0.2-0.1-0.4
			c0-0.1-0.1-0.1-0.2-0.2c-0.2-0.1-0.7-0.1-1-0.1l-2.4,0l2.2-0.9c0,0,0,0,0,0c0.3-0.2,0.6-0.5,0.6-0.7c0-0.1,0-0.3-0.1-0.3
			c0.1,0.1-0.1-0.1-0.3-0.1c-0.8-0.2-1.8-0.1-2.7,0c-0.9,0.2-1.8,0.4-2.7,0.7c-0.9,0.3-1.8,0.7-2.7,1c1.4-1.3,3.3-2.3,5.3-2.7
			c1-0.2,2-0.4,3.1-0.1c0.3,0.1,0.6,0.1,0.9,0.6c0.2,0.3,0.3,0.7,0.2,1.1c-0.1,0.4-0.3,0.7-0.5,0.9c-0.2,0.2-0.5,0.4-0.8,0.5l0,0
			l-0.2-0.9c0.4,0,0.9,0,1.4,0.2c0.3,0.1,0.6,0.4,0.7,0.6c0.1,0.2,0.2,0.5,0.2,0.8c0,0.6-0.5,1.1-0.9,1.4c-0.4,0.3-0.8,0.4-1.3,0.6
			l-0.1-0.9c0.2,0,0.5,0,0.8,0.1c0.3,0.1,0.5,0.3,0.7,0.5c0.3,0.5,0.4,1,0.2,1.6c-0.2,0.6-0.8,0.8-1.2,0.9c-0.5,0.1-0.9,0.1-1.3,0.1
			c-1.7-0.1-3.2-0.6-4.7-1.1l0.2,0c-2.3,0.1-4.6,0.2-7,0c-1.2-0.1-2.3-0.2-3.5-0.4c-1.2-0.2-2.3-0.4-3.5-0.7l0,0l0.2,0l-2.6,0.3l0,0
			l-0.5,0.2l0.2-0.5l1-2.1l0,0l0.5,0.7l-2.6,0.6l0,0l-0.4,0.1L2.5,66c0.5-1.7,1.2-3.2,2.2-4.7c0.9-1.5,2.2-2.7,3.4-3.9
			c2.5-2.4,5.1-4.6,7.7-6.8c1.3-1.1,2.7-2.2,4-3.2c0.7-0.5,1.4-1,2.1-1.6c0.7-0.5,1.4-1,2.2-1.5c1.6-0.9,3.5-1.1,5.3-1
			c0.9,0,1.7,0.1,2.5,0c0.3,0,0.7-0.2,0.9-0.4c0.1-0.1,0.1,0,0-0.1c0-0.1-0.1-0.2-0.2-0.3L33.1,41.8z"/>
	</g>
	<g>
		<path class="st4" d="M18.9,63.5c-1.3-0.6-2.8-1.1-4.2-1.4c-0.7-0.2-1.5-0.3-2.2-0.4c-0.7-0.1-1.5-0.2-2.3-0.3
			c1.5-0.4,3.1-0.4,4.6-0.1c0.8,0.1,1.5,0.4,2.2,0.6c0.7,0.3,1.4,0.6,2.1,1L18.9,63.5z"/>
	</g>
	<g>
		<rect x="16.9" y="58.2" transform="matrix(0.3863 0.9224 -0.9224 0.3863 66.6752 21.2913)" class="st4" width="0.9" height="5"/>
	</g>
	<g>
		<path class="st4" d="M32.7,44.1c-0.5,0.4-1,0.9-1.4,1.4c-0.4,0.5-0.9,1-1.2,1.6c-0.8,1.1-1.4,2.3-1.8,3.6l0,0l-0.4-0.3l2.1-1.2
			l0.5-0.3l-0.2,0.5L29,51.9l-0.5,1.3c-0.2,0.4-0.4,0.9-0.4,1.2l-0.9-0.2c0.2-0.6,0.4-0.9,0.6-1.4l0.7-1.3l1.4-2.5l0.3,0.2l-2,1.4
			l-0.7,0.5l0.2-0.8v0c0.4-1.3,1-2.6,1.7-3.8c0.4-0.6,0.8-1.2,1.2-1.7c0.4-0.5,0.9-1.1,1.5-1.5L32.7,44.1z"/>
	</g>
	<g>
		<path class="st4" d="M47.3,63.3c0,0.6,0.2,1.2,0.3,1.7c0.2,0.6,0.5,1.1,0.8,1.6c0.6,1,1.5,1.9,2.6,2.4l-0.5,0.8
			c-1-0.8-1.9-1.8-2.6-2.9c-0.4-0.5-0.6-1.1-0.9-1.7c-0.2-0.6-0.5-1.2-0.6-1.9L47.3,63.3z"/>
	</g>
	<g>
		<path class="st4" d="M64.8,89.4c-0.2,0.9-0.4,1.8-0.6,2.6h0.6c0.2-0.8,0.4-1.7,0.6-2.5c0.3-2,0.5-4,0.2-6c-0.3-2-1-3.9-2.2-5.6
			l-0.7,0.6c1.4,1.3,2.1,3.2,2.4,5.1C65.2,85.5,65.1,87.5,64.8,89.4z"/>
	</g>
	<g>
		<path class="st4" d="M55,90.8c-0.1,0.4-0.2,0.8-0.3,1.2h0.8c0.1-0.4,0.2-0.7,0.2-1.1c0.3-1.8,0.2-3.6-0.2-5.3
			c-0.4-1.8-1.2-3.4-2.2-4.9l-0.8,0.6c1.1,1.3,1.9,2.8,2.3,4.5C55.3,87.4,55.3,89.1,55,90.8z"/>
	</g>
	<g>
		<path class="st4" d="M25.7,76.6c-2-3.6,0.7-7,0.8-7.1l0.7,0.6c-0.1,0.1-2.4,3-0.7,6.1L25.7,76.6z"/>
	</g>
	<g>
		<g>
			<path class="st4" d="M26,76.8c-0.8,0.4-1.6,1.1-2.1,2c-0.6,0.9-0.9,2-1,3.2c-0.3,2.2,0.5,4.5,2,6.1c1.5,1.6,3.8,2.5,6,2.6
				c2.3,0.1,4.6-0.4,6.7-1.3c2.2-0.8,4.2-2,6.2-3.2c2-1.2,4-2.5,6-3.7c2-1.3,3.9-2.6,6-3.7c1.1-0.5,2.3-0.9,3.5-0.9
				c1.2-0.1,2.4,0,3.6,0.1l0,0l0,0c1.1,0.1,2.2-0.1,3.1-0.7c0.9-0.6,1.4-1.6,1.4-2.7c0.2-2.2-1.1-4.4-3-5.6
				c-1.9-1.2-4.3-1.4-6.6-1.2c-2.3,0.2-4.5,0.9-6.7,1.8c-4.3,1.8-8.1,4.6-12.2,7c-2.1,1.2-4.2,2.3-6.7,2.6c-1.2,0.1-2.5,0-3.7-0.5
				C27.7,78.2,26.8,77.6,26,76.8z M26.4,75.9c0.8,0.8,1.6,1.5,2.7,2c1,0.4,2.1,0.6,3.3,0.5c2.2-0.2,4.4-1.3,6.4-2.4
				c4.1-2.3,7.9-5.1,12.3-7c2.2-0.9,4.5-1.6,6.9-1.9c2.4-0.2,4.9,0,7,1.3c2.1,1.2,3.6,3.7,3.3,6.2c-0.1,1.2-0.6,2.6-1.7,3.3
				c-1.1,0.7-2.4,0.9-3.6,0.8l0,0c-2.3-0.1-4.7-0.3-6.7,0.8c-2,1-4,2.4-6,3.7c-2,1.3-4,2.5-6,3.8c-2,1.2-4.1,2.4-6.3,3.3
				c-2.2,0.9-4.6,1.4-7,1.3c-2.4-0.1-4.9-1-6.6-2.8c-1.7-1.8-2.6-4.4-2.3-6.8c0.1-1.2,0.5-2.4,1.1-3.5c0.6-1.1,1.5-2,2.8-2.5
				l0.3-0.1L26.4,75.9z"/>
		</g>
	</g>
	<g>
		<path class="st4" d="M57.1,67.8c-0.3,0.5-0.7,1-1,1.5c-0.2,0.3-0.3,0.5-0.4,0.8l-0.2,0.4l-0.1,0.2l0,0.1c0,0,0,0.1,0-0.1
			c0,0.1-0.1-0.1-0.1-0.1c0,0,0,0,0,0c0,0,0,0,0.1,0c0.1,0,0.1,0,0.2,0c0.1,0,0.3,0,0.4,0c0.3,0,0.6,0,0.9-0.1
			c0.6-0.1,1.2-0.2,1.8-0.3h0l1-0.1L59,70.8l-2.2,2.6l0,0L56.7,73l2.3,0.3l0,0l0.4,0.1l-0.2,0.3l-2,3.4l0,0l-0.1-0.3l3.1,0.9
			l-0.3,0.9L57,77.2l-0.2-0.1l0.1-0.2l0,0l1.9-3.4l0.2,0.4l0,0l-2.3-0.3l-0.4-0.1l0.3-0.3l0,0l2-2.7l0.3,0.6h0L57,71.1L56,71.2
			c-0.2,0-0.3,0-0.5,0c-0.1,0-0.2,0-0.3,0c0,0-0.1,0-0.2,0c0,0-0.1,0-0.1,0c-0.1,0-0.2-0.2-0.2-0.2c0-0.3,0-0.2,0-0.3l0-0.1l0.1-0.2
			l0.2-0.4l0.4-0.8c0.2-0.6,0.5-1.1,0.7-1.7L57.1,67.8z"/>
	</g>
	<g>
		<path class="st4" d="M42.7,43.2c1.4-0.2,2.8-0.2,4.2,0.1c1.4,0.3,2.7,0.8,3.8,1.8c1.1,0.9,1.8,2.2,2.2,3.5
			c0.3,1.3,0.7,2.6,1.1,3.9c0.8,2.6,1.6,5.1,2.5,7.6c0.5,1.2,1,2.5,1.5,3.7c0.3,0.6,0.6,1.2,0.9,1.8c0.2,0.3,0.3,0.6,0.5,0.8
			c0.1,0.1,0.2,0.2,0.3,0.3c0.1,0.1,0.2,0.1,0.1,0.1l-0.1,0.9c-0.4-0.1-0.5-0.3-0.7-0.4c-0.1-0.2-0.2-0.3-0.3-0.5
			c-0.2-0.3-0.3-0.6-0.5-0.9c-0.3-0.6-0.6-1.2-0.8-1.9c-0.5-1.3-1-2.5-1.4-3.8c-0.9-2.5-1.8-5.1-2.6-7.7c-0.9-2.5-1.1-5.4-3.2-7.1
			c-2-1.6-4.9-1.8-7.4-1.4L42.7,43.2z"/>
	</g>
	<g>
		<polygon class="st4" points="18.6,92 23.6,87.1 22.9,86.4 17.4,91.9 17.4,92 		"/>
	</g>
	<g>
		<polygon class="st4" points="114.8,92 114.9,91.9 111.8,89.5 111.2,90.2 113.5,92 		"/>
	</g>
	<g>
		
			<rect x="67.5" y="71.3" transform="matrix(0.9999 1.282329e-02 -1.282329e-02 0.9999 0.9259 -0.9086)" class="st4" width="7.7" height="0.9"/>
	</g>
	<g>
		<path class="st4" d="M43.1,92l0-0.2h-0.4c-2.7,0-6.3-2-6.3-2l-0.5,0.8c0.1,0.1,1.5,0.8,3.2,1.4H43.1z"/>
	</g>
	<g>
		<path class="st4" d="M71.5,36.5c2.4,2.5,5.5,4.6,8.8,5.9c3.3,1.3,6.9,1.8,10.4,1.5c1.8-0.2,3.5-0.6,5.3-1c1.8-0.4,3.5-0.9,5.3-1.3
			l5.3-1.5c0.9-0.2,1.8-0.5,2.7-0.6c0.9-0.2,2-0.1,2.9,0.3l-0.6,0.6l0,0c-0.3-0.7-0.7-1.4-1.1-2c-0.5-0.6-1.1-1.1-1.8-1.3l0.1-0.5
			l0,0c0.6,0.1,1.3,0,1.9-0.1c0.6-0.1,1.3-0.2,1.9-0.4c1.2-0.4,2.4-1,3.3-1.8l0.2,0.8l0,0c-0.5-0.1-0.8-0.3-1.2-0.5
			c-0.4-0.2-0.7-0.5-1-0.7c-0.6-0.5-1.1-1.2-1.6-1.9l-0.3-0.4l0.5-0.1l0,0c0.3-0.1,0.6-0.3,1-0.5c0.3-0.2,0.6-0.4,0.9-0.7
			c0.6-0.5,1.1-1,1.6-1.6l0,0l0,0.6c-1.1-1.3-2-2.6-3-4c-0.9-1.4-1.8-2.8-2.4-4.5l1.5-0.5c0.4,1.5,1.2,2.9,2,4.3
			c0.8,1.4,1.7,2.8,2.7,4.1l0.2,0.3l-0.3,0.3l0,0c-0.6,0.6-1.1,1.1-1.8,1.6c-0.3,0.2-0.7,0.5-1,0.7c-0.4,0.2-0.7,0.4-1.2,0.5h0
			l0.2-0.5c0.5,0.6,1,1.2,1.6,1.6c0.3,0.2,0.6,0.4,0.9,0.6c0.3,0.2,0.7,0.3,1,0.4h0l1.1,0.1l-1,0.7c-1.1,0.8-2.4,1.4-3.7,1.8
			c-0.7,0.2-1.3,0.3-2,0.4c-0.7,0.1-1.4,0.1-2.1,0h0l0.1-0.5c0.9,0.2,1.6,0.7,2.2,1.4c0.6,0.6,1.1,1.3,1.5,2.1l0,0l0.5,1.1l-1.1-0.4
			c-1.6-0.6-3.3,0-5,0.4l-5.2,1.5c-1.8,0.5-3.5,0.9-5.3,1.4c-1.8,0.4-3.6,0.9-5.4,1.1c-3.7,0.3-7.5-0.2-10.9-1.6
			c-3.4-1.4-6.6-3.5-9.1-6.3L71.5,36.5z"/>
	</g>
	<g>
		<polygon class="st4" points="26.1,66.8 23.9,66.3 26.1,65.9 		"/>
	</g>
	<path class="st11" d="M64.9,54.4c0.1-0.1,0.1,0,0.1,0.2"/>
	<path class="st7" d="M20.5,62.9C19.9,64,19,65.8,19.9,67c0.6,0.8,1.7,1,2.7,1.2c1.2,0.3,2,0.5,3.1,0.1c0.4-0.1,1.1-0.3,1.1-0.7
		c0-0.4-0.6-0.7-0.8-1c1.8-0.1,2.3-3.2,0.1-3.1c1.7-1.3-0.3-2.6-1.8-2.3c-1.1,0.2-3.1,0.6-3.7,1.6"/>
	<path class="st11" d="M66.3,53.9c-0.1,0-0.1,0-0.2,0"/>
	<g>
		<g>
			<path class="st12" d="M31.7,52.2c0.9,0.8,0.9,1.9,1,3.1c0.4,0,0.9,0,1.3,0c0-1-0.6-4.2-2.1-3.4"/>
		</g>
		<g>
			<path class="st4" d="M31.9,52c0.2,0.2,0.4,0.4,0.6,0.7c0.1,0.3,0.3,0.5,0.3,0.8c0.1,0.6,0.1,1.1,0.1,1.7L32.7,55
				c0.4,0,0.8,0.1,1.2,0l-0.2,0.2c0-0.7-0.1-1.5-0.4-2.2c-0.1-0.4-0.3-0.7-0.6-0.9C32.6,51.8,32.2,51.8,31.9,52l-0.1-0.4
				c0.4-0.2,1-0.1,1.2,0.3c0.3,0.3,0.5,0.7,0.6,1c0.2,0.4,0.3,0.7,0.3,1.1c0.1,0.4,0.2,0.8,0.2,1.2l0,0.1l-0.2,0
				c-0.4,0-0.9,0.1-1.3,0l-0.2,0l0-0.2c0-0.5-0.1-1.1-0.2-1.6c-0.1-0.2-0.1-0.5-0.3-0.7c-0.1-0.2-0.2-0.4-0.5-0.6L31.9,52z"/>
		</g>
	</g>
	<g>
		<g>
			<path class="st13" d="M30.9,53.3c1.1,1.8-2.5,2.5-2.6,0.9C28.2,52.9,30.3,52.2,30.9,53.3z"/>
		</g>
		<g>
			<path class="st4" d="M31.1,53.3c0.2,0.3,0.3,0.7,0.2,1.1c-0.2,0.4-0.5,0.6-0.8,0.8c-0.3,0.2-0.7,0.2-1.1,0.2
				c-0.4,0-0.8-0.2-1-0.6c-0.3-0.8,0.1-1.6,0.8-1.9c0.3-0.2,0.7-0.2,1.1-0.2C30.5,52.7,30.9,52.9,31.1,53.3L31.1,53.3z M30.8,53.4
				c-0.3-0.6-1.1-0.7-1.7-0.4c-0.3,0.1-0.5,0.4-0.7,0.7c-0.1,0.3-0.1,0.6,0.1,0.8c0.3,0.4,1.1,0.5,1.6,0.3c0.3-0.1,0.6-0.3,0.7-0.5
				C31.1,54,31,53.7,30.8,53.4L30.8,53.4z"/>
		</g>
	</g>
	<g>
		<g>
			<path class="st12" d="M83.5,51.2c0.2,1.2-0.5,2.1-1.2,3c0.3,0.3,0.6,0.6,1,0.8c0.7-0.7,2.2-3.6,0.6-4"/>
		</g>
		<g>
			<path class="st4" d="M83.7,51.2c0,0.3,0.1,0.6,0,0.9c-0.1,0.3-0.1,0.6-0.3,0.8c-0.3,0.5-0.6,1-1,1.4l0-0.3
				c0.3,0.3,0.6,0.6,0.9,0.8l-0.2,0c0.5-0.5,0.9-1.2,1.1-1.9c0.1-0.4,0.2-0.7,0.1-1.1C84.4,51.4,84.1,51.2,83.7,51.2l0.2-0.4
				c0.4,0.1,0.8,0.6,0.8,1c0,0.4-0.1,0.8-0.2,1.2c-0.1,0.4-0.3,0.7-0.5,1.1c-0.2,0.4-0.4,0.7-0.6,1l-0.1,0.1l-0.1-0.1
				c-0.4-0.2-0.7-0.5-1-0.8L82,54.2l0.1-0.2c0.3-0.4,0.7-0.9,0.9-1.3c0.1-0.2,0.2-0.5,0.3-0.7c0-0.3,0.1-0.5,0-0.8L83.7,51.2z"/>
		</g>
	</g>
	<g>
		<path class="st12" d="M87.9,52.9c1.1,1.8-2.5,2.5-2.7,0.9C85.1,52.4,87.2,51.7,87.9,52.9z"/>
	</g>
	<g>
		<path class="st4" d="M88,52.8c0.2,0.3,0.3,0.7,0.2,1.1c-0.2,0.4-0.5,0.6-0.8,0.8c-0.3,0.2-0.7,0.2-1.1,0.2c-0.4,0-0.8-0.2-1-0.6
			c-0.3-0.8,0.1-1.6,0.8-1.9c0.3-0.2,0.7-0.2,1.1-0.2C87.4,52.2,87.8,52.5,88,52.8L88,52.8z M87.8,52.9c-0.3-0.6-1.1-0.7-1.7-0.4
			c-0.3,0.1-0.5,0.4-0.7,0.7c-0.1,0.3-0.1,0.6,0.1,0.8c0.3,0.4,1.1,0.5,1.6,0.3c0.3-0.1,0.6-0.3,0.7-0.5
			C88,53.5,87.9,53.2,87.8,52.9L87.8,52.9z"/>
	</g>
	<g>
		<path class="st12" d="M90,52.8c-0.2,1.2-2.1,0.2-1.5-0.6C89,51.6,90.2,52.1,90,52.8z"/>
	</g>
	<g>
		<path class="st4" d="M90.1,52.8c0,0.2-0.1,0.4-0.4,0.6c-0.2,0.1-0.5,0.1-0.7,0c-0.2-0.1-0.4-0.2-0.6-0.3c-0.1-0.2-0.3-0.4-0.2-0.7
			c0.2-0.5,0.7-0.7,1.1-0.5c0.2,0.1,0.4,0.2,0.5,0.3C90.1,52.4,90.1,52.6,90.1,52.8L90.1,52.8z M90,52.8c0.1-0.4-0.2-0.7-0.6-0.8
			c-0.2,0-0.4,0-0.5,0c-0.2,0.1-0.3,0.3-0.3,0.4c0,0.3,0.3,0.6,0.6,0.7c0.2,0.1,0.4,0.1,0.5,0C89.8,53.2,89.9,53,90,52.8L90,52.8z"
			/>
	</g>
	<path class="st14" d="M34.2,53.9c-0.1-1.3,0.5-2.8,1.6-3.7c1.1-1,2.5-1.5,3.8-1.8c1.4-0.3,2.8-0.4,4.1-0.5c0.9-0.1,1.9-0.6,2.2-1.3
		c0.2-0.3,0.2-0.7,0.2-1.1c0-0.1,0-0.3,0-0.3L46,45.1l0-0.1c-0.1-0.1-0.2-0.3-0.3-0.5c-0.5-0.6-1.4-1-2.1-0.9
		c-0.2,0-0.7,0.1-0.9,0.3c-0.3,0.2-0.4,0.4-0.5,0.7c-0.1,0.3,0,0.7,0.4,1c0.3,0.3,1,0.4,1.6,0.1c-0.3,0.7-1.1,1.2-2,1.1
		C41.1,46.8,40.2,46,40,45c-0.3-1,0-2.1,0.7-2.9c0.7-0.8,1.5-1.2,2.6-1.4c1.8-0.2,3.7,0.6,4.8,2.1c0.3,0.4,0.5,0.8,0.7,1.3l0.1,0.4
		l0.1,0.2c0.1,0.3,0.1,0.5,0.1,0.7c0.1,0.9-0.2,1.9-0.7,2.7c-0.5,0.8-1.3,1.4-2.1,1.7c-0.8,0.4-1.6,0.5-2.5,0.5
		c-1.3-0.1-2.5-0.2-3.8-0.1c-1.2,0.1-2.4,0.3-3.5,0.9C35.4,51.6,34.6,52.7,34.2,53.9z"/>
	<path class="st14" d="M86,51.4c-0.2-0.7-0.5-1.4-0.9-1.9c-0.4-0.5-0.9-0.8-1.4-1c-1.1-0.4-2.4-0.3-3.9-0.3c-0.7,0-1.5,0-2.4-0.2
		c-0.8-0.2-1.8-0.5-2.6-1.2c-0.4-0.4-0.7-0.8-0.9-1.3c-0.1-0.2-0.2-0.5-0.2-0.7c0-0.2,0-0.1-0.1-0.3c0-0.2,0-0.3,0-0.4
		c0-0.5,0.1-1,0.4-1.4c0.2-0.4,0.6-0.8,1-0.9c0.1,1.8,1.1,2.3,1.7,2.8c0.6,0.5,1.9,0.7,3.3,0.9c0.7,0.1,1.5,0.2,2.3,0.4
		c0.4,0.1,0.8,0.2,1.2,0.4c0.2,0.1,0.5,0.2,0.6,0.3c0.1,0.1,0.4,0.2,0.5,0.4c0.7,0.5,1.3,1.3,1.5,2.2C86.3,49.8,86.2,50.7,86,51.4z"
		/>
	<path class="st14" d="M35.8,53.9c0-0.7,0.5-1.4,1.1-1.9c0.6-0.4,1.3-0.7,2-0.9c0.7-0.1,1.5-0.1,2.2,0c0.7,0.2,1.2,0.6,1.7,1.4
		c-0.8,0.5-1.5,0.6-2.1,0.5c-0.6-0.1-1.1-0.1-1.6-0.1c-0.6,0-1.1,0-1.7,0.1C36.9,53.3,36.3,53.4,35.8,53.9z"/>
	<path class="st14" d="M83.4,50.6c-0.8-0.5-1.6-0.5-2.3-0.3c-0.8,0.2-1.5,0.4-2.4,0.6c-0.4,0.1-0.9,0.2-1.5,0.2
		c-0.6,0-1.1-0.1-1.6-0.3c-1-0.4-1.7-1.3-1.8-2.4c1.1,0.2,1.8,0.4,2.4,0.5c0.3,0.1,0.7,0.2,1,0.2c0.3,0,0.7,0,1.1-0.1
		c0.8-0.1,1.7-0.2,2.7-0.1C82.1,49.1,83.1,49.7,83.4,50.6z"/>
	<path class="st14" d="M22.9,51.7c-0.4,0.7-1.3,1.3-2.3,1.1c-1-0.2-1.9-0.8-2.4-1.7c-0.3-0.5-0.4-1-0.4-1.7c0-0.6,0.3-1.3,0.7-1.8
		c0.4-0.5,0.9-0.8,1.4-1l0.6-0.3c0.2-0.1,0.5-0.2,0.8-0.2c1-0.3,2.2-0.2,3.2,0.4c1,0.5,1.8,1.3,2.3,2.2c0.9,1.8,0.6,4.1-0.8,5.3
		c-0.5-1.8-1.1-2.9-1.7-3.9c-0.6-1-1.4-1.4-2.5-1.3c-0.2,0-0.2,0-0.4,0.1L20.8,49c-0.3,0.1-0.5,0.2-0.6,0.3c-0.3,0.2-0.4,0.5-0.3,1
		c0.1,0.5,0.5,1.1,1,1.4C21.4,52.1,22.2,52.1,22.9,51.7z"/>
	<path class="st14" d="M95,50.3c0.5,0.6,1.2,0.9,1.7,0.8c0.5-0.1,0.9-0.6,1.1-1c0.1-0.5,0-0.8-0.2-1.1l0,0c0,0,0.1,0.1,0,0.1l0,0
		l0,0l0,0l0,0l-0.1-0.1c-0.1-0.1-0.1-0.1-0.1-0.1c0,0-0.1-0.1-0.2-0.1c-0.2-0.1-0.4-0.1-0.6-0.2c-0.5-0.1-1,0-1.5,0.1
		c-0.5,0.1-1.1,0.4-1.3,0.6c-0.3,0.3-0.7,0.7-1.1,1.2c-0.4,0.5-0.8,1.1-1.2,1.9c-0.7-0.7-0.9-1.7-0.8-2.6c0.1-0.9,0.4-1.8,1.1-2.6
		c0.1-0.2,0.6-0.5,0.7-0.5l0.1-0.1l0.1-0.1l0,0l0.1,0l0.3-0.2c0.4-0.2,0.9-0.4,1.3-0.5c0.9-0.2,1.9-0.2,2.9,0.1
		c0.5,0.1,1,0.4,1.4,0.7c0.1,0.1,0.2,0.2,0.3,0.3c0.1,0.1,0.2,0.2,0.3,0.4c0.1,0.1,0.2,0.3,0.2,0.4l0.1,0.1l0.1,0.1l0,0.1
		c0.5,1,0.3,2.4-0.4,3.2c-0.7,0.8-1.7,1.3-2.7,1.1c-0.5-0.1-0.9-0.4-1.2-0.7C95.2,51.1,95.1,50.7,95,50.3z"/>
</g>
</svg>
